<?xml version="1.0" encoding="UTF-8"?>
<svg xmlns="http://www.w3.org/2000/svg" viewBox="0 0 280.00 530.00"><defs><marker id="seq-arrow-solid" viewBox="0 0 10 10" refX="9.00" refY="5.00" markerWidth="8.00" markerHeight="8.00" orient="auto"><polygon points="0,0 10,5 0,10" style="fill:#333"></polygon></marker><marker id="seq-arrow-dashed" viewBox="0 0 10 10" refX="9.00" refY="5.00" markerWidth="8.00" markerHeight="8.00" orient="auto"><polygon points="0,0 10,5 0,10" style="fill:#333"></polygon></marker><marker id="seq-arrow-solid-cross" viewBox="0 0 10 10" refX="5.00" refY="5.00" markerWidth="10.00" markerHeight="10.00" orient="auto"><path d="M2,2 L8,8 M2,8 L8,2" style="stroke:#333;stroke-width:1.5;fill:none"></path></marker><marker id="seq-arrow-dashed-cross" viewBox="0 0 10 10" refX="5.00" refY="5.00" markerWidth="10.00" markerHeight="10.00" orient="auto"><path d="M2,2 L8,8 M2,8 L8,2" style="stroke:#333;stroke-width:1.5;fill:none"></path></marker><marker id="seq-arrow-solid-open" viewBox="0 0 10 10" refX="10.00" refY="5.00" markerWidth="8.00" markerHeight="8.00" orient="auto"><polyline points="0,1 10,5 0,9" style="stroke:#333;stroke-width:1.5;fill:none"></polyline></marker><marker id="seq-arrow-dashed-open" viewBox="0 0 10 10" refX="10.00" refY="5.00" markerWidth="8.00" markerHeight="8.00" orient="auto"><polyline points="0,1 10,5 0,9" style="stroke:#333;stroke-width:1.5;fill:none"></polyline></marker></defs><rect x="0.00" y="0.00" width="280.00" height="530.00" style="fill:white;stroke:none"></rect><line x1="65.00" y1="55.00" x2="65.00" y2="475.00" style="stroke:#9370DB;stroke-width:2.0"></line><line x1="215.00" y1="55.00" x2="215.00" y2="475.00" style="stroke:#9370DB;stroke-width:2.0"></line><line x1="65.00" y1="90.00" x2="215.00" y2="90.00" style="stroke:#333;stroke-width:1.5;fill:none" marker-end="url(#seq-arrow-solid)"></line><text x="140.00" y="84.00" text-anchor="middle" dominant-baseline="auto" style="fill:#333;font-size:14px">Login</text><line x1="215.00" y1="190.00" x2="65.00" y2="190.00" style="stroke:#333;stroke-width:1.5;fill:none;stroke-dasharray:5,5" marker-end="url(#seq-arrow-dashed)"></line><text x="140.00" y="184.00" text-anchor="middle" dominant-baseline="auto" style="fill:#333;font-size:14px">Token</text><line x1="215.00" y1="290.00" x2="65.00" y2="290.00" style="stroke:#333;stroke-width:1.5;fill:none;stroke-dasharray:5,5" marker-end="url(#seq-arrow-dashed)"></line><text x="140.00" y="284.00" text-anchor="middle" dominant-baseline="auto" style="fill:#333;font-size:14px">401 Unauthorized</text><line x1="215.00" y1="390.00" x2="65.00" y2="390.00" style="stroke:#333;stroke-width:1.5;fill:none;stroke-dasharray:5,5" marker-end="url(#seq-arrow-dashed)"></line><text x="140.00" y="384.00" text-anchor="middle" dominant-baseline="auto" style="fill:#333;font-size:14px">423 Locked</text><rect x="15.00" y="127.50" width="250.00" height="337.50" rx="3.00" ry="3.00" style="fill:none;stroke:#9370DB;stroke-width:1.5;stroke-dasharray:5,5"></rect><rect x="15.00" y="127.50" width="41.20" height="20.00" rx="6.00" ry="6.00" style="fill:#ECECFF;stroke:#9370DB;stroke-width:1.5"></rect><text x="23.00" y="141.50" text-anchor="start" dominant-baseline="auto" style="fill:#333;font-size:13px;font-weight:bold">alt</text><text x="140.00" y="141.50" text-anchor="middle" dominant-baseline="auto" style="fill:#333;font-size:13px">[valid credentials]</text><line x1="15.00" y1="240.00" x2="265.00" y2="240.00" style="stroke:#9370DB;stroke-width:1.5;stroke-dasharray:5,5"></line><text x="140.00" y="255.00" text-anchor="middle" dominant-baseline="central" style="fill:#333;font-size:13px">[invalid credentials]</text><line x1="15.00" y1="340.00" x2="265.00" y2="340.00" style="stroke:#9370DB;stroke-width:1.5;stroke-dasharray:5,5"></line><text x="140.00" y="355.00" text-anchor="middle" dominant-baseline="central" style="fill:#333;font-size:13px">[locked account]</text><rect x="20.00" y="20.00" width="90.00" height="35.00" rx="3.00" ry="3.00" style="fill:#ECECFF;stroke:#9370DB;stroke-width:1.5"></rect><text x="65.00" y="37.50" text-anchor="middle" dominant-baseline="central" style="fill:#333;font-size:14px">User</text><rect x="20.00" y="475.00" width="90.00" height="35.00" rx="3.00" ry="3.00" style="fill:#ECECFF;stroke:#9370DB;stroke-width:1.5"></rect><text x="65.00" y="492.50" text-anchor="middle" dominant-baseline="central" style="fill:#333;font-size:14px">User</text><rect x="170.00" y="20.00" width="90.00" height="35.00" rx="3.00" ry="3.00" style="fill:#ECECFF;stroke:#9370DB;stroke-width:1.5"></rect><text x="215.00" y="37.50" text-anchor="middle" dominant-baseline="central" style="fill:#333;font-size:14px">Auth</text><rect x="170.00" y="475.00" width="90.00" height="35.00" rx="3.00" ry="3.00" style="fill:#ECECFF;stroke:#9370DB;stroke-width:1.5"></rect><text x="215.00" y="492.50" text-anchor="middle" dominant-baseline="central" style="fill:#333;font-size:14px">Auth</text></svg>