<?xml version="1.0" encoding="UTF-8"?>
<svg xmlns="http://www.w3.org/2000/svg" viewBox="0 0 280.00 555.00"><defs><marker id="seq-arrow-solid" viewBox="0 0 10 10" refX="9.00" refY="5.00" markerWidth="8.00" markerHeight="8.00" orient="auto"><polygon points="0,0 10,5 0,10" style="fill:#333"></polygon></marker><marker id="seq-arrow-dashed" viewBox="0 0 10 10" refX="9.00" refY="5.00" markerWidth="8.00" markerHeight="8.00" orient="auto"><polygon points="0,0 10,5 0,10" style="fill:#333"></polygon></marker><marker id="seq-arrow-solid-cross" viewBox="0 0 10 10" refX="5.00" refY="5.00" markerWidth="10.00" markerHeight="10.00" orient="auto"><path d="M2,2 L8,8 M2,8 L8,2" style="stroke:#333;stroke-width:1.5;fill:none"></path></marker><marker id="seq-arrow-dashed-cross" viewBox="0 0 10 10" refX="5.00" refY="5.00" markerWidth="10.00" markerHeight="10.00" orient="auto"><path d="M2,2 L8,8 M2,8 L8,2" style="stroke:#333;stroke-width:1.5;fill:none"></path></marker><marker id="seq-arrow-solid-open" viewBox="0 0 10 10" refX="10.00" refY="5.00" markerWidth="8.00" markerHeight="8.00" orient="auto"><polyline points="0,1 10,5 0,9" style="stroke:#333;stroke-width:1.5;fill:none"></polyline></marker><marker id="seq-arrow-dashed-open" viewBox="0 0 10 10" refX="10.00" refY="5.00" markerWidth="8.00" markerHeight="8.00" orient="auto"><polyline points="0,1 10,5 0,9" style="stroke:#333;stroke-width:1.5;fill:none"></polyline></marker></defs><rect x="0.00" y="0.00" width="280.00" height="555.00" style="fill:white;stroke:none"></rect><line x1="65.00" y1="55.00" x2="65.00" y2="500.00" style="stroke:#9370DB;stroke-width:2.0"></line><line x1="215.00" y1="55.00" x2="215.00" y2="500.00" style="stroke:#9370DB;stroke-width:2.0"></line><line x1="65.00" y1="90.00" x2="215.00" y2="90.00" style="stroke:#333;stroke-width:1.5;fill:none"></line><text x="140.00" y="84.00" text-anchor="middle" dominant-baseline="auto" style="fill:#333;font-size:14px">solid no head</text><line x1="65.00" y1="140.00" x2="215.00" y2="140.00" style="stroke:#333;stroke-width:1.5;fill:none;stroke-dasharray:5,5"></line><text x="140.00" y="134.00" text-anchor="middle" dominant-baseline="auto" style="fill:#333;font-size:14px">dashed no head</text><line x1="65.00" y1="190.00" x2="215.00" y2="190.00" style="stroke:#333;stroke-width:1.5;fill:none" marker-end="url(#seq-arrow-solid)"></line><text x="140.00" y="184.00" text-anchor="middle" dominant-baseline="auto" style="fill:#333;font-size:14px">solid filled head</text><line x1="65.00" y1="240.00" x2="215.00" y2="240.00" style="stroke:#333;stroke-width:1.5;fill:none;stroke-dasharray:5,5" marker-end="url(#seq-arrow-dashed)"></line><text x="140.00" y="234.00" text-anchor="middle" dominant-baseline="auto" style="fill:#333;font-size:14px">dashed filled head</text><line x1="65.00" y1="290.00" x2="215.00" y2="290.00" style="stroke:#333;stroke-width:1.5;fill:none" marker-end="url(#seq-arrow-solid-cross)"></line><text x="140.00" y="284.00" text-anchor="middle" dominant-baseline="auto" style="fill:#333;font-size:14px">solid cross</text><line x1="65.00" y1="340.00" x2="215.00" y2="340.00" style="stroke:#333;stroke-width:1.5;fill:none;stroke-dasharray:5,5" marker-end="url(#seq-arrow-dashed-cross)"></line><text x="140.00" y="334.00" text-anchor="middle" dominant-baseline="auto" style="fill:#333;font-size:14px">dashed cross</text><line x1="65.00" y1="390.00" x2="215.00" y2="390.00" style="stroke:#333;stroke-width:1.5;fill:none" marker-end="url(#seq-arrow-solid-open)"></line><text x="140.00" y="384.00" text-anchor="middle" dominant-baseline="auto" style="fill:#333;font-size:14px">solid open async</text><line x1="65.00" y1="440.00" x2="215.00" y2="440.00" style="stroke:#333;stroke-width:1.5;fill:none;stroke-dasharray:5,5" marker-end="url(#seq-arrow-dashed-open)"></line><text x="140.00" y="434.00" text-anchor="middle" dominant-baseline="auto" style="fill:#333;font-size:14px">dashed open async</text><rect x="20.00" y="20.00" width="90.00" height="35.00" rx="3.00" ry="3.00" style="fill:#ECECFF;stroke:#9370DB;stroke-width:1.5"></rect><text x="65.00" y="37.50" text-anchor="middle" dominant-baseline="central" style="fill:#333;font-size:14px">A</text><rect x="20.00" y="500.00" width="90.00" height="35.00" rx="3.00" ry="3.00" style="fill:#ECECFF;stroke:#9370DB;stroke-width:1.5"></rect><text x="65.00" y="517.50" text-anchor="middle" dominant-baseline="central" style="fill:#333;font-size:14px">A</text><rect x="170.00" y="20.00" width="90.00" height="35.00" rx="3.00" ry="3.00" style="fill:#ECECFF;stroke:#9370DB;stroke-width:1.5"></rect><text x="215.00" y="37.50" text-anchor="middle" dominant-baseline="central" style="fill:#333;font-size:14px">B</text><rect x="170.00" y="500.00" width="90.00" height="35.00" rx="3.00" ry="3.00" style="fill:#ECECFF;stroke:#9370DB;stroke-width:1.5"></rect><text x="215.00" y="517.50" text-anchor="middle" dominant-baseline="central" style="fill:#333;font-size:14px">B</text></svg>