<?xml version="1.0" encoding="UTF-8"?>
<svg xmlns="http://www.w3.org/2000/svg" viewBox="0 0 583.60 530.00"><defs><marker id="seq-arrow-solid" viewBox="0 0 10 10" refX="9.00" refY="5.00" markerWidth="8.00" markerHeight="8.00" orient="auto"><polygon points="0,0 10,5 0,10" style="fill:#333"></polygon></marker><marker id="seq-arrow-dashed" viewBox="0 0 10 10" refX="9.00" refY="5.00" markerWidth="8.00" markerHeight="8.00" orient="auto"><polygon points="0,0 10,5 0,10" style="fill:#333"></polygon></marker><marker id="seq-arrow-solid-cross" viewBox="0 0 10 10" refX="9.00" refY="5.00" markerWidth="8.00" markerHeight="8.00" orient="auto"><polyline points="0,0 10,5 0,10" style="stroke:#333;stroke-width:1.5;fill:none"></polyline></marker><marker id="seq-arrow-dashed-cross" viewBox="0 0 10 10" refX="9.00" refY="5.00" markerWidth="8.00" markerHeight="8.00" orient="auto"><polyline points="0,0 10,5 0,10" style="stroke:#333;stroke-width:1.5;fill:none"></polyline></marker><marker id="seq-arrow-solid-open" viewBox="0 0 10 10" refX="10.00" refY="5.00" markerWidth="8.00" markerHeight="8.00" orient="auto"><polyline points="0,1 10,5 0,9" style="stroke:#333;stroke-width:1.5;fill:none"></polyline></marker><marker id="seq-arrow-dashed-open" viewBox="0 0 10 10" refX="10.00" refY="5.00" markerWidth="8.00" markerHeight="8.00" orient="auto"><polyline points="0,1 10,5 0,9" style="stroke:#333;stroke-width:1.5;fill:none"></polyline></marker></defs><rect x="0.00" y="0.00" width="583.60" height="530.00" style="fill:white;stroke:none"></rect><line x1="65.00" y1="65.00" x2="65.00" y2="465.00" style="stroke:#999;stroke-width:1.5;stroke-dasharray:5,5"></line><line x1="215.00" y1="65.00" x2="215.00" y2="465.00" style="stroke:#999;stroke-width:1.5;stroke-dasharray:5,5"></line><line x1="365.00" y1="65.00" x2="365.00" y2="465.00" style="stroke:#999;stroke-width:1.5;stroke-dasharray:5,5"></line><line x1="515.00" y1="65.00" x2="515.00" y2="465.00" style="stroke:#999;stroke-width:1.5;stroke-dasharray:5,5"></line><line x1="65.00" y1="90.00" x2="215.00" y2="90.00" style="stroke:#333;stroke-width:1.5;fill:none" marker-end="url(#seq-arrow-solid)"></line><text x="140.00" y="84.00" text-anchor="middle" dominant-baseline="auto" style="fill:#333;font-size:14px">Login request</text><line x1="215.00" y1="140.00" x2="365.00" y2="140.00" style="stroke:#333;stroke-width:1.5;fill:none" marker-end="url(#seq-arrow-solid)"></line><text x="290.00" y="134.00" text-anchor="middle" dominant-baseline="auto" style="fill:#333;font-size:14px">Validate credentials</text><line x1="365.00" y1="190.00" x2="215.00" y2="190.00" style="stroke:#333;stroke-width:1.5;fill:none;stroke-dasharray:5,5" marker-end="url(#seq-arrow-dashed)"></line><text x="290.00" y="184.00" text-anchor="middle" dominant-baseline="auto" style="fill:#333;font-size:14px">Access token</text><line x1="215.00" y1="240.00" x2="65.00" y2="240.00" style="stroke:#333;stroke-width:1.5;fill:none;stroke-dasharray:5,5" marker-end="url(#seq-arrow-dashed)"></line><text x="140.00" y="234.00" text-anchor="middle" dominant-baseline="auto" style="fill:#333;font-size:14px">Login success</text><line x1="65.00" y1="290.00" x2="215.00" y2="290.00" style="stroke:#333;stroke-width:1.5;fill:none" marker-end="url(#seq-arrow-solid)"></line><text x="140.00" y="284.00" text-anchor="middle" dominant-baseline="auto" style="fill:#333;font-size:14px">Get data</text><line x1="215.00" y1="340.00" x2="515.00" y2="340.00" style="stroke:#333;stroke-width:1.5;fill:none" marker-end="url(#seq-arrow-solid)"></line><text x="365.00" y="334.00" text-anchor="middle" dominant-baseline="auto" style="fill:#333;font-size:14px">Fetch with token</text><line x1="515.00" y1="390.00" x2="215.00" y2="390.00" style="stroke:#333;stroke-width:1.5;fill:none;stroke-dasharray:5,5" marker-end="url(#seq-arrow-dashed)"></line><text x="365.00" y="384.00" text-anchor="middle" dominant-baseline="auto" style="fill:#333;font-size:14px">Data</text><line x1="215.00" y1="440.00" x2="65.00" y2="440.00" style="stroke:#333;stroke-width:1.5;fill:none;stroke-dasharray:5,5" marker-end="url(#seq-arrow-dashed)"></line><text x="140.00" y="434.00" text-anchor="middle" dominant-baseline="auto" style="fill:#333;font-size:14px">Display data</text><rect x="33.20" y="20.00" width="63.60" height="35.00" rx="3.00" ry="3.00" style="fill:#ECECFF;stroke:#9370DB;stroke-width:1.5"></rect><text x="65.00" y="37.50" text-anchor="middle" dominant-baseline="central" style="fill:#333;font-size:14px">User</text><rect x="33.20" y="475.00" width="63.60" height="35.00" rx="3.00" ry="3.00" style="fill:#ECECFF;stroke:#9370DB;stroke-width:1.5"></rect><text x="65.00" y="492.50" text-anchor="middle" dominant-baseline="central" style="fill:#333;font-size:14px">User</text><rect x="187.40" y="20.00" width="55.20" height="35.00" rx="3.00" ry="3.00" style="fill:#ECECFF;stroke:#9370DB;stroke-width:1.5"></rect><text x="215.00" y="37.50" text-anchor="middle" dominant-baseline="central" style="fill:#333;font-size:14px">App</text><rect x="187.40" y="475.00" width="55.20" height="35.00" rx="3.00" ry="3.00" style="fill:#ECECFF;stroke:#9370DB;stroke-width:1.5"></rect><text x="215.00" y="492.50" text-anchor="middle" dominant-baseline="central" style="fill:#333;font-size:14px">App</text><rect x="308.00" y="20.00" width="114.00" height="35.00" rx="3.00" ry="3.00" style="fill:#ECECFF;stroke:#9370DB;stroke-width:1.5"></rect><text x="365.00" y="37.50" text-anchor="middle" dominant-baseline="central" style="fill:#333;font-size:14px">AuthServer</text><rect x="308.00" y="475.00" width="114.00" height="35.00" rx="3.00" ry="3.00" style="fill:#ECECFF;stroke:#9370DB;stroke-width:1.5"></rect><text x="365.00" y="492.50" text-anchor="middle" dominant-baseline="central" style="fill:#333;font-size:14px">AuthServer</text><rect x="466.40" y="20.00" width="97.20" height="35.00" rx="3.00" ry="3.00" style="fill:#ECECFF;stroke:#9370DB;stroke-width:1.5"></rect><text x="515.00" y="37.50" text-anchor="middle" dominant-baseline="central" style="fill:#333;font-size:14px">Resource</text><rect x="466.40" y="475.00" width="97.20" height="35.00" rx="3.00" ry="3.00" style="fill:#ECECFF;stroke:#9370DB;stroke-width:1.5"></rect><text x="515.00" y="492.50" text-anchor="middle" dominant-baseline="central" style="fill:#333;font-size:14px">Resource</text></svg>