<?xml version="1.0" encoding="UTF-8"?>
<svg xmlns="http://www.w3.org/2000/svg" viewBox="0 0 580.00 478.00"><defs><marker id="seq-arrow-solid" viewBox="0 0 10 10" refX="9.00" refY="5.00" markerWidth="8.00" markerHeight="8.00" orient="auto"><polygon points="0,0 10,5 0,10" style="fill:#333"></polygon></marker><marker id="seq-arrow-dashed" viewBox="0 0 10 10" refX="9.00" refY="5.00" markerWidth="8.00" markerHeight="8.00" orient="auto"><polygon points="0,0 10,5 0,10" style="fill:#333"></polygon></marker><marker id="seq-arrow-solid-cross" viewBox="0 0 10 10" refX="5.00" refY="5.00" markerWidth="10.00" markerHeight="10.00" orient="auto"><path d="M2,2 L8,8 M2,8 L8,2" style="stroke:#333;stroke-width:1.5;fill:none"></path></marker><marker id="seq-arrow-dashed-cross" viewBox="0 0 10 10" refX="5.00" refY="5.00" markerWidth="10.00" markerHeight="10.00" orient="auto"><path d="M2,2 L8,8 M2,8 L8,2" style="stroke:#333;stroke-width:1.5;fill:none"></path></marker><marker id="seq-arrow-solid-open" viewBox="0 0 10 10" refX="10.00" refY="5.00" markerWidth="8.00" markerHeight="8.00" orient="auto"><polyline points="0,1 10,5 0,9" style="stroke:#333;stroke-width:1.5;fill:none"></polyline></marker><marker id="seq-arrow-dashed-open" viewBox="0 0 10 10" refX="10.00" refY="5.00" markerWidth="8.00" markerHeight="8.00" orient="auto"><polyline points="0,1 10,5 0,9" style="stroke:#333;stroke-width:1.5;fill:none"></polyline></marker></defs><rect x="0.00" y="0.00" width="580.00" height="478.00" style="fill:white;stroke:none"></rect><rect x="10.00" y="20.00" width="260.00" height="448.00" rx="3.00" ry="3.00" style="fill:#ECECFF;fill-opacity:0.5;stroke:#9370DB;stroke-width:1.5"></rect><text x="140.00" y="29.00" text-anchor="middle" dominant-baseline="central" style="fill:#333;font-size:12px;font-weight:bold">Frontend</text><rect x="310.00" y="20.00" width="260.00" height="448.00" rx="3.00" ry="3.00" style="fill:rgb(220, 255, 220);fill-opacity:0.5;stroke:#9370DB;stroke-width:1.5"></rect><text x="440.00" y="29.00" text-anchor="middle" dominant-baseline="central" style="fill:#333;font-size:12px;font-weight:bold">Backend</text><line x1="65.00" y1="78.00" x2="65.00" y2="423.00" style="stroke:#9370DB;stroke-width:2.0"></line><line x1="215.00" y1="78.00" x2="215.00" y2="423.00" style="stroke:#9370DB;stroke-width:2.0"></line><line x1="365.00" y1="78.00" x2="365.00" y2="423.00" style="stroke:#9370DB;stroke-width:2.0"></line><line x1="515.00" y1="78.00" x2="515.00" y2="423.00" style="stroke:#9370DB;stroke-width:2.0"></line><line x1="65.00" y1="113.00" x2="215.00" y2="113.00" style="stroke:#333;stroke-width:1.5;fill:none" marker-end="url(#seq-arrow-solid)"></line><text x="140.00" y="107.00" text-anchor="middle" dominant-baseline="auto" style="fill:#333;font-size:14px">User action</text><line x1="215.00" y1="163.00" x2="365.00" y2="163.00" style="stroke:#333;stroke-width:1.5;fill:none" marker-end="url(#seq-arrow-solid)"></line><text x="290.00" y="157.00" text-anchor="middle" dominant-baseline="auto" style="fill:#333;font-size:14px">Request</text><line x1="365.00" y1="213.00" x2="515.00" y2="213.00" style="stroke:#333;stroke-width:1.5;fill:none" marker-end="url(#seq-arrow-solid)"></line><text x="440.00" y="207.00" text-anchor="middle" dominant-baseline="auto" style="fill:#333;font-size:14px">Enqueue job</text><line x1="515.00" y1="263.00" x2="365.00" y2="263.00" style="stroke:#333;stroke-width:1.5;fill:none;stroke-dasharray:5,5" marker-end="url(#seq-arrow-dashed)"></line><text x="440.00" y="257.00" text-anchor="middle" dominant-baseline="auto" style="fill:#333;font-size:14px">Done</text><line x1="365.00" y1="313.00" x2="215.00" y2="313.00" style="stroke:#333;stroke-width:1.5;fill:none;stroke-dasharray:5,5" marker-end="url(#seq-arrow-dashed)"></line><text x="290.00" y="307.00" text-anchor="middle" dominant-baseline="auto" style="fill:#333;font-size:14px">Response</text><line x1="215.00" y1="363.00" x2="65.00" y2="363.00" style="stroke:#333;stroke-width:1.5;fill:none;stroke-dasharray:5,5" marker-end="url(#seq-arrow-dashed)"></line><text x="140.00" y="357.00" text-anchor="middle" dominant-baseline="auto" style="fill:#333;font-size:14px">Update UI</text><rect x="20.00" y="43.00" width="90.00" height="35.00" rx="3.00" ry="3.00" style="fill:#ECECFF;stroke:#9370DB;stroke-width:1.5"></rect><text x="65.00" y="60.50" text-anchor="middle" dominant-baseline="central" style="fill:#333;font-size:14px">Browser</text><rect x="20.00" y="423.00" width="90.00" height="35.00" rx="3.00" ry="3.00" style="fill:#ECECFF;stroke:#9370DB;stroke-width:1.5"></rect><text x="65.00" y="440.50" text-anchor="middle" dominant-baseline="central" style="fill:#333;font-size:14px">Browser</text><rect x="170.00" y="43.00" width="90.00" height="35.00" rx="3.00" ry="3.00" style="fill:#ECECFF;stroke:#9370DB;stroke-width:1.5"></rect><text x="215.00" y="60.50" text-anchor="middle" dominant-baseline="central" style="fill:#333;font-size:14px">SPA</text><rect x="170.00" y="423.00" width="90.00" height="35.00" rx="3.00" ry="3.00" style="fill:#ECECFF;stroke:#9370DB;stroke-width:1.5"></rect><text x="215.00" y="440.50" text-anchor="middle" dominant-baseline="central" style="fill:#333;font-size:14px">SPA</text><rect x="320.00" y="43.00" width="90.00" height="35.00" rx="3.00" ry="3.00" style="fill:#ECECFF;stroke:#9370DB;stroke-width:1.5"></rect><text x="365.00" y="60.50" text-anchor="middle" dominant-baseline="central" style="fill:#333;font-size:14px">API</text><rect x="320.00" y="423.00" width="90.00" height="35.00" rx="3.00" ry="3.00" style="fill:#ECECFF;stroke:#9370DB;stroke-width:1.5"></rect><text x="365.00" y="440.50" text-anchor="middle" dominant-baseline="central" style="fill:#333;font-size:14px">API</text><rect x="470.00" y="43.00" width="90.00" height="35.00" rx="3.00" ry="3.00" style="fill:#ECECFF;stroke:#9370DB;stroke-width:1.5"></rect><text x="515.00" y="60.50" text-anchor="middle" dominant-baseline="central" style="fill:#333;font-size:14px">Worker</text><rect x="470.00" y="423.00" width="90.00" height="35.00" rx="3.00" ry="3.00" style="fill:#ECECFF;stroke:#9370DB;stroke-width:1.5"></rect><text x="515.00" y="440.50" text-anchor="middle" dominant-baseline="central" style="fill:#333;font-size:14px">Worker</text></svg>