<?xml version="1.0" encoding="UTF-8"?>
<svg xmlns="http://www.w3.org/2000/svg" viewBox="0 0 447.60 605.00"><defs><marker id="seq-arrow-solid" viewBox="0 0 10 10" refX="9.00" refY="5.00" markerWidth="8.00" markerHeight="8.00" orient="auto"><polygon points="0,0 10,5 0,10" style="fill:#333"></polygon></marker><marker id="seq-arrow-dashed" viewBox="0 0 10 10" refX="9.00" refY="5.00" markerWidth="8.00" markerHeight="8.00" orient="auto"><polygon points="0,0 10,5 0,10" style="fill:#333"></polygon></marker><marker id="seq-arrow-solid-cross" viewBox="0 0 10 10" refX="5.00" refY="5.00" markerWidth="10.00" markerHeight="10.00" orient="auto"><path d="M2,2 L8,8 M2,8 L8,2" style="stroke:#333;stroke-width:1.5;fill:none"></path></marker><marker id="seq-arrow-dashed-cross" viewBox="0 0 10 10" refX="5.00" refY="5.00" markerWidth="10.00" markerHeight="10.00" orient="auto"><path d="M2,2 L8,8 M2,8 L8,2" style="stroke:#333;stroke-width:1.5;fill:none"></path></marker><marker id="seq-arrow-solid-open" viewBox="0 0 10 10" refX="10.00" refY="5.00" markerWidth="8.00" markerHeight="8.00" orient="auto"><polyline points="0,1 10,5 0,9" style="stroke:#333;stroke-width:1.5;fill:none"></polyline></marker><marker id="seq-arrow-dashed-open" viewBox="0 0 10 10" refX="10.00" refY="5.00" markerWidth="8.00" markerHeight="8.00" orient="auto"><polyline points="0,1 10,5 0,9" style="stroke:#333;stroke-width:1.5;fill:none"></polyline></marker></defs><rect x="0.00" y="0.00" width="447.60" height="605.00" style="fill:white;stroke:none"></rect><line x1="82.60" y1="65.00" x2="82.60" y2="515.00" style="stroke:#9370DB;stroke-width:2.0;stroke-dasharray:5,5"></line><line x1="232.60" y1="115.00" x2="232.60" y2="290.00" style="stroke:#9370DB;stroke-width:2.0;stroke-dasharray:5,5"></line><line x1="382.60" y1="165.00" x2="382.60" y2="440.00" style="stroke:#9370DB;stroke-width:2.0;stroke-dasharray:5,5"></line><path d="M82.60,90.00 C132.60,90.00 132.60,130.00 82.60,130.00" style="stroke:#333;stroke-width:1.5;fill:none" marker-end="url(#seq-arrow-solid)"></path><text x="78.60" y="110.00" text-anchor="end" dominant-baseline="central" style="fill:#333;font-size:14px">Boot</text><rect x="187.60" y="117.00" width="90.00" height="35.00" rx="3.00" ry="3.00" style="fill:#ECECFF;stroke:#9370DB;stroke-width:1.5"></rect><text x="232.60" y="134.50" text-anchor="middle" dominant-baseline="central" style="fill:#333;font-size:14px">Worker1</text><line x1="82.60" y1="140.00" x2="187.60" y2="140.00" style="stroke:#333;stroke-width:1.5;fill:none" marker-end="url(#seq-arrow-solid)"></line><text x="135.10" y="134.00" text-anchor="middle" dominant-baseline="auto" style="fill:#333;font-size:14px">Spawn</text><rect x="337.60" y="167.00" width="90.00" height="35.00" rx="3.00" ry="3.00" style="fill:#ECECFF;stroke:#9370DB;stroke-width:1.5"></rect><text x="382.60" y="184.50" text-anchor="middle" dominant-baseline="central" style="fill:#333;font-size:14px">Worker2</text><line x1="82.60" y1="190.00" x2="337.60" y2="190.00" style="stroke:#333;stroke-width:1.5;fill:none" marker-end="url(#seq-arrow-solid)"></line><text x="210.10" y="184.00" text-anchor="middle" dominant-baseline="auto" style="fill:#333;font-size:14px">Spawn</text><line x1="232.60" y1="240.00" x2="82.60" y2="240.00" style="stroke:#333;stroke-width:1.5;fill:none;stroke-dasharray:5,5" marker-end="url(#seq-arrow-dashed)"></line><text x="157.60" y="234.00" text-anchor="middle" dominant-baseline="auto" style="fill:#333;font-size:14px">Done</text><line x1="226.60" y1="284.00" x2="238.60" y2="296.00" style="stroke:#333;stroke-width:3.0"></line><line x1="226.60" y1="296.00" x2="238.60" y2="284.00" style="stroke:#333;stroke-width:3.0"></line><line x1="82.60" y1="340.00" x2="232.60" y2="340.00" style="stroke:#333;stroke-width:1.5;fill:none" marker-end="url(#seq-arrow-solid)"></line><text x="157.60" y="334.00" text-anchor="middle" dominant-baseline="auto" style="fill:#333;font-size:14px">Join</text><line x1="382.60" y1="390.00" x2="82.60" y2="390.00" style="stroke:#333;stroke-width:1.5;fill:none;stroke-dasharray:5,5" marker-end="url(#seq-arrow-dashed)"></line><text x="232.60" y="384.00" text-anchor="middle" dominant-baseline="auto" style="fill:#333;font-size:14px">Done</text><line x1="376.60" y1="434.00" x2="388.60" y2="446.00" style="stroke:#333;stroke-width:3.0"></line><line x1="376.60" y1="446.00" x2="388.60" y2="434.00" style="stroke:#333;stroke-width:3.0"></line><line x1="82.60" y1="490.00" x2="382.60" y2="490.00" style="stroke:#333;stroke-width:1.5;fill:none" marker-end="url(#seq-arrow-solid)"></line><text x="232.60" y="484.00" text-anchor="middle" dominant-baseline="auto" style="fill:#333;font-size:14px">Join</text><rect x="37.60" y="20.00" width="90.00" height="35.00" rx="3.00" ry="3.00" style="fill:#ECECFF;stroke:#9370DB;stroke-width:1.5"></rect><text x="82.60" y="37.50" text-anchor="middle" dominant-baseline="central" style="fill:#333;font-size:14px">Manager</text><rect x="37.60" y="550.00" width="90.00" height="35.00" rx="3.00" ry="3.00" style="fill:#ECECFF;stroke:#9370DB;stroke-width:1.5"></rect><text x="82.60" y="567.50" text-anchor="middle" dominant-baseline="central" style="fill:#333;font-size:14px">Manager</text><rect x="187.60" y="307.50" width="90.00" height="35.00" rx="3.00" ry="3.00" style="fill:#ECECFF;stroke:#9370DB;stroke-width:1.5"></rect><text x="232.60" y="325.00" text-anchor="middle" dominant-baseline="central" style="fill:#333;font-size:14px">Worker1</text><rect x="337.60" y="457.50" width="90.00" height="35.00" rx="3.00" ry="3.00" style="fill:#ECECFF;stroke:#9370DB;stroke-width:1.5"></rect><text x="382.60" y="475.00" text-anchor="middle" dominant-baseline="central" style="fill:#333;font-size:14px">Worker2</text></svg>