<?xml version="1.0" encoding="UTF-8"?>
<svg xmlns="http://www.w3.org/2000/svg" viewBox="0 0 430.00 617.00"><defs><marker id="seq-arrow-solid" viewBox="0 0 10 10" refX="9.00" refY="5.00" markerWidth="8.00" markerHeight="8.00" orient="auto"><polygon points="0,0 10,5 0,10" style="fill:#333"></polygon></marker><marker id="seq-arrow-dashed" viewBox="0 0 10 10" refX="9.00" refY="5.00" markerWidth="8.00" markerHeight="8.00" orient="auto"><polygon points="0,0 10,5 0,10" style="fill:#333"></polygon></marker><marker id="seq-arrow-solid-cross" viewBox="0 0 10 10" refX="5.00" refY="5.00" markerWidth="10.00" markerHeight="10.00" orient="auto"><path d="M2,2 L8,8 M2,8 L8,2" style="stroke:#333;stroke-width:1.5;fill:none"></path></marker><marker id="seq-arrow-dashed-cross" viewBox="0 0 10 10" refX="5.00" refY="5.00" markerWidth="10.00" markerHeight="10.00" orient="auto"><path d="M2,2 L8,8 M2,8 L8,2" style="stroke:#333;stroke-width:1.5;fill:none"></path></marker><marker id="seq-arrow-solid-open" viewBox="0 0 10 10" refX="10.00" refY="5.00" markerWidth="8.00" markerHeight="8.00" orient="auto"><polyline points="0,1 10,5 0,9" style="stroke:#333;stroke-width:1.5;fill:none"></polyline></marker><marker id="seq-arrow-dashed-open" viewBox="0 0 10 10" refX="10.00" refY="5.00" markerWidth="8.00" markerHeight="8.00" orient="auto"><polyline points="0,1 10,5 0,9" style="stroke:#333;stroke-width:1.5;fill:none"></polyline></marker></defs><rect x="0.00" y="0.00" width="430.00" height="617.00" style="fill:white;stroke:none"></rect><line x1="65.00" y1="55.00" x2="65.00" y2="562.00" style="stroke:#9370DB;stroke-width:2.0"></line><line x1="215.00" y1="127.00" x2="215.00" y2="302.00" style="stroke:#9370DB;stroke-width:2.0"></line><line x1="365.00" y1="177.00" x2="365.00" y2="452.00" style="stroke:#9370DB;stroke-width:2.0"></line><path d="M65.00,90.00 C115.00,90.00 115.00,130.00 65.00,130.00" style="stroke:#333;stroke-width:1.5;fill:none" marker-end="url(#seq-arrow-solid)"></path><text x="90.00" y="84.00" text-anchor="middle" dominant-baseline="auto" style="fill:#333;font-size:14px">Boot</text><rect x="170.00" y="129.00" width="90.00" height="35.00" rx="3.00" ry="3.00" style="fill:#ECECFF;stroke:#9370DB;stroke-width:1.5"></rect><text x="215.00" y="146.50" text-anchor="middle" dominant-baseline="central" style="fill:#333;font-size:14px">Worker1</text><line x1="65.00" y1="152.00" x2="170.00" y2="152.00" style="stroke:#333;stroke-width:1.5;fill:none" marker-end="url(#seq-arrow-solid)"></line><text x="117.50" y="146.00" text-anchor="middle" dominant-baseline="auto" style="fill:#333;font-size:14px">Spawn</text><rect x="320.00" y="179.00" width="90.00" height="35.00" rx="3.00" ry="3.00" style="fill:#ECECFF;stroke:#9370DB;stroke-width:1.5"></rect><text x="365.00" y="196.50" text-anchor="middle" dominant-baseline="central" style="fill:#333;font-size:14px">Worker2</text><line x1="65.00" y1="202.00" x2="320.00" y2="202.00" style="stroke:#333;stroke-width:1.5;fill:none" marker-end="url(#seq-arrow-solid)"></line><text x="192.50" y="196.00" text-anchor="middle" dominant-baseline="auto" style="fill:#333;font-size:14px">Spawn</text><line x1="215.00" y1="252.00" x2="65.00" y2="252.00" style="stroke:#333;stroke-width:1.5;fill:none;stroke-dasharray:5,5" marker-end="url(#seq-arrow-dashed)"></line><text x="140.00" y="246.00" text-anchor="middle" dominant-baseline="auto" style="fill:#333;font-size:14px">Done</text><line x1="209.00" y1="296.00" x2="221.00" y2="308.00" style="stroke:#333;stroke-width:3.0"></line><line x1="209.00" y1="308.00" x2="221.00" y2="296.00" style="stroke:#333;stroke-width:3.0"></line><line x1="65.00" y1="352.00" x2="215.00" y2="352.00" style="stroke:#333;stroke-width:1.5;fill:none" marker-end="url(#seq-arrow-solid)"></line><text x="140.00" y="346.00" text-anchor="middle" dominant-baseline="auto" style="fill:#333;font-size:14px">Join</text><line x1="365.00" y1="402.00" x2="65.00" y2="402.00" style="stroke:#333;stroke-width:1.5;fill:none;stroke-dasharray:5,5" marker-end="url(#seq-arrow-dashed)"></line><text x="215.00" y="396.00" text-anchor="middle" dominant-baseline="auto" style="fill:#333;font-size:14px">Done</text><line x1="359.00" y1="446.00" x2="371.00" y2="458.00" style="stroke:#333;stroke-width:3.0"></line><line x1="359.00" y1="458.00" x2="371.00" y2="446.00" style="stroke:#333;stroke-width:3.0"></line><line x1="65.00" y1="502.00" x2="365.00" y2="502.00" style="stroke:#333;stroke-width:1.5;fill:none" marker-end="url(#seq-arrow-solid)"></line><text x="215.00" y="496.00" text-anchor="middle" dominant-baseline="auto" style="fill:#333;font-size:14px">Join</text><rect x="20.00" y="20.00" width="90.00" height="35.00" rx="3.00" ry="3.00" style="fill:#ECECFF;stroke:#9370DB;stroke-width:1.5"></rect><text x="65.00" y="37.50" text-anchor="middle" dominant-baseline="central" style="fill:#333;font-size:14px">Manager</text><rect x="20.00" y="562.00" width="90.00" height="35.00" rx="3.00" ry="3.00" style="fill:#ECECFF;stroke:#9370DB;stroke-width:1.5"></rect><text x="65.00" y="579.50" text-anchor="middle" dominant-baseline="central" style="fill:#333;font-size:14px">Manager</text><rect x="170.00" y="319.50" width="90.00" height="35.00" rx="3.00" ry="3.00" style="fill:#ECECFF;stroke:#9370DB;stroke-width:1.5"></rect><text x="215.00" y="337.00" text-anchor="middle" dominant-baseline="central" style="fill:#333;font-size:14px">Worker1</text><rect x="320.00" y="469.50" width="90.00" height="35.00" rx="3.00" ry="3.00" style="fill:#ECECFF;stroke:#9370DB;stroke-width:1.5"></rect><text x="365.00" y="487.00" text-anchor="middle" dominant-baseline="central" style="fill:#333;font-size:14px">Worker2</text></svg>