<?xml version="1.0" encoding="UTF-8"?>
<svg xmlns="http://www.w3.org/2000/svg" viewBox="0 0 296.20 355.00"><defs><marker id="seq-arrow-solid" viewBox="0 0 10 10" refX="9.00" refY="5.00" markerWidth="8.00" markerHeight="8.00" orient="auto"><polygon points="0,0 10,5 0,10" style="fill:#333"></polygon></marker><marker id="seq-arrow-dashed" viewBox="0 0 10 10" refX="9.00" refY="5.00" markerWidth="8.00" markerHeight="8.00" orient="auto"><polygon points="0,0 10,5 0,10" style="fill:#333"></polygon></marker><marker id="seq-arrow-solid-cross" viewBox="0 0 10 10" refX="5.00" refY="5.00" markerWidth="10.00" markerHeight="10.00" orient="auto"><path d="M2,2 L8,8 M2,8 L8,2" style="stroke:#333;stroke-width:1.5;fill:none"></path></marker><marker id="seq-arrow-dashed-cross" viewBox="0 0 10 10" refX="5.00" refY="5.00" markerWidth="10.00" markerHeight="10.00" orient="auto"><path d="M2,2 L8,8 M2,8 L8,2" style="stroke:#333;stroke-width:1.5;fill:none"></path></marker><marker id="seq-arrow-solid-open" viewBox="0 0 10 10" refX="10.00" refY="5.00" markerWidth="8.00" markerHeight="8.00" orient="auto"><polyline points="0,1 10,5 0,9" style="stroke:#333;stroke-width:1.5;fill:none"></polyline></marker><marker id="seq-arrow-dashed-open" viewBox="0 0 10 10" refX="10.00" refY="5.00" markerWidth="8.00" markerHeight="8.00" orient="auto"><polyline points="0,1 10,5 0,9" style="stroke:#333;stroke-width:1.5;fill:none"></polyline></marker></defs><rect x="0.00" y="0.00" width="296.20" height="355.00" style="fill:white;stroke:none"></rect><line x1="81.20" y1="55.00" x2="81.20" y2="300.00" style="stroke:#9370DB;stroke-width:2.0"></line><line x1="231.20" y1="55.00" x2="231.20" y2="300.00" style="stroke:#9370DB;stroke-width:2.0"></line><line x1="231.20" y1="90.00" x2="81.20" y2="90.00" style="stroke:#333;stroke-width:1.5;fill:none" marker-end="url(#seq-arrow-solid)"></line><text x="37.20" y="84.00" text-anchor="middle" dominant-baseline="central" style="fill:#333;font-size:14px">Solve </text><text x="181.40" y="84.00" text-anchor="middle" dominant-baseline="central" style="fill:#333;font-size:14px">\frac{-b \pm \sqrt{b^2 - 4ac}}{2a}</text><line x1="81.20" y1="140.00" x2="231.20" y2="140.00" style="stroke:#333;stroke-width:1.5;fill:none;stroke-dasharray:5,5" marker-end="url(#seq-arrow-dashed)"></line><text x="135.20" y="134.00" text-anchor="middle" dominant-baseline="central" style="fill:#333;font-size:14px">Result is </text><text x="198.20" y="134.00" text-anchor="middle" dominant-baseline="central" style="fill:#333;font-size:14px">\alpha</text><line x1="231.20" y1="190.00" x2="81.20" y2="190.00" style="stroke:#333;stroke-width:1.5;fill:none" marker-end="url(#seq-arrow-solid)"></line><text x="149.72" y="184.00" text-anchor="middle" dominant-baseline="central" style="fill:#333;font-size:14px">Compute </text><g style="fill:#333" transform="translate(183.32,176.50) scale(1.000)"><path d="M8.359 13.608 C8.359 13.889 8.094 13.936 7.906 13.936 L6.469 13.936 C5.906 13.936 5.906 13.546 5.797 13.077 L3.250 3.389 C3.203 3.186 3.125 2.952 3.094 2.749 L2.188 7.217 L0.469 4.546 L0.391 4.342 L0.609 4.108 L1.562 5.608 C1.609 5.186 1.750 4.749 1.828 4.311 L2.359 1.702 L2.531 0.796 C2.547 0.702 2.547 0.530 2.672 0.514 L2.812 0.514 C3.172 0.514 3.219 0.717 3.297 0.999 L3.922 3.405 L6.375 12.780 C6.422 12.952 6.484 13.108 6.500 13.296 L8.062 13.296 C8.219 13.311 8.359 13.452 8.359 13.608 Z" style="fill:#333"></path><rect x="3.76" y="13.25" width="9.19" height="0.88" style="fill:#333"></rect><path d="M9.372 3.435 L9.372 4.247 L5.669 4.247 L5.669 3.435 L9.372 3.435 Z" style="fill:#333"></path><path d="M13.648 0.810 L13.648 1.247 L13.211 1.247 C11.945 1.247 11.898 1.404 11.898 1.919 L11.898 9.763 C11.898 10.107 11.898 10.138 11.586 10.138 C10.711 9.232 9.477 9.232 9.039 9.232 L9.039 8.810 C9.320 8.810 10.148 8.810 10.867 9.169 L10.867 1.919 C10.867 1.419 10.820 1.247 9.570 1.247 L9.117 1.247 L9.117 0.810 C9.602 0.857 10.820 0.857 11.383 0.857 C11.945 0.857 13.164 0.857 13.648 0.810 Z" style="fill:#333"></path></g><line x1="81.20" y1="240.00" x2="231.20" y2="240.00" style="stroke:#333;stroke-width:1.5;fill:none;stroke-dasharray:5,5" marker-end="url(#seq-arrow-dashed)"></line><text x="155.25" y="234.00" text-anchor="middle" dominant-baseline="central" style="fill:#333;font-size:14px">Imaginary unit </text><g style="fill:#333" transform="translate(218.25,229.00) scale(1.000)"><path d="M3.453 0.794 L3.453 1.232 C2.531 1.232 2.484 1.294 2.484 1.841 L2.484 6.982 L0.516 6.826 L0.516 6.388 C1.422 6.388 1.547 6.310 1.547 5.622 L1.547 1.857 C1.547 1.232 1.406 1.232 0.469 1.232 L0.469 0.794 L2.000 0.841 C2.484 0.841 2.984 0.810 3.453 0.794 M2.688 9.247 C2.688 9.622 2.359 9.997 1.953 9.997 C1.469 9.997 1.188 9.607 1.188 9.247 C1.188 8.872 1.516 8.513 1.938 8.513 C2.406 8.513 2.688 8.904 2.688 9.247 Z" style="fill:#333"></path></g><rect x="20.00" y="20.00" width="122.40" height="35.00" rx="3.00" ry="3.00" style="fill:#ECECFF;stroke:#9370DB;stroke-width:1.5"></rect><text x="81.20" y="37.50" text-anchor="middle" dominant-baseline="central" style="fill:#333;font-size:14px">Math Engine</text><rect x="20.00" y="300.00" width="122.40" height="35.00" rx="3.00" ry="3.00" style="fill:#ECECFF;stroke:#9370DB;stroke-width:1.5"></rect><text x="81.20" y="317.50" text-anchor="middle" dominant-baseline="central" style="fill:#333;font-size:14px">Math Engine</text><rect x="186.20" y="20.00" width="90.00" height="35.00" rx="3.00" ry="3.00" style="fill:#ECECFF;stroke:#9370DB;stroke-width:1.5"></rect><text x="231.20" y="37.50" text-anchor="middle" dominant-baseline="central" style="fill:#333;font-size:14px">User</text><rect x="186.20" y="300.00" width="90.00" height="35.00" rx="3.00" ry="3.00" style="fill:#ECECFF;stroke:#9370DB;stroke-width:1.5"></rect><text x="231.20" y="317.50" text-anchor="middle" dominant-baseline="central" style="fill:#333;font-size:14px">User</text></svg>