<?xml version="1.0" encoding="UTF-8"?>
<svg xmlns="http://www.w3.org/2000/svg" viewBox="0 0 296.20 355.00"><defs><marker id="seq-arrow-solid" viewBox="0 0 10 10" refX="9.00" refY="5.00" markerWidth="8.00" markerHeight="8.00" orient="auto"><polygon points="0,0 10,5 0,10" style="fill:#333"></polygon></marker><marker id="seq-arrow-dashed" viewBox="0 0 10 10" refX="9.00" refY="5.00" markerWidth="8.00" markerHeight="8.00" orient="auto"><polygon points="0,0 10,5 0,10" style="fill:#333"></polygon></marker><marker id="seq-arrow-solid-cross" viewBox="0 0 10 10" refX="5.00" refY="5.00" markerWidth="10.00" markerHeight="10.00" orient="auto"><path d="M2,2 L8,8 M2,8 L8,2" style="stroke:#333;stroke-width:1.5;fill:none"></path></marker><marker id="seq-arrow-dashed-cross" viewBox="0 0 10 10" refX="5.00" refY="5.00" markerWidth="10.00" markerHeight="10.00" orient="auto"><path d="M2,2 L8,8 M2,8 L8,2" style="stroke:#333;stroke-width:1.5;fill:none"></path></marker><marker id="seq-arrow-solid-open" viewBox="0 0 10 10" refX="10.00" refY="5.00" markerWidth="8.00" markerHeight="8.00" orient="auto"><polyline points="0,1 10,5 0,9" style="stroke:#333;stroke-width:1.5;fill:none"></polyline></marker><marker id="seq-arrow-dashed-open" viewBox="0 0 10 10" refX="10.00" refY="5.00" markerWidth="8.00" markerHeight="8.00" orient="auto"><polyline points="0,1 10,5 0,9" style="stroke:#333;stroke-width:1.5;fill:none"></polyline></marker></defs><rect x="0.00" y="0.00" width="296.20" height="355.00" style="fill:white;stroke:none"></rect><line x1="81.20" y1="55.00" x2="81.20" y2="300.00" style="stroke:#9370DB;stroke-width:2.0"></line><line x1="231.20" y1="55.00" x2="231.20" y2="300.00" style="stroke:#9370DB;stroke-width:2.0"></line><line x1="231.20" y1="90.00" x2="81.20" y2="90.00" style="stroke:#333;stroke-width:1.5;fill:none" marker-end="url(#seq-arrow-solid)"></line><text x="129.54" y="84.00" text-anchor="middle" dominant-baseline="auto" style="fill:#333;font-size:14px">Solve </text><g style="fill:#333" transform="translate(154.74,71.06) scale(1.000)"><g transform="translate(0,-0.735)"><path d="M0.562 10.667 L0.562 9.886 L5.734 9.886 L5.734 10.667 L0.562 10.667 Z" style="fill:#333"></path><path d="M8.168 13.432 Q7.465 13.432 7.028 13.182 Q6.590 12.932 6.340 12.573 L6.262 12.573 L6.059 13.323 L5.372 13.323 L5.372 4.964 L6.340 4.964 L6.340 6.995 Q6.340 7.370 6.309 7.698 Q6.309 8.026 6.278 8.214 L6.340 8.214 Q6.590 7.839 7.028 7.589 Q7.465 7.323 8.168 7.323 Q9.262 7.323 9.918 8.104 Q10.590 8.854 10.590 10.370 Q10.590 11.886 9.918 12.667 Q9.247 13.432 8.168 13.432 Z M8.028 12.636 Q8.809 12.636 9.200 12.042 Q9.590 11.464 9.590 10.370 Q9.590 8.136 7.997 8.136 Q7.059 8.136 6.700 8.667 Q6.340 9.214 6.340 10.339 L6.340 10.386 Q6.340 11.479 6.684 12.057 Q7.059 12.636 8.028 12.636 Z" style="fill:#333"></path><path d="M13.393 12.932 L13.393 10.667 L11.206 10.667 L11.206 9.886 L13.393 9.886 L13.393 7.604 L14.190 7.604 L14.190 9.886 L16.378 9.886 L16.378 10.667 L14.190 10.667 L14.190 12.932 L13.393 12.932 Z M11.206 12.932 L11.206 12.151 L16.378 12.151 L16.378 12.932 L11.206 12.932 Z" style="fill:#333"></path><path d="M19.808 13.446 L18.199 8.883 L17.137 8.883 L17.137 8.039 L18.855 8.039 L20.215 11.992 L24.199 0.758 L25.043 0.758 L20.590 13.446 L19.808 13.446 Z" style="fill:#333"></path><rect x="20.42" y="0.74" width="31.57" height="0.74" style="fill:#333"></rect><path d="M27.639 13.787 Q26.936 13.787 26.499 13.537 Q26.061 13.287 25.811 12.927 L25.733 12.927 L25.530 13.677 L24.842 13.677 L24.842 5.318 L25.811 5.318 L25.811 7.349 Q25.811 7.724 25.780 8.052 Q25.780 8.381 25.749 8.568 L25.811 8.568 Q26.061 8.193 26.499 7.943 Q26.936 7.677 27.639 7.677 Q28.733 7.677 29.389 8.459 Q30.061 9.209 30.061 10.724 Q30.061 12.240 29.389 13.021 Q28.717 13.787 27.639 13.787 Z M27.499 12.990 Q28.280 12.990 28.671 12.396 Q29.061 11.818 29.061 10.724 Q29.061 8.490 27.467 8.490 Q26.530 8.490 26.171 9.021 Q25.811 9.568 25.811 10.693 L25.811 10.740 Q25.811 11.834 26.155 12.412 Q26.530 12.990 27.499 12.990 Z" style="fill:#333"></path><path d="M30.677 11.021 L30.677 10.240 L35.849 10.240 L35.849 11.021 L30.677 11.021 Z" style="fill:#333"></path><path d="M39.998 13.677 L39.998 11.896 L36.232 11.896 L36.232 11.068 L39.920 5.787 L40.920 5.787 L40.920 11.021 L42.076 11.021 L42.076 11.896 L40.920 11.896 L40.920 13.677 L39.998 13.677 Z M37.170 11.021 L39.998 11.021 L39.998 8.552 Q39.998 7.974 39.998 7.584 Q40.029 7.177 40.045 6.818 L39.998 6.818 Q39.920 7.021 39.779 7.271 Q39.654 7.506 39.529 7.677 L37.170 11.021 Z" style="fill:#333"></path><path d="M42.791 13.787 Q41.995 13.787 41.463 13.365 Q40.932 12.943 40.932 12.037 Q40.932 11.162 41.635 10.693 Q42.323 10.209 43.760 10.162 L44.760 10.131 L44.760 9.771 Q44.760 9.037 44.448 8.756 Q44.135 8.459 43.541 8.459 Q43.088 8.459 42.666 8.599 Q42.245 8.740 41.885 8.912 L41.588 8.193 Q41.979 7.974 42.495 7.834 Q43.026 7.677 43.604 7.677 Q44.682 7.677 45.198 8.162 Q45.713 8.631 45.713 9.662 L45.713 13.677 L45.010 13.677 L44.823 12.834 L44.776 12.834 Q44.385 13.318 43.963 13.552 Q43.541 13.787 42.791 13.787 Z M43.010 13.006 Q43.760 13.006 44.260 12.599 Q44.760 12.177 44.760 11.318 L44.760 10.802 L43.885 10.834 Q42.791 10.865 42.354 11.177 Q41.932 11.490 41.932 12.052 Q41.932 12.537 42.229 12.771 Q42.541 13.006 43.010 13.006 Z" style="fill:#333"></path><path d="M48.078 13.787 Q47.297 13.787 46.687 13.474 Q46.078 13.146 45.734 12.474 Q45.390 11.802 45.390 10.756 Q45.390 9.677 45.750 8.990 Q46.109 8.302 46.734 7.990 Q47.359 7.677 48.140 7.677 Q48.593 7.677 49.015 7.771 Q49.437 7.865 49.703 7.990 L49.406 8.787 Q49.140 8.693 48.781 8.599 Q48.437 8.521 48.125 8.521 Q46.390 8.521 46.390 10.756 Q46.390 11.818 46.812 12.396 Q47.234 12.959 48.062 12.959 Q48.547 12.959 48.922 12.849 Q49.297 12.756 49.593 12.615 L49.593 13.474 Q49.297 13.615 48.937 13.693 Q48.593 13.787 48.078 13.787 Z" style="fill:#333"></path><rect x="-1.50" y="16.60" width="53.49" height="1.05" style="fill:#333"></rect><path d="M20.781 27.209 L20.781 26.412 L22.828 24.334 Q23.422 23.741 23.844 23.272 Q24.250 22.803 24.453 22.366 Q24.656 21.912 24.656 21.397 Q24.656 20.741 24.281 20.412 Q23.891 20.069 23.281 20.069 Q22.703 20.069 22.266 20.272 Q21.828 20.459 21.391 20.819 L20.859 20.162 Q21.328 19.787 21.922 19.522 Q22.531 19.241 23.281 19.241 Q24.375 19.241 25.016 19.803 Q25.656 20.350 25.656 21.334 Q25.656 21.944 25.391 22.491 Q25.141 23.022 24.688 23.553 Q24.250 24.069 23.641 24.662 L22.000 26.287 L22.000 26.334 L25.969 26.334 L25.969 27.209 L20.781 27.209 Z" style="fill:#333"></path><path d="M27.043 27.319 Q26.247 27.319 25.715 26.897 Q25.184 26.475 25.184 25.569 Q25.184 24.694 25.887 24.225 Q26.575 23.741 28.012 23.694 L29.012 23.662 L29.012 23.303 Q29.012 22.569 28.700 22.287 Q28.387 21.991 27.793 21.991 Q27.340 21.991 26.918 22.131 Q26.497 22.272 26.137 22.444 L25.840 21.725 Q26.231 21.506 26.747 21.366 Q27.278 21.209 27.856 21.209 Q28.934 21.209 29.450 21.694 Q29.965 22.162 29.965 23.194 L29.965 27.209 L29.262 27.209 L29.075 26.366 L29.028 26.366 Q28.637 26.850 28.215 27.084 Q27.793 27.319 27.043 27.319 Z M27.262 26.537 Q28.012 26.537 28.512 26.131 Q29.012 25.709 29.012 24.850 L29.012 24.334 L28.137 24.366 Q27.043 24.397 26.606 24.709 Q26.184 25.022 26.184 25.584 Q26.184 26.069 26.481 26.303 Q26.793 26.537 27.262 26.537 Z" style="fill:#333"></path></g></g><line x1="81.20" y1="140.00" x2="231.20" y2="140.00" style="stroke:#333;stroke-width:1.5;fill:none;stroke-dasharray:5,5" marker-end="url(#seq-arrow-dashed)"></line><text x="152.79" y="134.00" text-anchor="middle" dominant-baseline="auto" style="fill:#333;font-size:14px">Result is </text><g style="fill:#333" transform="translate(194.79,125.27) scale(1.000)"><g transform="translate(0,-0.431)"><path d="M4.406 9.322 Q2.828 9.322 1.859 8.228 Q0.875 7.103 0.875 4.916 Q0.875 2.728 1.844 1.588 Q2.797 0.431 4.531 0.431 Q5.469 0.431 6.094 0.759 Q6.734 1.088 7.156 1.744 L7.250 1.744 Q7.328 1.463 7.453 1.150 Q7.578 0.822 7.766 0.588 L8.859 0.588 Q8.750 0.947 8.656 1.525 Q8.562 2.088 8.516 2.728 Q8.469 3.369 8.469 3.947 L8.469 7.275 Q8.469 7.775 8.656 7.978 Q8.844 8.181 9.125 8.181 Q9.250 8.181 9.391 8.134 Q9.531 8.103 9.594 8.088 L9.594 9.119 Q9.484 9.181 9.234 9.244 Q8.969 9.322 8.703 9.322 Q8.109 9.322 7.734 9.041 Q7.359 8.744 7.188 8.009 L7.078 8.009 Q6.703 8.556 6.094 8.947 Q5.484 9.322 4.406 9.322 Z M4.641 8.150 Q5.969 8.150 6.516 7.400 Q7.078 6.634 7.078 4.994 L7.078 4.900 Q7.078 3.291 6.547 2.463 Q6.031 1.619 4.625 1.619 Q3.453 1.619 2.891 2.463 Q2.344 3.306 2.344 4.931 Q2.344 6.525 2.875 7.338 Q3.438 8.150 4.641 8.150 Z" style="fill:#333"></path></g></g><line x1="231.20" y1="190.00" x2="81.20" y2="190.00" style="stroke:#333;stroke-width:1.5;fill:none" marker-end="url(#seq-arrow-solid)"></line><text x="143.38" y="184.00" text-anchor="middle" dominant-baseline="auto" style="fill:#333;font-size:14px">Compute </text><g style="fill:#333" transform="translate(176.98,167.01) scale(1.000)"><g transform="translate(0,-1.050)"><path d="M4.391 18.245 L2.219 12.167 L0.812 12.167 L0.812 11.042 L3.109 11.042 L4.906 16.308 L10.219 1.339 L11.359 1.339 L5.422 18.245 L4.391 18.245 Z" style="fill:#333"></path><rect x="5.80" y="1.05" width="21.34" height="1.05" style="fill:#333"></rect><path d="M10.945 14.163 L10.945 13.022 L18.476 13.022 L18.476 14.163 L10.945 14.163 Z" style="fill:#333"></path><path d="M20.763 18.038 L20.763 10.053 Q20.763 9.366 20.779 8.944 Q20.810 8.538 20.842 8.084 Q20.576 8.319 20.373 8.522 Q20.170 8.694 19.842 8.959 L18.623 9.959 L17.888 9.006 L20.982 6.616 L22.154 6.616 L22.154 18.038 L20.763 18.038 Z" style="fill:#333"></path></g></g><line x1="81.20" y1="240.00" x2="231.20" y2="240.00" style="stroke:#333;stroke-width:1.5;fill:none;stroke-dasharray:5,5" marker-end="url(#seq-arrow-dashed)"></line><text x="154.77" y="234.00" text-anchor="middle" dominant-baseline="auto" style="fill:#333;font-size:14px">Imaginary unit </text><g style="fill:#333" transform="translate(217.77,222.20) scale(1.000)"><g transform="translate(0,-0.584)"><path d="M1.359 12.381 L1.359 3.803 L2.766 3.803 L2.766 12.381 L1.359 12.381 Z M2.078 2.381 Q1.734 2.381 1.484 2.163 Q1.250 1.928 1.250 1.491 Q1.250 1.022 1.484 0.819 Q1.734 0.584 2.078 0.584 Q2.406 0.584 2.641 0.819 Q2.891 1.022 2.891 1.491 Q2.891 1.928 2.641 2.163 Q2.406 2.381 2.078 2.381 Z" style="fill:#333"></path></g></g><rect x="20.00" y="20.00" width="122.40" height="35.00" rx="3.00" ry="3.00" style="fill:#ECECFF;stroke:#9370DB;stroke-width:1.5"></rect><text x="81.20" y="37.50" text-anchor="middle" dominant-baseline="central" style="fill:#333;font-size:14px">Math Engine</text><rect x="20.00" y="300.00" width="122.40" height="35.00" rx="3.00" ry="3.00" style="fill:#ECECFF;stroke:#9370DB;stroke-width:1.5"></rect><text x="81.20" y="317.50" text-anchor="middle" dominant-baseline="central" style="fill:#333;font-size:14px">Math Engine</text><rect x="186.20" y="20.00" width="90.00" height="35.00" rx="3.00" ry="3.00" style="fill:#ECECFF;stroke:#9370DB;stroke-width:1.5"></rect><text x="231.20" y="37.50" text-anchor="middle" dominant-baseline="central" style="fill:#333;font-size:14px">User</text><rect x="186.20" y="300.00" width="90.00" height="35.00" rx="3.00" ry="3.00" style="fill:#ECECFF;stroke:#9370DB;stroke-width:1.5"></rect><text x="231.20" y="317.50" text-anchor="middle" dominant-baseline="central" style="fill:#333;font-size:14px">User</text></svg>