<?xml version="1.0" encoding="UTF-8"?>
<svg xmlns="http://www.w3.org/2000/svg" viewBox="0 0 296.20 355.00"><defs><marker id="seq-arrow-solid" viewBox="0 0 10 10" refX="9.00" refY="5.00" markerWidth="8.00" markerHeight="8.00" orient="auto"><polygon points="0,0 10,5 0,10" style="fill:#333"></polygon></marker><marker id="seq-arrow-dashed" viewBox="0 0 10 10" refX="9.00" refY="5.00" markerWidth="8.00" markerHeight="8.00" orient="auto"><polygon points="0,0 10,5 0,10" style="fill:#333"></polygon></marker><marker id="seq-arrow-solid-cross" viewBox="0 0 10 10" refX="5.00" refY="5.00" markerWidth="10.00" markerHeight="10.00" orient="auto"><path d="M2,2 L8,8 M2,8 L8,2" style="stroke:#333;stroke-width:1.5;fill:none"></path></marker><marker id="seq-arrow-dashed-cross" viewBox="0 0 10 10" refX="5.00" refY="5.00" markerWidth="10.00" markerHeight="10.00" orient="auto"><path d="M2,2 L8,8 M2,8 L8,2" style="stroke:#333;stroke-width:1.5;fill:none"></path></marker><marker id="seq-arrow-solid-open" viewBox="0 0 10 10" refX="10.00" refY="5.00" markerWidth="8.00" markerHeight="8.00" orient="auto"><polyline points="0,1 10,5 0,9" style="stroke:#333;stroke-width:1.5;fill:none"></polyline></marker><marker id="seq-arrow-dashed-open" viewBox="0 0 10 10" refX="10.00" refY="5.00" markerWidth="8.00" markerHeight="8.00" orient="auto"><polyline points="0,1 10,5 0,9" style="stroke:#333;stroke-width:1.5;fill:none"></polyline></marker></defs><rect x="0.00" y="0.00" width="296.20" height="355.00" style="fill:white;stroke:none"></rect><line x1="81.20" y1="55.00" x2="81.20" y2="300.00" style="stroke:#9370DB;stroke-width:2.0"></line><line x1="231.20" y1="55.00" x2="231.20" y2="300.00" style="stroke:#9370DB;stroke-width:2.0"></line><line x1="231.20" y1="90.00" x2="81.20" y2="90.00" style="stroke:#333;stroke-width:1.5;fill:none" marker-end="url(#seq-arrow-solid)"></line><text x="134.08" y="84.00" text-anchor="middle" dominant-baseline="auto" style="fill:#333;font-size:14px">Solve </text><g style="fill:#333" transform="translate(159.28,71.06) scale(1.000)"><g transform="translate(0,-0.735)"><path d="M0.562 10.667 L0.562 9.886 L5.734 9.886 L5.734 10.667 L0.562 10.667 Z" style="fill:#333"></path><path d="M7.413 13.432 Q6.710 13.432 6.272 13.182 Q5.835 12.932 5.585 12.573 L5.507 12.573 L5.304 13.323 L4.616 13.323 L4.616 4.964 L5.585 4.964 L5.585 6.995 Q5.585 7.370 5.554 7.698 Q5.554 8.026 5.522 8.214 L5.585 8.214 Q5.835 7.839 6.272 7.589 Q6.710 7.323 7.413 7.323 Q8.507 7.323 9.163 8.104 Q9.835 8.854 9.835 10.370 Q9.835 11.886 9.163 12.667 Q8.491 13.432 7.413 13.432 Z M7.272 12.636 Q8.054 12.636 8.444 12.042 Q8.835 11.464 8.835 10.370 Q8.835 8.136 7.241 8.136 Q6.304 8.136 5.944 8.667 Q5.585 9.214 5.585 10.339 L5.585 10.386 Q5.585 11.479 5.929 12.057 Q6.304 12.636 7.272 12.636 Z" style="fill:#333"></path><path d="M11.580 12.932 L11.580 10.667 L9.393 10.667 L9.393 9.886 L11.580 9.886 L11.580 7.604 L12.377 7.604 L12.377 9.886 L14.564 9.886 L14.564 10.667 L12.377 10.667 L12.377 12.932 L11.580 12.932 Z M9.393 12.932 L9.393 12.151 L14.564 12.151 L14.564 12.932 L9.393 12.932 Z" style="fill:#333"></path><path d="M16.993 13.446 L15.383 8.883 L14.321 8.883 L14.321 8.039 L16.040 8.039 L17.399 11.992 L21.383 0.758 L22.227 0.758 L17.774 13.446 L16.993 13.446 Z" style="fill:#333"></path><rect x="18.19" y="0.74" width="23.70" height="0.74" style="fill:#333"></rect><path d="M23.567 13.787 Q22.863 13.787 22.426 13.537 Q21.988 13.287 21.738 12.927 L21.660 12.927 L21.457 13.677 L20.770 13.677 L20.770 5.318 L21.738 5.318 L21.738 7.349 Q21.738 7.724 21.707 8.052 Q21.707 8.381 21.676 8.568 L21.738 8.568 Q21.988 8.193 22.426 7.943 Q22.863 7.677 23.567 7.677 Q24.660 7.677 25.317 8.459 Q25.988 9.209 25.988 10.724 Q25.988 12.240 25.317 13.021 Q24.645 13.787 23.567 13.787 Z M23.426 12.990 Q24.207 12.990 24.598 12.396 Q24.988 11.818 24.988 10.724 Q24.988 8.490 23.395 8.490 Q22.457 8.490 22.098 9.021 Q21.738 9.568 21.738 10.693 L21.738 10.740 Q21.738 11.834 22.082 12.412 Q22.457 12.990 23.426 12.990 Z" style="fill:#333"></path><path d="M25.546 11.021 L25.546 10.240 L30.718 10.240 L30.718 11.021 L25.546 11.021 Z" style="fill:#333"></path><path d="M33.865 13.677 L33.865 11.896 L30.099 11.896 L30.099 11.068 L33.787 5.787 L34.787 5.787 L34.787 11.021 L35.943 11.021 L35.943 11.896 L34.787 11.896 L34.787 13.677 L33.865 13.677 Z M31.037 11.021 L33.865 11.021 L33.865 8.552 Q33.865 7.974 33.865 7.584 Q33.896 7.177 33.912 6.818 L33.865 6.818 Q33.787 7.021 33.646 7.271 Q33.521 7.506 33.396 7.677 L31.037 11.021 Z" style="fill:#333"></path><path d="M35.903 13.787 Q35.106 13.787 34.575 13.365 Q34.044 12.943 34.044 12.037 Q34.044 11.162 34.747 10.693 Q35.434 10.209 36.872 10.162 L37.872 10.131 L37.872 9.771 Q37.872 9.037 37.559 8.756 Q37.247 8.459 36.653 8.459 Q36.200 8.459 35.778 8.599 Q35.356 8.740 34.997 8.912 L34.700 8.193 Q35.091 7.974 35.606 7.834 Q36.137 7.677 36.716 7.677 Q37.794 7.677 38.309 8.162 Q38.825 8.631 38.825 9.662 L38.825 13.677 L38.122 13.677 L37.934 12.834 L37.887 12.834 Q37.497 13.318 37.075 13.552 Q36.653 13.787 35.903 13.787 Z M36.122 13.006 Q36.872 13.006 37.372 12.599 Q37.872 12.177 37.872 11.318 L37.872 10.802 L36.997 10.834 Q35.903 10.865 35.466 11.177 Q35.044 11.490 35.044 12.052 Q35.044 12.537 35.341 12.771 Q35.653 13.006 36.122 13.006 Z" style="fill:#333"></path><path d="M40.448 13.787 Q39.667 13.787 39.058 13.474 Q38.448 13.146 38.105 12.474 Q37.761 11.802 37.761 10.756 Q37.761 9.677 38.120 8.990 Q38.480 8.302 39.105 7.990 Q39.730 7.677 40.511 7.677 Q40.964 7.677 41.386 7.771 Q41.808 7.865 42.073 7.990 L41.777 8.787 Q41.511 8.693 41.152 8.599 Q40.808 8.521 40.495 8.521 Q38.761 8.521 38.761 10.756 Q38.761 11.818 39.183 12.396 Q39.605 12.959 40.433 12.959 Q40.917 12.959 41.292 12.849 Q41.667 12.756 41.964 12.615 L41.964 13.474 Q41.667 13.615 41.308 13.693 Q40.964 13.787 40.448 13.787 Z" style="fill:#333"></path><rect x="0.00" y="16.60" width="41.89" height="1.05" style="fill:#333"></rect><path d="M17.331 27.209 L17.331 26.412 L19.378 24.334 Q19.972 23.741 20.394 23.272 Q20.800 22.803 21.003 22.366 Q21.206 21.912 21.206 21.397 Q21.206 20.741 20.831 20.412 Q20.441 20.069 19.831 20.069 Q19.253 20.069 18.816 20.272 Q18.378 20.459 17.941 20.819 L17.409 20.162 Q17.878 19.787 18.472 19.522 Q19.081 19.241 19.831 19.241 Q20.925 19.241 21.566 19.803 Q22.206 20.350 22.206 21.334 Q22.206 21.944 21.941 22.491 Q21.691 23.022 21.238 23.553 Q20.800 24.069 20.191 24.662 L18.550 26.287 L18.550 26.334 L22.519 26.334 L22.519 27.209 L17.331 27.209 Z" style="fill:#333"></path><path d="M22.838 27.319 Q22.041 27.319 21.510 26.897 Q20.979 26.475 20.979 25.569 Q20.979 24.694 21.682 24.225 Q22.369 23.741 23.807 23.694 L24.807 23.662 L24.807 23.303 Q24.807 22.569 24.494 22.287 Q24.182 21.991 23.588 21.991 Q23.135 21.991 22.713 22.131 Q22.291 22.272 21.932 22.444 L21.635 21.725 Q22.026 21.506 22.541 21.366 Q23.072 21.209 23.651 21.209 Q24.729 21.209 25.244 21.694 Q25.760 22.162 25.760 23.194 L25.760 27.209 L25.057 27.209 L24.869 26.366 L24.822 26.366 Q24.432 26.850 24.010 27.084 Q23.588 27.319 22.838 27.319 Z M23.057 26.537 Q23.807 26.537 24.307 26.131 Q24.807 25.709 24.807 24.850 L24.807 24.334 L23.932 24.366 Q22.838 24.397 22.401 24.709 Q21.979 25.022 21.979 25.584 Q21.979 26.069 22.276 26.303 Q22.588 26.537 23.057 26.537 Z" style="fill:#333"></path></g></g><line x1="81.20" y1="140.00" x2="231.20" y2="140.00" style="stroke:#333;stroke-width:1.5;fill:none;stroke-dasharray:5,5" marker-end="url(#seq-arrow-dashed)"></line><text x="153.37" y="134.00" text-anchor="middle" dominant-baseline="auto" style="fill:#333;font-size:14px">Result is </text><g style="fill:#333" transform="translate(195.37,125.27) scale(1.000)"><g transform="translate(0,-0.431)"><path d="M4.406 9.322 Q2.828 9.322 1.859 8.228 Q0.875 7.103 0.875 4.916 Q0.875 2.728 1.844 1.588 Q2.797 0.431 4.531 0.431 Q5.469 0.431 6.094 0.759 Q6.734 1.088 7.156 1.744 L7.250 1.744 Q7.328 1.463 7.453 1.150 Q7.578 0.822 7.766 0.588 L8.859 0.588 Q8.750 0.947 8.656 1.525 Q8.562 2.088 8.516 2.728 Q8.469 3.369 8.469 3.947 L8.469 7.275 Q8.469 7.775 8.656 7.978 Q8.844 8.181 9.125 8.181 Q9.250 8.181 9.391 8.134 Q9.531 8.103 9.594 8.088 L9.594 9.119 Q9.484 9.181 9.234 9.244 Q8.969 9.322 8.703 9.322 Q8.109 9.322 7.734 9.041 Q7.359 8.744 7.188 8.009 L7.078 8.009 Q6.703 8.556 6.094 8.947 Q5.484 9.322 4.406 9.322 Z M4.641 8.150 Q5.969 8.150 6.516 7.400 Q7.078 6.634 7.078 4.994 L7.078 4.900 Q7.078 3.291 6.547 2.463 Q6.031 1.619 4.625 1.619 Q3.453 1.619 2.891 2.463 Q2.344 3.306 2.344 4.931 Q2.344 6.525 2.875 7.338 Q3.438 8.150 4.641 8.150 Z" style="fill:#333"></path></g></g><line x1="231.20" y1="190.00" x2="81.20" y2="190.00" style="stroke:#333;stroke-width:1.5;fill:none" marker-end="url(#seq-arrow-solid)"></line><text x="145.57" y="184.00" text-anchor="middle" dominant-baseline="auto" style="fill:#333;font-size:14px">Compute </text><g style="fill:#333" transform="translate(179.17,167.01) scale(1.000)"><g transform="translate(0,-1.050)"><path d="M4.391 18.245 L2.219 12.167 L0.812 12.167 L0.812 11.042 L3.109 11.042 L4.906 16.308 L10.219 1.339 L11.359 1.339 L5.422 18.245 L4.391 18.245 Z" style="fill:#333"></path><rect x="6.05" y="1.05" width="15.21" height="1.05" style="fill:#333"></rect><path d="M9.218 14.163 L9.218 13.022 L16.750 13.022 L16.750 14.163 L9.218 14.163 Z" style="fill:#333"></path><path d="M17.958 18.038 L17.958 10.053 Q17.958 9.366 17.974 8.944 Q18.005 8.538 18.036 8.084 Q17.771 8.319 17.567 8.522 Q17.364 8.694 17.036 8.959 L15.817 9.959 L15.083 9.006 L18.177 6.616 L19.349 6.616 L19.349 18.038 L17.958 18.038 Z" style="fill:#333"></path></g></g><line x1="81.20" y1="240.00" x2="231.20" y2="240.00" style="stroke:#333;stroke-width:1.5;fill:none;stroke-dasharray:5,5" marker-end="url(#seq-arrow-dashed)"></line><text x="155.01" y="234.00" text-anchor="middle" dominant-baseline="auto" style="fill:#333;font-size:14px">Imaginary unit </text><g style="fill:#333" transform="translate(218.01,222.20) scale(1.000)"><g transform="translate(0,-0.584)"><path d="M1.359 12.381 L1.359 3.803 L2.766 3.803 L2.766 12.381 L1.359 12.381 Z M2.078 2.381 Q1.734 2.381 1.484 2.163 Q1.250 1.928 1.250 1.491 Q1.250 1.022 1.484 0.819 Q1.734 0.584 2.078 0.584 Q2.406 0.584 2.641 0.819 Q2.891 1.022 2.891 1.491 Q2.891 1.928 2.641 2.163 Q2.406 2.381 2.078 2.381 Z" style="fill:#333"></path></g></g><rect x="20.00" y="20.00" width="122.40" height="35.00" rx="3.00" ry="3.00" style="fill:#ECECFF;stroke:#9370DB;stroke-width:1.5"></rect><text x="81.20" y="37.50" text-anchor="middle" dominant-baseline="central" style="fill:#333;font-size:14px">Math Engine</text><rect x="20.00" y="300.00" width="122.40" height="35.00" rx="3.00" ry="3.00" style="fill:#ECECFF;stroke:#9370DB;stroke-width:1.5"></rect><text x="81.20" y="317.50" text-anchor="middle" dominant-baseline="central" style="fill:#333;font-size:14px">Math Engine</text><rect x="186.20" y="20.00" width="90.00" height="35.00" rx="3.00" ry="3.00" style="fill:#ECECFF;stroke:#9370DB;stroke-width:1.5"></rect><text x="231.20" y="37.50" text-anchor="middle" dominant-baseline="central" style="fill:#333;font-size:14px">User</text><rect x="186.20" y="300.00" width="90.00" height="35.00" rx="3.00" ry="3.00" style="fill:#ECECFF;stroke:#9370DB;stroke-width:1.5"></rect><text x="231.20" y="317.50" text-anchor="middle" dominant-baseline="central" style="fill:#333;font-size:14px">User</text></svg>