<?xml version="1.0" encoding="UTF-8"?>
<svg xmlns="http://www.w3.org/2000/svg" viewBox="0 0 296.20 355.00"><defs><marker id="seq-arrow-solid" viewBox="0 0 10 10" refX="9.00" refY="5.00" markerWidth="8.00" markerHeight="8.00" orient="auto"><polygon points="0,0 10,5 0,10" style="fill:#333"></polygon></marker><marker id="seq-arrow-dashed" viewBox="0 0 10 10" refX="9.00" refY="5.00" markerWidth="8.00" markerHeight="8.00" orient="auto"><polygon points="0,0 10,5 0,10" style="fill:#333"></polygon></marker><marker id="seq-arrow-solid-cross" viewBox="0 0 10 10" refX="5.00" refY="5.00" markerWidth="10.00" markerHeight="10.00" orient="auto"><path d="M2,2 L8,8 M2,8 L8,2" style="stroke:#333;stroke-width:1.5;fill:none"></path></marker><marker id="seq-arrow-dashed-cross" viewBox="0 0 10 10" refX="5.00" refY="5.00" markerWidth="10.00" markerHeight="10.00" orient="auto"><path d="M2,2 L8,8 M2,8 L8,2" style="stroke:#333;stroke-width:1.5;fill:none"></path></marker><marker id="seq-arrow-solid-open" viewBox="0 0 10 10" refX="10.00" refY="5.00" markerWidth="8.00" markerHeight="8.00" orient="auto"><polyline points="0,1 10,5 0,9" style="stroke:#333;stroke-width:1.5;fill:none"></polyline></marker><marker id="seq-arrow-dashed-open" viewBox="0 0 10 10" refX="10.00" refY="5.00" markerWidth="8.00" markerHeight="8.00" orient="auto"><polyline points="0,1 10,5 0,9" style="stroke:#333;stroke-width:1.5;fill:none"></polyline></marker></defs><rect x="0.00" y="0.00" width="296.20" height="355.00" style="fill:white;stroke:none"></rect><line x1="81.20" y1="55.00" x2="81.20" y2="300.00" style="stroke:#9370DB;stroke-width:2.0"></line><line x1="231.20" y1="55.00" x2="231.20" y2="300.00" style="stroke:#9370DB;stroke-width:2.0"></line><line x1="231.20" y1="90.00" x2="81.20" y2="90.00" style="stroke:#333;stroke-width:1.5;fill:none" marker-end="url(#seq-arrow-solid)"></line><text x="121.64" y="84.00" text-anchor="middle" dominant-baseline="auto" style="fill:#333;font-size:14px">Solve </text><g style="fill:#333" transform="translate(146.84,57.42) scale(1.000)"><g transform="translate(0,-0.735)"><path d="M0.562 10.667 L0.562 9.886 L5.734 9.886 L5.734 10.667 L0.562 10.667 Z" style="fill:#333"></path><path d="M9.482 13.432 Q8.779 13.432 8.342 13.182 Q7.904 12.932 7.654 12.573 L7.576 12.573 L7.373 13.323 L6.685 13.323 L6.685 4.964 L7.654 4.964 L7.654 6.995 Q7.654 7.370 7.623 7.698 Q7.623 8.026 7.592 8.214 L7.654 8.214 Q7.904 7.839 8.342 7.589 Q8.779 7.323 9.482 7.323 Q10.576 7.323 11.232 8.104 Q11.904 8.854 11.904 10.370 Q11.904 11.886 11.232 12.667 Q10.560 13.432 9.482 13.432 Z M9.342 12.636 Q10.123 12.636 10.514 12.042 Q10.904 11.464 10.904 10.370 Q10.904 8.136 9.310 8.136 Q8.373 8.136 8.014 8.667 Q7.654 9.214 7.654 10.339 L7.654 10.386 Q7.654 11.479 7.998 12.057 Q8.373 12.636 9.342 12.636 Z" style="fill:#333"></path><path d="M16.547 12.932 L16.547 10.667 L14.360 10.667 L14.360 9.886 L16.547 9.886 L16.547 7.604 L17.344 7.604 L17.344 9.886 L19.531 9.886 L19.531 10.667 L17.344 10.667 L17.344 12.932 L16.547 12.932 Z M14.360 12.932 L14.360 12.151 L19.531 12.151 L19.531 12.932 L14.360 12.932 Z" style="fill:#333"></path><path d="M24.705 13.446 L23.096 8.883 L22.033 8.883 L22.033 8.039 L23.752 8.039 L25.112 11.992 L29.096 0.758 L29.940 0.758 L25.487 13.446 L24.705 13.446 Z" style="fill:#333"></path><rect x="26.92" y="0.74" width="24.16" height="0.74" style="fill:#333"></rect><path d="M34.722 13.787 Q34.019 13.787 33.582 13.537 Q33.144 13.287 32.894 12.927 L32.816 12.927 L32.613 13.677 L31.925 13.677 L31.925 5.318 L32.894 5.318 L32.894 7.349 Q32.894 7.724 32.863 8.052 Q32.863 8.381 32.832 8.568 L32.894 8.568 Q33.144 8.193 33.582 7.943 Q34.019 7.677 34.722 7.677 Q35.816 7.677 36.472 8.459 Q37.144 9.209 37.144 10.724 Q37.144 12.240 36.472 13.021 Q35.800 13.787 34.722 13.787 Z M34.582 12.990 Q35.363 12.990 35.753 12.396 Q36.144 11.818 36.144 10.724 Q36.144 8.490 34.550 8.490 Q33.613 8.490 33.253 9.021 Q32.894 9.568 32.894 10.693 L32.894 10.740 Q32.894 11.834 33.238 12.412 Q33.613 12.990 34.582 12.990 Z" style="fill:#333"></path><path d="M39.599 11.021 L39.599 10.240 L44.771 10.240 L44.771 11.021 L39.599 11.021 Z" style="fill:#333"></path><path d="M50.664 13.677 L50.664 11.896 L46.898 11.896 L46.898 11.068 L50.586 5.787 L51.586 5.787 L51.586 11.021 L52.742 11.021 L52.742 11.896 L51.586 11.896 L51.586 13.677 L50.664 13.677 Z M47.836 11.021 L50.664 11.021 L50.664 8.552 Q50.664 7.974 50.664 7.584 Q50.695 7.177 50.711 6.818 L50.664 6.818 Q50.586 7.021 50.445 7.271 Q50.320 7.506 50.195 7.677 L47.836 11.021 Z" style="fill:#333"></path><path d="M54.771 13.787 Q53.974 13.787 53.443 13.365 Q52.912 12.943 52.912 12.037 Q52.912 11.162 53.615 10.693 Q54.303 10.209 55.740 10.162 L56.740 10.131 L56.740 9.771 Q56.740 9.037 56.428 8.756 Q56.115 8.459 55.521 8.459 Q55.068 8.459 54.646 8.599 Q54.224 8.740 53.865 8.912 L53.568 8.193 Q53.959 7.974 54.474 7.834 Q55.006 7.677 55.584 7.677 Q56.662 7.677 57.178 8.162 Q57.693 8.631 57.693 9.662 L57.693 13.677 L56.990 13.677 L56.803 12.834 L56.756 12.834 Q56.365 13.318 55.943 13.552 Q55.521 13.787 54.771 13.787 Z M54.990 13.006 Q55.740 13.006 56.240 12.599 Q56.740 12.177 56.740 11.318 L56.740 10.802 L55.865 10.834 Q54.771 10.865 54.334 11.177 Q53.912 11.490 53.912 12.052 Q53.912 12.537 54.209 12.771 Q54.521 13.006 54.990 13.006 Z" style="fill:#333"></path><path d="M61.346 13.787 Q60.565 13.787 59.956 13.474 Q59.346 13.146 59.002 12.474 Q58.659 11.802 58.659 10.756 Q58.659 9.677 59.018 8.990 Q59.377 8.302 60.002 7.990 Q60.627 7.677 61.409 7.677 Q61.862 7.677 62.284 7.771 Q62.706 7.865 62.971 7.990 L62.674 8.787 Q62.409 8.693 62.049 8.599 Q61.706 8.521 61.393 8.521 Q59.659 8.521 59.659 10.756 Q59.659 11.818 60.081 12.396 Q60.502 12.959 61.331 12.959 Q61.815 12.959 62.190 12.849 Q62.565 12.756 62.862 12.615 L62.862 13.474 Q62.565 13.615 62.206 13.693 Q61.862 13.787 61.346 13.787 Z" style="fill:#333"></path><rect x="-1.50" y="16.60" width="40.40" height="1.05" style="fill:#333"></rect><path d="M26.781 27.209 L26.781 26.412 L28.828 24.334 Q29.422 23.741 29.844 23.272 Q30.250 22.803 30.453 22.366 Q30.656 21.912 30.656 21.397 Q30.656 20.741 30.281 20.412 Q29.891 20.069 29.281 20.069 Q28.703 20.069 28.266 20.272 Q27.828 20.459 27.391 20.819 L26.859 20.162 Q27.328 19.787 27.922 19.522 Q28.531 19.241 29.281 19.241 Q30.375 19.241 31.016 19.803 Q31.656 20.350 31.656 21.334 Q31.656 21.944 31.391 22.491 Q31.141 23.022 30.688 23.553 Q30.250 24.069 29.641 24.662 L28.000 26.287 L28.000 26.334 L31.969 26.334 L31.969 27.209 L26.781 27.209 Z" style="fill:#333"></path><path d="M34.357 27.319 Q33.560 27.319 33.029 26.897 Q32.498 26.475 32.498 25.569 Q32.498 24.694 33.201 24.225 Q33.889 23.741 35.326 23.694 L36.326 23.662 L36.326 23.303 Q36.326 22.569 36.014 22.287 Q35.701 21.991 35.107 21.991 Q34.654 21.991 34.232 22.131 Q33.810 22.272 33.451 22.444 L33.154 21.725 Q33.545 21.506 34.060 21.366 Q34.592 21.209 35.170 21.209 Q36.248 21.209 36.764 21.694 Q37.279 22.162 37.279 23.194 L37.279 27.209 L36.576 27.209 L36.389 26.366 L36.342 26.366 Q35.951 26.850 35.529 27.084 Q35.107 27.319 34.357 27.319 Z M34.576 26.537 Q35.326 26.537 35.826 26.131 Q36.326 25.709 36.326 24.850 L36.326 24.334 L35.451 24.366 Q34.357 24.397 33.920 24.709 Q33.498 25.022 33.498 25.584 Q33.498 26.069 33.795 26.303 Q34.107 26.537 34.576 26.537 Z" style="fill:#333"></path></g></g><line x1="81.20" y1="140.00" x2="231.20" y2="140.00" style="stroke:#333;stroke-width:1.5;fill:none;stroke-dasharray:5,5" marker-end="url(#seq-arrow-dashed)"></line><text x="151.79" y="134.00" text-anchor="middle" dominant-baseline="auto" style="fill:#333;font-size:14px">Result is </text><g style="fill:#333" transform="translate(193.79,125.11) scale(1.000)"><g transform="translate(0,-0.431)"><path d="M4.406 9.322 Q2.828 9.322 1.859 8.228 Q0.875 7.103 0.875 4.916 Q0.875 2.728 1.844 1.588 Q2.797 0.431 4.531 0.431 Q5.469 0.431 6.094 0.759 Q6.734 1.088 7.156 1.744 L7.250 1.744 Q7.328 1.463 7.453 1.150 Q7.578 0.822 7.766 0.588 L8.859 0.588 Q8.750 0.947 8.656 1.525 Q8.562 2.088 8.516 2.728 Q8.469 3.369 8.469 3.947 L8.469 7.275 Q8.469 7.775 8.656 7.978 Q8.844 8.181 9.125 8.181 Q9.250 8.181 9.391 8.134 Q9.531 8.103 9.594 8.088 L9.594 9.119 Q9.484 9.181 9.234 9.244 Q8.969 9.322 8.703 9.322 Q8.109 9.322 7.734 9.041 Q7.359 8.744 7.188 8.009 L7.078 8.009 Q6.703 8.556 6.094 8.947 Q5.484 9.322 4.406 9.322 Z M4.641 8.150 Q5.969 8.150 6.516 7.400 Q7.078 6.634 7.078 4.994 L7.078 4.900 Q7.078 3.291 6.547 2.463 Q6.031 1.619 4.625 1.619 Q3.453 1.619 2.891 2.463 Q2.344 3.306 2.344 4.931 Q2.344 6.525 2.875 7.338 Q3.438 8.150 4.641 8.150 Z" style="fill:#333"></path></g></g><line x1="231.20" y1="190.00" x2="81.20" y2="190.00" style="stroke:#333;stroke-width:1.5;fill:none" marker-end="url(#seq-arrow-solid)"></line><text x="139.58" y="184.00" text-anchor="middle" dominant-baseline="auto" style="fill:#333;font-size:14px">Compute </text><g style="fill:#333" transform="translate(173.18,166.80) scale(1.000)"><g transform="translate(0,-1.050)"><path d="M4.391 18.245 L2.219 12.167 L0.812 12.167 L0.812 11.042 L3.109 11.042 L4.906 16.308 L10.219 1.339 L11.359 1.339 L5.422 18.245 L4.391 18.245 Z" style="fill:#333"></path><rect x="7.96" y="1.05" width="16.58" height="1.05" style="fill:#333"></rect><path d="M13.947 14.163 L13.947 13.022 L21.478 13.022 L21.478 14.163 L13.947 14.163 Z" style="fill:#333"></path><path d="M25.642 18.038 L25.642 10.053 Q25.642 9.366 25.658 8.944 Q25.689 8.538 25.721 8.084 Q25.455 8.319 25.252 8.522 Q25.049 8.694 24.721 8.959 L23.502 9.959 L22.767 9.006 L25.861 6.616 L27.033 6.616 L27.033 18.038 L25.642 18.038 Z" style="fill:#333"></path></g></g><line x1="81.20" y1="240.00" x2="231.20" y2="240.00" style="stroke:#333;stroke-width:1.5;fill:none;stroke-dasharray:5,5" marker-end="url(#seq-arrow-dashed)"></line><text x="154.35" y="234.00" text-anchor="middle" dominant-baseline="auto" style="fill:#333;font-size:14px">Imaginary unit </text><g style="fill:#333" transform="translate(217.35,222.20) scale(1.000)"><g transform="translate(0,-0.584)"><path d="M1.359 12.381 L1.359 3.803 L2.766 3.803 L2.766 12.381 L1.359 12.381 Z M2.078 2.381 Q1.734 2.381 1.484 2.163 Q1.250 1.928 1.250 1.491 Q1.250 1.022 1.484 0.819 Q1.734 0.584 2.078 0.584 Q2.406 0.584 2.641 0.819 Q2.891 1.022 2.891 1.491 Q2.891 1.928 2.641 2.163 Q2.406 2.381 2.078 2.381 Z" style="fill:#333"></path></g></g><rect x="20.00" y="20.00" width="122.40" height="35.00" rx="3.00" ry="3.00" style="fill:#ECECFF;stroke:#9370DB;stroke-width:1.5"></rect><text x="81.20" y="37.50" text-anchor="middle" dominant-baseline="central" style="fill:#333;font-size:14px">Math Engine</text><rect x="20.00" y="300.00" width="122.40" height="35.00" rx="3.00" ry="3.00" style="fill:#ECECFF;stroke:#9370DB;stroke-width:1.5"></rect><text x="81.20" y="317.50" text-anchor="middle" dominant-baseline="central" style="fill:#333;font-size:14px">Math Engine</text><rect x="186.20" y="20.00" width="90.00" height="35.00" rx="3.00" ry="3.00" style="fill:#ECECFF;stroke:#9370DB;stroke-width:1.5"></rect><text x="231.20" y="37.50" text-anchor="middle" dominant-baseline="central" style="fill:#333;font-size:14px">User</text><rect x="186.20" y="300.00" width="90.00" height="35.00" rx="3.00" ry="3.00" style="fill:#ECECFF;stroke:#9370DB;stroke-width:1.5"></rect><text x="231.20" y="317.50" text-anchor="middle" dominant-baseline="central" style="fill:#333;font-size:14px">User</text></svg>