<?xml version="1.0" encoding="UTF-8"?>
<svg xmlns="http://www.w3.org/2000/svg" viewBox="0 0 296.20 355.00"><defs><marker id="seq-arrow-solid" viewBox="0 0 10 10" refX="9.00" refY="5.00" markerWidth="8.00" markerHeight="8.00" orient="auto"><polygon points="0,0 10,5 0,10" style="fill:#333"></polygon></marker><marker id="seq-arrow-dashed" viewBox="0 0 10 10" refX="9.00" refY="5.00" markerWidth="8.00" markerHeight="8.00" orient="auto"><polygon points="0,0 10,5 0,10" style="fill:#333"></polygon></marker><marker id="seq-arrow-solid-cross" viewBox="0 0 10 10" refX="5.00" refY="5.00" markerWidth="10.00" markerHeight="10.00" orient="auto"><path d="M2,2 L8,8 M2,8 L8,2" style="stroke:#333;stroke-width:1.5;fill:none"></path></marker><marker id="seq-arrow-dashed-cross" viewBox="0 0 10 10" refX="5.00" refY="5.00" markerWidth="10.00" markerHeight="10.00" orient="auto"><path d="M2,2 L8,8 M2,8 L8,2" style="stroke:#333;stroke-width:1.5;fill:none"></path></marker><marker id="seq-arrow-solid-open" viewBox="0 0 10 10" refX="10.00" refY="5.00" markerWidth="8.00" markerHeight="8.00" orient="auto"><polyline points="0,1 10,5 0,9" style="stroke:#333;stroke-width:1.5;fill:none"></polyline></marker><marker id="seq-arrow-dashed-open" viewBox="0 0 10 10" refX="10.00" refY="5.00" markerWidth="8.00" markerHeight="8.00" orient="auto"><polyline points="0,1 10,5 0,9" style="stroke:#333;stroke-width:1.5;fill:none"></polyline></marker></defs><rect x="0.00" y="0.00" width="296.20" height="355.00" style="fill:white;stroke:none"></rect><line x1="81.20" y1="55.00" x2="81.20" y2="300.00" style="stroke:#9370DB;stroke-width:2.0"></line><line x1="231.20" y1="55.00" x2="231.20" y2="300.00" style="stroke:#9370DB;stroke-width:2.0"></line><line x1="231.20" y1="90.00" x2="81.20" y2="90.00" style="stroke:#333;stroke-width:1.5;fill:none" marker-end="url(#seq-arrow-solid)"></line><text x="26.70" y="84.00" text-anchor="middle" dominant-baseline="central" style="fill:#333;font-size:14px">Solve </text><text x="181.40" y="84.00" text-anchor="middle" dominant-baseline="central" style="fill:#333;font-size:14px">\\frac{-b \\pm \\sqrt{b^2 - 4ac}}{2a}</text><line x1="81.20" y1="140.00" x2="231.20" y2="140.00" style="stroke:#333;stroke-width:1.5;fill:none;stroke-dasharray:5,5" marker-end="url(#seq-arrow-dashed)"></line><text x="156.18" y="134.00" text-anchor="middle" dominant-baseline="central" style="fill:#333;font-size:14px">Result is </text><g style="fill:#333" transform="translate(198.18,133.90) scale(1.000)"><path d="M0.087 -10.351 C0.087 -10.351 0.087 -10.350 0.086 -10.347 L0.019 -10.163 C0.018 -10.161 0.018 -10.159 0.015 -10.159 C0.013 -10.159 0.011 -10.160 0.011 -10.162 C0.011 -10.162 0.011 -10.163 0.012 -10.166 L0.079 -10.350 C0.079 -10.352 0.080 -10.355 0.083 -10.355 C0.085 -10.355 0.087 -10.353 0.087 -10.351 "></path></g><line x1="231.20" y1="190.00" x2="81.20" y2="190.00" style="stroke:#333;stroke-width:1.5;fill:none" marker-end="url(#seq-arrow-solid)"></line><text x="156.11" y="184.00" text-anchor="middle" dominant-baseline="central" style="fill:#333;font-size:14px">Compute </text><g style="fill:#333" transform="translate(189.71,183.90) scale(1.000)"><path d="M0.134 -12.438 C0.134 -12.434 0.130 -12.433 0.127 -12.433 L0.104 -12.433 C0.095 -12.433 0.095 -12.439 0.093 -12.447 L0.052 -12.602 C0.051 -12.605 0.050 -12.609 0.050 -12.612 L0.035 -12.540 L0.007 -12.583 L0.006 -12.586 L0.010 -12.590 L0.025 -12.566 C0.026 -12.573 0.028 -12.580 0.029 -12.587 L0.038 -12.629 L0.041 -12.643 C0.041 -12.645 0.041 -12.647 0.043 -12.648 L0.045 -12.648 C0.051 -12.648 0.052 -12.644 0.053 -12.640 L0.063 -12.601 L0.102 -12.451 C0.103 -12.449 0.104 -12.446 0.104 -12.443 L0.129 -12.443 C0.132 -12.443 0.134 -12.441 0.134 -12.438 "></path><rect x="3.76" y="-1.54" width="9.19" height="0.88"></rect><path d="M5.567 -13.945 L5.567 -13.934 L5.515 -13.934 L5.515 -13.945 L5.567 -13.945 "></path><path d="M7.871 -13.982 L7.871 -13.976 L7.865 -13.976 C7.847 -13.976 7.847 -13.973 7.847 -13.966 L7.847 -13.856 C7.847 -13.852 7.847 -13.851 7.842 -13.851 C7.830 -13.864 7.813 -13.864 7.807 -13.864 L7.807 -13.870 C7.810 -13.870 7.822 -13.870 7.832 -13.865 L7.832 -13.966 C7.832 -13.973 7.831 -13.976 7.814 -13.976 L7.808 -13.976 L7.808 -13.982 C7.814 -13.981 7.831 -13.981 7.839 -13.981 C7.847 -13.981 7.864 -13.981 7.871 -13.982 "></path></g><line x1="81.20" y1="240.00" x2="231.20" y2="240.00" style="stroke:#333;stroke-width:1.5;fill:none;stroke-dasharray:5,5" marker-end="url(#seq-arrow-dashed)"></line><text x="156.19" y="234.00" text-anchor="middle" dominant-baseline="central" style="fill:#333;font-size:14px">Imaginary unit </text><g style="fill:#333" transform="translate(219.19,233.93) scale(1.000)"><path d="M0.048 -9.067 L0.048 -9.061 C0.035 -9.061 0.035 -9.060 0.035 -9.052 L0.035 -8.980 L0.007 -8.982 L0.007 -8.989 C0.020 -8.989 0.022 -8.990 0.022 -8.999 L0.022 -9.052 C0.022 -9.061 0.020 -9.061 0.007 -9.061 L0.007 -9.067 L0.028 -9.066 C0.035 -9.066 0.042 -9.067 0.048 -9.067 M0.038 -8.948 C0.038 -8.943 0.033 -8.938 0.027 -8.938 C0.021 -8.938 0.017 -8.943 0.017 -8.948 C0.017 -8.954 0.021 -8.959 0.027 -8.959 C0.034 -8.959 0.038 -8.953 0.038 -8.948 "></path></g><rect x="20.00" y="20.00" width="122.40" height="35.00" rx="3.00" ry="3.00" style="fill:#ECECFF;stroke:#9370DB;stroke-width:1.5"></rect><text x="81.20" y="37.50" text-anchor="middle" dominant-baseline="central" style="fill:#333;font-size:14px">Math Engine</text><rect x="20.00" y="300.00" width="122.40" height="35.00" rx="3.00" ry="3.00" style="fill:#ECECFF;stroke:#9370DB;stroke-width:1.5"></rect><text x="81.20" y="317.50" text-anchor="middle" dominant-baseline="central" style="fill:#333;font-size:14px">Math Engine</text><rect x="186.20" y="20.00" width="90.00" height="35.00" rx="3.00" ry="3.00" style="fill:#ECECFF;stroke:#9370DB;stroke-width:1.5"></rect><text x="231.20" y="37.50" text-anchor="middle" dominant-baseline="central" style="fill:#333;font-size:14px">User</text><rect x="186.20" y="300.00" width="90.00" height="35.00" rx="3.00" ry="3.00" style="fill:#ECECFF;stroke:#9370DB;stroke-width:1.5"></rect><text x="231.20" y="317.50" text-anchor="middle" dominant-baseline="central" style="fill:#333;font-size:14px">User</text></svg>