<?xml version="1.0" encoding="UTF-8"?>
<svg xmlns="http://www.w3.org/2000/svg" viewBox="0 0 296.20 355.00"><defs><marker id="seq-arrow-solid" viewBox="0 0 10 10" refX="9.00" refY="5.00" markerWidth="8.00" markerHeight="8.00" orient="auto"><polygon points="0,0 10,5 0,10" style="fill:#333"></polygon></marker><marker id="seq-arrow-dashed" viewBox="0 0 10 10" refX="9.00" refY="5.00" markerWidth="8.00" markerHeight="8.00" orient="auto"><polygon points="0,0 10,5 0,10" style="fill:#333"></polygon></marker><marker id="seq-arrow-solid-cross" viewBox="0 0 10 10" refX="5.00" refY="5.00" markerWidth="10.00" markerHeight="10.00" orient="auto"><path d="M2,2 L8,8 M2,8 L8,2" style="stroke:#333;stroke-width:1.5;fill:none"></path></marker><marker id="seq-arrow-dashed-cross" viewBox="0 0 10 10" refX="5.00" refY="5.00" markerWidth="10.00" markerHeight="10.00" orient="auto"><path d="M2,2 L8,8 M2,8 L8,2" style="stroke:#333;stroke-width:1.5;fill:none"></path></marker><marker id="seq-arrow-solid-open" viewBox="0 0 10 10" refX="10.00" refY="5.00" markerWidth="8.00" markerHeight="8.00" orient="auto"><polyline points="0,1 10,5 0,9" style="stroke:#333;stroke-width:1.5;fill:none"></polyline></marker><marker id="seq-arrow-dashed-open" viewBox="0 0 10 10" refX="10.00" refY="5.00" markerWidth="8.00" markerHeight="8.00" orient="auto"><polyline points="0,1 10,5 0,9" style="stroke:#333;stroke-width:1.5;fill:none"></polyline></marker></defs><rect x="0.00" y="0.00" width="296.20" height="355.00" style="fill:white;stroke:none"></rect><line x1="81.20" y1="55.00" x2="81.20" y2="300.00" style="stroke:#9370DB;stroke-width:2.0"></line><line x1="231.20" y1="55.00" x2="231.20" y2="300.00" style="stroke:#9370DB;stroke-width:2.0"></line><line x1="231.20" y1="90.00" x2="81.20" y2="90.00" style="stroke:#333;stroke-width:1.5;fill:none" marker-end="url(#seq-arrow-solid)"></line><text x="131.51" y="84.00" text-anchor="middle" dominant-baseline="auto" style="fill:#333;font-size:14px">Solve </text><g style="fill:#333" transform="translate(156.71,62.38) scale(1.000)"><g transform="translate(0,-0.919)"><path d="M0.719 20.044 L0.719 21.029 L7.297 21.029 L7.297 20.044 L0.719 20.044 Z" style="fill:#333"></path><path d="M8.856 16.513 Q7.965 16.513 7.403 16.841 Q6.856 17.154 6.528 17.607 L6.434 17.607 L6.184 16.654 L5.293 16.654 L5.293 27.294 L6.528 27.294 L6.528 24.701 Q6.528 24.232 6.496 23.810 Q6.481 23.404 6.465 23.169 L6.528 23.169 Q6.856 23.638 7.403 23.966 Q7.965 24.279 8.856 24.279 Q10.246 24.279 11.090 23.310 Q11.949 22.341 11.949 20.404 Q11.949 18.466 11.090 17.498 Q10.231 16.513 8.856 16.513 Z M8.668 17.529 Q9.684 17.529 10.168 18.279 Q10.668 19.013 10.668 20.419 Q10.668 23.263 8.637 23.263 Q7.449 23.263 6.996 22.576 Q6.528 21.888 6.528 20.451 L6.528 20.388 Q6.528 19.013 6.981 18.263 Q7.434 17.529 8.668 17.529 Z" style="fill:#333"></path><path d="M13.355 17.154 L13.355 20.044 L10.574 20.044 L10.574 21.029 L13.355 21.029 L13.355 23.935 L14.371 23.935 L14.371 21.029 L17.152 21.029 L17.152 20.044 L14.371 20.044 L14.371 17.154 L13.355 17.154 Z M10.574 17.154 L10.574 18.154 L17.152 18.154 L17.152 17.154 L10.574 17.154 Z" style="fill:#333"></path><path d="M19.412 16.807 L17.381 22.510 L16.069 22.510 L16.069 23.557 L18.209 23.557 L19.912 18.619 L24.881 32.666 L25.959 32.666 L20.381 16.807 L19.412 16.807 Z" style="fill:#333"></path><rect x="20.30" y="0.92" width="26.45" height="0.92" style="fill:#333"></rect><path d="M26.884 16.956 Q25.994 16.956 25.431 17.284 Q24.884 17.597 24.556 18.050 L24.462 18.050 L24.212 17.097 L23.322 17.097 L23.322 27.737 L24.556 27.737 L24.556 25.144 Q24.556 24.675 24.525 24.253 Q24.509 23.847 24.494 23.612 L24.556 23.612 Q24.884 24.081 25.431 24.409 Q25.994 24.722 26.884 24.722 Q28.275 24.722 29.119 23.753 Q29.978 22.784 29.978 20.847 Q29.978 18.909 29.119 17.941 Q28.259 16.956 26.884 16.956 Z M26.697 17.972 Q27.712 17.972 28.197 18.722 Q28.697 19.456 28.697 20.862 Q28.697 23.706 26.665 23.706 Q25.478 23.706 25.025 23.019 Q24.556 22.331 24.556 20.894 L24.556 20.831 Q24.556 19.456 25.009 18.706 Q25.462 17.972 26.697 17.972 Z" style="fill:#333"></path><path d="M28.602 20.487 L28.602 21.472 L35.180 21.472 L35.180 20.487 L28.602 20.487 Z" style="fill:#333"></path><path d="M38.410 17.097 L38.410 19.362 L33.628 19.362 L33.628 20.409 L38.331 27.144 L39.597 27.144 L39.597 20.472 L41.066 20.472 L41.066 19.362 L39.597 19.362 L39.597 17.097 L38.410 17.097 Z M34.831 20.472 L38.410 20.472 L38.410 23.628 Q38.410 24.347 38.425 24.847 Q38.456 25.378 38.488 25.831 L38.425 25.831 Q38.316 25.566 38.144 25.253 Q37.972 24.956 37.831 24.737 L34.831 20.472 Z" style="fill:#333"></path><path d="M40.453 16.956 Q39.421 16.956 38.750 17.487 Q38.078 18.034 38.078 19.191 Q38.078 20.300 38.968 20.909 Q39.843 21.519 41.671 21.581 L42.953 21.612 L42.953 22.066 Q42.953 23.003 42.546 23.362 Q42.140 23.737 41.406 23.737 Q40.812 23.737 40.281 23.550 Q39.750 23.378 39.281 23.159 L38.906 24.081 Q39.390 24.347 40.062 24.534 Q40.734 24.722 41.468 24.722 Q42.843 24.722 43.500 24.128 Q44.156 23.519 44.156 22.206 L44.156 17.097 L43.265 17.097 L43.031 18.159 L42.968 18.159 Q42.484 17.550 41.937 17.253 Q41.406 16.956 40.453 16.956 Z M40.734 17.956 Q41.671 17.956 42.312 18.472 Q42.937 19.003 42.937 20.097 L42.937 20.769 L41.828 20.722 Q40.437 20.659 39.890 20.269 Q39.359 19.878 39.359 19.175 Q39.359 18.534 39.734 18.237 Q40.125 17.956 40.734 17.956 Z" style="fill:#333"></path><path d="M45.667 16.956 Q44.667 16.956 43.886 17.362 Q43.120 17.769 42.667 18.628 Q42.229 19.472 42.229 20.800 Q42.229 22.191 42.698 23.066 Q43.151 23.925 43.948 24.331 Q44.745 24.737 45.745 24.737 Q46.323 24.737 46.854 24.612 Q47.386 24.503 47.729 24.331 L47.339 23.316 Q47.011 23.441 46.558 23.550 Q46.104 23.659 45.714 23.659 Q43.511 23.659 43.511 20.816 Q43.511 19.456 44.042 18.737 Q44.589 18.019 45.651 18.019 Q46.261 18.019 46.729 18.144 Q47.198 18.269 47.589 18.456 L47.589 17.362 Q47.214 17.159 46.761 17.066 Q46.308 16.956 45.667 16.956 Z" style="fill:#333"></path><rect x="0.00" y="20.74" width="46.75" height="1.31" style="fill:#333"></rect><path d="M19.672 34.012 L19.672 35.027 L22.297 37.684 Q23.047 38.434 23.562 39.027 Q24.078 39.605 24.344 40.168 Q24.609 40.746 24.609 41.418 Q24.609 42.246 24.125 42.668 Q23.641 43.105 22.844 43.105 Q22.125 43.105 21.562 42.840 Q21.016 42.590 20.438 42.152 L19.781 42.965 Q20.375 43.465 21.125 43.793 Q21.891 44.152 22.844 44.152 Q24.250 44.152 25.062 43.434 Q25.875 42.730 25.875 41.480 Q25.875 40.699 25.547 40.012 Q25.234 39.340 24.656 38.668 Q24.078 37.996 23.312 37.246 L21.219 35.184 L21.219 35.137 L26.281 35.137 L26.281 34.012 L19.672 34.012 Z" style="fill:#333"></path><path d="M26.121 33.871 Q25.090 33.871 24.418 34.402 Q23.746 34.949 23.746 36.105 Q23.746 37.215 24.637 37.824 Q25.512 38.434 27.340 38.496 L28.621 38.527 L28.621 38.980 Q28.621 39.918 28.215 40.277 Q27.809 40.652 27.074 40.652 Q26.481 40.652 25.949 40.465 Q25.418 40.293 24.949 40.074 L24.574 40.996 Q25.059 41.262 25.731 41.449 Q26.403 41.637 27.137 41.637 Q28.512 41.637 29.168 41.043 Q29.824 40.434 29.824 39.121 L29.824 34.012 L28.934 34.012 L28.699 35.074 L28.637 35.074 Q28.153 34.465 27.606 34.168 Q27.074 33.871 26.121 33.871 Z M26.403 34.871 Q27.340 34.871 27.981 35.387 Q28.606 35.918 28.606 37.012 L28.606 37.684 L27.496 37.637 Q26.106 37.574 25.559 37.184 Q25.028 36.793 25.028 36.090 Q25.028 35.449 25.403 35.152 Q25.793 34.871 26.403 34.871 Z" style="fill:#333"></path></g></g><line x1="81.20" y1="140.00" x2="231.20" y2="140.00" style="stroke:#333;stroke-width:1.5;fill:none;stroke-dasharray:5,5" marker-end="url(#seq-arrow-dashed)"></line><text x="153.05" y="134.00" text-anchor="middle" dominant-baseline="auto" style="fill:#333;font-size:14px">Result is </text><g style="fill:#333" transform="translate(195.05,128.16) scale(1.000)"><g transform="translate(0,-11.254)"><path d="M5.781 11.254 Q3.719 11.254 2.438 12.691 Q1.156 14.160 1.156 17.051 Q1.156 19.895 2.422 21.410 Q3.672 22.926 5.938 22.926 Q7.188 22.926 8.000 22.488 Q8.844 22.066 9.391 21.207 L9.516 21.207 Q9.625 21.551 9.781 21.973 Q9.953 22.395 10.188 22.707 L11.641 22.707 Q11.484 22.254 11.359 21.488 Q11.234 20.738 11.172 19.895 Q11.109 19.066 11.109 18.301 L11.109 13.941 Q11.109 13.285 11.359 13.004 Q11.609 12.754 11.969 12.754 Q12.141 12.754 12.328 12.801 Q12.516 12.848 12.594 12.863 L12.594 11.520 Q12.453 11.441 12.109 11.348 Q11.781 11.254 11.422 11.254 Q10.641 11.254 10.141 11.629 Q9.656 12.004 9.422 12.973 L9.281 12.973 Q8.797 12.254 8.000 11.754 Q7.203 11.254 5.781 11.254 Z M6.094 12.785 Q7.828 12.785 8.547 13.770 Q9.281 14.770 9.281 16.941 L9.281 17.066 Q9.281 19.160 8.594 20.254 Q7.922 21.363 6.062 21.363 Q4.531 21.363 3.797 20.254 Q3.062 19.145 3.062 17.020 Q3.062 14.926 3.781 13.848 Q4.516 12.785 6.094 12.785 Z" style="fill:#333"></path></g></g><line x1="231.20" y1="190.00" x2="81.20" y2="190.00" style="stroke:#333;stroke-width:1.5;fill:none" marker-end="url(#seq-arrow-solid)"></line><text x="144.33" y="184.00" text-anchor="middle" dominant-baseline="auto" style="fill:#333;font-size:14px">Compute </text><g style="fill:#333" transform="translate(177.93,162.68) scale(1.000)"><g transform="translate(0,-1.312)"><path d="M5.484 22.807 L2.781 30.401 L1.016 30.401 L1.016 31.807 L3.875 31.807 L6.141 25.229 L12.781 43.948 L14.203 43.948 L6.781 22.807 L5.484 22.807 Z" style="fill:#333"></path><rect x="6.76" y="1.31" width="16.98" height="1.31" style="fill:#333"></rect><path d="M10.460 28.375 L10.460 29.875 L20.319 29.875 L20.319 28.375 L10.460 28.375 Z" style="fill:#333"></path><path d="M20.903 23.297 L20.903 33.781 Q20.903 34.672 20.919 35.219 Q20.934 35.766 20.981 36.359 Q20.637 36.047 20.372 35.797 Q20.091 35.562 19.684 35.203 L18.075 33.906 L17.122 35.141 L21.169 38.297 L22.700 38.297 L22.700 23.297 L20.903 23.297 Z" style="fill:#333"></path></g></g><line x1="81.20" y1="240.00" x2="231.20" y2="240.00" style="stroke:#333;stroke-width:1.5;fill:none;stroke-dasharray:5,5" marker-end="url(#seq-arrow-dashed)"></line><text x="154.88" y="234.00" text-anchor="middle" dominant-baseline="auto" style="fill:#333;font-size:14px">Imaginary unit </text><g style="fill:#333" transform="translate(217.88,226.26) scale(1.000)"><g transform="translate(0,-15.477)"><path d="M1.781 15.477 L1.781 26.727 L3.641 26.727 L3.641 15.477 L1.781 15.477 Z M2.734 28.602 Q2.266 28.602 1.953 28.898 Q1.641 29.195 1.641 29.773 Q1.641 30.383 1.953 30.664 Q2.266 30.961 2.734 30.961 Q3.156 30.961 3.469 30.664 Q3.797 30.383 3.797 29.773 Q3.797 29.195 3.469 28.898 Q3.156 28.602 2.734 28.602 Z" style="fill:#333"></path></g></g><rect x="20.00" y="20.00" width="122.40" height="35.00" rx="3.00" ry="3.00" style="fill:#ECECFF;stroke:#9370DB;stroke-width:1.5"></rect><text x="81.20" y="37.50" text-anchor="middle" dominant-baseline="central" style="fill:#333;font-size:14px">Math Engine</text><rect x="20.00" y="300.00" width="122.40" height="35.00" rx="3.00" ry="3.00" style="fill:#ECECFF;stroke:#9370DB;stroke-width:1.5"></rect><text x="81.20" y="317.50" text-anchor="middle" dominant-baseline="central" style="fill:#333;font-size:14px">Math Engine</text><rect x="186.20" y="20.00" width="90.00" height="35.00" rx="3.00" ry="3.00" style="fill:#ECECFF;stroke:#9370DB;stroke-width:1.5"></rect><text x="231.20" y="37.50" text-anchor="middle" dominant-baseline="central" style="fill:#333;font-size:14px">User</text><rect x="186.20" y="300.00" width="90.00" height="35.00" rx="3.00" ry="3.00" style="fill:#ECECFF;stroke:#9370DB;stroke-width:1.5"></rect><text x="231.20" y="317.50" text-anchor="middle" dominant-baseline="central" style="fill:#333;font-size:14px">User</text></svg>