<?xml version="1.0" encoding="UTF-8"?>
<svg xmlns="http://www.w3.org/2000/svg" viewBox="0 0 296.20 355.00"><defs><marker id="seq-arrow-solid" viewBox="0 0 10 10" refX="9.00" refY="5.00" markerWidth="8.00" markerHeight="8.00" orient="auto"><polygon points="0,0 10,5 0,10" style="fill:#333"></polygon></marker><marker id="seq-arrow-dashed" viewBox="0 0 10 10" refX="9.00" refY="5.00" markerWidth="8.00" markerHeight="8.00" orient="auto"><polygon points="0,0 10,5 0,10" style="fill:#333"></polygon></marker><marker id="seq-arrow-solid-cross" viewBox="0 0 10 10" refX="5.00" refY="5.00" markerWidth="10.00" markerHeight="10.00" orient="auto"><path d="M2,2 L8,8 M2,8 L8,2" style="stroke:#333;stroke-width:1.5;fill:none"></path></marker><marker id="seq-arrow-dashed-cross" viewBox="0 0 10 10" refX="5.00" refY="5.00" markerWidth="10.00" markerHeight="10.00" orient="auto"><path d="M2,2 L8,8 M2,8 L8,2" style="stroke:#333;stroke-width:1.5;fill:none"></path></marker><marker id="seq-arrow-solid-open" viewBox="0 0 10 10" refX="10.00" refY="5.00" markerWidth="8.00" markerHeight="8.00" orient="auto"><polyline points="0,1 10,5 0,9" style="stroke:#333;stroke-width:1.5;fill:none"></polyline></marker><marker id="seq-arrow-dashed-open" viewBox="0 0 10 10" refX="10.00" refY="5.00" markerWidth="8.00" markerHeight="8.00" orient="auto"><polyline points="0,1 10,5 0,9" style="stroke:#333;stroke-width:1.5;fill:none"></polyline></marker></defs><rect x="0.00" y="0.00" width="296.20" height="355.00" style="fill:white;stroke:none"></rect><line x1="81.20" y1="55.00" x2="81.20" y2="300.00" style="stroke:#9370DB;stroke-width:2.0"></line><line x1="231.20" y1="55.00" x2="231.20" y2="300.00" style="stroke:#9370DB;stroke-width:2.0"></line><line x1="231.20" y1="90.00" x2="81.20" y2="90.00" style="stroke:#333;stroke-width:1.5;fill:none" marker-end="url(#seq-arrow-solid)"></line><text x="131.51" y="84.00" text-anchor="middle" dominant-baseline="auto" style="fill:#333;font-size:14px">Solve </text><g style="fill:#333" transform="translate(156.71,67.38) scale(1.000)"><g transform="translate(0,-0.919)"><path d="M0.719 13.263 L0.719 12.279 L7.297 12.279 L7.297 13.263 L0.719 13.263 Z" style="fill:#333"></path><path d="M8.856 16.794 Q7.965 16.794 7.403 16.466 Q6.856 16.154 6.528 15.701 L6.434 15.701 L6.184 16.654 L5.293 16.654 L5.293 6.013 L6.528 6.013 L6.528 8.607 Q6.528 9.076 6.496 9.498 Q6.481 9.904 6.465 10.138 L6.528 10.138 Q6.856 9.669 7.403 9.341 Q7.965 9.029 8.856 9.029 Q10.246 9.029 11.090 9.998 Q11.949 10.966 11.949 12.904 Q11.949 14.841 11.090 15.810 Q10.231 16.794 8.856 16.794 Z M8.668 15.779 Q9.684 15.779 10.168 15.029 Q10.668 14.294 10.668 12.888 Q10.668 10.044 8.637 10.044 Q7.449 10.044 6.996 10.732 Q6.528 11.419 6.528 12.857 L6.528 12.919 Q6.528 14.294 6.981 15.044 Q7.434 15.779 8.668 15.779 Z" style="fill:#333"></path><path d="M13.355 16.154 L13.355 13.263 L10.574 13.263 L10.574 12.279 L13.355 12.279 L13.355 9.373 L14.371 9.373 L14.371 12.279 L17.152 12.279 L17.152 13.263 L14.371 13.263 L14.371 16.154 L13.355 16.154 Z M10.574 16.154 L10.574 15.154 L17.152 15.154 L17.152 16.154 L10.574 16.154 Z" style="fill:#333"></path><path d="M19.412 16.807 L17.381 11.104 L16.069 11.104 L16.069 10.057 L18.209 10.057 L19.912 14.994 L24.881 0.948 L25.959 0.948 L20.381 16.807 L19.412 16.807 Z" style="fill:#333"></path><rect x="20.30" y="0.92" width="26.45" height="0.92" style="fill:#333"></rect><path d="M26.884 17.237 Q25.994 17.237 25.431 16.909 Q24.884 16.597 24.556 16.144 L24.462 16.144 L24.212 17.097 L23.322 17.097 L23.322 6.456 L24.556 6.456 L24.556 9.050 Q24.556 9.519 24.525 9.941 Q24.509 10.347 24.494 10.581 L24.556 10.581 Q24.884 10.112 25.431 9.784 Q25.994 9.472 26.884 9.472 Q28.275 9.472 29.119 10.441 Q29.978 11.409 29.978 13.347 Q29.978 15.284 29.119 16.253 Q28.259 17.237 26.884 17.237 Z M26.697 16.222 Q27.712 16.222 28.197 15.472 Q28.697 14.737 28.697 13.331 Q28.697 10.487 26.665 10.487 Q25.478 10.487 25.025 11.175 Q24.556 11.862 24.556 13.300 L24.556 13.362 Q24.556 14.737 25.009 15.487 Q25.462 16.222 26.697 16.222 Z" style="fill:#333"></path><path d="M28.602 13.706 L28.602 12.722 L35.180 12.722 L35.180 13.706 L28.602 13.706 Z" style="fill:#333"></path><path d="M38.410 17.097 L38.410 14.831 L33.628 14.831 L33.628 13.784 L38.331 7.050 L39.597 7.050 L39.597 13.722 L41.066 13.722 L41.066 14.831 L39.597 14.831 L39.597 17.097 L38.410 17.097 Z M34.831 13.722 L38.410 13.722 L38.410 10.566 Q38.410 9.847 38.425 9.347 Q38.456 8.816 38.488 8.362 L38.425 8.362 Q38.316 8.628 38.144 8.941 Q37.972 9.237 37.831 9.456 L34.831 13.722 Z" style="fill:#333"></path><path d="M40.453 17.237 Q39.421 17.237 38.750 16.706 Q38.078 16.159 38.078 15.003 Q38.078 13.894 38.968 13.284 Q39.843 12.675 41.671 12.612 L42.953 12.581 L42.953 12.128 Q42.953 11.191 42.546 10.831 Q42.140 10.456 41.406 10.456 Q40.812 10.456 40.281 10.644 Q39.750 10.816 39.281 11.034 L38.906 10.112 Q39.390 9.847 40.062 9.659 Q40.734 9.472 41.468 9.472 Q42.843 9.472 43.500 10.066 Q44.156 10.675 44.156 11.987 L44.156 17.097 L43.265 17.097 L43.031 16.034 L42.968 16.034 Q42.484 16.644 41.937 16.941 Q41.406 17.237 40.453 17.237 Z M40.734 16.237 Q41.671 16.237 42.312 15.722 Q42.937 15.191 42.937 14.097 L42.937 13.425 L41.828 13.472 Q40.437 13.534 39.890 13.925 Q39.359 14.316 39.359 15.019 Q39.359 15.659 39.734 15.956 Q40.125 16.237 40.734 16.237 Z" style="fill:#333"></path><path d="M45.667 17.237 Q44.667 17.237 43.886 16.831 Q43.120 16.425 42.667 15.566 Q42.229 14.722 42.229 13.394 Q42.229 12.003 42.698 11.128 Q43.151 10.269 43.948 9.862 Q44.745 9.456 45.745 9.456 Q46.323 9.456 46.854 9.581 Q47.386 9.691 47.729 9.862 L47.339 10.878 Q47.011 10.753 46.558 10.644 Q46.104 10.534 45.714 10.534 Q43.511 10.534 43.511 13.378 Q43.511 14.737 44.042 15.456 Q44.589 16.175 45.651 16.175 Q46.261 16.175 46.729 16.050 Q47.198 15.925 47.589 15.737 L47.589 16.831 Q47.214 17.034 46.761 17.128 Q46.308 17.237 45.667 17.237 Z" style="fill:#333"></path><rect x="0.00" y="20.74" width="46.75" height="1.31" style="fill:#333"></rect><path d="M19.672 34.012 L19.672 32.996 L22.297 30.340 Q23.047 29.590 23.562 28.996 Q24.078 28.418 24.344 27.855 Q24.609 27.277 24.609 26.605 Q24.609 25.777 24.125 25.355 Q23.641 24.918 22.844 24.918 Q22.125 24.918 21.562 25.184 Q21.016 25.434 20.438 25.871 L19.781 25.059 Q20.375 24.559 21.125 24.230 Q21.891 23.871 22.844 23.871 Q24.250 23.871 25.062 24.590 Q25.875 25.293 25.875 26.543 Q25.875 27.324 25.547 28.012 Q25.234 28.684 24.656 29.355 Q24.078 30.027 23.312 30.777 L21.219 32.840 L21.219 32.887 L26.281 32.887 L26.281 34.012 L19.672 34.012 Z" style="fill:#333"></path><path d="M26.121 34.152 Q25.090 34.152 24.418 33.621 Q23.746 33.074 23.746 31.918 Q23.746 30.809 24.637 30.199 Q25.512 29.590 27.340 29.527 L28.621 29.496 L28.621 29.043 Q28.621 28.105 28.215 27.746 Q27.809 27.371 27.074 27.371 Q26.481 27.371 25.949 27.559 Q25.418 27.730 24.949 27.949 L24.574 27.027 Q25.059 26.762 25.731 26.574 Q26.403 26.387 27.137 26.387 Q28.512 26.387 29.168 26.980 Q29.824 27.590 29.824 28.902 L29.824 34.012 L28.934 34.012 L28.699 32.949 L28.637 32.949 Q28.153 33.559 27.606 33.855 Q27.074 34.152 26.121 34.152 Z M26.403 33.152 Q27.340 33.152 27.981 32.637 Q28.606 32.105 28.606 31.012 L28.606 30.340 L27.496 30.387 Q26.106 30.449 25.559 30.840 Q25.028 31.230 25.028 31.934 Q25.028 32.574 25.403 32.871 Q25.793 33.152 26.403 33.152 Z" style="fill:#333"></path></g></g><line x1="81.20" y1="140.00" x2="231.20" y2="140.00" style="stroke:#333;stroke-width:1.5;fill:none;stroke-dasharray:5,5" marker-end="url(#seq-arrow-dashed)"></line><text x="153.05" y="134.00" text-anchor="middle" dominant-baseline="auto" style="fill:#333;font-size:14px">Result is </text><g style="fill:#333" transform="translate(195.05,128.16) scale(1.000)"><g transform="translate(0,0.012)"><path d="M5.781 11.660 Q3.719 11.660 2.438 10.223 Q1.156 8.754 1.156 5.863 Q1.156 3.020 2.422 1.504 Q3.672 -0.012 5.938 -0.012 Q7.188 -0.012 8.000 0.426 Q8.844 0.848 9.391 1.707 L9.516 1.707 Q9.625 1.363 9.781 0.941 Q9.953 0.520 10.188 0.207 L11.641 0.207 Q11.484 0.660 11.359 1.426 Q11.234 2.176 11.172 3.020 Q11.109 3.848 11.109 4.613 L11.109 8.973 Q11.109 9.629 11.359 9.910 Q11.609 10.160 11.969 10.160 Q12.141 10.160 12.328 10.113 Q12.516 10.066 12.594 10.051 L12.594 11.395 Q12.453 11.473 12.109 11.566 Q11.781 11.660 11.422 11.660 Q10.641 11.660 10.141 11.285 Q9.656 10.910 9.422 9.941 L9.281 9.941 Q8.797 10.660 8.000 11.160 Q7.203 11.660 5.781 11.660 Z M6.094 10.129 Q7.828 10.129 8.547 9.145 Q9.281 8.145 9.281 5.973 L9.281 5.848 Q9.281 3.754 8.594 2.660 Q7.922 1.551 6.062 1.551 Q4.531 1.551 3.797 2.660 Q3.062 3.770 3.062 5.895 Q3.062 7.988 3.781 9.066 Q4.516 10.129 6.094 10.129 Z" style="fill:#333"></path></g></g><line x1="231.20" y1="190.00" x2="81.20" y2="190.00" style="stroke:#333;stroke-width:1.5;fill:none" marker-end="url(#seq-arrow-solid)"></line><text x="144.33" y="184.00" text-anchor="middle" dominant-baseline="auto" style="fill:#333;font-size:14px">Compute </text><g style="fill:#333" transform="translate(177.93,173.01) scale(1.000)"><g transform="translate(0,-1.312)"><path d="M5.484 22.807 L2.781 15.213 L1.016 15.213 L1.016 13.807 L3.875 13.807 L6.141 20.385 L12.781 1.666 L14.203 1.666 L6.781 22.807 L5.484 22.807 Z" style="fill:#333"></path><rect x="6.76" y="1.31" width="16.98" height="1.31" style="fill:#333"></rect><path d="M10.460 18.219 L10.460 16.719 L20.319 16.719 L20.319 18.219 L10.460 18.219 Z" style="fill:#333"></path><path d="M20.903 23.297 L20.903 12.812 Q20.903 11.922 20.919 11.375 Q20.934 10.828 20.981 10.234 Q20.637 10.547 20.372 10.797 Q20.091 11.031 19.684 11.391 L18.075 12.688 L17.122 11.453 L21.169 8.297 L22.700 8.297 L22.700 23.297 L20.903 23.297 Z" style="fill:#333"></path></g></g><line x1="81.20" y1="240.00" x2="231.20" y2="240.00" style="stroke:#333;stroke-width:1.5;fill:none;stroke-dasharray:5,5" marker-end="url(#seq-arrow-dashed)"></line><text x="154.88" y="234.00" text-anchor="middle" dominant-baseline="auto" style="fill:#333;font-size:14px">Imaginary unit </text><g style="fill:#333" transform="translate(217.88,226.26) scale(1.000)"><g transform="translate(0,0.008)"><path d="M1.781 15.477 L1.781 4.227 L3.641 4.227 L3.641 15.477 L1.781 15.477 Z M2.734 2.352 Q2.266 2.352 1.953 2.055 Q1.641 1.758 1.641 1.180 Q1.641 0.570 1.953 0.289 Q2.266 -0.008 2.734 -0.008 Q3.156 -0.008 3.469 0.289 Q3.797 0.570 3.797 1.180 Q3.797 1.758 3.469 2.055 Q3.156 2.352 2.734 2.352 Z" style="fill:#333"></path></g></g><rect x="20.00" y="20.00" width="122.40" height="35.00" rx="3.00" ry="3.00" style="fill:#ECECFF;stroke:#9370DB;stroke-width:1.5"></rect><text x="81.20" y="37.50" text-anchor="middle" dominant-baseline="central" style="fill:#333;font-size:14px">Math Engine</text><rect x="20.00" y="300.00" width="122.40" height="35.00" rx="3.00" ry="3.00" style="fill:#ECECFF;stroke:#9370DB;stroke-width:1.5"></rect><text x="81.20" y="317.50" text-anchor="middle" dominant-baseline="central" style="fill:#333;font-size:14px">Math Engine</text><rect x="186.20" y="20.00" width="90.00" height="35.00" rx="3.00" ry="3.00" style="fill:#ECECFF;stroke:#9370DB;stroke-width:1.5"></rect><text x="231.20" y="37.50" text-anchor="middle" dominant-baseline="central" style="fill:#333;font-size:14px">User</text><rect x="186.20" y="300.00" width="90.00" height="35.00" rx="3.00" ry="3.00" style="fill:#ECECFF;stroke:#9370DB;stroke-width:1.5"></rect><text x="231.20" y="317.50" text-anchor="middle" dominant-baseline="central" style="fill:#333;font-size:14px">User</text></svg>