<?xml version="1.0" encoding="UTF-8"?>
<svg xmlns="http://www.w3.org/2000/svg" viewBox="0 0 296.20 355.00"><defs><marker id="seq-arrow-solid" viewBox="0 0 10 10" refX="9.00" refY="5.00" markerWidth="8.00" markerHeight="8.00" orient="auto"><polygon points="0,0 10,5 0,10" style="fill:#333"></polygon></marker><marker id="seq-arrow-dashed" viewBox="0 0 10 10" refX="9.00" refY="5.00" markerWidth="8.00" markerHeight="8.00" orient="auto"><polygon points="0,0 10,5 0,10" style="fill:#333"></polygon></marker><marker id="seq-arrow-solid-cross" viewBox="0 0 10 10" refX="5.00" refY="5.00" markerWidth="10.00" markerHeight="10.00" orient="auto"><path d="M2,2 L8,8 M2,8 L8,2" style="stroke:#333;stroke-width:1.5;fill:none"></path></marker><marker id="seq-arrow-dashed-cross" viewBox="0 0 10 10" refX="5.00" refY="5.00" markerWidth="10.00" markerHeight="10.00" orient="auto"><path d="M2,2 L8,8 M2,8 L8,2" style="stroke:#333;stroke-width:1.5;fill:none"></path></marker><marker id="seq-arrow-solid-open" viewBox="0 0 10 10" refX="10.00" refY="5.00" markerWidth="8.00" markerHeight="8.00" orient="auto"><polyline points="0,1 10,5 0,9" style="stroke:#333;stroke-width:1.5;fill:none"></polyline></marker><marker id="seq-arrow-dashed-open" viewBox="0 0 10 10" refX="10.00" refY="5.00" markerWidth="8.00" markerHeight="8.00" orient="auto"><polyline points="0,1 10,5 0,9" style="stroke:#333;stroke-width:1.5;fill:none"></polyline></marker></defs><rect x="0.00" y="0.00" width="296.20" height="355.00" style="fill:white;stroke:none"></rect><line x1="81.20" y1="55.00" x2="81.20" y2="300.00" style="stroke:#9370DB;stroke-width:2.0"></line><line x1="231.20" y1="55.00" x2="231.20" y2="300.00" style="stroke:#9370DB;stroke-width:2.0"></line><line x1="231.20" y1="90.00" x2="81.20" y2="90.00" style="stroke:#333;stroke-width:1.5;fill:none" marker-end="url(#seq-arrow-solid)"></line><text x="37.20" y="84.00" text-anchor="middle" dominant-baseline="central" style="fill:#333;font-size:14px">Solve </text><text x="181.40" y="84.00" text-anchor="middle" dominant-baseline="central" style="fill:#333;font-size:14px">frac{-b pm sqrt{b^2 - 4ac}}{2a}</text><line x1="81.20" y1="140.00" x2="231.20" y2="140.00" style="stroke:#333;stroke-width:1.5;fill:none;stroke-dasharray:5,5" marker-end="url(#seq-arrow-dashed)"></line><text x="135.20" y="134.00" text-anchor="middle" dominant-baseline="central" style="fill:#333;font-size:14px">Result is </text><text x="198.20" y="134.00" text-anchor="middle" dominant-baseline="central" style="fill:#333;font-size:14px">alpha</text><line x1="231.20" y1="190.00" x2="81.20" y2="190.00" style="stroke:#333;stroke-width:1.5;fill:none" marker-end="url(#seq-arrow-solid)"></line><text x="149.72" y="184.00" text-anchor="middle" dominant-baseline="central" style="fill:#333;font-size:14px">Compute </text><g style="fill:#333" transform="translate(183.32,176.50) scale(1.000)"><path d="M8.359 24.267 C8.359 24.548 8.094 24.595 7.906 24.595 L6.469 24.595 C5.906 24.595 5.906 24.204 5.797 23.736 L3.250 14.048 C3.203 13.845 3.125 13.611 3.094 13.408 L2.188 17.876 L0.469 15.204 L0.391 15.001 L0.609 14.767 L1.562 16.267 C1.609 15.845 1.750 15.408 1.828 14.970 L2.359 12.361 L2.531 11.454 C2.547 11.361 2.547 11.189 2.672 11.173 L2.812 11.173 C3.172 11.173 3.219 11.376 3.297 11.658 L3.922 14.064 L6.375 23.439 C6.422 23.611 6.484 23.767 6.500 23.954 L8.062 23.954 C8.219 23.970 8.359 24.111 8.359 24.267 Z" style="fill:#333"></path><rect x="3.76" y="0.88" width="9.19" height="0.88" style="fill:#333"></rect><path d="M9.372 16.815 L9.372 17.628 L5.669 17.628 L5.669 16.815 L9.372 16.815 Z" style="fill:#333"></path><path d="M13.648 14.190 L13.648 14.628 L13.211 14.628 C11.945 14.628 11.898 14.784 11.898 15.299 L11.898 23.143 C11.898 23.487 11.898 23.518 11.586 23.518 C10.711 22.612 9.477 22.612 9.039 22.612 L9.039 22.190 C9.320 22.190 10.148 22.190 10.867 22.549 L10.867 15.299 C10.867 14.799 10.820 14.628 9.570 14.628 L9.117 14.628 L9.117 14.190 C9.602 14.237 10.820 14.237 11.383 14.237 C11.945 14.237 13.164 14.237 13.648 14.190 Z" style="fill:#333"></path></g><line x1="81.20" y1="240.00" x2="231.20" y2="240.00" style="stroke:#333;stroke-width:1.5;fill:none;stroke-dasharray:5,5" marker-end="url(#seq-arrow-dashed)"></line><text x="155.25" y="234.00" text-anchor="middle" dominant-baseline="central" style="fill:#333;font-size:14px">Imaginary unit </text><g style="fill:#333" transform="translate(218.25,229.00) scale(1.000)"><path d="M3.453 9.206 L3.453 9.643 C2.531 9.643 2.484 9.706 2.484 10.253 L2.484 15.393 L0.516 15.237 L0.516 14.799 C1.422 14.799 1.547 14.721 1.547 14.034 L1.547 10.268 C1.547 9.643 1.406 9.643 0.469 9.643 L0.469 9.206 L2.000 9.253 C2.484 9.253 2.984 9.221 3.453 9.206 Z M2.688 17.659 C2.688 18.034 2.359 18.409 1.953 18.409 C1.469 18.409 1.188 18.018 1.188 17.659 C1.188 17.284 1.516 16.924 1.938 16.924 C2.406 16.924 2.688 17.315 2.688 17.659 Z" style="fill:#333"></path></g><rect x="20.00" y="20.00" width="122.40" height="35.00" rx="3.00" ry="3.00" style="fill:#ECECFF;stroke:#9370DB;stroke-width:1.5"></rect><text x="81.20" y="37.50" text-anchor="middle" dominant-baseline="central" style="fill:#333;font-size:14px">Math Engine</text><rect x="20.00" y="300.00" width="122.40" height="35.00" rx="3.00" ry="3.00" style="fill:#ECECFF;stroke:#9370DB;stroke-width:1.5"></rect><text x="81.20" y="317.50" text-anchor="middle" dominant-baseline="central" style="fill:#333;font-size:14px">Math Engine</text><rect x="186.20" y="20.00" width="90.00" height="35.00" rx="3.00" ry="3.00" style="fill:#ECECFF;stroke:#9370DB;stroke-width:1.5"></rect><text x="231.20" y="37.50" text-anchor="middle" dominant-baseline="central" style="fill:#333;font-size:14px">User</text><rect x="186.20" y="300.00" width="90.00" height="35.00" rx="3.00" ry="3.00" style="fill:#ECECFF;stroke:#9370DB;stroke-width:1.5"></rect><text x="231.20" y="317.50" text-anchor="middle" dominant-baseline="central" style="fill:#333;font-size:14px">User</text></svg>