<?xml version="1.0" encoding="UTF-8"?>
<svg xmlns="http://www.w3.org/2000/svg" viewBox="0 0 296.20 355.00"><defs><marker id="seq-arrow-solid" viewBox="0 0 10 10" refX="9.00" refY="5.00" markerWidth="8.00" markerHeight="8.00" orient="auto"><polygon points="0,0 10,5 0,10" style="fill:#333"></polygon></marker><marker id="seq-arrow-dashed" viewBox="0 0 10 10" refX="9.00" refY="5.00" markerWidth="8.00" markerHeight="8.00" orient="auto"><polygon points="0,0 10,5 0,10" style="fill:#333"></polygon></marker><marker id="seq-arrow-solid-cross" viewBox="0 0 10 10" refX="5.00" refY="5.00" markerWidth="10.00" markerHeight="10.00" orient="auto"><path d="M2,2 L8,8 M2,8 L8,2" style="stroke:#333;stroke-width:1.5;fill:none"></path></marker><marker id="seq-arrow-dashed-cross" viewBox="0 0 10 10" refX="5.00" refY="5.00" markerWidth="10.00" markerHeight="10.00" orient="auto"><path d="M2,2 L8,8 M2,8 L8,2" style="stroke:#333;stroke-width:1.5;fill:none"></path></marker><marker id="seq-arrow-solid-open" viewBox="0 0 10 10" refX="10.00" refY="5.00" markerWidth="8.00" markerHeight="8.00" orient="auto"><polyline points="0,1 10,5 0,9" style="stroke:#333;stroke-width:1.5;fill:none"></polyline></marker><marker id="seq-arrow-dashed-open" viewBox="0 0 10 10" refX="10.00" refY="5.00" markerWidth="8.00" markerHeight="8.00" orient="auto"><polyline points="0,1 10,5 0,9" style="stroke:#333;stroke-width:1.5;fill:none"></polyline></marker></defs><rect x="0.00" y="0.00" width="296.20" height="355.00" style="fill:white;stroke:none"></rect><line x1="81.20" y1="55.00" x2="81.20" y2="300.00" style="stroke:#9370DB;stroke-width:2.0"></line><line x1="231.20" y1="55.00" x2="231.20" y2="300.00" style="stroke:#9370DB;stroke-width:2.0"></line><line x1="231.20" y1="90.00" x2="81.20" y2="90.00" style="stroke:#333;stroke-width:1.5;fill:none" marker-end="url(#seq-arrow-solid)"></line><text x="125.59" y="84.00" text-anchor="middle" dominant-baseline="auto" style="fill:#333;font-size:14px">Solve </text><g style="fill:#333" transform="translate(150.79,71.06) scale(1.000)"><g transform="translate(0,-0.735)"><path d="M0.562 10.667 L0.562 9.886 L5.734 9.886 L5.734 10.667 L0.562 10.667 Z" style="fill:#333"></path><path d="M8.825 13.432 Q8.122 13.432 7.685 13.182 Q7.247 12.932 6.997 12.573 L6.919 12.573 L6.716 13.323 L6.029 13.323 L6.029 4.964 L6.997 4.964 L6.997 6.995 Q6.997 7.370 6.966 7.698 Q6.966 8.026 6.935 8.214 L6.997 8.214 Q7.247 7.839 7.685 7.589 Q8.122 7.323 8.825 7.323 Q9.919 7.323 10.575 8.104 Q11.247 8.854 11.247 10.370 Q11.247 11.886 10.575 12.667 Q9.904 13.432 8.825 13.432 Z M8.685 12.636 Q9.466 12.636 9.857 12.042 Q10.247 11.464 10.247 10.370 Q10.247 8.136 8.654 8.136 Q7.716 8.136 7.357 8.667 Q6.997 9.214 6.997 10.339 L6.997 10.386 Q6.997 11.479 7.341 12.057 Q7.716 12.636 8.685 12.636 Z" style="fill:#333"></path><path d="M14.970 12.932 L14.970 10.667 L12.783 10.667 L12.783 9.886 L14.970 9.886 L14.970 7.604 L15.767 7.604 L15.767 9.886 L17.955 9.886 L17.955 10.667 L15.767 10.667 L15.767 12.932 L14.970 12.932 Z M12.783 12.932 L12.783 12.151 L17.955 12.151 L17.955 12.932 L12.783 12.932 Z" style="fill:#333"></path><path d="M22.257 13.446 L20.648 8.883 L19.585 8.883 L19.585 8.039 L21.304 8.039 L22.663 11.992 L26.648 0.758 L27.491 0.758 L23.038 13.446 L22.257 13.446 Z" style="fill:#333"></path><rect x="23.67" y="0.74" width="35.80" height="0.74" style="fill:#333"></rect><path d="M31.181 13.787 Q30.478 13.787 30.040 13.537 Q29.603 13.287 29.353 12.927 L29.274 12.927 L29.071 13.677 L28.384 13.677 L28.384 5.318 L29.353 5.318 L29.353 7.349 Q29.353 7.724 29.321 8.052 Q29.321 8.381 29.290 8.568 L29.353 8.568 Q29.603 8.193 30.040 7.943 Q30.478 7.677 31.181 7.677 Q32.274 7.677 32.931 8.459 Q33.603 9.209 33.603 10.724 Q33.603 12.240 32.931 13.021 Q32.259 13.787 31.181 13.787 Z M31.040 12.990 Q31.821 12.990 32.212 12.396 Q32.603 11.818 32.603 10.724 Q32.603 8.490 31.009 8.490 Q30.071 8.490 29.712 9.021 Q29.353 9.568 29.353 10.693 L29.353 10.740 Q29.353 11.834 29.696 12.412 Q30.071 12.990 31.040 12.990 Z" style="fill:#333"></path><path d="M35.138 11.021 L35.138 10.240 L40.310 10.240 L40.310 11.021 L35.138 11.021 Z" style="fill:#333"></path><path d="M45.331 13.677 L45.331 11.896 L41.565 11.896 L41.565 11.068 L45.253 5.787 L46.253 5.787 L46.253 11.021 L47.409 11.021 L47.409 11.896 L46.253 11.896 L46.253 13.677 L45.331 13.677 Z M42.503 11.021 L45.331 11.021 L45.331 8.552 Q45.331 7.974 45.331 7.584 Q45.362 7.177 45.378 6.818 L45.331 6.818 Q45.253 7.021 45.112 7.271 Q44.987 7.506 44.862 7.677 L42.503 11.021 Z" style="fill:#333"></path><path d="M48.781 13.787 Q47.984 13.787 47.453 13.365 Q46.922 12.943 46.922 12.037 Q46.922 11.162 47.625 10.693 Q48.313 10.209 49.750 10.162 L50.750 10.131 L50.750 9.771 Q50.750 9.037 50.438 8.756 Q50.125 8.459 49.531 8.459 Q49.078 8.459 48.656 8.599 Q48.234 8.740 47.875 8.912 L47.578 8.193 Q47.969 7.974 48.484 7.834 Q49.016 7.677 49.594 7.677 Q50.672 7.677 51.188 8.162 Q51.703 8.631 51.703 9.662 L51.703 13.677 L51.000 13.677 L50.813 12.834 L50.766 12.834 Q50.375 13.318 49.953 13.552 Q49.531 13.787 48.781 13.787 Z M49.000 13.006 Q49.750 13.006 50.250 12.599 Q50.750 12.177 50.750 11.318 L50.750 10.802 L49.875 10.834 Q48.781 10.865 48.344 11.177 Q47.922 11.490 47.922 12.052 Q47.922 12.537 48.219 12.771 Q48.531 13.006 49.000 13.006 Z" style="fill:#333"></path><path d="M54.712 13.787 Q53.931 13.787 53.321 13.474 Q52.712 13.146 52.368 12.474 Q52.024 11.802 52.024 10.756 Q52.024 9.677 52.384 8.990 Q52.743 8.302 53.368 7.990 Q53.993 7.677 54.774 7.677 Q55.228 7.677 55.649 7.771 Q56.071 7.865 56.337 7.990 L56.040 8.787 Q55.774 8.693 55.415 8.599 Q55.071 8.521 54.759 8.521 Q53.024 8.521 53.024 10.756 Q53.024 11.818 53.446 12.396 Q53.868 12.959 54.696 12.959 Q55.181 12.959 55.556 12.849 Q55.931 12.756 56.228 12.615 L56.228 13.474 Q55.931 13.615 55.571 13.693 Q55.228 13.787 54.712 13.787 Z" style="fill:#333"></path><rect x="-1.50" y="16.60" width="60.97" height="1.05" style="fill:#333"></rect><path d="M23.781 27.209 L23.781 26.412 L25.828 24.334 Q26.422 23.741 26.844 23.272 Q27.250 22.803 27.453 22.366 Q27.656 21.912 27.656 21.397 Q27.656 20.741 27.281 20.412 Q26.891 20.069 26.281 20.069 Q25.703 20.069 25.266 20.272 Q24.828 20.459 24.391 20.819 L23.859 20.162 Q24.328 19.787 24.922 19.522 Q25.531 19.241 26.281 19.241 Q27.375 19.241 28.016 19.803 Q28.656 20.350 28.656 21.334 Q28.656 21.944 28.391 22.491 Q28.141 23.022 27.688 23.553 Q27.250 24.069 26.641 24.662 L25.000 26.287 L25.000 26.334 L28.969 26.334 L28.969 27.209 L23.781 27.209 Z" style="fill:#333"></path><path d="M30.700 27.319 Q29.904 27.319 29.372 26.897 Q28.841 26.475 28.841 25.569 Q28.841 24.694 29.544 24.225 Q30.232 23.741 31.669 23.694 L32.669 23.662 L32.669 23.303 Q32.669 22.569 32.357 22.287 Q32.044 21.991 31.450 21.991 Q30.997 21.991 30.575 22.131 Q30.154 22.272 29.794 22.444 L29.497 21.725 Q29.888 21.506 30.404 21.366 Q30.935 21.209 31.513 21.209 Q32.591 21.209 33.107 21.694 Q33.622 22.162 33.622 23.194 L33.622 27.209 L32.919 27.209 L32.732 26.366 L32.685 26.366 Q32.294 26.850 31.872 27.084 Q31.450 27.319 30.700 27.319 Z M30.919 26.537 Q31.669 26.537 32.169 26.131 Q32.669 25.709 32.669 24.850 L32.669 24.334 L31.794 24.366 Q30.700 24.397 30.263 24.709 Q29.841 25.022 29.841 25.584 Q29.841 26.069 30.138 26.303 Q30.450 26.537 30.919 26.537 Z" style="fill:#333"></path></g></g><line x1="81.20" y1="140.00" x2="231.20" y2="140.00" style="stroke:#333;stroke-width:1.5;fill:none;stroke-dasharray:5,5" marker-end="url(#seq-arrow-dashed)"></line><text x="152.29" y="134.00" text-anchor="middle" dominant-baseline="auto" style="fill:#333;font-size:14px">Result is </text><g style="fill:#333" transform="translate(194.29,125.27) scale(1.000)"><g transform="translate(0,-0.431)"><path d="M4.406 9.322 Q2.828 9.322 1.859 8.228 Q0.875 7.103 0.875 4.916 Q0.875 2.728 1.844 1.588 Q2.797 0.431 4.531 0.431 Q5.469 0.431 6.094 0.759 Q6.734 1.088 7.156 1.744 L7.250 1.744 Q7.328 1.463 7.453 1.150 Q7.578 0.822 7.766 0.588 L8.859 0.588 Q8.750 0.947 8.656 1.525 Q8.562 2.088 8.516 2.728 Q8.469 3.369 8.469 3.947 L8.469 7.275 Q8.469 7.775 8.656 7.978 Q8.844 8.181 9.125 8.181 Q9.250 8.181 9.391 8.134 Q9.531 8.103 9.594 8.088 L9.594 9.119 Q9.484 9.181 9.234 9.244 Q8.969 9.322 8.703 9.322 Q8.109 9.322 7.734 9.041 Q7.359 8.744 7.188 8.009 L7.078 8.009 Q6.703 8.556 6.094 8.947 Q5.484 9.322 4.406 9.322 Z M4.641 8.150 Q5.969 8.150 6.516 7.400 Q7.078 6.634 7.078 4.994 L7.078 4.900 Q7.078 3.291 6.547 2.463 Q6.031 1.619 4.625 1.619 Q3.453 1.619 2.891 2.463 Q2.344 3.306 2.344 4.931 Q2.344 6.525 2.875 7.338 Q3.438 8.150 4.641 8.150 Z" style="fill:#333"></path></g></g><line x1="231.20" y1="190.00" x2="81.20" y2="190.00" style="stroke:#333;stroke-width:1.5;fill:none" marker-end="url(#seq-arrow-solid)"></line><text x="141.48" y="184.00" text-anchor="middle" dominant-baseline="auto" style="fill:#333;font-size:14px">Compute </text><g style="fill:#333" transform="translate(175.08,167.01) scale(1.000)"><g transform="translate(0,-1.050)"><path d="M4.391 18.245 L2.219 12.167 L0.812 12.167 L0.812 11.042 L3.109 11.042 L4.906 16.308 L10.219 1.339 L11.359 1.339 L5.422 18.245 L4.391 18.245 Z" style="fill:#333"></path><rect x="6.88" y="1.05" width="24.06" height="1.05" style="fill:#333"></rect><path d="M12.446 14.163 L12.446 13.022 L19.977 13.022 L19.977 14.163 L12.446 14.163 Z" style="fill:#333"></path><path d="M23.203 18.038 L23.203 10.053 Q23.203 9.366 23.219 8.944 Q23.250 8.538 23.281 8.084 Q23.015 8.319 22.812 8.522 Q22.609 8.694 22.281 8.959 L21.062 9.959 L20.328 9.006 L23.422 6.616 L24.594 6.616 L24.594 18.038 L23.203 18.038 Z" style="fill:#333"></path></g></g><line x1="81.20" y1="240.00" x2="231.20" y2="240.00" style="stroke:#333;stroke-width:1.5;fill:none;stroke-dasharray:5,5" marker-end="url(#seq-arrow-dashed)"></line><text x="154.56" y="234.00" text-anchor="middle" dominant-baseline="auto" style="fill:#333;font-size:14px">Imaginary unit </text><g style="fill:#333" transform="translate(217.56,222.20) scale(1.000)"><g transform="translate(0,-0.584)"><path d="M1.359 12.381 L1.359 3.803 L2.766 3.803 L2.766 12.381 L1.359 12.381 Z M2.078 2.381 Q1.734 2.381 1.484 2.163 Q1.250 1.928 1.250 1.491 Q1.250 1.022 1.484 0.819 Q1.734 0.584 2.078 0.584 Q2.406 0.584 2.641 0.819 Q2.891 1.022 2.891 1.491 Q2.891 1.928 2.641 2.163 Q2.406 2.381 2.078 2.381 Z" style="fill:#333"></path></g></g><rect x="20.00" y="20.00" width="122.40" height="35.00" rx="3.00" ry="3.00" style="fill:#ECECFF;stroke:#9370DB;stroke-width:1.5"></rect><text x="81.20" y="37.50" text-anchor="middle" dominant-baseline="central" style="fill:#333;font-size:14px">Math Engine</text><rect x="20.00" y="300.00" width="122.40" height="35.00" rx="3.00" ry="3.00" style="fill:#ECECFF;stroke:#9370DB;stroke-width:1.5"></rect><text x="81.20" y="317.50" text-anchor="middle" dominant-baseline="central" style="fill:#333;font-size:14px">Math Engine</text><rect x="186.20" y="20.00" width="90.00" height="35.00" rx="3.00" ry="3.00" style="fill:#ECECFF;stroke:#9370DB;stroke-width:1.5"></rect><text x="231.20" y="37.50" text-anchor="middle" dominant-baseline="central" style="fill:#333;font-size:14px">User</text><rect x="186.20" y="300.00" width="90.00" height="35.00" rx="3.00" ry="3.00" style="fill:#ECECFF;stroke:#9370DB;stroke-width:1.5"></rect><text x="231.20" y="317.50" text-anchor="middle" dominant-baseline="central" style="fill:#333;font-size:14px">User</text></svg>