<?xml version="1.0" encoding="UTF-8"?>
<svg xmlns="http://www.w3.org/2000/svg" viewBox="0 0 296.20 355.00"><defs><marker id="seq-arrow-solid" viewBox="0 0 10 10" refX="9.00" refY="5.00" markerWidth="8.00" markerHeight="8.00" orient="auto"><polygon points="0,0 10,5 0,10" style="fill:#333"></polygon></marker><marker id="seq-arrow-dashed" viewBox="0 0 10 10" refX="9.00" refY="5.00" markerWidth="8.00" markerHeight="8.00" orient="auto"><polygon points="0,0 10,5 0,10" style="fill:#333"></polygon></marker><marker id="seq-arrow-solid-cross" viewBox="0 0 10 10" refX="5.00" refY="5.00" markerWidth="10.00" markerHeight="10.00" orient="auto"><path d="M2,2 L8,8 M2,8 L8,2" style="stroke:#333;stroke-width:1.5;fill:none"></path></marker><marker id="seq-arrow-dashed-cross" viewBox="0 0 10 10" refX="5.00" refY="5.00" markerWidth="10.00" markerHeight="10.00" orient="auto"><path d="M2,2 L8,8 M2,8 L8,2" style="stroke:#333;stroke-width:1.5;fill:none"></path></marker><marker id="seq-arrow-solid-open" viewBox="0 0 10 10" refX="10.00" refY="5.00" markerWidth="8.00" markerHeight="8.00" orient="auto"><polyline points="0,1 10,5 0,9" style="stroke:#333;stroke-width:1.5;fill:none"></polyline></marker><marker id="seq-arrow-dashed-open" viewBox="0 0 10 10" refX="10.00" refY="5.00" markerWidth="8.00" markerHeight="8.00" orient="auto"><polyline points="0,1 10,5 0,9" style="stroke:#333;stroke-width:1.5;fill:none"></polyline></marker></defs><rect x="0.00" y="0.00" width="296.20" height="355.00" style="fill:white;stroke:none"></rect><line x1="81.20" y1="55.00" x2="81.20" y2="300.00" style="stroke:#9370DB;stroke-width:2.0"></line><line x1="231.20" y1="55.00" x2="231.20" y2="300.00" style="stroke:#9370DB;stroke-width:2.0"></line><line x1="231.20" y1="90.00" x2="81.20" y2="90.00" style="stroke:#333;stroke-width:1.5;fill:none" marker-end="url(#seq-arrow-solid)"></line><text x="37.20" y="84.00" text-anchor="middle" dominant-baseline="auto" style="fill:#333;font-size:14px">Solve </text><text x="181.40" y="84.00" text-anchor="middle" dominant-baseline="auto" style="fill:#333;font-size:14px">frac{-b pm sqrt{b^2 - 4ac}}{2a}</text><line x1="81.20" y1="140.00" x2="231.20" y2="140.00" style="stroke:#333;stroke-width:1.5;fill:none;stroke-dasharray:5,5" marker-end="url(#seq-arrow-dashed)"></line><text x="154.10" y="134.00" text-anchor="middle" dominant-baseline="auto" style="fill:#333;font-size:14px">Result is </text><g style="fill:#333" transform="translate(196.10,130.00) scale(1.000)"><path d="M3.844 7.497 Q2.484 7.497 1.625 8.466 Q0.766 9.451 0.766 11.357 Q0.766 13.263 1.609 14.279 Q2.453 15.279 3.969 15.279 Q4.781 15.279 5.328 14.982 Q5.891 14.701 6.266 14.138 L6.344 14.138 Q6.406 14.372 6.531 14.654 Q6.641 14.935 6.797 15.138 L7.750 15.138 Q7.656 14.841 7.578 14.326 Q7.484 13.826 7.453 13.263 Q7.406 12.701 7.406 12.201 L7.406 9.294 Q7.406 8.857 7.578 8.669 Q7.734 8.513 7.984 8.513 Q8.094 8.513 8.219 8.529 Q8.344 8.560 8.406 8.576 L8.406 7.685 Q8.297 7.622 8.078 7.576 Q7.859 7.497 7.609 7.497 Q7.094 7.497 6.766 7.747 Q6.438 7.997 6.281 8.654 L6.188 8.654 Q5.859 8.169 5.328 7.841 Q4.797 7.497 3.844 7.497 Z M4.062 8.513 Q5.219 8.513 5.703 9.185 Q6.188 9.857 6.188 11.294 L6.188 11.372 Q6.188 12.779 5.719 13.497 Q5.281 14.247 4.047 14.247 Q3.031 14.247 2.531 13.497 Q2.047 12.763 2.047 11.341 Q2.047 9.951 2.516 9.232 Q3.016 8.513 4.062 8.513 Z" style="fill:#333"></path></g><line x1="231.20" y1="190.00" x2="81.20" y2="190.00" style="stroke:#333;stroke-width:1.5;fill:none" marker-end="url(#seq-arrow-solid)"></line><text x="148.29" y="184.00" text-anchor="middle" dominant-baseline="auto" style="fill:#333;font-size:14px">Compute </text><g style="fill:#333" transform="translate(181.89,176.00) scale(1.000)"><path d="M3.562 15.205 L1.812 20.142 L0.656 20.142 L0.656 21.048 L2.516 21.048 L3.984 16.783 L8.312 28.939 L9.234 28.939 L4.406 15.205 L3.562 15.205 Z" style="fill:#333"></path><rect x="4.50" y="0.88" width="11.32" height="0.88" style="fill:#333"></rect><path d="M6.973 18.255 L6.973 19.240 L13.551 19.240 L13.551 18.255 L6.973 18.255 Z" style="fill:#333"></path><path d="M13.930 14.865 L13.930 21.849 Q13.930 22.458 13.946 22.818 Q13.961 23.177 13.993 23.568 Q13.758 23.365 13.586 23.193 Q13.399 23.036 13.118 22.802 L12.055 21.927 L11.415 22.755 L14.118 24.865 L15.133 24.865 L15.133 14.865 L13.930 14.865 Z" style="fill:#333"></path></g><line x1="81.20" y1="240.00" x2="231.20" y2="240.00" style="stroke:#333;stroke-width:1.5;fill:none;stroke-dasharray:5,5" marker-end="url(#seq-arrow-dashed)"></line><text x="155.32" y="234.00" text-anchor="middle" dominant-baseline="auto" style="fill:#333;font-size:14px">Imaginary unit </text><g style="fill:#333" transform="translate(218.32,228.50) scale(1.000)"><path d="M1.188 10.318 L1.188 17.818 L2.422 17.818 L2.422 10.318 L1.188 10.318 Z M1.812 19.068 Q1.516 19.068 1.297 19.271 Q1.094 19.458 1.094 19.849 Q1.094 20.255 1.297 20.443 Q1.516 20.630 1.812 20.630 Q2.094 20.630 2.312 20.443 Q2.531 20.255 2.531 19.849 Q2.531 19.458 2.312 19.271 Q2.094 19.068 1.812 19.068 Z" style="fill:#333"></path></g><rect x="20.00" y="20.00" width="122.40" height="35.00" rx="3.00" ry="3.00" style="fill:#ECECFF;stroke:#9370DB;stroke-width:1.5"></rect><text x="81.20" y="37.50" text-anchor="middle" dominant-baseline="central" style="fill:#333;font-size:14px">Math Engine</text><rect x="20.00" y="300.00" width="122.40" height="35.00" rx="3.00" ry="3.00" style="fill:#ECECFF;stroke:#9370DB;stroke-width:1.5"></rect><text x="81.20" y="317.50" text-anchor="middle" dominant-baseline="central" style="fill:#333;font-size:14px">Math Engine</text><rect x="186.20" y="20.00" width="90.00" height="35.00" rx="3.00" ry="3.00" style="fill:#ECECFF;stroke:#9370DB;stroke-width:1.5"></rect><text x="231.20" y="37.50" text-anchor="middle" dominant-baseline="central" style="fill:#333;font-size:14px">User</text><rect x="186.20" y="300.00" width="90.00" height="35.00" rx="3.00" ry="3.00" style="fill:#ECECFF;stroke:#9370DB;stroke-width:1.5"></rect><text x="231.20" y="317.50" text-anchor="middle" dominant-baseline="central" style="fill:#333;font-size:14px">User</text></svg>