<?xml version="1.0" encoding="UTF-8"?>
<svg xmlns="http://www.w3.org/2000/svg" viewBox="0 0 446.34 355.00"><defs><marker id="seq-arrow-solid" viewBox="0 0 10 10" refX="9.00" refY="5.00" markerWidth="8.00" markerHeight="8.00" orient="auto"><polygon points="0,0 10,5 0,10" style="fill:#333"></polygon></marker><marker id="seq-arrow-dashed" viewBox="0 0 10 10" refX="9.00" refY="5.00" markerWidth="8.00" markerHeight="8.00" orient="auto"><polygon points="0,0 10,5 0,10" style="fill:#333"></polygon></marker><marker id="seq-arrow-solid-cross" viewBox="0 0 10 10" refX="5.00" refY="5.00" markerWidth="10.00" markerHeight="10.00" orient="auto"><path d="M2,2 L8,8 M2,8 L8,2" style="stroke:#333;stroke-width:1.5;fill:none"></path></marker><marker id="seq-arrow-dashed-cross" viewBox="0 0 10 10" refX="5.00" refY="5.00" markerWidth="10.00" markerHeight="10.00" orient="auto"><path d="M2,2 L8,8 M2,8 L8,2" style="stroke:#333;stroke-width:1.5;fill:none"></path></marker><marker id="seq-arrow-solid-open" viewBox="0 0 10 10" refX="10.00" refY="5.00" markerWidth="8.00" markerHeight="8.00" orient="auto"><polyline points="0,1 10,5 0,9" style="stroke:#333;stroke-width:1.5;fill:none"></polyline></marker><marker id="seq-arrow-dashed-open" viewBox="0 0 10 10" refX="10.00" refY="5.00" markerWidth="8.00" markerHeight="8.00" orient="auto"><polyline points="0,1 10,5 0,9" style="stroke:#333;stroke-width:1.5;fill:none"></polyline></marker></defs><rect x="0.00" y="0.00" width="446.34" height="355.00" style="fill:white;stroke:none"></rect><line x1="81.20" y1="55.00" x2="81.20" y2="300.00" style="stroke:#9370DB;stroke-width:2.0"></line><line x1="381.34" y1="55.00" x2="381.34" y2="300.00" style="stroke:#9370DB;stroke-width:2.0"></line><line x1="381.34" y1="90.00" x2="81.20" y2="90.00" style="stroke:#333;stroke-width:1.5;fill:none" marker-end="url(#seq-arrow-solid)"></line><text x="112.27" y="84.00" text-anchor="middle" dominant-baseline="auto" style="fill:#333;font-size:14px">Solve </text><text x="256.47" y="84.00" text-anchor="middle" dominant-baseline="auto" style="fill:#333;font-size:14px">frac{-b pm sqrt{b^2 - 4ac}}{2a}</text><line x1="81.20" y1="140.00" x2="381.34" y2="140.00" style="stroke:#333;stroke-width:1.5;fill:none;stroke-dasharray:5,5" marker-end="url(#seq-arrow-dashed)"></line><text x="226.47" y="134.00" text-anchor="middle" dominant-baseline="auto" style="fill:#333;font-size:14px">Result is </text><g style="fill:#333" transform="translate(268.47,125.11) scale(1.000)"><g transform="translate(0,-0.431)"><path d="M4.406 9.322 Q2.828 9.322 1.859 8.228 Q0.875 7.103 0.875 4.916 Q0.875 2.728 1.844 1.588 Q2.797 0.431 4.531 0.431 Q5.469 0.431 6.094 0.759 Q6.734 1.088 7.156 1.744 L7.250 1.744 Q7.328 1.463 7.453 1.150 Q7.578 0.822 7.766 0.588 L8.859 0.588 Q8.750 0.947 8.656 1.525 Q8.562 2.088 8.516 2.728 Q8.469 3.369 8.469 3.947 L8.469 7.275 Q8.469 7.775 8.656 7.978 Q8.844 8.181 9.125 8.181 Q9.250 8.181 9.391 8.134 Q9.531 8.103 9.594 8.088 L9.594 9.119 Q9.484 9.181 9.234 9.244 Q8.969 9.322 8.703 9.322 Q8.109 9.322 7.734 9.041 Q7.359 8.744 7.188 8.009 L7.078 8.009 Q6.703 8.556 6.094 8.947 Q5.484 9.322 4.406 9.322 Z M4.641 8.150 Q5.969 8.150 6.516 7.400 Q7.078 6.634 7.078 4.994 L7.078 4.900 Q7.078 3.291 6.547 2.463 Q6.031 1.619 4.625 1.619 Q3.453 1.619 2.891 2.463 Q2.344 3.306 2.344 4.931 Q2.344 6.525 2.875 7.338 Q3.438 8.150 4.641 8.150 Z" style="fill:#333"></path></g></g><line x1="381.34" y1="190.00" x2="81.20" y2="190.00" style="stroke:#333;stroke-width:1.5;fill:none" marker-end="url(#seq-arrow-solid)"></line><text x="217.00" y="184.00" text-anchor="middle" dominant-baseline="auto" style="fill:#333;font-size:14px">Compute </text><g style="fill:#333" transform="translate(250.60,166.80) scale(1.000)"><g transform="translate(0,-1.050)"><path d="M4.391 18.245 L2.219 12.167 L0.812 12.167 L0.812 11.042 L3.109 11.042 L4.906 16.308 L10.219 1.339 L11.359 1.339 L5.422 18.245 L4.391 18.245 Z" style="fill:#333"></path><rect x="9.86" y="1.05" width="18.67" height="1.05" style="fill:#333"></rect><path d="M13.947 14.163 L13.947 13.022 L21.478 13.022 L21.478 14.163 L13.947 14.163 Z" style="fill:#333"></path><path d="M25.642 18.038 L25.642 10.053 Q25.642 9.366 25.658 8.944 Q25.689 8.538 25.721 8.084 Q25.455 8.319 25.252 8.522 Q25.049 8.694 24.721 8.959 L23.502 9.959 L22.767 9.006 L25.861 6.616 L27.033 6.616 L27.033 18.038 L25.642 18.038 Z" style="fill:#333"></path></g></g><line x1="81.20" y1="240.00" x2="381.34" y2="240.00" style="stroke:#333;stroke-width:1.5;fill:none;stroke-dasharray:5,5" marker-end="url(#seq-arrow-dashed)"></line><text x="229.83" y="234.00" text-anchor="middle" dominant-baseline="auto" style="fill:#333;font-size:14px">Imaginary unit </text><g style="fill:#333" transform="translate(292.82,222.20) scale(1.000)"><g transform="translate(0,-0.584)"><path d="M1.359 12.381 L1.359 3.803 L2.766 3.803 L2.766 12.381 L1.359 12.381 Z M2.078 2.381 Q1.734 2.381 1.484 2.163 Q1.250 1.928 1.250 1.491 Q1.250 1.022 1.484 0.819 Q1.734 0.584 2.078 0.584 Q2.406 0.584 2.641 0.819 Q2.891 1.022 2.891 1.491 Q2.891 1.928 2.641 2.163 Q2.406 2.381 2.078 2.381 Z" style="fill:#333"></path></g></g><rect x="20.00" y="20.00" width="122.40" height="35.00" rx="3.00" ry="3.00" style="fill:#ECECFF;stroke:#9370DB;stroke-width:1.5"></rect><text x="81.20" y="37.50" text-anchor="middle" dominant-baseline="central" style="fill:#333;font-size:14px">Math Engine</text><rect x="20.00" y="300.00" width="122.40" height="35.00" rx="3.00" ry="3.00" style="fill:#ECECFF;stroke:#9370DB;stroke-width:1.5"></rect><text x="81.20" y="317.50" text-anchor="middle" dominant-baseline="central" style="fill:#333;font-size:14px">Math Engine</text><rect x="336.34" y="20.00" width="90.00" height="35.00" rx="3.00" ry="3.00" style="fill:#ECECFF;stroke:#9370DB;stroke-width:1.5"></rect><text x="381.34" y="37.50" text-anchor="middle" dominant-baseline="central" style="fill:#333;font-size:14px">User</text><rect x="336.34" y="300.00" width="90.00" height="35.00" rx="3.00" ry="3.00" style="fill:#ECECFF;stroke:#9370DB;stroke-width:1.5"></rect><text x="381.34" y="317.50" text-anchor="middle" dominant-baseline="central" style="fill:#333;font-size:14px">User</text></svg>