<?xml version="1.0" encoding="UTF-8"?>
<svg xmlns="http://www.w3.org/2000/svg" viewBox="0 0 446.34 355.00"><defs><marker id="seq-arrow-solid" viewBox="0 0 10 10" refX="9.00" refY="5.00" markerWidth="8.00" markerHeight="8.00" orient="auto"><polygon points="0,0 10,5 0,10" style="fill:#333"></polygon></marker><marker id="seq-arrow-dashed" viewBox="0 0 10 10" refX="9.00" refY="5.00" markerWidth="8.00" markerHeight="8.00" orient="auto"><polygon points="0,0 10,5 0,10" style="fill:#333"></polygon></marker><marker id="seq-arrow-solid-cross" viewBox="0 0 10 10" refX="5.00" refY="5.00" markerWidth="10.00" markerHeight="10.00" orient="auto"><path d="M2,2 L8,8 M2,8 L8,2" style="stroke:#333;stroke-width:1.5;fill:none"></path></marker><marker id="seq-arrow-dashed-cross" viewBox="0 0 10 10" refX="5.00" refY="5.00" markerWidth="10.00" markerHeight="10.00" orient="auto"><path d="M2,2 L8,8 M2,8 L8,2" style="stroke:#333;stroke-width:1.5;fill:none"></path></marker><marker id="seq-arrow-solid-open" viewBox="0 0 10 10" refX="10.00" refY="5.00" markerWidth="8.00" markerHeight="8.00" orient="auto"><polyline points="0,1 10,5 0,9" style="stroke:#333;stroke-width:1.5;fill:none"></polyline></marker><marker id="seq-arrow-dashed-open" viewBox="0 0 10 10" refX="10.00" refY="5.00" markerWidth="8.00" markerHeight="8.00" orient="auto"><polyline points="0,1 10,5 0,9" style="stroke:#333;stroke-width:1.5;fill:none"></polyline></marker></defs><rect x="0.00" y="0.00" width="446.34" height="355.00" style="fill:white;stroke:none"></rect><line x1="81.20" y1="55.00" x2="81.20" y2="300.00" style="stroke:#9370DB;stroke-width:2.0"></line><line x1="381.34" y1="55.00" x2="381.34" y2="300.00" style="stroke:#9370DB;stroke-width:2.0"></line><line x1="381.34" y1="90.00" x2="81.20" y2="90.00" style="stroke:#333;stroke-width:1.5;fill:none" marker-end="url(#seq-arrow-solid)"></line><text x="196.16" y="84.00" text-anchor="middle" dominant-baseline="auto" style="fill:#333;font-size:14px">Solve </text><g style="fill:#333" transform="translate(221.36,57.42) scale(1.000)"><g transform="translate(0,-0.735)"><path d="M0.562 10.667 L0.562 9.886 L5.734 9.886 L5.734 10.667 L0.562 10.667 Z" style="fill:#333"></path><path d="M9.482 13.432 Q8.779 13.432 8.342 13.182 Q7.904 12.932 7.654 12.573 L7.576 12.573 L7.373 13.323 L6.685 13.323 L6.685 4.964 L7.654 4.964 L7.654 6.995 Q7.654 7.370 7.623 7.698 Q7.623 8.026 7.592 8.214 L7.654 8.214 Q7.904 7.839 8.342 7.589 Q8.779 7.323 9.482 7.323 Q10.576 7.323 11.232 8.104 Q11.904 8.854 11.904 10.370 Q11.904 11.886 11.232 12.667 Q10.560 13.432 9.482 13.432 Z M9.342 12.636 Q10.123 12.636 10.514 12.042 Q10.904 11.464 10.904 10.370 Q10.904 8.136 9.310 8.136 Q8.373 8.136 8.014 8.667 Q7.654 9.214 7.654 10.339 L7.654 10.386 Q7.654 11.479 7.998 12.057 Q8.373 12.636 9.342 12.636 Z" style="fill:#333"></path><path d="M16.547 12.932 L16.547 10.667 L14.360 10.667 L14.360 9.886 L16.547 9.886 L16.547 7.604 L17.344 7.604 L17.344 9.886 L19.531 9.886 L19.531 10.667 L17.344 10.667 L17.344 12.932 L16.547 12.932 Z M14.360 12.932 L14.360 12.151 L19.531 12.151 L19.531 12.932 L14.360 12.932 Z" style="fill:#333"></path><path d="M24.705 13.446 L23.096 8.883 L22.033 8.883 L22.033 8.039 L23.752 8.039 L25.112 11.992 L29.096 0.758 L29.940 0.758 L25.487 13.446 L24.705 13.446 Z" style="fill:#333"></path><rect x="28.44" y="0.74" width="41.78" height="0.74" style="fill:#333"></rect><path d="M34.722 13.787 Q34.019 13.787 33.582 13.537 Q33.144 13.287 32.894 12.927 L32.816 12.927 L32.613 13.677 L31.925 13.677 L31.925 5.318 L32.894 5.318 L32.894 7.349 Q32.894 7.724 32.863 8.052 Q32.863 8.381 32.832 8.568 L32.894 8.568 Q33.144 8.193 33.582 7.943 Q34.019 7.677 34.722 7.677 Q35.816 7.677 36.472 8.459 Q37.144 9.209 37.144 10.724 Q37.144 12.240 36.472 13.021 Q35.800 13.787 34.722 13.787 Z M34.582 12.990 Q35.363 12.990 35.753 12.396 Q36.144 11.818 36.144 10.724 Q36.144 8.490 34.550 8.490 Q33.613 8.490 33.253 9.021 Q32.894 9.568 32.894 10.693 L32.894 10.740 Q32.894 11.834 33.238 12.412 Q33.613 12.990 34.582 12.990 Z" style="fill:#333"></path><path d="M37.689 13.677 L37.689 12.881 L39.736 10.802 Q40.330 10.209 40.752 9.740 Q41.158 9.271 41.361 8.834 Q41.564 8.381 41.564 7.865 Q41.564 7.209 41.189 6.881 Q40.798 6.537 40.189 6.537 Q39.611 6.537 39.173 6.740 Q38.736 6.927 38.298 7.287 L37.767 6.631 Q38.236 6.256 38.830 5.990 Q39.439 5.709 40.189 5.709 Q41.283 5.709 41.923 6.271 Q42.564 6.818 42.564 7.802 Q42.564 8.412 42.298 8.959 Q42.048 9.490 41.595 10.021 Q41.158 10.537 40.548 11.131 L38.908 12.756 L38.908 12.802 L42.877 12.802 L42.877 13.677 L37.689 13.677 Z" style="fill:#333"></path><path d="M45.347 11.021 L45.347 10.240 L50.519 10.240 L50.519 11.021 L45.347 11.021 Z" style="fill:#333"></path><path d="M56.412 13.677 L56.412 11.896 L52.646 11.896 L52.646 11.068 L56.334 5.787 L57.334 5.787 L57.334 11.021 L58.490 11.021 L58.490 11.896 L57.334 11.896 L57.334 13.677 L56.412 13.677 Z M53.584 11.021 L56.412 11.021 L56.412 8.552 Q56.412 7.974 56.412 7.584 Q56.443 7.177 56.459 6.818 L56.412 6.818 Q56.334 7.021 56.193 7.271 Q56.068 7.506 55.943 7.677 L53.584 11.021 Z" style="fill:#333"></path><path d="M60.519 13.787 Q59.722 13.787 59.191 13.365 Q58.660 12.943 58.660 12.037 Q58.660 11.162 59.363 10.693 Q60.050 10.209 61.488 10.162 L62.488 10.131 L62.488 9.771 Q62.488 9.037 62.175 8.756 Q61.863 8.459 61.269 8.459 Q60.816 8.459 60.394 8.599 Q59.972 8.740 59.613 8.912 L59.316 8.193 Q59.707 7.974 60.222 7.834 Q60.754 7.677 61.332 7.677 Q62.410 7.677 62.925 8.162 Q63.441 8.631 63.441 9.662 L63.441 13.677 L62.738 13.677 L62.550 12.834 L62.504 12.834 Q62.113 13.318 61.691 13.552 Q61.269 13.787 60.519 13.787 Z M60.738 13.006 Q61.488 13.006 61.988 12.599 Q62.488 12.177 62.488 11.318 L62.488 10.802 L61.613 10.834 Q60.519 10.865 60.082 11.177 Q59.660 11.490 59.660 12.052 Q59.660 12.537 59.957 12.771 Q60.269 13.006 60.738 13.006 Z" style="fill:#333"></path><path d="M67.094 13.787 Q66.313 13.787 65.703 13.474 Q65.094 13.146 64.750 12.474 Q64.407 11.802 64.407 10.756 Q64.407 9.677 64.766 8.990 Q65.125 8.302 65.750 7.990 Q66.375 7.677 67.157 7.677 Q67.610 7.677 68.032 7.771 Q68.453 7.865 68.719 7.990 L68.422 8.787 Q68.157 8.693 67.797 8.599 Q67.453 8.521 67.141 8.521 Q65.407 8.521 65.407 10.756 Q65.407 11.818 65.828 12.396 Q66.250 12.959 67.078 12.959 Q67.563 12.959 67.938 12.849 Q68.313 12.756 68.610 12.615 L68.610 13.474 Q68.313 13.615 67.953 13.693 Q67.610 13.787 67.094 13.787 Z" style="fill:#333"></path><rect x="-1.50" y="16.60" width="71.72" height="1.05" style="fill:#333"></rect><path d="M30.281 27.209 L30.281 26.412 L32.328 24.334 Q32.922 23.741 33.344 23.272 Q33.750 22.803 33.953 22.366 Q34.156 21.912 34.156 21.397 Q34.156 20.741 33.781 20.412 Q33.391 20.069 32.781 20.069 Q32.203 20.069 31.766 20.272 Q31.328 20.459 30.891 20.819 L30.359 20.162 Q30.828 19.787 31.422 19.522 Q32.031 19.241 32.781 19.241 Q33.875 19.241 34.516 19.803 Q35.156 20.350 35.156 21.334 Q35.156 21.944 34.891 22.491 Q34.641 23.022 34.188 23.553 Q33.750 24.069 33.141 24.662 L31.500 26.287 L31.500 26.334 L35.469 26.334 L35.469 27.209 L30.281 27.209 Z" style="fill:#333"></path><path d="M37.857 27.319 Q37.060 27.319 36.529 26.897 Q35.998 26.475 35.998 25.569 Q35.998 24.694 36.701 24.225 Q37.389 23.741 38.826 23.694 L39.826 23.662 L39.826 23.303 Q39.826 22.569 39.514 22.287 Q39.201 21.991 38.607 21.991 Q38.154 21.991 37.732 22.131 Q37.310 22.272 36.951 22.444 L36.654 21.725 Q37.045 21.506 37.560 21.366 Q38.092 21.209 38.670 21.209 Q39.748 21.209 40.264 21.694 Q40.779 22.162 40.779 23.194 L40.779 27.209 L40.076 27.209 L39.889 26.366 L39.842 26.366 Q39.451 26.850 39.029 27.084 Q38.607 27.319 37.857 27.319 Z M38.076 26.537 Q38.826 26.537 39.326 26.131 Q39.826 25.709 39.826 24.850 L39.826 24.334 L38.951 24.366 Q37.857 24.397 37.420 24.709 Q36.998 25.022 36.998 25.584 Q36.998 26.069 37.295 26.303 Q37.607 26.537 38.076 26.537 Z" style="fill:#333"></path></g></g><line x1="81.20" y1="140.00" x2="381.34" y2="140.00" style="stroke:#333;stroke-width:1.5;fill:none;stroke-dasharray:5,5" marker-end="url(#seq-arrow-dashed)"></line><text x="226.47" y="134.00" text-anchor="middle" dominant-baseline="auto" style="fill:#333;font-size:14px">Result is </text><g style="fill:#333" transform="translate(268.47,125.11) scale(1.000)"><g transform="translate(0,-0.431)"><path d="M4.406 9.322 Q2.828 9.322 1.859 8.228 Q0.875 7.103 0.875 4.916 Q0.875 2.728 1.844 1.588 Q2.797 0.431 4.531 0.431 Q5.469 0.431 6.094 0.759 Q6.734 1.088 7.156 1.744 L7.250 1.744 Q7.328 1.463 7.453 1.150 Q7.578 0.822 7.766 0.588 L8.859 0.588 Q8.750 0.947 8.656 1.525 Q8.562 2.088 8.516 2.728 Q8.469 3.369 8.469 3.947 L8.469 7.275 Q8.469 7.775 8.656 7.978 Q8.844 8.181 9.125 8.181 Q9.250 8.181 9.391 8.134 Q9.531 8.103 9.594 8.088 L9.594 9.119 Q9.484 9.181 9.234 9.244 Q8.969 9.322 8.703 9.322 Q8.109 9.322 7.734 9.041 Q7.359 8.744 7.188 8.009 L7.078 8.009 Q6.703 8.556 6.094 8.947 Q5.484 9.322 4.406 9.322 Z M4.641 8.150 Q5.969 8.150 6.516 7.400 Q7.078 6.634 7.078 4.994 L7.078 4.900 Q7.078 3.291 6.547 2.463 Q6.031 1.619 4.625 1.619 Q3.453 1.619 2.891 2.463 Q2.344 3.306 2.344 4.931 Q2.344 6.525 2.875 7.338 Q3.438 8.150 4.641 8.150 Z" style="fill:#333"></path></g></g><line x1="381.34" y1="190.00" x2="81.20" y2="190.00" style="stroke:#333;stroke-width:1.5;fill:none" marker-end="url(#seq-arrow-solid)"></line><text x="217.00" y="184.00" text-anchor="middle" dominant-baseline="auto" style="fill:#333;font-size:14px">Compute </text><g style="fill:#333" transform="translate(250.60,166.80) scale(1.000)"><g transform="translate(0,-1.050)"><path d="M4.391 18.245 L2.219 12.167 L0.812 12.167 L0.812 11.042 L3.109 11.042 L4.906 16.308 L10.219 1.339 L11.359 1.339 L5.422 18.245 L4.391 18.245 Z" style="fill:#333"></path><rect x="9.86" y="1.05" width="18.67" height="1.05" style="fill:#333"></rect><path d="M13.947 14.163 L13.947 13.022 L21.478 13.022 L21.478 14.163 L13.947 14.163 Z" style="fill:#333"></path><path d="M25.642 18.038 L25.642 10.053 Q25.642 9.366 25.658 8.944 Q25.689 8.538 25.721 8.084 Q25.455 8.319 25.252 8.522 Q25.049 8.694 24.721 8.959 L23.502 9.959 L22.767 9.006 L25.861 6.616 L27.033 6.616 L27.033 18.038 L25.642 18.038 Z" style="fill:#333"></path></g></g><line x1="81.20" y1="240.00" x2="381.34" y2="240.00" style="stroke:#333;stroke-width:1.5;fill:none;stroke-dasharray:5,5" marker-end="url(#seq-arrow-dashed)"></line><text x="229.83" y="234.00" text-anchor="middle" dominant-baseline="auto" style="fill:#333;font-size:14px">Imaginary unit </text><g style="fill:#333" transform="translate(292.82,222.20) scale(1.000)"><g transform="translate(0,-0.584)"><path d="M1.359 12.381 L1.359 3.803 L2.766 3.803 L2.766 12.381 L1.359 12.381 Z M2.078 2.381 Q1.734 2.381 1.484 2.163 Q1.250 1.928 1.250 1.491 Q1.250 1.022 1.484 0.819 Q1.734 0.584 2.078 0.584 Q2.406 0.584 2.641 0.819 Q2.891 1.022 2.891 1.491 Q2.891 1.928 2.641 2.163 Q2.406 2.381 2.078 2.381 Z" style="fill:#333"></path></g></g><rect x="20.00" y="20.00" width="122.40" height="35.00" rx="3.00" ry="3.00" style="fill:#ECECFF;stroke:#9370DB;stroke-width:1.5"></rect><text x="81.20" y="37.50" text-anchor="middle" dominant-baseline="central" style="fill:#333;font-size:14px">Math Engine</text><rect x="20.00" y="300.00" width="122.40" height="35.00" rx="3.00" ry="3.00" style="fill:#ECECFF;stroke:#9370DB;stroke-width:1.5"></rect><text x="81.20" y="317.50" text-anchor="middle" dominant-baseline="central" style="fill:#333;font-size:14px">Math Engine</text><rect x="336.34" y="20.00" width="90.00" height="35.00" rx="3.00" ry="3.00" style="fill:#ECECFF;stroke:#9370DB;stroke-width:1.5"></rect><text x="381.34" y="37.50" text-anchor="middle" dominant-baseline="central" style="fill:#333;font-size:14px">User</text><rect x="336.34" y="300.00" width="90.00" height="35.00" rx="3.00" ry="3.00" style="fill:#ECECFF;stroke:#9370DB;stroke-width:1.5"></rect><text x="381.34" y="317.50" text-anchor="middle" dominant-baseline="central" style="fill:#333;font-size:14px">User</text></svg>