<?xml version="1.0" encoding="UTF-8"?>
<svg xmlns="http://www.w3.org/2000/svg" viewBox="0 0 296.20 355.00"><defs><marker id="seq-arrow-solid" viewBox="0 0 10 10" refX="9.00" refY="5.00" markerWidth="8.00" markerHeight="8.00" orient="auto"><polygon points="0,0 10,5 0,10" style="fill:#333"></polygon></marker><marker id="seq-arrow-dashed" viewBox="0 0 10 10" refX="9.00" refY="5.00" markerWidth="8.00" markerHeight="8.00" orient="auto"><polygon points="0,0 10,5 0,10" style="fill:#333"></polygon></marker><marker id="seq-arrow-solid-cross" viewBox="0 0 10 10" refX="5.00" refY="5.00" markerWidth="10.00" markerHeight="10.00" orient="auto"><path d="M2,2 L8,8 M2,8 L8,2" style="stroke:#333;stroke-width:1.5;fill:none"></path></marker><marker id="seq-arrow-dashed-cross" viewBox="0 0 10 10" refX="5.00" refY="5.00" markerWidth="10.00" markerHeight="10.00" orient="auto"><path d="M2,2 L8,8 M2,8 L8,2" style="stroke:#333;stroke-width:1.5;fill:none"></path></marker><marker id="seq-arrow-solid-open" viewBox="0 0 10 10" refX="10.00" refY="5.00" markerWidth="8.00" markerHeight="8.00" orient="auto"><polyline points="0,1 10,5 0,9" style="stroke:#333;stroke-width:1.5;fill:none"></polyline></marker><marker id="seq-arrow-dashed-open" viewBox="0 0 10 10" refX="10.00" refY="5.00" markerWidth="8.00" markerHeight="8.00" orient="auto"><polyline points="0,1 10,5 0,9" style="stroke:#333;stroke-width:1.5;fill:none"></polyline></marker></defs><rect x="0.00" y="0.00" width="296.20" height="355.00" style="fill:white;stroke:none"></rect><line x1="81.20" y1="55.00" x2="81.20" y2="300.00" style="stroke:#9370DB;stroke-width:2.0"></line><line x1="231.20" y1="55.00" x2="231.20" y2="300.00" style="stroke:#9370DB;stroke-width:2.0"></line><line x1="231.20" y1="90.00" x2="81.20" y2="90.00" style="stroke:#333;stroke-width:1.5;fill:none" marker-end="url(#seq-arrow-solid)"></line><text x="136.45" y="84.00" text-anchor="middle" dominant-baseline="auto" style="fill:#333;font-size:14px">Solve </text><g style="fill:#333" transform="translate(161.65,71.06) scale(1.000)"><g transform="translate(0,-0.735)"><path d="M0.562 10.667 L0.562 9.886 L5.734 9.886 L5.734 10.667 L0.562 10.667 Z" style="fill:#333"></path><path d="M7.019 13.432 Q6.316 13.432 5.878 13.182 Q5.441 12.932 5.191 12.573 L5.113 12.573 L4.910 13.323 L4.222 13.323 L4.222 4.964 L5.191 4.964 L5.191 6.995 Q5.191 7.370 5.160 7.698 Q5.160 8.026 5.128 8.214 L5.191 8.214 Q5.441 7.839 5.878 7.589 Q6.316 7.323 7.019 7.323 Q8.113 7.323 8.769 8.104 Q9.441 8.854 9.441 10.370 Q9.441 11.886 8.769 12.667 Q8.097 13.432 7.019 13.432 Z M6.878 12.636 Q7.660 12.636 8.050 12.042 Q8.441 11.464 8.441 10.370 Q8.441 8.136 6.847 8.136 Q5.910 8.136 5.550 8.667 Q5.191 9.214 5.191 10.339 L5.191 10.386 Q5.191 11.479 5.535 12.057 Q5.910 12.636 6.878 12.636 Z" style="fill:#333"></path><path d="M10.634 12.932 L10.634 10.667 L8.447 10.667 L8.447 9.886 L10.634 9.886 L10.634 7.604 L11.431 7.604 L11.431 9.886 L13.618 9.886 L13.618 10.667 L11.431 10.667 L11.431 12.932 L10.634 12.932 Z M8.447 12.932 L8.447 12.151 L13.618 12.151 L13.618 12.932 L8.447 12.932 Z" style="fill:#333"></path><path d="M15.524 13.446 L13.914 8.883 L12.852 8.883 L12.852 8.039 L14.570 8.039 L15.930 11.992 L19.914 0.758 L20.758 0.758 L16.305 13.446 L15.524 13.446 Z" style="fill:#333"></path><rect x="16.24" y="0.74" width="21.16" height="0.74" style="fill:#333"></rect><path d="M21.442 13.787 Q20.739 13.787 20.301 13.537 Q19.864 13.287 19.614 12.927 L19.535 12.927 L19.332 13.677 L18.645 13.677 L18.645 5.318 L19.614 5.318 L19.614 7.349 Q19.614 7.724 19.582 8.052 Q19.582 8.381 19.551 8.568 L19.614 8.568 Q19.864 8.193 20.301 7.943 Q20.739 7.677 21.442 7.677 Q22.535 7.677 23.192 8.459 Q23.864 9.209 23.864 10.724 Q23.864 12.240 23.192 13.021 Q22.520 13.787 21.442 13.787 Z M21.301 12.990 Q22.082 12.990 22.473 12.396 Q22.864 11.818 22.864 10.724 Q22.864 8.490 21.270 8.490 Q20.332 8.490 19.973 9.021 Q19.614 9.568 19.614 10.693 L19.614 10.740 Q19.614 11.834 19.957 12.412 Q20.332 12.990 21.301 12.990 Z" style="fill:#333"></path><path d="M22.869 11.021 L22.869 10.240 L28.041 10.240 L28.041 11.021 L22.869 11.021 Z" style="fill:#333"></path><path d="M30.665 13.677 L30.665 11.896 L26.900 11.896 L26.900 11.068 L30.587 5.787 L31.587 5.787 L31.587 11.021 L32.743 11.021 L32.743 11.896 L31.587 11.896 L31.587 13.677 L30.665 13.677 Z M27.837 11.021 L30.665 11.021 L30.665 8.552 Q30.665 7.974 30.665 7.584 Q30.696 7.177 30.712 6.818 L30.665 6.818 Q30.587 7.021 30.446 7.271 Q30.321 7.506 30.196 7.677 L27.837 11.021 Z" style="fill:#333"></path><path d="M32.309 13.787 Q31.512 13.787 30.981 13.365 Q30.450 12.943 30.450 12.037 Q30.450 11.162 31.153 10.693 Q31.840 10.209 33.278 10.162 L34.278 10.131 L34.278 9.771 Q34.278 9.037 33.965 8.756 Q33.653 8.459 33.059 8.459 Q32.606 8.459 32.184 8.599 Q31.762 8.740 31.403 8.912 L31.106 8.193 Q31.497 7.974 32.012 7.834 Q32.543 7.677 33.122 7.677 Q34.200 7.677 34.715 8.162 Q35.231 8.631 35.231 9.662 L35.231 13.677 L34.528 13.677 L34.340 12.834 L34.293 12.834 Q33.903 13.318 33.481 13.552 Q33.059 13.787 32.309 13.787 Z M32.528 13.006 Q33.278 13.006 33.778 12.599 Q34.278 12.177 34.278 11.318 L34.278 10.802 L33.403 10.834 Q32.309 10.865 31.872 11.177 Q31.450 11.490 31.450 12.052 Q31.450 12.537 31.747 12.771 Q32.059 13.006 32.528 13.006 Z" style="fill:#333"></path><path d="M36.468 13.787 Q35.687 13.787 35.077 13.474 Q34.468 13.146 34.124 12.474 Q33.780 11.802 33.780 10.756 Q33.780 9.677 34.140 8.990 Q34.499 8.302 35.124 7.990 Q35.749 7.677 36.530 7.677 Q36.984 7.677 37.405 7.771 Q37.827 7.865 38.093 7.990 L37.796 8.787 Q37.530 8.693 37.171 8.599 Q36.827 8.521 36.515 8.521 Q34.780 8.521 34.780 10.756 Q34.780 11.818 35.202 12.396 Q35.624 12.959 36.452 12.959 Q36.937 12.959 37.312 12.849 Q37.687 12.756 37.984 12.615 L37.984 13.474 Q37.687 13.615 37.327 13.693 Q36.984 13.787 36.468 13.787 Z" style="fill:#333"></path><rect x="0.00" y="16.60" width="37.40" height="1.05" style="fill:#333"></rect><path d="M15.531 27.209 L15.531 26.412 L17.578 24.334 Q18.172 23.741 18.594 23.272 Q19.000 22.803 19.203 22.366 Q19.406 21.912 19.406 21.397 Q19.406 20.741 19.031 20.412 Q18.641 20.069 18.031 20.069 Q17.453 20.069 17.016 20.272 Q16.578 20.459 16.141 20.819 L15.609 20.162 Q16.078 19.787 16.672 19.522 Q17.281 19.241 18.031 19.241 Q19.125 19.241 19.766 19.803 Q20.406 20.350 20.406 21.334 Q20.406 21.944 20.141 22.491 Q19.891 23.022 19.438 23.553 Q19.000 24.069 18.391 24.662 L16.750 26.287 L16.750 26.334 L20.719 26.334 L20.719 27.209 L15.531 27.209 Z" style="fill:#333"></path><path d="M20.644 27.319 Q19.847 27.319 19.316 26.897 Q18.785 26.475 18.785 25.569 Q18.785 24.694 19.488 24.225 Q20.175 23.741 21.613 23.694 L22.613 23.662 L22.613 23.303 Q22.613 22.569 22.300 22.287 Q21.988 21.991 21.394 21.991 Q20.941 21.991 20.519 22.131 Q20.097 22.272 19.738 22.444 L19.441 21.725 Q19.831 21.506 20.347 21.366 Q20.878 21.209 21.456 21.209 Q22.535 21.209 23.050 21.694 Q23.566 22.162 23.566 23.194 L23.566 27.209 L22.863 27.209 L22.675 26.366 L22.628 26.366 Q22.238 26.850 21.816 27.084 Q21.394 27.319 20.644 27.319 Z M20.863 26.537 Q21.613 26.537 22.113 26.131 Q22.613 25.709 22.613 24.850 L22.613 24.334 L21.738 24.366 Q20.644 24.397 20.206 24.709 Q19.785 25.022 19.785 25.584 Q19.785 26.069 20.081 26.303 Q20.394 26.537 20.863 26.537 Z" style="fill:#333"></path></g></g><line x1="81.20" y1="140.00" x2="231.20" y2="140.00" style="stroke:#333;stroke-width:1.5;fill:none;stroke-dasharray:5,5" marker-end="url(#seq-arrow-dashed)"></line><text x="153.68" y="134.00" text-anchor="middle" dominant-baseline="auto" style="fill:#333;font-size:14px">Result is </text><g style="fill:#333" transform="translate(195.68,125.27) scale(1.000)"><g transform="translate(0,-0.431)"><path d="M4.406 9.322 Q2.828 9.322 1.859 8.228 Q0.875 7.103 0.875 4.916 Q0.875 2.728 1.844 1.588 Q2.797 0.431 4.531 0.431 Q5.469 0.431 6.094 0.759 Q6.734 1.088 7.156 1.744 L7.250 1.744 Q7.328 1.463 7.453 1.150 Q7.578 0.822 7.766 0.588 L8.859 0.588 Q8.750 0.947 8.656 1.525 Q8.562 2.088 8.516 2.728 Q8.469 3.369 8.469 3.947 L8.469 7.275 Q8.469 7.775 8.656 7.978 Q8.844 8.181 9.125 8.181 Q9.250 8.181 9.391 8.134 Q9.531 8.103 9.594 8.088 L9.594 9.119 Q9.484 9.181 9.234 9.244 Q8.969 9.322 8.703 9.322 Q8.109 9.322 7.734 9.041 Q7.359 8.744 7.188 8.009 L7.078 8.009 Q6.703 8.556 6.094 8.947 Q5.484 9.322 4.406 9.322 Z M4.641 8.150 Q5.969 8.150 6.516 7.400 Q7.078 6.634 7.078 4.994 L7.078 4.900 Q7.078 3.291 6.547 2.463 Q6.031 1.619 4.625 1.619 Q3.453 1.619 2.891 2.463 Q2.344 3.306 2.344 4.931 Q2.344 6.525 2.875 7.338 Q3.438 8.150 4.641 8.150 Z" style="fill:#333"></path></g></g><line x1="231.20" y1="190.00" x2="81.20" y2="190.00" style="stroke:#333;stroke-width:1.5;fill:none" marker-end="url(#seq-arrow-solid)"></line><text x="146.71" y="184.00" text-anchor="middle" dominant-baseline="auto" style="fill:#333;font-size:14px">Compute </text><g style="fill:#333" transform="translate(180.31,167.01) scale(1.000)"><g transform="translate(0,-1.050)"><path d="M4.391 18.245 L2.219 12.167 L0.812 12.167 L0.812 11.042 L3.109 11.042 L4.906 16.308 L10.219 1.339 L11.359 1.339 L5.422 18.245 L4.391 18.245 Z" style="fill:#333"></path><rect x="5.41" y="1.05" width="13.58" height="1.05" style="fill:#333"></rect><path d="M8.318 14.163 L8.318 13.022 L15.849 13.022 L15.849 14.163 L8.318 14.163 Z" style="fill:#333"></path><path d="M16.494 18.038 L16.494 10.053 Q16.494 9.366 16.510 8.944 Q16.541 8.538 16.572 8.084 Q16.307 8.319 16.104 8.522 Q15.901 8.694 15.572 8.959 L14.354 9.959 L13.619 9.006 L16.713 6.616 L17.885 6.616 L17.885 18.038 L16.494 18.038 Z" style="fill:#333"></path></g></g><line x1="81.20" y1="240.00" x2="231.20" y2="240.00" style="stroke:#333;stroke-width:1.5;fill:none;stroke-dasharray:5,5" marker-end="url(#seq-arrow-dashed)"></line><text x="155.14" y="234.00" text-anchor="middle" dominant-baseline="auto" style="fill:#333;font-size:14px">Imaginary unit </text><g style="fill:#333" transform="translate(218.14,222.20) scale(1.000)"><g transform="translate(0,-0.584)"><path d="M1.359 12.381 L1.359 3.803 L2.766 3.803 L2.766 12.381 L1.359 12.381 Z M2.078 2.381 Q1.734 2.381 1.484 2.163 Q1.250 1.928 1.250 1.491 Q1.250 1.022 1.484 0.819 Q1.734 0.584 2.078 0.584 Q2.406 0.584 2.641 0.819 Q2.891 1.022 2.891 1.491 Q2.891 1.928 2.641 2.163 Q2.406 2.381 2.078 2.381 Z" style="fill:#333"></path></g></g><rect x="20.00" y="20.00" width="122.40" height="35.00" rx="3.00" ry="3.00" style="fill:#ECECFF;stroke:#9370DB;stroke-width:1.5"></rect><text x="81.20" y="37.50" text-anchor="middle" dominant-baseline="central" style="fill:#333;font-size:14px">Math Engine</text><rect x="20.00" y="300.00" width="122.40" height="35.00" rx="3.00" ry="3.00" style="fill:#ECECFF;stroke:#9370DB;stroke-width:1.5"></rect><text x="81.20" y="317.50" text-anchor="middle" dominant-baseline="central" style="fill:#333;font-size:14px">Math Engine</text><rect x="186.20" y="20.00" width="90.00" height="35.00" rx="3.00" ry="3.00" style="fill:#ECECFF;stroke:#9370DB;stroke-width:1.5"></rect><text x="231.20" y="37.50" text-anchor="middle" dominant-baseline="central" style="fill:#333;font-size:14px">User</text><rect x="186.20" y="300.00" width="90.00" height="35.00" rx="3.00" ry="3.00" style="fill:#ECECFF;stroke:#9370DB;stroke-width:1.5"></rect><text x="231.20" y="317.50" text-anchor="middle" dominant-baseline="central" style="fill:#333;font-size:14px">User</text></svg>