<?xml version="1.0" encoding="UTF-8"?>
<svg xmlns="http://www.w3.org/2000/svg" viewBox="0 0 430.00 755.00"><defs><marker id="seq-arrow-solid" viewBox="0 0 10 10" refX="9.00" refY="5.00" markerWidth="8.00" markerHeight="8.00" orient="auto"><polygon points="0,0 10,5 0,10" style="fill:#333"></polygon></marker><marker id="seq-arrow-dashed" viewBox="0 0 10 10" refX="9.00" refY="5.00" markerWidth="8.00" markerHeight="8.00" orient="auto"><polygon points="0,0 10,5 0,10" style="fill:#333"></polygon></marker><marker id="seq-arrow-solid-cross" viewBox="0 0 10 10" refX="5.00" refY="5.00" markerWidth="10.00" markerHeight="10.00" orient="auto"><path d="M2,2 L8,8 M2,8 L8,2" style="stroke:#333;stroke-width:1.5;fill:none"></path></marker><marker id="seq-arrow-dashed-cross" viewBox="0 0 10 10" refX="5.00" refY="5.00" markerWidth="10.00" markerHeight="10.00" orient="auto"><path d="M2,2 L8,8 M2,8 L8,2" style="stroke:#333;stroke-width:1.5;fill:none"></path></marker><marker id="seq-arrow-solid-open" viewBox="0 0 10 10" refX="10.00" refY="5.00" markerWidth="8.00" markerHeight="8.00" orient="auto"><polyline points="0,1 10,5 0,9" style="stroke:#333;stroke-width:1.5;fill:none"></polyline></marker><marker id="seq-arrow-dashed-open" viewBox="0 0 10 10" refX="10.00" refY="5.00" markerWidth="8.00" markerHeight="8.00" orient="auto"><polyline points="0,1 10,5 0,9" style="stroke:#333;stroke-width:1.5;fill:none"></polyline></marker></defs><rect x="0.00" y="0.00" width="430.00" height="755.00" style="fill:white;stroke:none"></rect><line x1="65.00" y1="65.00" x2="65.00" y2="690.00" style="stroke:#9370DB;stroke-width:2.0"></line><line x1="215.00" y1="65.00" x2="215.00" y2="690.00" style="stroke:#9370DB;stroke-width:2.0"></line><line x1="365.00" y1="65.00" x2="365.00" y2="690.00" style="stroke:#9370DB;stroke-width:2.0"></line><line x1="65.00" y1="115.00" x2="215.00" y2="115.00" style="stroke:#333;stroke-width:1.5;fill:none" marker-end="url(#seq-arrow-solid)"></line><text x="140.00" y="109.00" text-anchor="middle" dominant-baseline="auto" style="fill:#333;font-size:14px">Lookup</text><line x1="215.00" y1="190.00" x2="65.00" y2="190.00" style="stroke:#333;stroke-width:1.5;fill:none;stroke-dasharray:5,5" marker-end="url(#seq-arrow-dashed)"></line><text x="140.00" y="184.00" text-anchor="middle" dominant-baseline="auto" style="fill:#333;font-size:14px">Value</text><line x1="65.00" y1="315.00" x2="365.00" y2="315.00" style="stroke:#333;stroke-width:1.5;fill:none" marker-end="url(#seq-arrow-solid)"></line><text x="215.00" y="309.00" text-anchor="middle" dominant-baseline="auto" style="fill:#333;font-size:14px">Primary read</text><line x1="65.00" y1="415.00" x2="215.00" y2="415.00" style="stroke:#333;stroke-width:1.5;fill:none" marker-end="url(#seq-arrow-solid)"></line><text x="140.00" y="409.00" text-anchor="middle" dominant-baseline="auto" style="fill:#333;font-size:14px">Negative cache check</text><rect x="31.00" y="277.50" width="368.00" height="212.50" rx="3.00" ry="3.00" style="fill:none;stroke:#9370DB;stroke-width:1.5;stroke-dasharray:5,5"></rect><rect x="31.00" y="277.50" width="41.20" height="20.00" rx="6.00" ry="6.00" style="fill:#ECECFF;stroke:#9370DB;stroke-width:1.5"></rect><text x="39.00" y="291.50" text-anchor="start" dominant-baseline="auto" style="fill:#333;font-size:13px;font-weight:bold">par</text><text x="215.00" y="291.50" text-anchor="middle" dominant-baseline="auto" style="fill:#333;font-size:13px">[Fan out lookups]</text><line x1="31.00" y1="365.00" x2="399.00" y2="365.00" style="stroke:#9370DB;stroke-width:1.5;stroke-dasharray:5,5"></line><line x1="365.00" y1="490.00" x2="65.00" y2="490.00" style="stroke:#333;stroke-width:1.5;fill:none;stroke-dasharray:5,5" marker-end="url(#seq-arrow-dashed)"></line><text x="215.00" y="484.00" text-anchor="middle" dominant-baseline="auto" style="fill:#333;font-size:14px">Row</text><line x1="65.00" y1="565.00" x2="215.00" y2="565.00" style="stroke:#333;stroke-width:1.5;fill:none" marker-end="url(#seq-arrow-solid)"></line><text x="140.00" y="559.00" text-anchor="middle" dominant-baseline="auto" style="fill:#333;font-size:14px">Set value</text><rect x="31.00" y="527.50" width="368.00" height="112.50" rx="3.00" ry="3.00" style="fill:none;stroke:#9370DB;stroke-width:1.5;stroke-dasharray:5,5"></rect><rect x="31.00" y="527.50" width="41.20" height="20.00" rx="6.00" ry="6.00" style="fill:#ECECFF;stroke:#9370DB;stroke-width:1.5"></rect><text x="39.00" y="541.50" text-anchor="start" dominant-baseline="auto" style="fill:#333;font-size:13px;font-weight:bold">opt</text><text x="215.00" y="541.50" text-anchor="middle" dominant-baseline="auto" style="fill:#333;font-size:13px">[Refresh cache]</text><rect x="23.00" y="152.50" width="384.00" height="512.50" rx="3.00" ry="3.00" style="fill:none;stroke:#9370DB;stroke-width:1.5;stroke-dasharray:5,5"></rect><rect x="23.00" y="152.50" width="41.20" height="20.00" rx="6.00" ry="6.00" style="fill:#ECECFF;stroke:#9370DB;stroke-width:1.5"></rect><text x="31.00" y="166.50" text-anchor="start" dominant-baseline="auto" style="fill:#333;font-size:13px;font-weight:bold">alt</text><text x="215.00" y="166.50" text-anchor="middle" dominant-baseline="auto" style="fill:#333;font-size:13px">[cache hit]</text><line x1="23.00" y1="240.00" x2="407.00" y2="240.00" style="stroke:#9370DB;stroke-width:1.5;stroke-dasharray:5,5"></line><text x="215.00" y="255.00" text-anchor="middle" dominant-baseline="central" style="fill:#333;font-size:13px">[cache miss]</text><rect x="15.00" y="77.50" width="400.00" height="612.50" rx="3.00" ry="3.00" style="fill:none;stroke:#9370DB;stroke-width:1.5;stroke-dasharray:5,5"></rect><rect x="15.00" y="77.50" width="49.60" height="20.00" rx="6.00" ry="6.00" style="fill:#ECECFF;stroke:#9370DB;stroke-width:1.5"></rect><text x="23.00" y="91.50" text-anchor="start" dominant-baseline="auto" style="fill:#333;font-size:13px;font-weight:bold">loop</text><text x="215.00" y="91.50" text-anchor="middle" dominant-baseline="auto" style="fill:#333;font-size:13px">[Until done]</text><rect x="20.00" y="20.00" width="90.00" height="35.00" rx="3.00" ry="3.00" style="fill:#ECECFF;stroke:#9370DB;stroke-width:1.5"></rect><text x="65.00" y="37.50" text-anchor="middle" dominant-baseline="central" style="fill:#333;font-size:14px">Worker</text><rect x="20.00" y="700.00" width="90.00" height="35.00" rx="3.00" ry="3.00" style="fill:#ECECFF;stroke:#9370DB;stroke-width:1.5"></rect><text x="65.00" y="717.50" text-anchor="middle" dominant-baseline="central" style="fill:#333;font-size:14px">Worker</text><rect x="170.00" y="20.00" width="90.00" height="35.00" rx="3.00" ry="3.00" style="fill:#ECECFF;stroke:#9370DB;stroke-width:1.5"></rect><text x="215.00" y="37.50" text-anchor="middle" dominant-baseline="central" style="fill:#333;font-size:14px">Cache</text><rect x="170.00" y="700.00" width="90.00" height="35.00" rx="3.00" ry="3.00" style="fill:#ECECFF;stroke:#9370DB;stroke-width:1.5"></rect><text x="215.00" y="717.50" text-anchor="middle" dominant-baseline="central" style="fill:#333;font-size:14px">Cache</text><rect x="320.00" y="20.00" width="90.00" height="35.00" rx="3.00" ry="3.00" style="fill:#ECECFF;stroke:#9370DB;stroke-width:1.5"></rect><text x="365.00" y="37.50" text-anchor="middle" dominant-baseline="central" style="fill:#333;font-size:14px">DB</text><rect x="320.00" y="700.00" width="90.00" height="35.00" rx="3.00" ry="3.00" style="fill:#ECECFF;stroke:#9370DB;stroke-width:1.5"></rect><text x="365.00" y="717.50" text-anchor="middle" dominant-baseline="central" style="fill:#333;font-size:14px">DB</text></svg>