<?xml version="1.0" encoding="UTF-8"?>
<svg xmlns="http://www.w3.org/2000/svg" viewBox="0 0 280.00 455.00"><defs><marker id="seq-arrow-solid" viewBox="0 0 10 10" refX="9.00" refY="5.00" markerWidth="8.00" markerHeight="8.00" orient="auto"><polygon points="0,0 10,5 0,10" style="fill:#333"></polygon></marker><marker id="seq-arrow-dashed" viewBox="0 0 10 10" refX="9.00" refY="5.00" markerWidth="8.00" markerHeight="8.00" orient="auto"><polygon points="0,0 10,5 0,10" style="fill:#333"></polygon></marker><marker id="seq-arrow-solid-cross" viewBox="0 0 10 10" refX="5.00" refY="5.00" markerWidth="10.00" markerHeight="10.00" orient="auto"><path d="M2,2 L8,8 M2,8 L8,2" style="stroke:#333;stroke-width:1.5;fill:none"></path></marker><marker id="seq-arrow-dashed-cross" viewBox="0 0 10 10" refX="5.00" refY="5.00" markerWidth="10.00" markerHeight="10.00" orient="auto"><path d="M2,2 L8,8 M2,8 L8,2" style="stroke:#333;stroke-width:1.5;fill:none"></path></marker><marker id="seq-arrow-solid-open" viewBox="0 0 10 10" refX="10.00" refY="5.00" markerWidth="8.00" markerHeight="8.00" orient="auto"><polyline points="0,1 10,5 0,9" style="stroke:#333;stroke-width:1.5;fill:none"></polyline></marker><marker id="seq-arrow-dashed-open" viewBox="0 0 10 10" refX="10.00" refY="5.00" markerWidth="8.00" markerHeight="8.00" orient="auto"><polyline points="0,1 10,5 0,9" style="stroke:#333;stroke-width:1.5;fill:none"></polyline></marker></defs><rect x="0.00" y="0.00" width="280.00" height="455.00" style="fill:white;stroke:none"></rect><line x1="65.00" y1="65.00" x2="65.00" y2="365.00" style="stroke:#9370DB;stroke-width:2.0;stroke-dasharray:5,5"></line><line x1="215.00" y1="65.00" x2="215.00" y2="365.00" style="stroke:#9370DB;stroke-width:2.0;stroke-dasharray:5,5"></line><rect x="15.00" y="115.00" width="250.00" height="75.00" rx="3.00" ry="3.00" style="fill:rgb(220, 240, 255);fill-opacity:0.2;stroke:none;stroke-width:1.5"></rect><line x1="65.00" y1="115.00" x2="215.00" y2="115.00" style="stroke:#333;stroke-width:1.5;fill:none" marker-end="url(#seq-arrow-solid)"></line><text x="140.00" y="109.00" text-anchor="middle" dominant-baseline="auto" style="fill:#333;font-size:14px">Inside the blue zone</text><line x1="215.00" y1="165.00" x2="65.00" y2="165.00" style="stroke:#333;stroke-width:1.5;fill:none;stroke-dasharray:5,5" marker-end="url(#seq-arrow-dashed)"></line><text x="140.00" y="159.00" text-anchor="middle" dominant-baseline="auto" style="fill:#333;font-size:14px">Yes I am</text><rect x="15.00" y="265.00" width="250.00" height="75.00" rx="3.00" ry="3.00" style="fill:rgba(255, 220, 220, 0.6);stroke:none;stroke-width:1.5"></rect><line x1="65.00" y1="265.00" x2="215.00" y2="265.00" style="stroke:#333;stroke-width:1.5;fill:none" marker-end="url(#seq-arrow-solid)"></line><text x="140.00" y="259.00" text-anchor="middle" dominant-baseline="auto" style="fill:#333;font-size:14px">Inside the pink zone</text><line x1="215.00" y1="315.00" x2="65.00" y2="315.00" style="stroke:#333;stroke-width:1.5;fill:none;stroke-dasharray:5,5" marker-end="url(#seq-arrow-dashed)"></line><text x="140.00" y="309.00" text-anchor="middle" dominant-baseline="auto" style="fill:#333;font-size:14px">Confirmed</text><rect x="20.00" y="20.00" width="90.00" height="35.00" rx="3.00" ry="3.00" style="fill:#ECECFF;stroke:#9370DB;stroke-width:1.5"></rect><text x="65.00" y="37.50" text-anchor="middle" dominant-baseline="central" style="fill:#333;font-size:14px">A</text><rect x="20.00" y="400.00" width="90.00" height="35.00" rx="3.00" ry="3.00" style="fill:#ECECFF;stroke:#9370DB;stroke-width:1.5"></rect><text x="65.00" y="417.50" text-anchor="middle" dominant-baseline="central" style="fill:#333;font-size:14px">A</text><rect x="170.00" y="20.00" width="90.00" height="35.00" rx="3.00" ry="3.00" style="fill:#ECECFF;stroke:#9370DB;stroke-width:1.5"></rect><text x="215.00" y="37.50" text-anchor="middle" dominant-baseline="central" style="fill:#333;font-size:14px">B</text><rect x="170.00" y="400.00" width="90.00" height="35.00" rx="3.00" ry="3.00" style="fill:#ECECFF;stroke:#9370DB;stroke-width:1.5"></rect><text x="215.00" y="417.50" text-anchor="middle" dominant-baseline="central" style="fill:#333;font-size:14px">B</text></svg>