<?xml version="1.0" encoding="UTF-8"?>
<svg xmlns="http://www.w3.org/2000/svg" viewBox="0 0 256.80 255.00"><defs><marker id="seq-arrow-solid" viewBox="0 0 10 10" refX="9.00" refY="5.00" markerWidth="8.00" markerHeight="8.00" orient="auto"><polygon points="0,0 10,5 0,10" style="fill:#333"></polygon></marker><marker id="seq-arrow-dashed" viewBox="0 0 10 10" refX="9.00" refY="5.00" markerWidth="8.00" markerHeight="8.00" orient="auto"><polygon points="0,0 10,5 0,10" style="fill:#333"></polygon></marker><marker id="seq-arrow-solid-cross" viewBox="0 0 10 10" refX="5.00" refY="5.00" markerWidth="10.00" markerHeight="10.00" orient="auto"><path d="M2,2 L8,8 M2,8 L8,2" style="stroke:#333;stroke-width:1.5;fill:none"></path></marker><marker id="seq-arrow-dashed-cross" viewBox="0 0 10 10" refX="5.00" refY="5.00" markerWidth="10.00" markerHeight="10.00" orient="auto"><path d="M2,2 L8,8 M2,8 L8,2" style="stroke:#333;stroke-width:1.5;fill:none"></path></marker><marker id="seq-arrow-solid-open" viewBox="0 0 10 10" refX="10.00" refY="5.00" markerWidth="8.00" markerHeight="8.00" orient="auto"><polyline points="0,1 10,5 0,9" style="stroke:#333;stroke-width:1.5;fill:none"></polyline></marker><marker id="seq-arrow-dashed-open" viewBox="0 0 10 10" refX="10.00" refY="5.00" markerWidth="8.00" markerHeight="8.00" orient="auto"><polyline points="0,1 10,5 0,9" style="stroke:#333;stroke-width:1.5;fill:none"></polyline></marker></defs><rect x="0.00" y="0.00" width="256.80" height="255.00" style="fill:white;stroke:none"></rect><line x1="191.80" y1="65.00" x2="191.80" y2="165.00" style="stroke:#9370DB;stroke-width:2.0;stroke-dasharray:5,5"></line><path d="M191.80,90.00 C241.80,90.00 241.80,130.00 191.80,130.00" style="stroke:#333;stroke-width:1.5;fill:none" marker-end="url(#seq-arrow-solid)"></path><text x="187.80" y="110.00" text-anchor="end" dominant-baseline="central" style="fill:#333;font-size:14px">Recursive step</text><path d="M191.80,140.00 C241.80,140.00 241.80,180.00 191.80,180.00" style="stroke:#333;stroke-width:1.5;fill:none;stroke-dasharray:5,5" marker-end="url(#seq-arrow-dashed)"></path><text x="187.80" y="160.00" text-anchor="end" dominant-baseline="central" style="fill:#333;font-size:14px">Internal callback</text><rect x="146.80" y="20.00" width="90.00" height="35.00" rx="3.00" ry="3.00" style="fill:#ECECFF;stroke:#9370DB;stroke-width:1.5"></rect><text x="191.80" y="37.50" text-anchor="middle" dominant-baseline="central" style="fill:#333;font-size:14px">Worker</text><rect x="146.80" y="200.00" width="90.00" height="35.00" rx="3.00" ry="3.00" style="fill:#ECECFF;stroke:#9370DB;stroke-width:1.5"></rect><text x="191.80" y="217.50" text-anchor="middle" dominant-baseline="central" style="fill:#333;font-size:14px">Worker</text></svg>