<?xml version="1.0" encoding="UTF-8"?>
<svg xmlns="http://www.w3.org/2000/svg" viewBox="0 0 280.00 373.00"><defs><marker id="seq-arrow-solid" viewBox="0 0 10 10" refX="9.00" refY="5.00" markerWidth="8.00" markerHeight="8.00" orient="auto"><polygon points="0,0 10,5 0,10" style="fill:#333"></polygon></marker><marker id="seq-arrow-dashed" viewBox="0 0 10 10" refX="9.00" refY="5.00" markerWidth="8.00" markerHeight="8.00" orient="auto"><polygon points="0,0 10,5 0,10" style="fill:#333"></polygon></marker><marker id="seq-arrow-solid-cross" viewBox="0 0 10 10" refX="5.00" refY="5.00" markerWidth="10.00" markerHeight="10.00" orient="auto"><path d="M2,2 L8,8 M2,8 L8,2" style="stroke:#333;stroke-width:1.5;fill:none"></path></marker><marker id="seq-arrow-dashed-cross" viewBox="0 0 10 10" refX="5.00" refY="5.00" markerWidth="10.00" markerHeight="10.00" orient="auto"><path d="M2,2 L8,8 M2,8 L8,2" style="stroke:#333;stroke-width:1.5;fill:none"></path></marker><marker id="seq-arrow-solid-open" viewBox="0 0 10 10" refX="10.00" refY="5.00" markerWidth="8.00" markerHeight="8.00" orient="auto"><polyline points="0,1 10,5 0,9" style="stroke:#333;stroke-width:1.5;fill:none"></polyline></marker><marker id="seq-arrow-dashed-open" viewBox="0 0 10 10" refX="10.00" refY="5.00" markerWidth="8.00" markerHeight="8.00" orient="auto"><polyline points="0,1 10,5 0,9" style="stroke:#333;stroke-width:1.5;fill:none"></polyline></marker></defs><rect x="0.00" y="0.00" width="280.00" height="373.00" style="fill:white;stroke:none"></rect><text x="140.00" y="13.00" text-anchor="middle" dominant-baseline="central" style="fill:#333;font-size:16px;font-weight:bold">Sequence Diagram with Title</text><line x1="65.00" y1="81.00" x2="65.00" y2="318.00" style="stroke:#9370DB;stroke-width:2.0"></line><line x1="215.00" y1="81.00" x2="215.00" y2="318.00" style="stroke:#9370DB;stroke-width:2.0"></line><line x1="65.00" y1="116.00" x2="215.00" y2="116.00" style="stroke:#333;stroke-width:1.5;fill:none" marker-end="url(#seq-arrow-solid)"></line><text x="140.00" y="110.00" text-anchor="middle" dominant-baseline="auto" style="fill:#333;font-size:14px">short single-line</text><line x1="215.00" y1="166.00" x2="65.00" y2="166.00" style="stroke:#333;stroke-width:1.5;fill:none;stroke-dasharray:5,5" marker-end="url(#seq-arrow-dashed)"></line><text x="140.00" y="144.00" text-anchor="middle" dominant-baseline="auto" style="fill:#333;font-size:14px">line one</text><text x="140.00" y="160.00" text-anchor="middle" dominant-baseline="auto" style="fill:#333;font-size:14px">line two</text><line x1="65.00" y1="230.00" x2="215.00" y2="230.00" style="stroke:#333;stroke-width:1.5;fill:none" marker-end="url(#seq-arrow-solid)"></line><text x="140.00" y="192.00" text-anchor="middle" dominant-baseline="auto" style="fill:#333;font-size:14px">line one</text><text x="140.00" y="208.00" text-anchor="middle" dominant-baseline="auto" style="fill:#333;font-size:14px">line two</text><text x="140.00" y="224.00" text-anchor="middle" dominant-baseline="auto" style="fill:#333;font-size:14px">line three</text><rect x="20.00" y="46.00" width="90.00" height="35.00" rx="3.00" ry="3.00" style="fill:#ECECFF;stroke:#9370DB;stroke-width:1.5"></rect><text x="65.00" y="63.50" text-anchor="middle" dominant-baseline="central" style="fill:#333;font-size:14px">Alice</text><rect x="20.00" y="318.00" width="90.00" height="35.00" rx="3.00" ry="3.00" style="fill:#ECECFF;stroke:#9370DB;stroke-width:1.5"></rect><text x="65.00" y="335.50" text-anchor="middle" dominant-baseline="central" style="fill:#333;font-size:14px">Alice</text><rect x="170.00" y="46.00" width="90.00" height="35.00" rx="3.00" ry="3.00" style="fill:#ECECFF;stroke:#9370DB;stroke-width:1.5"></rect><text x="215.00" y="63.50" text-anchor="middle" dominant-baseline="central" style="fill:#333;font-size:14px">Bob</text><rect x="170.00" y="318.00" width="90.00" height="35.00" rx="3.00" ry="3.00" style="fill:#ECECFF;stroke:#9370DB;stroke-width:1.5"></rect><text x="215.00" y="335.50" text-anchor="middle" dominant-baseline="central" style="fill:#333;font-size:14px">Bob</text></svg>