<?xml version="1.0" encoding="UTF-8"?>
<svg xmlns="http://www.w3.org/2000/svg" viewBox="0 0 266.21 480.00"><defs><marker id="cls-association" viewBox="0 0 20 20" refX="18.00" refY="10.00" markerWidth="12.00" markerHeight="12.00" orient="auto"><polygon points="0,0 20,10 0,20" style="fill:#333;stroke:#333;stroke-width:1"></polygon></marker><marker id="cls-dependency" viewBox="0 0 20 20" refX="18.00" refY="10.00" markerWidth="12.00" markerHeight="12.00" orient="auto"><polygon points="0,0 20,10 0,20" style="fill:#333;stroke:#333;stroke-width:1"></polygon></marker></defs><rect x="0.00" y="0.00" width="266.21" height="480.00" style="fill:#fff;stroke:none"></rect><path d="M185.30,140.00 L225.27,240.00 L185.30,340.00" style="stroke:#333;stroke-width:1.5;fill:none" marker-end="url(#cls-association)"></path><rect x="175.56" y="148.48" width="35.47" height="23.03" rx="3.00" ry="3.00" style="fill:#fff;stroke:none"></rect><text x="193.29" y="160.00" text-anchor="middle" dominant-baseline="central" style="fill:#333;font-size:13px">uses</text><line x1="137.35" y1="140.00" x2="117.36" y2="190.00" style="stroke:#333;stroke-width:1.5;fill:none" marker-end="url(#cls-association)"></line><rect x="111.62" y="148.48" width="35.47" height="23.03" rx="3.00" ry="3.00" style="fill:#fff;stroke:none"></rect><text x="129.35" y="160.00" text-anchor="middle" dominant-baseline="central" style="fill:#333;font-size:13px">uses</text><line x1="117.36" y1="290.00" x2="137.35" y2="340.00" style="stroke:#333;stroke-width:1.5;fill:none;stroke-dasharray:5,5" marker-end="url(#cls-dependency)"></line><rect x="109.09" y="308.48" width="40.53" height="23.03" rx="3.00" ry="3.00" style="fill:#fff;stroke:none"></rect><text x="129.35" y="320.00" text-anchor="middle" dominant-baseline="central" style="fill:#333;font-size:13px">reads</text><rect x="81.99" y="340.00" width="158.67" height="120.00" style="fill:#ECECFF;stroke:#9370DB;stroke-width:1.5"></rect><text x="161.32" y="355.00" text-anchor="middle" dominant-baseline="central" style="fill:#333;font-size:14px;font-weight:bold">Model</text><line x1="81.99" y1="370.00" x2="240.66" y2="370.00" style="stroke:#9370DB;stroke-width:1"></line><text x="96.99" y="385.00" text-anchor="start" dominant-baseline="central" style="fill:#333;font-size:13px">-data: Map</text><line x1="81.99" y1="400.00" x2="240.66" y2="400.00" style="stroke:#9370DB;stroke-width:1"></line><text x="96.99" y="415.00" text-anchor="start" dominant-baseline="central" style="fill:#333;font-size:13px">+get(key) : Value</text><text x="96.99" y="435.00" text-anchor="start" dominant-baseline="central" style="fill:#333;font-size:13px">+set(key, value) : void</text><rect x="20.00" y="190.00" width="154.77" height="100.00" style="fill:#ECECFF;stroke:#9370DB;stroke-width:1.5"></rect><text x="97.38" y="205.00" text-anchor="middle" dominant-baseline="central" style="fill:#333;font-size:14px;font-weight:bold">View</text><line x1="20.00" y1="220.00" x2="174.77" y2="220.00" style="stroke:#9370DB;stroke-width:1"></line><text x="35.00" y="235.00" text-anchor="start" dominant-baseline="central" style="fill:#333;font-size:13px">-template: String</text><line x1="20.00" y1="250.00" x2="174.77" y2="250.00" style="stroke:#9370DB;stroke-width:1"></line><text x="35.00" y="265.00" text-anchor="start" dominant-baseline="central" style="fill:#333;font-size:13px">+render(data) : String</text><rect x="76.43" y="20.00" width="169.78" height="120.00" style="fill:#ECECFF;stroke:#9370DB;stroke-width:1.5"></rect><text x="161.32" y="35.00" text-anchor="middle" dominant-baseline="central" style="fill:#333;font-size:14px;font-weight:bold">Controller</text><line x1="76.43" y1="50.00" x2="246.21" y2="50.00" style="stroke:#9370DB;stroke-width:1"></line><text x="91.43" y="65.00" text-anchor="start" dominant-baseline="central" style="fill:#333;font-size:13px">-model: Model</text><text x="91.43" y="85.00" text-anchor="start" dominant-baseline="central" style="fill:#333;font-size:13px">-view: View</text><line x1="76.43" y1="100.00" x2="246.21" y2="100.00" style="stroke:#9370DB;stroke-width:1"></line><text x="91.43" y="115.00" text-anchor="start" dominant-baseline="central" style="fill:#333;font-size:13px">+handleRequest() : void</text></svg>