<?xml version="1.0" encoding="UTF-8"?>
<svg xmlns="http://www.w3.org/2000/svg" viewBox="-12.00 -32.00 439.00 242.00"><defs><marker id="cls-association" viewBox="0 0 20 20" refX="18.00" refY="10.00" markerWidth="12.00" markerHeight="12.00" orient="auto"><polygon points="0,0 20,10 0,20" style="fill:#333;stroke:#333;stroke-width:1"></polygon></marker></defs><rect x="-12.00" y="-32.00" width="439.00" height="242.00" style="fill:#fff;stroke:none"></rect><rect x="8.00" y="78.00" width="314.00" height="112.00" rx="6.00" ry="6.00" style="fill:#f7f7ff;stroke:#9370DB;stroke-width:1.5;stroke-dasharray:4,3"></rect><text x="20.00" y="94.00" text-anchor="start" dominant-baseline="central" style="fill:#555;font-size:13px;font-weight:bold">Vehicles</text><rect x="93.00" y="-12.00" width="314.00" height="82.00" rx="6.00" ry="6.00" style="fill:#f7f7ff;stroke:#9370DB;stroke-width:1.5;stroke-dasharray:4,3"></rect><text x="105.00" y="4.00" text-anchor="start" dominant-baseline="central" style="fill:#555;font-size:13px;font-weight:bold">People</text><line x1="181.19" y1="60.00" x2="221.67" y2="110.00" style="stroke:#333;stroke-width:1.5;fill:none" marker-end="url(#cls-association)"></line><rect x="186.00" y="80.98" width="43.00" height="23.03" rx="3.00" ry="3.00" style="fill:#fff;stroke:none"></rect><text x="207.50" y="92.50" text-anchor="middle" dominant-baseline="central" style="fill:#333;font-size:13px">drives</text><line x1="318.81" y1="60.00" x2="278.33" y2="110.00" style="stroke:#333;stroke-width:1.5;fill:none" marker-end="url(#cls-association)"></line><rect x="274.25" y="80.98" width="36.50" height="23.03" rx="3.00" ry="3.00" style="fill:#fff;stroke:none"></rect><text x="292.50" y="92.50" text-anchor="middle" dominant-baseline="central" style="fill:#333;font-size:13px">rides</text><rect x="190.00" y="110.00" width="120.00" height="70.00" style="fill:#ECECFF;stroke:#9370DB;stroke-width:1.5"></rect><text x="250.00" y="125.00" text-anchor="middle" dominant-baseline="central" style="fill:#333;font-size:14px;font-weight:bold">Car</text><line x1="190.00" y1="140.00" x2="310.00" y2="140.00" style="stroke:#9370DB;stroke-width:1"></line><text x="205.00" y="155.00" text-anchor="start" dominant-baseline="central" style="fill:#333;font-size:13px">+start() : void</text><rect x="20.00" y="125.00" width="120.00" height="40.00" style="fill:#ECECFF;stroke:#9370DB;stroke-width:1.5"></rect><text x="80.00" y="140.00" text-anchor="middle" dominant-baseline="central" style="fill:#333;font-size:14px;font-weight:bold">Bike</text><rect x="105.00" y="20.00" width="120.00" height="40.00" style="fill:#ECECFF;stroke:#9370DB;stroke-width:1.5"></rect><text x="165.00" y="35.00" text-anchor="middle" dominant-baseline="central" style="fill:#333;font-size:14px;font-weight:bold">Driver</text><rect x="275.00" y="20.00" width="120.00" height="40.00" style="fill:#ECECFF;stroke:#9370DB;stroke-width:1.5"></rect><text x="335.00" y="35.00" text-anchor="middle" dominant-baseline="central" style="fill:#333;font-size:14px;font-weight:bold">Passenger</text></svg>