<?xml version="1.0" encoding="UTF-8"?>
<svg xmlns="http://www.w3.org/2000/svg" viewBox="0.00 0.00 336.00 330.00"><rect x="0.00" y="0.00" width="336.00" height="330.00" style="fill:#fff;stroke:none"></rect><line x1="133.88" y1="160.00" x2="108.44" y2="210.00" style="stroke:#333;stroke-width:1.5;fill:none"></line><g transform="translate(133.88,160.00) rotate(116.97) translate(0.00,-10.00)"><polygon points="20,0 0,10 20,20" style="fill:white;stroke:#333;stroke-width:1.5"></polygon></g><line x1="205.12" y1="160.00" x2="230.56" y2="210.00" style="stroke:#333;stroke-width:1.5;fill:none"></line><g transform="translate(205.12,160.00) rotate(63.03) translate(0.00,-10.00)"><polygon points="20,0 0,10 20,20" style="fill:white;stroke:#333;stroke-width:1.5"></polygon></g><rect x="109.50" y="20.00" width="120.00" height="140.00" style="fill:#ECECFF;stroke:#9370DB;stroke-width:1.5"></rect><text x="169.50" y="35.00" text-anchor="middle" dominant-baseline="central" style="fill:#333;font-size:14px;font-weight:bold">Animal</text><line x1="109.50" y1="50.00" x2="229.50" y2="50.00" style="stroke:#9370DB;stroke-width:1"></line><text x="124.50" y="65.00" text-anchor="start" dominant-baseline="central" style="fill:#333;font-size:13px">+String name</text><text x="124.50" y="85.00" text-anchor="start" dominant-baseline="central" style="fill:#333;font-size:13px">+int age</text><line x1="109.50" y1="100.00" x2="229.50" y2="100.00" style="stroke:#9370DB;stroke-width:1"></line><text x="124.50" y="115.00" text-anchor="start" dominant-baseline="central" style="fill:#333;font-size:13px">+eat() : void</text><text x="124.50" y="135.00" text-anchor="start" dominant-baseline="central" style="fill:#333;font-size:13px">+sleep() : void</text><rect x="196.00" y="210.00" width="120.00" height="100.00" style="fill:#ECECFF;stroke:#9370DB;stroke-width:1.5"></rect><text x="256.00" y="225.00" text-anchor="middle" dominant-baseline="central" style="fill:#333;font-size:14px;font-weight:bold">Dog</text><line x1="196.00" y1="240.00" x2="316.00" y2="240.00" style="stroke:#9370DB;stroke-width:1"></line><text x="211.00" y="255.00" text-anchor="start" dominant-baseline="central" style="fill:#333;font-size:13px">+String breed</text><line x1="196.00" y1="270.00" x2="316.00" y2="270.00" style="stroke:#9370DB;stroke-width:1"></line><text x="211.00" y="285.00" text-anchor="start" dominant-baseline="central" style="fill:#333;font-size:13px">+bark() : void</text><rect x="20.00" y="210.00" width="126.00" height="100.00" style="fill:#ECECFF;stroke:#9370DB;stroke-width:1.5"></rect><text x="83.00" y="225.00" text-anchor="middle" dominant-baseline="central" style="fill:#333;font-size:14px;font-weight:bold">Cat</text><line x1="20.00" y1="240.00" x2="146.00" y2="240.00" style="stroke:#9370DB;stroke-width:1"></line><text x="35.00" y="255.00" text-anchor="start" dominant-baseline="central" style="fill:#333;font-size:13px">+Boolean indoor</text><line x1="20.00" y1="270.00" x2="146.00" y2="270.00" style="stroke:#9370DB;stroke-width:1"></line><text x="35.00" y="285.00" text-anchor="start" dominant-baseline="central" style="fill:#333;font-size:13px">+purr() : void</text></svg>