<?xml version="1.0" encoding="UTF-8"?>
<svg xmlns="http://www.w3.org/2000/svg" viewBox="0 0 343.59 330.00"><rect x="0.00" y="0.00" width="343.59" height="330.00" style="fill:#fff;stroke:none"></rect><line x1="138.80" y1="160.00" x2="112.80" y2="210.00" style="stroke:#333;stroke-width:1.5;fill:none"></line><g transform="translate(138.80,160.00) rotate(117.47) translate(0.00,-10.00)"><polygon points="20,0 0,10 20,20" style="fill:white;stroke:#333;stroke-width:1.5"></polygon></g><line x1="211.59" y1="160.00" x2="237.59" y2="210.00" style="stroke:#333;stroke-width:1.5;fill:none"></line><g transform="translate(211.59,160.00) rotate(62.53) translate(0.00,-10.00)"><polygon points="20,0 0,10 20,20" style="fill:white;stroke:#333;stroke-width:1.5"></polygon></g><rect x="115.20" y="20.00" width="120.00" height="140.00" style="fill:#ECECFF;stroke:#9370DB;stroke-width:1.5"></rect><text x="175.20" y="35.00" text-anchor="middle" dominant-baseline="central" style="fill:#333;font-size:14px;font-weight:bold">Animal</text><line x1="115.20" y1="50.00" x2="235.20" y2="50.00" style="stroke:#9370DB;stroke-width:1"></line><text x="130.20" y="65.00" text-anchor="start" dominant-baseline="central" style="fill:#333;font-size:13px">+name : String</text><text x="130.20" y="85.00" text-anchor="start" dominant-baseline="central" style="fill:#333;font-size:13px">+age : int</text><line x1="115.20" y1="100.00" x2="235.20" y2="100.00" style="stroke:#9370DB;stroke-width:1"></line><text x="130.20" y="115.00" text-anchor="start" dominant-baseline="central" style="fill:#333;font-size:13px">+eat() : void</text><text x="130.20" y="135.00" text-anchor="start" dominant-baseline="central" style="fill:#333;font-size:13px">+sleep() : void</text><rect x="203.59" y="210.00" width="120.00" height="100.00" style="fill:#ECECFF;stroke:#9370DB;stroke-width:1.5"></rect><text x="263.59" y="225.00" text-anchor="middle" dominant-baseline="central" style="fill:#333;font-size:14px;font-weight:bold">Dog</text><line x1="203.59" y1="240.00" x2="323.59" y2="240.00" style="stroke:#9370DB;stroke-width:1"></line><text x="218.59" y="255.00" text-anchor="start" dominant-baseline="central" style="fill:#333;font-size:13px">+breed : String</text><line x1="203.59" y1="270.00" x2="323.59" y2="270.00" style="stroke:#9370DB;stroke-width:1"></line><text x="218.59" y="285.00" text-anchor="start" dominant-baseline="central" style="fill:#333;font-size:13px">+bark() : void</text><rect x="20.00" y="210.00" width="133.59" height="100.00" style="fill:#ECECFF;stroke:#9370DB;stroke-width:1.5"></rect><text x="86.80" y="225.00" text-anchor="middle" dominant-baseline="central" style="fill:#333;font-size:14px;font-weight:bold">Cat</text><line x1="20.00" y1="240.00" x2="153.59" y2="240.00" style="stroke:#9370DB;stroke-width:1"></line><text x="35.00" y="255.00" text-anchor="start" dominant-baseline="central" style="fill:#333;font-size:13px">+indoor : Boolean</text><line x1="20.00" y1="270.00" x2="153.59" y2="270.00" style="stroke:#9370DB;stroke-width:1"></line><text x="35.00" y="285.00" text-anchor="start" dominant-baseline="central" style="fill:#333;font-size:13px">+purr() : void</text></svg>