<?xml version="1.0" encoding="UTF-8"?>
<svg xmlns="http://www.w3.org/2000/svg" viewBox="0.00 0.00 337.36 200.00"><rect x="0.00" y="0.00" width="337.36" height="200.00" style="fill:#fff;stroke:none"></rect><line x1="109.45" y1="90.00" x2="150.81" y2="140.00" style="stroke:#333;stroke-width:1.5;fill:none"></line><g transform="translate(109.45,90.00) rotate(50.41) translate(0.00,-10.00)"><polygon points="20,0 0,10 20,20" style="fill:white;stroke:#333;stroke-width:1.5"></polygon></g><line x1="225.24" y1="90.00" x2="183.89" y2="140.00" style="stroke:#333;stroke-width:1.5;fill:none"></line><g transform="translate(225.24,90.00) rotate(129.59) translate(0.00,-10.00)"><polygon points="20,0 0,10 20,20" style="fill:white;stroke:#333;stroke-width:1.5"></polygon></g><rect x="191.02" y="20.00" width="126.34" height="70.00" style="fill:#ECECFF;stroke:#9370DB;stroke-width:1.5;fill:#ffe066;stroke:#f59f00;stroke-width:2px"></rect><text x="254.19" y="35.00" text-anchor="middle" dominant-baseline="central" style="fill:#333;font-size:14px;font-weight:bold">Hot</text><line x1="191.02" y1="50.00" x2="317.36" y2="50.00" style="stroke:#9370DB;stroke-width:1"></line><text x="206.02" y="65.00" text-anchor="start" dominant-baseline="central" style="fill:#333;font-size:13px">+burning() : bool</text><rect x="20.00" y="20.00" width="121.02" height="70.00" style="fill:#ECECFF;stroke:#9370DB;stroke-width:1.5;fill:#a5d8ff;stroke:#1971c2"></rect><text x="80.51" y="35.00" text-anchor="middle" dominant-baseline="central" style="fill:#333;font-size:14px;font-weight:bold">Cold</text><line x1="20.00" y1="50.00" x2="141.02" y2="50.00" style="stroke:#9370DB;stroke-width:1"></line><text x="35.00" y="65.00" text-anchor="start" dominant-baseline="central" style="fill:#333;font-size:13px">+chilled() : bool</text><rect x="107.35" y="140.00" width="120.00" height="40.00" style="fill:#ECECFF;stroke:#9370DB;stroke-width:1.5;fill:#f1f3f5;stroke:#adb5bd"></rect><text x="167.35" y="155.00" text-anchor="middle" dominant-baseline="central" style="fill:#333;font-size:14px;font-weight:bold">Lukewarm</text></svg>