<?xml version="1.0" encoding="UTF-8"?>
<svg xmlns="http://www.w3.org/2000/svg" viewBox="0 0 480.00 324.00"><rect x="0.00" y="0.00" width="480.00" height="324.00" style="fill:white;stroke:none"></rect><text x="150.00" y="44.00" text-anchor="middle" dominant-baseline="auto" style="fill:#333;font-size:16px;font-weight:bold">Browser market share</text><path d="M150.00,174.00 L150.00,54.00 A120.00,120.00 0 1,1 59.99,253.36 Z" style="fill:#4e79a7;stroke:white;stroke-width:2"></path><path d="M150.00,174.00 L59.99,253.36 A120.00,120.00 0 0,1 43.77,118.18 Z" style="fill:#f28e2b;stroke:white;stroke-width:2"></path><path d="M150.00,174.00 L43.77,118.18 A120.00,120.00 0 0,1 67.85,86.52 Z" style="fill:#e15759;stroke:white;stroke-width:2"></path><path d="M150.00,174.00 L67.85,86.52 A120.00,120.00 0 0,1 86.34,72.28 Z" style="fill:#76b7b2;stroke:white;stroke-width:2"></path><path d="M150.00,174.00 L86.34,72.28 A120.00,120.00 0 0,1 150.00,54.00 Z" style="fill:#59a14f;stroke:white;stroke-width:2"></path><text x="221.09" y="206.10" text-anchor="middle" dominant-baseline="central" style="fill:white;font-size:13px;font-weight:bold">63.5%</text><text x="72.56" y="183.29" text-anchor="middle" dominant-baseline="central" style="fill:white;font-size:13px;font-weight:bold">19.2%</text><text x="87.92" y="126.78" text-anchor="middle" dominant-baseline="central" style="fill:white;font-size:13px;font-weight:bold">5.3%</text><text x="102.39" y="112.22" text-anchor="middle" dominant-baseline="central" style="fill:white;font-size:13px;font-weight:bold">3.1%</text><text x="128.47" y="99.03" text-anchor="middle" dominant-baseline="central" style="fill:white;font-size:13px;font-weight:bold">8.9%</text><rect x="300.00" y="54.00" width="14.00" height="14.00" style="fill:#4e79a7"></rect><text x="320.00" y="61.00" text-anchor="start" dominant-baseline="central" style="fill:#333;font-size:14px">Chrome</text><rect x="300.00" y="79.00" width="14.00" height="14.00" style="fill:#f28e2b"></rect><text x="320.00" y="86.00" text-anchor="start" dominant-baseline="central" style="fill:#333;font-size:14px">Safari</text><rect x="300.00" y="104.00" width="14.00" height="14.00" style="fill:#e15759"></rect><text x="320.00" y="111.00" text-anchor="start" dominant-baseline="central" style="fill:#333;font-size:14px">Edge</text><rect x="300.00" y="129.00" width="14.00" height="14.00" style="fill:#76b7b2"></rect><text x="320.00" y="136.00" text-anchor="start" dominant-baseline="central" style="fill:#333;font-size:14px">Firefox</text><rect x="300.00" y="154.00" width="14.00" height="14.00" style="fill:#59a14f"></rect><text x="320.00" y="161.00" text-anchor="start" dominant-baseline="central" style="fill:#333;font-size:14px">Other</text></svg>