<?xml version="1.0" encoding="UTF-8"?>
<svg xmlns="http://www.w3.org/2000/svg" viewBox="0 0 552.28 324.00"><rect x="0.00" y="0.00" width="552.28" height="324.00" style="fill:white;stroke:none"></rect><text x="186.14" y="44.00" text-anchor="middle" dominant-baseline="auto" style="fill:#333;font-size:16px;font-weight:bold">Browser market share</text><path d="M186.14,174.00 L186.14,54.00 A120.00,120.00 0 1,1 96.13,253.36 Z" style="fill:#4e79a7;stroke:white;stroke-width:2"></path><path d="M186.14,174.00 L96.13,253.36 A120.00,120.00 0 0,1 79.91,118.18 Z" style="fill:#f28e2b;stroke:white;stroke-width:2"></path><path d="M186.14,174.00 L79.91,118.18 A120.00,120.00 0 0,1 103.99,86.52 Z" style="fill:#e15759;stroke:white;stroke-width:2"></path><path d="M186.14,174.00 L103.99,86.52 A120.00,120.00 0 0,1 122.48,72.28 Z" style="fill:#76b7b2;stroke:white;stroke-width:2"></path><path d="M186.14,174.00 L122.48,72.28 A120.00,120.00 0 0,1 186.14,54.00 Z" style="fill:#59a14f;stroke:white;stroke-width:2"></path><text x="257.23" y="206.10" text-anchor="middle" dominant-baseline="central" style="fill:white;font-size:13px;font-weight:bold">63.5%</text><text x="108.70" y="183.29" text-anchor="middle" dominant-baseline="central" style="fill:white;font-size:13px;font-weight:bold">19.2%</text><line x1="95.41" y1="104.98" x2="79.17" y2="92.63" style="stroke:#666;stroke-width:1"></line><text x="79.17" y="92.63" text-anchor="end" dominant-baseline="central" style="fill:#333;font-size:13px">5.3%</text><line x1="116.55" y1="83.70" x2="104.10" y2="67.54" style="stroke:#666;stroke-width:1"></line><text x="104.10" y="67.54" text-anchor="end" dominant-baseline="central" style="fill:#333;font-size:13px">3.1%</text><text x="164.61" y="99.03" text-anchor="middle" dominant-baseline="central" style="fill:white;font-size:13px;font-weight:bold">8.9%</text><rect x="372.28" y="54.00" width="14.00" height="14.00" style="fill:#4e79a7"></rect><text x="392.28" y="61.00" text-anchor="start" dominant-baseline="central" style="fill:#333;font-size:14px">Chrome</text><rect x="372.28" y="79.00" width="14.00" height="14.00" style="fill:#f28e2b"></rect><text x="392.28" y="86.00" text-anchor="start" dominant-baseline="central" style="fill:#333;font-size:14px">Safari</text><rect x="372.28" y="104.00" width="14.00" height="14.00" style="fill:#e15759"></rect><text x="392.28" y="111.00" text-anchor="start" dominant-baseline="central" style="fill:#333;font-size:14px">Edge</text><rect x="372.28" y="129.00" width="14.00" height="14.00" style="fill:#76b7b2"></rect><text x="392.28" y="136.00" text-anchor="start" dominant-baseline="central" style="fill:#333;font-size:14px">Firefox</text><rect x="372.28" y="154.00" width="14.00" height="14.00" style="fill:#59a14f"></rect><text x="392.28" y="161.00" text-anchor="start" dominant-baseline="central" style="fill:#333;font-size:14px">Other</text></svg>