<?xml version="1.0" encoding="UTF-8"?>
<svg xmlns="http://www.w3.org/2000/svg" viewBox="0 0 480.00 324.00"><rect x="0.00" y="0.00" width="480.00" height="324.00" style="fill:white;stroke:none"></rect><text x="150.00" y="44.00" text-anchor="middle" dominant-baseline="auto" style="fill:#333;font-size:16px;font-weight:bold">Pet owners</text><path d="M150.00,174.00 L150.00,54.00 A120.00,120.00 0 1,1 34.61,141.07 Z" style="fill:#4e79a7;stroke:white;stroke-width:2"></path><path d="M150.00,174.00 L34.61,141.07 A120.00,120.00 0 0,1 126.87,56.25 Z" style="fill:#f28e2b;stroke:white;stroke-width:2"></path><path d="M150.00,174.00 L126.87,56.25 A120.00,120.00 0 0,1 150.00,54.00 Z" style="fill:#e15759;stroke:white;stroke-width:2"></path><text x="196.98" y="236.26" text-anchor="middle" dominant-baseline="central" style="fill:white;font-size:13px;font-weight:bold">79.4%</text><text x="97.21" y="116.58" text-anchor="middle" dominant-baseline="central" style="fill:white;font-size:13px;font-weight:bold">17.5%</text><text x="142.45" y="96.37" text-anchor="middle" dominant-baseline="central" style="fill:white;font-size:13px;font-weight:bold">3.1%</text><rect x="300.00" y="54.00" width="14.00" height="14.00" style="fill:#4e79a7"></rect><text x="320.00" y="61.00" text-anchor="start" dominant-baseline="central" style="fill:#333;font-size:14px">Dogs</text><rect x="300.00" y="79.00" width="14.00" height="14.00" style="fill:#f28e2b"></rect><text x="320.00" y="86.00" text-anchor="start" dominant-baseline="central" style="fill:#333;font-size:14px">Cats</text><rect x="300.00" y="104.00" width="14.00" height="14.00" style="fill:#e15759"></rect><text x="320.00" y="111.00" text-anchor="start" dominant-baseline="central" style="fill:#333;font-size:14px">Rats</text></svg>