<?xml version="1.0" encoding="UTF-8"?>
<svg xmlns="http://www.w3.org/2000/svg" viewBox="-16.00 0.00 1056.00 706.00"><defs><marker id="c4-arrow" viewBox="0 0 10 10" refX="9.00" refY="5.00" markerWidth="12.00" markerHeight="12.00" orient="auto"><polygon points="0,0 10,5 0,10" style="fill:#333"></polygon></marker></defs><rect x="-16.00" y="0.00" width="1056.00" height="706.00" style="fill:#fff;stroke:none"></rect><text x="528.00" y="35.00" text-anchor="middle" dominant-baseline="central" style="fill:#333;font-size:15px;font-weight:bold">Container Diagram with Boundaries</text><rect x="-16.00" y="120.00" width="862.00" height="566.00" rx="6.00" ry="6.00" style="fill:none;stroke:#333;stroke-width:1.2;stroke-dasharray:6 4"></rect><text x="-8.00" y="126.00" text-anchor="start" dominant-baseline="hanging" style="fill:#333;font-size:12px;font-weight:bold">Acme Inc &lt;&lt;enterprise_boundary&gt;&gt;</text><rect x="422.00" y="150.00" width="406.00" height="518.00" rx="6.00" ry="6.00" style="fill:none;stroke:#333;stroke-width:1.2;stroke-dasharray:6 4"></rect><text x="430.00" y="156.00" text-anchor="start" dominant-baseline="hanging" style="fill:#333;font-size:12px;font-weight:bold">E-commerce Platform &lt;&lt;system_boundary&gt;&gt;</text><rect x="2.00" y="410.00" width="406.00" height="258.00" rx="6.00" ry="6.00" style="fill:none;stroke:#333;stroke-width:1.2;stroke-dasharray:6 4"></rect><text x="10.00" y="416.00" text-anchor="start" dominant-baseline="hanging" style="fill:#333;font-size:12px;font-weight:bold">Billing &lt;&lt;system_boundary&gt;&gt;</text><line x1="730.00" y1="390.00" x2="730.00" y2="440.00" style="stroke:#333;stroke-width:1.5;fill:none" marker-end="url(#c4-arrow)"></line><rect x="665.35" y="404.40" width="129.30" height="21.20" rx="3.00" ry="3.00" style="fill:#fff;stroke:none"></rect><text x="730.00" y="415.00" text-anchor="middle" dominant-baseline="central" style="fill:#333;font-size:11px">Routes order requests to</text><path d="M334.62,520.00 C336.15,522.50 348.46,542.50 350.00,545.00 C351.54,547.50 341.00,541.56 350.00,545.00 C359.00,548.44 431.00,575.97 440.00,579.41" style="stroke:#333;stroke-width:1.5;fill:none" marker-end="url(#c4-arrow)"></path><rect x="267.81" y="534.40" width="164.38" height="21.20" rx="3.00" ry="3.00" style="fill:#fff;stroke:none"></rect><text x="350.00" y="545.00" text-anchor="middle" dominant-baseline="central" style="fill:#333;font-size:11px">Subscribes to order events from</text><path d="M285.38,520.00 C283.85,522.50 271.54,542.50 270.00,545.00 C268.46,547.50 279.00,541.56 270.00,545.00 C261.00,548.44 189.00,575.97 180.00,579.41" style="stroke:#333;stroke-width:1.5;fill:none" marker-end="url(#c4-arrow)"></path><rect x="221.35" y="534.40" width="97.30" height="21.20" rx="3.00" ry="3.00" style="fill:#fff;stroke:none"></rect><text x="270.00" y="545.00" text-anchor="middle" dominant-baseline="central" style="fill:#333;font-size:11px">Records entries in</text><path d="M310.00,520.00 C310.00,522.50 310.00,542.50 310.00,545.00 C310.00,547.50 310.00,542.50 310.00,545.00 C310.00,547.50 310.00,567.50 310.00,570.00" style="stroke:#333;stroke-width:1.5;fill:none" marker-end="url(#c4-arrow)"></path><rect x="276.50" y="534.40" width="67.00" height="21.20" rx="3.00" ry="3.00" style="fill:#fff;stroke:none"></rect><text x="310.00" y="545.00" text-anchor="middle" dominant-baseline="central" style="fill:#333;font-size:11px">Charges via</text><path d="M730.00,520.00 C730.00,522.50 730.00,542.50 730.00,545.00 C730.00,547.50 730.00,542.50 730.00,545.00 C730.00,547.50 730.00,567.50 730.00,570.00" style="stroke:#333;stroke-width:1.5;fill:none" marker-end="url(#c4-arrow)"></path><rect x="690.98" y="534.40" width="78.05" height="21.20" rx="3.00" ry="3.00" style="fill:#fff;stroke:none"></rect><text x="730.00" y="545.00" text-anchor="middle" dominant-baseline="central" style="fill:#333;font-size:11px">Reads / writes</text><path d="M754.62,520.00 C756.15,522.50 768.46,542.50 770.00,545.00 C771.54,547.50 761.00,541.56 770.00,545.00 C779.00,548.44 851.00,575.97 860.00,579.41" style="stroke:#333;stroke-width:1.5;fill:none" marker-end="url(#c4-arrow)"></path><rect x="692.76" y="534.40" width="154.48" height="21.20" rx="3.00" ry="3.00" style="fill:#fff;stroke:none"></rect><text x="770.00" y="545.00" text-anchor="middle" dominant-baseline="central" style="fill:#333;font-size:11px">Sends order confirmations via</text><path d="M705.38,520.00 C703.85,522.50 691.54,542.50 690.00,545.00 C688.46,547.50 699.00,541.56 690.00,545.00 C681.00,548.44 609.00,575.97 600.00,579.41" style="stroke:#333;stroke-width:1.5;fill:none" marker-end="url(#c4-arrow)"></path><rect x="623.45" y="534.40" width="133.09" height="21.20" rx="3.00" ry="3.00" style="fill:#fff;stroke:none"></rect><text x="690.00" y="545.00" text-anchor="middle" dominant-baseline="central" style="fill:#333;font-size:11px">Publishes order events to</text><line x1="730.00" y1="260.00" x2="730.00" y2="310.00" style="stroke:#333;stroke-width:1.5;fill:none" marker-end="url(#c4-arrow)"></line><rect x="700.30" y="267.80" width="59.41" height="34.40" rx="3.00" ry="3.00" style="fill:#fff;stroke:none"></rect><text x="730.00" y="278.40" text-anchor="middle" dominant-baseline="central" style="fill:#333;font-size:11px">Calls</text><text x="730.00" y="291.60" text-anchor="middle" dominant-baseline="central" style="fill:#333;font-size:11px">[GraphQL]</text><line x1="730.00" y1="130.00" x2="730.00" y2="180.00" style="stroke:#333;stroke-width:1.5;fill:none" marker-end="url(#c4-arrow)"></line><rect x="704.91" y="137.80" width="50.19" height="34.40" rx="3.00" ry="3.00" style="fill:#fff;stroke:none"></rect><text x="730.00" y="148.40" text-anchor="middle" dominant-baseline="central" style="fill:#333;font-size:11px">Uses</text><text x="730.00" y="161.60" text-anchor="middle" dominant-baseline="central" style="fill:#333;font-size:11px">[HTTPS]</text><rect x="619.61" y="50.00" width="220.78" height="80.00" rx="20.00" ry="20.00" style="fill:#08427B;stroke:#073B6F;stroke-width:1.5"></rect><text x="730.00" y="61.00" text-anchor="middle" dominant-baseline="central" style="fill:white;font-size:10px;font-style:italic;opacity:0.85">&lt;&lt;person&gt;&gt;</text><text x="730.00" y="74.50" text-anchor="middle" dominant-baseline="central" style="fill:white;font-size:13px;font-weight:bold">Customer</text><text x="730.00" y="85.00" text-anchor="middle" dominant-baseline="central" style="fill:white;font-size:11px;opacity:0.9">Browses the catalog and places orders</text><rect x="650.00" y="180.00" width="160.00" height="80.00" style="fill:#438DD5;stroke:#3C7FC0;stroke-width:1.5"></rect><text x="730.00" y="191.00" text-anchor="middle" dominant-baseline="central" style="fill:white;font-size:10px;font-style:italic;opacity:0.85">&lt;&lt;container&gt;&gt;</text><text x="730.00" y="204.50" text-anchor="middle" dominant-baseline="central" style="fill:white;font-size:13px;font-weight:bold">Single-Page App</text><text x="730.00" y="215.00" text-anchor="middle" dominant-baseline="central" style="fill:white;font-size:11px">[TypeScript / React]</text><text x="730.00" y="226.00" text-anchor="middle" dominant-baseline="central" style="fill:white;font-size:11px;opacity:0.9">Catalog UI</text><rect x="650.00" y="310.00" width="160.00" height="80.00" style="fill:#438DD5;stroke:#3C7FC0;stroke-width:1.5"></rect><text x="730.00" y="321.00" text-anchor="middle" dominant-baseline="central" style="fill:white;font-size:10px;font-style:italic;opacity:0.85">&lt;&lt;container&gt;&gt;</text><text x="730.00" y="334.50" text-anchor="middle" dominant-baseline="central" style="fill:white;font-size:13px;font-weight:bold">API Gateway</text><text x="730.00" y="345.00" text-anchor="middle" dominant-baseline="central" style="fill:white;font-size:11px">[Go]</text><text x="730.00" y="356.00" text-anchor="middle" dominant-baseline="central" style="fill:white;font-size:11px;opacity:0.9">REST + GraphQL surface</text><rect x="650.00" y="440.00" width="160.00" height="80.00" style="fill:#438DD5;stroke:#3C7FC0;stroke-width:1.5"></rect><text x="730.00" y="451.00" text-anchor="middle" dominant-baseline="central" style="fill:white;font-size:10px;font-style:italic;opacity:0.85">&lt;&lt;container&gt;&gt;</text><text x="730.00" y="464.50" text-anchor="middle" dominant-baseline="central" style="fill:white;font-size:13px;font-weight:bold">Orders Service</text><text x="730.00" y="475.00" text-anchor="middle" dominant-baseline="central" style="fill:white;font-size:11px">[Go]</text><text x="730.00" y="486.00" text-anchor="middle" dominant-baseline="central" style="fill:white;font-size:11px;opacity:0.9">Order lifecycle</text><path d="M650.00,578.00 L650.00,642.00 A80.00,8.00 0 0,0 810.00,642.00 L810.00,578.00 A80.00,8.00 0 0,0 650.00,578.00 M650.00,578.00 A80.00,8.00 0 0,0 810.00,578.00" style="fill:#438DD5;stroke:#3C7FC0;stroke-width:1.5"></path><text x="730.00" y="581.00" text-anchor="middle" dominant-baseline="central" style="fill:white;font-size:10px;font-style:italic;opacity:0.85">&lt;&lt;container_db&gt;&gt;</text><text x="730.00" y="594.50" text-anchor="middle" dominant-baseline="central" style="fill:white;font-size:13px;font-weight:bold">Postgres</text><text x="730.00" y="605.00" text-anchor="middle" dominant-baseline="central" style="fill:white;font-size:11px">[RDS]</text><text x="730.00" y="616.00" text-anchor="middle" dominant-baseline="central" style="fill:white;font-size:11px;opacity:0.9">Order + customer data</text><rect x="440.00" y="570.00" width="160.00" height="80.00" rx="40.00" ry="40.00" style="fill:#438DD5;stroke:#3C7FC0;stroke-width:1.5"></rect><text x="520.00" y="581.00" text-anchor="middle" dominant-baseline="central" style="fill:white;font-size:10px;font-style:italic;opacity:0.85">&lt;&lt;container_queue&gt;&gt;</text><text x="520.00" y="594.50" text-anchor="middle" dominant-baseline="central" style="fill:white;font-size:13px;font-weight:bold">Event Bus</text><text x="520.00" y="605.00" text-anchor="middle" dominant-baseline="central" style="fill:white;font-size:11px;opacity:0.9">Kafka</text><rect x="230.00" y="440.00" width="160.00" height="80.00" style="fill:#438DD5;stroke:#3C7FC0;stroke-width:1.5"></rect><text x="310.00" y="451.00" text-anchor="middle" dominant-baseline="central" style="fill:white;font-size:10px;font-style:italic;opacity:0.85">&lt;&lt;container&gt;&gt;</text><text x="310.00" y="464.50" text-anchor="middle" dominant-baseline="central" style="fill:white;font-size:13px;font-weight:bold">Invoice Service</text><text x="310.00" y="475.00" text-anchor="middle" dominant-baseline="central" style="fill:white;font-size:11px">[Go]</text><text x="310.00" y="486.00" text-anchor="middle" dominant-baseline="central" style="fill:white;font-size:11px;opacity:0.9">Generates invoices</text><path d="M20.00,578.00 L20.00,642.00 A80.00,8.00 0 0,0 180.00,642.00 L180.00,578.00 A80.00,8.00 0 0,0 20.00,578.00 M20.00,578.00 A80.00,8.00 0 0,0 180.00,578.00" style="fill:#438DD5;stroke:#3C7FC0;stroke-width:1.5"></path><text x="100.00" y="581.00" text-anchor="middle" dominant-baseline="central" style="fill:white;font-size:10px;font-style:italic;opacity:0.85">&lt;&lt;container_db&gt;&gt;</text><text x="100.00" y="594.50" text-anchor="middle" dominant-baseline="central" style="fill:white;font-size:13px;font-weight:bold">Ledger</text><text x="100.00" y="605.00" text-anchor="middle" dominant-baseline="central" style="fill:white;font-size:11px">[Postgres]</text><text x="100.00" y="616.00" text-anchor="middle" dominant-baseline="central" style="fill:white;font-size:11px;opacity:0.9">Double-entry book</text><rect x="230.00" y="570.00" width="160.00" height="80.00" style="fill:#999999;stroke:#6B6B6B;stroke-width:1.5"></rect><text x="310.00" y="581.00" text-anchor="middle" dominant-baseline="central" style="fill:white;font-size:10px;font-style:italic;opacity:0.85">&lt;&lt;external_system&gt;&gt;</text><text x="310.00" y="594.50" text-anchor="middle" dominant-baseline="central" style="fill:white;font-size:13px;font-weight:bold">Stripe</text><text x="310.00" y="605.00" text-anchor="middle" dominant-baseline="central" style="fill:white;font-size:11px;opacity:0.9">Card processing</text><rect x="860.00" y="570.00" width="160.00" height="80.00" style="fill:#999999;stroke:#6B6B6B;stroke-width:1.5"></rect><text x="940.00" y="581.00" text-anchor="middle" dominant-baseline="central" style="fill:white;font-size:10px;font-style:italic;opacity:0.85">&lt;&lt;external_system&gt;&gt;</text><text x="940.00" y="594.50" text-anchor="middle" dominant-baseline="central" style="fill:white;font-size:13px;font-weight:bold">SendGrid</text><text x="940.00" y="605.00" text-anchor="middle" dominant-baseline="central" style="fill:white;font-size:11px;opacity:0.9">Transactional email</text></svg>