<?xml version="1.0" encoding="UTF-8"?>
<svg xmlns="http://www.w3.org/2000/svg" viewBox="0.00 0.00 200.00 540.00"><defs><marker id="c4-arrow" viewBox="0 0 10 10" refX="9.00" refY="5.00" markerWidth="12.00" markerHeight="12.00" orient="auto"><polygon points="0,0 10,5 0,10" style="fill:#333"></polygon></marker></defs><rect x="0.00" y="0.00" width="200.00" height="540.00" style="fill:#fff;stroke:none"></rect><text x="100.00" y="35.00" text-anchor="middle" dominant-baseline="central" style="fill:#333;font-size:15px;font-weight:bold">Container diagram</text><line x1="100.00" y1="390.00" x2="100.00" y2="440.00" style="stroke:#333;stroke-width:1.5;fill:none" marker-end="url(#c4-arrow)"></line><rect x="64.04" y="397.80" width="71.92" height="34.40" rx="3.00" ry="3.00" style="fill:#fff;stroke:none"></rect><text x="100.00" y="408.40" text-anchor="middle" dominant-baseline="central" style="fill:#333;font-size:11px">Reads/writes</text><text x="100.00" y="421.60" text-anchor="middle" dominant-baseline="central" style="fill:#333;font-size:11px">[SQL]</text><line x1="100.00" y1="130.00" x2="100.00" y2="180.00" style="stroke:#333;stroke-width:1.5;fill:none" marker-end="url(#c4-arrow)"></line><rect x="74.91" y="137.80" width="50.19" height="34.40" rx="3.00" ry="3.00" style="fill:#fff;stroke:none"></rect><text x="100.00" y="148.40" text-anchor="middle" dominant-baseline="central" style="fill:#333;font-size:11px">Uses</text><text x="100.00" y="161.60" text-anchor="middle" dominant-baseline="central" style="fill:#333;font-size:11px">[HTTPS]</text><line x1="100.00" y1="260.00" x2="100.00" y2="310.00" style="stroke:#333;stroke-width:1.5;fill:none" marker-end="url(#c4-arrow)"></line><rect x="58.73" y="267.80" width="82.55" height="34.40" rx="3.00" ry="3.00" style="fill:#fff;stroke:none"></rect><text x="100.00" y="278.40" text-anchor="middle" dominant-baseline="central" style="fill:#333;font-size:11px">Calls</text><text x="100.00" y="291.60" text-anchor="middle" dominant-baseline="central" style="fill:#333;font-size:11px">[JSON/HTTPS]</text><rect x="20.00" y="50.00" width="160.00" height="80.00" rx="20.00" ry="20.00" style="fill:#08427B;stroke:#073B6F;stroke-width:1.5"></rect><text x="100.00" y="61.00" text-anchor="middle" dominant-baseline="central" style="fill:white;font-size:10px;font-style:italic;opacity:0.85">&lt;&lt;person&gt;&gt;</text><text x="100.00" y="74.50" text-anchor="middle" dominant-baseline="central" style="fill:white;font-size:13px;font-weight:bold">User</text><text x="100.00" y="85.00" text-anchor="middle" dominant-baseline="central" style="fill:white;font-size:11px;opacity:0.9">Application user</text><rect x="20.00" y="180.00" width="160.00" height="80.00" style="fill:#438DD5;stroke:#3C7FC0;stroke-width:1.5"></rect><text x="100.00" y="191.00" text-anchor="middle" dominant-baseline="central" style="fill:white;font-size:10px;font-style:italic;opacity:0.85">&lt;&lt;container&gt;&gt;</text><text x="100.00" y="204.50" text-anchor="middle" dominant-baseline="central" style="fill:white;font-size:13px;font-weight:bold">Web App</text><text x="100.00" y="215.00" text-anchor="middle" dominant-baseline="central" style="fill:white;font-size:11px">[React]</text><text x="100.00" y="226.00" text-anchor="middle" dominant-baseline="central" style="fill:white;font-size:11px;opacity:0.9">SPA frontend</text><rect x="20.00" y="310.00" width="160.00" height="80.00" style="fill:#438DD5;stroke:#3C7FC0;stroke-width:1.5"></rect><text x="100.00" y="321.00" text-anchor="middle" dominant-baseline="central" style="fill:white;font-size:10px;font-style:italic;opacity:0.85">&lt;&lt;container&gt;&gt;</text><text x="100.00" y="334.50" text-anchor="middle" dominant-baseline="central" style="fill:white;font-size:13px;font-weight:bold">API</text><text x="100.00" y="345.00" text-anchor="middle" dominant-baseline="central" style="fill:white;font-size:11px">[Go]</text><text x="100.00" y="356.00" text-anchor="middle" dominant-baseline="central" style="fill:white;font-size:11px;opacity:0.9">Business logic</text><path d="M20.00,448.00 L20.00,512.00 A80.00,8.00 0 0,0 180.00,512.00 L180.00,448.00 A80.00,8.00 0 0,0 20.00,448.00 M20.00,448.00 A80.00,8.00 0 0,0 180.00,448.00" style="fill:#438DD5;stroke:#3C7FC0;stroke-width:1.5"></path><text x="100.00" y="451.00" text-anchor="middle" dominant-baseline="central" style="fill:white;font-size:10px;font-style:italic;opacity:0.85">&lt;&lt;container_db&gt;&gt;</text><text x="100.00" y="464.50" text-anchor="middle" dominant-baseline="central" style="fill:white;font-size:13px;font-weight:bold">Database</text><text x="100.00" y="475.00" text-anchor="middle" dominant-baseline="central" style="fill:white;font-size:11px">[PostgreSQL]</text><text x="100.00" y="486.00" text-anchor="middle" dominant-baseline="central" style="fill:white;font-size:11px;opacity:0.9">Stores user data</text></svg>