<?xml version="1.0" encoding="UTF-8"?>
<svg xmlns="http://www.w3.org/2000/svg" viewBox="0 0 980.00 375.00"><rect x="0.00" y="0.00" width="980.00" height="375.00" style="fill:#fff;stroke:none"></rect><text x="490.00" y="35.00" text-anchor="middle" dominant-baseline="central" style="fill:#333;font-size:15px;font-weight:bold">Q1 Release Plan</text><line x1="140.00" y1="75.00" x2="960.00" y2="75.00" style="stroke:#ccc;stroke-width:1"></line><text x="140.00" y="69.00" text-anchor="middle" dominant-baseline="auto" style="fill:#666;font-size:11px">Jan 01</text><line x1="140.00" y1="72.00" x2="140.00" y2="78.00" style="stroke:#ccc;stroke-width:1"></line><text x="280.00" y="69.00" text-anchor="middle" dominant-baseline="auto" style="fill:#666;font-size:11px">Jan 08</text><line x1="280.00" y1="72.00" x2="280.00" y2="78.00" style="stroke:#ccc;stroke-width:1"></line><text x="420.00" y="69.00" text-anchor="middle" dominant-baseline="auto" style="fill:#666;font-size:11px">Jan 15</text><line x1="420.00" y1="72.00" x2="420.00" y2="78.00" style="stroke:#ccc;stroke-width:1"></line><text x="560.00" y="69.00" text-anchor="middle" dominant-baseline="auto" style="fill:#666;font-size:11px">Jan 22</text><line x1="560.00" y1="72.00" x2="560.00" y2="78.00" style="stroke:#ccc;stroke-width:1"></line><text x="700.00" y="69.00" text-anchor="middle" dominant-baseline="auto" style="fill:#666;font-size:11px">Jan 29</text><line x1="700.00" y1="72.00" x2="700.00" y2="78.00" style="stroke:#ccc;stroke-width:1"></line><text x="840.00" y="69.00" text-anchor="middle" dominant-baseline="auto" style="fill:#666;font-size:11px">Feb 05</text><line x1="840.00" y1="72.00" x2="840.00" y2="78.00" style="stroke:#ccc;stroke-width:1"></line><text x="132.00" y="86.00" text-anchor="end" dominant-baseline="central" style="fill:#333;font-size:13px;font-weight:bold">Planning</text><rect x="140.00" y="103.00" width="100.00" height="22.00" rx="3.00" ry="3.00" style="fill:#9370DB;stroke:none"></rect><text x="190.00" y="114.00" text-anchor="middle" dominant-baseline="central" style="fill:white;font-size:12px">Requirements</text><rect x="240.00" y="131.00" width="60.00" height="22.00" rx="3.00" ry="3.00" style="fill:#9370DB;stroke:none"></rect><text x="270.00" y="142.00" text-anchor="middle" dominant-baseline="central" style="fill:white;font-size:12px">Design review</text><text x="132.00" y="170.00" text-anchor="end" dominant-baseline="central" style="fill:#333;font-size:13px;font-weight:bold">Implementation</text><rect x="320.00" y="187.00" width="280.00" height="22.00" rx="3.00" ry="3.00" style="fill:#4e79a7;stroke:none"></rect><text x="460.00" y="198.00" text-anchor="middle" dominant-baseline="central" style="fill:white;font-size:12px">Feature A</text><rect x="600.00" y="215.00" width="200.00" height="22.00" rx="3.00" ry="3.00" style="fill:#76b7b2;stroke:none"></rect><text x="700.00" y="226.00" text-anchor="middle" dominant-baseline="central" style="fill:white;font-size:12px">Feature B</text><rect x="800.00" y="243.00" width="100.00" height="22.00" rx="3.00" ry="3.00" style="fill:#76b7b2;stroke:none"></rect><text x="850.00" y="254.00" text-anchor="middle" dominant-baseline="central" style="fill:white;font-size:12px">Bug fixes</text><text x="132.00" y="282.00" text-anchor="end" dominant-baseline="central" style="fill:#333;font-size:13px;font-weight:bold">Release</text><rect x="900.00" y="299.00" width="40.00" height="22.00" rx="3.00" ry="3.00" style="fill:#76b7b2;stroke:none"></rect><text x="920.00" y="310.00" text-anchor="middle" dominant-baseline="central" style="fill:white;font-size:12px">RC build</text><rect x="940.00" y="327.00" width="20.00" height="22.00" rx="3.00" ry="3.00" style="fill:#e15759;stroke:none"></rect><text x="950.00" y="338.00" text-anchor="middle" dominant-baseline="central" style="fill:white;font-size:12px">Deployment</text></svg>