<?xml version="1.0" encoding="UTF-8"?>
<svg xmlns="http://www.w3.org/2000/svg" viewBox="0 0 1060.64 291.00"><rect x="0.00" y="0.00" width="1060.64" height="291.00" style="fill:#fff;stroke:none"></rect><text x="530.32" y="35.00" text-anchor="middle" dominant-baseline="central" style="fill:#333;font-size:15px;font-weight:bold">Q1 Release Plan</text><rect x="20.00" y="75.00" width="1020.64" height="56.00" style="fill:#eaeaff;stroke:none"></rect><rect x="20.00" y="131.00" width="1020.64" height="84.00" style="fill:#ffffff;stroke:none"></rect><rect x="20.00" y="215.00" width="1020.64" height="56.00" style="fill:#fffbe6;stroke:none"></rect><line x1="140.00" y1="75.00" x2="960.00" y2="75.00" style="stroke:#999;stroke-width:1"></line><text x="140.00" y="69.00" text-anchor="middle" dominant-baseline="auto" style="fill:#333;font-size:11px">2024-01-01</text><line x1="140.00" y1="75.00" x2="140.00" y2="271.00" style="stroke:#d0d0d0;stroke-width:1"></line><text x="280.00" y="69.00" text-anchor="middle" dominant-baseline="auto" style="fill:#333;font-size:11px">2024-01-08</text><line x1="280.00" y1="75.00" x2="280.00" y2="271.00" style="stroke:#d0d0d0;stroke-width:1"></line><text x="420.00" y="69.00" text-anchor="middle" dominant-baseline="auto" style="fill:#333;font-size:11px">2024-01-15</text><line x1="420.00" y1="75.00" x2="420.00" y2="271.00" style="stroke:#d0d0d0;stroke-width:1"></line><text x="560.00" y="69.00" text-anchor="middle" dominant-baseline="auto" style="fill:#333;font-size:11px">2024-01-22</text><line x1="560.00" y1="75.00" x2="560.00" y2="271.00" style="stroke:#d0d0d0;stroke-width:1"></line><text x="700.00" y="69.00" text-anchor="middle" dominant-baseline="auto" style="fill:#333;font-size:11px">2024-01-29</text><line x1="700.00" y1="75.00" x2="700.00" y2="271.00" style="stroke:#d0d0d0;stroke-width:1"></line><text x="840.00" y="69.00" text-anchor="middle" dominant-baseline="auto" style="fill:#333;font-size:11px">2024-02-05</text><line x1="840.00" y1="75.00" x2="840.00" y2="271.00" style="stroke:#d0d0d0;stroke-width:1"></line><rect x="140.00" y="78.00" width="100.00" height="22.00" rx="3.00" ry="3.00" style="fill:#bfc7d1;stroke:none"></rect><text x="190.00" y="89.00" text-anchor="middle" dominant-baseline="central" style="fill:white;font-size:12px">Requirements</text><rect x="240.00" y="106.00" width="60.00" height="22.00" rx="3.00" ry="3.00" style="fill:#bfc7d1;stroke:none"></rect><text x="304.00" y="117.00" text-anchor="start" dominant-baseline="central" style="fill:#333;font-size:12px">Design review</text><text x="132.00" y="103.00" text-anchor="end" dominant-baseline="central" style="fill:#333;font-size:13px;font-weight:bold">Planning</text><rect x="320.00" y="134.00" width="280.00" height="22.00" rx="3.00" ry="3.00" style="fill:#8aa7cc;stroke:none"></rect><text x="460.00" y="145.00" text-anchor="middle" dominant-baseline="central" style="fill:white;font-size:12px">Feature A</text><rect x="600.00" y="162.00" width="200.00" height="22.00" rx="3.00" ry="3.00" style="fill:#8a8aca;stroke:none"></rect><text x="700.00" y="173.00" text-anchor="middle" dominant-baseline="central" style="fill:white;font-size:12px">Feature B</text><rect x="800.00" y="190.00" width="100.00" height="22.00" rx="3.00" ry="3.00" style="fill:#8a8aca;stroke:none"></rect><text x="850.00" y="201.00" text-anchor="middle" dominant-baseline="central" style="fill:white;font-size:12px">Bug fixes</text><text x="132.00" y="173.00" text-anchor="end" dominant-baseline="central" style="fill:#333;font-size:13px;font-weight:bold">Implementation</text><rect x="900.00" y="218.00" width="40.00" height="22.00" rx="3.00" ry="3.00" style="fill:#8a8aca;stroke:none"></rect><text x="944.00" y="229.00" text-anchor="start" dominant-baseline="central" style="fill:#333;font-size:12px">RC build</text><rect x="940.00" y="246.00" width="20.00" height="22.00" rx="3.00" ry="3.00" style="fill:#e15759;stroke:none"></rect><text x="964.00" y="257.00" text-anchor="start" dominant-baseline="central" style="fill:#333;font-size:12px">Deployment</text><text x="132.00" y="243.00" text-anchor="end" dominant-baseline="central" style="fill:#333;font-size:13px;font-weight:bold">Release</text></svg>