<?xml version="1.0" encoding="UTF-8"?>
<svg xmlns="http://www.w3.org/2000/svg" viewBox="0 0 872.00 235.00"><rect x="0.00" y="0.00" width="872.00" height="235.00" style="fill:#fff;stroke:none"></rect><text x="436.00" y="35.00" text-anchor="middle" dominant-baseline="central" style="fill:#333;font-size:15px;font-weight:bold">Project Timeline</text><rect x="20.00" y="75.00" width="832.00" height="56.00" style="fill:#eaeaff;stroke:none"></rect><rect x="20.00" y="131.00" width="832.00" height="56.00" style="fill:#ffffff;stroke:none"></rect><rect x="20.00" y="187.00" width="832.00" height="28.00" style="fill:#fffbe6;stroke:none"></rect><line x1="140.00" y1="75.00" x2="840.00" y2="75.00" style="stroke:#999;stroke-width:1"></line><text x="140.00" y="69.00" text-anchor="middle" dominant-baseline="auto" style="fill:#333;font-size:11px">2024-01-01</text><line x1="140.00" y1="75.00" x2="140.00" y2="215.00" style="stroke:#d0d0d0;stroke-width:1"></line><text x="280.00" y="69.00" text-anchor="middle" dominant-baseline="auto" style="fill:#333;font-size:11px">2024-01-08</text><line x1="280.00" y1="75.00" x2="280.00" y2="215.00" style="stroke:#d0d0d0;stroke-width:1"></line><text x="420.00" y="69.00" text-anchor="middle" dominant-baseline="auto" style="fill:#333;font-size:11px">2024-01-15</text><line x1="420.00" y1="75.00" x2="420.00" y2="215.00" style="stroke:#d0d0d0;stroke-width:1"></line><text x="560.00" y="69.00" text-anchor="middle" dominant-baseline="auto" style="fill:#333;font-size:11px">2024-01-22</text><line x1="560.00" y1="75.00" x2="560.00" y2="215.00" style="stroke:#d0d0d0;stroke-width:1"></line><text x="700.00" y="69.00" text-anchor="middle" dominant-baseline="auto" style="fill:#333;font-size:11px">2024-01-29</text><line x1="700.00" y1="75.00" x2="700.00" y2="215.00" style="stroke:#d0d0d0;stroke-width:1"></line><text x="840.00" y="69.00" text-anchor="middle" dominant-baseline="auto" style="fill:#333;font-size:11px">2024-02-05</text><line x1="840.00" y1="75.00" x2="840.00" y2="215.00" style="stroke:#d0d0d0;stroke-width:1"></line><rect x="140.00" y="78.00" width="140.00" height="22.00" rx="3.00" ry="3.00" style="fill:#bfc7d1;stroke:none"></rect><text x="210.00" y="89.00" text-anchor="middle" dominant-baseline="central" style="fill:white;font-size:12px">Wireframes</text><rect x="280.00" y="106.00" width="140.00" height="22.00" rx="3.00" ry="3.00" style="fill:#bfc7d1;stroke:none"></rect><text x="350.00" y="117.00" text-anchor="middle" dominant-baseline="central" style="fill:white;font-size:12px">Mockups</text><text x="132.00" y="103.00" text-anchor="end" dominant-baseline="central" style="fill:#333;font-size:13px;font-weight:bold">Design</text><rect x="420.00" y="134.00" width="280.00" height="22.00" rx="3.00" ry="3.00" style="fill:#8aa7cc;stroke:none"></rect><text x="560.00" y="145.00" text-anchor="middle" dominant-baseline="central" style="fill:white;font-size:12px">Frontend</text><rect x="420.00" y="162.00" width="280.00" height="22.00" rx="3.00" ry="3.00" style="fill:#8a8aca;stroke:none"></rect><text x="560.00" y="173.00" text-anchor="middle" dominant-baseline="central" style="fill:white;font-size:12px">Backend</text><text x="132.00" y="159.00" text-anchor="end" dominant-baseline="central" style="fill:#333;font-size:13px;font-weight:bold">Development</text><rect x="700.00" y="190.00" width="140.00" height="22.00" rx="3.00" ry="3.00" style="fill:#8a8aca;stroke:none"></rect><text x="770.00" y="201.00" text-anchor="middle" dominant-baseline="central" style="fill:white;font-size:12px">QA</text><text x="132.00" y="201.00" text-anchor="end" dominant-baseline="central" style="fill:#333;font-size:13px;font-weight:bold">Testing</text></svg>