<?xml version="1.0" encoding="UTF-8"?>
<svg xmlns="http://www.w3.org/2000/svg" viewBox="0 0 872.00 319.00"><rect x="0.00" y="0.00" width="872.00" height="319.00" style="fill:#fff;stroke:none"></rect><text x="436.00" y="35.00" text-anchor="middle" dominant-baseline="central" style="fill:#333;font-size:15px;font-weight:bold">Project Timeline</text><line x1="140.00" y1="75.00" x2="840.00" y2="75.00" style="stroke:#ccc;stroke-width:1"></line><text x="140.00" y="69.00" text-anchor="middle" dominant-baseline="auto" style="fill:#666;font-size:11px">Jan 01</text><line x1="140.00" y1="72.00" x2="140.00" y2="78.00" style="stroke:#ccc;stroke-width:1"></line><text x="280.00" y="69.00" text-anchor="middle" dominant-baseline="auto" style="fill:#666;font-size:11px">Jan 08</text><line x1="280.00" y1="72.00" x2="280.00" y2="78.00" style="stroke:#ccc;stroke-width:1"></line><text x="420.00" y="69.00" text-anchor="middle" dominant-baseline="auto" style="fill:#666;font-size:11px">Jan 15</text><line x1="420.00" y1="72.00" x2="420.00" y2="78.00" style="stroke:#ccc;stroke-width:1"></line><text x="560.00" y="69.00" text-anchor="middle" dominant-baseline="auto" style="fill:#666;font-size:11px">Jan 22</text><line x1="560.00" y1="72.00" x2="560.00" y2="78.00" style="stroke:#ccc;stroke-width:1"></line><text x="700.00" y="69.00" text-anchor="middle" dominant-baseline="auto" style="fill:#666;font-size:11px">Jan 29</text><line x1="700.00" y1="72.00" x2="700.00" y2="78.00" style="stroke:#ccc;stroke-width:1"></line><text x="840.00" y="69.00" text-anchor="middle" dominant-baseline="auto" style="fill:#666;font-size:11px">Feb 05</text><line x1="840.00" y1="72.00" x2="840.00" y2="78.00" style="stroke:#ccc;stroke-width:1"></line><text x="132.00" y="86.00" text-anchor="end" dominant-baseline="central" style="fill:#333;font-size:13px;font-weight:bold">Design</text><rect x="140.00" y="103.00" width="140.00" height="22.00" rx="3.00" ry="3.00" style="fill:#9370DB;stroke:none"></rect><text x="210.00" y="114.00" text-anchor="middle" dominant-baseline="central" style="fill:white;font-size:12px">Wireframes</text><rect x="280.00" y="131.00" width="140.00" height="22.00" rx="3.00" ry="3.00" style="fill:#9370DB;stroke:none"></rect><text x="350.00" y="142.00" text-anchor="middle" dominant-baseline="central" style="fill:white;font-size:12px">Mockups</text><text x="132.00" y="170.00" text-anchor="end" dominant-baseline="central" style="fill:#333;font-size:13px;font-weight:bold">Development</text><rect x="420.00" y="187.00" width="280.00" height="22.00" rx="3.00" ry="3.00" style="fill:#4e79a7;stroke:none"></rect><text x="560.00" y="198.00" text-anchor="middle" dominant-baseline="central" style="fill:white;font-size:12px">Frontend</text><rect x="420.00" y="215.00" width="280.00" height="22.00" rx="3.00" ry="3.00" style="fill:#76b7b2;stroke:none"></rect><text x="560.00" y="226.00" text-anchor="middle" dominant-baseline="central" style="fill:white;font-size:12px">Backend</text><text x="132.00" y="254.00" text-anchor="end" dominant-baseline="central" style="fill:#333;font-size:13px;font-weight:bold">Testing</text><rect x="700.00" y="271.00" width="140.00" height="22.00" rx="3.00" ry="3.00" style="fill:#76b7b2;stroke:none"></rect><text x="770.00" y="282.00" text-anchor="middle" dominant-baseline="central" style="fill:white;font-size:12px">QA</text></svg>