<?xml version="1.0" encoding="UTF-8"?>
<svg xmlns="http://www.w3.org/2000/svg" viewBox="0.00 0.00 511.50 250.00"><defs><marker id="state-arrow" viewBox="0 0 10 10" refX="9.00" refY="5.00" markerWidth="12.00" markerHeight="12.00" orient="auto"><polygon points="0,0 10,5 0,10" style="fill:#333"></polygon></marker></defs><rect x="0.00" y="0.00" width="511.50" height="250.00" style="fill:#fff;stroke:none"></rect><line x1="320.50" y1="50.00" x2="320.50" y2="100.00" style="stroke:#333;stroke-width:1.5;fill:none" marker-end="url(#state-arrow)"></line><rect x="288.45" y="66.50" width="44.09" height="22.00" style="fill:#fff;stroke:none"></rect><text x="310.50" y="77.50" text-anchor="middle" dominant-baseline="central" style="fill:#333;font-size:13px">invalid</text><line x1="309.30" y1="38.80" x2="120.00" y2="103.03" style="stroke:#333;stroke-width:1.5;fill:none" marker-end="url(#state-arrow)"></line><rect x="175.21" y="57.03" width="33.66" height="22.00" style="fill:#fff;stroke:none"></rect><text x="192.04" y="68.03" text-anchor="middle" dominant-baseline="central" style="fill:#333;font-size:13px">valid</text><line x1="331.67" y1="140.00" x2="359.58" y2="190.00" style="stroke:#333;stroke-width:1.5;fill:none" marker-end="url(#state-arrow)"></line><rect x="320.86" y="158.87" width="32.06" height="22.00" style="fill:#fff;stroke:none"></rect><text x="336.89" y="169.87" text-anchor="middle" dominant-baseline="central" style="fill:#333;font-size:13px">retry</text><path d="M381.92,190.00 C385.83,183.00 426.33,134.81 421.00,120.00 C415.67,105.19 337.86,49.69 328.63,41.87" style="stroke:#333;stroke-width:1.5;fill:none" marker-end="url(#state-arrow)"></path><line x1="81.17" y1="140.00" x2="115.86" y2="202.14" style="stroke:#333;stroke-width:1.5;fill:none" marker-end="url(#state-arrow)"></line><line x1="476.07" y1="124.41" x2="395.36" y2="190.00" style="stroke:#333;stroke-width:1.5;fill:none" marker-end="url(#state-arrow)"></line><rect x="320.75" y="190.00" width="100.00" height="40.00" rx="8.00" ry="8.00" style="fill:#ECECFF;stroke:#9370DB;stroke-width:1.5"></rect><text x="370.75" y="210.00" text-anchor="middle" dominant-baseline="central" style="fill:#333;font-size:14px">Idle</text><polygon points="320.50,20.00 335.50,35.00 320.50,50.00 305.50,35.00" style="fill:#ECECFF;stroke:#333;stroke-width:1.5"></polygon><rect x="20.00" y="100.00" width="100.00" height="40.00" rx="8.00" ry="8.00" style="fill:#ECECFF;stroke:#9370DB;stroke-width:1.5"></rect><text x="70.00" y="120.00" text-anchor="middle" dominant-baseline="central" style="fill:#333;font-size:14px">Running</text><rect x="270.50" y="100.00" width="100.00" height="40.00" rx="8.00" ry="8.00" style="fill:#ECECFF;stroke:#9370DB;stroke-width:1.5"></rect><text x="320.50" y="120.00" text-anchor="middle" dominant-baseline="central" style="fill:#333;font-size:14px">Error</text><circle cx="120.25" cy="210.00" r="9.00" style="fill:#fff;stroke:#333;stroke-width:1.5"></circle><circle cx="120.25" cy="210.00" r="4.00" style="fill:#333;stroke:none"></circle><circle cx="481.50" cy="120.00" r="7.00" style="fill:#333;stroke:none"></circle></svg>