<?xml version="1.0" encoding="UTF-8"?>
<svg xmlns="http://www.w3.org/2000/svg" viewBox="0.00 0.00 290.00 240.00"><defs><marker id="state-arrow" viewBox="0 0 10 10" refX="9.00" refY="5.00" markerWidth="12.00" markerHeight="12.00" orient="auto"><polygon points="0,0 10,5 0,10" style="fill:#333"></polygon></marker></defs><rect x="0.00" y="0.00" width="290.00" height="240.00" style="fill:#fff;stroke:none"></rect><line x1="70.00" y1="150.00" x2="70.00" y2="201.00" style="stroke:#333;stroke-width:1.5;fill:none" marker-end="url(#state-arrow)"></line><line x1="114.72" y1="60.00" x2="82.78" y2="110.00" style="stroke:#333;stroke-width:1.5;fill:none" marker-end="url(#state-arrow)"></line><line x1="148.06" y1="60.00" x2="199.44" y2="110.00" style="stroke:#333;stroke-width:1.5;fill:none" marker-end="url(#state-arrow)"></line><line x1="199.44" y1="110.00" x2="148.06" y2="60.00" style="stroke:#333;stroke-width:1.5;fill:none" marker-end="url(#state-arrow)"></line><line x1="220.00" y1="150.00" x2="220.00" y2="201.00" style="stroke:#333;stroke-width:1.5;fill:none" marker-end="url(#state-arrow)"></line><line x1="236.16" y1="46.87" x2="223.89" y2="110.00" style="stroke:#333;stroke-width:1.5;fill:none" marker-end="url(#state-arrow)"></line><rect x="170.00" y="110.00" width="100.00" height="40.00" rx="8.00" ry="8.00" style="fill:#ECECFF;stroke:#9370DB;stroke-width:1.5"></rect><text x="220.00" y="130.00" text-anchor="middle" dominant-baseline="central" style="fill:#333;font-size:14px">Still</text><rect x="77.50" y="20.00" width="100.00" height="40.00" rx="8.00" ry="8.00" style="fill:#ECECFF;stroke:#9370DB;stroke-width:1.5"></rect><text x="127.50" y="40.00" text-anchor="middle" dominant-baseline="central" style="fill:#333;font-size:14px">Moving</text><rect x="20.00" y="110.00" width="100.00" height="40.00" rx="8.00" ry="8.00" style="fill:#ECECFF;stroke:#9370DB;stroke-width:1.5"></rect><text x="70.00" y="130.00" text-anchor="middle" dominant-baseline="central" style="fill:#333;font-size:14px">Crash</text><circle cx="220.00" cy="210.00" r="9.00" style="fill:#fff;stroke:#333;stroke-width:1.5"></circle><circle cx="220.00" cy="210.00" r="4.00" style="fill:#333;stroke:none"></circle><circle cx="70.00" cy="210.00" r="9.00" style="fill:#fff;stroke:#333;stroke-width:1.5"></circle><circle cx="70.00" cy="210.00" r="4.00" style="fill:#333;stroke:none"></circle><circle cx="237.50" cy="40.00" r="7.00" style="fill:#333;stroke:none"></circle></svg>