<?xml version="1.0" encoding="UTF-8"?>
<svg xmlns="http://www.w3.org/2000/svg" viewBox="-14.00 0.00 388.00 310.00"><defs><marker id="state-arrow" viewBox="0 0 10 10" refX="9.00" refY="5.00" markerWidth="12.00" markerHeight="12.00" orient="auto"><polygon points="0,0 10,5 0,10" style="fill:#333"></polygon></marker></defs><rect x="-14.00" y="0.00" width="388.00" height="310.00" style="fill:#fff;stroke:none"></rect><rect x="116.00" y="56.00" width="128.00" height="86.00" rx="8.00" ry="8.00" style="fill:#f7f7ff;stroke:#9370DB;stroke-width:1.5"></rect><text x="130.00" y="73.00" text-anchor="start" dominant-baseline="central" style="fill:#555;font-size:13px;font-weight:bold">First</text><rect x="6.00" y="146.00" width="128.00" height="86.00" rx="8.00" ry="8.00" style="fill:#f7f7ff;stroke:#9370DB;stroke-width:1.5"></rect><text x="20.00" y="163.00" text-anchor="start" dominant-baseline="central" style="fill:#555;font-size:13px;font-weight:bold">Second</text><rect x="226.00" y="146.00" width="128.00" height="86.00" rx="8.00" ry="8.00" style="fill:#f7f7ff;stroke:#9370DB;stroke-width:1.5"></rect><text x="240.00" y="163.00" text-anchor="start" dominant-baseline="central" style="fill:#555;font-size:13px;font-weight:bold">Third</text><line x1="147.81" y1="36.41" x2="171.25" y2="90.00" style="stroke:#333;stroke-width:1.5;fill:none" marker-end="url(#state-arrow)"></line><line x1="212.19" y1="36.41" x2="188.75" y2="90.00" style="stroke:#333;stroke-width:1.5;fill:none" marker-end="url(#state-arrow)"></line><line x1="70.00" y1="117.00" x2="70.00" y2="180.00" style="stroke:#333;stroke-width:1.5;fill:none" marker-end="url(#state-arrow)"></line><line x1="290.00" y1="117.00" x2="290.00" y2="180.00" style="stroke:#333;stroke-width:1.5;fill:none" marker-end="url(#state-arrow)"></line><path d="M180.00,130.00 C180.00,132.50 180.00,152.50 180.00,155.00 C180.00,157.50 180.00,151.40 180.00,155.00 C180.00,158.60 180.00,187.40 180.00,191.00" style="stroke:#333;stroke-width:1.5;fill:none" marker-end="url(#state-arrow)"></path><path d="M168.89,130.00 C167.50,132.50 156.39,152.50 155.00,155.00 C153.61,157.50 159.72,152.50 155.00,155.00 C150.28,157.50 112.50,177.50 107.78,180.00" style="stroke:#333;stroke-width:1.5;fill:none" marker-end="url(#state-arrow)"></path><path d="M191.11,130.00 C192.50,132.50 203.61,152.50 205.00,155.00 C206.39,157.50 200.28,152.50 205.00,155.00 C209.72,157.50 247.50,177.50 252.22,180.00" style="stroke:#333;stroke-width:1.5;fill:none" marker-end="url(#state-arrow)"></path><line x1="70.00" y1="220.00" x2="70.00" y2="271.00" style="stroke:#333;stroke-width:1.5;fill:none" marker-end="url(#state-arrow)"></line><line x1="290.00" y1="220.00" x2="290.00" y2="271.00" style="stroke:#333;stroke-width:1.5;fill:none" marker-end="url(#state-arrow)"></line><rect x="130.00" y="90.00" width="100.00" height="40.00" rx="8.00" ry="8.00" style="fill:#ECECFF;stroke:#9370DB;stroke-width:1.5"></rect><text x="180.00" y="110.00" text-anchor="middle" dominant-baseline="central" style="fill:#333;font-size:14px">fir</text><rect x="20.00" y="180.00" width="100.00" height="40.00" rx="8.00" ry="8.00" style="fill:#ECECFF;stroke:#9370DB;stroke-width:1.5"></rect><text x="70.00" y="200.00" text-anchor="middle" dominant-baseline="central" style="fill:#333;font-size:14px">sec</text><rect x="240.00" y="180.00" width="100.00" height="40.00" rx="8.00" ry="8.00" style="fill:#ECECFF;stroke:#9370DB;stroke-width:1.5"></rect><text x="290.00" y="200.00" text-anchor="middle" dominant-baseline="central" style="fill:#333;font-size:14px">thi</text><circle cx="180.00" cy="200.00" r="9.00" style="fill:#fff;stroke:#333;stroke-width:1.5"></circle><circle cx="180.00" cy="200.00" r="4.00" style="fill:#333;stroke:none"></circle><circle cx="70.00" cy="280.00" r="9.00" style="fill:#fff;stroke:#333;stroke-width:1.5"></circle><circle cx="70.00" cy="280.00" r="4.00" style="fill:#333;stroke:none"></circle><circle cx="290.00" cy="280.00" r="9.00" style="fill:#fff;stroke:#333;stroke-width:1.5"></circle><circle cx="290.00" cy="280.00" r="4.00" style="fill:#333;stroke:none"></circle><circle cx="145.00" cy="30.00" r="7.00" style="fill:#333;stroke:none"></circle><circle cx="215.00" cy="30.00" r="7.00" style="fill:#333;stroke:none"></circle><circle cx="70.00" cy="110.00" r="7.00" style="fill:#333;stroke:none"></circle><circle cx="290.00" cy="110.00" r="7.00" style="fill:#333;stroke:none"></circle></svg>