<?xml version="1.0" encoding="UTF-8"?>
<svg xmlns="http://www.w3.org/2000/svg" viewBox="0.00 0.00 370.00 644.00"><defs><marker id="state-arrow" viewBox="0 0 10 10" refX="9.00" refY="5.00" markerWidth="12.00" markerHeight="12.00" orient="auto"><polygon points="0,0 10,5 0,10" style="fill:#333"></polygon></marker></defs><rect x="0.00" y="0.00" width="370.00" height="644.00" style="fill:#fff;stroke:none"></rect><rect x="115.00" y="90.00" width="140.00" height="242.00" rx="8.00" ry="8.00" style="fill:#f7f7ff;stroke:#9370DB;stroke-width:1.5"></rect><text x="129.00" y="107.00" text-anchor="start" dominant-baseline="central" style="fill:#555;font-size:13px;font-weight:bold">First</text><line x1="129.00" y1="112.00" x2="241.00" y2="112.00" style="stroke:#9370DB;stroke-width:1"></line><rect x="20.00" y="382.00" width="140.00" height="242.00" rx="8.00" ry="8.00" style="fill:#f7f7ff;stroke:#9370DB;stroke-width:1.5"></rect><text x="34.00" y="399.00" text-anchor="start" dominant-baseline="central" style="fill:#555;font-size:13px;font-weight:bold">Second</text><line x1="34.00" y1="404.00" x2="146.00" y2="404.00" style="stroke:#9370DB;stroke-width:1"></line><rect x="210.00" y="382.00" width="140.00" height="242.00" rx="8.00" ry="8.00" style="fill:#f7f7ff;stroke:#9370DB;stroke-width:1.5"></rect><text x="224.00" y="399.00" text-anchor="start" dominant-baseline="central" style="fill:#555;font-size:13px;font-weight:bold">Third</text><line x1="224.00" y1="404.00" x2="336.00" y2="404.00" style="stroke:#9370DB;stroke-width:1"></line><line x1="145.63" y1="332.00" x2="129.37" y2="382.00" style="stroke:#333;stroke-width:1.5;fill:none" marker-end="url(#state-arrow)"></line><line x1="224.37" y1="332.00" x2="240.63" y2="382.00" style="stroke:#333;stroke-width:1.5;fill:none" marker-end="url(#state-arrow)"></line><line x1="185.00" y1="149.00" x2="185.00" y2="202.00" style="stroke:#333;stroke-width:1.5;fill:none" marker-end="url(#state-arrow)"></line><line x1="90.00" y1="441.00" x2="90.00" y2="494.00" style="stroke:#333;stroke-width:1.5;fill:none" marker-end="url(#state-arrow)"></line><line x1="280.00" y1="441.00" x2="280.00" y2="494.00" style="stroke:#333;stroke-width:1.5;fill:none" marker-end="url(#state-arrow)"></line><line x1="185.00" y1="37.00" x2="185.00" y2="90.00" style="stroke:#333;stroke-width:1.5;fill:none" marker-end="url(#state-arrow)"></line><line x1="185.00" y1="242.00" x2="185.00" y2="293.00" style="stroke:#333;stroke-width:1.5;fill:none" marker-end="url(#state-arrow)"></line><line x1="90.00" y1="534.00" x2="90.00" y2="585.00" style="stroke:#333;stroke-width:1.5;fill:none" marker-end="url(#state-arrow)"></line><line x1="280.00" y1="534.00" x2="280.00" y2="585.00" style="stroke:#333;stroke-width:1.5;fill:none" marker-end="url(#state-arrow)"></line><rect x="135.00" y="202.00" width="100.00" height="40.00" rx="8.00" ry="8.00" style="fill:#ECECFF;stroke:#9370DB;stroke-width:1.5"></rect><text x="185.00" y="222.00" text-anchor="middle" dominant-baseline="central" style="fill:#333;font-size:14px">fir</text><rect x="40.00" y="494.00" width="100.00" height="40.00" rx="8.00" ry="8.00" style="fill:#ECECFF;stroke:#9370DB;stroke-width:1.5"></rect><text x="90.00" y="514.00" text-anchor="middle" dominant-baseline="central" style="fill:#333;font-size:14px">sec</text><rect x="230.00" y="494.00" width="100.00" height="40.00" rx="8.00" ry="8.00" style="fill:#ECECFF;stroke:#9370DB;stroke-width:1.5"></rect><text x="280.00" y="514.00" text-anchor="middle" dominant-baseline="central" style="fill:#333;font-size:14px">thi</text><circle cx="185.00" cy="302.00" r="9.00" style="fill:#fff;stroke:#333;stroke-width:1.5"></circle><circle cx="185.00" cy="302.00" r="4.00" style="fill:#333;stroke:none"></circle><circle cx="90.00" cy="594.00" r="9.00" style="fill:#fff;stroke:#333;stroke-width:1.5"></circle><circle cx="90.00" cy="594.00" r="4.00" style="fill:#333;stroke:none"></circle><circle cx="280.00" cy="594.00" r="9.00" style="fill:#fff;stroke:#333;stroke-width:1.5"></circle><circle cx="280.00" cy="594.00" r="4.00" style="fill:#333;stroke:none"></circle><circle cx="185.00" cy="142.00" r="7.00" style="fill:#333;stroke:none"></circle><circle cx="90.00" cy="434.00" r="7.00" style="fill:#333;stroke:none"></circle><circle cx="280.00" cy="434.00" r="7.00" style="fill:#333;stroke:none"></circle><circle cx="185.00" cy="30.00" r="7.00" style="fill:#333;stroke:none"></circle></svg>