<?xml version="1.0" encoding="UTF-8"?>
<svg xmlns="http://www.w3.org/2000/svg" viewBox="0.00 0.00 190.81 684.00"><defs><marker id="state-arrow" viewBox="0 0 10 10" refX="9.00" refY="5.00" markerWidth="12.00" markerHeight="12.00" orient="auto"><polygon points="0,0 10,5 0,10" style="fill:#333"></polygon></marker></defs><rect x="0.00" y="0.00" width="190.81" height="684.00" style="fill:#fff;stroke:none"></rect><rect x="25.41" y="90.00" width="140.00" height="262.00" rx="8.00" ry="8.00" style="fill:#f7f7ff;stroke:#9370DB;stroke-width:1.5"></rect><text x="39.41" y="107.00" text-anchor="start" dominant-baseline="central" style="fill:#555;font-size:13px;font-weight:bold">Active</text><line x1="39.41" y1="112.00" x2="151.41" y2="112.00" style="stroke:#9370DB;stroke-width:1"></line><rect x="20.00" y="402.00" width="150.81" height="262.00" rx="8.00" ry="8.00" style="fill:#f7f7ff;stroke:#9370DB;stroke-width:1.5"></rect><text x="34.00" y="419.00" text-anchor="start" dominant-baseline="central" style="fill:#555;font-size:13px;font-weight:bold">Inactive</text><line x1="34.00" y1="424.00" x2="156.81" y2="424.00" style="stroke:#9370DB;stroke-width:1"></line><path d="M95.41,352.00 C93.61,354.50 77.41,372.00 77.41,377.00 C77.41,382.00 93.61,399.50 95.41,402.00" style="stroke:#333;stroke-width:1.5;fill:none" marker-end="url(#state-arrow)"></path><rect x="36.43" y="360.16" width="65.72" height="22.00" style="fill:#fff;stroke:none"></rect><text x="69.29" y="371.16" text-anchor="middle" dominant-baseline="central" style="fill:#333;font-size:13px">deactivate</text><path d="M95.41,242.00 C93.61,244.50 77.41,262.00 77.41,267.00 C77.41,272.00 93.61,289.50 95.41,292.00" style="stroke:#333;stroke-width:1.5;fill:none" marker-end="url(#state-arrow)"></path><rect x="53.59" y="250.16" width="31.41" height="22.00" style="fill:#fff;stroke:none"></rect><text x="69.29" y="261.16" text-anchor="middle" dominant-baseline="central" style="fill:#333;font-size:13px">start</text><path d="M95.41,402.00 C97.21,399.50 113.41,382.00 113.41,377.00 C113.41,372.00 97.21,354.50 95.41,352.00" style="stroke:#333;stroke-width:1.5;fill:none" marker-end="url(#state-arrow)"></path><rect x="95.90" y="371.84" width="51.25" height="22.00" style="fill:#fff;stroke:none"></rect><text x="121.52" y="382.84" text-anchor="middle" dominant-baseline="central" style="fill:#333;font-size:13px">activate</text><path d="M95.41,292.00 C97.21,289.50 113.41,272.00 113.41,267.00 C113.41,262.00 97.21,244.50 95.41,242.00" style="stroke:#333;stroke-width:1.5;fill:none" marker-end="url(#state-arrow)"></path><rect x="106.20" y="261.84" width="30.64" height="22.00" style="fill:#fff;stroke:none"></rect><text x="121.52" y="272.84" text-anchor="middle" dominant-baseline="central" style="fill:#333;font-size:13px">stop</text><line x1="95.41" y1="554.00" x2="95.41" y2="604.00" style="stroke:#333;stroke-width:1.5;fill:none" marker-end="url(#state-arrow)"></line><rect x="55.66" y="568.00" width="59.48" height="22.00" style="fill:#fff;stroke:none"></rect><text x="85.41" y="579.00" text-anchor="middle" dominant-baseline="central" style="fill:#333;font-size:13px">power off</text><line x1="95.41" y1="149.00" x2="95.41" y2="202.00" style="stroke:#333;stroke-width:1.5;fill:none" marker-end="url(#state-arrow)"></line><line x1="95.41" y1="461.00" x2="95.41" y2="514.00" style="stroke:#333;stroke-width:1.5;fill:none" marker-end="url(#state-arrow)"></line><line x1="95.41" y1="37.00" x2="95.41" y2="90.00" style="stroke:#333;stroke-width:1.5;fill:none" marker-end="url(#state-arrow)"></line><rect x="45.41" y="202.00" width="100.00" height="40.00" rx="8.00" ry="8.00" style="fill:#ECECFF;stroke:#9370DB;stroke-width:1.5"></rect><text x="95.41" y="222.00" text-anchor="middle" dominant-baseline="central" style="fill:#333;font-size:14px">Idle</text><rect x="45.41" y="292.00" width="100.00" height="40.00" rx="8.00" ry="8.00" style="fill:#ECECFF;stroke:#9370DB;stroke-width:1.5"></rect><text x="95.41" y="312.00" text-anchor="middle" dominant-baseline="central" style="fill:#333;font-size:14px">Running</text><rect x="40.00" y="514.00" width="110.81" height="40.00" rx="8.00" ry="8.00" style="fill:#ECECFF;stroke:#9370DB;stroke-width:1.5"></rect><text x="95.41" y="534.00" text-anchor="middle" dominant-baseline="central" style="fill:#333;font-size:14px">Suspended</text><rect x="44.25" y="604.00" width="102.31" height="40.00" rx="8.00" ry="8.00" style="fill:#ECECFF;stroke:#9370DB;stroke-width:1.5"></rect><text x="95.41" y="624.00" text-anchor="middle" dominant-baseline="central" style="fill:#333;font-size:14px">Shutdown</text><circle cx="95.41" cy="142.00" r="7.00" style="fill:#333;stroke:none"></circle><circle cx="95.41" cy="454.00" r="7.00" style="fill:#333;stroke:none"></circle><circle cx="95.41" cy="30.00" r="7.00" style="fill:#333;stroke:none"></circle></svg>