<?xml version="1.0" encoding="UTF-8"?>
<svg xmlns="http://www.w3.org/2000/svg" viewBox="-14.00 0.00 328.81 342.00"><defs><marker id="state-arrow" viewBox="0 0 10 10" refX="9.00" refY="5.00" markerWidth="12.00" markerHeight="12.00" orient="auto"><polygon points="0,0 10,5 0,10" style="fill:#333"></polygon></marker></defs><rect x="-14.00" y="0.00" width="328.81" height="342.00" style="fill:#fff;stroke:none"></rect><rect x="6.00" y="56.00" width="189.55" height="176.00" rx="8.00" ry="8.00" style="fill:#f7f7ff;stroke:#9370DB;stroke-width:1.5"></rect><text x="20.00" y="73.00" text-anchor="start" dominant-baseline="central" style="fill:#555;font-size:13px;font-weight:bold">Active</text><rect x="156.00" y="146.00" width="138.81" height="176.00" rx="8.00" ry="8.00" style="fill:#f7f7ff;stroke:#9370DB;stroke-width:1.5"></rect><text x="170.00" y="163.00" text-anchor="start" dominant-baseline="central" style="fill:#555;font-size:13px;font-weight:bold">Inactive</text><line x1="117.88" y1="130.00" x2="83.68" y2="180.00" style="stroke:#333;stroke-width:1.5;fill:none" marker-end="url(#state-arrow)"></line><rect x="76.82" y="138.35" width="31.41" height="22.00" style="fill:#fff;stroke:none"></rect><text x="92.52" y="149.35" text-anchor="middle" dominant-baseline="central" style="fill:#333;font-size:13px">start</text><line x1="152.41" y1="130.00" x2="204.55" y2="180.00" style="stroke:#333;stroke-width:1.5;fill:none" marker-end="url(#state-arrow)"></line><rect x="138.70" y="151.22" width="65.72" height="22.00" style="fill:#fff;stroke:none"></rect><text x="171.56" y="162.22" text-anchor="middle" dominant-baseline="central" style="fill:#333;font-size:13px">deactivate</text><line x1="83.68" y1="180.00" x2="117.88" y2="130.00" style="stroke:#333;stroke-width:1.5;fill:none" marker-end="url(#state-arrow)"></line><rect x="93.71" y="149.65" width="30.64" height="22.00" style="fill:#fff;stroke:none"></rect><text x="109.03" y="160.65" text-anchor="middle" dominant-baseline="central" style="fill:#333;font-size:13px">stop</text><line x1="204.55" y1="180.00" x2="152.41" y2="130.00" style="stroke:#333;stroke-width:1.5;fill:none" marker-end="url(#state-arrow)"></line><rect x="159.78" y="136.78" width="51.25" height="22.00" style="fill:#fff;stroke:none"></rect><text x="185.40" y="147.78" text-anchor="middle" dominant-baseline="central" style="fill:#333;font-size:13px">activate</text><line x1="225.41" y1="220.00" x2="225.41" y2="270.00" style="stroke:#333;stroke-width:1.5;fill:none" marker-end="url(#state-arrow)"></line><rect x="185.66" y="234.00" width="59.48" height="22.00" style="fill:#fff;stroke:none"></rect><text x="215.41" y="245.00" text-anchor="middle" dominant-baseline="central" style="fill:#333;font-size:13px">power off</text><line x1="99.36" y1="36.41" x2="122.80" y2="90.00" style="stroke:#333;stroke-width:1.5;fill:none" marker-end="url(#state-arrow)"></line><line x1="163.75" y1="36.41" x2="140.30" y2="90.00" style="stroke:#333;stroke-width:1.5;fill:none" marker-end="url(#state-arrow)"></line><line x1="240.32" y1="116.89" x2="228.99" y2="180.00" style="stroke:#333;stroke-width:1.5;fill:none" marker-end="url(#state-arrow)"></line><rect x="81.55" y="90.00" width="100.00" height="40.00" rx="8.00" ry="8.00" style="fill:#ECECFF;stroke:#9370DB;stroke-width:1.5"></rect><text x="131.55" y="110.00" text-anchor="middle" dominant-baseline="central" style="fill:#333;font-size:14px">Idle</text><rect x="20.00" y="180.00" width="100.00" height="40.00" rx="8.00" ry="8.00" style="fill:#ECECFF;stroke:#9370DB;stroke-width:1.5"></rect><text x="70.00" y="200.00" text-anchor="middle" dominant-baseline="central" style="fill:#333;font-size:14px">Running</text><rect x="170.00" y="180.00" width="110.81" height="40.00" rx="8.00" ry="8.00" style="fill:#ECECFF;stroke:#9370DB;stroke-width:1.5"></rect><text x="225.41" y="200.00" text-anchor="middle" dominant-baseline="central" style="fill:#333;font-size:14px">Suspended</text><rect x="174.25" y="270.00" width="102.31" height="40.00" rx="8.00" ry="8.00" style="fill:#ECECFF;stroke:#9370DB;stroke-width:1.5"></rect><text x="225.41" y="290.00" text-anchor="middle" dominant-baseline="central" style="fill:#333;font-size:14px">Shutdown</text><circle cx="96.55" cy="30.00" r="7.00" style="fill:#333;stroke:none"></circle><circle cx="166.55" cy="30.00" r="7.00" style="fill:#333;stroke:none"></circle><circle cx="241.55" cy="110.00" r="7.00" style="fill:#333;stroke:none"></circle></svg>