<?xml version="1.0" encoding="UTF-8"?>
<svg xmlns="http://www.w3.org/2000/svg" viewBox="0.00 0.00 368.69 372.00"><defs><marker id="state-arrow" viewBox="0 0 10 10" refX="9.00" refY="5.00" markerWidth="12.00" markerHeight="12.00" orient="auto"><polygon points="0,0 10,5 0,10" style="fill:#333"></polygon></marker></defs><rect x="0.00" y="0.00" width="368.69" height="372.00" style="fill:#fff;stroke:none"></rect><rect x="20.00" y="90.00" width="328.69" height="262.00" rx="8.00" ry="8.00" style="fill:#f7f7ff;stroke:#9370DB;stroke-width:1.5"></rect><text x="34.00" y="107.00" text-anchor="start" dominant-baseline="central" style="fill:#555;font-size:13px;font-weight:bold">Active</text><line x1="34.00" y1="112.00" x2="334.69" y2="112.00" style="stroke:#9370DB;stroke-width:1"></line><line x1="268.23" y1="242.00" x2="268.23" y2="292.00" style="stroke:#333;stroke-width:1.5;fill:none" marker-end="url(#state-arrow)"></line><rect x="194.88" y="256.00" width="126.70" height="22.00" style="fill:#fff;stroke:none"></rect><text x="258.23" y="267.00" text-anchor="middle" dominant-baseline="central" style="fill:#333;font-size:13px">EvCapsLockPressed</text><line x1="268.23" y1="292.00" x2="268.23" y2="242.00" style="stroke:#333;stroke-width:1.5;fill:none" marker-end="url(#state-arrow)"></line><rect x="214.88" y="256.00" width="126.70" height="22.00" style="fill:#fff;stroke:none"></rect><text x="278.23" y="267.00" text-anchor="middle" dominant-baseline="central" style="fill:#333;font-size:13px">EvCapsLockPressed</text><line x1="98.89" y1="242.00" x2="98.89" y2="292.00" style="stroke:#333;stroke-width:1.5;fill:none" marker-end="url(#state-arrow)"></line><rect x="26.99" y="256.00" width="123.80" height="22.00" style="fill:#fff;stroke:none"></rect><text x="88.89" y="267.00" text-anchor="middle" dominant-baseline="central" style="fill:#333;font-size:13px">EvNumLockPressed</text><line x1="98.89" y1="292.00" x2="98.89" y2="242.00" style="stroke:#333;stroke-width:1.5;fill:none" marker-end="url(#state-arrow)"></line><rect x="46.99" y="256.00" width="123.80" height="22.00" style="fill:#fff;stroke:none"></rect><text x="108.89" y="267.00" text-anchor="middle" dominant-baseline="central" style="fill:#333;font-size:13px">EvNumLockPressed</text><line x1="98.89" y1="149.00" x2="98.89" y2="202.00" style="stroke:#333;stroke-width:1.5;fill:none" marker-end="url(#state-arrow)"></line><line x1="268.23" y1="149.00" x2="268.23" y2="202.00" style="stroke:#333;stroke-width:1.5;fill:none" marker-end="url(#state-arrow)"></line><line x1="184.34" y1="37.00" x2="184.34" y2="90.00" style="stroke:#333;stroke-width:1.5;fill:none" marker-end="url(#state-arrow)"></line><rect x="40.00" y="202.00" width="117.78" height="40.00" rx="8.00" ry="8.00" style="fill:#ECECFF;stroke:#9370DB;stroke-width:1.5"></rect><text x="98.89" y="222.00" text-anchor="middle" dominant-baseline="central" style="fill:#333;font-size:14px">NumLockOff</text><rect x="40.00" y="292.00" width="117.78" height="40.00" rx="8.00" ry="8.00" style="fill:#ECECFF;stroke:#9370DB;stroke-width:1.5"></rect><text x="98.89" y="312.00" text-anchor="middle" dominant-baseline="central" style="fill:#333;font-size:14px">NumLockOn</text><rect x="207.78" y="202.00" width="120.91" height="40.00" rx="8.00" ry="8.00" style="fill:#ECECFF;stroke:#9370DB;stroke-width:1.5"></rect><text x="268.23" y="222.00" text-anchor="middle" dominant-baseline="central" style="fill:#333;font-size:14px">CapsLockOff</text><rect x="207.78" y="292.00" width="120.91" height="40.00" rx="8.00" ry="8.00" style="fill:#ECECFF;stroke:#9370DB;stroke-width:1.5"></rect><text x="268.23" y="312.00" text-anchor="middle" dominant-baseline="central" style="fill:#333;font-size:14px">CapsLockOn</text><circle cx="98.89" cy="142.00" r="7.00" style="fill:#333;stroke:none"></circle><circle cx="268.23" cy="142.00" r="7.00" style="fill:#333;stroke:none"></circle><circle cx="184.34" cy="30.00" r="7.00" style="fill:#333;stroke:none"></circle></svg>