<?xml version="1.0" encoding="UTF-8"?>
<svg xmlns="http://www.w3.org/2000/svg" viewBox="0.00 0.00 368.69 372.00"><defs><marker id="state-arrow" viewBox="0 0 10 10" refX="9.00" refY="5.00" markerWidth="12.00" markerHeight="12.00" orient="auto"><polygon points="0,0 10,5 0,10" style="fill:#333"></polygon></marker></defs><rect x="0.00" y="0.00" width="368.69" height="372.00" style="fill:#fff;stroke:none"></rect><rect x="20.00" y="90.00" width="328.69" height="262.00" rx="8.00" ry="8.00" style="fill:#f7f7ff;stroke:#9370DB;stroke-width:1.5"></rect><text x="34.00" y="107.00" text-anchor="start" dominant-baseline="central" style="fill:#555;font-size:13px;font-weight:bold">Active</text><line x1="34.00" y1="112.00" x2="334.69" y2="112.00" style="stroke:#9370DB;stroke-width:1"></line><line x1="100.45" y1="242.00" x2="100.45" y2="292.00" style="stroke:#333;stroke-width:1.5;fill:none" marker-end="url(#state-arrow)"></line><rect x="27.10" y="256.00" width="126.70" height="22.00" style="fill:#fff;stroke:none"></rect><text x="90.45" y="267.00" text-anchor="middle" dominant-baseline="central" style="fill:#333;font-size:13px">EvCapsLockPressed</text><line x1="100.45" y1="292.00" x2="100.45" y2="242.00" style="stroke:#333;stroke-width:1.5;fill:none" marker-end="url(#state-arrow)"></line><rect x="47.10" y="256.00" width="126.70" height="22.00" style="fill:#fff;stroke:none"></rect><text x="110.45" y="267.00" text-anchor="middle" dominant-baseline="central" style="fill:#333;font-size:13px">EvCapsLockPressed</text><line x1="269.80" y1="242.00" x2="269.80" y2="292.00" style="stroke:#333;stroke-width:1.5;fill:none" marker-end="url(#state-arrow)"></line><rect x="197.90" y="256.00" width="123.80" height="22.00" style="fill:#fff;stroke:none"></rect><text x="259.80" y="267.00" text-anchor="middle" dominant-baseline="central" style="fill:#333;font-size:13px">EvNumLockPressed</text><line x1="269.80" y1="292.00" x2="269.80" y2="242.00" style="stroke:#333;stroke-width:1.5;fill:none" marker-end="url(#state-arrow)"></line><rect x="217.90" y="256.00" width="123.80" height="22.00" style="fill:#fff;stroke:none"></rect><text x="279.80" y="267.00" text-anchor="middle" dominant-baseline="central" style="fill:#333;font-size:13px">EvNumLockPressed</text><line x1="180.04" y1="146.81" x2="121.62" y2="202.00" style="stroke:#333;stroke-width:1.5;fill:none" marker-end="url(#state-arrow)"></line><line x1="190.21" y1="146.81" x2="248.63" y2="202.00" style="stroke:#333;stroke-width:1.5;fill:none" marker-end="url(#state-arrow)"></line><line x1="184.34" y1="37.00" x2="184.34" y2="90.00" style="stroke:#333;stroke-width:1.5;fill:none" marker-end="url(#state-arrow)"></line><rect x="210.91" y="202.00" width="117.78" height="40.00" rx="8.00" ry="8.00" style="fill:#ECECFF;stroke:#9370DB;stroke-width:1.5"></rect><text x="269.80" y="222.00" text-anchor="middle" dominant-baseline="central" style="fill:#333;font-size:14px">NumLockOff</text><rect x="210.91" y="292.00" width="117.78" height="40.00" rx="8.00" ry="8.00" style="fill:#ECECFF;stroke:#9370DB;stroke-width:1.5"></rect><text x="269.80" y="312.00" text-anchor="middle" dominant-baseline="central" style="fill:#333;font-size:14px">NumLockOn</text><rect x="40.00" y="202.00" width="120.91" height="40.00" rx="8.00" ry="8.00" style="fill:#ECECFF;stroke:#9370DB;stroke-width:1.5"></rect><text x="100.45" y="222.00" text-anchor="middle" dominant-baseline="central" style="fill:#333;font-size:14px">CapsLockOff</text><rect x="40.00" y="292.00" width="120.91" height="40.00" rx="8.00" ry="8.00" style="fill:#ECECFF;stroke:#9370DB;stroke-width:1.5"></rect><text x="100.45" y="312.00" text-anchor="middle" dominant-baseline="central" style="fill:#333;font-size:14px">CapsLockOn</text><circle cx="185.13" cy="142.00" r="7.00" style="fill:#333;stroke:none"></circle><circle cx="184.34" cy="30.00" r="7.00" style="fill:#333;stroke:none"></circle></svg>