<?xml version="1.0" encoding="UTF-8"?>
<svg xmlns="http://www.w3.org/2000/svg" viewBox="-14.00 0.00 531.20 252.00"><defs><marker id="state-arrow" viewBox="0 0 10 10" refX="9.00" refY="5.00" markerWidth="12.00" markerHeight="12.00" orient="auto"><polygon points="0,0 10,5 0,10" style="fill:#333"></polygon></marker></defs><rect x="-14.00" y="0.00" width="531.20" height="252.00" style="fill:#fff;stroke:none"></rect><rect x="6.00" y="56.00" width="491.20" height="176.00" rx="8.00" ry="8.00" style="fill:#f7f7ff;stroke:#9370DB;stroke-width:1.5"></rect><text x="20.00" y="73.00" text-anchor="start" dominant-baseline="central" style="fill:#555;font-size:13px;font-weight:bold">Active</text><line x1="248.23" y1="130.00" x2="248.23" y2="180.00" style="stroke:#333;stroke-width:1.5;fill:none" marker-end="url(#state-arrow)"></line><rect x="174.88" y="144.00" width="126.70" height="22.00" style="fill:#fff;stroke:none"></rect><text x="238.23" y="155.00" text-anchor="middle" dominant-baseline="central" style="fill:#333;font-size:13px">EvCapsLockPressed</text><line x1="248.23" y1="180.00" x2="248.23" y2="130.00" style="stroke:#333;stroke-width:1.5;fill:none" marker-end="url(#state-arrow)"></line><rect x="194.88" y="144.00" width="126.70" height="22.00" style="fill:#fff;stroke:none"></rect><text x="258.23" y="155.00" text-anchor="middle" dominant-baseline="central" style="fill:#333;font-size:13px">EvCapsLockPressed</text><line x1="78.89" y1="130.00" x2="78.89" y2="180.00" style="stroke:#333;stroke-width:1.5;fill:none" marker-end="url(#state-arrow)"></line><rect x="6.99" y="144.00" width="123.80" height="22.00" style="fill:#fff;stroke:none"></rect><text x="68.89" y="155.00" text-anchor="middle" dominant-baseline="central" style="fill:#333;font-size:13px">EvNumLockPressed</text><line x1="78.89" y1="180.00" x2="78.89" y2="130.00" style="stroke:#333;stroke-width:1.5;fill:none" marker-end="url(#state-arrow)"></line><rect x="26.99" y="144.00" width="123.80" height="22.00" style="fill:#fff;stroke:none"></rect><text x="88.89" y="155.00" text-anchor="middle" dominant-baseline="central" style="fill:#333;font-size:13px">EvNumLockPressed</text><line x1="420.95" y1="130.00" x2="420.95" y2="180.00" style="stroke:#333;stroke-width:1.5;fill:none" marker-end="url(#state-arrow)"></line><rect x="345.92" y="144.00" width="130.05" height="22.00" style="fill:#fff;stroke:none"></rect><text x="410.95" y="155.00" text-anchor="middle" dominant-baseline="central" style="fill:#333;font-size:13px">EvScrollLockPressed</text><line x1="420.95" y1="180.00" x2="420.95" y2="130.00" style="stroke:#333;stroke-width:1.5;fill:none" marker-end="url(#state-arrow)"></line><rect x="365.92" y="144.00" width="130.05" height="22.00" style="fill:#fff;stroke:none"></rect><text x="430.95" y="155.00" text-anchor="middle" dominant-baseline="central" style="fill:#333;font-size:13px">EvScrollLockPressed</text><line x1="46.70" y1="36.41" x2="70.14" y2="90.00" style="stroke:#333;stroke-width:1.5;fill:none" marker-end="url(#state-arrow)"></line><line x1="111.08" y1="36.41" x2="87.64" y2="90.00" style="stroke:#333;stroke-width:1.5;fill:none" marker-end="url(#state-arrow)"></line><line x1="216.04" y1="36.41" x2="239.48" y2="90.00" style="stroke:#333;stroke-width:1.5;fill:none" marker-end="url(#state-arrow)"></line><line x1="388.75" y1="36.41" x2="412.20" y2="90.00" style="stroke:#333;stroke-width:1.5;fill:none" marker-end="url(#state-arrow)"></line><rect x="20.00" y="90.00" width="117.78" height="40.00" rx="8.00" ry="8.00" style="fill:#ECECFF;stroke:#9370DB;stroke-width:1.5"></rect><text x="78.89" y="110.00" text-anchor="middle" dominant-baseline="central" style="fill:#333;font-size:14px">NumLockOff</text><rect x="20.00" y="180.00" width="117.78" height="40.00" rx="8.00" ry="8.00" style="fill:#ECECFF;stroke:#9370DB;stroke-width:1.5"></rect><text x="78.89" y="200.00" text-anchor="middle" dominant-baseline="central" style="fill:#333;font-size:14px">NumLockOn</text><rect x="187.78" y="90.00" width="120.91" height="40.00" rx="8.00" ry="8.00" style="fill:#ECECFF;stroke:#9370DB;stroke-width:1.5"></rect><text x="248.23" y="110.00" text-anchor="middle" dominant-baseline="central" style="fill:#333;font-size:14px">CapsLockOff</text><rect x="187.78" y="180.00" width="120.91" height="40.00" rx="8.00" ry="8.00" style="fill:#ECECFF;stroke:#9370DB;stroke-width:1.5"></rect><text x="248.23" y="200.00" text-anchor="middle" dominant-baseline="central" style="fill:#333;font-size:14px">CapsLockOn</text><rect x="358.69" y="90.00" width="124.52" height="40.00" rx="8.00" ry="8.00" style="fill:#ECECFF;stroke:#9370DB;stroke-width:1.5"></rect><text x="420.95" y="110.00" text-anchor="middle" dominant-baseline="central" style="fill:#333;font-size:14px">ScrollLockOff</text><rect x="358.69" y="180.00" width="124.52" height="40.00" rx="8.00" ry="8.00" style="fill:#ECECFF;stroke:#9370DB;stroke-width:1.5"></rect><text x="420.95" y="200.00" text-anchor="middle" dominant-baseline="central" style="fill:#333;font-size:14px">ScrollLockOn</text><circle cx="43.89" cy="30.00" r="7.00" style="fill:#333;stroke:none"></circle><circle cx="113.89" cy="30.00" r="7.00" style="fill:#333;stroke:none"></circle><circle cx="213.23" cy="30.00" r="7.00" style="fill:#333;stroke:none"></circle><circle cx="385.95" cy="30.00" r="7.00" style="fill:#333;stroke:none"></circle></svg>