<?xml version="1.0" encoding="UTF-8"?>
<svg xmlns="http://www.w3.org/2000/svg" viewBox="0.00 0.00 363.80 252.00"><defs><marker id="state-arrow" viewBox="0 0 10 10" refX="9.00" refY="5.00" markerWidth="12.00" markerHeight="12.00" orient="auto"><polygon points="0,0 10,5 0,10" style="fill:#333"></polygon></marker></defs><rect x="0.00" y="0.00" width="363.80" height="252.00" style="fill:#fff;stroke:none"></rect><rect x="27.11" y="56.00" width="316.69" height="176.00" rx="8.00" ry="8.00" style="fill:#f7f7ff;stroke:#9370DB;stroke-width:1.5"></rect><text x="41.11" y="73.00" text-anchor="start" dominant-baseline="central" style="fill:#555;font-size:13px;font-weight:bold">Active</text><line x1="269.34" y1="130.00" x2="269.34" y2="180.00" style="stroke:#333;stroke-width:1.5;fill:none" marker-end="url(#state-arrow)"></line><rect x="195.99" y="144.00" width="126.70" height="22.00" style="fill:#fff;stroke:none"></rect><text x="259.34" y="155.00" text-anchor="middle" dominant-baseline="central" style="fill:#333;font-size:13px">EvCapsLockPressed</text><line x1="269.34" y1="180.00" x2="269.34" y2="130.00" style="stroke:#333;stroke-width:1.5;fill:none" marker-end="url(#state-arrow)"></line><rect x="215.99" y="144.00" width="126.70" height="22.00" style="fill:#fff;stroke:none"></rect><text x="279.34" y="155.00" text-anchor="middle" dominant-baseline="central" style="fill:#333;font-size:13px">EvCapsLockPressed</text><line x1="100.00" y1="130.00" x2="100.00" y2="180.00" style="stroke:#333;stroke-width:1.5;fill:none" marker-end="url(#state-arrow)"></line><rect x="28.10" y="144.00" width="123.80" height="22.00" style="fill:#fff;stroke:none"></rect><text x="90.00" y="155.00" text-anchor="middle" dominant-baseline="central" style="fill:#333;font-size:13px">EvNumLockPressed</text><line x1="100.00" y1="180.00" x2="100.00" y2="130.00" style="stroke:#333;stroke-width:1.5;fill:none" marker-end="url(#state-arrow)"></line><rect x="48.10" y="144.00" width="123.80" height="22.00" style="fill:#fff;stroke:none"></rect><text x="110.00" y="155.00" text-anchor="middle" dominant-baseline="central" style="fill:#333;font-size:13px">EvNumLockPressed</text><line x1="34.61" y1="35.27" x2="82.50" y2="90.00" style="stroke:#333;stroke-width:1.5;fill:none" marker-end="url(#state-arrow)"></line><line x1="100.00" y1="37.00" x2="100.00" y2="90.00" style="stroke:#333;stroke-width:1.5;fill:none" marker-end="url(#state-arrow)"></line><line x1="203.95" y1="35.27" x2="251.84" y2="90.00" style="stroke:#333;stroke-width:1.5;fill:none" marker-end="url(#state-arrow)"></line><rect x="41.11" y="90.00" width="117.78" height="40.00" rx="8.00" ry="8.00" style="fill:#ECECFF;stroke:#9370DB;stroke-width:1.5"></rect><text x="100.00" y="110.00" text-anchor="middle" dominant-baseline="central" style="fill:#333;font-size:14px">NumLockOff</text><rect x="41.11" y="180.00" width="117.78" height="40.00" rx="8.00" ry="8.00" style="fill:#ECECFF;stroke:#9370DB;stroke-width:1.5"></rect><text x="100.00" y="200.00" text-anchor="middle" dominant-baseline="central" style="fill:#333;font-size:14px">NumLockOn</text><rect x="208.89" y="90.00" width="120.91" height="40.00" rx="8.00" ry="8.00" style="fill:#ECECFF;stroke:#9370DB;stroke-width:1.5"></rect><text x="269.34" y="110.00" text-anchor="middle" dominant-baseline="central" style="fill:#333;font-size:14px">CapsLockOff</text><rect x="208.89" y="180.00" width="120.91" height="40.00" rx="8.00" ry="8.00" style="fill:#ECECFF;stroke:#9370DB;stroke-width:1.5"></rect><text x="269.34" y="200.00" text-anchor="middle" dominant-baseline="central" style="fill:#333;font-size:14px">CapsLockOn</text><circle cx="30.00" cy="30.00" r="7.00" style="fill:#333;stroke:none"></circle><circle cx="100.00" cy="30.00" r="7.00" style="fill:#333;stroke:none"></circle><circle cx="199.34" cy="30.00" r="7.00" style="fill:#333;stroke:none"></circle></svg>