<?xml version="1.0" encoding="UTF-8"?>
<svg xmlns="http://www.w3.org/2000/svg" viewBox="0.00 0.00 543.20 372.00"><defs><marker id="state-arrow" viewBox="0 0 10 10" refX="9.00" refY="5.00" markerWidth="12.00" markerHeight="12.00" orient="auto"><polygon points="0,0 10,5 0,10" style="fill:#333"></polygon></marker></defs><rect x="0.00" y="0.00" width="543.20" height="372.00" style="fill:#fff;stroke:none"></rect><rect x="20.00" y="90.00" width="503.20" height="262.00" rx="8.00" ry="8.00" style="fill:#f7f7ff;stroke:#9370DB;stroke-width:1.5"></rect><text x="34.00" y="107.00" text-anchor="start" dominant-baseline="central" style="fill:#555;font-size:13px;font-weight:bold">Active</text><line x1="34.00" y1="112.00" x2="509.20" y2="112.00" style="stroke:#9370DB;stroke-width:1"></line><line x1="100.45" y1="242.00" x2="100.45" y2="292.00" style="stroke:#333;stroke-width:1.5;fill:none" marker-end="url(#state-arrow)"></line><rect x="27.10" y="256.00" width="126.70" height="22.00" style="fill:#fff;stroke:none"></rect><text x="90.45" y="267.00" text-anchor="middle" dominant-baseline="central" style="fill:#333;font-size:13px">EvCapsLockPressed</text><line x1="100.45" y1="292.00" x2="100.45" y2="242.00" style="stroke:#333;stroke-width:1.5;fill:none" marker-end="url(#state-arrow)"></line><rect x="47.10" y="256.00" width="126.70" height="22.00" style="fill:#fff;stroke:none"></rect><text x="110.45" y="267.00" text-anchor="middle" dominant-baseline="central" style="fill:#333;font-size:13px">EvCapsLockPressed</text><line x1="269.80" y1="242.00" x2="269.80" y2="292.00" style="stroke:#333;stroke-width:1.5;fill:none" marker-end="url(#state-arrow)"></line><rect x="197.90" y="256.00" width="123.80" height="22.00" style="fill:#fff;stroke:none"></rect><text x="259.80" y="267.00" text-anchor="middle" dominant-baseline="central" style="fill:#333;font-size:13px">EvNumLockPressed</text><line x1="269.80" y1="292.00" x2="269.80" y2="242.00" style="stroke:#333;stroke-width:1.5;fill:none" marker-end="url(#state-arrow)"></line><rect x="217.90" y="256.00" width="123.80" height="22.00" style="fill:#fff;stroke:none"></rect><text x="279.80" y="267.00" text-anchor="middle" dominant-baseline="central" style="fill:#333;font-size:13px">EvNumLockPressed</text><line x1="440.95" y1="242.00" x2="440.95" y2="292.00" style="stroke:#333;stroke-width:1.5;fill:none" marker-end="url(#state-arrow)"></line><rect x="365.92" y="256.00" width="130.05" height="22.00" style="fill:#fff;stroke:none"></rect><text x="430.95" y="267.00" text-anchor="middle" dominant-baseline="central" style="fill:#333;font-size:13px">EvScrollLockPressed</text><line x1="440.95" y1="292.00" x2="440.95" y2="242.00" style="stroke:#333;stroke-width:1.5;fill:none" marker-end="url(#state-arrow)"></line><rect x="385.92" y="256.00" width="130.05" height="22.00" style="fill:#fff;stroke:none"></rect><text x="450.95" y="267.00" text-anchor="middle" dominant-baseline="central" style="fill:#333;font-size:13px">EvScrollLockPressed</text><path d="M268.81,148.93 C268.41,151.74 265.20,174.19 264.80,177.00 C264.40,179.81 275.19,174.16 264.80,177.00 C254.41,179.84 171.30,202.60 160.91,205.45" style="stroke:#333;stroke-width:1.5;fill:none" marker-end="url(#state-arrow)"></path><path d="M269.80,149.00 C269.80,151.80 269.80,174.20 269.80,177.00 C269.80,179.80 269.80,174.50 269.80,177.00 C269.80,179.50 269.80,199.50 269.80,202.00" style="stroke:#333;stroke-width:1.5;fill:none" marker-end="url(#state-arrow)"></path><path d="M270.79,148.93 C271.19,151.74 274.40,174.19 274.80,177.00 C275.20,179.81 264.41,174.19 274.80,177.00 C285.19,179.81 368.30,202.32 378.69,205.14" style="stroke:#333;stroke-width:1.5;fill:none" marker-end="url(#state-arrow)"></path><line x1="271.60" y1="37.00" x2="271.60" y2="90.00" style="stroke:#333;stroke-width:1.5;fill:none" marker-end="url(#state-arrow)"></line><rect x="210.91" y="202.00" width="117.78" height="40.00" rx="8.00" ry="8.00" style="fill:#ECECFF;stroke:#9370DB;stroke-width:1.5"></rect><text x="269.80" y="222.00" text-anchor="middle" dominant-baseline="central" style="fill:#333;font-size:14px">NumLockOff</text><rect x="210.91" y="292.00" width="117.78" height="40.00" rx="8.00" ry="8.00" style="fill:#ECECFF;stroke:#9370DB;stroke-width:1.5"></rect><text x="269.80" y="312.00" text-anchor="middle" dominant-baseline="central" style="fill:#333;font-size:14px">NumLockOn</text><rect x="40.00" y="202.00" width="120.91" height="40.00" rx="8.00" ry="8.00" style="fill:#ECECFF;stroke:#9370DB;stroke-width:1.5"></rect><text x="100.45" y="222.00" text-anchor="middle" dominant-baseline="central" style="fill:#333;font-size:14px">CapsLockOff</text><rect x="40.00" y="292.00" width="120.91" height="40.00" rx="8.00" ry="8.00" style="fill:#ECECFF;stroke:#9370DB;stroke-width:1.5"></rect><text x="100.45" y="312.00" text-anchor="middle" dominant-baseline="central" style="fill:#333;font-size:14px">CapsLockOn</text><rect x="378.69" y="202.00" width="124.52" height="40.00" rx="8.00" ry="8.00" style="fill:#ECECFF;stroke:#9370DB;stroke-width:1.5"></rect><text x="440.95" y="222.00" text-anchor="middle" dominant-baseline="central" style="fill:#333;font-size:14px">ScrollLockOff</text><rect x="378.69" y="292.00" width="124.52" height="40.00" rx="8.00" ry="8.00" style="fill:#ECECFF;stroke:#9370DB;stroke-width:1.5"></rect><text x="440.95" y="312.00" text-anchor="middle" dominant-baseline="central" style="fill:#333;font-size:14px">ScrollLockOn</text><circle cx="269.80" cy="142.00" r="7.00" style="fill:#333;stroke:none"></circle><circle cx="271.60" cy="30.00" r="7.00" style="fill:#333;stroke:none"></circle></svg>