<?xml version="1.0" encoding="UTF-8"?>
<svg xmlns="http://www.w3.org/2000/svg" viewBox="-14.00 0.00 492.69 257.00"><defs><marker id="state-arrow" viewBox="0 0 10 10" refX="9.00" refY="5.00" markerWidth="12.00" markerHeight="12.00" orient="auto"><polygon points="0,0 10,5 0,10" style="fill:#333"></polygon></marker></defs><rect x="-14.00" y="0.00" width="492.69" height="257.00" style="fill:#fff;stroke:none"></rect><rect x="6.00" y="56.00" width="316.69" height="181.00" rx="8.00" ry="8.00" style="fill:#f7f7ff;stroke:#9370DB;stroke-width:1.5"></rect><text x="20.00" y="73.00" text-anchor="start" dominant-baseline="central" style="fill:#555;font-size:13px;font-weight:bold">Active</text><line x1="20.00" y1="157.50" x2="308.69" y2="157.50" style="stroke:#9370DB;stroke-width:1;stroke-dasharray:5,4"></line><line x1="248.23" y1="130.00" x2="248.23" y2="185.00" style="stroke:#333;stroke-width:1.5;fill:none" marker-end="url(#state-arrow)"></line><rect x="174.88" y="146.50" width="126.70" height="22.00" style="fill:#fff;stroke:none"></rect><text x="238.23" y="157.50" text-anchor="middle" dominant-baseline="central" style="fill:#333;font-size:13px">EvCapsLockPressed</text><line x1="248.23" y1="185.00" x2="248.23" y2="130.00" style="stroke:#333;stroke-width:1.5;fill:none" marker-end="url(#state-arrow)"></line><rect x="194.88" y="146.50" width="126.70" height="22.00" style="fill:#fff;stroke:none"></rect><text x="258.23" y="157.50" text-anchor="middle" dominant-baseline="central" style="fill:#333;font-size:13px">EvCapsLockPressed</text><line x1="78.89" y1="130.00" x2="78.89" y2="185.00" style="stroke:#333;stroke-width:1.5;fill:none" marker-end="url(#state-arrow)"></line><rect x="6.99" y="146.50" width="123.80" height="22.00" style="fill:#fff;stroke:none"></rect><text x="68.89" y="157.50" text-anchor="middle" dominant-baseline="central" style="fill:#333;font-size:13px">EvNumLockPressed</text><line x1="78.89" y1="185.00" x2="78.89" y2="130.00" style="stroke:#333;stroke-width:1.5;fill:none" marker-end="url(#state-arrow)"></line><rect x="26.99" y="146.50" width="123.80" height="22.00" style="fill:#fff;stroke:none"></rect><text x="88.89" y="157.50" text-anchor="middle" dominant-baseline="central" style="fill:#333;font-size:13px">EvNumLockPressed</text><line x1="408.69" y1="117.00" x2="408.69" y2="180.00" style="stroke:#333;stroke-width:1.5;fill:none" marker-end="url(#state-arrow)"></line><line x1="78.89" y1="37.00" x2="78.89" y2="90.00" style="stroke:#333;stroke-width:1.5;fill:none" marker-end="url(#state-arrow)"></line><line x1="248.23" y1="37.00" x2="248.23" y2="90.00" style="stroke:#333;stroke-width:1.5;fill:none" marker-end="url(#state-arrow)"></line><rect x="20.00" y="90.00" width="117.78" height="40.00" rx="8.00" ry="8.00" style="fill:#ECECFF;stroke:#9370DB;stroke-width:1.5"></rect><text x="78.89" y="110.00" text-anchor="middle" dominant-baseline="central" style="fill:#333;font-size:14px">NumLockOff</text><rect x="20.00" y="185.00" width="117.78" height="40.00" rx="8.00" ry="8.00" style="fill:#ECECFF;stroke:#9370DB;stroke-width:1.5"></rect><text x="78.89" y="205.00" text-anchor="middle" dominant-baseline="central" style="fill:#333;font-size:14px">NumLockOn</text><rect x="187.78" y="90.00" width="120.91" height="40.00" rx="8.00" ry="8.00" style="fill:#ECECFF;stroke:#9370DB;stroke-width:1.5"></rect><text x="248.23" y="110.00" text-anchor="middle" dominant-baseline="central" style="fill:#333;font-size:14px">CapsLockOff</text><rect x="187.78" y="185.00" width="120.91" height="40.00" rx="8.00" ry="8.00" style="fill:#ECECFF;stroke:#9370DB;stroke-width:1.5"></rect><text x="248.23" y="205.00" text-anchor="middle" dominant-baseline="central" style="fill:#333;font-size:14px">CapsLockOn</text><circle cx="408.69" cy="110.00" r="7.00" style="fill:#333;stroke:none"></circle><circle cx="78.89" cy="30.00" r="7.00" style="fill:#333;stroke:none"></circle><circle cx="248.23" cy="30.00" r="7.00" style="fill:#333;stroke:none"></circle></svg>