<?xml version="1.0" encoding="UTF-8"?>
<svg xmlns="http://www.w3.org/2000/svg" viewBox="0.00 0.00 543.20 372.00"><defs><marker id="state-arrow" viewBox="0 0 10 10" refX="9.00" refY="5.00" markerWidth="12.00" markerHeight="12.00" orient="auto"><polygon points="0,0 10,5 0,10" style="fill:#333"></polygon></marker></defs><rect x="0.00" y="0.00" width="543.20" height="372.00" style="fill:#fff;stroke:none"></rect><rect x="20.00" y="90.00" width="503.20" height="262.00" rx="8.00" ry="8.00" style="fill:#f7f7ff;stroke:#9370DB;stroke-width:1.5"></rect><text x="34.00" y="107.00" text-anchor="start" dominant-baseline="central" style="fill:#555;font-size:13px;font-weight:bold">Active</text><line x1="34.00" y1="112.00" x2="509.20" y2="112.00" style="stroke:#9370DB;stroke-width:1"></line><path d="M268.23,242.00 C266.43,244.50 250.23,262.00 250.23,267.00 C250.23,272.00 266.43,289.50 268.23,292.00" style="stroke:#333;stroke-width:1.5;fill:none" marker-end="url(#state-arrow)"></path><rect x="178.77" y="250.16" width="126.70" height="22.00" style="fill:#fff;stroke:none"></rect><text x="242.12" y="261.16" text-anchor="middle" dominant-baseline="central" style="fill:#333;font-size:13px">EvCapsLockPressed</text><path d="M268.23,292.00 C270.03,289.50 286.23,272.00 286.23,267.00 C286.23,262.00 270.03,244.50 268.23,242.00" style="stroke:#333;stroke-width:1.5;fill:none" marker-end="url(#state-arrow)"></path><rect x="231.00" y="261.84" width="126.70" height="22.00" style="fill:#fff;stroke:none"></rect><text x="294.35" y="272.84" text-anchor="middle" dominant-baseline="central" style="fill:#333;font-size:13px">EvCapsLockPressed</text><path d="M98.89,242.00 C97.09,244.50 80.89,262.00 80.89,267.00 C80.89,272.00 97.09,289.50 98.89,292.00" style="stroke:#333;stroke-width:1.5;fill:none" marker-end="url(#state-arrow)"></path><rect x="10.88" y="250.16" width="123.80" height="22.00" style="fill:#fff;stroke:none"></rect><text x="72.78" y="261.16" text-anchor="middle" dominant-baseline="central" style="fill:#333;font-size:13px">EvNumLockPressed</text><path d="M98.89,292.00 C100.69,289.50 116.89,272.00 116.89,267.00 C116.89,262.00 100.69,244.50 98.89,242.00" style="stroke:#333;stroke-width:1.5;fill:none" marker-end="url(#state-arrow)"></path><rect x="63.11" y="261.84" width="123.80" height="22.00" style="fill:#fff;stroke:none"></rect><text x="125.01" y="272.84" text-anchor="middle" dominant-baseline="central" style="fill:#333;font-size:13px">EvNumLockPressed</text><path d="M440.95,242.00 C439.15,244.50 422.95,262.00 422.95,267.00 C422.95,272.00 439.15,289.50 440.95,292.00" style="stroke:#333;stroke-width:1.5;fill:none" marker-end="url(#state-arrow)"></path><rect x="349.81" y="250.16" width="130.05" height="22.00" style="fill:#fff;stroke:none"></rect><text x="414.83" y="261.16" text-anchor="middle" dominant-baseline="central" style="fill:#333;font-size:13px">EvScrollLockPressed</text><path d="M440.95,292.00 C442.75,289.50 458.95,272.00 458.95,267.00 C458.95,262.00 442.75,244.50 440.95,242.00" style="stroke:#333;stroke-width:1.5;fill:none" marker-end="url(#state-arrow)"></path><rect x="402.04" y="261.84" width="130.05" height="22.00" style="fill:#fff;stroke:none"></rect><text x="467.06" y="272.84" text-anchor="middle" dominant-baseline="central" style="fill:#333;font-size:13px">EvScrollLockPressed</text><line x1="98.89" y1="149.00" x2="98.89" y2="202.00" style="stroke:#333;stroke-width:1.5;fill:none" marker-end="url(#state-arrow)"></line><line x1="268.23" y1="149.00" x2="268.23" y2="202.00" style="stroke:#333;stroke-width:1.5;fill:none" marker-end="url(#state-arrow)"></line><line x1="440.95" y1="149.00" x2="440.95" y2="202.00" style="stroke:#333;stroke-width:1.5;fill:none" marker-end="url(#state-arrow)"></line><line x1="271.60" y1="37.00" x2="271.60" y2="90.00" style="stroke:#333;stroke-width:1.5;fill:none" marker-end="url(#state-arrow)"></line><rect x="40.00" y="202.00" width="117.78" height="40.00" rx="8.00" ry="8.00" style="fill:#ECECFF;stroke:#9370DB;stroke-width:1.5"></rect><text x="98.89" y="222.00" text-anchor="middle" dominant-baseline="central" style="fill:#333;font-size:14px">NumLockOff</text><rect x="40.00" y="292.00" width="117.78" height="40.00" rx="8.00" ry="8.00" style="fill:#ECECFF;stroke:#9370DB;stroke-width:1.5"></rect><text x="98.89" y="312.00" text-anchor="middle" dominant-baseline="central" style="fill:#333;font-size:14px">NumLockOn</text><rect x="207.78" y="202.00" width="120.91" height="40.00" rx="8.00" ry="8.00" style="fill:#ECECFF;stroke:#9370DB;stroke-width:1.5"></rect><text x="268.23" y="222.00" text-anchor="middle" dominant-baseline="central" style="fill:#333;font-size:14px">CapsLockOff</text><rect x="207.78" y="292.00" width="120.91" height="40.00" rx="8.00" ry="8.00" style="fill:#ECECFF;stroke:#9370DB;stroke-width:1.5"></rect><text x="268.23" y="312.00" text-anchor="middle" dominant-baseline="central" style="fill:#333;font-size:14px">CapsLockOn</text><rect x="378.69" y="202.00" width="124.52" height="40.00" rx="8.00" ry="8.00" style="fill:#ECECFF;stroke:#9370DB;stroke-width:1.5"></rect><text x="440.95" y="222.00" text-anchor="middle" dominant-baseline="central" style="fill:#333;font-size:14px">ScrollLockOff</text><rect x="378.69" y="292.00" width="124.52" height="40.00" rx="8.00" ry="8.00" style="fill:#ECECFF;stroke:#9370DB;stroke-width:1.5"></rect><text x="440.95" y="312.00" text-anchor="middle" dominant-baseline="central" style="fill:#333;font-size:14px">ScrollLockOn</text><circle cx="98.89" cy="142.00" r="7.00" style="fill:#333;stroke:none"></circle><circle cx="268.23" cy="142.00" r="7.00" style="fill:#333;stroke:none"></circle><circle cx="440.95" cy="142.00" r="7.00" style="fill:#333;stroke:none"></circle><circle cx="271.60" cy="30.00" r="7.00" style="fill:#333;stroke:none"></circle></svg>