<?xml version="1.0" encoding="UTF-8"?>
<svg xmlns="http://www.w3.org/2000/svg" viewBox="0.00 0.00 281.03 536.00"><defs><marker id="state-arrow" viewBox="0 0 10 10" refX="9.00" refY="5.00" markerWidth="12.00" markerHeight="12.00" orient="auto"><polygon points="0,0 10,5 0,10" style="fill:#333"></polygon></marker></defs><rect x="0.00" y="0.00" width="281.03" height="536.00" style="fill:#fff;stroke:none"></rect><rect x="121.03" y="180.00" width="140.00" height="172.00" rx="8.00" ry="8.00" style="fill:#f7f7ff;stroke:#9370DB;stroke-width:1.5"></rect><text x="135.03" y="197.00" text-anchor="start" dominant-baseline="central" style="fill:#555;font-size:13px;font-weight:bold">Running</text><line x1="135.03" y1="202.00" x2="247.03" y2="202.00" style="stroke:#9370DB;stroke-width:1"></line><line x1="191.03" y1="130.00" x2="191.03" y2="180.00" style="stroke:#333;stroke-width:1.5;fill:none" marker-end="url(#state-arrow)"></line><path d="M191.03,492.00 C191.03,485.00 191.03,436.00 191.03,422.00 C191.03,408.00 191.03,359.00 191.03,352.00" style="stroke:#333;stroke-width:1.5;fill:none" marker-end="url(#state-arrow)"></path><rect x="177.77" y="452.00" width="46.53" height="22.00" style="fill:#fff;stroke:none"></rect><text x="201.03" y="463.00" text-anchor="middle" dominant-baseline="central" style="fill:#333;font-size:13px">restore</text><line x1="107.28" y1="442.00" x2="181.39" y2="496.86" style="stroke:#333;stroke-width:1.5;fill:none" marker-end="url(#state-arrow)"></line><rect x="112.23" y="460.04" width="34.94" height="22.00" style="fill:#fff;stroke:none"></rect><text x="129.70" y="471.04" text-anchor="middle" dominant-baseline="central" style="fill:#333;font-size:13px">done</text><path d="M219.15,352.00 C221.44,359.00 244.21,407.82 242.03,422.00 C239.85,436.18 201.84,486.63 197.37,493.81" style="stroke:#333;stroke-width:1.5;fill:none" marker-end="url(#state-arrow)"></path><line x1="129.97" y1="352.00" x2="94.47" y2="402.00" style="stroke:#333;stroke-width:1.5;fill:none" marker-end="url(#state-arrow)"></line><rect x="98.17" y="327.21" width="58.66" height="22.00" style="fill:#fff;stroke:none"></rect><text x="127.49" y="338.21" text-anchor="middle" dominant-baseline="central" style="fill:#333;font-size:13px">schedule</text><line x1="191.03" y1="239.00" x2="191.03" y2="292.00" style="stroke:#333;stroke-width:1.5;fill:none" marker-end="url(#state-arrow)"></line><line x1="191.03" y1="37.00" x2="191.03" y2="90.00" style="stroke:#333;stroke-width:1.5;fill:none" marker-end="url(#state-arrow)"></line><rect x="141.03" y="90.00" width="100.00" height="40.00" rx="8.00" ry="8.00" style="fill:#ECECFF;stroke:#9370DB;stroke-width:1.5"></rect><text x="191.03" y="110.00" text-anchor="middle" dominant-baseline="central" style="fill:#333;font-size:14px">Booting</text><rect x="141.03" y="292.00" width="100.00" height="40.00" rx="8.00" ry="8.00" style="fill:#ECECFF;stroke:#9370DB;stroke-width:1.5"></rect><text x="191.03" y="312.00" text-anchor="middle" dominant-baseline="central" style="fill:#333;font-size:14px">Normal</text><circle cx="191.03" cy="504.00" r="12.00" style="fill:#fff;stroke:#9370DB;stroke-width:1.5"></circle><text x="191.03" y="504.00" text-anchor="middle" dominant-baseline="central" style="fill:#333;font-size:13px;font-weight:bold">H*</text><rect x="20.00" y="402.00" width="120.53" height="40.00" rx="8.00" ry="8.00" style="fill:#ECECFF;stroke:#9370DB;stroke-width:1.5"></rect><text x="80.27" y="422.00" text-anchor="middle" dominant-baseline="central" style="fill:#333;font-size:14px">Maintenance</text><circle cx="191.03" cy="232.00" r="7.00" style="fill:#333;stroke:none"></circle><circle cx="191.03" cy="30.00" r="7.00" style="fill:#333;stroke:none"></circle></svg>