<?xml version="1.0" encoding="UTF-8"?>
<svg xmlns="http://www.w3.org/2000/svg" viewBox="0.00 0.00 236.39 552.00"><defs><marker id="state-arrow" viewBox="0 0 10 10" refX="9.00" refY="5.00" markerWidth="12.00" markerHeight="12.00" orient="auto"><polygon points="0,0 10,5 0,10" style="fill:#333"></polygon></marker></defs><rect x="0.00" y="0.00" width="236.39" height="552.00" style="fill:#fff;stroke:none"></rect><rect x="25.88" y="180.00" width="140.00" height="262.00" rx="8.00" ry="8.00" style="fill:#f7f7ff;stroke:#9370DB;stroke-width:1.5"></rect><text x="39.88" y="197.00" text-anchor="start" dominant-baseline="central" style="fill:#555;font-size:13px;font-weight:bold">Running</text><line x1="39.88" y1="202.00" x2="151.88" y2="202.00" style="stroke:#9370DB;stroke-width:1"></line><line x1="72.57" y1="130.00" x2="79.01" y2="180.00" style="stroke:#333;stroke-width:1.5;fill:none" marker-end="url(#state-arrow)"></line><line x1="95.88" y1="382.00" x2="152.01" y2="180.00" style="stroke:#333;stroke-width:1.5;fill:none" marker-end="url(#state-arrow)"></line><rect x="125.31" y="202.18" width="46.53" height="22.00" style="fill:#fff;stroke:none"></rect><text x="148.57" y="213.18" text-anchor="middle" dominant-baseline="central" style="fill:#333;font-size:13px">restore</text><path d="M162.12,492.00 C167.55,473.90 220.35,322.00 216.38,311.00 C212.40,300.00 131.76,374.90 122.36,382.00" style="stroke:#333;stroke-width:1.5;fill:none" marker-end="url(#state-arrow)"></path><rect x="178.36" y="403.37" width="34.94" height="22.00" style="fill:#fff;stroke:none"></rect><text x="195.83" y="414.37" text-anchor="middle" dominant-baseline="central" style="fill:#333;font-size:13px">done</text><line x1="95.88" y1="332.00" x2="95.88" y2="382.00" style="stroke:#333;stroke-width:1.5;fill:none" marker-end="url(#state-arrow)"></line><line x1="135.14" y1="442.00" x2="150.13" y2="492.00" style="stroke:#333;stroke-width:1.5;fill:none" marker-end="url(#state-arrow)"></line><rect x="87.09" y="403.37" width="58.66" height="22.00" style="fill:#fff;stroke:none"></rect><text x="116.42" y="414.37" text-anchor="middle" dominant-baseline="central" style="fill:#333;font-size:13px">schedule</text><line x1="95.88" y1="239.00" x2="95.88" y2="292.00" style="stroke:#333;stroke-width:1.5;fill:none" marker-end="url(#state-arrow)"></line><line x1="70.00" y1="37.00" x2="70.00" y2="90.00" style="stroke:#333;stroke-width:1.5;fill:none" marker-end="url(#state-arrow)"></line><rect x="20.00" y="90.00" width="100.00" height="40.00" rx="8.00" ry="8.00" style="fill:#ECECFF;stroke:#9370DB;stroke-width:1.5"></rect><text x="70.00" y="110.00" text-anchor="middle" dominant-baseline="central" style="fill:#333;font-size:14px">Booting</text><rect x="45.88" y="292.00" width="100.00" height="40.00" rx="8.00" ry="8.00" style="fill:#ECECFF;stroke:#9370DB;stroke-width:1.5"></rect><text x="95.88" y="312.00" text-anchor="middle" dominant-baseline="central" style="fill:#333;font-size:14px">Normal</text><rect x="45.88" y="382.00" width="100.00" height="40.00" rx="8.00" ry="8.00" style="fill:#ECECFF;stroke:#9370DB;stroke-width:1.5"></rect><text x="95.88" y="402.00" text-anchor="middle" dominant-baseline="central" style="fill:#333;font-size:14px">DH</text><circle cx="95.88" cy="402.00" r="12.00" style="fill:#fff;stroke:#9370DB;stroke-width:1.5"></circle><text x="95.88" y="402.00" text-anchor="middle" dominant-baseline="central" style="fill:#333;font-size:13px;font-weight:bold">H*</text><rect x="95.86" y="492.00" width="120.53" height="40.00" rx="8.00" ry="8.00" style="fill:#ECECFF;stroke:#9370DB;stroke-width:1.5"></rect><text x="156.13" y="512.00" text-anchor="middle" dominant-baseline="central" style="fill:#333;font-size:14px">Maintenance</text><circle cx="95.88" cy="232.00" r="7.00" style="fill:#333;stroke:none"></circle><circle cx="70.00" cy="30.00" r="7.00" style="fill:#333;stroke:none"></circle></svg>