<?xml version="1.0" encoding="UTF-8"?>
<svg xmlns="http://www.w3.org/2000/svg" viewBox="0.00 0.00 276.03 416.00"><defs><marker id="state-arrow" viewBox="0 0 10 10" refX="9.00" refY="5.00" markerWidth="12.00" markerHeight="12.00" orient="auto"><polygon points="0,0 10,5 0,10" style="fill:#333"></polygon></marker></defs><rect x="0.00" y="0.00" width="276.03" height="416.00" style="fill:#fff;stroke:none"></rect><rect x="127.03" y="146.00" width="128.00" height="250.00" rx="8.00" ry="8.00" style="fill:#f7f7ff;stroke:#9370DB;stroke-width:1.5"></rect><text x="141.03" y="163.00" text-anchor="start" dominant-baseline="central" style="fill:#555;font-size:13px;font-weight:bold">Running</text><line x1="148.25" y1="130.00" x2="178.81" y2="180.00" style="stroke:#333;stroke-width:1.5;fill:none" marker-end="url(#state-arrow)"></line><path d="M191.03,360.00 C191.03,353.00 191.03,304.00 191.03,290.00 C191.03,276.00 191.03,227.00 191.03,220.00" style="stroke:#333;stroke-width:1.5;fill:none" marker-end="url(#state-arrow)"></path><rect x="177.77" y="320.00" width="46.53" height="22.00" style="fill:#fff;stroke:none"></rect><text x="201.03" y="331.00" text-anchor="middle" dominant-baseline="central" style="fill:#333;font-size:13px">restore</text><line x1="107.28" y1="310.00" x2="179.03" y2="363.12" style="stroke:#333;stroke-width:1.5;fill:none" marker-end="url(#state-arrow)"></line><rect x="112.23" y="328.04" width="34.94" height="22.00" style="fill:#fff;stroke:none"></rect><text x="129.70" y="339.04" text-anchor="middle" dominant-baseline="central" style="fill:#333;font-size:13px">done</text><path d="M202.36,220.00 C206.33,227.00 242.42,276.00 242.03,290.00 C241.64,304.00 202.85,353.00 198.49,360.00" style="stroke:#333;stroke-width:1.5;fill:none" marker-end="url(#state-arrow)"></path><line x1="166.42" y1="220.00" x2="104.88" y2="270.00" style="stroke:#333;stroke-width:1.5;fill:none" marker-end="url(#state-arrow)"></line><rect x="100.01" y="226.24" width="58.66" height="22.00" style="fill:#fff;stroke:none"></rect><text x="129.34" y="237.24" text-anchor="middle" dominant-baseline="central" style="fill:#333;font-size:13px">schedule</text><line x1="136.03" y1="37.00" x2="136.03" y2="90.00" style="stroke:#333;stroke-width:1.5;fill:none" marker-end="url(#state-arrow)"></line><line x1="242.38" y1="115.97" x2="203.25" y2="180.00" style="stroke:#333;stroke-width:1.5;fill:none" marker-end="url(#state-arrow)"></line><rect x="86.03" y="90.00" width="100.00" height="40.00" rx="8.00" ry="8.00" style="fill:#ECECFF;stroke:#9370DB;stroke-width:1.5"></rect><text x="136.03" y="110.00" text-anchor="middle" dominant-baseline="central" style="fill:#333;font-size:14px">Booting</text><rect x="141.03" y="180.00" width="100.00" height="40.00" rx="8.00" ry="8.00" style="fill:#ECECFF;stroke:#9370DB;stroke-width:1.5"></rect><text x="191.03" y="200.00" text-anchor="middle" dominant-baseline="central" style="fill:#333;font-size:14px">Normal</text><rect x="179.03" y="360.00" width="24.00" height="24.00" rx="8.00" ry="8.00" style="fill:#ECECFF;stroke:#9370DB;stroke-width:1.5"></rect><text x="191.03" y="372.00" text-anchor="middle" dominant-baseline="central" style="fill:#333;font-size:14px">DH</text><circle cx="191.03" cy="372.00" r="12.00" style="fill:#fff;stroke:#9370DB;stroke-width:1.5"></circle><text x="191.03" y="372.00" text-anchor="middle" dominant-baseline="central" style="fill:#333;font-size:13px;font-weight:bold">H*</text><rect x="20.00" y="270.00" width="120.53" height="40.00" rx="8.00" ry="8.00" style="fill:#ECECFF;stroke:#9370DB;stroke-width:1.5"></rect><text x="80.27" y="290.00" text-anchor="middle" dominant-baseline="central" style="fill:#333;font-size:14px">Maintenance</text><circle cx="136.03" cy="30.00" r="7.00" style="fill:#333;stroke:none"></circle><circle cx="246.03" cy="110.00" r="7.00" style="fill:#333;stroke:none"></circle></svg>