<?xml version="1.0" encoding="UTF-8"?>
<svg xmlns="http://www.w3.org/2000/svg" viewBox="0.00 0.00 468.86 478.00"><defs><marker id="state-arrow" viewBox="0 0 10 10" refX="9.00" refY="5.00" markerWidth="12.00" markerHeight="12.00" orient="auto"><polygon points="0,0 10,5 0,10" style="fill:#333"></polygon></marker></defs><rect x="0.00" y="0.00" width="468.86" height="478.00" style="fill:#fff;stroke:none"></rect><line x1="134.80" y1="156.00" x2="186.40" y2="206.00" style="stroke:#333;stroke-width:1.5;fill:none" marker-end="url(#state-arrow)"></line><rect x="122.94" y="177.18" width="61.41" height="22.00" style="fill:#fff;stroke:none"></rect><text x="153.64" y="188.18" text-anchor="middle" dominant-baseline="central" style="fill:#333;font-size:13px">initialized</text><line x1="306.12" y1="156.00" x2="254.51" y2="206.00" style="stroke:#333;stroke-width:1.5;fill:none" marker-end="url(#state-arrow)"></line><rect x="255.89" y="162.82" width="34.94" height="22.00" style="fill:#fff;stroke:none"></rect><text x="273.36" y="173.82" text-anchor="middle" dominant-baseline="central" style="fill:#333;font-size:13px">done</text><line x1="254.51" y1="206.00" x2="306.12" y2="156.00" style="stroke:#333;stroke-width:1.5;fill:none" marker-end="url(#state-arrow)"></line><rect x="257.95" y="177.18" width="58.66" height="22.00" style="fill:#fff;stroke:none"></rect><text x="287.27" y="188.18" text-anchor="middle" dominant-baseline="central" style="fill:#333;font-size:13px">schedule</text><line x1="220.46" y1="272.00" x2="220.46" y2="322.00" style="stroke:#333;stroke-width:1.5;fill:none" marker-end="url(#state-arrow)"></line><rect x="179.59" y="286.00" width="61.73" height="22.00" style="fill:#fff;stroke:none"></rect><text x="210.46" y="297.00" text-anchor="middle" dominant-baseline="central" style="fill:#333;font-size:13px">shutdown</text><line x1="220.46" y1="388.00" x2="220.46" y2="439.00" style="stroke:#333;stroke-width:1.5;fill:none" marker-end="url(#state-arrow)"></line><line x1="100.74" y1="37.00" x2="100.74" y2="90.00" style="stroke:#333;stroke-width:1.5;fill:none" marker-end="url(#state-arrow)"></line><rect x="20.00" y="90.00" width="161.48" height="66.00" rx="8.00" ry="8.00" style="fill:#ECECFF;stroke:#9370DB;stroke-width:1.5"></rect><text x="100.74" y="109.00" text-anchor="middle" dominant-baseline="central" style="fill:#333;font-size:14px">Booting</text><line x1="20.00" y1="128.00" x2="181.48" y2="128.00" style="stroke:#9370DB;stroke-width:1"></line><text x="100.74" y="142.00" text-anchor="middle" dominant-baseline="central" style="fill:#333;font-size:13px">System is starting up</text><rect x="131.97" y="206.00" width="176.97" height="66.00" rx="8.00" ry="8.00" style="fill:#ECECFF;stroke:#9370DB;stroke-width:1.5"></rect><text x="220.46" y="225.00" text-anchor="middle" dominant-baseline="central" style="fill:#333;font-size:14px">Online</text><line x1="131.97" y1="244.00" x2="308.94" y2="244.00" style="stroke:#9370DB;stroke-width:1"></line><text x="220.46" y="258.00" text-anchor="middle" dominant-baseline="central" style="fill:#333;font-size:13px">All services are running</text><rect x="231.48" y="90.00" width="217.38" height="66.00" rx="8.00" ry="8.00" style="fill:#ECECFF;stroke:#9370DB;stroke-width:1.5"></rect><text x="340.17" y="109.00" text-anchor="middle" dominant-baseline="central" style="fill:#333;font-size:14px">Maintenance</text><line x1="231.48" y1="128.00" x2="448.86" y2="128.00" style="stroke:#9370DB;stroke-width:1"></line><text x="340.17" y="142.00" text-anchor="middle" dominant-baseline="central" style="fill:#333;font-size:13px">Under scheduled maintenance</text><rect x="145.52" y="322.00" width="149.88" height="66.00" rx="8.00" ry="8.00" style="fill:#ECECFF;stroke:#9370DB;stroke-width:1.5"></rect><text x="220.46" y="341.00" text-anchor="middle" dominant-baseline="central" style="fill:#333;font-size:14px">ShuttingDown</text><line x1="145.52" y1="360.00" x2="295.39" y2="360.00" style="stroke:#9370DB;stroke-width:1"></line><text x="220.46" y="374.00" text-anchor="middle" dominant-baseline="central" style="fill:#333;font-size:13px">System is stopping</text><circle cx="220.46" cy="448.00" r="9.00" style="fill:#fff;stroke:#333;stroke-width:1.5"></circle><circle cx="220.46" cy="448.00" r="4.00" style="fill:#333;stroke:none"></circle><circle cx="100.74" cy="30.00" r="7.00" style="fill:#333;stroke:none"></circle></svg>