<?xml version="1.0" encoding="UTF-8"?>
<svg xmlns="http://www.w3.org/2000/svg" viewBox="0.00 0.00 491.64 400.00"><defs><marker id="state-arrow" viewBox="0 0 10 10" refX="9.00" refY="5.00" markerWidth="12.00" markerHeight="12.00" orient="auto"><polygon points="0,0 10,5 0,10" style="fill:#333"></polygon></marker></defs><rect x="0.00" y="0.00" width="491.64" height="400.00" style="fill:#fff;stroke:none"></rect><line x1="133.26" y1="130.00" x2="202.93" y2="180.00" style="stroke:#333;stroke-width:1.5;fill:none" marker-end="url(#state-arrow)"></line><rect x="131.56" y="152.12" width="61.41" height="22.00" style="fill:#fff;stroke:none"></rect><text x="162.27" y="163.12" text-anchor="middle" dominant-baseline="central" style="fill:#333;font-size:13px">initialized</text><path d="M328.34,130.00 C323.81,131.04 289.98,135.38 283.01,140.38 C276.04,145.38 261.10,176.04 258.67,180.00" style="stroke:#333;stroke-width:1.5;fill:none" marker-end="url(#state-arrow)"></path><rect x="263.31" y="119.63" width="34.94" height="22.00" style="fill:#fff;stroke:none"></rect><text x="280.78" y="130.63" text-anchor="middle" dominant-baseline="central" style="fill:#333;font-size:13px">done</text><path d="M258.67,180.00 C263.20,178.96 297.03,174.62 304.00,169.62 C310.97,164.62 325.91,133.96 328.34,130.00" style="stroke:#333;stroke-width:1.5;fill:none" marker-end="url(#state-arrow)"></path><rect x="276.90" y="168.37" width="58.66" height="22.00" style="fill:#fff;stroke:none"></rect><text x="306.23" y="179.37" text-anchor="middle" dominant-baseline="central" style="fill:#333;font-size:13px">schedule</text><line x1="230.80" y1="220.00" x2="230.80" y2="270.00" style="stroke:#333;stroke-width:1.5;fill:none" marker-end="url(#state-arrow)"></line><rect x="189.93" y="234.00" width="61.73" height="22.00" style="fill:#fff;stroke:none"></rect><text x="220.80" y="245.00" text-anchor="middle" dominant-baseline="central" style="fill:#333;font-size:13px">shutdown</text><line x1="230.80" y1="310.00" x2="230.80" y2="361.00" style="stroke:#333;stroke-width:1.5;fill:none" marker-end="url(#state-arrow)"></line><line x1="105.39" y1="37.00" x2="105.39" y2="90.00" style="stroke:#333;stroke-width:1.5;fill:none" marker-end="url(#state-arrow)"></line><rect x="20.00" y="90.00" width="170.78" height="40.00" rx="8.00" ry="8.00" style="fill:#ECECFF;stroke:#9370DB;stroke-width:1.5"></rect><text x="105.39" y="110.00" text-anchor="middle" dominant-baseline="central" style="fill:#333;font-size:14px">System is starting up</text><rect x="137.09" y="180.00" width="187.42" height="40.00" rx="8.00" ry="8.00" style="fill:#ECECFF;stroke:#9370DB;stroke-width:1.5"></rect><text x="230.80" y="200.00" text-anchor="middle" dominant-baseline="central" style="fill:#333;font-size:14px">All services are running</text><rect x="240.78" y="90.00" width="230.86" height="40.00" rx="8.00" ry="8.00" style="fill:#ECECFF;stroke:#9370DB;stroke-width:1.5"></rect><text x="356.21" y="110.00" text-anchor="middle" dominant-baseline="central" style="fill:#333;font-size:14px">Under scheduled maintenance</text><rect x="151.66" y="270.00" width="158.28" height="40.00" rx="8.00" ry="8.00" style="fill:#ECECFF;stroke:#9370DB;stroke-width:1.5"></rect><text x="230.80" y="290.00" text-anchor="middle" dominant-baseline="central" style="fill:#333;font-size:14px">System is stopping</text><circle cx="230.80" cy="370.00" r="9.00" style="fill:#fff;stroke:#333;stroke-width:1.5"></circle><circle cx="230.80" cy="370.00" r="4.00" style="fill:#333;stroke:none"></circle><circle cx="105.39" cy="30.00" r="7.00" style="fill:#333;stroke:none"></circle></svg>