<?xml version="1.0" encoding="UTF-8"?>
<svg xmlns="http://www.w3.org/2000/svg" viewBox="0.00 0.00 700.00 170.00"><defs><marker id="state-arrow" viewBox="0 0 10 10" refX="9.00" refY="5.00" markerWidth="12.00" markerHeight="12.00" orient="auto"><polygon points="0,0 10,5 0,10" style="fill:#333"></polygon></marker></defs><rect x="0.00" y="0.00" width="700.00" height="170.00" style="fill:#fff;stroke:none"></rect><rect x="240.00" y="34.00" width="290.00" height="102.00" rx="8.00" ry="8.00" style="fill:#f7f7ff;stroke:#9370DB;stroke-width:1.5"></rect><text x="254.00" y="51.00" text-anchor="start" dominant-baseline="central" style="fill:#555;font-size:13px;font-weight:bold">B</text><line x1="254.00" y1="56.00" x2="516.00" y2="56.00" style="stroke:#9370DB;stroke-width:1"></line><line x1="190.00" y1="85.00" x2="240.00" y2="85.00" style="stroke:#333;stroke-width:1.5;fill:none" marker-end="url(#state-arrow)"></line><line x1="530.00" y1="58.37" x2="580.00" y2="49.18" style="stroke:#333;stroke-width:1.5;fill:none" marker-end="url(#state-arrow)"></line><line x1="530.00" y1="111.63" x2="580.00" y2="120.82" style="stroke:#333;stroke-width:1.5;fill:none" marker-end="url(#state-arrow)"></line><line x1="37.00" y1="85.00" x2="90.00" y2="85.00" style="stroke:#333;stroke-width:1.5;fill:none" marker-end="url(#state-arrow)"></line><line x1="360.00" y1="96.00" x2="410.00" y2="96.00" style="stroke:#333;stroke-width:1.5;fill:none" marker-end="url(#state-arrow)"></line><rect x="90.00" y="65.00" width="100.00" height="40.00" rx="8.00" ry="8.00" style="fill:#ECECFF;stroke:#9370DB;stroke-width:1.5"></rect><text x="140.00" y="85.00" text-anchor="middle" dominant-baseline="central" style="fill:#333;font-size:14px">A</text><rect x="260.00" y="76.00" width="100.00" height="40.00" rx="8.00" ry="8.00" style="fill:#ECECFF;stroke:#9370DB;stroke-width:1.5"></rect><text x="310.00" y="96.00" text-anchor="middle" dominant-baseline="central" style="fill:#333;font-size:14px">a</text><rect x="410.00" y="76.00" width="100.00" height="40.00" rx="8.00" ry="8.00" style="fill:#ECECFF;stroke:#9370DB;stroke-width:1.5"></rect><text x="460.00" y="96.00" text-anchor="middle" dominant-baseline="central" style="fill:#333;font-size:14px">b</text><rect x="580.00" y="20.00" width="100.00" height="40.00" rx="8.00" ry="8.00" style="fill:#ECECFF;stroke:#9370DB;stroke-width:1.5"></rect><text x="630.00" y="40.00" text-anchor="middle" dominant-baseline="central" style="fill:#333;font-size:14px">C</text><rect x="580.00" y="110.00" width="100.00" height="40.00" rx="8.00" ry="8.00" style="fill:#ECECFF;stroke:#9370DB;stroke-width:1.5"></rect><text x="630.00" y="130.00" text-anchor="middle" dominant-baseline="central" style="fill:#333;font-size:14px">D</text><circle cx="30.00" cy="85.00" r="7.00" style="fill:#333;stroke:none"></circle></svg>