<?xml version="1.0" encoding="UTF-8"?>
<svg xmlns="http://www.w3.org/2000/svg" viewBox="0.00 0.00 580.00 80.00"><defs><marker id="state-arrow" viewBox="0 0 10 10" refX="9.00" refY="5.00" markerWidth="12.00" markerHeight="12.00" orient="auto"><polygon points="0,0 10,5 0,10" style="fill:#333"></polygon></marker></defs><rect x="0.00" y="0.00" width="580.00" height="80.00" style="fill:#fff;stroke:none"></rect><line x1="190.00" y1="40.00" x2="240.00" y2="40.00" style="stroke:#333;stroke-width:1.5;fill:none" marker-end="url(#state-arrow)"></line><rect x="199.68" y="39.00" width="30.64" height="22.00" style="fill:#fff;stroke:none"></rect><text x="215.00" y="50.00" text-anchor="middle" dominant-baseline="central" style="fill:#333;font-size:13px">next</text><line x1="340.00" y1="40.00" x2="390.00" y2="40.00" style="stroke:#333;stroke-width:1.5;fill:none" marker-end="url(#state-arrow)"></line><rect x="349.68" y="39.00" width="30.64" height="22.00" style="fill:#fff;stroke:none"></rect><text x="365.00" y="50.00" text-anchor="middle" dominant-baseline="central" style="fill:#333;font-size:13px">next</text><line x1="490.00" y1="40.00" x2="541.00" y2="40.00" style="stroke:#333;stroke-width:1.5;fill:none" marker-end="url(#state-arrow)"></line><line x1="37.00" y1="40.00" x2="90.00" y2="40.00" style="stroke:#333;stroke-width:1.5;fill:none" marker-end="url(#state-arrow)"></line><rect x="90.00" y="20.00" width="100.00" height="40.00" rx="8.00" ry="8.00" style="fill:#ECECFF;stroke:#9370DB;stroke-width:1.5"></rect><text x="140.00" y="40.00" text-anchor="middle" dominant-baseline="central" style="fill:#333;font-size:14px">Alpha</text><rect x="240.00" y="20.00" width="100.00" height="40.00" rx="8.00" ry="8.00" style="fill:#ECECFF;stroke:#9370DB;stroke-width:1.5"></rect><text x="290.00" y="40.00" text-anchor="middle" dominant-baseline="central" style="fill:#333;font-size:14px">Beta</text><rect x="390.00" y="20.00" width="100.00" height="40.00" rx="8.00" ry="8.00" style="fill:#ECECFF;stroke:#9370DB;stroke-width:1.5"></rect><text x="440.00" y="40.00" text-anchor="middle" dominant-baseline="central" style="fill:#333;font-size:14px">Gamma</text><circle cx="550.00" cy="40.00" r="9.00" style="fill:#fff;stroke:#333;stroke-width:1.5"></circle><circle cx="550.00" cy="40.00" r="4.00" style="fill:#333;stroke:none"></circle><circle cx="30.00" cy="40.00" r="7.00" style="fill:#333;stroke:none"></circle></svg>