<?xml version="1.0" encoding="UTF-8"?>
<svg xmlns="http://www.w3.org/2000/svg" viewBox="0.00 0.00 524.00 272.00"><defs><marker id="state-arrow" viewBox="0 0 10 10" refX="9.00" refY="5.00" markerWidth="12.00" markerHeight="12.00" orient="auto"><polygon points="0,0 10,5 0,10" style="fill:#333"></polygon></marker></defs><rect x="0.00" y="0.00" width="524.00" height="272.00" style="fill:#fff;stroke:none"></rect><rect x="226.00" y="76.00" width="278.00" height="176.00" rx="8.00" ry="8.00" style="fill:#f7f7ff;stroke:#9370DB;stroke-width:1.5"></rect><text x="240.00" y="93.00" text-anchor="start" dominant-baseline="central" style="fill:#555;font-size:13px;font-weight:bold">B</text><line x1="190.00" y1="130.00" x2="240.00" y2="130.00" style="stroke:#333;stroke-width:1.5;fill:none" marker-end="url(#state-arrow)"></line><line x1="37.00" y1="130.00" x2="90.00" y2="130.00" style="stroke:#333;stroke-width:1.5;fill:none" marker-end="url(#state-arrow)"></line><path d="M340.00,123.33 C342.50,123.00 362.50,120.33 365.00,120.00 C367.50,119.67 359.38,126.00 365.00,120.00 C370.62,114.00 415.62,66.00 421.25,60.00" style="stroke:#333;stroke-width:1.5;fill:none" marker-end="url(#state-arrow)"></path><path d="M340.00,130.00 C342.50,130.00 362.50,130.00 365.00,130.00 C367.50,130.00 362.50,130.00 365.00,130.00 C367.50,130.00 387.50,130.00 390.00,130.00" style="stroke:#333;stroke-width:1.5;fill:none" marker-end="url(#state-arrow)"></path><path d="M340.00,136.67 C342.50,137.00 362.50,139.67 365.00,140.00 C367.50,140.33 359.38,134.00 365.00,140.00 C370.62,146.00 415.62,194.00 421.25,200.00" style="stroke:#333;stroke-width:1.5;fill:none" marker-end="url(#state-arrow)"></path><rect x="90.00" y="110.00" width="100.00" height="40.00" rx="8.00" ry="8.00" style="fill:#ECECFF;stroke:#9370DB;stroke-width:1.5"></rect><text x="140.00" y="130.00" text-anchor="middle" dominant-baseline="central" style="fill:#333;font-size:14px">A</text><rect x="240.00" y="110.00" width="100.00" height="40.00" rx="8.00" ry="8.00" style="fill:#ECECFF;stroke:#9370DB;stroke-width:1.5"></rect><text x="290.00" y="130.00" text-anchor="middle" dominant-baseline="central" style="fill:#333;font-size:14px">a</text><rect x="390.00" y="200.00" width="100.00" height="40.00" rx="8.00" ry="8.00" style="fill:#ECECFF;stroke:#9370DB;stroke-width:1.5"></rect><text x="440.00" y="220.00" text-anchor="middle" dominant-baseline="central" style="fill:#333;font-size:14px">b</text><rect x="390.00" y="20.00" width="100.00" height="40.00" rx="8.00" ry="8.00" style="fill:#ECECFF;stroke:#9370DB;stroke-width:1.5"></rect><text x="440.00" y="40.00" text-anchor="middle" dominant-baseline="central" style="fill:#333;font-size:14px">C</text><rect x="390.00" y="110.00" width="100.00" height="40.00" rx="8.00" ry="8.00" style="fill:#ECECFF;stroke:#9370DB;stroke-width:1.5"></rect><text x="440.00" y="130.00" text-anchor="middle" dominant-baseline="central" style="fill:#333;font-size:14px">D</text><circle cx="30.00" cy="130.00" r="7.00" style="fill:#333;stroke:none"></circle></svg>