<?xml version="1.0" encoding="UTF-8"?>
<svg xmlns="http://www.w3.org/2000/svg" viewBox="0.00 0.00 440.00 332.00"><defs><marker id="state-arrow" viewBox="0 0 10 10" refX="9.00" refY="5.00" markerWidth="12.00" markerHeight="12.00" orient="auto"><polygon points="0,0 10,5 0,10" style="fill:#333"></polygon></marker></defs><rect x="0.00" y="0.00" width="440.00" height="332.00" style="fill:#fff;stroke:none"></rect><path d="M218.39,96.00 C217.05,98.50 206.34,118.50 205.00,121.00 C203.66,123.50 213.50,118.17 205.00,121.00 C196.50,123.83 128.50,146.50 120.00,149.33" style="stroke:#333;stroke-width:1.5;fill:none" marker-end="url(#state-arrow)"></path><path d="M220.00,96.00 C220.00,98.50 220.00,118.50 220.00,121.00 C220.00,123.50 220.00,118.50 220.00,121.00 C220.00,123.50 220.00,143.50 220.00,146.00" style="stroke:#333;stroke-width:1.5;fill:none" marker-end="url(#state-arrow)"></path><path d="M221.61,96.00 C222.95,98.50 233.66,118.50 235.00,121.00 C236.34,123.50 226.50,118.17 235.00,121.00 C243.50,123.83 311.50,146.50 320.00,149.33" style="stroke:#333;stroke-width:1.5;fill:none" marker-end="url(#state-arrow)"></path><line x1="220.00" y1="242.00" x2="220.00" y2="293.00" style="stroke:#333;stroke-width:1.5;fill:none" marker-end="url(#state-arrow)"></line><line x1="111.10" y1="186.00" x2="213.84" y2="236.00" style="stroke:#333;stroke-width:1.5;fill:none" marker-end="url(#state-arrow)"></line><line x1="220.00" y1="186.00" x2="220.00" y2="236.00" style="stroke:#333;stroke-width:1.5;fill:none" marker-end="url(#state-arrow)"></line><line x1="328.90" y1="186.00" x2="226.16" y2="236.00" style="stroke:#333;stroke-width:1.5;fill:none" marker-end="url(#state-arrow)"></line><line x1="220.00" y1="37.00" x2="220.00" y2="90.00" style="stroke:#333;stroke-width:1.5;fill:none" marker-end="url(#state-arrow)"></line><rect x="190.00" y="90.00" width="60.00" height="6.00" style="fill:#333;stroke:none"></rect><rect x="20.00" y="146.00" width="100.00" height="40.00" rx="8.00" ry="8.00" style="fill:#ECECFF;stroke:#9370DB;stroke-width:1.5"></rect><text x="70.00" y="166.00" text-anchor="middle" dominant-baseline="central" style="fill:#333;font-size:14px">WorkerA</text><rect x="170.00" y="146.00" width="100.00" height="40.00" rx="8.00" ry="8.00" style="fill:#ECECFF;stroke:#9370DB;stroke-width:1.5"></rect><text x="220.00" y="166.00" text-anchor="middle" dominant-baseline="central" style="fill:#333;font-size:14px">WorkerB</text><rect x="320.00" y="146.00" width="100.00" height="40.00" rx="8.00" ry="8.00" style="fill:#ECECFF;stroke:#9370DB;stroke-width:1.5"></rect><text x="370.00" y="166.00" text-anchor="middle" dominant-baseline="central" style="fill:#333;font-size:14px">WorkerC</text><rect x="190.00" y="236.00" width="60.00" height="6.00" style="fill:#333;stroke:none"></rect><circle cx="220.00" cy="302.00" r="9.00" style="fill:#fff;stroke:#333;stroke-width:1.5"></circle><circle cx="220.00" cy="302.00" r="4.00" style="fill:#333;stroke:none"></circle><circle cx="220.00" cy="30.00" r="7.00" style="fill:#333;stroke:none"></circle></svg>