<?xml version="1.0" encoding="UTF-8"?>
<svg xmlns="http://www.w3.org/2000/svg" viewBox="0.00 0.00 308.50 310.00"><defs><marker id="state-arrow" viewBox="0 0 10 10" refX="9.00" refY="5.00" markerWidth="12.00" markerHeight="12.00" orient="auto"><polygon points="0,0 10,5 0,10" style="fill:#333"></polygon></marker></defs><rect x="0.00" y="0.00" width="308.50" height="310.00" style="fill:#fff;stroke:none"></rect><line x1="120.12" y1="120.16" x2="82.56" y2="180.00" style="stroke:#333;stroke-width:1.5;fill:none" marker-end="url(#state-arrow)"></line><rect x="69.06" y="138.68" width="41.44" height="22.00" style="fill:#fff;stroke:none"></rect><text x="89.78" y="149.68" text-anchor="middle" dominant-baseline="central" style="fill:#333;font-size:13px">pause</text><path d="M135.15,118.32 C137.10,122.70 148.29,155.96 154.70,162.13 C161.11,168.30 194.77,178.21 199.22,180.00" style="stroke:#333;stroke-width:1.5;fill:none" marker-end="url(#state-arrow)"></path><rect x="120.89" y="155.21" width="49.36" height="22.00" style="fill:#fff;stroke:none"></rect><text x="145.57" y="166.21" text-anchor="middle" dominant-baseline="central" style="fill:#333;font-size:13px">resume</text><line x1="234.39" y1="130.00" x2="224.11" y2="180.00" style="stroke:#333;stroke-width:1.5;fill:none" marker-end="url(#state-arrow)"></line><rect x="203.75" y="141.99" width="31.41" height="22.00" style="fill:#fff;stroke:none"></rect><text x="219.45" y="152.99" text-anchor="middle" dominant-baseline="central" style="fill:#333;font-size:13px">start</text><path d="M199.22,180.00 C197.27,175.62 186.07,142.36 179.67,136.19 C173.26,130.02 139.60,120.11 135.15,118.32" style="stroke:#333;stroke-width:1.5;fill:none" marker-end="url(#state-arrow)"></path><line x1="220.00" y1="220.00" x2="220.00" y2="271.00" style="stroke:#333;stroke-width:1.5;fill:none" marker-end="url(#state-arrow)"></line><line x1="238.50" y1="37.00" x2="238.50" y2="90.00" style="stroke:#333;stroke-width:1.5;fill:none" marker-end="url(#state-arrow)"></line><rect x="188.50" y="90.00" width="100.00" height="40.00" rx="8.00" ry="8.00" style="fill:#ECECFF;stroke:#9370DB;stroke-width:1.5"></rect><text x="238.50" y="110.00" text-anchor="middle" dominant-baseline="central" style="fill:#333;font-size:14px">Idle</text><rect x="170.00" y="180.00" width="100.00" height="40.00" rx="8.00" ry="8.00" style="fill:#ECECFF;stroke:#9370DB;stroke-width:1.5"></rect><text x="220.00" y="200.00" text-anchor="middle" dominant-baseline="central" style="fill:#333;font-size:14px">Running</text><circle cx="126.50" cy="110.00" r="12.00" style="fill:#fff;stroke:#9370DB;stroke-width:1.5"></circle><text x="126.50" y="110.00" text-anchor="middle" dominant-baseline="central" style="fill:#333;font-size:13px;font-weight:bold">H</text><rect x="20.00" y="180.00" width="100.00" height="40.00" rx="8.00" ry="8.00" style="fill:#ECECFF;stroke:#9370DB;stroke-width:1.5"></rect><text x="70.00" y="200.00" text-anchor="middle" dominant-baseline="central" style="fill:#333;font-size:14px">Paused</text><circle cx="220.00" cy="280.00" r="9.00" style="fill:#fff;stroke:#333;stroke-width:1.5"></circle><circle cx="220.00" cy="280.00" r="4.00" style="fill:#333;stroke:none"></circle><circle cx="238.50" cy="30.00" r="7.00" style="fill:#333;stroke:none"></circle></svg>