<?xml version="1.0" encoding="UTF-8"?>
<svg xmlns="http://www.w3.org/2000/svg" viewBox="0.00 0.00 240.00 310.00"><defs><marker id="state-arrow" viewBox="0 0 10 10" refX="9.00" refY="5.00" markerWidth="12.00" markerHeight="12.00" orient="auto"><polygon points="0,0 10,5 0,10" style="fill:#333"></polygon></marker></defs><rect x="0.00" y="0.00" width="240.00" height="310.00" style="fill:#fff;stroke:none"></rect><rect x="21.00" y="56.00" width="183.00" height="176.00" rx="8.00" ry="8.00" style="fill:#f7f7ff;stroke:#9370DB;stroke-width:1.5"></rect><text x="35.00" y="73.00" text-anchor="start" dominant-baseline="central" style="fill:#555;font-size:13px;font-weight:bold">First</text><rect x="21.00" y="56.00" width="183.00" height="176.00" rx="8.00" ry="8.00" style="fill:#f7f7ff;stroke:#9370DB;stroke-width:1.5"></rect><text x="35.00" y="73.00" text-anchor="start" dominant-baseline="central" style="fill:#555;font-size:13px;font-weight:bold">Second</text><rect x="21.00" y="146.00" width="128.00" height="86.00" rx="8.00" ry="8.00" style="fill:#f7f7ff;stroke:#9370DB;stroke-width:1.5"></rect><text x="35.00" y="163.00" text-anchor="start" dominant-baseline="central" style="fill:#555;font-size:13px;font-weight:bold">Third</text><line x1="74.61" y1="35.27" x2="122.50" y2="90.00" style="stroke:#333;stroke-width:1.5;fill:none" marker-end="url(#state-arrow)"></line><line x1="140.00" y1="37.00" x2="140.00" y2="90.00" style="stroke:#333;stroke-width:1.5;fill:none" marker-end="url(#state-arrow)"></line><line x1="205.39" y1="35.27" x2="157.50" y2="90.00" style="stroke:#333;stroke-width:1.5;fill:none" marker-end="url(#state-arrow)"></line><line x1="33.65" y1="115.97" x2="72.78" y2="180.00" style="stroke:#333;stroke-width:1.5;fill:none" marker-end="url(#state-arrow)"></line><line x1="127.78" y1="130.00" x2="97.22" y2="180.00" style="stroke:#333;stroke-width:1.5;fill:none" marker-end="url(#state-arrow)"></line><line x1="85.00" y1="220.00" x2="85.00" y2="271.00" style="stroke:#333;stroke-width:1.5;fill:none" marker-end="url(#state-arrow)"></line><rect x="90.00" y="90.00" width="100.00" height="40.00" rx="8.00" ry="8.00" style="fill:#ECECFF;stroke:#9370DB;stroke-width:1.5"></rect><text x="140.00" y="110.00" text-anchor="middle" dominant-baseline="central" style="fill:#333;font-size:14px">second</text><rect x="35.00" y="180.00" width="100.00" height="40.00" rx="8.00" ry="8.00" style="fill:#ECECFF;stroke:#9370DB;stroke-width:1.5"></rect><text x="85.00" y="200.00" text-anchor="middle" dominant-baseline="central" style="fill:#333;font-size:14px">third</text><circle cx="85.00" cy="280.00" r="9.00" style="fill:#fff;stroke:#333;stroke-width:1.5"></circle><circle cx="85.00" cy="280.00" r="4.00" style="fill:#333;stroke:none"></circle><circle cx="70.00" cy="30.00" r="7.00" style="fill:#333;stroke:none"></circle><circle cx="140.00" cy="30.00" r="7.00" style="fill:#333;stroke:none"></circle><circle cx="210.00" cy="30.00" r="7.00" style="fill:#333;stroke:none"></circle><circle cx="30.00" cy="110.00" r="7.00" style="fill:#333;stroke:none"></circle></svg>