<?xml version="1.0" encoding="UTF-8"?>
<svg xmlns="http://www.w3.org/2000/svg" viewBox="0.00 0.00 260.00 706.00"><defs><marker id="state-arrow" viewBox="0 0 10 10" refX="9.00" refY="5.00" markerWidth="12.00" markerHeight="12.00" orient="auto"><polygon points="0,0 10,5 0,10" style="fill:#333"></polygon></marker></defs><rect x="0.00" y="0.00" width="260.00" height="706.00" style="fill:#fff;stroke:none"></rect><rect x="20.00" y="90.00" width="220.00" height="596.00" rx="8.00" ry="8.00" style="fill:#f7f7ff;stroke:#9370DB;stroke-width:1.5"></rect><text x="34.00" y="107.00" text-anchor="start" dominant-baseline="central" style="fill:#555;font-size:13px;font-weight:bold">First</text><line x1="34.00" y1="112.00" x2="226.00" y2="112.00" style="stroke:#9370DB;stroke-width:1"></line><rect x="40.00" y="202.00" width="180.00" height="464.00" rx="8.00" ry="8.00" style="fill:#e3e3ea;stroke:#9370DB;stroke-width:1.5"></rect><text x="54.00" y="219.00" text-anchor="start" dominant-baseline="central" style="fill:#555;font-size:13px;font-weight:bold">Second</text><line x1="54.00" y1="224.00" x2="206.00" y2="224.00" style="stroke:#9370DB;stroke-width:1"></line><rect x="60.00" y="404.00" width="140.00" height="242.00" rx="8.00" ry="8.00" style="fill:#d1d1d7;stroke:#9370DB;stroke-width:1.5"></rect><text x="74.00" y="421.00" text-anchor="start" dominant-baseline="central" style="fill:#555;font-size:13px;font-weight:bold">Third</text><line x1="74.00" y1="426.00" x2="186.00" y2="426.00" style="stroke:#9370DB;stroke-width:1"></line><line x1="130.00" y1="149.00" x2="130.00" y2="202.00" style="stroke:#333;stroke-width:1.5;fill:none" marker-end="url(#state-arrow)"></line><line x1="130.00" y1="261.00" x2="130.00" y2="314.00" style="stroke:#333;stroke-width:1.5;fill:none" marker-end="url(#state-arrow)"></line><line x1="130.00" y1="463.00" x2="130.00" y2="516.00" style="stroke:#333;stroke-width:1.5;fill:none" marker-end="url(#state-arrow)"></line><line x1="130.00" y1="37.00" x2="130.00" y2="90.00" style="stroke:#333;stroke-width:1.5;fill:none" marker-end="url(#state-arrow)"></line><line x1="130.00" y1="354.00" x2="130.00" y2="404.00" style="stroke:#333;stroke-width:1.5;fill:none" marker-end="url(#state-arrow)"></line><line x1="130.00" y1="556.00" x2="130.00" y2="607.00" style="stroke:#333;stroke-width:1.5;fill:none" marker-end="url(#state-arrow)"></line><rect x="80.00" y="314.00" width="100.00" height="40.00" rx="8.00" ry="8.00" style="fill:#ECECFF;stroke:#9370DB;stroke-width:1.5"></rect><text x="130.00" y="334.00" text-anchor="middle" dominant-baseline="central" style="fill:#333;font-size:14px">second</text><rect x="80.00" y="516.00" width="100.00" height="40.00" rx="8.00" ry="8.00" style="fill:#ECECFF;stroke:#9370DB;stroke-width:1.5"></rect><text x="130.00" y="536.00" text-anchor="middle" dominant-baseline="central" style="fill:#333;font-size:14px">third</text><circle cx="130.00" cy="616.00" r="9.00" style="fill:#fff;stroke:#333;stroke-width:1.5"></circle><circle cx="130.00" cy="616.00" r="4.00" style="fill:#333;stroke:none"></circle><circle cx="130.00" cy="142.00" r="7.00" style="fill:#333;stroke:none"></circle><circle cx="130.00" cy="254.00" r="7.00" style="fill:#333;stroke:none"></circle><circle cx="130.00" cy="456.00" r="7.00" style="fill:#333;stroke:none"></circle><circle cx="130.00" cy="30.00" r="7.00" style="fill:#333;stroke:none"></circle></svg>