<?xml version="1.0" encoding="UTF-8"?>
<svg xmlns="http://www.w3.org/2000/svg" viewBox="-120.45 0.00 390.16 170.00"><defs><marker id="state-arrow" viewBox="0 0 10 10" refX="9.00" refY="5.00" markerWidth="12.00" markerHeight="12.00" orient="auto"><polygon points="0,0 10,5 0,10" style="fill:#333"></polygon></marker></defs><rect x="-120.45" y="0.00" width="390.16" height="170.00" style="fill:#fff;stroke:none"></rect><line x1="70.00" y1="60.00" x2="70.00" y2="110.00" style="stroke:#333;stroke-width:1.5;fill:none" marker-end="url(#state-arrow)"></line><rect x="28.41" y="74.00" width="63.17" height="22.00" style="fill:#fff;stroke:none"></rect><text x="60.00" y="85.00" text-anchor="middle" dominant-baseline="central" style="fill:#333;font-size:13px">reconnect</text><line x1="70.00" y1="110.00" x2="70.00" y2="60.00" style="stroke:#333;stroke-width:1.5;fill:none" marker-end="url(#state-arrow)"></line><rect x="45.73" y="74.00" width="68.55" height="22.00" style="fill:#fff;stroke:none"></rect><text x="80.00" y="85.00" text-anchor="middle" dominant-baseline="central" style="fill:#333;font-size:13px">disconnect</text><rect x="20.00" y="110.00" width="100.00" height="40.00" rx="8.00" ry="8.00" style="fill:#ECECFF;stroke:#9370DB;stroke-width:1.5"></rect><text x="70.00" y="130.00" text-anchor="middle" dominant-baseline="central" style="fill:#333;font-size:14px">Online</text><rect x="20.00" y="20.00" width="100.00" height="40.00" rx="8.00" ry="8.00" style="fill:#ECECFF;stroke:#9370DB;stroke-width:1.5"></rect><text x="70.00" y="40.00" text-anchor="middle" dominant-baseline="central" style="fill:#333;font-size:14px">Offline</text><rect x="-120.45" y="113.00" width="124.45" height="34.00" style="fill:#fff5ad;stroke:#aaaa33;stroke-width:1"></rect><text x="-110.45" y="130.00" text-anchor="start" dominant-baseline="central" style="fill:#333;font-size:13px">User is connected</text><line x1="20.00" y1="130.00" x2="4.00" y2="130.00" style="stroke:#aaaa33;stroke-width:1;stroke-dasharray:4,3;fill:none"></line><rect x="136.00" y="14.00" width="133.70" height="52.00" style="fill:#fff5ad;stroke:#aaaa33;stroke-width:1"></rect><text x="146.00" y="31.00" text-anchor="start" dominant-baseline="central" style="fill:#333;font-size:13px">device unreachable</text><text x="146.00" y="49.00" text-anchor="start" dominant-baseline="central" style="fill:#333;font-size:13px">retry pending</text><line x1="120.00" y1="40.00" x2="136.00" y2="40.00" style="stroke:#aaaa33;stroke-width:1;stroke-dasharray:4,3;fill:none"></line></svg>