<?xml version="1.0" encoding="UTF-8"?>
<svg xmlns="http://www.w3.org/2000/svg" viewBox="0 0 411.00 260.56"><defs><marker id="state-arrow" viewBox="0 0 10 10" refX="9.00" refY="5.00" markerWidth="8.00" markerHeight="8.00" orient="auto"><polygon points="0,0 10,5 0,10" style="fill:#333"></polygon></marker></defs><rect x="0.00" y="0.00" width="411.00" height="260.56" style="fill:#fff;stroke:none"></rect><line x1="220.00" y1="130.28" x2="270.25" y2="220.47" style="stroke:#333;stroke-width:1.5;fill:none" marker-end="url(#state-arrow)"></line><rect x="220.36" y="169.73" width="32.06" height="21.03" style="fill:#fff;stroke:none"></rect><text x="236.39" y="180.24" text-anchor="middle" dominant-baseline="central" style="fill:#333;font-size:13px">retry</text><path d="M270.25,220.47 L320.50,130.28 L220.00,40.09" style="stroke:#333;stroke-width:1.5;fill:none" marker-end="url(#state-arrow)"></path><rect x="288.41" y="169.73" width="31.41" height="21.03" style="fill:#fff;stroke:none"></rect><text x="304.11" y="180.24" text-anchor="middle" dominant-baseline="central" style="fill:#333;font-size:13px">start</text><line x1="220.00" y1="40.09" x2="220.00" y2="130.28" style="stroke:#333;stroke-width:1.5;fill:none" marker-end="url(#state-arrow)"></line><rect x="188.84" y="74.67" width="42.33" height="21.03" style="fill:#fff;stroke:none"></rect><text x="210.00" y="85.19" text-anchor="middle" dominant-baseline="central" style="fill:#333;font-size:13px">failure</text><line x1="220.00" y1="40.09" x2="70.00" y2="130.28" style="stroke:#333;stroke-width:1.5;fill:none" marker-end="url(#state-arrow)"></line><rect x="113.36" y="66.10" width="52.97" height="21.03" style="fill:#fff;stroke:none"></rect><text x="139.85" y="76.62" text-anchor="middle" dominant-baseline="central" style="fill:#333;font-size:13px">success</text><line x1="70.00" y1="130.28" x2="270.25" y2="220.47" style="stroke:#333;stroke-width:1.5;fill:none" marker-end="url(#state-arrow)"></line><rect x="148.53" y="173.98" width="34.97" height="21.03" style="fill:#fff;stroke:none"></rect><text x="166.02" y="184.49" text-anchor="middle" dominant-baseline="central" style="fill:#333;font-size:13px">reset</text><line x1="70.00" y1="130.28" x2="70.00" y2="220.47" style="stroke:#333;stroke-width:1.5;fill:none" marker-end="url(#state-arrow)"></line><line x1="381.00" y1="130.28" x2="270.25" y2="220.47" style="stroke:#333;stroke-width:1.5;fill:none" marker-end="url(#state-arrow)"></line><rect x="220.25" y="200.38" width="100.00" height="40.19" rx="8.00" ry="8.00" style="fill:#ECECFF;stroke:#9370DB;stroke-width:1.5"></rect><text x="270.25" y="220.47" text-anchor="middle" dominant-baseline="central" style="fill:#333;font-size:14px">Idle</text><rect x="170.00" y="20.00" width="100.00" height="40.19" rx="8.00" ry="8.00" style="fill:#ECECFF;stroke:#9370DB;stroke-width:1.5"></rect><text x="220.00" y="40.09" text-anchor="middle" dominant-baseline="central" style="fill:#333;font-size:14px">Loading</text><rect x="20.00" y="110.19" width="100.00" height="40.19" rx="8.00" ry="8.00" style="fill:#ECECFF;stroke:#9370DB;stroke-width:1.5"></rect><text x="70.00" y="130.28" text-anchor="middle" dominant-baseline="central" style="fill:#333;font-size:14px">Ready</text><rect x="170.00" y="110.19" width="100.00" height="40.19" rx="8.00" ry="8.00" style="fill:#ECECFF;stroke:#9370DB;stroke-width:1.5"></rect><text x="220.00" y="130.28" text-anchor="middle" dominant-baseline="central" style="fill:#333;font-size:14px">Error</text><circle cx="70.00" cy="220.47" r="10.00" style="fill:#fff;stroke:#333;stroke-width:2"></circle><circle cx="70.00" cy="220.47" r="7.00" style="fill:#333;stroke:none"></circle><circle cx="381.00" cy="130.28" r="10.00" style="fill:#333;stroke:#333"></circle></svg>