<?xml version="1.0" encoding="UTF-8"?>
<svg xmlns="http://www.w3.org/2000/svg" viewBox="0.00 0.00 411.00 260.00"><defs><marker id="state-arrow" viewBox="0 0 10 10" refX="9.00" refY="5.00" markerWidth="12.00" markerHeight="12.00" orient="auto"><polygon points="0,0 10,5 0,10" style="fill:#333"></polygon></marker></defs><rect x="0.00" y="0.00" width="411.00" height="260.00" style="fill:#fff;stroke:none"></rect><line x1="231.17" y1="150.00" x2="259.08" y2="200.00" style="stroke:#333;stroke-width:1.5;fill:none" marker-end="url(#state-arrow)"></line><rect x="220.36" y="168.87" width="32.06" height="22.00" style="fill:#fff;stroke:none"></rect><text x="236.39" y="179.87" text-anchor="middle" dominant-baseline="central" style="fill:#333;font-size:13px">retry</text><path d="M281.42,200.00 C285.33,193.00 324.41,144.00 320.50,130.00 C316.59,116.00 250.15,67.00 242.33,60.00" style="stroke:#333;stroke-width:1.5;fill:none" marker-end="url(#state-arrow)"></path><rect x="288.40" y="168.87" width="31.41" height="22.00" style="fill:#fff;stroke:none"></rect><text x="304.11" y="179.87" text-anchor="middle" dominant-baseline="central" style="fill:#333;font-size:13px">start</text><line x1="220.00" y1="60.00" x2="220.00" y2="110.00" style="stroke:#333;stroke-width:1.5;fill:none" marker-end="url(#state-arrow)"></line><rect x="188.84" y="74.00" width="42.33" height="22.00" style="fill:#fff;stroke:none"></rect><text x="210.00" y="85.00" text-anchor="middle" dominant-baseline="central" style="fill:#333;font-size:13px">failure</text><line x1="186.67" y1="60.00" x2="103.33" y2="110.00" style="stroke:#333;stroke-width:1.5;fill:none" marker-end="url(#state-arrow)"></line><rect x="113.37" y="65.43" width="52.97" height="22.00" style="fill:#fff;stroke:none"></rect><text x="139.86" y="76.43" text-anchor="middle" dominant-baseline="central" style="fill:#333;font-size:13px">success</text><line x1="114.50" y1="150.00" x2="225.75" y2="200.00" style="stroke:#333;stroke-width:1.5;fill:none" marker-end="url(#state-arrow)"></line><rect x="148.54" y="173.12" width="34.97" height="22.00" style="fill:#fff;stroke:none"></rect><text x="166.03" y="184.12" text-anchor="middle" dominant-baseline="central" style="fill:#333;font-size:13px">reset</text><line x1="70.00" y1="150.00" x2="70.00" y2="211.00" style="stroke:#333;stroke-width:1.5;fill:none" marker-end="url(#state-arrow)"></line><line x1="375.57" y1="134.41" x2="294.86" y2="200.00" style="stroke:#333;stroke-width:1.5;fill:none" marker-end="url(#state-arrow)"></line><rect x="220.25" y="200.00" width="100.00" height="40.00" rx="8.00" ry="8.00" style="fill:#ECECFF;stroke:#9370DB;stroke-width:1.5"></rect><text x="270.25" y="220.00" text-anchor="middle" dominant-baseline="central" style="fill:#333;font-size:14px">Idle</text><rect x="170.00" y="20.00" width="100.00" height="40.00" rx="8.00" ry="8.00" style="fill:#ECECFF;stroke:#9370DB;stroke-width:1.5"></rect><text x="220.00" y="40.00" text-anchor="middle" dominant-baseline="central" style="fill:#333;font-size:14px">Loading</text><rect x="20.00" y="110.00" width="100.00" height="40.00" rx="8.00" ry="8.00" style="fill:#ECECFF;stroke:#9370DB;stroke-width:1.5"></rect><text x="70.00" y="130.00" text-anchor="middle" dominant-baseline="central" style="fill:#333;font-size:14px">Ready</text><rect x="170.00" y="110.00" width="100.00" height="40.00" rx="8.00" ry="8.00" style="fill:#ECECFF;stroke:#9370DB;stroke-width:1.5"></rect><text x="220.00" y="130.00" text-anchor="middle" dominant-baseline="central" style="fill:#333;font-size:14px">Error</text><circle cx="70.00" cy="220.00" r="9.00" style="fill:#fff;stroke:#333;stroke-width:1.5"></circle><circle cx="70.00" cy="220.00" r="4.00" style="fill:#333;stroke:none"></circle><circle cx="381.00" cy="130.00" r="7.00" style="fill:#333;stroke:none"></circle></svg>