<?xml version="1.0" encoding="UTF-8"?>
<svg xmlns="http://www.w3.org/2000/svg" viewBox="0.00 0.00 334.44 310.00"><defs><marker id="state-arrow" viewBox="0 0 10 10" refX="9.00" refY="5.00" markerWidth="12.00" markerHeight="12.00" orient="auto"><polygon points="0,0 10,5 0,10" style="fill:#333"></polygon></marker></defs><rect x="0.00" y="0.00" width="334.44" height="310.00" style="fill:#fff;stroke:none"></rect><line x1="223.08" y1="130.00" x2="175.24" y2="180.00" style="stroke:#333;stroke-width:1.5;fill:none" marker-end="url(#state-arrow)"></line><line x1="156.11" y1="220.00" x2="156.11" y2="271.00" style="stroke:#333;stroke-width:1.5;fill:none" marker-end="url(#state-arrow)"></line><line x1="70.00" y1="37.00" x2="70.00" y2="90.00" style="stroke:#333;stroke-width:1.5;fill:none" marker-end="url(#state-arrow)"></line><line x1="242.22" y1="37.00" x2="242.22" y2="90.00" style="stroke:#333;stroke-width:1.5;fill:none" marker-end="url(#state-arrow)"></line><line x1="89.14" y1="130.00" x2="136.97" y2="180.00" style="stroke:#333;stroke-width:1.5;fill:none" marker-end="url(#state-arrow)"></line><rect x="20.00" y="90.00" width="100.00" height="40.00" rx="8.00" ry="8.00" style="fill:#ECECFF;stroke:#9370DB;stroke-width:1.5"></rect><text x="70.00" y="110.00" text-anchor="middle" dominant-baseline="central" style="fill:#333;font-size:14px">yswsii</text><rect x="170.00" y="90.00" width="144.44" height="40.00" rx="8.00" ry="8.00" style="fill:#ECECFF;stroke:#9370DB;stroke-width:1.5"></rect><text x="242.22" y="110.00" text-anchor="middle" dominant-baseline="central" style="fill:#333;font-size:14px">SomeOtherState</text><rect x="84.63" y="180.00" width="142.97" height="40.00" rx="8.00" ry="8.00" style="fill:#ECECFF;stroke:#9370DB;stroke-width:1.5"></rect><text x="156.11" y="200.00" text-anchor="middle" dominant-baseline="central" style="fill:#333;font-size:14px">YetAnotherState</text><circle cx="156.11" cy="280.00" r="9.00" style="fill:#fff;stroke:#333;stroke-width:1.5"></circle><circle cx="156.11" cy="280.00" r="4.00" style="fill:#333;stroke:none"></circle><circle cx="70.00" cy="30.00" r="7.00" style="fill:#333;stroke:none"></circle><circle cx="242.22" cy="30.00" r="7.00" style="fill:#333;stroke:none"></circle></svg>