<?xml version="1.0" encoding="UTF-8"?>
<svg xmlns="http://www.w3.org/2000/svg" viewBox="0.00 0.00 442.20 310.00"><defs><marker id="state-arrow" viewBox="0 0 10 10" refX="9.00" refY="5.00" markerWidth="12.00" markerHeight="12.00" orient="auto"><polygon points="0,0 10,5 0,10" style="fill:#333"></polygon></marker></defs><rect x="0.00" y="0.00" width="442.20" height="310.00" style="fill:#fff;stroke:none"></rect><line x1="324.86" y1="130.00" x2="262.06" y2="180.00" style="stroke:#333;stroke-width:1.5;fill:none" marker-end="url(#state-arrow)"></line><line x1="236.93" y1="220.00" x2="236.93" y2="271.00" style="stroke:#333;stroke-width:1.5;fill:none" marker-end="url(#state-arrow)"></line><line x1="123.88" y1="37.00" x2="123.88" y2="90.00" style="stroke:#333;stroke-width:1.5;fill:none" marker-end="url(#state-arrow)"></line><line x1="349.98" y1="37.00" x2="349.98" y2="90.00" style="stroke:#333;stroke-width:1.5;fill:none" marker-end="url(#state-arrow)"></line><line x1="149.01" y1="130.00" x2="211.81" y2="180.00" style="stroke:#333;stroke-width:1.5;fill:none" marker-end="url(#state-arrow)"></line><rect x="20.00" y="90.00" width="207.77" height="40.00" rx="8.00" ry="8.00" style="fill:#ECECFF;stroke:#9370DB;stroke-width:1.5;font-style:italic;font-weight:bold;fill:white"></rect><text x="123.88" y="110.00" text-anchor="middle" dominant-baseline="central" style="fill:#333;font-size:14px">Your state with spaces in it</text><rect x="277.77" y="90.00" width="144.44" height="40.00" rx="8.00" ry="8.00" style="fill:#ECECFF;stroke:#9370DB;stroke-width:1.5"></rect><text x="349.98" y="110.00" text-anchor="middle" dominant-baseline="central" style="fill:#333;font-size:14px">SomeOtherState</text><rect x="165.45" y="180.00" width="142.97" height="40.00" rx="8.00" ry="8.00" style="fill:#ECECFF;stroke:#9370DB;stroke-width:1.5"></rect><text x="236.93" y="200.00" text-anchor="middle" dominant-baseline="central" style="fill:#333;font-size:14px">YetAnotherState</text><circle cx="236.93" cy="280.00" r="9.00" style="fill:#fff;stroke:#333;stroke-width:1.5"></circle><circle cx="236.93" cy="280.00" r="4.00" style="fill:#333;stroke:none"></circle><circle cx="123.88" cy="30.00" r="7.00" style="fill:#333;stroke:none"></circle><circle cx="349.98" cy="30.00" r="7.00" style="fill:#333;stroke:none"></circle></svg>