<?xml version="1.0" encoding="UTF-8"?>
<svg xmlns="http://www.w3.org/2000/svg" viewBox="0.00 0.00 220.12 420.00"><defs><marker id="state-arrow" viewBox="0 0 10 10" refX="9.00" refY="5.00" markerWidth="12.00" markerHeight="12.00" orient="auto"><polygon points="0,0 10,5 0,10" style="fill:#333"></polygon></marker></defs><rect x="0.00" y="0.00" width="220.13" height="420.00" style="fill:#fff;stroke:none"></rect><line x1="87.81" y1="60.00" x2="132.32" y2="110.00" style="stroke:#333;stroke-width:1.5;fill:none" marker-end="url(#state-arrow)"></line><rect x="86.56" y="80.65" width="32.06" height="22.00" style="fill:#fff;stroke:none"></rect><text x="102.59" y="91.65" text-anchor="middle" dominant-baseline="central" style="fill:#333;font-size:13px">retry</text><line x1="138.96" y1="150.00" x2="111.04" y2="200.00" style="stroke:#333;stroke-width:1.5;fill:none" marker-end="url(#state-arrow)"></line><rect x="100.57" y="159.13" width="31.41" height="22.00" style="fill:#fff;stroke:none"></rect><text x="116.27" y="170.13" text-anchor="middle" dominant-baseline="central" style="fill:#333;font-size:13px">start</text><path d="M88.71,200.00 C84.80,193.00 51.95,144.00 49.62,130.00 C47.30,116.00 63.89,67.00 65.47,60.00" style="stroke:#333;stroke-width:1.5;fill:none" marker-end="url(#state-arrow)"></path><rect x="62.32" y="159.13" width="42.33" height="22.00" style="fill:#fff;stroke:none"></rect><text x="83.48" y="170.13" text-anchor="middle" dominant-baseline="central" style="fill:#333;font-size:13px">failure</text><line x1="99.88" y1="240.00" x2="99.88" y2="290.00" style="stroke:#333;stroke-width:1.5;fill:none" marker-end="url(#state-arrow)"></line><rect x="63.39" y="254.00" width="52.97" height="22.00" style="fill:#fff;stroke:none"></rect><text x="89.88" y="265.00" text-anchor="middle" dominant-baseline="central" style="fill:#333;font-size:13px">success</text><line x1="99.88" y1="330.00" x2="99.88" y2="381.00" style="stroke:#333;stroke-width:1.5;fill:none" marker-end="url(#state-arrow)"></line><line x1="177.79" y1="46.64" x2="156.76" y2="110.00" style="stroke:#333;stroke-width:1.5;fill:none" marker-end="url(#state-arrow)"></line><rect x="100.13" y="110.00" width="100.00" height="40.00" rx="8.00" ry="8.00" style="fill:#ECECFF;stroke:#9370DB;stroke-width:1.5;fill:#90EE90;stroke:#006400"></rect><text x="150.13" y="130.00" text-anchor="middle" dominant-baseline="central" style="fill:#333;font-size:14px;">Idle</text><rect x="45.09" y="200.00" width="109.58" height="40.00" rx="8.00" ry="8.00" style="fill:#ECECFF;stroke:#9370DB;stroke-width:1.5;fill:#FFFACD;stroke:#B8860B"></rect><text x="99.88" y="220.00" text-anchor="middle" dominant-baseline="central" style="fill:#333;font-size:14px;">Processing</text><rect x="49.88" y="290.00" width="100.00" height="40.00" rx="8.00" ry="8.00" style="fill:#ECECFF;stroke:#9370DB;stroke-width:1.5;fill:#90EE90;stroke:#006400"></rect><text x="99.88" y="310.00" text-anchor="middle" dominant-baseline="central" style="fill:#333;font-size:14px;">Ready</text><rect x="20.00" y="20.00" width="100.00" height="40.00" rx="8.00" ry="8.00" style="fill:#ECECFF;stroke:#9370DB;stroke-width:1.5;fill:#FFB6C1;stroke:#8B0000"></rect><text x="70.00" y="40.00" text-anchor="middle" dominant-baseline="central" style="fill:#333;font-size:14px;">Failed</text><circle cx="99.88" cy="390.00" r="9.00" style="fill:#fff;stroke:#333;stroke-width:1.5"></circle><circle cx="99.88" cy="390.00" r="4.00" style="fill:#333;stroke:none"></circle><circle cx="180.00" cy="40.00" r="7.00" style="fill:#333;stroke:none"></circle></svg>