<?xml version="1.0" encoding="UTF-8"?>
<svg xmlns="http://www.w3.org/2000/svg" viewBox="0 0 261.00 330.56"><defs><marker id="state-arrow" viewBox="0 0 10 10" refX="9.00" refY="5.00" markerWidth="12.00" markerHeight="12.00" orient="auto"><polygon points="0,0 10,5 0,10" style="fill:#333"></polygon></marker></defs><rect x="0.00" y="0.00" width="261.00" height="330.56" style="fill:#fff;stroke:none"></rect><line x1="109.05" y1="60.19" x2="81.20" y2="110.19" style="stroke:#333;stroke-width:1.5;fill:none" marker-end="url(#state-arrow)"></line><rect x="68.76" y="69.80" width="35.27" height="21.03" style="fill:#fff;stroke:none"></rect><text x="86.39" y="80.32" text-anchor="middle" dominant-baseline="central" style="fill:#333;font-size:13px">timer</text><path d="M170.50,200.38 C170.50,193.37 174.41,144.30 170.50,130.28 C166.59,116.26 135.35,67.20 131.45,60.19" style="stroke:#333;stroke-width:1.5;fill:none" marker-end="url(#state-arrow)"></path><rect x="162.87" y="164.86" width="35.27" height="21.03" style="fill:#fff;stroke:none"></rect><text x="180.50" y="175.38" text-anchor="middle" dominant-baseline="central" style="fill:#333;font-size:13px">timer</text><line x1="170.50" y1="240.56" x2="170.50" y2="291.56" style="stroke:#333;stroke-width:1.5;fill:none" marker-end="url(#state-arrow)"></line><line x1="92.39" y1="150.38" x2="148.11" y2="200.38" style="stroke:#333;stroke-width:1.5;fill:none" marker-end="url(#state-arrow)"></line><rect x="95.94" y="172.30" width="35.27" height="21.03" style="fill:#fff;stroke:none"></rect><text x="113.57" y="182.82" text-anchor="middle" dominant-baseline="central" style="fill:#333;font-size:13px">timer</text><line x1="227.10" y1="136.09" x2="183.98" y2="200.38" style="stroke:#333;stroke-width:1.5;fill:none" marker-end="url(#state-arrow)"></line><rect x="120.50" y="200.38" width="100.00" height="40.19" rx="8.00" ry="8.00" style="fill:#ECECFF;stroke:#9370DB;stroke-width:1.5"></rect><text x="170.50" y="220.47" text-anchor="middle" dominant-baseline="central" style="fill:#333;font-size:14px">Red</text><rect x="70.25" y="20.00" width="100.00" height="40.19" rx="8.00" ry="8.00" style="fill:#ECECFF;stroke:#9370DB;stroke-width:1.5"></rect><text x="120.25" y="40.09" text-anchor="middle" dominant-baseline="central" style="fill:#333;font-size:14px">Green</text><rect x="20.00" y="110.19" width="100.00" height="40.19" rx="8.00" ry="8.00" style="fill:#ECECFF;stroke:#9370DB;stroke-width:1.5"></rect><text x="70.00" y="130.28" text-anchor="middle" dominant-baseline="central" style="fill:#333;font-size:14px">Yellow</text><circle cx="170.50" cy="300.56" r="9.00" style="fill:#fff;stroke:#333;stroke-width:1.5"></circle><circle cx="170.50" cy="300.56" r="4.00" style="fill:#333;stroke:none"></circle><circle cx="231.00" cy="130.28" r="7.00" style="fill:#333;stroke:none"></circle></svg>