<?xml version="1.0" encoding="UTF-8"?>
<svg xmlns="http://www.w3.org/2000/svg" viewBox="0 0 210.00 330.56"><defs><marker id="state-arrow" viewBox="0 0 10 10" refX="9.00" refY="5.00" markerWidth="8.00" markerHeight="8.00" orient="auto"><polygon points="0,0 10,5 0,10" style="fill:#333"></polygon></marker></defs><rect x="0.00" y="0.00" width="210.00" height="330.56" style="fill:#fff;stroke:none"></rect><line x1="97.50" y1="40.09" x2="70.00" y2="130.28" style="stroke:#333;stroke-width:1.5;fill:none" marker-end="url(#state-arrow)"></line><text x="83.75" y="85.19" text-anchor="middle" dominant-baseline="central" style="fill:#333;font-size:13px">timer</text><line x1="125.00" y1="220.47" x2="97.50" y2="40.09" style="stroke:#333;stroke-width:1.5;fill:none" marker-end="url(#state-arrow)"></line><text x="111.25" y="130.28" text-anchor="middle" dominant-baseline="central" style="fill:#333;font-size:13px">timer</text><line x1="125.00" y1="220.47" x2="125.00" y2="300.56" style="stroke:#333;stroke-width:1.5;fill:none" marker-end="url(#state-arrow)"></line><line x1="70.00" y1="130.28" x2="125.00" y2="220.47" style="stroke:#333;stroke-width:1.5;fill:none" marker-end="url(#state-arrow)"></line><text x="97.50" y="175.38" text-anchor="middle" dominant-baseline="central" style="fill:#333;font-size:13px">timer</text><line x1="180.00" y1="130.28" x2="125.00" y2="220.47" style="stroke:#333;stroke-width:1.5;fill:none" marker-end="url(#state-arrow)"></line><rect x="75.00" y="200.38" width="100.00" height="40.19" rx="8.00" ry="8.00" style="fill:#ECECFF;stroke:#9370DB;stroke-width:1.5"></rect><text x="125.00" y="220.47" text-anchor="middle" dominant-baseline="central" style="fill:#333;font-size:14px">Red</text><rect x="47.50" y="20.00" width="100.00" height="40.19" rx="8.00" ry="8.00" style="fill:#ECECFF;stroke:#9370DB;stroke-width:1.5"></rect><text x="97.50" y="40.09" text-anchor="middle" dominant-baseline="central" style="fill:#333;font-size:14px">Green</text><rect x="20.00" y="110.19" width="100.00" height="40.19" rx="8.00" ry="8.00" style="fill:#ECECFF;stroke:#9370DB;stroke-width:1.5"></rect><text x="70.00" y="130.28" text-anchor="middle" dominant-baseline="central" style="fill:#333;font-size:14px">Yellow</text><circle cx="125.00" cy="300.56" r="10.00" style="fill:#fff;stroke:#333;stroke-width:2"></circle><circle cx="125.00" cy="300.56" r="7.00" style="fill:#333;stroke:none"></circle><circle cx="180.00" cy="130.28" r="10.00" style="fill:#333;stroke:#333"></circle></svg>