<?xml version="1.0" encoding="UTF-8"?>
<svg xmlns="http://www.w3.org/2000/svg" viewBox="0 0 569.61 198.10"><defs><marker id="arrow-arrow-solid" viewBox="0 0 10 10" refX="9.00" refY="5.00" markerWidth="8.00" markerHeight="8.00" orient="auto"><polygon points="0,0 10,5 0,10" style="fill:#333"></polygon></marker></defs><rect x="0.00" y="0.00" width="569.61" height="198.10" style="fill:#fff;stroke:none"></rect><path d="M113.97,99.05 L118.97,99.05 L158.97,99.05 L163.97,99.05" style="stroke:#333;stroke-width:1.5;fill:none" marker-end="url(#arrow-arrow-solid)"></path><path d="M259.91,84.76 L264.63,83.10 L322.72,62.76 L327.44,61.11" style="stroke:#333;stroke-width:1.5;fill:none" marker-end="url(#arrow-arrow-solid)"></path><rect x="276.92" y="59.79" width="32.91" height="26.50" rx="3.00" ry="3.00" style="fill:#fff;stroke:none"></rect><text x="293.38" y="73.04" text-anchor="middle" dominant-baseline="central" font-size="16.00" style="fill:#333;font-size:16.00px">yes</text><path d="M259.91,113.34 L264.63,115.00 L319.48,134.20 L324.20,135.86" style="stroke:#333;stroke-width:1.5;fill:none" marker-end="url(#arrow-arrow-solid)"></path><rect x="280.47" y="111.81" width="25.81" height="26.50" rx="3.00" ry="3.00" style="fill:#fff;stroke:none"></rect><text x="293.38" y="125.06" text-anchor="middle" dominant-baseline="central" font-size="16.00" style="fill:#333;font-size:16.00px">no</text><path d="M407.89,62.22 L412.57,63.99 L475.41,87.73 L480.09,89.50" style="stroke:#333;stroke-width:1.5;fill:none" marker-end="url(#arrow-arrow-solid)"></path><path d="M411.12,134.66 L415.80,132.89 L475.41,110.37 L480.09,108.60" style="stroke:#333;stroke-width:1.5;fill:none" marker-end="url(#arrow-arrow-solid)"></path><rect x="20.00" y="72.03" width="93.97" height="54.05" rx="2.00" ry="2.00" style="fill:#ECECFF;stroke:#9370DB;stroke-width:1.50"></rect><text x="66.98" y="99.05" text-anchor="middle" dominant-baseline="central" font-size="16.00" style="fill:#333;font-size:16.00px">Start</text><polygon points="219.09,43.93 274.20,99.05 219.09,154.17 163.97,99.05" style="fill:#ECECFF;stroke:#9370DB;stroke-width:1.50"></polygon><text x="219.09" y="99.05" text-anchor="middle" dominant-baseline="central" font-size="16.00" style="fill:#333;font-size:16.00px">Decide</text><rect x="327.44" y="20.00" width="80.45" height="54.05" rx="2.00" ry="2.00" style="fill:#ECECFF;stroke:#9370DB;stroke-width:1.50"></rect><text x="367.66" y="47.03" text-anchor="middle" dominant-baseline="central" font-size="16.00" style="fill:#333;font-size:16.00px">Ok</text><rect x="324.20" y="124.05" width="86.92" height="54.05" rx="2.00" ry="2.00" style="fill:#ECECFF;stroke:#9370DB;stroke-width:1.50"></rect><text x="367.66" y="151.08" text-anchor="middle" dominant-baseline="central" font-size="16.00" style="fill:#333;font-size:16.00px">Fail</text><circle cx="505.37" cy="99.05" r="27.03" style="fill:#ECECFF;stroke:#9370DB;stroke-width:1.50"></circle><text x="505.37" y="99.05" text-anchor="middle" dominant-baseline="central" font-size="16.00" style="fill:#333;font-size:16.00px">End</text></svg>