<?xml version="1.0" encoding="UTF-8"?>
<svg xmlns="http://www.w3.org/2000/svg" viewBox="0 0 535.00 380.00"><rect x="0.00" y="0.00" width="535.00" height="380.00" style="fill:#fff;stroke:none"></rect><path d="M120.40,40.00 C191.40,40.00 191.40,40.00 262.40,40.00 L262.40,70.00 C191.40,70.00 191.40,70.00 120.40,70.00 Z" style="fill:#5470c6;stroke:none;opacity:0.45"></path><path d="M120.40,70.00 C191.40,70.00 191.40,78.00 262.40,78.00 L262.40,98.00 C191.40,98.00 191.40,90.00 120.40,90.00 Z" style="fill:#5470c6;stroke:none;opacity:0.45"></path><path d="M120.40,90.00 C191.40,90.00 191.40,106.00 262.40,106.00 L262.40,156.00 C191.40,156.00 191.40,140.00 120.40,140.00 Z" style="fill:#5470c6;stroke:none;opacity:0.45"></path><path d="M280.40,106.00 C351.40,106.00 351.40,40.00 422.40,40.00 L422.40,60.00 C351.40,60.00 351.40,126.00 280.40,126.00 Z" style="fill:#ee6666;stroke:none;opacity:0.45"></path><path d="M280.40,126.00 C351.40,126.00 351.40,68.00 422.40,68.00 L422.40,83.00 C351.40,83.00 351.40,141.00 280.40,141.00 Z" style="fill:#ee6666;stroke:none;opacity:0.45"></path><path d="M280.40,141.00 C351.40,141.00 351.40,91.00 422.40,91.00 L422.40,106.00 C351.40,106.00 351.40,156.00 280.40,156.00 Z" style="fill:#ee6666;stroke:none;opacity:0.45"></path><rect x="102.40" y="40.00" width="18.00" height="100.00" style="fill:#5470c6;stroke:none"></rect><text x="96.40" y="90.00" text-anchor="end" dominant-baseline="central" style="fill:#333;font-size:13px">Income</text><rect x="262.40" y="40.00" width="18.00" height="30.00" style="fill:#91cc75;stroke:none"></rect><text x="256.40" y="55.00" text-anchor="end" dominant-baseline="central" style="fill:#333;font-size:13px">Taxes</text><rect x="262.40" y="78.00" width="18.00" height="20.00" style="fill:#fac858;stroke:none"></rect><text x="256.40" y="88.00" text-anchor="end" dominant-baseline="central" style="fill:#333;font-size:13px">Savings</text><rect x="262.40" y="106.00" width="18.00" height="50.00" style="fill:#ee6666;stroke:none"></rect><text x="256.40" y="131.00" text-anchor="end" dominant-baseline="central" style="fill:#333;font-size:13px">Spending</text><rect x="422.40" y="40.00" width="18.00" height="20.00" style="fill:#73c0de;stroke:none"></rect><text x="446.40" y="50.00" text-anchor="start" dominant-baseline="central" style="fill:#333;font-size:13px">Housing</text><rect x="422.40" y="68.00" width="18.00" height="15.00" style="fill:#3ba272;stroke:none"></rect><text x="446.40" y="75.50" text-anchor="start" dominant-baseline="central" style="fill:#333;font-size:13px">Food</text><rect x="422.40" y="91.00" width="18.00" height="15.00" style="fill:#fc8452;stroke:none"></rect><text x="446.40" y="98.50" text-anchor="start" dominant-baseline="central" style="fill:#333;font-size:13px">Other</text></svg>