<?xml version="1.0" encoding="UTF-8"?>
<svg xmlns="http://www.w3.org/2000/svg" viewBox="0 0 581.80 380.00"><rect x="0.00" y="0.00" width="581.80" height="380.00" style="fill:#fff;stroke:none"></rect><path d="M143.80,40.00 C214.80,40.00 214.80,40.00 285.80,40.00 L285.80,70.00 C214.80,70.00 214.80,70.00 143.80,70.00 Z" style="fill:#5470c6;stroke:none;opacity:0.45"></path><path d="M143.80,70.00 C214.80,70.00 214.80,78.00 285.80,78.00 L285.80,98.00 C214.80,98.00 214.80,90.00 143.80,90.00 Z" style="fill:#5470c6;stroke:none;opacity:0.45"></path><path d="M143.80,90.00 C214.80,90.00 214.80,106.00 285.80,106.00 L285.80,156.00 C214.80,156.00 214.80,140.00 143.80,140.00 Z" style="fill:#5470c6;stroke:none;opacity:0.45"></path><path d="M303.80,106.00 C374.80,106.00 374.80,40.00 445.80,40.00 L445.80,60.00 C374.80,60.00 374.80,126.00 303.80,126.00 Z" style="fill:#ee6666;stroke:none;opacity:0.45"></path><path d="M303.80,126.00 C374.80,126.00 374.80,68.00 445.80,68.00 L445.80,83.00 C374.80,83.00 374.80,141.00 303.80,141.00 Z" style="fill:#ee6666;stroke:none;opacity:0.45"></path><path d="M303.80,141.00 C374.80,141.00 374.80,91.00 445.80,91.00 L445.80,106.00 C374.80,106.00 374.80,156.00 303.80,156.00 Z" style="fill:#ee6666;stroke:none;opacity:0.45"></path><rect x="125.80" y="40.00" width="18.00" height="100.00" style="fill:#5470c6;stroke:none"></rect><text x="119.80" y="90.00" text-anchor="end" dominant-baseline="central" style="fill:#333;font-size:13px">Income 100</text><rect x="285.80" y="40.00" width="18.00" height="30.00" style="fill:#91cc75;stroke:none"></rect><text x="279.80" y="55.00" text-anchor="end" dominant-baseline="central" style="fill:#333;font-size:13px">Taxes 30</text><rect x="285.80" y="78.00" width="18.00" height="20.00" style="fill:#fac858;stroke:none"></rect><text x="279.80" y="88.00" text-anchor="end" dominant-baseline="central" style="fill:#333;font-size:13px">Savings 20</text><rect x="285.80" y="106.00" width="18.00" height="50.00" style="fill:#ee6666;stroke:none"></rect><text x="279.80" y="131.00" text-anchor="end" dominant-baseline="central" style="fill:#333;font-size:13px">Spending 50</text><rect x="445.80" y="40.00" width="18.00" height="20.00" style="fill:#73c0de;stroke:none"></rect><text x="469.80" y="50.00" text-anchor="start" dominant-baseline="central" style="fill:#333;font-size:13px">Housing 20</text><rect x="445.80" y="68.00" width="18.00" height="15.00" style="fill:#3ba272;stroke:none"></rect><text x="469.80" y="75.50" text-anchor="start" dominant-baseline="central" style="fill:#333;font-size:13px">Food 15</text><rect x="445.80" y="91.00" width="18.00" height="15.00" style="fill:#fc8452;stroke:none"></rect><text x="469.80" y="98.50" text-anchor="start" dominant-baseline="central" style="fill:#333;font-size:13px">Other 15</text></svg>