<?xml version="1.0" encoding="UTF-8"?>
<svg xmlns="http://www.w3.org/2000/svg" viewBox="0 0 566.20 380.00"><rect x="0.00" y="0.00" width="566.20" height="380.00" style="fill:#fff;stroke:none"></rect><path d="M120.40,40.00 C191.40,40.00 191.40,40.00 262.40,40.00 L262.40,90.00 C191.40,90.00 191.40,90.00 120.40,90.00 Z" style="fill:#5470c6;stroke:none;opacity:0.45"></path><path d="M120.40,98.00 C191.40,98.00 191.40,90.00 262.40,90.00 L262.40,120.00 C191.40,120.00 191.40,128.00 120.40,128.00 Z" style="fill:#fac858;stroke:none;opacity:0.45"></path><path d="M280.40,40.00 C351.40,40.00 351.40,40.00 422.40,40.00 L422.40,80.00 C351.40,80.00 351.40,80.00 280.40,80.00 Z" style="fill:#91cc75;stroke:none;opacity:0.45"></path><path d="M280.40,80.00 C351.40,80.00 351.40,88.00 422.40,88.00 L422.40,128.00 C351.40,128.00 351.40,120.00 280.40,120.00 Z" style="fill:#91cc75;stroke:none;opacity:0.45"></path><rect x="102.40" y="40.00" width="18.00" height="50.00" style="fill:#5470c6;stroke:none"></rect><text x="96.40" y="65.00" text-anchor="end" dominant-baseline="central" style="fill:#333;font-size:13px">Coal 50</text><rect x="262.40" y="40.00" width="18.00" height="80.00" style="fill:#91cc75;stroke:none"></rect><text x="256.40" y="80.00" text-anchor="end" dominant-baseline="central" style="fill:#333;font-size:13px">Power 80</text><rect x="102.40" y="98.00" width="18.00" height="30.00" style="fill:#fac858;stroke:none"></rect><text x="96.40" y="113.00" text-anchor="end" dominant-baseline="central" style="fill:#333;font-size:13px">Gas 30</text><rect x="422.40" y="40.00" width="18.00" height="40.00" style="fill:#ee6666;stroke:none"></rect><text x="446.40" y="60.00" text-anchor="start" dominant-baseline="central" style="fill:#333;font-size:13px">Industry 40</text><rect x="422.40" y="88.00" width="18.00" height="40.00" style="fill:#73c0de;stroke:none"></rect><text x="446.40" y="108.00" text-anchor="start" dominant-baseline="central" style="fill:#333;font-size:13px">Homes 40</text></svg>