<?xml version="1.0" encoding="UTF-8"?>
<svg xmlns="http://www.w3.org/2000/svg" viewBox="0 0 519.40 380.00"><rect x="0.00" y="0.00" width="519.40" height="380.00" style="fill:#fff;stroke:none"></rect><path d="M97.00,40.00 C168.00,40.00 168.00,40.00 239.00,40.00 L239.00,90.00 C168.00,90.00 168.00,90.00 97.00,90.00 Z" style="fill:#5470c6;stroke:none;opacity:0.45"></path><path d="M97.00,98.00 C168.00,98.00 168.00,90.00 239.00,90.00 L239.00,120.00 C168.00,120.00 168.00,128.00 97.00,128.00 Z" style="fill:#fac858;stroke:none;opacity:0.45"></path><path d="M257.00,40.00 C328.00,40.00 328.00,40.00 399.00,40.00 L399.00,80.00 C328.00,80.00 328.00,80.00 257.00,80.00 Z" style="fill:#91cc75;stroke:none;opacity:0.45"></path><path d="M257.00,80.00 C328.00,80.00 328.00,88.00 399.00,88.00 L399.00,128.00 C328.00,128.00 328.00,120.00 257.00,120.00 Z" style="fill:#91cc75;stroke:none;opacity:0.45"></path><rect x="79.00" y="40.00" width="18.00" height="50.00" style="fill:#5470c6;stroke:none"></rect><text x="73.00" y="65.00" text-anchor="end" dominant-baseline="central" style="fill:#333;font-size:13px">Coal</text><rect x="239.00" y="40.00" width="18.00" height="80.00" style="fill:#91cc75;stroke:none"></rect><text x="233.00" y="80.00" text-anchor="end" dominant-baseline="central" style="fill:#333;font-size:13px">Power</text><rect x="79.00" y="98.00" width="18.00" height="30.00" style="fill:#fac858;stroke:none"></rect><text x="73.00" y="113.00" text-anchor="end" dominant-baseline="central" style="fill:#333;font-size:13px">Gas</text><rect x="399.00" y="40.00" width="18.00" height="40.00" style="fill:#ee6666;stroke:none"></rect><text x="423.00" y="60.00" text-anchor="start" dominant-baseline="central" style="fill:#333;font-size:13px">Industry</text><rect x="399.00" y="88.00" width="18.00" height="40.00" style="fill:#73c0de;stroke:none"></rect><text x="423.00" y="108.00" text-anchor="start" dominant-baseline="central" style="fill:#333;font-size:13px">Homes</text></svg>