<?xml version="1.0" encoding="UTF-8"?>
<svg xmlns="http://www.w3.org/2000/svg" viewBox="0 0 1152.88 1053.51" role="graphics-document document" aria-roledescription="mindmap"><rect x="0.00" y="0.00" width="1152.88" height="1053.51" style="fill:#fff;stroke:none"></rect><g><path d="M637.01,465.89 Q698.69,421.57 743.48,360.23" style="stroke:#f28e2b;stroke-width:17;fill:none"></path><path d="M743.48,360.23 Q784.42,274.56 796.59,180.40" style="stroke:#f28e2b;stroke-width:14;fill:none"></path><path d="M743.48,360.23 Q824.31,310.43 885.57,237.89" style="stroke:#f28e2b;stroke-width:14;fill:none"></path><path d="M743.48,360.23 Q838.30,355.47 926.91,321.37" style="stroke:#f28e2b;stroke-width:14;fill:none"></path><path d="M637.01,465.89 Q654.20,539.87 693.61,604.79" style="stroke:#e15759;stroke-width:17;fill:none"></path><path d="M693.61,604.79 Q767.22,664.76 855.87,698.76" style="stroke:#e15759;stroke-width:14;fill:none"></path><path d="M855.87,698.76 Q963.06,737.36 1076.95,740.58" style="stroke:#e15759;stroke-width:11;fill:none"></path><path d="M855.87,698.76 Q943.28,771.83 1049.13,813.97" style="stroke:#e15759;stroke-width:11;fill:none"></path><path d="M855.87,698.76 Q914.11,796.68 999.99,871.54" style="stroke:#e15759;stroke-width:11;fill:none"></path><path d="M693.61,604.79 Q666.56,695.80 669.25,790.70" style="stroke:#e15759;stroke-width:14;fill:none"></path><path d="M669.25,790.70 Q689.16,902.88 743.08,1003.25" style="stroke:#e15759;stroke-width:11;fill:none"></path><path d="M669.25,790.70 Q645.55,902.14 657.80,1015.41" style="stroke:#e15759;stroke-width:11;fill:none"></path><path d="M669.25,790.70 Q598.12,879.71 558.32,986.46" style="stroke:#e15759;stroke-width:11;fill:none"></path><path d="M637.01,465.89 Q572.38,425.97 498.53,408.22" style="stroke:#76b7b2;stroke-width:17;fill:none"></path><path d="M498.53,408.22 Q403.95,416.48 316.67,453.85" style="stroke:#76b7b2;stroke-width:14;fill:none"></path><path d="M316.67,453.85 Q215.96,507.12 136.90,589.16" style="stroke:#76b7b2;stroke-width:11;fill:none"></path><path d="M316.67,453.85 Q204.07,471.19 102.50,522.81" style="stroke:#76b7b2;stroke-width:11;fill:none"></path><path d="M316.67,453.85 Q206.18,426.04 92.54,434.09" style="stroke:#76b7b2;stroke-width:11;fill:none"></path><path d="M498.53,408.22 Q454.54,324.08 386.49,257.87" style="stroke:#76b7b2;stroke-width:14;fill:none"></path><path d="M386.49,257.87 Q295.62,189.16 187.84,152.23" style="stroke:#76b7b2;stroke-width:11;fill:none"></path><path d="M386.49,257.87 Q331.99,157.82 249.00,79.77" style="stroke:#76b7b2;stroke-width:11;fill:none"></path><path d="M386.49,257.87 Q379.98,144.13 338.31,38.09" style="stroke:#76b7b2;stroke-width:11;fill:none"></path></g><g><g class="mindmap-node section-0" transform="translate(796.59,180.40)"><path d="M-91.58 13.09 v-26.19 q0,-5.00 5.00,-5.00 h173.16 q5.00,0 5.00,5.00 v31.19 H-91.58 Z" style="fill:#f28e2b;stroke:none"></path><line x1="-91.58" y1="18.09" x2="91.58" y2="18.09" style="stroke:#f28e2b;stroke-width:2;fill:none"></line><text x="0.00" y="0.00" text-anchor="middle" dominant-baseline="central" style="fill:#fff;font-size:14px">Requirement gathering</text></g><g class="mindmap-node section-0" transform="translate(885.57,237.89)"><path d="M-91.12 13.09 v-26.19 q0,-5.00 5.00,-5.00 h172.25 q5.00,0 5.00,5.00 v31.19 H-91.12 Z" style="fill:#f28e2b;stroke:none"></path><line x1="-91.13" y1="18.09" x2="91.13" y2="18.09" style="stroke:#f28e2b;stroke-width:2;fill:none"></line><text x="0.00" y="0.00" text-anchor="middle" dominant-baseline="central" style="fill:#fff;font-size:14px">Stakeholder interviews</text></g><g class="mindmap-node section-0" transform="translate(926.91,321.37)"><path d="M-70.34 13.09 v-26.19 q0,-5.00 5.00,-5.00 h130.69 q5.00,0 5.00,5.00 v31.19 H-70.34 Z" style="fill:#f28e2b;stroke:none"></path><line x1="-70.34" y1="18.09" x2="70.34" y2="18.09" style="stroke:#f28e2b;stroke-width:2;fill:none"></line><text x="0.00" y="0.00" text-anchor="middle" dominant-baseline="central" style="fill:#fff;font-size:14px">Scope definition</text></g><g class="mindmap-node section-0" transform="translate(743.48,360.23)"><path d="M-45.68 13.09 v-26.19 q0,-5.00 5.00,-5.00 h81.36 q5.00,0 5.00,5.00 v31.19 H-45.68 Z" style="fill:#f28e2b;stroke:none"></path><line x1="-45.68" y1="18.09" x2="45.68" y2="18.09" style="stroke:#f28e2b;stroke-width:2;fill:none"></line><text x="0.00" y="0.00" text-anchor="middle" dominant-baseline="central" style="fill:#fff;font-size:14px">Phase 1</text></g><g class="mindmap-node section-1" transform="translate(1076.95,740.58)"><path d="M-55.94 13.09 v-26.19 q0,-5.00 5.00,-5.00 h101.88 q5.00,0 5.00,5.00 v31.19 H-55.94 Z" style="fill:#e15759;stroke:none"></path><line x1="-55.94" y1="18.09" x2="55.94" y2="18.09" style="stroke:#e15759;stroke-width:2;fill:none"></line><text x="0.00" y="0.00" text-anchor="middle" dominant-baseline="central" style="fill:#fff;font-size:14px">Wireframes</text></g><g class="mindmap-node section-1" transform="translate(1049.13,813.97)"><path d="M-53.52 13.09 v-26.19 q0,-5.00 5.00,-5.00 h97.03 q5.00,0 5.00,5.00 v31.19 H-53.52 Z" style="fill:#e15759;stroke:none"></path><line x1="-53.52" y1="18.09" x2="53.52" y2="18.09" style="stroke:#e15759;stroke-width:2;fill:none"></line><text x="0.00" y="0.00" text-anchor="middle" dominant-baseline="central" style="fill:#fff;font-size:14px">Prototypes</text></g><g class="mindmap-node section-1" transform="translate(999.99,871.54)"><path d="M-52.06 13.09 v-26.19 q0,-5.00 5.00,-5.00 h94.12 q5.00,0 5.00,5.00 v31.19 H-52.06 Z" style="fill:#e15759;stroke:none"></path><line x1="-52.06" y1="18.09" x2="52.06" y2="18.09" style="stroke:#e15759;stroke-width:2;fill:none"></line><text x="0.00" y="0.00" text-anchor="middle" dominant-baseline="central" style="fill:#fff;font-size:14px">UX review</text></g><g class="mindmap-node section-1" transform="translate(855.87,698.76)"><path d="M-41.95 13.09 v-26.19 q0,-5.00 5.00,-5.00 h73.91 q5.00,0 5.00,5.00 v31.19 H-41.95 Z" style="fill:#e15759;stroke:none"></path><line x1="-41.95" y1="18.09" x2="41.95" y2="18.09" style="stroke:#e15759;stroke-width:2;fill:none"></line><text x="0.00" y="0.00" text-anchor="middle" dominant-baseline="central" style="fill:#fff;font-size:14px">Design</text></g><g class="mindmap-node section-1" transform="translate(743.08,1003.25)"><path d="M-48.03 13.09 v-26.19 q0,-5.00 5.00,-5.00 h86.06 q5.00,0 5.00,5.00 v31.19 H-48.03 Z" style="fill:#e15759;stroke:none"></path><line x1="-48.03" y1="18.09" x2="48.03" y2="18.09" style="stroke:#e15759;stroke-width:2;fill:none"></line><text x="0.00" y="0.00" text-anchor="middle" dominant-baseline="central" style="fill:#fff;font-size:14px">Frontend</text></g><g class="mindmap-node section-1" transform="translate(657.80,1015.41)"><path d="M-47.23 13.09 v-26.19 q0,-5.00 5.00,-5.00 h84.47 q5.00,0 5.00,5.00 v31.19 H-47.23 Z" style="fill:#e15759;stroke:none"></path><line x1="-47.23" y1="18.09" x2="47.23" y2="18.09" style="stroke:#e15759;stroke-width:2;fill:none"></line><text x="0.00" y="0.00" text-anchor="middle" dominant-baseline="central" style="fill:#fff;font-size:14px">Backend</text></g><g class="mindmap-node section-1" transform="translate(558.32,986.46)"><path d="M-67.16 13.09 v-26.19 q0,-5.00 5.00,-5.00 h124.31 q5.00,0 5.00,5.00 v31.19 H-67.16 Z" style="fill:#e15759;stroke:none"></path><line x1="-67.16" y1="18.09" x2="67.16" y2="18.09" style="stroke:#e15759;stroke-width:2;fill:none"></line><text x="0.00" y="0.00" text-anchor="middle" dominant-baseline="central" style="fill:#fff;font-size:14px">API integration</text></g><g class="mindmap-node section-1" transform="translate(669.25,790.70)"><path d="M-61.58 13.09 v-26.19 q0,-5.00 5.00,-5.00 h113.16 q5.00,0 5.00,5.00 v31.19 H-61.58 Z" style="fill:#e15759;stroke:none"></path><line x1="-61.58" y1="18.09" x2="61.58" y2="18.09" style="stroke:#e15759;stroke-width:2;fill:none"></line><text x="0.00" y="0.00" text-anchor="middle" dominant-baseline="central" style="fill:#fff;font-size:14px">Development</text></g><g class="mindmap-node section-1" transform="translate(693.61,604.79)"><path d="M-45.68 13.09 v-26.19 q0,-5.00 5.00,-5.00 h81.36 q5.00,0 5.00,5.00 v31.19 H-45.68 Z" style="fill:#e15759;stroke:none"></path><line x1="-45.68" y1="18.09" x2="45.68" y2="18.09" style="stroke:#e15759;stroke-width:2;fill:none"></line><text x="0.00" y="0.00" text-anchor="middle" dominant-baseline="central" style="fill:#fff;font-size:14px">Phase 2</text></g><g class="mindmap-node section-2" transform="translate(136.90,589.16)"><path d="M-49.44 13.09 v-26.19 q0,-5.00 5.00,-5.00 h88.88 q5.00,0 5.00,5.00 v31.19 H-49.44 Z" style="fill:#76b7b2;stroke:none"></path><line x1="-49.44" y1="18.09" x2="49.44" y2="18.09" style="stroke:#76b7b2;stroke-width:2;fill:none"></line><text x="0.00" y="0.00" text-anchor="middle" dominant-baseline="central" style="fill:#fff;font-size:14px">Unit tests</text></g><g class="mindmap-node section-2" transform="translate(102.50,522.81)"><path d="M-70.93 13.09 v-26.19 q0,-5.00 5.00,-5.00 h131.86 q5.00,0 5.00,5.00 v31.19 H-70.93 Z" style="fill:#76b7b2;stroke:none"></path><line x1="-70.93" y1="18.09" x2="70.93" y2="18.09" style="stroke:#76b7b2;stroke-width:2;fill:none"></line><text x="0.00" y="0.00" text-anchor="middle" dominant-baseline="central" style="fill:#fff;font-size:14px">Integration tests</text></g><g class="mindmap-node section-2" transform="translate(92.54,434.09)"><path d="M-72.54 13.09 v-26.19 q0,-5.00 5.00,-5.00 h135.08 q5.00,0 5.00,5.00 v31.19 H-72.54 Z" style="fill:#76b7b2;stroke:none"></path><line x1="-72.54" y1="18.09" x2="72.54" y2="18.09" style="stroke:#76b7b2;stroke-width:2;fill:none"></line><text x="0.00" y="0.00" text-anchor="middle" dominant-baseline="central" style="fill:#fff;font-size:14px">User acceptance</text></g><g class="mindmap-node section-2" transform="translate(316.67,453.85)"><path d="M-43.15 13.09 v-26.19 q0,-5.00 5.00,-5.00 h76.30 q5.00,0 5.00,5.00 v31.19 H-43.15 Z" style="fill:#76b7b2;stroke:none"></path><line x1="-43.15" y1="18.09" x2="43.15" y2="18.09" style="stroke:#76b7b2;stroke-width:2;fill:none"></line><text x="0.00" y="0.00" text-anchor="middle" dominant-baseline="central" style="fill:#fff;font-size:14px">Testing</text></g><g class="mindmap-node section-2" transform="translate(187.84,152.23)"><path d="M-66.62 13.09 v-26.19 q0,-5.00 5.00,-5.00 h123.25 q5.00,0 5.00,5.00 v31.19 H-66.62 Z" style="fill:#76b7b2;stroke:none"></path><line x1="-66.63" y1="18.09" x2="66.63" y2="18.09" style="stroke:#76b7b2;stroke-width:2;fill:none"></line><text x="0.00" y="0.00" text-anchor="middle" dominant-baseline="central" style="fill:#fff;font-size:14px">CI/CD pipeline</text></g><g class="mindmap-node section-2" transform="translate(249.00,79.77)"><path d="M-75.33 13.09 v-26.19 q0,-5.00 5.00,-5.00 h140.66 q5.00,0 5.00,5.00 v31.19 H-75.33 Z" style="fill:#76b7b2;stroke:none"></path><line x1="-75.33" y1="18.09" x2="75.33" y2="18.09" style="stroke:#76b7b2;stroke-width:2;fill:none"></line><text x="0.00" y="0.00" text-anchor="middle" dominant-baseline="central" style="fill:#fff;font-size:14px">Production rollout</text></g><g class="mindmap-node section-2" transform="translate(338.31,38.09)"><path d="M-72.13 13.09 v-26.19 q0,-5.00 5.00,-5.00 h134.27 q5.00,0 5.00,5.00 v31.19 H-72.13 Z" style="fill:#76b7b2;stroke:none"></path><line x1="-72.13" y1="18.09" x2="72.13" y2="18.09" style="stroke:#76b7b2;stroke-width:2;fill:none"></line><text x="0.00" y="0.00" text-anchor="middle" dominant-baseline="central" style="fill:#fff;font-size:14px">Monitoring setup</text></g><g class="mindmap-node section-2" transform="translate(386.49,257.87)"><path d="M-57.69 13.09 v-26.19 q0,-5.00 5.00,-5.00 h105.38 q5.00,0 5.00,5.00 v31.19 H-57.69 Z" style="fill:#76b7b2;stroke:none"></path><line x1="-57.69" y1="18.09" x2="57.69" y2="18.09" style="stroke:#76b7b2;stroke-width:2;fill:none"></line><text x="0.00" y="0.00" text-anchor="middle" dominant-baseline="central" style="fill:#fff;font-size:14px">Deployment</text></g><g class="mindmap-node section-2" transform="translate(498.53,408.22)"><path d="M-45.68 13.09 v-26.19 q0,-5.00 5.00,-5.00 h81.36 q5.00,0 5.00,5.00 v31.19 H-45.68 Z" style="fill:#76b7b2;stroke:none"></path><line x1="-45.68" y1="18.09" x2="45.68" y2="18.09" style="stroke:#76b7b2;stroke-width:2;fill:none"></line><text x="0.00" y="0.00" text-anchor="middle" dominant-baseline="central" style="fill:#fff;font-size:14px">Phase 3</text></g><g class="mindmap-node section-root" transform="translate(637.01,465.89)"><path d="M-40.00 13.09 v-26.19 q0,-5.00 5.00,-5.00 h70.00 q5.00,0 5.00,5.00 v31.19 H-40.00 Z" style="fill:#4e79a7;stroke:none"></path><line x1="-40.00" y1="18.09" x2="40.00" y2="18.09" style="stroke:#4e79a7;stroke-width:2;fill:none"></line><text x="0.00" y="0.00" text-anchor="middle" dominant-baseline="central" style="fill:#fff;font-size:14px">Plan</text></g></g></svg>