<?xml version="1.0" encoding="UTF-8"?>
<svg xmlns="http://www.w3.org/2000/svg" viewBox="0 0 379.81 301.19" role="graphics-document document" aria-roledescription="mindmap"><rect x="0.00" y="0.00" width="379.81" height="301.19" style="fill:#fff;stroke:none"></rect><g><path d="M189.90,113.09 Q260.86,85.99 319.81,38.09" style="stroke:#f28e2b;stroke-width:17;fill:none"></path><path d="M189.90,113.09 Q177.90,188.09 189.90,263.09" style="stroke:#e15759;stroke-width:17;fill:none"></path><path d="M189.90,113.09 Q130.95,65.20 60.00,38.09" style="stroke:#76b7b2;stroke-width:17;fill:none"></path></g><g><g class="mindmap-node section-0 urgent" transform="translate(319.81,38.09)"><path d="M-40.00 13.09 v-26.19 q0,-5.00 5.00,-5.00 h70.00 q5.00,0 5.00,5.00 v31.19 H-40.00 Z" style="fill:#f28e2b;stroke:none"></path><line x1="-40.00" y1="18.09" x2="40.00" y2="18.09" style="stroke:#f28e2b;stroke-width:2;fill:none"></line><text x="0.00" y="0.00" text-anchor="middle" dominant-baseline="central" style="fill:#fff;font-size:14px">A</text></g><g class="mindmap-node section-1 done" transform="translate(189.90,263.09)"><path d="M-40.00 13.09 v-26.19 q0,-5.00 5.00,-5.00 h70.00 q5.00,0 5.00,5.00 v31.19 H-40.00 Z" style="fill:#e15759;stroke:none"></path><line x1="-40.00" y1="18.09" x2="40.00" y2="18.09" style="stroke:#e15759;stroke-width:2;fill:none"></line><text x="0.00" y="0.00" text-anchor="middle" dominant-baseline="central" style="fill:#fff;font-size:14px">B</text></g><g class="mindmap-node section-2 highlight large" transform="translate(60.00,38.09)"><path d="M-40.00 13.09 v-26.19 q0,-5.00 5.00,-5.00 h70.00 q5.00,0 5.00,5.00 v31.19 H-40.00 Z" style="fill:#76b7b2;stroke:none"></path><line x1="-40.00" y1="18.09" x2="40.00" y2="18.09" style="stroke:#76b7b2;stroke-width:2;fill:none"></line><text x="0.00" y="0.00" text-anchor="middle" dominant-baseline="central" style="fill:#fff;font-size:14px">C</text></g><g class="mindmap-node section-root" transform="translate(189.90,113.09)"><path d="M-40.00 13.09 v-26.19 q0,-5.00 5.00,-5.00 h70.00 q5.00,0 5.00,5.00 v31.19 H-40.00 Z" style="fill:#4e79a7;stroke:none"></path><line x1="-40.00" y1="18.09" x2="40.00" y2="18.09" style="stroke:#4e79a7;stroke-width:2;fill:none"></line><text x="0.00" y="0.00" text-anchor="middle" dominant-baseline="central" style="fill:#fff;font-size:14px">Root</text></g></g></svg>