<?xml version="1.0" encoding="UTF-8"?>
<svg xmlns="http://www.w3.org/2000/svg" viewBox="0 0 490.24 371.70" role="graphics-document document" aria-roledescription="mindmap"><rect x="0.00" y="0.00" width="490.24" height="371.70" style="fill:#fff;stroke:none"></rect><g><path d="M267.11,192.79 Q315.20,134.00 342.55,63.14" style="stroke:#f28e2b;stroke-width:17;fill:none"></path><path d="M267.11,192.79 Q342.15,204.56 417.11,192.32" style="stroke:#e15759;stroke-width:17;fill:none"></path><path d="M267.11,192.79 Q281.69,267.33 318.80,333.61" style="stroke:#76b7b2;stroke-width:17;fill:none"></path><path d="M267.11,192.79 Q191.28,197.11 120.58,224.88" style="stroke:#59a14f;stroke-width:17;fill:none"></path><path d="M267.11,192.79 Q249.40,118.93 209.53,54.28" style="stroke:#edc948;stroke-width:17;fill:none"></path></g><g><g class="mindmap-node section-0" transform="translate(342.55,63.14)"><path d="M-54.56 13.09 v-26.19 q0,-5.00 5.00,-5.00 h99.12 q5.00,0 5.00,5.00 v31.19 H-54.56 Z" style="fill:#f28e2b;stroke:none"></path><line x1="-54.56" y1="18.09" x2="54.56" y2="18.09" style="stroke:#f28e2b;stroke-width:2;fill:none"></line><text x="-17.37" y="0.00" text-anchor="middle" dominant-baseline="central" style="fill:#fff;font-size:14px;font-weight:bold">Bold</text><text x="17.19" y="0.00" text-anchor="middle" dominant-baseline="central" style="fill:#fff;font-size:14px"> label</text></g><g class="mindmap-node section-1" transform="translate(417.11,192.32)"><path d="M-53.12 13.09 v-26.19 q0,-5.00 5.00,-5.00 h96.25 q5.00,0 5.00,5.00 v31.19 H-53.12 Z" style="fill:#e15759;stroke:none"></path><line x1="-53.13" y1="18.09" x2="53.13" y2="18.09" style="stroke:#e15759;stroke-width:2;fill:none"></line><text x="-17.37" y="0.00" text-anchor="middle" dominant-baseline="central" style="fill:#fff;font-size:14px;font-style:italic">Italic</text><text x="15.76" y="0.00" text-anchor="middle" dominant-baseline="central" style="fill:#fff;font-size:14px"> label</text></g><g class="mindmap-node section-2" transform="translate(318.80,333.61)"><path d="M-73.47 13.09 v-26.19 q0,-5.00 5.00,-5.00 h136.94 q5.00,0 5.00,5.00 v31.19 H-73.47 Z" style="fill:#76b7b2;stroke:none"></path><line x1="-73.47" y1="18.09" x2="73.47" y2="18.09" style="stroke:#76b7b2;stroke-width:2;fill:none"></line><text x="-17.37" y="0.00" text-anchor="middle" dominant-baseline="central" style="fill:#fff;font-size:14px;font-weight:bold;font-style:italic">BoldItalic</text><text x="36.10" y="0.00" text-anchor="middle" dominant-baseline="central" style="fill:#fff;font-size:14px"> label</text></g><g class="mindmap-node section-3" transform="translate(120.58,224.88)"><path d="M-100.58 13.09 v-26.19 q0,-5.00 5.00,-5.00 h191.17 q5.00,0 5.00,5.00 v31.19 H-100.58 Z" style="fill:#59a14f;stroke:none"></path><line x1="-100.58" y1="18.09" x2="100.58" y2="18.09" style="stroke:#59a14f;stroke-width:2;fill:none"></line><text x="-59.80" y="0.00" text-anchor="middle" dominant-baseline="central" style="fill:#fff;font-size:14px">Mixed </text><text x="-22.77" y="0.00" text-anchor="middle" dominant-baseline="central" style="fill:#fff;font-size:14px;font-weight:bold">bold</text><text x="9.05" y="0.00" text-anchor="middle" dominant-baseline="central" style="fill:#fff;font-size:14px"> and </text><text x="39.31" y="0.00" text-anchor="middle" dominant-baseline="central" style="fill:#fff;font-size:14px;font-style:italic">italic</text><text x="67.30" y="0.00" text-anchor="middle" dominant-baseline="central" style="fill:#fff;font-size:14px"> text</text></g><g class="mindmap-node section-4" transform="translate(209.53,54.28)"><path d="M-40.00 29.28 v-58.56 q0,-5.00 5.00,-5.00 h70.00 q5.00,0 5.00,5.00 v63.56 H-40.00 Z" style="fill:#edc948;stroke:none"></path><line x1="-40.00" y1="34.28" x2="40.00" y2="34.28" style="stroke:#edc948;stroke-width:2;fill:none"></line><text x="0.00" y="-16.19" text-anchor="middle" dominant-baseline="central" style="fill:#fff;font-size:14px">Multi</text><text x="0.00" y="0.00" text-anchor="middle" dominant-baseline="central" style="fill:#fff;font-size:14px">line</text><text x="0.00" y="16.19" text-anchor="middle" dominant-baseline="central" style="fill:#fff;font-size:14px">text</text></g><g class="mindmap-node section-root" transform="translate(267.11,192.79)"><path d="M-40.00 13.09 v-26.19 q0,-5.00 5.00,-5.00 h70.00 q5.00,0 5.00,5.00 v31.19 H-40.00 Z" style="fill:#4e79a7;stroke:none"></path><line x1="-40.00" y1="18.09" x2="40.00" y2="18.09" style="stroke:#4e79a7;stroke-width:2;fill:none"></line><text x="0.00" y="0.00" text-anchor="middle" dominant-baseline="central" style="fill:#fff;font-size:14px">Root</text></g></g></svg>