<?xml version="1.0" encoding="UTF-8"?>
<svg xmlns="http://www.w3.org/2000/svg" viewBox="0 0 741.61 696.36" role="graphics-document document" aria-roledescription="mindmap"><rect x="0.00" y="0.00" width="741.61" height="696.36" style="fill:#fff;stroke:none"></rect><g><path d="M397.22,333.42 Q457.65,287.40 500.70,224.83" style="stroke:#f28e2b;stroke-width:17;fill:none"></path><path d="M500.70,224.83 Q576.23,167.30 630.05,89.09" style="stroke:#f28e2b;stroke-width:14;fill:none"></path><path d="M397.22,333.42 Q453.96,383.91 523.62,414.19" style="stroke:#e15759;stroke-width:17;fill:none"></path><path d="M523.62,414.19 Q594.54,477.31 681.61,515.15" style="stroke:#e15759;stroke-width:14;fill:none"></path><path d="M397.22,333.42 Q365.78,402.56 357.48,478.06" style="stroke:#76b7b2;stroke-width:17;fill:none"></path><path d="M357.48,478.06 Q318.19,564.49 307.82,658.86" style="stroke:#76b7b2;stroke-width:14;fill:none"></path><path d="M397.22,333.42 Q321.79,324.49 247.34,339.54" style="stroke:#59a14f;stroke-width:17;fill:none"></path><path d="M247.34,339.54 Q153.06,328.39 60.00,347.20" style="stroke:#59a14f;stroke-width:14;fill:none"></path><path d="M397.22,333.42 Q371.67,261.89 325.09,201.90" style="stroke:#edc948;stroke-width:17;fill:none"></path><path d="M325.09,201.90 Q293.16,112.49 234.93,37.50" style="stroke:#edc948;stroke-width:14;fill:none"></path></g><g><g class="mindmap-node section-0" transform="translate(630.05,89.09)"><path d="M-40.00 12.50 v-25.00 q0,-5.00 5.00,-5.00 h70.00 q5.00,0 5.00,5.00 v30.00 H-40.00 Z" style="fill:#f28e2b;stroke:none"></path><line x1="-40.00" y1="17.50" x2="40.00" y2="17.50" style="stroke:#f28e2b;stroke-width:2;fill:none"></line><g transform="translate(-0.30,0.00) scale(1.000)"><path d="M0.058 -10.633 C0.058 -10.631 0.057 -10.631 0.056 -10.631 L0.007 -10.631 C0.006 -10.631 0.004 -10.631 0.004 -10.633 C0.004 -10.635 0.006 -10.635 0.007 -10.635 L0.056 -10.635 C0.057 -10.635 0.058 -10.635 0.058 -10.633 "></path><path d="M1.636 -10.636 C1.636 -10.625 1.628 -10.617 1.618 -10.617 C1.612 -10.617 1.609 -10.621 1.607 -10.623 L1.607 -10.597 L1.596 -10.598 L1.596 -10.600 C1.601 -10.600 1.602 -10.601 1.602 -10.605 L1.602 -10.653 L1.604 -10.653 L1.607 -10.648 C1.608 -10.650 1.612 -10.654 1.618 -10.654 C1.627 -10.654 1.636 -10.646 1.636 -10.636 M1.629 -10.636 C1.629 -10.639 1.629 -10.644 1.626 -10.647 C1.625 -10.650 1.622 -10.652 1.617 -10.652 C1.614 -10.652 1.611 -10.650 1.609 -10.648 C1.608 -10.646 1.608 -10.646 1.608 -10.644 L1.608 -10.627 C1.608 -10.626 1.608 -10.626 1.609 -10.624 C1.612 -10.620 1.616 -10.619 1.618 -10.619 C1.622 -10.619 1.625 -10.621 1.627 -10.624 C1.629 -10.628 1.629 -10.632 1.629 -10.636 "></path><path d="M6.689 -10.652 C6.689 -10.650 6.687 -10.650 6.686 -10.650 L6.663 -10.650 L6.663 -10.628 L6.686 -10.628 C6.687 -10.628 6.689 -10.628 6.689 -10.626 C6.689 -10.625 6.687 -10.625 6.686 -10.625 L6.663 -10.625 L6.663 -10.602 C6.663 -10.601 6.663 -10.599 6.662 -10.599 C6.660 -10.599 6.660 -10.601 6.660 -10.602 L6.660 -10.625 L6.637 -10.625 C6.636 -10.625 6.635 -10.625 6.635 -10.626 C6.635 -10.628 6.636 -10.628 6.637 -10.628 L6.660 -10.628 L6.660 -10.650 L6.637 -10.650 C6.636 -10.650 6.635 -10.650 6.635 -10.652 C6.635 -10.653 6.636 -10.653 6.637 -10.653 L6.686 -10.653 C6.687 -10.653 6.689 -10.653 6.689 -10.652 "></path><path d="M11.517 -11.345 C11.517 -11.341 11.513 -11.340 11.510 -11.340 L11.490 -11.340 C11.482 -11.340 11.482 -11.345 11.481 -11.352 L11.445 -11.488 C11.444 -11.491 11.443 -11.494 11.443 -11.497 L11.430 -11.435 L11.406 -11.472 L11.405 -11.475 L11.408 -11.478 L11.421 -11.457 C11.422 -11.463 11.424 -11.469 11.425 -11.475 L11.432 -11.512 L11.435 -11.525 C11.435 -11.526 11.435 -11.529 11.437 -11.529 L11.439 -11.529 C11.444 -11.529 11.444 -11.526 11.446 -11.522 L11.454 -11.488 L11.489 -11.356 C11.489 -11.354 11.490 -11.351 11.491 -11.349 L11.513 -11.349 C11.515 -11.349 11.517 -11.347 11.517 -11.345 "></path><rect x="14.93" y="-0.88" width="26.61" height="0.61"></rect><path d="M16.202 -10.598 C16.202 -10.587 16.194 -10.579 16.184 -10.579 C16.178 -10.579 16.175 -10.583 16.173 -10.585 L16.173 -10.559 L16.162 -10.560 L16.162 -10.562 C16.167 -10.562 16.168 -10.563 16.168 -10.567 L16.168 -10.615 L16.170 -10.615 L16.173 -10.610 C16.174 -10.612 16.178 -10.616 16.184 -10.616 C16.193 -10.616 16.202 -10.608 16.202 -10.598 M16.195 -10.598 C16.195 -10.601 16.195 -10.606 16.192 -10.609 C16.191 -10.612 16.188 -10.614 16.183 -10.614 C16.179 -10.614 16.177 -10.612 16.175 -10.610 C16.174 -10.608 16.174 -10.608 16.174 -10.606 L16.174 -10.589 C16.174 -10.588 16.174 -10.588 16.174 -10.586 C16.178 -10.582 16.182 -10.581 16.184 -10.581 C16.188 -10.581 16.191 -10.583 16.193 -10.586 C16.195 -10.590 16.195 -10.594 16.195 -10.598 "></path><path d="M21.247 -10.614 C21.248 -10.613 21.247 -10.612 21.246 -10.611 L21.230 -10.595 L21.246 -10.579 C21.247 -10.578 21.248 -10.577 21.247 -10.576 C21.246 -10.575 21.244 -10.576 21.244 -10.577 L21.228 -10.593 L21.212 -10.577 C21.211 -10.576 21.210 -10.575 21.209 -10.576 C21.207 -10.577 21.209 -10.578 21.209 -10.579 L21.225 -10.595 L21.209 -10.611 C21.209 -10.612 21.207 -10.613 21.209 -10.614 C21.210 -10.615 21.211 -10.614 21.212 -10.613 L21.228 -10.597 L21.244 -10.613 C21.245 -10.614 21.246 -10.615 21.247 -10.614 "></path><path d="M26.007 -10.598 C26.007 -10.587 25.999 -10.579 25.990 -10.579 C25.984 -10.579 25.980 -10.583 25.979 -10.585 L25.979 -10.559 L25.967 -10.560 L25.967 -10.562 C25.973 -10.562 25.974 -10.563 25.974 -10.567 L25.974 -10.615 L25.976 -10.615 L25.979 -10.610 C25.980 -10.612 25.983 -10.616 25.989 -10.616 C25.999 -10.616 26.007 -10.608 26.007 -10.598 M26.001 -10.598 C26.001 -10.601 26.000 -10.606 25.998 -10.609 C25.996 -10.612 25.993 -10.614 25.989 -10.614 C25.985 -10.614 25.982 -10.612 25.980 -10.610 C25.979 -10.608 25.979 -10.608 25.979 -10.606 L25.979 -10.589 C25.979 -10.588 25.979 -10.588 25.980 -10.586 C25.983 -10.582 25.988 -10.581 25.990 -10.581 C25.993 -10.581 25.996 -10.583 25.998 -10.586 C26.000 -10.590 26.001 -10.594 26.001 -10.598 "></path><path d="M30.277 -10.595 C30.277 -10.593 30.276 -10.593 30.275 -10.593 L30.226 -10.593 C30.225 -10.593 30.224 -10.593 30.224 -10.595 C30.224 -10.597 30.225 -10.597 30.226 -10.597 L30.275 -10.597 C30.276 -10.597 30.277 -10.597 30.277 -10.595 "></path><path d="M33.444 -10.602 L33.444 -10.599 L33.436 -10.599 L33.436 -10.563 C33.436 -10.561 33.436 -10.560 33.435 -10.560 C33.434 -10.560 33.434 -10.560 33.433 -10.561 L33.408 -10.599 L33.408 -10.602 L33.430 -10.602 L33.430 -10.609 C33.430 -10.612 33.430 -10.613 33.424 -10.613 L33.422 -10.613 L33.422 -10.615 C33.425 -10.615 33.430 -10.615 33.433 -10.615 C33.436 -10.615 33.441 -10.615 33.444 -10.615 L33.444 -10.613 L33.442 -10.613 C33.436 -10.613 33.436 -10.612 33.436 -10.609 L33.436 -10.602 L33.444 -10.602 M33.430 -10.599 L33.411 -10.599 L33.430 -10.569 L33.430 -10.599 "></path><path d="M35.838 -10.608 L35.838 -10.603 L35.836 -10.603 L35.836 -10.608 C35.836 -10.613 35.834 -10.613 35.833 -10.613 C35.830 -10.613 35.830 -10.610 35.830 -10.609 L35.830 -10.593 C35.830 -10.590 35.830 -10.586 35.827 -10.583 C35.824 -10.580 35.820 -10.579 35.816 -10.579 C35.809 -10.579 35.804 -10.583 35.804 -10.588 C35.804 -10.591 35.805 -10.592 35.807 -10.592 C35.810 -10.592 35.811 -10.590 35.811 -10.588 C35.811 -10.587 35.811 -10.585 35.807 -10.584 C35.809 -10.582 35.813 -10.581 35.816 -10.581 C35.820 -10.581 35.824 -10.584 35.824 -10.591 L35.824 -10.594 C35.820 -10.594 35.814 -10.595 35.809 -10.597 C35.803 -10.600 35.801 -10.604 35.801 -10.608 C35.801 -10.614 35.809 -10.616 35.814 -10.616 C35.820 -10.616 35.823 -10.613 35.825 -10.609 C35.825 -10.612 35.827 -10.616 35.831 -10.616 C35.833 -10.616 35.838 -10.615 35.838 -10.608 M35.824 -10.604 C35.824 -10.612 35.818 -10.614 35.815 -10.614 C35.811 -10.614 35.807 -10.612 35.807 -10.608 C35.807 -10.603 35.811 -10.596 35.824 -10.596 L35.824 -10.604 "></path><path d="M38.225 -10.606 C38.225 -10.605 38.224 -10.605 38.224 -10.605 C38.223 -10.605 38.223 -10.605 38.223 -10.606 C38.220 -10.613 38.215 -10.614 38.212 -10.614 C38.208 -10.614 38.201 -10.611 38.201 -10.598 C38.201 -10.584 38.207 -10.581 38.212 -10.581 C38.212 -10.581 38.218 -10.581 38.220 -10.584 C38.217 -10.584 38.217 -10.587 38.217 -10.588 C38.217 -10.590 38.218 -10.592 38.220 -10.592 C38.222 -10.592 38.224 -10.590 38.224 -10.588 C38.224 -10.582 38.218 -10.579 38.212 -10.579 C38.201 -10.579 38.194 -10.588 38.194 -10.598 C38.194 -10.608 38.202 -10.616 38.211 -10.616 C38.222 -10.616 38.225 -10.606 38.225 -10.606 "></path><rect x="0.00" y="-16.60" width="41.54" height="0.88"></rect><path d="M18.036 -23.985 L18.034 -23.985 C18.034 -23.987 18.033 -23.991 18.033 -23.992 C18.032 -23.993 18.027 -23.993 18.025 -23.993 L18.010 -23.993 L18.019 -23.984 C18.032 -23.973 18.036 -23.969 18.036 -23.961 C18.036 -23.951 18.029 -23.945 18.019 -23.945 C18.010 -23.945 18.004 -23.952 18.004 -23.960 C18.004 -23.964 18.008 -23.964 18.008 -23.964 C18.010 -23.964 18.013 -23.963 18.013 -23.960 C18.013 -23.958 18.011 -23.956 18.008 -23.956 C18.008 -23.956 18.007 -23.956 18.007 -23.956 C18.009 -23.950 18.014 -23.947 18.018 -23.947 C18.025 -23.947 18.029 -23.954 18.029 -23.961 C18.029 -23.967 18.025 -23.974 18.021 -23.978 L18.005 -23.996 C18.004 -23.997 18.004 -23.997 18.004 -23.999 L18.034 -23.999 L18.036 -23.985 "></path><path d="M20.432 -23.992 L20.432 -23.987 L20.430 -23.987 L20.430 -23.992 C20.430 -23.996 20.428 -23.997 20.427 -23.997 C20.424 -23.997 20.424 -23.993 20.424 -23.993 L20.424 -23.977 C20.424 -23.973 20.424 -23.970 20.421 -23.967 C20.418 -23.964 20.414 -23.963 20.410 -23.963 C20.403 -23.963 20.398 -23.966 20.398 -23.972 C20.398 -23.974 20.399 -23.976 20.401 -23.976 C20.404 -23.976 20.405 -23.974 20.405 -23.972 C20.405 -23.971 20.405 -23.968 20.401 -23.968 C20.403 -23.965 20.407 -23.964 20.410 -23.964 C20.414 -23.964 20.418 -23.967 20.418 -23.975 L20.418 -23.978 C20.414 -23.978 20.408 -23.978 20.403 -23.981 C20.397 -23.983 20.395 -23.988 20.395 -23.991 C20.395 -23.998 20.403 -24.000 20.408 -24.000 C20.414 -24.000 20.417 -23.996 20.419 -23.993 C20.419 -23.996 20.421 -23.999 20.425 -23.999 C20.427 -23.999 20.432 -23.998 20.432 -23.992 M20.418 -23.987 C20.418 -23.995 20.412 -23.998 20.409 -23.998 C20.405 -23.998 20.401 -23.995 20.401 -23.991 C20.401 -23.987 20.405 -23.980 20.418 -23.979 L20.418 -23.987 "></path></g></g><g class="mindmap-node section-0" transform="translate(500.70,224.83)"><path d="M-76.13 13.09 v-26.19 q0,-5.00 5.00,-5.00 h142.27 q5.00,0 5.00,5.00 v31.19 H-76.13 Z" style="fill:#f28e2b;stroke:none"></path><line x1="-76.13" y1="18.09" x2="76.13" y2="18.09" style="stroke:#f28e2b;stroke-width:2;fill:none"></line><text x="0.00" y="0.00" text-anchor="middle" dominant-baseline="central" style="fill:#fff;font-size:14px">Quadratic formula</text></g><g class="mindmap-node section-1" transform="translate(681.61,515.15)"><path d="M-40.00 12.50 v-25.00 q0,-5.00 5.00,-5.00 h70.00 q5.00,0 5.00,5.00 v30.00 H-40.00 Z" style="fill:#e15759;stroke:none"></path><line x1="-40.00" y1="17.50" x2="40.00" y2="17.50" style="stroke:#e15759;stroke-width:2;fill:none"></line><g transform="translate(-0.15,0.00) scale(1.000)"><path d="M0.087 -10.351 C0.087 -10.351 0.087 -10.350 0.086 -10.347 L0.019 -10.163 C0.018 -10.161 0.018 -10.159 0.015 -10.159 C0.013 -10.159 0.011 -10.160 0.011 -10.162 C0.011 -10.162 0.011 -10.163 0.012 -10.166 L0.079 -10.350 C0.079 -10.352 0.080 -10.355 0.083 -10.355 C0.085 -10.355 0.087 -10.353 0.087 -10.351 "></path><path d="M5.766 -10.231 C5.766 -10.225 5.760 -10.219 5.751 -10.219 C5.737 -10.219 5.730 -10.232 5.727 -10.241 L5.727 -10.219 L5.700 -10.221 L5.700 -10.227 C5.714 -10.227 5.715 -10.229 5.715 -10.238 L5.715 -10.291 C5.715 -10.299 5.713 -10.299 5.700 -10.299 L5.700 -10.306 L5.722 -10.305 C5.730 -10.305 5.739 -10.305 5.747 -10.306 L5.747 -10.299 L5.743 -10.299 C5.728 -10.299 5.728 -10.297 5.728 -10.290 L5.728 -10.260 C5.728 -10.241 5.736 -10.223 5.751 -10.223 C5.753 -10.223 5.753 -10.223 5.753 -10.224 C5.753 -10.224 5.749 -10.226 5.749 -10.231 C5.749 -10.237 5.753 -10.239 5.757 -10.239 C5.761 -10.239 5.766 -10.237 5.766 -10.231 "></path><path d="M11.856 -10.351 C11.856 -10.351 11.856 -10.350 11.855 -10.347 L11.788 -10.163 C11.787 -10.161 11.786 -10.159 11.784 -10.159 C11.781 -10.159 11.780 -10.160 11.780 -10.162 C11.780 -10.162 11.780 -10.163 11.781 -10.166 L11.847 -10.350 C11.848 -10.352 11.849 -10.355 11.852 -10.355 C11.854 -10.355 11.856 -10.353 11.856 -10.351 "></path><path d="M18.653 -10.231 C18.653 -10.225 18.647 -10.219 18.638 -10.219 C18.624 -10.219 18.617 -10.232 18.614 -10.241 L18.614 -10.219 L18.587 -10.221 L18.587 -10.227 C18.601 -10.227 18.602 -10.229 18.602 -10.238 L18.602 -10.291 C18.602 -10.299 18.600 -10.299 18.587 -10.299 L18.587 -10.306 L18.609 -10.305 C18.617 -10.305 18.626 -10.305 18.634 -10.306 L18.634 -10.299 L18.630 -10.299 C18.616 -10.299 18.615 -10.297 18.615 -10.290 L18.615 -10.260 C18.615 -10.241 18.623 -10.223 18.638 -10.223 C18.640 -10.223 18.640 -10.223 18.641 -10.224 C18.640 -10.224 18.636 -10.226 18.636 -10.231 C18.636 -10.237 18.640 -10.239 18.644 -10.239 C18.648 -10.239 18.653 -10.237 18.653 -10.231 "></path></g></g><g class="mindmap-node section-1" transform="translate(523.62,414.19)"><path d="M-61.33 13.09 v-26.19 q0,-5.00 5.00,-5.00 h112.66 q5.00,0 5.00,5.00 v31.19 H-61.33 Z" style="fill:#e15759;stroke:none"></path><line x1="-61.33" y1="18.09" x2="61.33" y2="18.09" style="stroke:#e15759;stroke-width:2;fill:none"></line><text x="0.00" y="0.00" text-anchor="middle" dominant-baseline="central" style="fill:#fff;font-size:14px">Area of circle</text></g><g class="mindmap-node section-2" transform="translate(307.82,658.86)"><path d="M-40.00 12.50 v-25.00 q0,-5.00 5.00,-5.00 h70.00 q5.00,0 5.00,5.00 v30.00 H-40.00 Z" style="fill:#76b7b2;stroke:none"></path><line x1="-40.00" y1="17.50" x2="40.00" y2="17.50" style="stroke:#76b7b2;stroke-width:2;fill:none"></line><g transform="translate(-0.09,0.00) scale(1.000)"><path d="M0.134 -12.438 C0.134 -12.434 0.130 -12.433 0.127 -12.433 L0.104 -12.433 C0.095 -12.433 0.095 -12.439 0.093 -12.447 L0.052 -12.602 C0.051 -12.605 0.050 -12.609 0.050 -12.612 L0.035 -12.540 L0.007 -12.583 L0.006 -12.586 L0.010 -12.590 L0.025 -12.566 C0.026 -12.573 0.028 -12.580 0.029 -12.587 L0.038 -12.629 L0.041 -12.643 C0.041 -12.645 0.041 -12.647 0.043 -12.648 L0.045 -12.648 C0.051 -12.648 0.052 -12.644 0.053 -12.640 L0.063 -12.601 L0.102 -12.451 C0.103 -12.449 0.104 -12.446 0.104 -12.443 L0.129 -12.443 C0.132 -12.443 0.134 -12.441 0.134 -12.438 "></path><rect x="3.76" y="-1.54" width="9.19" height="0.88"></rect><path d="M5.567 -13.945 L5.567 -13.934 L5.515 -13.934 L5.515 -13.945 L5.567 -13.945 "></path><path d="M7.871 -13.982 L7.871 -13.976 L7.865 -13.976 C7.847 -13.976 7.847 -13.973 7.847 -13.966 L7.847 -13.856 C7.847 -13.852 7.847 -13.851 7.842 -13.851 C7.830 -13.864 7.813 -13.864 7.807 -13.864 L7.807 -13.870 C7.810 -13.870 7.822 -13.870 7.832 -13.865 L7.832 -13.966 C7.832 -13.973 7.831 -13.976 7.814 -13.976 L7.808 -13.976 L7.808 -13.982 C7.814 -13.981 7.831 -13.981 7.839 -13.981 C7.847 -13.981 7.864 -13.981 7.871 -13.982 "></path></g></g><g class="mindmap-node section-2" transform="translate(357.48,478.06)"><path d="M-65.16 13.09 v-26.19 q0,-5.00 5.00,-5.00 h120.33 q5.00,0 5.00,5.00 v31.19 H-65.16 Z" style="fill:#76b7b2;stroke:none"></path><line x1="-65.16" y1="18.09" x2="65.16" y2="18.09" style="stroke:#76b7b2;stroke-width:2;fill:none"></line><text x="0.00" y="0.00" text-anchor="middle" dominant-baseline="central" style="fill:#fff;font-size:14px">Imaginary unit</text></g><g class="mindmap-node section-3" transform="translate(60.00,347.20)"><path d="M-40.00 12.50 v-25.00 q0,-5.00 5.00,-5.00 h70.00 q5.00,0 5.00,5.00 v30.00 H-40.00 Z" style="fill:#59a14f;stroke:none"></path><line x1="-40.00" y1="17.50" x2="40.00" y2="17.50" style="stroke:#59a14f;stroke-width:2;fill:none"></line><g transform="translate(-0.14,0.00) scale(1.000)"><path d="M0.087 -10.351 C0.087 -10.351 0.087 -10.350 0.086 -10.347 L0.019 -10.163 C0.018 -10.161 0.018 -10.159 0.015 -10.159 C0.013 -10.159 0.011 -10.160 0.011 -10.162 C0.011 -10.162 0.011 -10.163 0.012 -10.166 L0.079 -10.350 C0.079 -10.352 0.080 -10.355 0.083 -10.355 C0.085 -10.355 0.087 -10.353 0.087 -10.351 "></path><path d="M5.781 -10.351 C5.781 -10.351 5.781 -10.350 5.780 -10.347 L5.714 -10.163 C5.713 -10.161 5.712 -10.159 5.709 -10.159 C5.707 -10.159 5.705 -10.160 5.705 -10.162 C5.705 -10.162 5.705 -10.163 5.706 -10.166 L5.773 -10.350 C5.774 -10.352 5.774 -10.355 5.777 -10.355 C5.779 -10.355 5.781 -10.353 5.781 -10.351 "></path><path d="M11.476 -10.351 C11.476 -10.351 11.476 -10.350 11.474 -10.347 L11.408 -10.163 C11.407 -10.161 11.406 -10.159 11.404 -10.159 C11.401 -10.159 11.400 -10.160 11.400 -10.162 C11.400 -10.162 11.400 -10.163 11.401 -10.166 L11.467 -10.350 C11.468 -10.352 11.469 -10.355 11.472 -10.355 C11.474 -10.355 11.476 -10.353 11.476 -10.351 "></path><path d="M17.170 -10.351 C17.170 -10.351 17.170 -10.350 17.169 -10.347 L17.102 -10.163 C17.101 -10.161 17.101 -10.159 17.098 -10.159 C17.096 -10.159 17.094 -10.160 17.094 -10.162 C17.094 -10.162 17.094 -10.163 17.095 -10.166 L17.162 -10.350 C17.162 -10.352 17.163 -10.355 17.166 -10.355 C17.168 -10.355 17.170 -10.353 17.170 -10.351 "></path></g></g><g class="mindmap-node section-3" transform="translate(247.34,339.54)"><path d="M-60.44 13.09 v-26.19 q0,-5.00 5.00,-5.00 h110.88 q5.00,0 5.00,5.00 v31.19 H-60.44 Z" style="fill:#59a14f;stroke:none"></path><line x1="-60.44" y1="18.09" x2="60.44" y2="18.09" style="stroke:#59a14f;stroke-width:2;fill:none"></line><text x="0.00" y="0.00" text-anchor="middle" dominant-baseline="central" style="fill:#fff;font-size:14px">Greek letters</text></g><g class="mindmap-node section-4" transform="translate(234.93,37.50)"><path d="M-40.00 12.50 v-25.00 q0,-5.00 5.00,-5.00 h70.00 q5.00,0 5.00,5.00 v30.00 H-40.00 Z" style="fill:#edc948;stroke:none"></path><line x1="-40.00" y1="17.50" x2="40.00" y2="17.50" style="stroke:#edc948;stroke-width:2;fill:none"></line><g transform="translate(-0.22,0.00) scale(1.000)"><path d="M0.034 -6.488 L0.034 -6.485 L0.031 -6.485 C0.024 -6.485 0.024 -6.484 0.024 -6.481 L0.024 -6.436 C0.024 -6.434 0.024 -6.434 0.022 -6.434 C0.017 -6.439 0.010 -6.439 0.007 -6.439 L0.007 -6.441 C0.009 -6.441 0.014 -6.441 0.018 -6.439 L0.018 -6.481 C0.018 -6.484 0.018 -6.485 0.010 -6.485 L0.008 -6.485 L0.008 -6.488 C0.011 -6.487 0.018 -6.487 0.021 -6.487 C0.024 -6.487 0.031 -6.487 0.034 -6.488 "></path><rect x="0.00" y="-9.99" width="2.39" height="0.88"></rect><path d="M0.036 -17.369 L0.034 -17.369 C0.034 -17.371 0.033 -17.375 0.033 -17.376 C0.032 -17.377 0.027 -17.377 0.025 -17.377 L0.010 -17.377 L0.019 -17.368 C0.032 -17.357 0.036 -17.353 0.036 -17.345 C0.036 -17.336 0.029 -17.329 0.019 -17.329 C0.010 -17.329 0.004 -17.337 0.004 -17.344 C0.004 -17.348 0.008 -17.348 0.008 -17.348 C0.010 -17.348 0.013 -17.347 0.013 -17.344 C0.013 -17.342 0.011 -17.340 0.008 -17.340 C0.008 -17.340 0.007 -17.340 0.007 -17.340 C0.009 -17.335 0.013 -17.332 0.018 -17.332 C0.025 -17.332 0.029 -17.338 0.029 -17.345 C0.029 -17.351 0.025 -17.358 0.021 -17.363 L0.005 -17.380 C0.004 -17.381 0.004 -17.381 0.004 -17.383 L0.034 -17.383 L0.036 -17.369 "></path><path d="M6.560 -11.689 C6.560 -11.685 6.557 -11.685 6.554 -11.685 L6.499 -11.685 L6.499 -11.630 C6.499 -11.627 6.499 -11.623 6.495 -11.623 C6.491 -11.623 6.491 -11.627 6.491 -11.630 L6.491 -11.685 L6.436 -11.685 C6.434 -11.685 6.430 -11.685 6.430 -11.689 C6.430 -11.692 6.434 -11.692 6.436 -11.692 L6.491 -11.692 L6.491 -11.747 C6.491 -11.750 6.491 -11.754 6.495 -11.754 C6.499 -11.754 6.499 -11.750 6.499 -11.747 L6.499 -11.692 L6.554 -11.692 C6.557 -11.692 6.560 -11.692 6.560 -11.689 "></path><path d="M14.048 -6.488 L14.048 -6.485 L14.045 -6.485 C14.038 -6.485 14.037 -6.484 14.037 -6.481 L14.037 -6.436 C14.037 -6.434 14.037 -6.434 14.036 -6.434 C14.031 -6.439 14.024 -6.439 14.021 -6.439 L14.021 -6.441 C14.023 -6.441 14.027 -6.441 14.032 -6.439 L14.032 -6.481 C14.032 -6.484 14.031 -6.485 14.024 -6.485 L14.021 -6.485 L14.021 -6.488 C14.024 -6.487 14.031 -6.487 14.034 -6.487 C14.038 -6.487 14.045 -6.487 14.048 -6.488 "></path><rect x="14.01" y="-9.99" width="2.39" height="0.88"></rect><path d="M14.051 -17.369 C14.051 -17.363 14.046 -17.356 14.037 -17.355 C14.044 -17.352 14.049 -17.347 14.049 -17.340 C14.049 -17.334 14.041 -17.329 14.034 -17.329 C14.025 -17.329 14.019 -17.334 14.019 -17.340 C14.019 -17.343 14.021 -17.344 14.023 -17.344 C14.026 -17.344 14.027 -17.343 14.027 -17.340 C14.027 -17.336 14.024 -17.336 14.023 -17.336 C14.025 -17.332 14.030 -17.331 14.033 -17.331 C14.037 -17.331 14.041 -17.333 14.041 -17.340 C14.041 -17.341 14.041 -17.346 14.039 -17.349 C14.036 -17.353 14.034 -17.354 14.032 -17.354 C14.031 -17.354 14.029 -17.354 14.028 -17.354 C14.028 -17.354 14.027 -17.354 14.027 -17.355 C14.027 -17.356 14.028 -17.356 14.029 -17.356 L14.033 -17.356 C14.039 -17.356 14.042 -17.361 14.042 -17.369 C14.042 -17.380 14.037 -17.383 14.033 -17.383 C14.030 -17.383 14.024 -17.381 14.021 -17.376 C14.024 -17.377 14.026 -17.375 14.026 -17.372 C14.026 -17.369 14.024 -17.367 14.022 -17.367 C14.020 -17.367 14.017 -17.369 14.017 -17.372 C14.017 -17.380 14.025 -17.385 14.034 -17.385 C14.043 -17.385 14.051 -17.377 14.051 -17.369 "></path><path d="M20.574 -11.669 C20.574 -11.666 20.570 -11.666 20.567 -11.666 L20.450 -11.666 C20.447 -11.666 20.444 -11.666 20.444 -11.669 C20.444 -11.673 20.447 -11.673 20.450 -11.673 L20.567 -11.673 C20.570 -11.673 20.574 -11.673 20.574 -11.669 M20.574 -11.708 C20.574 -11.704 20.570 -11.704 20.567 -11.704 L20.450 -11.704 C20.447 -11.704 20.444 -11.704 20.444 -11.708 C20.444 -11.711 20.447 -11.711 20.450 -11.711 L20.567 -11.711 C20.570 -11.711 20.574 -11.711 20.574 -11.708 "></path><path d="M28.064 -6.254 C28.064 -6.245 28.057 -6.237 28.048 -6.237 C28.044 -6.237 28.041 -6.238 28.038 -6.241 L28.038 -6.225 C28.040 -6.225 28.042 -6.226 28.045 -6.226 C28.055 -6.226 28.061 -6.219 28.061 -6.218 C28.061 -6.217 28.060 -6.217 28.060 -6.217 C28.060 -6.217 28.060 -6.217 28.059 -6.217 C28.057 -6.218 28.053 -6.219 28.048 -6.219 C28.045 -6.219 28.041 -6.219 28.037 -6.217 C28.037 -6.217 28.036 -6.217 28.036 -6.217 C28.035 -6.217 28.035 -6.217 28.035 -6.219 L28.035 -6.243 C28.035 -6.244 28.035 -6.245 28.037 -6.245 C28.037 -6.245 28.037 -6.245 28.038 -6.244 C28.039 -6.243 28.042 -6.238 28.048 -6.238 C28.052 -6.238 28.054 -6.242 28.055 -6.244 C28.056 -6.247 28.056 -6.250 28.056 -6.254 C28.056 -6.257 28.056 -6.261 28.055 -6.265 C28.053 -6.268 28.050 -6.270 28.046 -6.270 C28.040 -6.270 28.035 -6.266 28.034 -6.261 C28.034 -6.261 28.035 -6.261 28.035 -6.261 C28.038 -6.261 28.039 -6.259 28.039 -6.257 C28.039 -6.255 28.038 -6.253 28.035 -6.253 C28.034 -6.253 28.031 -6.254 28.031 -6.257 C28.031 -6.265 28.037 -6.272 28.046 -6.272 C28.055 -6.272 28.064 -6.265 28.064 -6.254 "></path><rect x="28.03" y="-9.99" width="2.39" height="0.88"></rect><path d="M28.064 -17.366 C28.064 -17.356 28.057 -17.348 28.048 -17.348 C28.043 -17.348 28.040 -17.353 28.038 -17.356 L28.038 -17.355 C28.038 -17.334 28.048 -17.331 28.052 -17.331 C28.054 -17.331 28.058 -17.332 28.059 -17.334 C28.058 -17.334 28.055 -17.334 28.055 -17.338 C28.055 -17.341 28.057 -17.342 28.059 -17.342 C28.060 -17.342 28.062 -17.341 28.062 -17.338 C28.062 -17.333 28.059 -17.329 28.052 -17.329 C28.042 -17.329 28.031 -17.340 28.031 -17.357 C28.031 -17.379 28.040 -17.385 28.048 -17.385 C28.057 -17.385 28.064 -17.377 28.064 -17.366 M28.057 -17.366 C28.057 -17.370 28.057 -17.374 28.056 -17.377 C28.053 -17.382 28.050 -17.383 28.048 -17.383 C28.043 -17.383 28.040 -17.378 28.040 -17.376 C28.038 -17.373 28.038 -17.366 28.038 -17.365 C28.038 -17.358 28.041 -17.350 28.048 -17.350 C28.049 -17.350 28.053 -17.350 28.056 -17.355 C28.057 -17.358 28.057 -17.363 28.057 -17.366 "></path></g></g><g class="mindmap-node section-4" transform="translate(325.09,201.90)"><path d="M-48.98 13.09 v-26.19 q0,-5.00 5.00,-5.00 h87.95 q5.00,0 5.00,5.00 v31.19 H-48.98 Z" style="fill:#edc948;stroke:none"></path><line x1="-48.98" y1="18.09" x2="48.98" y2="18.09" style="stroke:#edc948;stroke-width:2;fill:none"></line><text x="0.00" y="0.00" text-anchor="middle" dominant-baseline="central" style="fill:#fff;font-size:14px">Fractions</text></g><g class="mindmap-node section-root" transform="translate(397.22,333.42)"><path d="M-40.00 13.09 v-26.19 q0,-5.00 5.00,-5.00 h70.00 q5.00,0 5.00,5.00 v31.19 H-40.00 Z" style="fill:#4e79a7;stroke:none"></path><line x1="-40.00" y1="18.09" x2="40.00" y2="18.09" style="stroke:#4e79a7;stroke-width:2;fill:none"></line><text x="0.00" y="0.00" text-anchor="middle" dominant-baseline="central" style="fill:#fff;font-size:14px">Root</text></g></g></svg>