<?xml version="1.0" encoding="UTF-8"?>
<svg xmlns="http://www.w3.org/2000/svg" viewBox="0 0 741.61 706.10" role="graphics-document document" aria-roledescription="mindmap"><rect x="0.00" y="0.00" width="741.61" height="706.10" style="fill:#fff;stroke:none"></rect><g><path d="M397.22,339.67 Q457.65,293.65 500.70,231.08" style="stroke:#f28e2b;stroke-width:17;fill:none"></path><path d="M500.70,231.08 Q576.23,173.55 630.05,95.34" style="stroke:#f28e2b;stroke-width:14;fill:none"></path><path d="M397.22,339.67 Q453.96,390.16 523.62,420.44" style="stroke:#e15759;stroke-width:17;fill:none"></path><path d="M523.62,420.44 Q594.54,483.56 681.61,521.40" style="stroke:#e15759;stroke-width:14;fill:none"></path><path d="M397.22,339.67 Q365.78,408.81 357.48,484.31" style="stroke:#76b7b2;stroke-width:17;fill:none"></path><path d="M357.48,484.31 Q318.19,570.74 307.82,665.11" style="stroke:#76b7b2;stroke-width:14;fill:none"></path><path d="M397.22,339.67 Q321.79,330.74 247.34,345.79" style="stroke:#59a14f;stroke-width:17;fill:none"></path><path d="M247.34,345.79 Q153.06,334.64 60.00,353.45" style="stroke:#59a14f;stroke-width:14;fill:none"></path><path d="M397.22,339.67 Q371.67,268.14 325.09,208.15" style="stroke:#edc948;stroke-width:17;fill:none"></path><path d="M325.09,208.15 Q293.16,118.74 234.93,43.75" style="stroke:#edc948;stroke-width:14;fill:none"></path></g><g><g class="mindmap-node section-0" transform="translate(630.05,95.34)"><path d="M-50.28 21.62 v-43.23 q0,-5.00 5.00,-5.00 h90.57 q5.00,0 5.00,5.00 v48.23 H-50.28 Z" style="fill:#f28e2b;stroke:none"></path><line x1="-50.28" y1="26.62" x2="50.28" y2="26.62" style="stroke:#f28e2b;stroke-width:2;fill:none"></line><g transform="translate(-30.28,-16.62) scale(1.000)"><g transform="translate(0,-0.919)"><path d="M0.719 13.263 L0.719 12.279 L7.297 12.279 L7.297 13.263 L0.719 13.263 Z" style="fill:#fff"></path><path d="M8.856 16.794 Q7.965 16.794 7.403 16.466 Q6.856 16.154 6.528 15.701 L6.434 15.701 L6.184 16.654 L5.293 16.654 L5.293 6.013 L6.528 6.013 L6.528 8.607 Q6.528 9.076 6.496 9.498 Q6.481 9.904 6.465 10.138 L6.528 10.138 Q6.856 9.669 7.403 9.341 Q7.965 9.029 8.856 9.029 Q10.246 9.029 11.090 9.998 Q11.949 10.966 11.949 12.904 Q11.949 14.841 11.090 15.810 Q10.231 16.794 8.856 16.794 Z M8.668 15.779 Q9.684 15.779 10.168 15.029 Q10.668 14.294 10.668 12.888 Q10.668 10.044 8.637 10.044 Q7.449 10.044 6.996 10.732 Q6.528 11.419 6.528 12.857 L6.528 12.919 Q6.528 14.294 6.981 15.044 Q7.434 15.779 8.668 15.779 Z" style="fill:#fff"></path><path d="M13.355 16.154 L13.355 13.263 L10.574 13.263 L10.574 12.279 L13.355 12.279 L13.355 9.373 L14.371 9.373 L14.371 12.279 L17.152 12.279 L17.152 13.263 L14.371 13.263 L14.371 16.154 L13.355 16.154 Z M10.574 16.154 L10.574 15.154 L17.152 15.154 L17.152 16.154 L10.574 16.154 Z" style="fill:#fff"></path><path d="M19.412 16.807 L17.381 11.104 L16.069 11.104 L16.069 10.057 L18.209 10.057 L19.912 14.994 L24.881 0.948 L25.959 0.948 L20.381 16.807 L19.412 16.807 Z" style="fill:#fff"></path><rect x="20.30" y="0.92" width="37.65" height="0.92" style="fill:#fff"></rect><path d="M26.884 17.237 Q25.994 17.237 25.431 16.909 Q24.884 16.597 24.556 16.144 L24.462 16.144 L24.212 17.097 L23.322 17.097 L23.322 6.456 L24.556 6.456 L24.556 9.050 Q24.556 9.519 24.525 9.941 Q24.509 10.347 24.494 10.581 L24.556 10.581 Q24.884 10.112 25.431 9.784 Q25.994 9.472 26.884 9.472 Q28.275 9.472 29.119 10.441 Q29.978 11.409 29.978 13.347 Q29.978 15.284 29.119 16.253 Q28.259 17.237 26.884 17.237 Z M26.697 16.222 Q27.712 16.222 28.197 15.472 Q28.697 14.737 28.697 13.331 Q28.697 10.487 26.665 10.487 Q25.478 10.487 25.025 11.175 Q24.556 11.862 24.556 13.300 L24.556 13.362 Q24.556 14.737 25.009 15.487 Q25.462 16.222 26.697 16.222 Z" style="fill:#fff"></path><path d="M29.540 16.300 L28.805 15.581 L31.180 13.206 L28.790 10.831 L29.524 10.112 L31.884 12.503 L34.274 10.112 L34.977 10.831 L32.602 13.206 L34.962 15.581 L34.274 16.300 L31.868 13.941 L29.540 16.300 Z" style="fill:#fff"></path><path d="M38.081 17.237 Q37.191 17.237 36.628 16.909 Q36.081 16.597 35.753 16.144 L35.660 16.144 L35.410 17.097 L34.519 17.097 L34.519 6.456 L35.753 6.456 L35.753 9.050 Q35.753 9.519 35.722 9.941 Q35.706 10.347 35.691 10.581 L35.753 10.581 Q36.081 10.112 36.628 9.784 Q37.191 9.472 38.081 9.472 Q39.472 9.472 40.316 10.441 Q41.175 11.409 41.175 13.347 Q41.175 15.284 40.316 16.253 Q39.456 17.237 38.081 17.237 Z M37.894 16.222 Q38.910 16.222 39.394 15.472 Q39.894 14.737 39.894 13.331 Q39.894 10.487 37.863 10.487 Q36.675 10.487 36.222 11.175 Q35.753 11.862 35.753 13.300 L35.753 13.362 Q35.753 14.737 36.206 15.487 Q36.660 16.222 37.894 16.222 Z" style="fill:#fff"></path><path d="M39.800 13.706 L39.800 12.722 L46.378 12.722 L46.378 13.706 L39.800 13.706 Z" style="fill:#fff"></path><path d="M49.607 17.097 L49.607 14.831 L44.826 14.831 L44.826 13.784 L49.529 7.050 L50.794 7.050 L50.794 13.722 L52.263 13.722 L52.263 14.831 L50.794 14.831 L50.794 17.097 L49.607 17.097 Z M46.029 13.722 L49.607 13.722 L49.607 10.566 Q49.607 9.847 49.622 9.347 Q49.654 8.816 49.685 8.362 L49.622 8.362 Q49.513 8.628 49.341 8.941 Q49.169 9.237 49.029 9.456 L46.029 13.722 Z" style="fill:#fff"></path><path d="M51.650 17.237 Q50.619 17.237 49.947 16.706 Q49.275 16.159 49.275 15.003 Q49.275 13.894 50.166 13.284 Q51.041 12.675 52.869 12.612 L54.150 12.581 L54.150 12.128 Q54.150 11.191 53.744 10.831 Q53.337 10.456 52.603 10.456 Q52.009 10.456 51.478 10.644 Q50.947 10.816 50.478 11.034 L50.103 10.112 Q50.587 9.847 51.259 9.659 Q51.931 9.472 52.666 9.472 Q54.041 9.472 54.697 10.066 Q55.353 10.675 55.353 11.987 L55.353 17.097 L54.462 17.097 L54.228 16.034 L54.166 16.034 Q53.681 16.644 53.134 16.941 Q52.603 17.237 51.650 17.237 Z M51.931 16.237 Q52.869 16.237 53.509 15.722 Q54.134 15.191 54.134 14.097 L54.134 13.425 L53.025 13.472 Q51.634 13.534 51.087 13.925 Q50.556 14.316 50.556 15.019 Q50.556 15.659 50.931 15.956 Q51.322 16.237 51.931 16.237 Z" style="fill:#fff"></path><path d="M56.864 17.237 Q55.864 17.237 55.083 16.831 Q54.317 16.425 53.864 15.566 Q53.427 14.722 53.427 13.394 Q53.427 12.003 53.895 11.128 Q54.349 10.269 55.145 9.862 Q55.942 9.456 56.942 9.456 Q57.520 9.456 58.052 9.581 Q58.583 9.691 58.927 9.862 L58.536 10.878 Q58.208 10.753 57.755 10.644 Q57.302 10.534 56.911 10.534 Q54.708 10.534 54.708 13.378 Q54.708 14.737 55.239 15.456 Q55.786 16.175 56.849 16.175 Q57.458 16.175 57.927 16.050 Q58.395 15.925 58.786 15.737 L58.786 16.831 Q58.411 17.034 57.958 17.128 Q57.505 17.237 56.864 17.237 Z" style="fill:#fff"></path><rect x="0.00" y="20.74" width="57.94" height="1.31" style="fill:#fff"></rect><path d="M25.672 34.012 L25.672 32.996 L28.297 30.340 Q29.047 29.590 29.562 28.996 Q30.078 28.418 30.344 27.855 Q30.609 27.277 30.609 26.605 Q30.609 25.777 30.125 25.355 Q29.641 24.918 28.844 24.918 Q28.125 24.918 27.562 25.184 Q27.016 25.434 26.438 25.871 L25.781 25.059 Q26.375 24.559 27.125 24.230 Q27.891 23.871 28.844 23.871 Q30.250 23.871 31.062 24.590 Q31.875 25.293 31.875 26.543 Q31.875 27.324 31.547 28.012 Q31.234 28.684 30.656 29.355 Q30.078 30.027 29.312 30.777 L27.219 32.840 L27.219 32.887 L32.281 32.887 L32.281 34.012 L25.672 34.012 Z" style="fill:#fff"></path><path d="M32.121 34.152 Q31.090 34.152 30.418 33.621 Q29.746 33.074 29.746 31.918 Q29.746 30.809 30.637 30.199 Q31.512 29.590 33.340 29.527 L34.621 29.496 L34.621 29.043 Q34.621 28.105 34.215 27.746 Q33.809 27.371 33.074 27.371 Q32.481 27.371 31.949 27.559 Q31.418 27.730 30.949 27.949 L30.574 27.027 Q31.059 26.762 31.731 26.574 Q32.403 26.387 33.137 26.387 Q34.512 26.387 35.168 26.980 Q35.824 27.590 35.824 28.902 L35.824 34.012 L34.934 34.012 L34.699 32.949 L34.637 32.949 Q34.153 33.559 33.606 33.855 Q33.074 34.152 32.121 34.152 Z M32.403 33.152 Q33.340 33.152 33.981 32.637 Q34.606 32.105 34.606 31.012 L34.606 30.340 L33.496 30.387 Q32.106 30.449 31.559 30.840 Q31.028 31.230 31.028 31.934 Q31.028 32.574 31.403 32.871 Q31.793 33.152 32.403 33.152 Z" style="fill:#fff"></path></g></g></g><g class="mindmap-node section-0" transform="translate(500.70,231.08)"><path d="M-76.13 13.09 v-26.19 q0,-5.00 5.00,-5.00 h142.27 q5.00,0 5.00,5.00 v31.19 H-76.13 Z" style="fill:#f28e2b;stroke:none"></path><line x1="-76.13" y1="18.09" x2="76.13" y2="18.09" style="stroke:#f28e2b;stroke-width:2;fill:none"></line><text x="0.00" y="0.00" text-anchor="middle" dominant-baseline="central" style="fill:#fff;font-size:14px">Quadratic formula</text></g><g class="mindmap-node section-1" transform="translate(681.61,521.40)"><path d="M-40.00 12.50 v-25.00 q0,-5.00 5.00,-5.00 h70.00 q5.00,0 5.00,5.00 v30.00 H-40.00 Z" style="fill:#e15759;stroke:none"></path><line x1="-40.00" y1="17.50" x2="40.00" y2="17.50" style="stroke:#e15759;stroke-width:2;fill:none"></line><g transform="translate(-12.46,-5.84) scale(1.000)"><g transform="translate(0,0.012)"><path d="M11.469 11.660 Q9.141 11.660 9.141 8.973 L9.141 1.738 L4.375 1.738 L4.375 11.457 L2.547 11.457 L2.547 1.738 L0.250 1.738 L0.250 0.941 L1.766 0.207 L13.172 0.207 L13.172 1.738 L10.969 1.738 L10.969 8.848 Q10.969 9.582 11.234 9.879 Q11.516 10.160 11.922 10.160 Q12.219 10.160 12.453 10.098 Q12.703 10.035 12.859 9.941 L12.859 11.395 Q12.688 11.473 12.312 11.566 Q11.953 11.660 11.469 11.660 Z" style="fill:#fff"></path><path d="M8.539 11.457 L8.539 0.207 L10.054 0.207 L10.257 2.254 L10.351 2.254 Q10.898 1.332 11.757 0.660 Q12.617 -0.012 13.789 -0.012 Q14.101 -0.012 14.460 0.035 Q14.835 0.051 15.117 0.113 L14.882 1.816 Q14.617 1.754 14.273 1.707 Q13.960 1.676 13.664 1.676 Q12.804 1.676 12.054 2.160 Q11.289 2.613 10.835 3.473 Q10.398 4.316 10.398 5.457 L10.398 11.457 L8.539 11.457 Z" style="fill:#fff"></path><path d="M15.394 10.254 L14.300 9.191 L17.847 5.613 L14.269 2.066 L15.363 0.973 L18.910 4.566 L22.503 0.973 L23.550 2.051 L19.988 5.613 L23.535 9.191 L22.488 10.254 L18.894 6.707 L15.394 10.254 Z" style="fill:#fff"></path><path d="M22.474 11.457 L22.474 0.207 L23.989 0.207 L24.192 2.254 L24.286 2.254 Q24.833 1.332 25.692 0.660 Q26.552 -0.012 27.724 -0.012 Q28.036 -0.012 28.396 0.035 Q28.771 0.051 29.052 0.113 L28.817 1.816 Q28.552 1.754 28.208 1.707 Q27.896 1.676 27.599 1.676 Q26.739 1.676 25.989 2.160 Q25.224 2.613 24.771 3.473 Q24.333 4.316 24.333 5.457 L24.333 11.457 L22.474 11.457 Z" style="fill:#fff"></path></g></g></g><g class="mindmap-node section-1" transform="translate(523.62,420.44)"><path d="M-61.33 13.09 v-26.19 q0,-5.00 5.00,-5.00 h112.66 q5.00,0 5.00,5.00 v31.19 H-61.33 Z" style="fill:#e15759;stroke:none"></path><line x1="-61.33" y1="18.09" x2="61.33" y2="18.09" style="stroke:#e15759;stroke-width:2;fill:none"></line><text x="0.00" y="0.00" text-anchor="middle" dominant-baseline="central" style="fill:#fff;font-size:14px">Area of circle</text></g><g class="mindmap-node section-2" transform="translate(307.82,665.11)"><path d="M-40.00 15.99 v-31.98 q0,-5.00 5.00,-5.00 h70.00 q5.00,0 5.00,5.00 v36.98 H-40.00 Z" style="fill:#76b7b2;stroke:none"></path><line x1="-40.00" y1="20.99" x2="40.00" y2="20.99" style="stroke:#76b7b2;stroke-width:2;fill:none"></line><g transform="translate(-11.87,-10.99) scale(1.000)"><g transform="translate(0,-1.312)"><path d="M5.484 22.807 L2.781 15.213 L1.016 15.213 L1.016 13.807 L3.875 13.807 L6.141 20.385 L12.781 1.666 L14.203 1.666 L6.781 22.807 L5.484 22.807 Z" style="fill:#fff"></path><rect x="6.76" y="1.31" width="16.98" height="1.31" style="fill:#fff"></rect><path d="M10.460 18.219 L10.460 16.719 L20.319 16.719 L20.319 18.219 L10.460 18.219 Z" style="fill:#fff"></path><path d="M20.903 23.297 L20.903 12.812 Q20.903 11.922 20.919 11.375 Q20.934 10.828 20.981 10.234 Q20.637 10.547 20.372 10.797 Q20.091 11.031 19.684 11.391 L18.075 12.688 L17.122 11.453 L21.169 8.297 L22.700 8.297 L22.700 23.297 L20.903 23.297 Z" style="fill:#fff"></path></g></g></g><g class="mindmap-node section-2" transform="translate(357.48,484.31)"><path d="M-65.16 13.09 v-26.19 q0,-5.00 5.00,-5.00 h120.33 q5.00,0 5.00,5.00 v31.19 H-65.16 Z" style="fill:#76b7b2;stroke:none"></path><line x1="-65.16" y1="18.09" x2="65.16" y2="18.09" style="stroke:#76b7b2;stroke-width:2;fill:none"></line><text x="0.00" y="0.00" text-anchor="middle" dominant-baseline="central" style="fill:#fff;font-size:14px">Imaginary unit</text></g><g class="mindmap-node section-3" transform="translate(60.00,353.45)"><path d="M-40.00 15.55 v-31.11 q0,-5.00 5.00,-5.00 h70.00 q5.00,0 5.00,5.00 v36.11 H-40.00 Z" style="fill:#59a14f;stroke:none"></path><line x1="-40.00" y1="20.55" x2="40.00" y2="20.55" style="stroke:#59a14f;stroke-width:2;fill:none"></line><g transform="translate(-12.14,-10.55) scale(1.000)"><g transform="translate(0,-0.016)"><path d="M5.781 16.281 Q3.719 16.281 2.438 14.844 Q1.156 13.375 1.156 10.484 Q1.156 7.641 2.422 6.125 Q3.672 4.609 5.938 4.609 Q7.188 4.609 8.000 5.047 Q8.844 5.469 9.391 6.328 L9.516 6.328 Q9.625 5.984 9.781 5.562 Q9.953 5.141 10.188 4.828 L11.641 4.828 Q11.484 5.281 11.359 6.047 Q11.234 6.797 11.172 7.641 Q11.109 8.469 11.109 9.234 L11.109 13.594 Q11.109 14.250 11.359 14.531 Q11.609 14.781 11.969 14.781 Q12.141 14.781 12.328 14.734 Q12.516 14.688 12.594 14.672 L12.594 16.016 Q12.453 16.094 12.109 16.188 Q11.781 16.281 11.422 16.281 Q10.641 16.281 10.141 15.906 Q9.656 15.531 9.422 14.562 L9.281 14.562 Q8.797 15.281 8.000 15.781 Q7.203 16.281 5.781 16.281 Z M6.094 14.750 Q7.828 14.750 8.547 13.766 Q9.281 12.766 9.281 10.594 L9.281 10.469 Q9.281 8.375 8.594 7.281 Q7.922 6.172 6.062 6.172 Q4.531 6.172 3.797 7.281 Q3.062 8.391 3.062 10.516 Q3.062 12.609 3.781 13.688 Q4.516 14.750 6.094 14.750 Z" style="fill:#fff"></path><path d="M8.087 21.125 L8.087 4.844 Q8.087 3.141 8.744 2.094 Q9.400 1.016 10.525 0.516 Q11.666 0.016 13.103 0.016 Q14.525 0.016 15.603 0.469 Q16.697 0.922 17.306 1.797 Q17.947 2.688 17.947 4.031 Q17.947 5.531 17.119 6.422 Q16.306 7.297 14.744 7.547 L14.744 7.641 Q16.666 7.844 17.619 8.875 Q18.619 9.906 18.619 11.812 Q18.619 13.984 17.244 15.141 Q15.900 16.281 13.494 16.281 Q12.275 16.281 11.431 16.094 Q10.619 15.906 9.947 15.578 L9.947 21.125 L8.087 21.125 Z M13.322 14.781 Q15.119 14.781 15.947 13.984 Q16.759 13.156 16.759 11.688 Q16.759 10.031 15.759 9.281 Q14.744 8.500 13.103 8.500 L11.994 8.500 L11.994 6.938 L12.900 6.938 Q14.541 6.938 15.291 6.172 Q16.056 5.391 16.056 4.109 Q16.056 2.812 15.228 2.172 Q14.431 1.547 13.072 1.547 Q12.228 1.547 11.509 1.844 Q10.806 2.141 10.353 2.875 Q9.947 3.609 9.947 4.922 L9.947 13.922 Q10.681 14.297 11.447 14.547 Q12.244 14.781 13.322 14.781 Z" style="fill:#fff"></path><path d="M16.370 21.125 Q16.370 20.531 16.495 19.641 Q16.636 18.766 16.870 17.781 Q17.120 16.812 17.433 15.953 L12.886 4.828 L14.792 4.828 L17.167 10.719 Q17.401 11.266 17.620 11.938 Q17.854 12.609 18.042 13.219 Q18.229 13.828 18.292 14.203 L18.386 14.203 Q18.448 13.875 18.620 13.250 Q18.808 12.609 19.011 11.938 Q19.245 11.266 19.417 10.812 L21.636 4.828 L23.542 4.828 L19.386 15.812 Q19.073 16.641 18.839 17.609 Q18.620 18.578 18.495 19.484 Q18.370 20.406 18.370 21.125 L16.370 21.125 Z" style="fill:#fff"></path><path d="M24.385 16.281 Q22.900 16.281 21.729 15.734 Q20.541 15.203 19.869 14.141 Q19.229 13.078 19.229 11.578 Q19.229 10.234 19.791 9.234 Q20.369 8.219 21.369 7.547 Q22.369 6.859 23.604 6.500 Q22.432 5.828 21.729 5.031 Q21.010 4.219 21.010 3.062 Q21.010 1.609 22.072 0.875 Q23.166 0.125 24.791 0.125 Q26.229 0.125 27.260 0.469 Q28.291 0.828 29.119 1.250 L28.322 2.703 Q27.541 2.266 26.650 1.938 Q25.775 1.625 24.697 1.625 Q23.760 1.625 23.322 2.078 Q22.869 2.484 22.869 3.078 Q22.869 3.578 23.150 3.984 Q23.416 4.375 24.025 4.828 Q24.666 5.234 25.697 5.812 Q27.604 6.844 28.604 8.078 Q29.635 9.297 29.635 11.125 Q29.635 13.641 28.182 14.969 Q26.760 16.281 24.385 16.281 Z M24.385 14.750 Q26.010 14.750 26.869 13.828 Q27.729 12.891 27.729 11.141 Q27.729 9.719 27.010 8.828 Q26.322 7.953 25.088 7.297 Q24.432 7.453 23.744 7.766 Q23.072 8.062 22.479 8.562 Q21.885 9.047 21.510 9.797 Q21.150 10.531 21.150 11.609 Q21.150 12.984 21.994 13.875 Q22.854 14.750 24.385 14.750 Z" style="fill:#fff"></path></g></g></g><g class="mindmap-node section-3" transform="translate(247.34,345.79)"><path d="M-60.44 13.09 v-26.19 q0,-5.00 5.00,-5.00 h110.88 q5.00,0 5.00,5.00 v31.19 H-60.44 Z" style="fill:#59a14f;stroke:none"></path><line x1="-60.44" y1="18.09" x2="60.44" y2="18.09" style="stroke:#59a14f;stroke-width:2;fill:none"></line><text x="0.00" y="0.00" text-anchor="middle" dominant-baseline="central" style="fill:#fff;font-size:14px">Greek letters</text></g><g class="mindmap-node section-4" transform="translate(234.93,43.75)"><path d="M-40.00 18.75 v-37.50 q0,-5.00 5.00,-5.00 h70.00 q5.00,0 5.00,5.00 v42.50 H-40.00 Z" style="fill:#edc948;stroke:none"></path><line x1="-40.00" y1="23.75" x2="40.00" y2="23.75" style="stroke:#edc948;stroke-width:2;fill:none"></line><g transform="translate(-19.80,-13.75) scale(1.000)"><g transform="translate(0,-0.489)"><path d="M3.766 10.642 L3.766 3.658 Q3.766 3.048 3.781 2.689 Q3.797 2.330 3.828 1.939 Q3.594 2.142 3.422 2.314 Q3.234 2.470 2.953 2.705 L1.891 3.580 L1.250 2.752 L3.953 0.642 L4.969 0.642 L4.969 10.642 L3.766 10.642 Z" style="fill:#fff"></path><rect x="0.00" y="14.58" width="4.11" height="1.31" style="fill:#fff"></rect><path d="M0.672 27.847 L0.672 26.831 L3.297 24.175 Q4.047 23.425 4.562 22.831 Q5.078 22.253 5.344 21.691 Q5.609 21.112 5.609 20.441 Q5.609 19.612 5.125 19.191 Q4.641 18.753 3.844 18.753 Q3.125 18.753 2.562 19.019 Q2.016 19.269 1.438 19.706 L0.781 18.894 Q1.375 18.394 2.125 18.066 Q2.891 17.706 3.844 17.706 Q5.250 17.706 6.062 18.425 Q6.875 19.128 6.875 20.378 Q6.875 21.159 6.547 21.847 Q6.234 22.519 5.656 23.191 Q5.078 23.862 4.312 24.612 L2.219 26.675 L2.219 26.722 L7.281 26.722 L7.281 27.847 L0.672 27.847 Z" style="fill:#fff"></path><path d="M13.898 18.355 L13.898 14.027 L9.726 14.027 L9.726 12.527 L13.898 12.527 L13.898 8.183 L15.414 8.183 L15.414 12.527 L19.586 12.527 L19.586 14.027 L15.414 14.027 L15.414 18.355 L13.898 18.355 Z" style="fill:#fff"></path><path d="M20.196 10.642 L20.196 3.658 Q20.196 3.048 20.212 2.689 Q20.228 2.330 20.259 1.939 Q20.025 2.142 19.853 2.314 Q19.665 2.470 19.384 2.705 L18.321 3.580 L17.681 2.752 L20.384 0.642 L21.400 0.642 L21.400 10.642 L20.196 10.642 Z" style="fill:#fff"></path><rect x="16.43" y="14.58" width="4.11" height="1.31" style="fill:#fff"></rect><path d="M19.806 27.987 Q19.025 27.987 18.353 27.862 Q17.681 27.753 17.056 27.441 L17.056 26.300 Q17.696 26.597 18.415 26.784 Q19.150 26.956 19.821 26.956 Q21.165 26.956 21.743 26.441 Q22.353 25.894 22.353 24.972 Q22.353 24.034 21.618 23.628 Q20.884 23.206 19.556 23.206 L18.587 23.206 L18.587 22.159 L19.571 22.159 Q20.806 22.159 21.431 21.644 Q22.071 21.128 22.071 20.269 Q22.071 19.550 21.587 19.159 Q21.087 18.753 20.259 18.753 Q19.446 18.753 18.868 18.987 Q18.290 19.222 17.728 19.581 L17.118 18.753 Q17.650 18.331 18.431 18.019 Q19.228 17.706 20.243 17.706 Q21.806 17.706 22.556 18.409 Q23.337 19.112 23.337 20.191 Q23.337 21.191 22.775 21.800 Q22.212 22.394 21.259 22.581 L21.259 22.644 Q22.462 22.784 23.056 23.394 Q23.634 24.003 23.634 25.003 Q23.634 25.878 23.228 26.566 Q22.821 27.237 21.978 27.612 Q21.134 27.987 19.806 27.987 Z" style="fill:#fff"></path><path d="M26.157 11.918 L26.157 10.433 L36.017 10.433 L36.017 11.918 L26.157 11.918 Z M26.157 16.105 L26.157 14.605 L36.017 14.605 L36.017 16.105 L26.157 16.105 Z" style="fill:#fff"></path><path d="M36.330 10.630 Q35.565 10.630 34.877 10.489 Q34.205 10.348 33.737 10.083 L33.737 8.927 Q34.252 9.223 34.955 9.411 Q35.690 9.583 36.346 9.583 Q37.455 9.583 38.127 9.067 Q38.815 8.536 38.815 7.427 Q38.815 6.442 38.205 5.927 Q37.612 5.395 36.299 5.395 Q35.909 5.395 35.409 5.458 Q34.909 5.536 34.596 5.598 L33.987 5.208 L34.362 0.489 L39.377 0.489 L39.377 1.614 L35.409 1.614 L35.174 4.505 Q35.409 4.473 35.815 4.411 Q36.221 4.364 36.705 4.364 Q38.252 4.364 39.159 5.130 Q40.065 5.895 40.065 7.302 Q40.065 8.848 39.080 9.755 Q38.096 10.630 36.330 10.630 Z" style="fill:#fff"></path><rect x="32.86" y="14.58" width="4.11" height="1.31" style="fill:#fff"></rect><path d="M37.034 27.987 Q36.080 27.987 35.315 27.503 Q34.549 27.034 34.080 26.050 Q33.627 25.081 33.627 23.581 Q33.627 22.503 33.815 21.456 Q34.002 20.409 34.502 19.566 Q35.002 18.722 35.893 18.222 Q36.799 17.706 38.205 17.706 Q38.502 17.706 38.846 17.737 Q39.221 17.769 39.440 17.831 L39.440 18.894 Q39.190 18.800 38.862 18.753 Q38.565 18.722 38.237 18.722 Q37.268 18.722 36.627 19.034 Q35.987 19.362 35.612 19.925 Q35.237 20.487 35.080 21.206 Q34.909 21.941 34.862 22.769 L34.955 22.769 Q35.268 22.269 35.846 21.941 Q36.424 21.581 37.315 21.581 Q38.612 21.581 39.409 22.394 Q40.205 23.175 40.205 24.628 Q40.205 26.191 39.346 27.097 Q38.487 27.987 37.034 27.987 Z M37.018 26.956 Q37.909 26.956 38.455 26.394 Q38.987 25.816 38.987 24.628 Q38.987 23.675 38.502 23.112 Q38.034 22.550 37.065 22.550 Q36.409 22.550 35.909 22.831 Q35.424 23.097 35.143 23.519 Q34.877 23.941 34.877 24.394 Q34.877 24.987 35.112 25.597 Q35.346 26.175 35.830 26.566 Q36.299 26.956 37.018 26.956 Z" style="fill:#fff"></path></g></g></g><g class="mindmap-node section-4" transform="translate(325.09,208.15)"><path d="M-48.98 13.09 v-26.19 q0,-5.00 5.00,-5.00 h87.95 q5.00,0 5.00,5.00 v31.19 H-48.98 Z" style="fill:#edc948;stroke:none"></path><line x1="-48.98" y1="18.09" x2="48.98" y2="18.09" style="stroke:#edc948;stroke-width:2;fill:none"></line><text x="0.00" y="0.00" text-anchor="middle" dominant-baseline="central" style="fill:#fff;font-size:14px">Fractions</text></g><g class="mindmap-node section-root" transform="translate(397.22,339.67)"><path d="M-40.00 13.09 v-26.19 q0,-5.00 5.00,-5.00 h70.00 q5.00,0 5.00,5.00 v31.19 H-40.00 Z" style="fill:#4e79a7;stroke:none"></path><line x1="-40.00" y1="18.09" x2="40.00" y2="18.09" style="stroke:#4e79a7;stroke-width:2;fill:none"></line><text x="0.00" y="0.00" text-anchor="middle" dominant-baseline="central" style="fill:#fff;font-size:14px">Root</text></g></g></svg>