<?xml version="1.0" encoding="UTF-8"?>
<svg xmlns="http://www.w3.org/2000/svg" viewBox="0 0 741.61 700.89" role="graphics-document document" aria-roledescription="mindmap"><rect x="0.00" y="0.00" width="741.61" height="700.89" style="fill:#fff;stroke:none"></rect><g><path d="M397.22,336.85 Q457.65,290.83 500.70,228.25" style="stroke:#f28e2b;stroke-width:17;fill:none"></path><path d="M500.70,228.25 Q576.23,170.73 630.05,92.51" style="stroke:#f28e2b;stroke-width:14;fill:none"></path><path d="M397.22,336.85 Q453.96,387.34 523.62,417.61" style="stroke:#e15759;stroke-width:17;fill:none"></path><path d="M523.62,417.61 Q594.54,480.73 681.61,518.58" style="stroke:#e15759;stroke-width:14;fill:none"></path><path d="M397.22,336.85 Q365.78,405.99 357.48,481.49" style="stroke:#76b7b2;stroke-width:17;fill:none"></path><path d="M357.48,481.49 Q318.19,567.91 307.82,662.29" style="stroke:#76b7b2;stroke-width:14;fill:none"></path><path d="M397.22,336.85 Q321.79,327.92 247.34,342.97" style="stroke:#59a14f;stroke-width:17;fill:none"></path><path d="M247.34,342.97 Q153.06,331.81 60.00,350.63" style="stroke:#59a14f;stroke-width:14;fill:none"></path><path d="M397.22,336.85 Q371.67,265.32 325.09,205.33" style="stroke:#edc948;stroke-width:17;fill:none"></path><path d="M325.09,205.33 Q293.16,115.91 234.93,40.93" style="stroke:#edc948;stroke-width:14;fill:none"></path></g><g><g class="mindmap-node section-0" transform="translate(630.05,92.51)"><path d="M-44.23 18.29 v-36.58 q0,-5.00 5.00,-5.00 h78.46 q5.00,0 5.00,5.00 v41.58 H-44.23 Z" style="fill:#f28e2b;stroke:none"></path><line x1="-44.23" y1="23.29" x2="44.23" y2="23.29" style="stroke:#f28e2b;stroke-width:2;fill:none"></line><g transform="translate(-24.23,-13.29) scale(1.000)"><g transform="translate(0,-0.735)"><path d="M0.562 10.667 L0.562 9.886 L5.734 9.886 L5.734 10.667 L0.562 10.667 Z" style="fill:#fff"></path><path d="M7.019 13.432 Q6.316 13.432 5.878 13.182 Q5.441 12.932 5.191 12.573 L5.113 12.573 L4.910 13.323 L4.222 13.323 L4.222 4.964 L5.191 4.964 L5.191 6.995 Q5.191 7.370 5.160 7.698 Q5.160 8.026 5.128 8.214 L5.191 8.214 Q5.441 7.839 5.878 7.589 Q6.316 7.323 7.019 7.323 Q8.113 7.323 8.769 8.104 Q9.441 8.854 9.441 10.370 Q9.441 11.886 8.769 12.667 Q8.097 13.432 7.019 13.432 Z M6.878 12.636 Q7.660 12.636 8.050 12.042 Q8.441 11.464 8.441 10.370 Q8.441 8.136 6.847 8.136 Q5.910 8.136 5.550 8.667 Q5.191 9.214 5.191 10.339 L5.191 10.386 Q5.191 11.479 5.535 12.057 Q5.910 12.636 6.878 12.636 Z" style="fill:#fff"></path><path d="M10.634 12.932 L10.634 10.667 L8.447 10.667 L8.447 9.886 L10.634 9.886 L10.634 7.604 L11.431 7.604 L11.431 9.886 L13.618 9.886 L13.618 10.667 L11.431 10.667 L11.431 12.932 L10.634 12.932 Z M8.447 12.932 L8.447 12.151 L13.618 12.151 L13.618 12.932 L8.447 12.932 Z" style="fill:#fff"></path><path d="M15.524 13.446 L13.914 8.883 L12.852 8.883 L12.852 8.039 L14.570 8.039 L15.930 11.992 L19.914 0.758 L20.758 0.758 L16.305 13.446 L15.524 13.446 Z" style="fill:#fff"></path><rect x="16.24" y="0.74" width="30.12" height="0.74" style="fill:#fff"></rect><path d="M21.442 13.787 Q20.739 13.787 20.301 13.537 Q19.864 13.287 19.614 12.927 L19.535 12.927 L19.332 13.677 L18.645 13.677 L18.645 5.318 L19.614 5.318 L19.614 7.349 Q19.614 7.724 19.582 8.052 Q19.582 8.381 19.551 8.568 L19.614 8.568 Q19.864 8.193 20.301 7.943 Q20.739 7.677 21.442 7.677 Q22.535 7.677 23.192 8.459 Q23.864 9.209 23.864 10.724 Q23.864 12.240 23.192 13.021 Q22.520 13.787 21.442 13.787 Z M21.301 12.990 Q22.082 12.990 22.473 12.396 Q22.864 11.818 22.864 10.724 Q22.864 8.490 21.270 8.490 Q20.332 8.490 19.973 9.021 Q19.614 9.568 19.614 10.693 L19.614 10.740 Q19.614 11.834 19.957 12.412 Q20.332 12.990 21.301 12.990 Z" style="fill:#fff"></path><path d="M23.604 13.052 L23.026 12.490 L24.885 10.615 L23.026 8.756 L23.588 8.193 L25.447 10.068 L27.338 8.193 L27.885 8.756 L26.010 10.615 L27.869 12.490 L27.322 13.052 L25.447 11.193 L23.604 13.052 Z" style="fill:#fff"></path><path d="M30.400 13.787 Q29.696 13.787 29.259 13.537 Q28.821 13.287 28.571 12.927 L28.493 12.927 L28.290 13.677 L27.603 13.677 L27.603 5.318 L28.571 5.318 L28.571 7.349 Q28.571 7.724 28.540 8.052 Q28.540 8.381 28.509 8.568 L28.571 8.568 Q28.821 8.193 29.259 7.943 Q29.696 7.677 30.400 7.677 Q31.493 7.677 32.150 8.459 Q32.821 9.209 32.821 10.724 Q32.821 12.240 32.150 13.021 Q31.478 13.787 30.400 13.787 Z M30.259 12.990 Q31.040 12.990 31.431 12.396 Q31.821 11.818 31.821 10.724 Q31.821 8.490 30.228 8.490 Q29.290 8.490 28.931 9.021 Q28.571 9.568 28.571 10.693 L28.571 10.740 Q28.571 11.834 28.915 12.412 Q29.290 12.990 30.259 12.990 Z" style="fill:#fff"></path><path d="M31.827 11.021 L31.827 10.240 L36.999 10.240 L36.999 11.021 L31.827 11.021 Z" style="fill:#fff"></path><path d="M39.623 13.677 L39.623 11.896 L35.857 11.896 L35.857 11.068 L39.545 5.787 L40.545 5.787 L40.545 11.021 L41.701 11.021 L41.701 11.896 L40.545 11.896 L40.545 13.677 L39.623 13.677 Z M36.795 11.021 L39.623 11.021 L39.623 8.552 Q39.623 7.974 39.623 7.584 Q39.654 7.177 39.670 6.818 L39.623 6.818 Q39.545 7.021 39.404 7.271 Q39.279 7.506 39.154 7.677 L36.795 11.021 Z" style="fill:#fff"></path><path d="M41.267 13.787 Q40.470 13.787 39.939 13.365 Q39.407 12.943 39.407 12.037 Q39.407 11.162 40.111 10.693 Q40.798 10.209 42.236 10.162 L43.236 10.131 L43.236 9.771 Q43.236 9.037 42.923 8.756 Q42.611 8.459 42.017 8.459 Q41.564 8.459 41.142 8.599 Q40.720 8.740 40.361 8.912 L40.064 8.193 Q40.454 7.974 40.970 7.834 Q41.501 7.677 42.079 7.677 Q43.157 7.677 43.673 8.162 Q44.189 8.631 44.189 9.662 L44.189 13.677 L43.486 13.677 L43.298 12.834 L43.251 12.834 Q42.861 13.318 42.439 13.552 Q42.017 13.787 41.267 13.787 Z M41.486 13.006 Q42.236 13.006 42.736 12.599 Q43.236 12.177 43.236 11.318 L43.236 10.802 L42.361 10.834 Q41.267 10.865 40.829 11.177 Q40.407 11.490 40.407 12.052 Q40.407 12.537 40.704 12.771 Q41.017 13.006 41.486 13.006 Z" style="fill:#fff"></path><path d="M45.426 13.787 Q44.644 13.787 44.035 13.474 Q43.426 13.146 43.082 12.474 Q42.738 11.802 42.738 10.756 Q42.738 9.677 43.098 8.990 Q43.457 8.302 44.082 7.990 Q44.707 7.677 45.488 7.677 Q45.941 7.677 46.363 7.771 Q46.785 7.865 47.051 7.990 L46.754 8.787 Q46.488 8.693 46.129 8.599 Q45.785 8.521 45.473 8.521 Q43.738 8.521 43.738 10.756 Q43.738 11.818 44.160 12.396 Q44.582 12.959 45.410 12.959 Q45.894 12.959 46.269 12.849 Q46.644 12.756 46.941 12.615 L46.941 13.474 Q46.644 13.615 46.285 13.693 Q45.941 13.787 45.426 13.787 Z" style="fill:#fff"></path><rect x="0.00" y="16.60" width="46.36" height="1.05" style="fill:#fff"></rect><path d="M20.531 27.209 L20.531 26.412 L22.578 24.334 Q23.172 23.741 23.594 23.272 Q24.000 22.803 24.203 22.366 Q24.406 21.912 24.406 21.397 Q24.406 20.741 24.031 20.412 Q23.641 20.069 23.031 20.069 Q22.453 20.069 22.016 20.272 Q21.578 20.459 21.141 20.819 L20.609 20.162 Q21.078 19.787 21.672 19.522 Q22.281 19.241 23.031 19.241 Q24.125 19.241 24.766 19.803 Q25.406 20.350 25.406 21.334 Q25.406 21.944 25.141 22.491 Q24.891 23.022 24.438 23.553 Q24.000 24.069 23.391 24.662 L21.750 26.287 L21.750 26.334 L25.719 26.334 L25.719 27.209 L20.531 27.209 Z" style="fill:#fff"></path><path d="M25.644 27.319 Q24.847 27.319 24.316 26.897 Q23.785 26.475 23.785 25.569 Q23.785 24.694 24.488 24.225 Q25.175 23.741 26.613 23.694 L27.613 23.662 L27.613 23.303 Q27.613 22.569 27.300 22.287 Q26.988 21.991 26.394 21.991 Q25.941 21.991 25.519 22.131 Q25.097 22.272 24.738 22.444 L24.441 21.725 Q24.831 21.506 25.347 21.366 Q25.878 21.209 26.456 21.209 Q27.535 21.209 28.050 21.694 Q28.566 22.162 28.566 23.194 L28.566 27.209 L27.863 27.209 L27.675 26.366 L27.628 26.366 Q27.238 26.850 26.816 27.084 Q26.394 27.319 25.644 27.319 Z M25.863 26.537 Q26.613 26.537 27.113 26.131 Q27.613 25.709 27.613 24.850 L27.613 24.334 L26.738 24.366 Q25.644 24.397 25.206 24.709 Q24.785 25.022 24.785 25.584 Q24.785 26.069 25.081 26.303 Q25.394 26.537 25.863 26.537 Z" style="fill:#fff"></path></g></g></g><g class="mindmap-node section-0" transform="translate(500.70,228.25)"><path d="M-76.13 13.09 v-26.19 q0,-5.00 5.00,-5.00 h142.27 q5.00,0 5.00,5.00 v31.19 H-76.13 Z" style="fill:#f28e2b;stroke:none"></path><line x1="-76.13" y1="18.09" x2="76.13" y2="18.09" style="stroke:#f28e2b;stroke-width:2;fill:none"></line><text x="0.00" y="0.00" text-anchor="middle" dominant-baseline="central" style="fill:#fff;font-size:14px">Quadratic formula</text></g><g class="mindmap-node section-1" transform="translate(681.61,518.58)"><path d="M-40.00 12.50 v-25.00 q0,-5.00 5.00,-5.00 h70.00 q5.00,0 5.00,5.00 v30.00 H-40.00 Z" style="fill:#e15759;stroke:none"></path><line x1="-40.00" y1="17.50" x2="40.00" y2="17.50" style="stroke:#e15759;stroke-width:2;fill:none"></line><g transform="translate(-9.97,-4.45) scale(1.000)"><g transform="translate(0,-0.431)"><path d="M8.734 9.322 Q6.953 9.322 6.953 7.275 L6.953 1.759 L3.328 1.759 L3.328 9.166 L1.938 9.166 L1.938 1.759 L0.188 1.759 L0.188 1.150 L1.344 0.588 L10.031 0.588 L10.031 1.759 L8.359 1.759 L8.359 7.181 Q8.359 7.744 8.562 7.963 Q8.766 8.181 9.094 8.181 Q9.312 8.181 9.484 8.119 Q9.688 8.072 9.797 8.009 L9.797 9.119 Q9.656 9.181 9.375 9.244 Q9.109 9.322 8.734 9.322 Z" style="fill:#fff"></path><path d="M6.765 9.166 L6.765 0.588 L7.921 0.588 L8.078 2.150 L8.140 2.150 Q8.562 1.447 9.218 0.947 Q9.875 0.431 10.765 0.431 Q11.000 0.431 11.281 0.463 Q11.562 0.478 11.781 0.525 L11.593 1.822 Q11.390 1.775 11.140 1.744 Q10.890 1.713 10.671 1.713 Q10.015 1.713 9.437 2.072 Q8.859 2.431 8.515 3.088 Q8.171 3.728 8.171 4.588 L8.171 9.166 L6.765 9.166 Z" style="fill:#fff"></path><path d="M12.218 8.259 L11.390 7.431 L14.093 4.713 L11.375 2.009 L12.203 1.181 L14.906 3.916 L17.640 1.181 L18.437 1.994 L15.718 4.713 L18.421 7.431 L17.625 8.259 L14.890 5.556 L12.218 8.259 Z" style="fill:#fff"></path><path d="M17.913 9.166 L17.913 0.588 L19.070 0.588 L19.226 2.150 L19.288 2.150 Q19.710 1.447 20.366 0.947 Q21.023 0.431 21.913 0.431 Q22.148 0.431 22.429 0.463 Q22.710 0.478 22.929 0.525 L22.741 1.822 Q22.538 1.775 22.288 1.744 Q22.038 1.713 21.820 1.713 Q21.163 1.713 20.585 2.072 Q20.007 2.431 19.663 3.088 Q19.320 3.728 19.320 4.588 L19.320 9.166 L17.913 9.166 Z" style="fill:#fff"></path></g></g></g><g class="mindmap-node section-1" transform="translate(523.62,417.61)"><path d="M-61.33 13.09 v-26.19 q0,-5.00 5.00,-5.00 h112.66 q5.00,0 5.00,5.00 v31.19 H-61.33 Z" style="fill:#e15759;stroke:none"></path><line x1="-61.33" y1="18.09" x2="61.33" y2="18.09" style="stroke:#e15759;stroke-width:2;fill:none"></line><text x="0.00" y="0.00" text-anchor="middle" dominant-baseline="central" style="fill:#fff;font-size:14px">Area of circle</text></g><g class="mindmap-node section-2" transform="translate(307.82,662.29)"><path d="M-40.00 13.60 v-27.20 q0,-5.00 5.00,-5.00 h70.00 q5.00,0 5.00,5.00 v32.20 H-40.00 Z" style="fill:#76b7b2;stroke:none"></path><line x1="-40.00" y1="18.60" x2="40.00" y2="18.60" style="stroke:#76b7b2;stroke-width:2;fill:none"></line><g transform="translate(-9.49,-8.60) scale(1.000)"><g transform="translate(0,-1.050)"><path d="M4.391 18.245 L2.219 12.167 L0.812 12.167 L0.812 11.042 L3.109 11.042 L4.906 16.308 L10.219 1.339 L11.359 1.339 L5.422 18.245 L4.391 18.245 Z" style="fill:#fff"></path><rect x="5.41" y="1.05" width="13.58" height="1.05" style="fill:#fff"></rect><path d="M8.318 14.163 L8.318 13.022 L15.849 13.022 L15.849 14.163 L8.318 14.163 Z" style="fill:#fff"></path><path d="M16.494 18.038 L16.494 10.053 Q16.494 9.366 16.510 8.944 Q16.541 8.538 16.572 8.084 Q16.307 8.319 16.104 8.522 Q15.901 8.694 15.572 8.959 L14.354 9.959 L13.619 9.006 L16.713 6.616 L17.885 6.616 L17.885 18.038 L16.494 18.038 Z" style="fill:#fff"></path></g></g></g><g class="mindmap-node section-2" transform="translate(357.48,481.49)"><path d="M-65.16 13.09 v-26.19 q0,-5.00 5.00,-5.00 h120.33 q5.00,0 5.00,5.00 v31.19 H-65.16 Z" style="fill:#76b7b2;stroke:none"></path><line x1="-65.16" y1="18.09" x2="65.16" y2="18.09" style="stroke:#76b7b2;stroke-width:2;fill:none"></line><text x="0.00" y="0.00" text-anchor="middle" dominant-baseline="central" style="fill:#fff;font-size:14px">Imaginary unit</text></g><g class="mindmap-node section-3" transform="translate(60.00,350.63)"><path d="M-40.00 13.04 v-26.08 q0,-5.00 5.00,-5.00 h70.00 q5.00,0 5.00,5.00 v31.08 H-40.00 Z" style="fill:#59a14f;stroke:none"></path><line x1="-40.00" y1="18.04" x2="40.00" y2="18.04" style="stroke:#59a14f;stroke-width:2;fill:none"></line><g transform="translate(-9.71,-8.04) scale(1.000)"><g transform="translate(0,-0.628)"><path d="M4.406 13.019 Q2.828 13.019 1.859 11.925 Q0.875 10.800 0.875 8.613 Q0.875 6.425 1.844 5.284 Q2.797 4.128 4.531 4.128 Q5.469 4.128 6.094 4.456 Q6.734 4.784 7.156 5.441 L7.250 5.441 Q7.328 5.159 7.453 4.847 Q7.578 4.519 7.766 4.284 L8.859 4.284 Q8.750 4.644 8.656 5.222 Q8.562 5.784 8.516 6.425 Q8.469 7.066 8.469 7.644 L8.469 10.972 Q8.469 11.472 8.656 11.675 Q8.844 11.878 9.125 11.878 Q9.250 11.878 9.391 11.831 Q9.531 11.800 9.594 11.784 L9.594 12.816 Q9.484 12.878 9.234 12.941 Q8.969 13.019 8.703 13.019 Q8.109 13.019 7.734 12.738 Q7.359 12.441 7.188 11.706 L7.078 11.706 Q6.703 12.253 6.094 12.644 Q5.484 13.019 4.406 13.019 Z M4.641 11.847 Q5.969 11.847 6.516 11.097 Q7.078 10.331 7.078 8.691 L7.078 8.597 Q7.078 6.988 6.547 6.159 Q6.031 5.316 4.625 5.316 Q3.453 5.316 2.891 6.159 Q2.344 7.003 2.344 8.628 Q2.344 10.222 2.875 11.034 Q3.438 11.847 4.641 11.847 Z" style="fill:#fff"></path><path d="M6.404 16.706 L6.404 4.300 Q6.404 3.003 6.904 2.206 Q7.404 1.394 8.264 1.003 Q9.123 0.628 10.232 0.628 Q11.295 0.628 12.139 0.972 Q12.967 1.316 13.436 1.988 Q13.904 2.659 13.904 3.675 Q13.904 4.831 13.279 5.503 Q12.654 6.175 11.482 6.363 L11.482 6.425 Q12.936 6.597 13.670 7.378 Q14.420 8.159 14.420 9.613 Q14.420 11.269 13.389 12.144 Q12.357 13.019 10.514 13.019 Q9.592 13.019 8.951 12.878 Q8.326 12.738 7.811 12.472 L7.811 16.706 L6.404 16.706 Z M10.389 11.878 Q11.764 11.878 12.389 11.269 Q13.014 10.644 13.014 9.519 Q13.014 8.253 12.248 7.675 Q11.482 7.081 10.232 7.081 L9.389 7.081 L9.389 5.909 L10.076 5.909 Q11.311 5.909 11.889 5.316 Q12.467 4.722 12.467 3.738 Q12.467 2.753 11.842 2.269 Q11.232 1.784 10.201 1.784 Q9.561 1.784 9.014 2.019 Q8.467 2.238 8.139 2.800 Q7.811 3.363 7.811 4.363 L7.811 11.222 Q8.373 11.503 8.967 11.691 Q9.576 11.878 10.389 11.878 Z" style="fill:#fff"></path><path d="M12.955 16.706 Q12.955 16.253 13.049 15.581 Q13.159 14.909 13.346 14.159 Q13.534 13.425 13.768 12.769 L10.299 4.284 L11.752 4.284 L13.565 8.784 Q13.737 9.206 13.924 9.706 Q14.096 10.222 14.237 10.691 Q14.377 11.144 14.424 11.441 L14.487 11.441 Q14.534 11.175 14.674 10.706 Q14.815 10.222 14.971 9.706 Q15.143 9.206 15.284 8.847 L16.971 4.284 L18.424 4.284 L15.268 12.659 Q15.018 13.300 14.846 14.034 Q14.674 14.769 14.580 15.456 Q14.471 16.159 14.471 16.706 L12.955 16.706 Z" style="fill:#fff"></path><path d="M19.267 13.019 Q18.127 13.019 17.236 12.613 Q16.345 12.191 15.830 11.394 Q15.330 10.581 15.330 9.441 Q15.330 8.409 15.767 7.644 Q16.220 6.878 16.970 6.363 Q17.736 5.831 18.673 5.566 Q17.783 5.050 17.236 4.441 Q16.689 3.816 16.689 2.941 Q16.689 1.831 17.517 1.284 Q18.345 0.706 19.580 0.706 Q20.673 0.706 21.455 0.972 Q22.252 1.253 22.877 1.566 L22.267 2.675 Q21.673 2.331 21.002 2.097 Q20.330 1.847 19.517 1.847 Q18.783 1.847 18.455 2.191 Q18.111 2.503 18.111 2.956 Q18.111 3.347 18.330 3.644 Q18.533 3.956 19.002 4.284 Q19.486 4.613 20.267 5.034 Q21.720 5.816 22.486 6.769 Q23.267 7.691 23.267 9.081 Q23.267 11.003 22.173 12.019 Q21.080 13.019 19.267 13.019 Z M19.267 11.847 Q20.502 11.847 21.158 11.144 Q21.814 10.425 21.814 9.097 Q21.814 8.019 21.267 7.347 Q20.736 6.675 19.798 6.175 Q19.298 6.284 18.767 6.519 Q18.267 6.753 17.814 7.128 Q17.361 7.503 17.080 8.081 Q16.814 8.644 16.814 9.456 Q16.814 10.503 17.439 11.175 Q18.095 11.847 19.267 11.847 Z" style="fill:#fff"></path></g></g></g><g class="mindmap-node section-3" transform="translate(247.34,342.97)"><path d="M-60.44 13.09 v-26.19 q0,-5.00 5.00,-5.00 h110.88 q5.00,0 5.00,5.00 v31.19 H-60.44 Z" style="fill:#59a14f;stroke:none"></path><line x1="-60.44" y1="18.09" x2="60.44" y2="18.09" style="stroke:#59a14f;stroke-width:2;fill:none"></line><text x="0.00" y="0.00" text-anchor="middle" dominant-baseline="central" style="fill:#fff;font-size:14px">Greek letters</text></g><g class="mindmap-node section-4" transform="translate(234.93,40.93)"><path d="M-40.00 15.93 v-31.86 q0,-5.00 5.00,-5.00 h70.00 q5.00,0 5.00,5.00 v36.86 H-40.00 Z" style="fill:#edc948;stroke:none"></path><line x1="-40.00" y1="20.93" x2="40.00" y2="20.93" style="stroke:#edc948;stroke-width:2;fill:none"></line><g transform="translate(-15.84,-10.93) scale(1.000)"><g transform="translate(0,-0.532)"><path d="M2.953 8.514 L2.953 3.029 Q2.953 2.545 2.969 2.264 Q2.984 1.982 3.000 1.670 Q2.828 1.842 2.688 1.967 Q2.547 2.092 2.328 2.279 L1.484 2.951 L0.984 2.311 L3.109 0.654 L3.906 0.654 L3.906 8.514 L2.953 8.514 Z" style="fill:#fff"></path><rect x="0.00" y="11.66" width="3.29" height="1.05" style="fill:#fff"></rect><path d="M0.531 22.277 L0.531 21.481 L2.578 19.402 Q3.172 18.809 3.594 18.340 Q4.000 17.871 4.203 17.434 Q4.406 16.981 4.406 16.465 Q4.406 15.809 4.031 15.481 Q3.641 15.137 3.031 15.137 Q2.453 15.137 2.016 15.340 Q1.578 15.527 1.141 15.887 L0.609 15.231 Q1.078 14.856 1.672 14.590 Q2.281 14.309 3.031 14.309 Q4.125 14.309 4.766 14.871 Q5.406 15.418 5.406 16.402 Q5.406 17.012 5.141 17.559 Q4.891 18.090 4.438 18.621 Q4.000 19.137 3.391 19.731 L1.750 21.356 L1.750 21.402 L5.719 21.402 L5.719 22.277 L0.531 22.277 Z" style="fill:#fff"></path><path d="M10.919 14.706 L10.919 11.409 L7.731 11.409 L7.731 10.268 L10.919 10.268 L10.919 6.972 L12.075 6.972 L12.075 10.268 L15.262 10.268 L15.262 11.409 L12.075 11.409 L12.075 14.706 L10.919 14.706 Z" style="fill:#fff"></path><path d="M16.098 8.514 L16.098 3.029 Q16.098 2.545 16.113 2.264 Q16.129 1.982 16.145 1.670 Q15.973 1.842 15.832 1.967 Q15.692 2.092 15.473 2.279 L14.629 2.951 L14.129 2.311 L16.254 0.654 L17.051 0.654 L17.051 8.514 L16.098 8.514 Z" style="fill:#fff"></path><rect x="13.15" y="11.66" width="3.29" height="1.05" style="fill:#fff"></rect><path d="M15.801 22.387 Q15.176 22.387 14.645 22.293 Q14.129 22.199 13.645 21.965 L13.645 21.059 Q14.129 21.293 14.707 21.434 Q15.285 21.574 15.801 21.574 Q16.863 21.574 17.332 21.168 Q17.801 20.746 17.801 20.027 Q17.801 19.293 17.207 18.965 Q16.645 18.637 15.598 18.637 L14.832 18.637 L14.832 17.809 L15.613 17.809 Q16.582 17.809 17.067 17.402 Q17.582 16.996 17.582 16.324 Q17.582 15.762 17.192 15.449 Q16.801 15.121 16.145 15.121 Q15.504 15.121 15.051 15.309 Q14.613 15.496 14.160 15.793 L13.676 15.121 Q14.098 14.793 14.723 14.559 Q15.348 14.309 16.129 14.309 Q17.363 14.309 17.957 14.871 Q18.567 15.418 18.567 16.262 Q18.567 17.059 18.129 17.527 Q17.692 17.981 16.942 18.137 L16.942 18.184 Q17.879 18.293 18.348 18.777 Q18.817 19.262 18.817 20.043 Q18.817 20.731 18.488 21.262 Q18.176 21.793 17.504 22.090 Q16.848 22.387 15.801 22.387 Z" style="fill:#fff"></path><path d="M20.876 9.815 L20.876 8.675 L28.407 8.675 L28.407 9.815 L20.876 9.815 Z M20.876 13.003 L20.876 11.862 L28.407 11.862 L28.407 13.003 L20.876 13.003 Z" style="fill:#fff"></path><path d="M29.024 8.501 Q28.414 8.501 27.868 8.391 Q27.352 8.282 26.977 8.079 L26.977 7.157 Q27.383 7.407 27.946 7.547 Q28.508 7.672 29.024 7.672 Q29.899 7.672 30.430 7.266 Q30.961 6.844 30.961 5.985 Q30.961 5.219 30.493 4.797 Q30.024 4.391 28.993 4.391 Q28.680 4.391 28.289 4.438 Q27.899 4.501 27.649 4.547 L27.164 4.251 L27.461 0.532 L31.399 0.532 L31.399 1.422 L28.289 1.422 L28.102 3.688 Q28.289 3.657 28.618 3.610 Q28.930 3.579 29.321 3.579 Q30.524 3.579 31.243 4.172 Q31.961 4.782 31.961 5.876 Q31.961 7.110 31.180 7.813 Q30.399 8.501 29.024 8.501 Z" style="fill:#fff"></path><rect x="26.29" y="11.66" width="3.29" height="1.05" style="fill:#fff"></rect><path d="M29.571 22.387 Q28.821 22.387 28.211 22.012 Q27.602 21.637 27.243 20.871 Q26.899 20.106 26.899 18.918 Q26.899 18.074 27.039 17.262 Q27.196 16.434 27.571 15.777 Q27.977 15.106 28.680 14.715 Q29.383 14.309 30.493 14.309 Q30.727 14.309 30.993 14.340 Q31.289 14.356 31.461 14.418 L31.461 15.231 Q31.258 15.168 31.008 15.137 Q30.774 15.106 30.508 15.106 Q29.758 15.106 29.243 15.356 Q28.743 15.606 28.446 16.059 Q28.164 16.496 28.024 17.059 Q27.899 17.637 27.868 18.277 L27.930 18.277 Q28.180 17.902 28.633 17.637 Q29.086 17.356 29.789 17.356 Q30.805 17.356 31.430 17.981 Q32.071 18.606 32.071 19.746 Q32.071 20.981 31.383 21.684 Q30.711 22.387 29.571 22.387 Z M29.555 21.574 Q30.243 21.574 30.680 21.137 Q31.102 20.684 31.102 19.746 Q31.102 18.996 30.727 18.559 Q30.352 18.121 29.586 18.121 Q29.071 18.121 28.680 18.340 Q28.305 18.543 28.086 18.871 Q27.868 19.215 27.868 19.559 Q27.868 20.027 28.055 20.512 Q28.243 20.965 28.618 21.277 Q28.993 21.574 29.555 21.574 Z" style="fill:#fff"></path></g></g></g><g class="mindmap-node section-4" transform="translate(325.09,205.33)"><path d="M-48.98 13.09 v-26.19 q0,-5.00 5.00,-5.00 h87.95 q5.00,0 5.00,5.00 v31.19 H-48.98 Z" style="fill:#edc948;stroke:none"></path><line x1="-48.98" y1="18.09" x2="48.98" y2="18.09" style="stroke:#edc948;stroke-width:2;fill:none"></line><text x="0.00" y="0.00" text-anchor="middle" dominant-baseline="central" style="fill:#fff;font-size:14px">Fractions</text></g><g class="mindmap-node section-root" transform="translate(397.22,336.85)"><path d="M-40.00 13.09 v-26.19 q0,-5.00 5.00,-5.00 h70.00 q5.00,0 5.00,5.00 v31.19 H-40.00 Z" style="fill:#4e79a7;stroke:none"></path><line x1="-40.00" y1="18.09" x2="40.00" y2="18.09" style="stroke:#4e79a7;stroke-width:2;fill:none"></line><text x="0.00" y="0.00" text-anchor="middle" dominant-baseline="central" style="fill:#fff;font-size:14px">Root</text></g></g></svg>