<?xml version="1.0" encoding="UTF-8"?>
<svg xmlns="http://www.w3.org/2000/svg" viewBox="0 0 741.61 716.50" role="graphics-document document" aria-roledescription="mindmap"><rect x="0.00" y="0.00" width="741.61" height="716.50" style="fill:#fff;stroke:none"></rect><g><path d="M397.22,339.74 Q457.65,293.72 500.70,231.15" style="stroke:#f28e2b;stroke-width:17;fill:none"></path><path d="M500.70,231.15 Q576.23,173.62 630.05,95.41" style="stroke:#f28e2b;stroke-width:14;fill:none"></path><path d="M397.22,339.74 Q453.96,390.23 523.62,420.51" style="stroke:#e15759;stroke-width:17;fill:none"></path><path d="M523.62,420.51 Q594.54,483.63 681.61,521.47" style="stroke:#e15759;stroke-width:14;fill:none"></path><path d="M397.22,339.74 Q365.78,408.88 357.48,484.38" style="stroke:#76b7b2;stroke-width:17;fill:none"></path><path d="M357.48,484.38 Q318.19,570.81 307.82,665.18" style="stroke:#76b7b2;stroke-width:14;fill:none"></path><path d="M397.22,339.74 Q321.79,330.81 247.34,345.86" style="stroke:#59a14f;stroke-width:17;fill:none"></path><path d="M247.34,345.86 Q153.06,334.71 60.00,353.52" style="stroke:#59a14f;stroke-width:14;fill:none"></path><path d="M397.22,339.74 Q371.67,268.21 325.09,208.22" style="stroke:#edc948;stroke-width:17;fill:none"></path><path d="M325.09,208.22 Q293.16,118.81 234.93,43.82" style="stroke:#edc948;stroke-width:14;fill:none"></path></g><g><g class="mindmap-node section-0" transform="translate(630.05,95.41)"><path d="M-50.28 26.62 v-53.23 q0,-5.00 5.00,-5.00 h90.57 q5.00,0 5.00,5.00 v58.23 H-50.28 Z" style="fill:#f28e2b;stroke:none"></path><line x1="-50.28" y1="31.62" x2="50.28" y2="31.62" style="stroke:#f28e2b;stroke-width:2;fill:none"></line><g transform="translate(-30.28,-21.62) scale(1.000)"><g transform="translate(0,-0.919)"><path d="M0.719 20.044 L0.719 21.029 L7.297 21.029 L7.297 20.044 L0.719 20.044 Z" style="fill:#fff"></path><path d="M8.856 16.513 Q7.965 16.513 7.403 16.841 Q6.856 17.154 6.528 17.607 L6.434 17.607 L6.184 16.654 L5.293 16.654 L5.293 27.294 L6.528 27.294 L6.528 24.701 Q6.528 24.232 6.496 23.810 Q6.481 23.404 6.465 23.169 L6.528 23.169 Q6.856 23.638 7.403 23.966 Q7.965 24.279 8.856 24.279 Q10.246 24.279 11.090 23.310 Q11.949 22.341 11.949 20.404 Q11.949 18.466 11.090 17.498 Q10.231 16.513 8.856 16.513 Z M8.668 17.529 Q9.684 17.529 10.168 18.279 Q10.668 19.013 10.668 20.419 Q10.668 23.263 8.637 23.263 Q7.449 23.263 6.996 22.576 Q6.528 21.888 6.528 20.451 L6.528 20.388 Q6.528 19.013 6.981 18.263 Q7.434 17.529 8.668 17.529 Z" style="fill:#fff"></path><path d="M13.355 17.154 L13.355 20.044 L10.574 20.044 L10.574 21.029 L13.355 21.029 L13.355 23.935 L14.371 23.935 L14.371 21.029 L17.152 21.029 L17.152 20.044 L14.371 20.044 L14.371 17.154 L13.355 17.154 Z M10.574 17.154 L10.574 18.154 L17.152 18.154 L17.152 17.154 L10.574 17.154 Z" style="fill:#fff"></path><path d="M19.412 16.807 L17.381 22.510 L16.069 22.510 L16.069 23.557 L18.209 23.557 L19.912 18.619 L24.881 32.666 L25.959 32.666 L20.381 16.807 L19.412 16.807 Z" style="fill:#fff"></path><rect x="20.30" y="0.92" width="37.65" height="0.92" style="fill:#fff"></rect><path d="M26.884 16.956 Q25.994 16.956 25.431 17.284 Q24.884 17.597 24.556 18.050 L24.462 18.050 L24.212 17.097 L23.322 17.097 L23.322 27.737 L24.556 27.737 L24.556 25.144 Q24.556 24.675 24.525 24.253 Q24.509 23.847 24.494 23.612 L24.556 23.612 Q24.884 24.081 25.431 24.409 Q25.994 24.722 26.884 24.722 Q28.275 24.722 29.119 23.753 Q29.978 22.784 29.978 20.847 Q29.978 18.909 29.119 17.941 Q28.259 16.956 26.884 16.956 Z M26.697 17.972 Q27.712 17.972 28.197 18.722 Q28.697 19.456 28.697 20.862 Q28.697 23.706 26.665 23.706 Q25.478 23.706 25.025 23.019 Q24.556 22.331 24.556 20.894 L24.556 20.831 Q24.556 19.456 25.009 18.706 Q25.462 17.972 26.697 17.972 Z" style="fill:#fff"></path><path d="M29.540 17.894 L28.805 18.612 L31.180 20.987 L28.790 23.362 L29.524 24.081 L31.884 21.691 L34.274 24.081 L34.977 23.362 L32.602 20.987 L34.962 18.612 L34.274 17.894 L31.868 20.253 L29.540 17.894 Z" style="fill:#fff"></path><path d="M38.081 16.956 Q37.191 16.956 36.628 17.284 Q36.081 17.597 35.753 18.050 L35.660 18.050 L35.410 17.097 L34.519 17.097 L34.519 27.737 L35.753 27.737 L35.753 25.144 Q35.753 24.675 35.722 24.253 Q35.706 23.847 35.691 23.612 L35.753 23.612 Q36.081 24.081 36.628 24.409 Q37.191 24.722 38.081 24.722 Q39.472 24.722 40.316 23.753 Q41.175 22.784 41.175 20.847 Q41.175 18.909 40.316 17.941 Q39.456 16.956 38.081 16.956 Z M37.894 17.972 Q38.910 17.972 39.394 18.722 Q39.894 19.456 39.894 20.862 Q39.894 23.706 37.863 23.706 Q36.675 23.706 36.222 23.019 Q35.753 22.331 35.753 20.894 L35.753 20.831 Q35.753 19.456 36.206 18.706 Q36.660 17.972 37.894 17.972 Z" style="fill:#fff"></path><path d="M39.800 20.487 L39.800 21.472 L46.378 21.472 L46.378 20.487 L39.800 20.487 Z" style="fill:#fff"></path><path d="M49.607 17.097 L49.607 19.362 L44.826 19.362 L44.826 20.409 L49.529 27.144 L50.794 27.144 L50.794 20.472 L52.263 20.472 L52.263 19.362 L50.794 19.362 L50.794 17.097 L49.607 17.097 Z M46.029 20.472 L49.607 20.472 L49.607 23.628 Q49.607 24.347 49.622 24.847 Q49.654 25.378 49.685 25.831 L49.622 25.831 Q49.513 25.566 49.341 25.253 Q49.169 24.956 49.029 24.737 L46.029 20.472 Z" style="fill:#fff"></path><path d="M51.650 16.956 Q50.619 16.956 49.947 17.487 Q49.275 18.034 49.275 19.191 Q49.275 20.300 50.166 20.909 Q51.041 21.519 52.869 21.581 L54.150 21.612 L54.150 22.066 Q54.150 23.003 53.744 23.362 Q53.337 23.737 52.603 23.737 Q52.009 23.737 51.478 23.550 Q50.947 23.378 50.478 23.159 L50.103 24.081 Q50.587 24.347 51.259 24.534 Q51.931 24.722 52.666 24.722 Q54.041 24.722 54.697 24.128 Q55.353 23.519 55.353 22.206 L55.353 17.097 L54.462 17.097 L54.228 18.159 L54.166 18.159 Q53.681 17.550 53.134 17.253 Q52.603 16.956 51.650 16.956 Z M51.931 17.956 Q52.869 17.956 53.509 18.472 Q54.134 19.003 54.134 20.097 L54.134 20.769 L53.025 20.722 Q51.634 20.659 51.087 20.269 Q50.556 19.878 50.556 19.175 Q50.556 18.534 50.931 18.237 Q51.322 17.956 51.931 17.956 Z" style="fill:#fff"></path><path d="M56.864 16.956 Q55.864 16.956 55.083 17.362 Q54.317 17.769 53.864 18.628 Q53.427 19.472 53.427 20.800 Q53.427 22.191 53.895 23.066 Q54.349 23.925 55.145 24.331 Q55.942 24.737 56.942 24.737 Q57.520 24.737 58.052 24.612 Q58.583 24.503 58.927 24.331 L58.536 23.316 Q58.208 23.441 57.755 23.550 Q57.302 23.659 56.911 23.659 Q54.708 23.659 54.708 20.816 Q54.708 19.456 55.239 18.737 Q55.786 18.019 56.849 18.019 Q57.458 18.019 57.927 18.144 Q58.395 18.269 58.786 18.456 L58.786 17.362 Q58.411 17.159 57.958 17.066 Q57.505 16.956 56.864 16.956 Z" style="fill:#fff"></path><rect x="0.00" y="20.74" width="57.94" height="1.31" style="fill:#fff"></rect><path d="M25.672 34.012 L25.672 35.027 L28.297 37.684 Q29.047 38.434 29.562 39.027 Q30.078 39.605 30.344 40.168 Q30.609 40.746 30.609 41.418 Q30.609 42.246 30.125 42.668 Q29.641 43.105 28.844 43.105 Q28.125 43.105 27.562 42.840 Q27.016 42.590 26.438 42.152 L25.781 42.965 Q26.375 43.465 27.125 43.793 Q27.891 44.152 28.844 44.152 Q30.250 44.152 31.062 43.434 Q31.875 42.730 31.875 41.480 Q31.875 40.699 31.547 40.012 Q31.234 39.340 30.656 38.668 Q30.078 37.996 29.312 37.246 L27.219 35.184 L27.219 35.137 L32.281 35.137 L32.281 34.012 L25.672 34.012 Z" style="fill:#fff"></path><path d="M32.121 33.871 Q31.090 33.871 30.418 34.402 Q29.746 34.949 29.746 36.105 Q29.746 37.215 30.637 37.824 Q31.512 38.434 33.340 38.496 L34.621 38.527 L34.621 38.980 Q34.621 39.918 34.215 40.277 Q33.809 40.652 33.074 40.652 Q32.481 40.652 31.949 40.465 Q31.418 40.293 30.949 40.074 L30.574 40.996 Q31.059 41.262 31.731 41.449 Q32.403 41.637 33.137 41.637 Q34.512 41.637 35.168 41.043 Q35.824 40.434 35.824 39.121 L35.824 34.012 L34.934 34.012 L34.699 35.074 L34.637 35.074 Q34.153 34.465 33.606 34.168 Q33.074 33.871 32.121 33.871 Z M32.403 34.871 Q33.340 34.871 33.981 35.387 Q34.606 35.918 34.606 37.012 L34.606 37.684 L33.496 37.637 Q32.106 37.574 31.559 37.184 Q31.028 36.793 31.028 36.090 Q31.028 35.449 31.403 35.152 Q31.793 34.871 32.403 34.871 Z" style="fill:#fff"></path></g></g></g><g class="mindmap-node section-0" transform="translate(500.70,231.15)"><path d="M-76.13 13.09 v-26.19 q0,-5.00 5.00,-5.00 h142.27 q5.00,0 5.00,5.00 v31.19 H-76.13 Z" style="fill:#f28e2b;stroke:none"></path><line x1="-76.13" y1="18.09" x2="76.13" y2="18.09" style="stroke:#f28e2b;stroke-width:2;fill:none"></line><text x="0.00" y="0.00" text-anchor="middle" dominant-baseline="central" style="fill:#fff;font-size:14px">Quadratic formula</text></g><g class="mindmap-node section-1" transform="translate(681.61,521.47)"><path d="M-40.00 12.50 v-25.00 q0,-5.00 5.00,-5.00 h70.00 q5.00,0 5.00,5.00 v30.00 H-40.00 Z" style="fill:#e15759;stroke:none"></path><line x1="-40.00" y1="17.50" x2="40.00" y2="17.50" style="stroke:#e15759;stroke-width:2;fill:none"></line><g transform="translate(-12.46,-5.84) scale(1.000)"><g transform="translate(0,-11.254)"><path d="M11.469 11.254 Q9.141 11.254 9.141 13.941 L9.141 21.176 L4.375 21.176 L4.375 11.457 L2.547 11.457 L2.547 21.176 L0.250 21.176 L0.250 21.973 L1.766 22.707 L13.172 22.707 L13.172 21.176 L10.969 21.176 L10.969 14.066 Q10.969 13.332 11.234 13.035 Q11.516 12.754 11.922 12.754 Q12.219 12.754 12.453 12.816 Q12.703 12.879 12.859 12.973 L12.859 11.520 Q12.688 11.441 12.312 11.348 Q11.953 11.254 11.469 11.254 Z" style="fill:#fff"></path><path d="M8.539 11.457 L8.539 22.707 L10.054 22.707 L10.257 20.660 L10.351 20.660 Q10.898 21.582 11.757 22.254 Q12.617 22.926 13.789 22.926 Q14.101 22.926 14.460 22.879 Q14.835 22.863 15.117 22.801 L14.882 21.098 Q14.617 21.160 14.273 21.207 Q13.960 21.238 13.664 21.238 Q12.804 21.238 12.054 20.754 Q11.289 20.301 10.835 19.441 Q10.398 18.598 10.398 17.457 L10.398 11.457 L8.539 11.457 Z" style="fill:#fff"></path><path d="M15.394 12.660 L14.300 13.723 L17.847 17.301 L14.269 20.848 L15.363 21.941 L18.910 18.348 L22.503 21.941 L23.550 20.863 L19.988 17.301 L23.535 13.723 L22.488 12.660 L18.894 16.207 L15.394 12.660 Z" style="fill:#fff"></path><path d="M22.474 11.457 L22.474 22.707 L23.989 22.707 L24.192 20.660 L24.286 20.660 Q24.833 21.582 25.692 22.254 Q26.552 22.926 27.724 22.926 Q28.036 22.926 28.396 22.879 Q28.771 22.863 29.052 22.801 L28.817 21.098 Q28.552 21.160 28.208 21.207 Q27.896 21.238 27.599 21.238 Q26.739 21.238 25.989 20.754 Q25.224 20.301 24.771 19.441 Q24.333 18.598 24.333 17.457 L24.333 11.457 L22.474 11.457 Z" style="fill:#fff"></path></g></g></g><g class="mindmap-node section-1" transform="translate(523.62,420.51)"><path d="M-61.33 13.09 v-26.19 q0,-5.00 5.00,-5.00 h112.66 q5.00,0 5.00,5.00 v31.19 H-61.33 Z" style="fill:#e15759;stroke:none"></path><line x1="-61.33" y1="18.09" x2="61.33" y2="18.09" style="stroke:#e15759;stroke-width:2;fill:none"></line><text x="0.00" y="0.00" text-anchor="middle" dominant-baseline="central" style="fill:#fff;font-size:14px">Area of circle</text></g><g class="mindmap-node section-2" transform="translate(307.82,665.18)"><path d="M-40.00 26.32 v-52.64 q0,-5.00 5.00,-5.00 h70.00 q5.00,0 5.00,5.00 v57.64 H-40.00 Z" style="fill:#76b7b2;stroke:none"></path><line x1="-40.00" y1="31.32" x2="40.00" y2="31.32" style="stroke:#76b7b2;stroke-width:2;fill:none"></line><g transform="translate(-11.87,-21.32) scale(1.000)"><g transform="translate(0,-1.312)"><path d="M5.484 22.807 L2.781 30.401 L1.016 30.401 L1.016 31.807 L3.875 31.807 L6.141 25.229 L12.781 43.948 L14.203 43.948 L6.781 22.807 L5.484 22.807 Z" style="fill:#fff"></path><rect x="6.76" y="1.31" width="16.98" height="1.31" style="fill:#fff"></rect><path d="M10.460 28.375 L10.460 29.875 L20.319 29.875 L20.319 28.375 L10.460 28.375 Z" style="fill:#fff"></path><path d="M20.903 23.297 L20.903 33.781 Q20.903 34.672 20.919 35.219 Q20.934 35.766 20.981 36.359 Q20.637 36.047 20.372 35.797 Q20.091 35.562 19.684 35.203 L18.075 33.906 L17.122 35.141 L21.169 38.297 L22.700 38.297 L22.700 23.297 L20.903 23.297 Z" style="fill:#fff"></path></g></g></g><g class="mindmap-node section-2" transform="translate(357.48,484.38)"><path d="M-65.16 13.09 v-26.19 q0,-5.00 5.00,-5.00 h120.33 q5.00,0 5.00,5.00 v31.19 H-65.16 Z" style="fill:#76b7b2;stroke:none"></path><line x1="-65.16" y1="18.09" x2="65.16" y2="18.09" style="stroke:#76b7b2;stroke-width:2;fill:none"></line><text x="0.00" y="0.00" text-anchor="middle" dominant-baseline="central" style="fill:#fff;font-size:14px">Imaginary unit</text></g><g class="mindmap-node section-3" transform="translate(60.00,353.52)"><path d="M-40.00 15.55 v-31.11 q0,-5.00 5.00,-5.00 h70.00 q5.00,0 5.00,5.00 v36.11 H-40.00 Z" style="fill:#59a14f;stroke:none"></path><line x1="-40.00" y1="20.55" x2="40.00" y2="20.55" style="stroke:#59a14f;stroke-width:2;fill:none"></line><g transform="translate(-12.14,-10.55) scale(1.000)"><g transform="translate(0,-11.031)"><path d="M5.781 15.875 Q3.719 15.875 2.438 17.312 Q1.156 18.781 1.156 21.672 Q1.156 24.516 2.422 26.031 Q3.672 27.547 5.938 27.547 Q7.188 27.547 8.000 27.109 Q8.844 26.688 9.391 25.828 L9.516 25.828 Q9.625 26.172 9.781 26.594 Q9.953 27.016 10.188 27.328 L11.641 27.328 Q11.484 26.875 11.359 26.109 Q11.234 25.359 11.172 24.516 Q11.109 23.688 11.109 22.922 L11.109 18.562 Q11.109 17.906 11.359 17.625 Q11.609 17.375 11.969 17.375 Q12.141 17.375 12.328 17.422 Q12.516 17.469 12.594 17.484 L12.594 16.141 Q12.453 16.062 12.109 15.969 Q11.781 15.875 11.422 15.875 Q10.641 15.875 10.141 16.250 Q9.656 16.625 9.422 17.594 L9.281 17.594 Q8.797 16.875 8.000 16.375 Q7.203 15.875 5.781 15.875 Z M6.094 17.406 Q7.828 17.406 8.547 18.391 Q9.281 19.391 9.281 21.562 L9.281 21.688 Q9.281 23.781 8.594 24.875 Q7.922 25.984 6.062 25.984 Q4.531 25.984 3.797 24.875 Q3.062 23.766 3.062 21.641 Q3.062 19.547 3.781 18.469 Q4.516 17.406 6.094 17.406 Z" style="fill:#fff"></path><path d="M8.087 11.031 L8.087 27.312 Q8.087 29.016 8.744 30.062 Q9.400 31.141 10.525 31.641 Q11.666 32.141 13.103 32.141 Q14.525 32.141 15.603 31.688 Q16.697 31.234 17.306 30.359 Q17.947 29.469 17.947 28.125 Q17.947 26.625 17.119 25.734 Q16.306 24.859 14.744 24.609 L14.744 24.516 Q16.666 24.312 17.619 23.281 Q18.619 22.250 18.619 20.344 Q18.619 18.172 17.244 17.016 Q15.900 15.875 13.494 15.875 Q12.275 15.875 11.431 16.062 Q10.619 16.250 9.947 16.578 L9.947 11.031 L8.087 11.031 Z M13.322 17.375 Q15.119 17.375 15.947 18.172 Q16.759 19.000 16.759 20.469 Q16.759 22.125 15.759 22.875 Q14.744 23.656 13.103 23.656 L11.994 23.656 L11.994 25.219 L12.900 25.219 Q14.541 25.219 15.291 25.984 Q16.056 26.766 16.056 28.047 Q16.056 29.344 15.228 29.984 Q14.431 30.609 13.072 30.609 Q12.228 30.609 11.509 30.312 Q10.806 30.016 10.353 29.281 Q9.947 28.547 9.947 27.234 L9.947 18.234 Q10.681 17.859 11.447 17.609 Q12.244 17.375 13.322 17.375 Z" style="fill:#fff"></path><path d="M16.370 11.031 Q16.370 11.625 16.495 12.516 Q16.636 13.391 16.870 14.375 Q17.120 15.344 17.433 16.203 L12.886 27.328 L14.792 27.328 L17.167 21.438 Q17.401 20.891 17.620 20.219 Q17.854 19.547 18.042 18.938 Q18.229 18.328 18.292 17.953 L18.386 17.953 Q18.448 18.281 18.620 18.906 Q18.808 19.547 19.011 20.219 Q19.245 20.891 19.417 21.344 L21.636 27.328 L23.542 27.328 L19.386 16.344 Q19.073 15.516 18.839 14.547 Q18.620 13.578 18.495 12.672 Q18.370 11.750 18.370 11.031 L16.370 11.031 Z" style="fill:#fff"></path><path d="M24.385 15.875 Q22.900 15.875 21.729 16.422 Q20.541 16.953 19.869 18.016 Q19.229 19.078 19.229 20.578 Q19.229 21.922 19.791 22.922 Q20.369 23.938 21.369 24.609 Q22.369 25.297 23.604 25.656 Q22.432 26.328 21.729 27.125 Q21.010 27.938 21.010 29.094 Q21.010 30.547 22.072 31.281 Q23.166 32.031 24.791 32.031 Q26.229 32.031 27.260 31.688 Q28.291 31.328 29.119 30.906 L28.322 29.453 Q27.541 29.891 26.650 30.219 Q25.775 30.531 24.697 30.531 Q23.760 30.531 23.322 30.078 Q22.869 29.672 22.869 29.078 Q22.869 28.578 23.150 28.172 Q23.416 27.781 24.025 27.328 Q24.666 26.922 25.697 26.344 Q27.604 25.312 28.604 24.078 Q29.635 22.859 29.635 21.031 Q29.635 18.516 28.182 17.188 Q26.760 15.875 24.385 15.875 Z M24.385 17.406 Q26.010 17.406 26.869 18.328 Q27.729 19.266 27.729 21.016 Q27.729 22.438 27.010 23.328 Q26.322 24.203 25.088 24.859 Q24.432 24.703 23.744 24.391 Q23.072 24.094 22.479 23.594 Q21.885 23.109 21.510 22.359 Q21.150 21.625 21.150 20.547 Q21.150 19.172 21.994 18.281 Q22.854 17.406 24.385 17.406 Z" style="fill:#fff"></path></g></g></g><g class="mindmap-node section-3" transform="translate(247.34,345.86)"><path d="M-60.44 13.09 v-26.19 q0,-5.00 5.00,-5.00 h110.88 q5.00,0 5.00,5.00 v31.19 H-60.44 Z" style="fill:#59a14f;stroke:none"></path><line x1="-60.44" y1="18.09" x2="60.44" y2="18.09" style="stroke:#59a14f;stroke-width:2;fill:none"></line><text x="0.00" y="0.00" text-anchor="middle" dominant-baseline="central" style="fill:#fff;font-size:14px">Greek letters</text></g><g class="mindmap-node section-4" transform="translate(234.93,43.82)"><path d="M-40.00 18.82 v-37.64 q0,-5.00 5.00,-5.00 h70.00 q5.00,0 5.00,5.00 v42.64 H-40.00 Z" style="fill:#edc948;stroke:none"></path><line x1="-40.00" y1="23.82" x2="40.00" y2="23.82" style="stroke:#edc948;stroke-width:2;fill:none"></line><g transform="translate(-19.80,-13.82) scale(1.000)"><g transform="translate(0,-10.348)"><path d="M3.766 10.642 L3.766 17.627 Q3.766 18.236 3.781 18.595 Q3.797 18.955 3.828 19.345 Q3.594 19.142 3.422 18.970 Q3.234 18.814 2.953 18.580 L1.891 17.705 L1.250 18.533 L3.953 20.642 L4.969 20.642 L4.969 10.642 L3.766 10.642 Z" style="fill:#fff"></path><rect x="0.00" y="14.58" width="4.11" height="1.31" style="fill:#fff"></rect><path d="M0.672 27.847 L0.672 28.862 L3.297 31.519 Q4.047 32.269 4.562 32.862 Q5.078 33.441 5.344 34.003 Q5.609 34.581 5.609 35.253 Q5.609 36.081 5.125 36.503 Q4.641 36.941 3.844 36.941 Q3.125 36.941 2.562 36.675 Q2.016 36.425 1.438 35.987 L0.781 36.800 Q1.375 37.300 2.125 37.628 Q2.891 37.987 3.844 37.987 Q5.250 37.987 6.062 37.269 Q6.875 36.566 6.875 35.316 Q6.875 34.534 6.547 33.847 Q6.234 33.175 5.656 32.503 Q5.078 31.831 4.312 31.081 L2.219 29.019 L2.219 28.972 L7.281 28.972 L7.281 27.847 L0.672 27.847 Z" style="fill:#fff"></path><path d="M13.898 19.855 L13.898 24.183 L9.726 24.183 L9.726 25.683 L13.898 25.683 L13.898 30.027 L15.414 30.027 L15.414 25.683 L19.586 25.683 L19.586 24.183 L15.414 24.183 L15.414 19.855 L13.898 19.855 Z" style="fill:#fff"></path><path d="M20.196 10.642 L20.196 17.627 Q20.196 18.236 20.212 18.595 Q20.228 18.955 20.259 19.345 Q20.025 19.142 19.853 18.970 Q19.665 18.814 19.384 18.580 L18.321 17.705 L17.681 18.533 L20.384 20.642 L21.400 20.642 L21.400 10.642 L20.196 10.642 Z" style="fill:#fff"></path><rect x="16.43" y="14.58" width="4.11" height="1.31" style="fill:#fff"></rect><path d="M19.806 27.706 Q19.025 27.706 18.353 27.831 Q17.681 27.941 17.056 28.253 L17.056 29.394 Q17.696 29.097 18.415 28.909 Q19.150 28.737 19.821 28.737 Q21.165 28.737 21.743 29.253 Q22.353 29.800 22.353 30.722 Q22.353 31.659 21.618 32.066 Q20.884 32.487 19.556 32.487 L18.587 32.487 L18.587 33.534 L19.571 33.534 Q20.806 33.534 21.431 34.050 Q22.071 34.566 22.071 35.425 Q22.071 36.144 21.587 36.534 Q21.087 36.941 20.259 36.941 Q19.446 36.941 18.868 36.706 Q18.290 36.472 17.728 36.112 L17.118 36.941 Q17.650 37.362 18.431 37.675 Q19.228 37.987 20.243 37.987 Q21.806 37.987 22.556 37.284 Q23.337 36.581 23.337 35.503 Q23.337 34.503 22.775 33.894 Q22.212 33.300 21.259 33.112 L21.259 33.050 Q22.462 32.909 23.056 32.300 Q23.634 31.691 23.634 30.691 Q23.634 29.816 23.228 29.128 Q22.821 28.456 21.978 28.081 Q21.134 27.706 19.806 27.706 Z" style="fill:#fff"></path><path d="M26.157 26.293 L26.157 27.777 L36.017 27.777 L36.017 26.293 L26.157 26.293 Z M26.157 22.105 L26.157 23.605 L36.017 23.605 L36.017 22.105 L26.157 22.105 Z" style="fill:#fff"></path><path d="M36.330 10.348 Q35.565 10.348 34.877 10.489 Q34.205 10.630 33.737 10.895 L33.737 12.052 Q34.252 11.755 34.955 11.567 Q35.690 11.395 36.346 11.395 Q37.455 11.395 38.127 11.911 Q38.815 12.442 38.815 13.552 Q38.815 14.536 38.205 15.052 Q37.612 15.583 36.299 15.583 Q35.909 15.583 35.409 15.520 Q34.909 15.442 34.596 15.380 L33.987 15.770 L34.362 20.489 L39.377 20.489 L39.377 19.364 L35.409 19.364 L35.174 16.473 Q35.409 16.505 35.815 16.567 Q36.221 16.614 36.705 16.614 Q38.252 16.614 39.159 15.848 Q40.065 15.083 40.065 13.677 Q40.065 12.130 39.080 11.223 Q38.096 10.348 36.330 10.348 Z" style="fill:#fff"></path><rect x="32.86" y="14.58" width="4.11" height="1.31" style="fill:#fff"></rect><path d="M37.034 27.706 Q36.080 27.706 35.315 28.191 Q34.549 28.659 34.080 29.644 Q33.627 30.612 33.627 32.112 Q33.627 33.191 33.815 34.237 Q34.002 35.284 34.502 36.128 Q35.002 36.972 35.893 37.472 Q36.799 37.987 38.205 37.987 Q38.502 37.987 38.846 37.956 Q39.221 37.925 39.440 37.862 L39.440 36.800 Q39.190 36.894 38.862 36.941 Q38.565 36.972 38.237 36.972 Q37.268 36.972 36.627 36.659 Q35.987 36.331 35.612 35.769 Q35.237 35.206 35.080 34.487 Q34.909 33.753 34.862 32.925 L34.955 32.925 Q35.268 33.425 35.846 33.753 Q36.424 34.112 37.315 34.112 Q38.612 34.112 39.409 33.300 Q40.205 32.519 40.205 31.066 Q40.205 29.503 39.346 28.597 Q38.487 27.706 37.034 27.706 Z M37.018 28.737 Q37.909 28.737 38.455 29.300 Q38.987 29.878 38.987 31.066 Q38.987 32.019 38.502 32.581 Q38.034 33.144 37.065 33.144 Q36.409 33.144 35.909 32.862 Q35.424 32.597 35.143 32.175 Q34.877 31.753 34.877 31.300 Q34.877 30.706 35.112 30.097 Q35.346 29.519 35.830 29.128 Q36.299 28.737 37.018 28.737 Z" style="fill:#fff"></path></g></g></g><g class="mindmap-node section-4" transform="translate(325.09,208.22)"><path d="M-48.98 13.09 v-26.19 q0,-5.00 5.00,-5.00 h87.95 q5.00,0 5.00,5.00 v31.19 H-48.98 Z" style="fill:#edc948;stroke:none"></path><line x1="-48.98" y1="18.09" x2="48.98" y2="18.09" style="stroke:#edc948;stroke-width:2;fill:none"></line><text x="0.00" y="0.00" text-anchor="middle" dominant-baseline="central" style="fill:#fff;font-size:14px">Fractions</text></g><g class="mindmap-node section-root" transform="translate(397.22,339.74)"><path d="M-40.00 13.09 v-26.19 q0,-5.00 5.00,-5.00 h70.00 q5.00,0 5.00,5.00 v31.19 H-40.00 Z" style="fill:#4e79a7;stroke:none"></path><line x1="-40.00" y1="18.09" x2="40.00" y2="18.09" style="stroke:#4e79a7;stroke-width:2;fill:none"></line><text x="0.00" y="0.00" text-anchor="middle" dominant-baseline="central" style="fill:#fff;font-size:14px">Root</text></g></g></svg>