<?xml version="1.0" encoding="UTF-8"?>
<svg xmlns="http://www.w3.org/2000/svg" viewBox="0 0 741.61 700.89" role="graphics-document document" aria-roledescription="mindmap"><rect x="0.00" y="0.00" width="741.61" height="700.89" style="fill:#fff;stroke:none"></rect><g><path d="M397.22,336.85 Q457.65,290.83 500.70,228.25" style="stroke:#f28e2b;stroke-width:17;fill:none"></path><path d="M500.70,228.25 Q576.23,170.73 630.05,92.51" style="stroke:#f28e2b;stroke-width:14;fill:none"></path><path d="M397.22,336.85 Q453.96,387.34 523.62,417.61" style="stroke:#e15759;stroke-width:17;fill:none"></path><path d="M523.62,417.61 Q594.54,480.73 681.61,518.58" style="stroke:#e15759;stroke-width:14;fill:none"></path><path d="M397.22,336.85 Q365.78,405.99 357.48,481.49" style="stroke:#76b7b2;stroke-width:17;fill:none"></path><path d="M357.48,481.49 Q318.19,567.91 307.82,662.29" style="stroke:#76b7b2;stroke-width:14;fill:none"></path><path d="M397.22,336.85 Q321.79,327.92 247.34,342.97" style="stroke:#59a14f;stroke-width:17;fill:none"></path><path d="M247.34,342.97 Q153.06,331.81 60.00,350.63" style="stroke:#59a14f;stroke-width:14;fill:none"></path><path d="M397.22,336.85 Q371.67,265.32 325.09,205.33" style="stroke:#edc948;stroke-width:17;fill:none"></path><path d="M325.09,205.33 Q293.16,115.91 234.93,40.93" style="stroke:#edc948;stroke-width:14;fill:none"></path></g><g><g class="mindmap-node section-0" transform="translate(630.05,92.51)"><path d="M-62.40 18.29 v-36.58 q0,-5.00 5.00,-5.00 h114.80 q5.00,0 5.00,5.00 v41.58 H-62.40 Z" style="fill:#f28e2b;stroke:none"></path><line x1="-62.40" y1="23.29" x2="62.40" y2="23.29" style="stroke:#f28e2b;stroke-width:2;fill:none"></line><g transform="translate(-42.40,-13.29) scale(1.000)"><g transform="translate(0,-0.735)"><path d="M0.562 10.667 L0.562 9.886 L5.734 9.886 L5.734 10.667 L0.562 10.667 Z" style="fill:#fff"></path><path d="M9.482 13.432 Q8.779 13.432 8.342 13.182 Q7.904 12.932 7.654 12.573 L7.576 12.573 L7.373 13.323 L6.685 13.323 L6.685 4.964 L7.654 4.964 L7.654 6.995 Q7.654 7.370 7.623 7.698 Q7.623 8.026 7.592 8.214 L7.654 8.214 Q7.904 7.839 8.342 7.589 Q8.779 7.323 9.482 7.323 Q10.576 7.323 11.232 8.104 Q11.904 8.854 11.904 10.370 Q11.904 11.886 11.232 12.667 Q10.560 13.432 9.482 13.432 Z M9.342 12.636 Q10.123 12.636 10.514 12.042 Q10.904 11.464 10.904 10.370 Q10.904 8.136 9.310 8.136 Q8.373 8.136 8.014 8.667 Q7.654 9.214 7.654 10.339 L7.654 10.386 Q7.654 11.479 7.998 12.057 Q8.373 12.636 9.342 12.636 Z" style="fill:#fff"></path><path d="M16.547 12.932 L16.547 10.667 L14.360 10.667 L14.360 9.886 L16.547 9.886 L16.547 7.604 L17.344 7.604 L17.344 9.886 L19.531 9.886 L19.531 10.667 L17.344 10.667 L17.344 12.932 L16.547 12.932 Z M14.360 12.932 L14.360 12.151 L19.531 12.151 L19.531 12.932 L14.360 12.932 Z" style="fill:#fff"></path><path d="M24.705 13.446 L23.096 8.883 L22.033 8.883 L22.033 8.039 L23.752 8.039 L25.112 11.992 L29.096 0.758 L29.940 0.758 L25.487 13.446 L24.705 13.446 Z" style="fill:#fff"></path><rect x="14.74" y="0.74" width="55.71" height="0.74" style="fill:#fff"></rect><path d="M34.722 13.787 Q34.019 13.787 33.582 13.537 Q33.144 13.287 32.894 12.927 L32.816 12.927 L32.613 13.677 L31.925 13.677 L31.925 5.318 L32.894 5.318 L32.894 7.349 Q32.894 7.724 32.863 8.052 Q32.863 8.381 32.832 8.568 L32.894 8.568 Q33.144 8.193 33.582 7.943 Q34.019 7.677 34.722 7.677 Q35.816 7.677 36.472 8.459 Q37.144 9.209 37.144 10.724 Q37.144 12.240 36.472 13.021 Q35.800 13.787 34.722 13.787 Z M34.582 12.990 Q35.363 12.990 35.753 12.396 Q36.144 11.818 36.144 10.724 Q36.144 8.490 34.550 8.490 Q33.613 8.490 33.253 9.021 Q32.894 9.568 32.894 10.693 L32.894 10.740 Q32.894 11.834 33.238 12.412 Q33.613 12.990 34.582 12.990 Z" style="fill:#fff"></path><path d="M40.334 13.052 L39.756 12.490 L41.615 10.615 L39.756 8.756 L40.318 8.193 L42.178 10.068 L44.068 8.193 L44.615 8.756 L42.740 10.615 L44.599 12.490 L44.053 13.052 L42.178 11.193 L40.334 13.052 Z" style="fill:#fff"></path><path d="M50.398 13.787 Q49.695 13.787 49.258 13.537 Q48.820 13.287 48.570 12.927 L48.492 12.927 L48.289 13.677 L47.601 13.677 L47.601 5.318 L48.570 5.318 L48.570 7.349 Q48.570 7.724 48.539 8.052 Q48.539 8.381 48.508 8.568 L48.570 8.568 Q48.820 8.193 49.258 7.943 Q49.695 7.677 50.398 7.677 Q51.492 7.677 52.148 8.459 Q52.820 9.209 52.820 10.724 Q52.820 12.240 52.148 13.021 Q51.476 13.787 50.398 13.787 Z M50.258 12.990 Q51.039 12.990 51.430 12.396 Q51.820 11.818 51.820 10.724 Q51.820 8.490 50.226 8.490 Q49.289 8.490 48.930 9.021 Q48.570 9.568 48.570 10.693 L48.570 10.740 Q48.570 11.834 48.914 12.412 Q49.289 12.990 50.258 12.990 Z" style="fill:#fff"></path><path d="M55.276 11.021 L55.276 10.240 L60.447 10.240 L60.447 11.021 L55.276 11.021 Z" style="fill:#fff"></path><path d="M66.340 13.677 L66.340 11.896 L62.575 11.896 L62.575 11.068 L66.262 5.787 L67.262 5.787 L67.262 11.021 L68.418 11.021 L68.418 11.896 L67.262 11.896 L67.262 13.677 L66.340 13.677 Z M63.512 11.021 L66.340 11.021 L66.340 8.552 Q66.340 7.974 66.340 7.584 Q66.371 7.177 66.387 6.818 L66.340 6.818 Q66.262 7.021 66.121 7.271 Q65.996 7.506 65.871 7.677 L63.512 11.021 Z" style="fill:#fff"></path><path d="M70.447 13.787 Q69.651 13.787 69.119 13.365 Q68.588 12.943 68.588 12.037 Q68.588 11.162 69.291 10.693 Q69.979 10.209 71.416 10.162 L72.416 10.131 L72.416 9.771 Q72.416 9.037 72.104 8.756 Q71.791 8.459 71.197 8.459 Q70.744 8.459 70.322 8.599 Q69.901 8.740 69.541 8.912 L69.244 8.193 Q69.635 7.974 70.151 7.834 Q70.682 7.677 71.260 7.677 Q72.338 7.677 72.854 8.162 Q73.369 8.631 73.369 9.662 L73.369 13.677 L72.666 13.677 L72.479 12.834 L72.432 12.834 Q72.041 13.318 71.619 13.552 Q71.197 13.787 70.447 13.787 Z M70.666 13.006 Q71.416 13.006 71.916 12.599 Q72.416 12.177 72.416 11.318 L72.416 10.802 L71.541 10.834 Q70.447 10.865 70.010 11.177 Q69.588 11.490 69.588 12.052 Q69.588 12.537 69.885 12.771 Q70.197 13.006 70.666 13.006 Z" style="fill:#fff"></path><path d="M77.022 13.787 Q76.241 13.787 75.632 13.474 Q75.022 13.146 74.679 12.474 Q74.335 11.802 74.335 10.756 Q74.335 9.677 74.694 8.990 Q75.054 8.302 75.679 7.990 Q76.304 7.677 77.085 7.677 Q77.538 7.677 77.960 7.771 Q78.382 7.865 78.647 7.990 L78.350 8.787 Q78.085 8.693 77.725 8.599 Q77.382 8.521 77.069 8.521 Q75.335 8.521 75.335 10.756 Q75.335 11.818 75.757 12.396 Q76.179 12.959 77.007 12.959 Q77.491 12.959 77.866 12.849 Q78.241 12.756 78.538 12.615 L78.538 13.474 Q78.241 13.615 77.882 13.693 Q77.538 13.787 77.022 13.787 Z" style="fill:#fff"></path><rect x="-1.50" y="16.60" width="49.36" height="1.05" style="fill:#fff"></rect><path d="M35.531 27.209 L35.531 26.412 L37.578 24.334 Q38.172 23.741 38.594 23.272 Q39.000 22.803 39.203 22.366 Q39.406 21.912 39.406 21.397 Q39.406 20.741 39.031 20.412 Q38.641 20.069 38.031 20.069 Q37.453 20.069 37.016 20.272 Q36.578 20.459 36.141 20.819 L35.609 20.162 Q36.078 19.787 36.672 19.522 Q37.281 19.241 38.031 19.241 Q39.125 19.241 39.766 19.803 Q40.406 20.350 40.406 21.334 Q40.406 21.944 40.141 22.491 Q39.891 23.022 39.438 23.553 Q39.000 24.069 38.391 24.662 L36.750 26.287 L36.750 26.334 L40.719 26.334 L40.719 27.209 L35.531 27.209 Z" style="fill:#fff"></path><path d="M43.107 27.319 Q42.310 27.319 41.779 26.897 Q41.248 26.475 41.248 25.569 Q41.248 24.694 41.951 24.225 Q42.639 23.741 44.076 23.694 L45.076 23.662 L45.076 23.303 Q45.076 22.569 44.764 22.287 Q44.451 21.991 43.857 21.991 Q43.404 21.991 42.982 22.131 Q42.560 22.272 42.201 22.444 L41.904 21.725 Q42.295 21.506 42.810 21.366 Q43.342 21.209 43.920 21.209 Q44.998 21.209 45.514 21.694 Q46.029 22.162 46.029 23.194 L46.029 27.209 L45.326 27.209 L45.139 26.366 L45.092 26.366 Q44.701 26.850 44.279 27.084 Q43.857 27.319 43.107 27.319 Z M43.326 26.537 Q44.076 26.537 44.576 26.131 Q45.076 25.709 45.076 24.850 L45.076 24.334 L44.201 24.366 Q43.107 24.397 42.670 24.709 Q42.248 25.022 42.248 25.584 Q42.248 26.069 42.545 26.303 Q42.857 26.537 43.326 26.537 Z" style="fill:#fff"></path></g></g></g><g class="mindmap-node section-0" transform="translate(500.70,228.25)"><path d="M-76.13 13.09 v-26.19 q0,-5.00 5.00,-5.00 h142.27 q5.00,0 5.00,5.00 v31.19 H-76.13 Z" style="fill:#f28e2b;stroke:none"></path><line x1="-76.13" y1="18.09" x2="76.13" y2="18.09" style="stroke:#f28e2b;stroke-width:2;fill:none"></line><text x="0.00" y="0.00" text-anchor="middle" dominant-baseline="central" style="fill:#fff;font-size:14px">Quadratic formula</text></g><g class="mindmap-node section-1" transform="translate(681.61,518.58)"><path d="M-40.00 12.50 v-25.00 q0,-5.00 5.00,-5.00 h70.00 q5.00,0 5.00,5.00 v30.00 H-40.00 Z" style="fill:#e15759;stroke:none"></path><line x1="-40.00" y1="17.50" x2="40.00" y2="17.50" style="stroke:#e15759;stroke-width:2;fill:none"></line><g transform="translate(-17.45,-4.45) scale(1.000)"><g transform="translate(0,-0.431)"><path d="M8.734 9.322 Q6.953 9.322 6.953 7.275 L6.953 1.759 L3.328 1.759 L3.328 9.166 L1.938 9.166 L1.938 1.759 L0.188 1.759 L0.188 1.150 L1.344 0.588 L10.031 0.588 L10.031 1.759 L8.359 1.759 L8.359 7.181 Q8.359 7.744 8.562 7.963 Q8.766 8.181 9.094 8.181 Q9.312 8.181 9.484 8.119 Q9.688 8.072 9.797 8.009 L9.797 9.119 Q9.656 9.181 9.375 9.244 Q9.109 9.322 8.734 9.322 Z" style="fill:#fff"></path><path d="M10.820 9.166 L10.820 0.588 L11.976 0.588 L12.132 2.150 L12.195 2.150 Q12.617 1.447 13.273 0.947 Q13.929 0.431 14.820 0.431 Q15.054 0.431 15.335 0.463 Q15.617 0.478 15.835 0.525 L15.648 1.822 Q15.445 1.775 15.195 1.744 Q14.945 1.713 14.726 1.713 Q14.070 1.713 13.492 2.072 Q12.913 2.431 12.570 3.088 Q12.226 3.728 12.226 4.588 L12.226 9.166 L10.820 9.166 Z" style="fill:#fff"></path><path d="M19.964 8.259 L19.136 7.431 L21.839 4.713 L19.120 2.009 L19.949 1.181 L22.652 3.916 L25.386 1.181 L26.183 1.994 L23.464 4.713 L26.167 7.431 L25.370 8.259 L22.636 5.556 L19.964 8.259 Z" style="fill:#fff"></path><path d="M30.329 9.166 L30.329 0.588 L31.485 0.588 L31.641 2.150 L31.704 2.150 Q32.126 1.447 32.782 0.947 Q33.438 0.431 34.329 0.431 Q34.563 0.431 34.844 0.463 Q35.126 0.478 35.344 0.525 L35.157 1.822 Q34.954 1.775 34.704 1.744 Q34.454 1.713 34.235 1.713 Q33.579 1.713 33.001 2.072 Q32.422 2.431 32.079 3.088 Q31.735 3.728 31.735 4.588 L31.735 9.166 L30.329 9.166 Z" style="fill:#fff"></path></g></g></g><g class="mindmap-node section-1" transform="translate(523.62,417.61)"><path d="M-61.33 13.09 v-26.19 q0,-5.00 5.00,-5.00 h112.66 q5.00,0 5.00,5.00 v31.19 H-61.33 Z" style="fill:#e15759;stroke:none"></path><line x1="-61.33" y1="18.09" x2="61.33" y2="18.09" style="stroke:#e15759;stroke-width:2;fill:none"></line><text x="0.00" y="0.00" text-anchor="middle" dominant-baseline="central" style="fill:#fff;font-size:14px">Area of circle</text></g><g class="mindmap-node section-2" transform="translate(307.82,662.29)"><path d="M-40.00 13.60 v-27.20 q0,-5.00 5.00,-5.00 h70.00 q5.00,0 5.00,5.00 v32.20 H-40.00 Z" style="fill:#76b7b2;stroke:none"></path><line x1="-40.00" y1="18.60" x2="40.00" y2="18.60" style="stroke:#76b7b2;stroke-width:2;fill:none"></line><g transform="translate(-16.62,-8.60) scale(1.000)"><g transform="translate(0,-1.050)"><path d="M4.391 18.245 L2.219 12.167 L0.812 12.167 L0.812 11.042 L3.109 11.042 L4.906 16.308 L10.219 1.339 L11.359 1.339 L5.422 18.245 L4.391 18.245 Z" style="fill:#fff"></path><rect x="3.91" y="1.05" width="26.77" height="1.05" style="fill:#fff"></rect><path d="M13.947 14.163 L13.947 13.022 L21.478 13.022 L21.478 14.163 L13.947 14.163 Z" style="fill:#fff"></path><path d="M25.642 18.038 L25.642 10.053 Q25.642 9.366 25.658 8.944 Q25.689 8.538 25.721 8.084 Q25.455 8.319 25.252 8.522 Q25.049 8.694 24.721 8.959 L23.502 9.959 L22.767 9.006 L25.861 6.616 L27.033 6.616 L27.033 18.038 L25.642 18.038 Z" style="fill:#fff"></path></g></g></g><g class="mindmap-node section-2" transform="translate(357.48,481.49)"><path d="M-65.16 13.09 v-26.19 q0,-5.00 5.00,-5.00 h120.33 q5.00,0 5.00,5.00 v31.19 H-65.16 Z" style="fill:#76b7b2;stroke:none"></path><line x1="-65.16" y1="18.09" x2="65.16" y2="18.09" style="stroke:#76b7b2;stroke-width:2;fill:none"></line><text x="0.00" y="0.00" text-anchor="middle" dominant-baseline="central" style="fill:#fff;font-size:14px">Imaginary unit</text></g><g class="mindmap-node section-3" transform="translate(60.00,350.63)"><path d="M-40.00 13.04 v-26.08 q0,-5.00 5.00,-5.00 h70.00 q5.00,0 5.00,5.00 v31.08 H-40.00 Z" style="fill:#59a14f;stroke:none"></path><line x1="-40.00" y1="18.04" x2="40.00" y2="18.04" style="stroke:#59a14f;stroke-width:2;fill:none"></line><g transform="translate(-17.00,-8.04) scale(1.000)"><g transform="translate(0,-0.628)"><path d="M4.406 13.019 Q2.828 13.019 1.859 11.925 Q0.875 10.800 0.875 8.613 Q0.875 6.425 1.844 5.284 Q2.797 4.128 4.531 4.128 Q5.469 4.128 6.094 4.456 Q6.734 4.784 7.156 5.441 L7.250 5.441 Q7.328 5.159 7.453 4.847 Q7.578 4.519 7.766 4.284 L8.859 4.284 Q8.750 4.644 8.656 5.222 Q8.562 5.784 8.516 6.425 Q8.469 7.066 8.469 7.644 L8.469 10.972 Q8.469 11.472 8.656 11.675 Q8.844 11.878 9.125 11.878 Q9.250 11.878 9.391 11.831 Q9.531 11.800 9.594 11.784 L9.594 12.816 Q9.484 12.878 9.234 12.941 Q8.969 13.019 8.703 13.019 Q8.109 13.019 7.734 12.738 Q7.359 12.441 7.188 11.706 L7.078 11.706 Q6.703 12.253 6.094 12.644 Q5.484 13.019 4.406 13.019 Z M4.641 11.847 Q5.969 11.847 6.516 11.097 Q7.078 10.331 7.078 8.691 L7.078 8.597 Q7.078 6.988 6.547 6.159 Q6.031 5.316 4.625 5.316 Q3.453 5.316 2.891 6.159 Q2.344 7.003 2.344 8.628 Q2.344 10.222 2.875 11.034 Q3.438 11.847 4.641 11.847 Z" style="fill:#fff"></path><path d="M10.188 16.706 L10.188 4.300 Q10.188 3.003 10.688 2.206 Q11.188 1.394 12.047 1.003 Q12.907 0.628 14.016 0.628 Q15.079 0.628 15.922 0.972 Q16.750 1.316 17.219 1.988 Q17.688 2.659 17.688 3.675 Q17.688 4.831 17.063 5.503 Q16.438 6.175 15.266 6.363 L15.266 6.425 Q16.719 6.597 17.454 7.378 Q18.204 8.159 18.204 9.613 Q18.204 11.269 17.172 12.144 Q16.141 13.019 14.297 13.019 Q13.375 13.019 12.735 12.878 Q12.110 12.738 11.594 12.472 L11.594 16.706 L10.188 16.706 Z M14.172 11.878 Q15.547 11.878 16.172 11.269 Q16.797 10.644 16.797 9.519 Q16.797 8.253 16.032 7.675 Q15.266 7.081 14.016 7.081 L13.172 7.081 L13.172 5.909 L13.860 5.909 Q15.094 5.909 15.672 5.316 Q16.250 4.722 16.250 3.738 Q16.250 2.753 15.625 2.269 Q15.016 1.784 13.985 1.784 Q13.344 1.784 12.797 2.019 Q12.250 2.238 11.922 2.800 Q11.594 3.363 11.594 4.363 L11.594 11.222 Q12.157 11.503 12.750 11.691 Q13.360 11.878 14.172 11.878 Z" style="fill:#fff"></path><path d="M20.621 16.706 Q20.621 16.253 20.715 15.581 Q20.824 14.909 21.012 14.159 Q21.199 13.425 21.434 12.769 L17.965 4.284 L19.418 4.284 L21.231 8.784 Q21.403 9.206 21.590 9.706 Q21.762 10.222 21.903 10.691 Q22.043 11.144 22.090 11.441 L22.153 11.441 Q22.199 11.175 22.340 10.706 Q22.481 10.222 22.637 9.706 Q22.809 9.206 22.949 8.847 L24.637 4.284 L26.090 4.284 L22.934 12.659 Q22.684 13.300 22.512 14.034 Q22.340 14.769 22.246 15.456 Q22.137 16.159 22.137 16.706 L20.621 16.706 Z" style="fill:#fff"></path><path d="M30.120 13.019 Q28.979 13.019 28.089 12.613 Q27.198 12.191 26.682 11.394 Q26.182 10.581 26.182 9.441 Q26.182 8.409 26.620 7.644 Q27.073 6.878 27.823 6.363 Q28.589 5.831 29.526 5.566 Q28.636 5.050 28.089 4.441 Q27.542 3.816 27.542 2.941 Q27.542 1.831 28.370 1.284 Q29.198 0.706 30.432 0.706 Q31.526 0.706 32.307 0.972 Q33.104 1.253 33.729 1.566 L33.120 2.675 Q32.526 2.331 31.854 2.097 Q31.182 1.847 30.370 1.847 Q29.636 1.847 29.307 2.191 Q28.964 2.503 28.964 2.956 Q28.964 3.347 29.182 3.644 Q29.386 3.956 29.854 4.284 Q30.339 4.613 31.120 5.034 Q32.573 5.816 33.339 6.769 Q34.120 7.691 34.120 9.081 Q34.120 11.003 33.026 12.019 Q31.932 13.019 30.120 13.019 Z M30.120 11.847 Q31.354 11.847 32.011 11.144 Q32.667 10.425 32.667 9.097 Q32.667 8.019 32.120 7.347 Q31.589 6.675 30.651 6.175 Q30.151 6.284 29.620 6.519 Q29.120 6.753 28.667 7.128 Q28.214 7.503 27.932 8.081 Q27.667 8.644 27.667 9.456 Q27.667 10.503 28.292 11.175 Q28.948 11.847 30.120 11.847 Z" style="fill:#fff"></path></g></g></g><g class="mindmap-node section-3" transform="translate(247.34,342.97)"><path d="M-60.44 13.09 v-26.19 q0,-5.00 5.00,-5.00 h110.88 q5.00,0 5.00,5.00 v31.19 H-60.44 Z" style="fill:#59a14f;stroke:none"></path><line x1="-60.44" y1="18.09" x2="60.44" y2="18.09" style="stroke:#59a14f;stroke-width:2;fill:none"></line><text x="0.00" y="0.00" text-anchor="middle" dominant-baseline="central" style="fill:#fff;font-size:14px">Greek letters</text></g><g class="mindmap-node section-4" transform="translate(234.93,40.93)"><path d="M-47.71 15.93 v-31.86 q0,-5.00 5.00,-5.00 h85.43 q5.00,0 5.00,5.00 v36.86 H-47.71 Z" style="fill:#edc948;stroke:none"></path><line x1="-47.71" y1="20.93" x2="47.71" y2="20.93" style="stroke:#edc948;stroke-width:2;fill:none"></line><g transform="translate(-27.71,-10.93) scale(1.000)"><g transform="translate(0,-0.532)"><path d="M2.953 8.514 L2.953 3.029 Q2.953 2.545 2.969 2.264 Q2.984 1.982 3.000 1.670 Q2.828 1.842 2.688 1.967 Q2.547 2.092 2.328 2.279 L1.484 2.951 L0.984 2.311 L3.109 0.654 L3.906 0.654 L3.906 8.514 L2.953 8.514 Z" style="fill:#fff"></path><rect x="-1.50" y="11.66" width="6.29" height="1.05" style="fill:#fff"></rect><path d="M0.531 22.277 L0.531 21.481 L2.578 19.402 Q3.172 18.809 3.594 18.340 Q4.000 17.871 4.203 17.434 Q4.406 16.981 4.406 16.465 Q4.406 15.809 4.031 15.481 Q3.641 15.137 3.031 15.137 Q2.453 15.137 2.016 15.340 Q1.578 15.527 1.141 15.887 L0.609 15.231 Q1.078 14.856 1.672 14.590 Q2.281 14.309 3.031 14.309 Q4.125 14.309 4.766 14.871 Q5.406 15.418 5.406 16.402 Q5.406 17.012 5.141 17.559 Q4.891 18.090 4.438 18.621 Q4.000 19.137 3.391 19.731 L1.750 21.356 L1.750 21.402 L5.719 21.402 L5.719 22.277 L0.531 22.277 Z" style="fill:#fff"></path><path d="M16.107 14.706 L16.107 11.409 L12.920 11.409 L12.920 10.268 L16.107 10.268 L16.107 6.972 L17.264 6.972 L17.264 10.268 L20.451 10.268 L20.451 11.409 L17.264 11.409 L17.264 14.706 L16.107 14.706 Z" style="fill:#fff"></path><path d="M25.956 8.514 L25.956 3.029 Q25.956 2.545 25.972 2.264 Q25.988 1.982 26.003 1.670 Q25.831 1.842 25.691 1.967 Q25.550 2.092 25.331 2.279 L24.488 2.951 L23.988 2.311 L26.113 0.654 L26.909 0.654 L26.909 8.514 L25.956 8.514 Z" style="fill:#fff"></path><rect x="11.65" y="11.66" width="8.75" height="1.05" style="fill:#fff"></rect><path d="M25.659 22.387 Q25.034 22.387 24.503 22.293 Q23.988 22.199 23.503 21.965 L23.503 21.059 Q23.988 21.293 24.566 21.434 Q25.144 21.574 25.659 21.574 Q26.722 21.574 27.191 21.168 Q27.659 20.746 27.659 20.027 Q27.659 19.293 27.066 18.965 Q26.503 18.637 25.456 18.637 L24.691 18.637 L24.691 17.809 L25.472 17.809 Q26.441 17.809 26.925 17.402 Q27.441 16.996 27.441 16.324 Q27.441 15.762 27.050 15.449 Q26.659 15.121 26.003 15.121 Q25.363 15.121 24.909 15.309 Q24.472 15.496 24.019 15.793 L23.534 15.121 Q23.956 14.793 24.581 14.559 Q25.206 14.309 25.988 14.309 Q27.222 14.309 27.816 14.871 Q28.425 15.418 28.425 16.262 Q28.425 17.059 27.988 17.527 Q27.550 17.981 26.800 18.137 L26.800 18.184 Q27.738 18.293 28.206 18.777 Q28.675 19.262 28.675 20.043 Q28.675 20.731 28.347 21.262 Q28.034 21.793 27.363 22.090 Q26.706 22.387 25.659 22.387 Z" style="fill:#fff"></path><path d="M35.923 9.815 L35.923 8.675 L43.454 8.675 L43.454 9.815 L35.923 9.815 Z M35.923 13.003 L35.923 11.862 L43.454 11.862 L43.454 13.003 L35.923 13.003 Z" style="fill:#fff"></path><path d="M48.741 8.501 Q48.131 8.501 47.585 8.391 Q47.069 8.282 46.694 8.079 L46.694 7.157 Q47.100 7.407 47.663 7.547 Q48.225 7.672 48.741 7.672 Q49.616 7.672 50.147 7.266 Q50.678 6.844 50.678 5.985 Q50.678 5.219 50.210 4.797 Q49.741 4.391 48.710 4.391 Q48.397 4.391 48.006 4.438 Q47.616 4.501 47.366 4.547 L46.881 4.251 L47.178 0.532 L51.116 0.532 L51.116 1.422 L48.006 1.422 L47.819 3.688 Q48.006 3.657 48.335 3.610 Q48.647 3.579 49.038 3.579 Q50.241 3.579 50.960 4.172 Q51.678 4.782 51.678 5.876 Q51.678 7.110 50.897 7.813 Q50.116 8.501 48.741 8.501 Z" style="fill:#fff"></path><rect x="24.79" y="11.66" width="8.75" height="1.05" style="fill:#fff"></rect><path d="M49.288 22.387 Q48.538 22.387 47.928 22.012 Q47.319 21.637 46.960 20.871 Q46.616 20.106 46.616 18.918 Q46.616 18.074 46.756 17.262 Q46.913 16.434 47.288 15.777 Q47.694 15.106 48.397 14.715 Q49.100 14.309 50.210 14.309 Q50.444 14.309 50.710 14.340 Q51.006 14.356 51.178 14.418 L51.178 15.231 Q50.975 15.168 50.725 15.137 Q50.491 15.106 50.225 15.106 Q49.475 15.106 48.960 15.356 Q48.460 15.606 48.163 16.059 Q47.881 16.496 47.741 17.059 Q47.616 17.637 47.585 18.277 L47.647 18.277 Q47.897 17.902 48.350 17.637 Q48.803 17.356 49.506 17.356 Q50.522 17.356 51.147 17.981 Q51.788 18.606 51.788 19.746 Q51.788 20.981 51.100 21.684 Q50.428 22.387 49.288 22.387 Z M49.272 21.574 Q49.960 21.574 50.397 21.137 Q50.819 20.684 50.819 19.746 Q50.819 18.996 50.444 18.559 Q50.069 18.121 49.303 18.121 Q48.788 18.121 48.397 18.340 Q48.022 18.543 47.803 18.871 Q47.585 19.215 47.585 19.559 Q47.585 20.027 47.772 20.512 Q47.960 20.965 48.335 21.277 Q48.710 21.574 49.272 21.574 Z" style="fill:#fff"></path></g></g></g><g class="mindmap-node section-4" transform="translate(325.09,205.33)"><path d="M-48.98 13.09 v-26.19 q0,-5.00 5.00,-5.00 h87.95 q5.00,0 5.00,5.00 v31.19 H-48.98 Z" style="fill:#edc948;stroke:none"></path><line x1="-48.98" y1="18.09" x2="48.98" y2="18.09" style="stroke:#edc948;stroke-width:2;fill:none"></line><text x="0.00" y="0.00" text-anchor="middle" dominant-baseline="central" style="fill:#fff;font-size:14px">Fractions</text></g><g class="mindmap-node section-root" transform="translate(397.22,336.85)"><path d="M-40.00 13.09 v-26.19 q0,-5.00 5.00,-5.00 h70.00 q5.00,0 5.00,5.00 v31.19 H-40.00 Z" style="fill:#4e79a7;stroke:none"></path><line x1="-40.00" y1="18.09" x2="40.00" y2="18.09" style="stroke:#4e79a7;stroke-width:2;fill:none"></line><text x="0.00" y="0.00" text-anchor="middle" dominant-baseline="central" style="fill:#fff;font-size:14px">Root</text></g></g></svg>