<?xml version="1.0" encoding="UTF-8"?>
<svg xmlns="http://www.w3.org/2000/svg" viewBox="0 0 741.61 698.86" role="graphics-document document" aria-roledescription="mindmap"><rect x="0.00" y="0.00" width="741.61" height="698.86" style="fill:#fff;stroke:none"></rect><g><path d="M397.22,335.42 Q457.65,289.40 500.70,226.83" style="stroke:#f28e2b;stroke-width:17;fill:none"></path><path d="M500.70,226.83 Q576.23,169.30 630.05,91.09" style="stroke:#f28e2b;stroke-width:14;fill:none"></path><path d="M397.22,335.42 Q453.96,385.91 523.62,416.19" style="stroke:#e15759;stroke-width:17;fill:none"></path><path d="M523.62,416.19 Q594.54,479.31 681.61,517.15" style="stroke:#e15759;stroke-width:14;fill:none"></path><path d="M397.22,335.42 Q365.78,404.56 357.48,480.06" style="stroke:#76b7b2;stroke-width:17;fill:none"></path><path d="M357.48,480.06 Q318.19,566.49 307.82,660.86" style="stroke:#76b7b2;stroke-width:14;fill:none"></path><path d="M397.22,335.42 Q321.79,326.49 247.34,341.54" style="stroke:#59a14f;stroke-width:17;fill:none"></path><path d="M247.34,341.54 Q153.06,330.39 60.00,349.20" style="stroke:#59a14f;stroke-width:14;fill:none"></path><path d="M397.22,335.42 Q371.67,263.89 325.09,203.90" style="stroke:#edc948;stroke-width:17;fill:none"></path><path d="M325.09,203.90 Q293.16,114.49 234.93,39.50" style="stroke:#edc948;stroke-width:14;fill:none"></path></g><g><g class="mindmap-node section-0" transform="translate(630.05,91.09)"><path d="M-40.19 16.50 v-33.00 q0,-5.00 5.00,-5.00 h70.38 q5.00,0 5.00,5.00 v38.00 H-40.19 Z" style="fill:#f28e2b;stroke:none"></path><line x1="-40.19" y1="21.50" x2="40.19" y2="21.50" style="stroke:#f28e2b;stroke-width:2;fill:none"></line><g transform="translate(-20.19,-11.50) scale(1.000)"><path d="M0.453 13.274 L0.453 13.915 L4.688 13.915 L4.688 13.274 L0.453 13.274 Z" style="fill:#fff"></path><path d="M5.784 11.009 Q5.221 11.009 4.862 11.212 Q4.503 11.431 4.300 11.712 L4.237 11.712 L4.065 11.103 L3.503 11.103 L3.503 17.946 L4.300 17.946 L4.300 16.274 Q4.300 15.978 4.268 15.696 Q4.268 15.446 4.253 15.290 L4.300 15.290 Q4.503 15.587 4.862 15.806 Q5.221 16.009 5.784 16.009 Q6.690 16.009 7.221 15.384 Q7.784 14.759 7.784 13.509 Q7.784 12.274 7.221 11.649 Q6.675 11.009 5.784 11.009 Z M5.675 11.665 Q6.315 11.665 6.628 12.149 Q6.956 12.618 6.956 13.524 Q6.956 15.353 5.659 15.353 Q4.893 15.353 4.596 14.915 Q4.300 14.462 4.300 13.540 L4.300 13.509 Q4.300 12.618 4.581 12.134 Q4.878 11.665 5.675 11.665 Z" style="fill:#fff"></path><path d="M8.820 11.431 L8.820 13.274 L7.023 13.274 L7.023 13.915 L8.820 13.915 L8.820 15.790 L9.461 15.790 L9.461 13.915 L11.258 13.915 L11.258 13.274 L9.461 13.274 L9.461 11.431 L8.820 11.431 Z M7.023 11.431 L7.023 12.071 L11.258 12.071 L11.258 11.431 L7.023 11.431 Z" style="fill:#fff"></path><path d="M12.936 11.205 L11.593 15.002 L10.718 15.002 L10.718 15.705 L12.139 15.705 L13.264 12.408 L16.593 21.767 L17.296 21.767 L13.593 11.205 L12.936 11.205 Z" style="fill:#fff"></path><rect x="13.53" y="0.61" width="25.10" height="0.61" style="fill:#fff"></rect><path d="M17.803 10.971 Q17.240 10.971 16.881 11.174 Q16.522 11.393 16.319 11.674 L16.256 11.674 L16.084 11.065 L15.522 11.065 L15.522 17.908 L16.319 17.908 L16.319 16.236 Q16.319 15.940 16.287 15.658 Q16.287 15.408 16.272 15.252 L16.319 15.252 Q16.522 15.549 16.881 15.768 Q17.240 15.971 17.803 15.971 Q18.709 15.971 19.240 15.346 Q19.803 14.721 19.803 13.471 Q19.803 12.236 19.240 11.611 Q18.694 10.971 17.803 10.971 Z M17.694 11.627 Q18.334 11.627 18.647 12.111 Q18.975 12.580 18.975 13.486 Q18.975 15.315 17.678 15.315 Q16.912 15.315 16.615 14.877 Q16.319 14.424 16.319 13.502 L16.319 13.471 Q16.319 12.580 16.600 12.096 Q16.897 11.627 17.694 11.627 Z" style="fill:#fff"></path><path d="M19.652 11.580 L19.183 12.033 L20.698 13.565 L19.167 15.080 L19.636 15.549 L21.167 14.018 L22.698 15.549 L23.152 15.096 L21.620 13.565 L23.136 12.033 L22.698 11.580 L21.152 13.096 L19.652 11.580 Z" style="fill:#fff"></path><path d="M25.268 10.971 Q24.705 10.971 24.346 11.174 Q23.987 11.393 23.783 11.674 L23.721 11.674 L23.549 11.065 L22.987 11.065 L22.987 17.908 L23.783 17.908 L23.783 16.236 Q23.783 15.940 23.752 15.658 Q23.752 15.408 23.737 15.252 L23.783 15.252 Q23.987 15.549 24.346 15.768 Q24.705 15.971 25.268 15.971 Q26.174 15.971 26.705 15.346 Q27.268 14.721 27.268 13.471 Q27.268 12.236 26.705 11.611 Q26.158 10.971 25.268 10.971 Z M25.158 11.627 Q25.799 11.627 26.112 12.111 Q26.440 12.580 26.440 13.486 Q26.440 15.315 25.143 15.315 Q24.377 15.315 24.080 14.877 Q23.783 14.424 23.783 13.502 L23.783 13.471 Q23.783 12.580 24.065 12.096 Q24.362 11.627 25.158 11.627 Z" style="fill:#fff"></path><path d="M26.507 13.236 L26.507 13.877 L30.741 13.877 L30.741 13.236 L26.507 13.236 Z" style="fill:#fff"></path><path d="M32.951 11.065 L32.951 12.518 L29.873 12.518 L29.873 13.205 L32.905 17.533 L33.717 17.533 L33.717 13.236 L34.655 13.236 L34.655 12.518 L33.717 12.518 L33.717 11.065 L32.951 11.065 Z M30.655 13.236 L32.951 13.236 L32.951 15.252 Q32.951 15.721 32.967 16.049 Q32.983 16.377 32.998 16.674 L32.967 16.674 Q32.889 16.502 32.780 16.315 Q32.670 16.111 32.576 15.971 L30.655 13.236 Z" style="fill:#fff"></path><path d="M34.360 10.971 Q33.704 10.971 33.267 11.315 Q32.829 11.674 32.829 12.408 Q32.829 13.127 33.407 13.518 Q33.970 13.908 35.157 13.940 L35.970 13.971 L35.970 14.252 Q35.970 14.861 35.704 15.096 Q35.454 15.330 34.970 15.330 Q34.595 15.330 34.251 15.221 Q33.907 15.111 33.610 14.955 L33.360 15.549 Q33.689 15.721 34.110 15.846 Q34.548 15.971 35.017 15.971 Q35.892 15.971 36.314 15.580 Q36.735 15.190 36.735 14.346 L36.735 11.065 L36.173 11.065 L36.017 11.752 L35.985 11.752 Q35.657 11.346 35.314 11.158 Q34.970 10.971 34.360 10.971 Z M34.532 11.611 Q35.157 11.611 35.548 11.940 Q35.954 12.283 35.954 12.986 L35.954 13.424 L35.251 13.393 Q34.345 13.361 34.001 13.111 Q33.657 12.861 33.657 12.393 Q33.657 11.986 33.892 11.799 Q34.157 11.611 34.532 11.611 Z" style="fill:#fff"></path><path d="M37.810 10.971 Q37.170 10.971 36.670 11.236 Q36.170 11.502 35.889 12.049 Q35.607 12.596 35.607 13.455 Q35.607 14.346 35.904 14.893 Q36.201 15.455 36.701 15.721 Q37.217 15.971 37.857 15.971 Q38.232 15.971 38.576 15.893 Q38.920 15.830 39.123 15.721 L38.889 15.065 Q38.670 15.143 38.389 15.221 Q38.092 15.283 37.842 15.283 Q36.420 15.283 36.420 13.455 Q36.420 12.580 36.764 12.111 Q37.107 11.658 37.795 11.658 Q38.201 11.658 38.498 11.736 Q38.795 11.815 39.045 11.940 L39.045 11.236 Q38.810 11.111 38.514 11.049 Q38.217 10.971 37.810 10.971 Z" style="fill:#fff"></path><rect x="0.00" y="13.83" width="38.63" height="0.88" style="fill:#fff"></rect><path d="M17.438 22.674 L17.438 23.331 L19.109 25.034 Q19.594 25.518 19.938 25.893 Q20.266 26.268 20.438 26.628 Q20.609 27.003 20.609 27.440 Q20.609 27.971 20.297 28.237 Q19.984 28.518 19.469 28.518 Q19.000 28.518 18.641 28.346 Q18.297 28.190 17.922 27.909 L17.500 28.440 Q17.875 28.753 18.375 28.971 Q18.859 29.190 19.469 29.190 Q20.375 29.190 20.891 28.737 Q21.422 28.284 21.422 27.487 Q21.422 26.971 21.219 26.534 Q21.000 26.096 20.641 25.674 Q20.266 25.237 19.766 24.753 L18.438 23.424 L18.438 23.393 L21.688 23.393 L21.688 22.674 L17.438 22.674 Z" style="fill:#fff"></path><path d="M21.675 22.581 Q21.018 22.581 20.581 22.924 Q20.143 23.284 20.143 24.018 Q20.143 24.737 20.721 25.128 Q21.284 25.518 22.471 25.549 L23.284 25.581 L23.284 25.862 Q23.284 26.471 23.018 26.706 Q22.768 26.940 22.284 26.940 Q21.909 26.940 21.565 26.831 Q21.221 26.721 20.925 26.565 L20.675 27.159 Q21.003 27.331 21.425 27.456 Q21.862 27.581 22.331 27.581 Q23.206 27.581 23.628 27.190 Q24.050 26.799 24.050 25.956 L24.050 22.674 L23.487 22.674 L23.331 23.362 L23.300 23.362 Q22.971 22.956 22.628 22.768 Q22.284 22.581 21.675 22.581 Z M21.846 23.221 Q22.471 23.221 22.862 23.549 Q23.268 23.893 23.268 24.596 L23.268 25.034 L22.565 25.003 Q21.659 24.971 21.315 24.721 Q20.971 24.471 20.971 24.003 Q20.971 23.596 21.206 23.409 Q21.471 23.221 21.846 23.221 Z" style="fill:#fff"></path></g></g><g class="mindmap-node section-0" transform="translate(500.70,226.83)"><path d="M-76.13 13.09 v-26.19 q0,-5.00 5.00,-5.00 h142.27 q5.00,0 5.00,5.00 v31.19 H-76.13 Z" style="fill:#f28e2b;stroke:none"></path><line x1="-76.13" y1="18.09" x2="76.13" y2="18.09" style="stroke:#f28e2b;stroke-width:2;fill:none"></line><text x="0.00" y="0.00" text-anchor="middle" dominant-baseline="central" style="fill:#fff;font-size:14px">Quadratic formula</text></g><g class="mindmap-node section-1" transform="translate(681.61,517.15)"><path d="M-40.00 12.50 v-25.00 q0,-5.00 5.00,-5.00 h70.00 q5.00,0 5.00,5.00 v30.00 H-40.00 Z" style="fill:#e15759;stroke:none"></path><line x1="-40.00" y1="17.50" x2="40.00" y2="17.50" style="stroke:#e15759;stroke-width:2;fill:none"></line><g transform="translate(-8.31,-4.00) scale(1.000)"><path d="M7.641 7.497 Q6.094 7.497 6.094 9.294 L6.094 14.122 L2.906 14.122 L2.906 7.638 L1.688 7.638 L1.688 14.122 L0.172 14.122 L0.172 14.654 L1.172 15.138 L8.781 15.138 L8.781 14.122 L7.312 14.122 L7.312 9.372 Q7.312 8.888 7.484 8.685 Q7.672 8.513 7.953 8.513 Q8.141 8.513 8.297 8.544 Q8.469 8.591 8.562 8.654 L8.562 7.685 Q8.453 7.622 8.203 7.576 Q7.969 7.497 7.641 7.497 Z" style="fill:#fff"></path><path d="M5.692 7.638 L5.692 15.138 L6.708 15.138 L6.849 13.763 L6.896 13.763 Q7.271 14.388 7.833 14.841 Q8.411 15.279 9.192 15.279 Q9.411 15.279 9.646 15.247 Q9.896 15.247 10.083 15.201 L9.927 14.060 Q9.739 14.107 9.521 14.138 Q9.302 14.169 9.114 14.169 Q8.536 14.169 8.036 13.841 Q7.536 13.529 7.224 12.951 Q6.927 12.404 6.927 11.638 L6.927 7.638 L5.692 7.638 Z" style="fill:#fff"></path><path d="M10.263 8.435 L9.528 9.154 L11.903 11.529 L9.513 13.904 L10.247 14.622 L12.606 12.232 L14.997 14.622 L15.700 13.904 L13.325 11.529 L15.685 9.154 L14.997 8.435 L12.591 10.794 L10.263 8.435 Z" style="fill:#fff"></path><path d="M14.982 7.638 L14.982 15.138 L15.998 15.138 L16.139 13.763 L16.186 13.763 Q16.561 14.388 17.123 14.841 Q17.701 15.279 18.482 15.279 Q18.701 15.279 18.936 15.247 Q19.186 15.247 19.373 15.201 L19.217 14.060 Q19.029 14.107 18.811 14.138 Q18.592 14.169 18.404 14.169 Q17.826 14.169 17.326 13.841 Q16.826 13.529 16.514 12.951 Q16.217 12.404 16.217 11.638 L16.217 7.638 L14.982 7.638 Z" style="fill:#fff"></path></g></g><g class="mindmap-node section-1" transform="translate(523.62,416.19)"><path d="M-61.33 13.09 v-26.19 q0,-5.00 5.00,-5.00 h112.66 q5.00,0 5.00,5.00 v31.19 H-61.33 Z" style="fill:#e15759;stroke:none"></path><line x1="-61.33" y1="18.09" x2="61.33" y2="18.09" style="stroke:#e15759;stroke-width:2;fill:none"></line><text x="0.00" y="0.00" text-anchor="middle" dominant-baseline="central" style="fill:#fff;font-size:14px">Area of circle</text></g><g class="mindmap-node section-2" transform="translate(307.82,660.86)"><path d="M-40.00 13.00 v-26.00 q0,-5.00 5.00,-5.00 h70.00 q5.00,0 5.00,5.00 v31.00 H-40.00 Z" style="fill:#76b7b2;stroke:none"></path><line x1="-40.00" y1="18.00" x2="40.00" y2="18.00" style="stroke:#76b7b2;stroke-width:2;fill:none"></line><g transform="translate(-7.91,-8.00) scale(1.000)"><path d="M3.562 15.205 L1.812 20.142 L0.656 20.142 L0.656 21.048 L2.516 21.048 L3.984 16.783 L8.312 28.939 L9.234 28.939 L4.406 15.205 L3.562 15.205 Z" style="fill:#fff"></path><rect x="4.50" y="0.88" width="11.32" height="0.88" style="fill:#fff"></rect><path d="M6.973 18.255 L6.973 19.240 L13.551 19.240 L13.551 18.255 L6.973 18.255 Z" style="fill:#fff"></path><path d="M13.930 14.865 L13.930 21.849 Q13.930 22.458 13.946 22.818 Q13.961 23.177 13.993 23.568 Q13.758 23.365 13.586 23.193 Q13.399 23.036 13.118 22.802 L12.055 21.927 L11.415 22.755 L14.118 24.865 L15.133 24.865 L15.133 14.865 L13.930 14.865 Z" style="fill:#fff"></path></g></g><g class="mindmap-node section-2" transform="translate(357.48,480.06)"><path d="M-65.16 13.09 v-26.19 q0,-5.00 5.00,-5.00 h120.33 q5.00,0 5.00,5.00 v31.19 H-65.16 Z" style="fill:#76b7b2;stroke:none"></path><line x1="-65.16" y1="18.09" x2="65.16" y2="18.09" style="stroke:#76b7b2;stroke-width:2;fill:none"></line><text x="0.00" y="0.00" text-anchor="middle" dominant-baseline="central" style="fill:#fff;font-size:14px">Imaginary unit</text></g><g class="mindmap-node section-3" transform="translate(60.00,349.20)"><path d="M-40.00 12.50 v-25.00 q0,-5.00 5.00,-5.00 h70.00 q5.00,0 5.00,5.00 v30.00 H-40.00 Z" style="fill:#59a14f;stroke:none"></path><line x1="-40.00" y1="17.50" x2="40.00" y2="17.50" style="stroke:#59a14f;stroke-width:2;fill:none"></line><g transform="translate(-8.09,-7.50) scale(1.000)"><path d="M3.844 10.578 Q2.484 10.578 1.625 11.547 Q0.766 12.531 0.766 14.438 Q0.766 16.344 1.609 17.359 Q2.453 18.359 3.969 18.359 Q4.781 18.359 5.328 18.062 Q5.891 17.781 6.266 17.219 L6.344 17.219 Q6.406 17.453 6.531 17.734 Q6.641 18.016 6.797 18.219 L7.750 18.219 Q7.656 17.922 7.578 17.406 Q7.484 16.906 7.453 16.344 Q7.406 15.781 7.406 15.281 L7.406 12.375 Q7.406 11.938 7.578 11.750 Q7.734 11.594 7.984 11.594 Q8.094 11.594 8.219 11.609 Q8.344 11.641 8.406 11.656 L8.406 10.766 Q8.297 10.703 8.078 10.656 Q7.859 10.578 7.609 10.578 Q7.094 10.578 6.766 10.828 Q6.438 11.078 6.281 11.734 L6.188 11.734 Q5.859 11.250 5.328 10.922 Q4.797 10.578 3.844 10.578 Z M4.062 11.594 Q5.219 11.594 5.703 12.266 Q6.188 12.938 6.188 14.375 L6.188 14.453 Q6.188 15.859 5.719 16.578 Q5.281 17.328 4.047 17.328 Q3.031 17.328 2.531 16.578 Q2.047 15.844 2.047 14.422 Q2.047 13.031 2.516 12.312 Q3.016 11.594 4.062 11.594 Z" style="fill:#fff"></path><path d="M5.392 7.359 L5.392 18.203 Q5.392 19.344 5.829 20.047 Q6.267 20.750 7.017 21.094 Q7.767 21.422 8.735 21.422 Q9.673 21.422 10.407 21.125 Q11.142 20.828 11.548 20.234 Q11.954 19.656 11.954 18.750 Q11.954 17.750 11.407 17.156 Q10.860 16.578 9.829 16.406 L9.829 16.344 Q11.110 16.203 11.751 15.516 Q12.407 14.828 12.407 13.562 Q12.407 12.125 11.501 11.344 Q10.595 10.578 8.985 10.578 Q8.173 10.578 7.626 10.703 Q7.079 10.828 6.626 11.062 L6.626 7.359 L5.392 7.359 Z M8.876 11.594 Q10.079 11.594 10.626 12.125 Q11.173 12.672 11.173 13.641 Q11.173 14.750 10.501 15.250 Q9.829 15.766 8.735 15.766 L8.001 15.766 L8.001 16.812 L8.595 16.812 Q9.688 16.812 10.188 17.328 Q10.704 17.844 10.704 18.703 Q10.704 19.562 10.157 19.984 Q9.626 20.406 8.720 20.406 Q8.157 20.406 7.673 20.203 Q7.204 20.016 6.907 19.531 Q6.626 19.031 6.626 18.156 L6.626 12.156 Q7.110 11.906 7.642 11.734 Q8.173 11.594 8.876 11.594 Z" style="fill:#fff"></path><path d="M10.908 7.359 Q10.908 7.750 11.002 8.344 Q11.096 8.922 11.252 9.578 Q11.408 10.234 11.627 10.797 L8.580 18.219 L9.861 18.219 L11.439 14.281 Q11.596 13.922 11.752 13.484 Q11.908 13.031 12.033 12.625 Q12.158 12.219 12.205 11.969 L12.252 11.969 Q12.299 12.188 12.408 12.609 Q12.533 13.031 12.674 13.484 Q12.830 13.922 12.939 14.234 L14.424 18.219 L15.705 18.219 L12.924 10.906 Q12.721 10.344 12.564 9.703 Q12.408 9.047 12.330 8.453 Q12.236 7.828 12.236 7.359 L10.908 7.359 Z" style="fill:#fff"></path><path d="M16.262 10.578 Q15.262 10.578 14.480 10.938 Q13.699 11.312 13.246 12.000 Q12.809 12.719 12.809 13.719 Q12.809 14.609 13.199 15.281 Q13.590 15.953 14.246 16.406 Q14.918 16.859 15.746 17.109 Q14.949 17.547 14.480 18.078 Q14.012 18.625 14.012 19.406 Q14.012 20.359 14.715 20.859 Q15.449 21.359 16.527 21.359 Q17.496 21.359 18.184 21.125 Q18.855 20.875 19.402 20.609 L18.871 19.641 Q18.355 19.938 17.777 20.141 Q17.184 20.344 16.465 20.344 Q15.840 20.344 15.543 20.062 Q15.246 19.781 15.246 19.391 Q15.246 19.047 15.434 18.781 Q15.621 18.516 16.027 18.219 Q16.434 17.938 17.121 17.562 Q18.402 16.875 19.074 16.047 Q19.762 15.234 19.762 14.016 Q19.762 12.344 18.793 11.453 Q17.840 10.578 16.262 10.578 Z M16.262 11.594 Q17.340 11.594 17.918 12.219 Q18.480 12.844 18.480 14.016 Q18.480 14.953 18.012 15.547 Q17.543 16.141 16.715 16.578 Q16.293 16.469 15.824 16.266 Q15.371 16.062 14.980 15.734 Q14.590 15.406 14.340 14.906 Q14.105 14.422 14.105 13.703 Q14.105 12.781 14.668 12.188 Q15.230 11.594 16.262 11.594 Z" style="fill:#fff"></path></g></g><g class="mindmap-node section-3" transform="translate(247.34,341.54)"><path d="M-60.44 13.09 v-26.19 q0,-5.00 5.00,-5.00 h110.88 q5.00,0 5.00,5.00 v31.19 H-60.44 Z" style="fill:#59a14f;stroke:none"></path><line x1="-60.44" y1="18.09" x2="60.44" y2="18.09" style="stroke:#59a14f;stroke-width:2;fill:none"></line><text x="0.00" y="0.00" text-anchor="middle" dominant-baseline="central" style="fill:#fff;font-size:14px">Greek letters</text></g><g class="mindmap-node section-4" transform="translate(234.93,39.50)"><path d="M-40.00 14.50 v-29.00 q0,-5.00 5.00,-5.00 h70.00 q5.00,0 5.00,5.00 v34.00 H-40.00 Z" style="fill:#edc948;stroke:none"></path><line x1="-40.00" y1="19.50" x2="40.00" y2="19.50" style="stroke:#edc948;stroke-width:2;fill:none"></line><g transform="translate(-13.20,-9.50) scale(1.000)"><path d="M2.422 7.095 L2.422 11.579 Q2.422 11.970 2.438 12.204 Q2.438 12.439 2.453 12.689 Q2.312 12.564 2.203 12.454 Q2.078 12.345 1.906 12.204 L1.219 11.642 L0.797 12.173 L2.531 13.517 L3.188 13.517 L3.188 7.095 L2.422 7.095 Z" style="fill:#fff"></path><rect x="0.00" y="9.72" width="2.74" height="0.88" style="fill:#fff"></rect><path d="M0.438 18.565 L0.438 19.221 L2.109 20.924 Q2.594 21.408 2.938 21.783 Q3.266 22.158 3.438 22.518 Q3.609 22.893 3.609 23.330 Q3.609 23.861 3.297 24.127 Q2.984 24.408 2.469 24.408 Q2.000 24.408 1.641 24.236 Q1.297 24.080 0.922 23.799 L0.500 24.330 Q0.875 24.643 1.375 24.861 Q1.859 25.080 2.469 25.080 Q3.375 25.080 3.891 24.627 Q4.422 24.174 4.422 23.377 Q4.422 22.861 4.219 22.424 Q4.000 21.986 3.641 21.565 Q3.266 21.127 2.766 20.643 L1.438 19.315 L1.438 19.283 L4.688 19.283 L4.688 18.565 L0.438 18.565 Z" style="fill:#fff"></path><path d="M9.265 13.237 L9.265 16.127 L6.484 16.127 L6.484 17.112 L9.265 17.112 L9.265 20.018 L10.281 20.018 L10.281 17.112 L13.062 17.112 L13.062 16.127 L10.281 16.127 L10.281 13.237 L9.265 13.237 Z" style="fill:#fff"></path><path d="M13.376 7.095 L13.376 11.579 Q13.376 11.970 13.391 12.204 Q13.391 12.439 13.407 12.689 Q13.266 12.564 13.157 12.454 Q13.032 12.345 12.860 12.204 L12.173 11.642 L11.751 12.173 L13.485 13.517 L14.141 13.517 L14.141 7.095 L13.376 7.095 Z" style="fill:#fff"></path><rect x="10.95" y="9.72" width="2.74" height="0.88" style="fill:#fff"></rect><path d="M13.126 18.471 Q12.626 18.471 12.188 18.549 Q11.751 18.627 11.360 18.830 L11.360 19.565 Q11.766 19.361 12.235 19.252 Q12.704 19.143 13.126 19.143 Q14.001 19.143 14.376 19.471 Q14.766 19.815 14.766 20.408 Q14.766 21.018 14.282 21.268 Q13.813 21.549 12.954 21.549 L12.345 21.549 L12.345 22.221 L12.970 22.221 Q13.766 22.221 14.173 22.549 Q14.579 22.877 14.579 23.440 Q14.579 23.908 14.266 24.158 Q13.954 24.408 13.407 24.408 Q12.891 24.408 12.516 24.268 Q12.157 24.111 11.798 23.877 L11.391 24.408 Q11.735 24.690 12.235 24.877 Q12.751 25.080 13.407 25.080 Q14.407 25.080 14.891 24.627 Q15.391 24.174 15.391 23.486 Q15.391 22.846 15.032 22.455 Q14.673 22.080 14.063 21.955 L14.063 21.908 Q14.829 21.830 15.204 21.424 Q15.595 21.033 15.595 20.393 Q15.595 19.830 15.329 19.393 Q15.063 18.955 14.516 18.721 Q13.985 18.471 13.126 18.471 Z" style="fill:#fff"></path><path d="M17.438 17.518 L17.438 18.518 L24.016 18.518 L24.016 17.518 L17.438 17.518 Z M17.438 14.737 L17.438 15.737 L24.016 15.737 L24.016 14.737 L17.438 14.737 Z" style="fill:#fff"></path><path d="M24.142 6.899 Q23.642 6.899 23.205 6.993 Q22.767 7.086 22.470 7.258 L22.470 8.008 Q22.798 7.805 23.252 7.680 Q23.720 7.571 24.142 7.571 Q24.861 7.571 25.298 7.915 Q25.736 8.258 25.736 8.961 Q25.736 9.586 25.345 9.930 Q24.955 10.274 24.127 10.274 Q23.877 10.274 23.548 10.227 Q23.220 10.180 23.017 10.133 L22.627 10.383 L22.877 13.415 L26.095 13.415 L26.095 12.696 L23.548 12.696 L23.392 10.836 Q23.548 10.868 23.814 10.899 Q24.064 10.930 24.377 10.930 Q25.377 10.930 25.955 10.446 Q26.548 9.946 26.548 9.040 Q26.548 8.040 25.908 7.477 Q25.267 6.899 24.142 6.899 Z" style="fill:#fff"></path><rect x="21.91" y="9.72" width="2.74" height="0.88" style="fill:#fff"></rect><path d="M24.595 18.471 Q23.970 18.471 23.486 18.783 Q22.986 19.080 22.689 19.721 Q22.408 20.346 22.408 21.315 Q22.408 22.002 22.517 22.674 Q22.642 23.346 22.955 23.877 Q23.283 24.440 23.861 24.752 Q24.439 25.080 25.345 25.080 Q25.533 25.080 25.767 25.065 Q26.002 25.049 26.142 25.002 L26.142 24.330 Q25.970 24.377 25.767 24.408 Q25.564 24.440 25.361 24.440 Q24.736 24.440 24.330 24.221 Q23.908 24.018 23.673 23.658 Q23.439 23.299 23.330 22.830 Q23.220 22.361 23.189 21.830 L23.252 21.830 Q23.455 22.143 23.830 22.361 Q24.189 22.580 24.767 22.580 Q25.611 22.580 26.127 22.080 Q26.627 21.565 26.627 20.627 Q26.627 19.627 26.080 19.049 Q25.533 18.471 24.595 18.471 Z M24.580 19.143 Q25.142 19.143 25.502 19.502 Q25.845 19.877 25.845 20.627 Q25.845 21.252 25.533 21.611 Q25.236 21.971 24.611 21.971 Q24.189 21.971 23.877 21.783 Q23.548 21.611 23.377 21.346 Q23.205 21.080 23.205 20.783 Q23.205 20.408 23.361 20.018 Q23.517 19.643 23.814 19.377 Q24.127 19.143 24.580 19.143 Z" style="fill:#fff"></path></g></g><g class="mindmap-node section-4" transform="translate(325.09,203.90)"><path d="M-48.98 13.09 v-26.19 q0,-5.00 5.00,-5.00 h87.95 q5.00,0 5.00,5.00 v31.19 H-48.98 Z" style="fill:#edc948;stroke:none"></path><line x1="-48.98" y1="18.09" x2="48.98" y2="18.09" style="stroke:#edc948;stroke-width:2;fill:none"></line><text x="0.00" y="0.00" text-anchor="middle" dominant-baseline="central" style="fill:#fff;font-size:14px">Fractions</text></g><g class="mindmap-node section-root" transform="translate(397.22,335.42)"><path d="M-40.00 13.09 v-26.19 q0,-5.00 5.00,-5.00 h70.00 q5.00,0 5.00,5.00 v31.19 H-40.00 Z" style="fill:#4e79a7;stroke:none"></path><line x1="-40.00" y1="18.09" x2="40.00" y2="18.09" style="stroke:#4e79a7;stroke-width:2;fill:none"></line><text x="0.00" y="0.00" text-anchor="middle" dominant-baseline="central" style="fill:#fff;font-size:14px">Root</text></g></g></svg>