<?xml version="1.0" encoding="UTF-8"?>
<svg xmlns="http://www.w3.org/2000/svg" viewBox="0 0 741.61 700.89" role="graphics-document document" aria-roledescription="mindmap"><rect x="0.00" y="0.00" width="741.61" height="700.89" style="fill:#fff;stroke:none"></rect><g><path d="M397.22,336.85 Q457.65,290.83 500.70,228.25" style="stroke:#f28e2b;stroke-width:17;fill:none"></path><path d="M500.70,228.25 Q576.23,170.73 630.05,92.51" style="stroke:#f28e2b;stroke-width:14;fill:none"></path><path d="M397.22,336.85 Q453.96,387.34 523.62,417.61" style="stroke:#e15759;stroke-width:17;fill:none"></path><path d="M523.62,417.61 Q594.54,480.73 681.61,518.58" style="stroke:#e15759;stroke-width:14;fill:none"></path><path d="M397.22,336.85 Q365.78,405.99 357.48,481.49" style="stroke:#76b7b2;stroke-width:17;fill:none"></path><path d="M357.48,481.49 Q318.19,567.91 307.82,662.29" style="stroke:#76b7b2;stroke-width:14;fill:none"></path><path d="M397.22,336.85 Q321.79,327.92 247.34,342.97" style="stroke:#59a14f;stroke-width:17;fill:none"></path><path d="M247.34,342.97 Q153.06,331.81 60.00,350.63" style="stroke:#59a14f;stroke-width:14;fill:none"></path><path d="M397.22,336.85 Q371.67,265.32 325.09,205.33" style="stroke:#edc948;stroke-width:17;fill:none"></path><path d="M325.09,205.33 Q293.16,115.91 234.93,40.93" style="stroke:#edc948;stroke-width:14;fill:none"></path></g><g><g class="mindmap-node section-0" transform="translate(630.05,92.51)"><path d="M-47.13 18.29 v-36.58 q0,-5.00 5.00,-5.00 h84.27 q5.00,0 5.00,5.00 v41.58 H-47.13 Z" style="fill:#f28e2b;stroke:none"></path><line x1="-47.13" y1="23.29" x2="47.13" y2="23.29" style="stroke:#f28e2b;stroke-width:2;fill:none"></line><g transform="translate(-27.13,-13.29) scale(1.000)"><g transform="translate(0,-0.735)"><path d="M0.562 10.667 L0.562 9.886 L5.734 9.886 L5.734 10.667 L0.562 10.667 Z" style="fill:#fff"></path><path d="M7.413 13.432 Q6.710 13.432 6.272 13.182 Q5.835 12.932 5.585 12.573 L5.507 12.573 L5.304 13.323 L4.616 13.323 L4.616 4.964 L5.585 4.964 L5.585 6.995 Q5.585 7.370 5.554 7.698 Q5.554 8.026 5.522 8.214 L5.585 8.214 Q5.835 7.839 6.272 7.589 Q6.710 7.323 7.413 7.323 Q8.507 7.323 9.163 8.104 Q9.835 8.854 9.835 10.370 Q9.835 11.886 9.163 12.667 Q8.491 13.432 7.413 13.432 Z M7.272 12.636 Q8.054 12.636 8.444 12.042 Q8.835 11.464 8.835 10.370 Q8.835 8.136 7.241 8.136 Q6.304 8.136 5.944 8.667 Q5.585 9.214 5.585 10.339 L5.585 10.386 Q5.585 11.479 5.929 12.057 Q6.304 12.636 7.272 12.636 Z" style="fill:#fff"></path><path d="M11.580 12.932 L11.580 10.667 L9.393 10.667 L9.393 9.886 L11.580 9.886 L11.580 7.604 L12.377 7.604 L12.377 9.886 L14.564 9.886 L14.564 10.667 L12.377 10.667 L12.377 12.932 L11.580 12.932 Z M9.393 12.932 L9.393 12.151 L14.564 12.151 L14.564 12.932 L9.393 12.932 Z" style="fill:#fff"></path><path d="M16.993 13.446 L15.383 8.883 L14.321 8.883 L14.321 8.039 L16.040 8.039 L17.399 11.992 L21.383 0.758 L22.227 0.758 L17.774 13.446 L16.993 13.446 Z" style="fill:#fff"></path><rect x="18.19" y="0.74" width="33.73" height="0.74" style="fill:#fff"></rect><path d="M23.567 13.787 Q22.863 13.787 22.426 13.537 Q21.988 13.287 21.738 12.927 L21.660 12.927 L21.457 13.677 L20.770 13.677 L20.770 5.318 L21.738 5.318 L21.738 7.349 Q21.738 7.724 21.707 8.052 Q21.707 8.381 21.676 8.568 L21.738 8.568 Q21.988 8.193 22.426 7.943 Q22.863 7.677 23.567 7.677 Q24.660 7.677 25.317 8.459 Q25.988 9.209 25.988 10.724 Q25.988 12.240 25.317 13.021 Q24.645 13.787 23.567 13.787 Z M23.426 12.990 Q24.207 12.990 24.598 12.396 Q24.988 11.818 24.988 10.724 Q24.988 8.490 23.395 8.490 Q22.457 8.490 22.098 9.021 Q21.738 9.568 21.738 10.693 L21.738 10.740 Q21.738 11.834 22.082 12.412 Q22.457 12.990 23.426 12.990 Z" style="fill:#fff"></path><path d="M26.281 13.052 L25.702 12.490 L27.562 10.615 L25.702 8.756 L26.265 8.193 L28.124 10.068 L30.015 8.193 L30.562 8.756 L28.687 10.615 L30.546 12.490 L29.999 13.052 L28.124 11.193 L26.281 13.052 Z" style="fill:#fff"></path><path d="M33.599 13.787 Q32.896 13.787 32.459 13.537 Q32.021 13.287 31.771 12.927 L31.693 12.927 L31.490 13.677 L30.802 13.677 L30.802 5.318 L31.771 5.318 L31.771 7.349 Q31.771 7.724 31.740 8.052 Q31.740 8.381 31.709 8.568 L31.771 8.568 Q32.021 8.193 32.459 7.943 Q32.896 7.677 33.599 7.677 Q34.693 7.677 35.349 8.459 Q36.021 9.209 36.021 10.724 Q36.021 12.240 35.349 13.021 Q34.677 13.787 33.599 13.787 Z M33.459 12.990 Q34.240 12.990 34.631 12.396 Q35.021 11.818 35.021 10.724 Q35.021 8.490 33.427 8.490 Q32.490 8.490 32.131 9.021 Q31.771 9.568 31.771 10.693 L31.771 10.740 Q31.771 11.834 32.115 12.412 Q32.490 12.990 33.459 12.990 Z" style="fill:#fff"></path><path d="M35.579 11.021 L35.579 10.240 L40.751 10.240 L40.751 11.021 L35.579 11.021 Z" style="fill:#fff"></path><path d="M43.898 13.677 L43.898 11.896 L40.132 11.896 L40.132 11.068 L43.820 5.787 L44.820 5.787 L44.820 11.021 L45.976 11.021 L45.976 11.896 L44.820 11.896 L44.820 13.677 L43.898 13.677 Z M41.070 11.021 L43.898 11.021 L43.898 8.552 Q43.898 7.974 43.898 7.584 Q43.929 7.177 43.945 6.818 L43.898 6.818 Q43.820 7.021 43.679 7.271 Q43.554 7.506 43.429 7.677 L41.070 11.021 Z" style="fill:#fff"></path><path d="M45.936 13.787 Q45.139 13.787 44.608 13.365 Q44.076 12.943 44.076 12.037 Q44.076 11.162 44.780 10.693 Q45.467 10.209 46.905 10.162 L47.905 10.131 L47.905 9.771 Q47.905 9.037 47.592 8.756 Q47.280 8.459 46.686 8.459 Q46.233 8.459 45.811 8.599 Q45.389 8.740 45.030 8.912 L44.733 8.193 Q45.123 7.974 45.639 7.834 Q46.170 7.677 46.748 7.677 Q47.826 7.677 48.342 8.162 Q48.858 8.631 48.858 9.662 L48.858 13.677 L48.155 13.677 L47.967 12.834 L47.920 12.834 Q47.530 13.318 47.108 13.552 Q46.686 13.787 45.936 13.787 Z M46.155 13.006 Q46.905 13.006 47.405 12.599 Q47.905 12.177 47.905 11.318 L47.905 10.802 L47.030 10.834 Q45.936 10.865 45.498 11.177 Q45.076 11.490 45.076 12.052 Q45.076 12.537 45.373 12.771 Q45.686 13.006 46.155 13.006 Z" style="fill:#fff"></path><path d="M50.481 13.787 Q49.700 13.787 49.091 13.474 Q48.481 13.146 48.137 12.474 Q47.794 11.802 47.794 10.756 Q47.794 9.677 48.153 8.990 Q48.512 8.302 49.137 7.990 Q49.762 7.677 50.544 7.677 Q50.997 7.677 51.419 7.771 Q51.841 7.865 52.106 7.990 L51.809 8.787 Q51.544 8.693 51.184 8.599 Q50.841 8.521 50.528 8.521 Q48.794 8.521 48.794 10.756 Q48.794 11.818 49.216 12.396 Q49.637 12.959 50.466 12.959 Q50.950 12.959 51.325 12.849 Q51.700 12.756 51.997 12.615 L51.997 13.474 Q51.700 13.615 51.341 13.693 Q50.997 13.787 50.481 13.787 Z" style="fill:#fff"></path><rect x="0.00" y="16.60" width="51.92" height="1.05" style="fill:#fff"></rect><path d="M22.931 27.209 L22.931 26.412 L24.978 24.334 Q25.572 23.741 25.994 23.272 Q26.400 22.803 26.603 22.366 Q26.806 21.912 26.806 21.397 Q26.806 20.741 26.431 20.412 Q26.041 20.069 25.431 20.069 Q24.853 20.069 24.416 20.272 Q23.978 20.459 23.541 20.819 L23.009 20.162 Q23.478 19.787 24.072 19.522 Q24.681 19.241 25.431 19.241 Q26.525 19.241 27.166 19.803 Q27.806 20.350 27.806 21.334 Q27.806 21.944 27.541 22.491 Q27.291 23.022 26.838 23.553 Q26.400 24.069 25.791 24.662 L24.150 26.287 L24.150 26.334 L28.119 26.334 L28.119 27.209 L22.931 27.209 Z" style="fill:#fff"></path><path d="M28.438 27.319 Q27.641 27.319 27.110 26.897 Q26.579 26.475 26.579 25.569 Q26.579 24.694 27.282 24.225 Q27.969 23.741 29.407 23.694 L30.407 23.662 L30.407 23.303 Q30.407 22.569 30.094 22.287 Q29.782 21.991 29.188 21.991 Q28.735 21.991 28.313 22.131 Q27.891 22.272 27.532 22.444 L27.235 21.725 Q27.626 21.506 28.141 21.366 Q28.672 21.209 29.251 21.209 Q30.329 21.209 30.844 21.694 Q31.360 22.162 31.360 23.194 L31.360 27.209 L30.657 27.209 L30.469 26.366 L30.422 26.366 Q30.032 26.850 29.610 27.084 Q29.188 27.319 28.438 27.319 Z M28.657 26.537 Q29.407 26.537 29.907 26.131 Q30.407 25.709 30.407 24.850 L30.407 24.334 L29.532 24.366 Q28.438 24.397 28.001 24.709 Q27.579 25.022 27.579 25.584 Q27.579 26.069 27.876 26.303 Q28.188 26.537 28.657 26.537 Z" style="fill:#fff"></path></g></g></g><g class="mindmap-node section-0" transform="translate(500.70,228.25)"><path d="M-76.13 13.09 v-26.19 q0,-5.00 5.00,-5.00 h142.27 q5.00,0 5.00,5.00 v31.19 H-76.13 Z" style="fill:#f28e2b;stroke:none"></path><line x1="-76.13" y1="18.09" x2="76.13" y2="18.09" style="stroke:#f28e2b;stroke-width:2;fill:none"></line><text x="0.00" y="0.00" text-anchor="middle" dominant-baseline="central" style="fill:#fff;font-size:14px">Quadratic formula</text></g><g class="mindmap-node section-1" transform="translate(681.61,518.58)"><path d="M-40.00 12.50 v-25.00 q0,-5.00 5.00,-5.00 h70.00 q5.00,0 5.00,5.00 v30.00 H-40.00 Z" style="fill:#e15759;stroke:none"></path><line x1="-40.00" y1="17.50" x2="40.00" y2="17.50" style="stroke:#e15759;stroke-width:2;fill:none"></line><g transform="translate(-11.17,-4.45) scale(1.000)"><g transform="translate(0,-0.431)"><path d="M8.734 9.322 Q6.953 9.322 6.953 7.275 L6.953 1.759 L3.328 1.759 L3.328 9.166 L1.938 9.166 L1.938 1.759 L0.188 1.759 L0.188 1.150 L1.344 0.588 L10.031 0.588 L10.031 1.759 L8.359 1.759 L8.359 7.181 Q8.359 7.744 8.562 7.963 Q8.766 8.181 9.094 8.181 Q9.312 8.181 9.484 8.119 Q9.688 8.072 9.797 8.009 L9.797 9.119 Q9.656 9.181 9.375 9.244 Q9.109 9.322 8.734 9.322 Z" style="fill:#fff"></path><path d="M7.414 9.166 L7.414 0.588 L8.570 0.588 L8.726 2.150 L8.789 2.150 Q9.211 1.447 9.867 0.947 Q10.523 0.431 11.414 0.431 Q11.648 0.431 11.930 0.463 Q12.211 0.478 12.430 0.525 L12.242 1.822 Q12.039 1.775 11.789 1.744 Q11.539 1.713 11.320 1.713 Q10.664 1.713 10.086 2.072 Q9.508 2.431 9.164 3.088 Q8.820 3.728 8.820 4.588 L8.820 9.166 L7.414 9.166 Z" style="fill:#fff"></path><path d="M13.458 8.259 L12.630 7.431 L15.333 4.713 L12.614 2.009 L13.442 1.181 L16.145 3.916 L18.880 1.181 L19.676 1.994 L16.958 4.713 L19.661 7.431 L18.864 8.259 L16.130 5.556 L13.458 8.259 Z" style="fill:#fff"></path><path d="M19.900 9.166 L19.900 0.588 L21.056 0.588 L21.212 2.150 L21.275 2.150 Q21.697 1.447 22.353 0.947 Q23.009 0.431 23.900 0.431 Q24.134 0.431 24.415 0.463 Q24.697 0.478 24.915 0.525 L24.728 1.822 Q24.525 1.775 24.275 1.744 Q24.025 1.713 23.806 1.713 Q23.150 1.713 22.572 2.072 Q21.994 2.431 21.650 3.088 Q21.306 3.728 21.306 4.588 L21.306 9.166 L19.900 9.166 Z" style="fill:#fff"></path></g></g></g><g class="mindmap-node section-1" transform="translate(523.62,417.61)"><path d="M-61.33 13.09 v-26.19 q0,-5.00 5.00,-5.00 h112.66 q5.00,0 5.00,5.00 v31.19 H-61.33 Z" style="fill:#e15759;stroke:none"></path><line x1="-61.33" y1="18.09" x2="61.33" y2="18.09" style="stroke:#e15759;stroke-width:2;fill:none"></line><text x="0.00" y="0.00" text-anchor="middle" dominant-baseline="central" style="fill:#fff;font-size:14px">Area of circle</text></g><g class="mindmap-node section-2" transform="translate(307.82,662.29)"><path d="M-40.00 13.60 v-27.20 q0,-5.00 5.00,-5.00 h70.00 q5.00,0 5.00,5.00 v32.20 H-40.00 Z" style="fill:#76b7b2;stroke:none"></path><line x1="-40.00" y1="18.60" x2="40.00" y2="18.60" style="stroke:#76b7b2;stroke-width:2;fill:none"></line><g transform="translate(-10.63,-8.60) scale(1.000)"><g transform="translate(0,-1.050)"><path d="M4.391 18.245 L2.219 12.167 L0.812 12.167 L0.812 11.042 L3.109 11.042 L4.906 16.308 L10.219 1.339 L11.359 1.339 L5.422 18.245 L4.391 18.245 Z" style="fill:#fff"></path><rect x="6.05" y="1.05" width="15.21" height="1.05" style="fill:#fff"></rect><path d="M9.218 14.163 L9.218 13.022 L16.750 13.022 L16.750 14.163 L9.218 14.163 Z" style="fill:#fff"></path><path d="M17.958 18.038 L17.958 10.053 Q17.958 9.366 17.974 8.944 Q18.005 8.538 18.036 8.084 Q17.771 8.319 17.567 8.522 Q17.364 8.694 17.036 8.959 L15.817 9.959 L15.083 9.006 L18.177 6.616 L19.349 6.616 L19.349 18.038 L17.958 18.038 Z" style="fill:#fff"></path></g></g></g><g class="mindmap-node section-2" transform="translate(357.48,481.49)"><path d="M-65.16 13.09 v-26.19 q0,-5.00 5.00,-5.00 h120.33 q5.00,0 5.00,5.00 v31.19 H-65.16 Z" style="fill:#76b7b2;stroke:none"></path><line x1="-65.16" y1="18.09" x2="65.16" y2="18.09" style="stroke:#76b7b2;stroke-width:2;fill:none"></line><text x="0.00" y="0.00" text-anchor="middle" dominant-baseline="central" style="fill:#fff;font-size:14px">Imaginary unit</text></g><g class="mindmap-node section-3" transform="translate(60.00,350.63)"><path d="M-40.00 13.04 v-26.08 q0,-5.00 5.00,-5.00 h70.00 q5.00,0 5.00,5.00 v31.08 H-40.00 Z" style="fill:#59a14f;stroke:none"></path><line x1="-40.00" y1="18.04" x2="40.00" y2="18.04" style="stroke:#59a14f;stroke-width:2;fill:none"></line><g transform="translate(-10.88,-8.04) scale(1.000)"><g transform="translate(0,-0.628)"><path d="M4.406 13.019 Q2.828 13.019 1.859 11.925 Q0.875 10.800 0.875 8.613 Q0.875 6.425 1.844 5.284 Q2.797 4.128 4.531 4.128 Q5.469 4.128 6.094 4.456 Q6.734 4.784 7.156 5.441 L7.250 5.441 Q7.328 5.159 7.453 4.847 Q7.578 4.519 7.766 4.284 L8.859 4.284 Q8.750 4.644 8.656 5.222 Q8.562 5.784 8.516 6.425 Q8.469 7.066 8.469 7.644 L8.469 10.972 Q8.469 11.472 8.656 11.675 Q8.844 11.878 9.125 11.878 Q9.250 11.878 9.391 11.831 Q9.531 11.800 9.594 11.784 L9.594 12.816 Q9.484 12.878 9.234 12.941 Q8.969 13.019 8.703 13.019 Q8.109 13.019 7.734 12.738 Q7.359 12.441 7.188 11.706 L7.078 11.706 Q6.703 12.253 6.094 12.644 Q5.484 13.019 4.406 13.019 Z M4.641 11.847 Q5.969 11.847 6.516 11.097 Q7.078 10.331 7.078 8.691 L7.078 8.597 Q7.078 6.988 6.547 6.159 Q6.031 5.316 4.625 5.316 Q3.453 5.316 2.891 6.159 Q2.344 7.003 2.344 8.628 Q2.344 10.222 2.875 11.034 Q3.438 11.847 4.641 11.847 Z" style="fill:#fff"></path><path d="M7.010 16.706 L7.010 4.300 Q7.010 3.003 7.510 2.206 Q8.010 1.394 8.869 1.003 Q9.728 0.628 10.838 0.628 Q11.900 0.628 12.744 0.972 Q13.572 1.316 14.041 1.988 Q14.510 2.659 14.510 3.675 Q14.510 4.831 13.885 5.503 Q13.260 6.175 12.088 6.363 L12.088 6.425 Q13.541 6.597 14.275 7.378 Q15.025 8.159 15.025 9.613 Q15.025 11.269 13.994 12.144 Q12.963 13.019 11.119 13.019 Q10.197 13.019 9.557 12.878 Q8.932 12.738 8.416 12.472 L8.416 16.706 L7.010 16.706 Z M10.994 11.878 Q12.369 11.878 12.994 11.269 Q13.619 10.644 13.619 9.519 Q13.619 8.253 12.853 7.675 Q12.088 7.081 10.838 7.081 L9.994 7.081 L9.994 5.909 L10.682 5.909 Q11.916 5.909 12.494 5.316 Q13.072 4.722 13.072 3.738 Q13.072 2.753 12.447 2.269 Q11.838 1.784 10.807 1.784 Q10.166 1.784 9.619 2.019 Q9.072 2.238 8.744 2.800 Q8.416 3.363 8.416 4.363 L8.416 11.222 Q8.978 11.503 9.572 11.691 Q10.182 11.878 10.994 11.878 Z" style="fill:#fff"></path><path d="M14.182 16.706 Q14.182 16.253 14.276 15.581 Q14.385 14.909 14.573 14.159 Q14.760 13.425 14.995 12.769 L11.526 4.284 L12.979 4.284 L14.791 8.784 Q14.963 9.206 15.151 9.706 Q15.323 10.222 15.463 10.691 Q15.604 11.144 15.651 11.441 L15.713 11.441 Q15.760 11.175 15.901 10.706 Q16.041 10.222 16.198 9.706 Q16.370 9.206 16.510 8.847 L18.198 4.284 L19.651 4.284 L16.495 12.659 Q16.245 13.300 16.073 14.034 Q15.901 14.769 15.807 15.456 Q15.698 16.159 15.698 16.706 L14.182 16.706 Z" style="fill:#fff"></path><path d="M21.004 13.019 Q19.863 13.019 18.972 12.613 Q18.082 12.191 17.566 11.394 Q17.066 10.581 17.066 9.441 Q17.066 8.409 17.504 7.644 Q17.957 6.878 18.707 6.363 Q19.472 5.831 20.410 5.566 Q19.519 5.050 18.972 4.441 Q18.426 3.816 18.426 2.941 Q18.426 1.831 19.254 1.284 Q20.082 0.706 21.316 0.706 Q22.410 0.706 23.191 0.972 Q23.988 1.253 24.613 1.566 L24.004 2.675 Q23.410 2.331 22.738 2.097 Q22.066 1.847 21.254 1.847 Q20.519 1.847 20.191 2.191 Q19.847 2.503 19.847 2.956 Q19.847 3.347 20.066 3.644 Q20.269 3.956 20.738 4.284 Q21.222 4.613 22.004 5.034 Q23.457 5.816 24.222 6.769 Q25.004 7.691 25.004 9.081 Q25.004 11.003 23.910 12.019 Q22.816 13.019 21.004 13.019 Z M21.004 11.847 Q22.238 11.847 22.894 11.144 Q23.551 10.425 23.551 9.097 Q23.551 8.019 23.004 7.347 Q22.472 6.675 21.535 6.175 Q21.035 6.284 20.504 6.519 Q20.004 6.753 19.551 7.128 Q19.097 7.503 18.816 8.081 Q18.551 8.644 18.551 9.456 Q18.551 10.503 19.176 11.175 Q19.832 11.847 21.004 11.847 Z" style="fill:#fff"></path></g></g></g><g class="mindmap-node section-3" transform="translate(247.34,342.97)"><path d="M-60.44 13.09 v-26.19 q0,-5.00 5.00,-5.00 h110.88 q5.00,0 5.00,5.00 v31.19 H-60.44 Z" style="fill:#59a14f;stroke:none"></path><line x1="-60.44" y1="18.09" x2="60.44" y2="18.09" style="stroke:#59a14f;stroke-width:2;fill:none"></line><text x="0.00" y="0.00" text-anchor="middle" dominant-baseline="central" style="fill:#fff;font-size:14px">Greek letters</text></g><g class="mindmap-node section-4" transform="translate(234.93,40.93)"><path d="M-40.00 15.93 v-31.86 q0,-5.00 5.00,-5.00 h70.00 q5.00,0 5.00,5.00 v36.86 H-40.00 Z" style="fill:#edc948;stroke:none"></path><line x1="-40.00" y1="20.93" x2="40.00" y2="20.93" style="stroke:#edc948;stroke-width:2;fill:none"></line><g transform="translate(-17.74,-10.93) scale(1.000)"><g transform="translate(0,-0.532)"><path d="M2.953 8.514 L2.953 3.029 Q2.953 2.545 2.969 2.264 Q2.984 1.982 3.000 1.670 Q2.828 1.842 2.688 1.967 Q2.547 2.092 2.328 2.279 L1.484 2.951 L0.984 2.311 L3.109 0.654 L3.906 0.654 L3.906 8.514 L2.953 8.514 Z" style="fill:#fff"></path><rect x="0.00" y="11.66" width="3.68" height="1.05" style="fill:#fff"></rect><path d="M0.531 22.277 L0.531 21.481 L2.578 19.402 Q3.172 18.809 3.594 18.340 Q4.000 17.871 4.203 17.434 Q4.406 16.981 4.406 16.465 Q4.406 15.809 4.031 15.481 Q3.641 15.137 3.031 15.137 Q2.453 15.137 2.016 15.340 Q1.578 15.527 1.141 15.887 L0.609 15.231 Q1.078 14.856 1.672 14.590 Q2.281 14.309 3.031 14.309 Q4.125 14.309 4.766 14.871 Q5.406 15.418 5.406 16.402 Q5.406 17.012 5.141 17.559 Q4.891 18.090 4.438 18.621 Q4.000 19.137 3.391 19.731 L1.750 21.356 L1.750 21.402 L5.719 21.402 L5.719 22.277 L0.531 22.277 Z" style="fill:#fff"></path><path d="M11.749 14.706 L11.749 11.409 L8.561 11.409 L8.561 10.268 L11.749 10.268 L11.749 6.972 L12.905 6.972 L12.905 10.268 L16.092 10.268 L16.092 11.409 L12.905 11.409 L12.905 14.706 L11.749 14.706 Z" style="fill:#fff"></path><path d="M17.675 8.514 L17.675 3.029 Q17.675 2.545 17.691 2.264 Q17.706 1.982 17.722 1.670 Q17.550 1.842 17.410 1.967 Q17.269 2.092 17.050 2.279 L16.206 2.951 L15.706 2.311 L17.831 0.654 L18.628 0.654 L18.628 8.514 L17.675 8.514 Z" style="fill:#fff"></path><rect x="14.72" y="11.66" width="3.68" height="1.05" style="fill:#fff"></rect><path d="M17.378 22.387 Q16.753 22.387 16.222 22.293 Q15.706 22.199 15.222 21.965 L15.222 21.059 Q15.706 21.293 16.285 21.434 Q16.863 21.574 17.378 21.574 Q18.441 21.574 18.910 21.168 Q19.378 20.746 19.378 20.027 Q19.378 19.293 18.785 18.965 Q18.222 18.637 17.175 18.637 L16.410 18.637 L16.410 17.809 L17.191 17.809 Q18.160 17.809 18.644 17.402 Q19.160 16.996 19.160 16.324 Q19.160 15.762 18.769 15.449 Q18.378 15.121 17.722 15.121 Q17.081 15.121 16.628 15.309 Q16.191 15.496 15.738 15.793 L15.253 15.121 Q15.675 14.793 16.300 14.559 Q16.925 14.309 17.706 14.309 Q18.941 14.309 19.535 14.871 Q20.144 15.418 20.144 16.262 Q20.144 17.059 19.706 17.527 Q19.269 17.981 18.519 18.137 L18.519 18.184 Q19.456 18.293 19.925 18.777 Q20.394 19.262 20.394 20.043 Q20.394 20.731 20.066 21.262 Q19.753 21.793 19.081 22.090 Q18.425 22.387 17.378 22.387 Z" style="fill:#fff"></path><path d="M23.283 9.815 L23.283 8.675 L30.815 8.675 L30.815 9.815 L23.283 9.815 Z M23.283 13.003 L23.283 11.862 L30.815 11.862 L30.815 13.003 L23.283 13.003 Z" style="fill:#fff"></path><path d="M32.178 8.501 Q31.569 8.501 31.022 8.391 Q30.507 8.282 30.132 8.079 L30.132 7.157 Q30.538 7.407 31.100 7.547 Q31.663 7.672 32.178 7.672 Q33.053 7.672 33.585 7.266 Q34.116 6.844 34.116 5.985 Q34.116 5.219 33.647 4.797 Q33.178 4.391 32.147 4.391 Q31.835 4.391 31.444 4.438 Q31.053 4.501 30.803 4.547 L30.319 4.251 L30.616 0.532 L34.553 0.532 L34.553 1.422 L31.444 1.422 L31.257 3.688 Q31.444 3.657 31.772 3.610 Q32.085 3.579 32.475 3.579 Q33.678 3.579 34.397 4.172 Q35.116 4.782 35.116 5.876 Q35.116 7.110 34.335 7.813 Q33.553 8.501 32.178 8.501 Z" style="fill:#fff"></path><rect x="29.44" y="11.66" width="3.68" height="1.05" style="fill:#fff"></rect><path d="M32.725 22.387 Q31.975 22.387 31.366 22.012 Q30.757 21.637 30.397 20.871 Q30.053 20.106 30.053 18.918 Q30.053 18.074 30.194 17.262 Q30.350 16.434 30.725 15.777 Q31.132 15.106 31.835 14.715 Q32.538 14.309 33.647 14.309 Q33.882 14.309 34.147 14.340 Q34.444 14.356 34.616 14.418 L34.616 15.231 Q34.413 15.168 34.163 15.137 Q33.928 15.106 33.663 15.106 Q32.913 15.106 32.397 15.356 Q31.897 15.606 31.600 16.059 Q31.319 16.496 31.178 17.059 Q31.053 17.637 31.022 18.277 L31.085 18.277 Q31.335 17.902 31.788 17.637 Q32.241 17.356 32.944 17.356 Q33.960 17.356 34.585 17.981 Q35.225 18.606 35.225 19.746 Q35.225 20.981 34.538 21.684 Q33.866 22.387 32.725 22.387 Z M32.710 21.574 Q33.397 21.574 33.835 21.137 Q34.257 20.684 34.257 19.746 Q34.257 18.996 33.882 18.559 Q33.507 18.121 32.741 18.121 Q32.225 18.121 31.835 18.340 Q31.460 18.543 31.241 18.871 Q31.022 19.215 31.022 19.559 Q31.022 20.027 31.210 20.512 Q31.397 20.965 31.772 21.277 Q32.147 21.574 32.710 21.574 Z" style="fill:#fff"></path></g></g></g><g class="mindmap-node section-4" transform="translate(325.09,205.33)"><path d="M-48.98 13.09 v-26.19 q0,-5.00 5.00,-5.00 h87.95 q5.00,0 5.00,5.00 v31.19 H-48.98 Z" style="fill:#edc948;stroke:none"></path><line x1="-48.98" y1="18.09" x2="48.98" y2="18.09" style="stroke:#edc948;stroke-width:2;fill:none"></line><text x="0.00" y="0.00" text-anchor="middle" dominant-baseline="central" style="fill:#fff;font-size:14px">Fractions</text></g><g class="mindmap-node section-root" transform="translate(397.22,336.85)"><path d="M-40.00 13.09 v-26.19 q0,-5.00 5.00,-5.00 h70.00 q5.00,0 5.00,5.00 v31.19 H-40.00 Z" style="fill:#4e79a7;stroke:none"></path><line x1="-40.00" y1="18.09" x2="40.00" y2="18.09" style="stroke:#4e79a7;stroke-width:2;fill:none"></line><text x="0.00" y="0.00" text-anchor="middle" dominant-baseline="central" style="fill:#fff;font-size:14px">Root</text></g></g></svg>