<?xml version="1.0" encoding="UTF-8"?>
<svg xmlns="http://www.w3.org/2000/svg" viewBox="0 0 741.61 697.86" role="graphics-document document" aria-roledescription="mindmap"><rect x="0.00" y="0.00" width="741.61" height="697.86" style="fill:#fff;stroke:none"></rect><g><path d="M397.22,334.92 Q457.65,288.90 500.70,226.33" style="stroke:#f28e2b;stroke-width:17;fill:none"></path><path d="M500.70,226.33 Q576.23,168.80 630.05,90.59" style="stroke:#f28e2b;stroke-width:14;fill:none"></path><path d="M397.22,334.92 Q453.96,385.41 523.62,415.69" style="stroke:#e15759;stroke-width:17;fill:none"></path><path d="M523.62,415.69 Q594.54,478.81 681.61,516.65" style="stroke:#e15759;stroke-width:14;fill:none"></path><path d="M397.22,334.92 Q365.78,404.06 357.48,479.56" style="stroke:#76b7b2;stroke-width:17;fill:none"></path><path d="M357.48,479.56 Q318.19,565.99 307.82,660.36" style="stroke:#76b7b2;stroke-width:14;fill:none"></path><path d="M397.22,334.92 Q321.79,325.99 247.34,341.04" style="stroke:#59a14f;stroke-width:17;fill:none"></path><path d="M247.34,341.04 Q153.06,329.89 60.00,348.70" style="stroke:#59a14f;stroke-width:14;fill:none"></path><path d="M397.22,334.92 Q371.67,263.39 325.09,203.40" style="stroke:#edc948;stroke-width:17;fill:none"></path><path d="M325.09,203.40 Q293.16,113.99 234.93,39.00" style="stroke:#edc948;stroke-width:14;fill:none"></path></g><g><g class="mindmap-node section-0" transform="translate(630.05,90.59)"><path d="M-41.65 17.50 v-35.00 q0,-5.00 5.00,-5.00 h73.29 q5.00,0 5.00,5.00 v40.00 H-41.65 Z" style="fill:#f28e2b;stroke:none"></path><line x1="-41.65" y1="22.50" x2="41.65" y2="22.50" style="stroke:#f28e2b;stroke-width:2;fill:none"></line><g transform="translate(-21.65,-12.50) scale(1.000)"><path d="M6.484 13.250 C6.484 13.438 6.312 13.438 6.188 13.438 L0.797 13.438 C0.672 13.438 0.500 13.438 0.500 13.250 C0.500 13.063 0.672 13.063 0.812 13.063 L6.188 13.063 C6.312 13.063 6.484 13.063 6.484 13.250 Z" style="fill:#fff"></path><path d="M6.281 12.938 C6.281 14.094 5.406 14.985 4.375 14.985 C3.672 14.985 3.281 14.563 3.140 14.391 L3.140 17.250 L1.843 17.141 L1.843 16.875 C2.468 16.875 2.547 16.813 2.547 16.360 L2.547 11.000 L2.765 11.000 L3.093 11.563 C3.234 11.344 3.609 10.907 4.281 10.907 C5.343 10.907 6.281 11.782 6.281 12.938 Z M5.531 12.954 C5.531 12.625 5.515 12.079 5.250 11.672 C5.062 11.391 4.718 11.094 4.234 11.094 C3.828 11.094 3.515 11.313 3.297 11.641 C3.172 11.844 3.172 11.860 3.172 12.032 L3.172 13.875 C3.172 14.047 3.172 14.063 3.265 14.204 C3.625 14.704 4.109 14.782 4.328 14.782 C4.734 14.782 5.062 14.547 5.281 14.204 C5.515 13.829 5.531 13.329 5.531 12.954 Z" style="fill:#fff"></path><path d="M13.115 11.188 C13.115 11.360 12.943 11.360 12.818 11.360 L10.318 11.360 L10.318 13.813 L12.818 13.813 C12.943 13.813 13.115 13.813 13.115 14.000 C13.115 14.172 12.943 14.172 12.818 14.172 L10.318 14.172 L10.318 16.704 C10.318 16.829 10.318 17.000 10.130 17.000 C9.958 17.000 9.958 16.829 9.958 16.704 L9.958 14.172 L7.427 14.172 C7.302 14.172 7.130 14.172 7.130 14.000 C7.130 13.813 7.302 13.813 7.427 13.813 L9.958 13.813 L9.958 11.360 L7.427 11.360 C7.302 11.360 7.130 11.360 7.130 11.188 C7.130 11.000 7.302 11.000 7.427 11.000 L12.818 11.000 C12.943 11.000 13.115 11.000 13.115 11.188 Z" style="fill:#fff"></path><path d="M19.227 22.571 C19.227 22.837 18.993 22.884 18.805 22.884 L17.462 22.884 C16.930 22.884 16.930 22.525 16.837 22.087 L14.446 12.993 C14.399 12.790 14.321 12.587 14.290 12.400 L13.462 16.571 L11.837 14.071 L11.759 13.900 L11.962 13.665 L12.868 15.071 C12.915 14.665 13.040 14.275 13.102 13.868 L13.602 11.415 L13.774 10.556 C13.790 10.478 13.790 10.306 13.899 10.290 L14.040 10.290 C14.368 10.290 14.415 10.493 14.493 10.759 L15.071 13.009 L17.368 21.790 C17.415 21.962 17.477 22.118 17.493 22.275 L18.962 22.275 C19.102 22.290 19.227 22.431 19.227 22.571 Z" style="fill:#fff"></path><rect x="14.93" y="0.61" width="26.61" height="0.61" style="fill:#fff"></rect><path d="M20.847 12.900 C20.847 14.056 19.972 14.947 18.941 14.947 C18.238 14.947 17.847 14.525 17.706 14.353 L17.706 17.212 L16.409 17.103 L16.409 16.837 C17.034 16.837 17.113 16.775 17.113 16.322 L17.113 10.963 L17.331 10.963 L17.659 11.525 C17.800 11.306 18.175 10.869 18.847 10.869 C19.909 10.869 20.847 11.744 20.847 12.900 Z M20.097 12.916 C20.097 12.588 20.081 12.041 19.816 11.634 C19.628 11.353 19.284 11.056 18.800 11.056 C18.394 11.056 18.081 11.275 17.863 11.603 C17.738 11.806 17.738 11.822 17.738 11.994 L17.738 13.838 C17.738 14.009 17.738 14.025 17.831 14.166 C18.191 14.666 18.675 14.744 18.894 14.744 C19.300 14.744 19.628 14.509 19.847 14.166 C20.081 13.791 20.097 13.291 20.097 12.916 Z" style="fill:#fff"></path><path d="M26.806 11.103 C26.931 11.228 26.821 11.338 26.727 11.431 L24.946 13.213 L26.727 14.994 C26.806 15.088 26.931 15.197 26.806 15.322 C26.681 15.447 26.556 15.338 26.477 15.244 L24.696 13.478 L22.915 15.259 C22.821 15.353 22.712 15.463 22.571 15.338 C22.446 15.213 22.571 15.088 22.665 14.994 L24.446 13.213 L22.665 11.431 C22.571 11.338 22.446 11.228 22.571 11.103 C22.712 10.978 22.821 11.088 22.915 11.181 L24.696 12.963 L26.477 11.181 C26.571 11.088 26.681 10.978 26.806 11.103 Z" style="fill:#fff"></path><path d="M30.653 12.900 C30.653 14.056 29.778 14.947 28.746 14.947 C28.043 14.947 27.653 14.525 27.512 14.353 L27.512 17.212 L26.215 17.103 L26.215 16.837 C26.840 16.837 26.918 16.775 26.918 16.322 L26.918 10.963 L27.137 10.963 L27.465 11.525 C27.606 11.306 27.981 10.869 28.653 10.869 C29.715 10.869 30.653 11.744 30.653 12.900 Z M29.903 12.916 C29.903 12.588 29.887 12.041 29.621 11.634 C29.434 11.353 29.090 11.056 28.606 11.056 C28.200 11.056 27.887 11.275 27.668 11.603 C27.543 11.806 27.543 11.822 27.543 11.994 L27.543 13.838 C27.543 14.009 27.543 14.025 27.637 14.166 C27.996 14.666 28.481 14.744 28.700 14.744 C29.106 14.744 29.434 14.509 29.653 14.166 C29.887 13.791 29.903 13.291 29.903 12.916 Z" style="fill:#fff"></path><path d="M36.704 13.213 C36.704 13.400 36.532 13.400 36.407 13.400 L31.016 13.400 C30.891 13.400 30.719 13.400 30.719 13.213 C30.719 13.025 30.891 13.025 31.032 13.025 L36.407 13.025 C36.532 13.025 36.704 13.025 36.704 13.213 Z" style="fill:#fff"></path><path d="M37.640 12.447 L37.640 12.728 L36.750 12.728 L36.750 16.822 C36.750 16.994 36.750 17.056 36.594 17.056 C36.515 17.056 36.500 17.056 36.422 16.947 L33.656 12.728 L33.656 12.447 L36.047 12.447 L36.047 11.666 C36.047 11.338 36.031 11.244 35.375 11.244 L35.172 11.244 L35.172 10.963 C35.547 10.994 36.015 10.994 36.390 10.994 C36.765 10.994 37.250 10.994 37.625 10.963 L37.625 11.244 L37.422 11.244 C36.765 11.244 36.750 11.338 36.750 11.666 L36.750 12.447 L37.640 12.447 Z M36.109 12.728 L33.906 12.728 L36.109 16.087 L36.109 12.728 Z" style="fill:#fff"></path><path d="M40.142 11.759 L40.142 12.275 L39.924 12.275 L39.924 11.759 C39.924 11.244 39.689 11.181 39.596 11.181 C39.299 11.181 39.267 11.588 39.267 11.634 L39.267 13.431 C39.267 13.822 39.267 14.166 38.939 14.494 C38.596 14.853 38.142 14.994 37.705 14.994 C36.971 14.994 36.346 14.572 36.346 13.978 C36.346 13.713 36.533 13.556 36.767 13.556 C37.017 13.556 37.174 13.728 37.174 13.963 C37.174 14.072 37.127 14.369 36.721 14.384 C36.955 14.697 37.408 14.791 37.689 14.791 C38.127 14.791 38.642 14.447 38.642 13.650 L38.642 13.306 C38.189 13.291 37.549 13.259 36.986 12.994 C36.314 12.681 36.080 12.213 36.080 11.822 C36.080 11.088 36.955 10.869 37.533 10.869 C38.127 10.869 38.533 11.228 38.705 11.650 C38.736 11.291 38.986 10.916 39.408 10.916 C39.596 10.916 40.142 11.041 40.142 11.759 Z M38.642 12.228 C38.642 11.369 38.002 11.056 37.596 11.056 C37.142 11.056 36.783 11.369 36.783 11.822 C36.783 12.322 37.158 13.072 38.642 13.119 L38.642 12.228 Z" style="fill:#fff"></path><path d="M41.926 12.041 C41.926 12.119 41.832 12.119 41.816 12.119 C41.722 12.119 41.707 12.088 41.691 12.041 C41.426 11.197 40.847 11.088 40.519 11.088 C40.035 11.088 39.238 11.478 39.238 12.931 C39.238 14.384 39.988 14.775 40.457 14.775 C40.535 14.775 41.113 14.759 41.426 14.431 C41.051 14.416 41.004 14.134 41.004 14.025 C41.004 13.791 41.160 13.603 41.410 13.603 C41.644 13.603 41.832 13.759 41.832 14.025 C41.832 14.650 41.144 14.994 40.457 14.994 C39.332 14.994 38.504 14.025 38.504 12.900 C38.504 11.759 39.394 10.869 40.426 10.869 C41.644 10.869 41.926 11.947 41.926 12.041 Z" style="fill:#fff"></path><rect x="0.00" y="16.08" width="41.54" height="0.88" style="fill:#fff"></rect><path d="M22.047 25.909 L21.812 25.909 C21.766 25.643 21.703 25.252 21.625 25.112 C21.562 25.034 20.969 25.034 20.766 25.034 L19.141 25.034 L20.094 25.971 C21.500 27.205 22.047 27.690 22.047 28.596 C22.047 29.627 21.234 30.346 20.141 30.346 C19.109 30.346 18.453 29.518 18.453 28.705 C18.453 28.205 18.906 28.205 18.922 28.205 C19.078 28.205 19.391 28.315 19.391 28.690 C19.391 28.924 19.234 29.159 18.922 29.159 C18.844 29.159 18.828 29.159 18.797 29.143 C19.016 29.721 19.500 30.065 20.016 30.065 C20.828 30.065 21.219 29.330 21.219 28.596 C21.219 27.877 20.766 27.159 20.281 26.612 L18.547 24.674 C18.453 24.580 18.453 24.565 18.453 24.346 L21.781 24.346 L22.047 25.909 Z" style="fill:#fff"></path><path d="M24.736 25.143 L24.736 25.659 L24.518 25.659 L24.518 25.143 C24.518 24.627 24.283 24.565 24.189 24.565 C23.893 24.565 23.861 24.971 23.861 25.018 L23.861 26.815 C23.861 27.205 23.861 27.549 23.533 27.877 C23.189 28.237 22.736 28.377 22.299 28.377 C21.564 28.377 20.939 27.955 20.939 27.362 C20.939 27.096 21.127 26.940 21.361 26.940 C21.611 26.940 21.768 27.112 21.768 27.346 C21.768 27.455 21.721 27.752 21.314 27.768 C21.549 28.080 22.002 28.174 22.283 28.174 C22.721 28.174 23.236 27.830 23.236 27.034 L23.236 26.690 C22.783 26.674 22.143 26.643 21.580 26.377 C20.908 26.065 20.674 25.596 20.674 25.205 C20.674 24.471 21.549 24.252 22.127 24.252 C22.721 24.252 23.127 24.612 23.299 25.034 C23.330 24.674 23.580 24.299 24.002 24.299 C24.189 24.299 24.736 24.424 24.736 25.143 Z M23.236 25.612 C23.236 24.752 22.596 24.440 22.189 24.440 C21.736 24.440 21.377 24.752 21.377 25.205 C21.377 25.705 21.752 26.455 23.236 26.502 L23.236 25.612 Z" style="fill:#fff"></path></g></g><g class="mindmap-node section-0" transform="translate(500.70,226.33)"><path d="M-76.13 13.09 v-26.19 q0,-5.00 5.00,-5.00 h142.27 q5.00,0 5.00,5.00 v31.19 H-76.13 Z" style="fill:#f28e2b;stroke:none"></path><line x1="-76.13" y1="18.09" x2="76.13" y2="18.09" style="stroke:#f28e2b;stroke-width:2;fill:none"></line><text x="0.00" y="0.00" text-anchor="middle" dominant-baseline="central" style="fill:#fff;font-size:14px">Quadratic formula</text></g><g class="mindmap-node section-1" transform="translate(681.61,516.65)"><path d="M-40.00 12.50 v-25.00 q0,-5.00 5.00,-5.00 h70.00 q5.00,0 5.00,5.00 v30.00 H-40.00 Z" style="fill:#e15759;stroke:none"></path><line x1="-40.00" y1="17.50" x2="40.00" y2="17.50" style="stroke:#e15759;stroke-width:2;fill:none"></line><g transform="translate(-10.63,-7.00) scale(1.000)"><path d="M6.203 7.281 C6.203 7.281 6.203 7.344 6.125 7.531 L1.375 20.688 C1.312 20.844 1.266 21.000 1.062 21.000 C0.906 21.000 0.781 20.875 0.781 20.719 C0.781 20.719 0.781 20.656 0.859 20.469 L5.609 7.312 C5.672 7.156 5.719 7.000 5.922 7.000 C6.078 7.000 6.203 7.125 6.203 7.281 Z" style="fill:#fff"></path><path d="M10.788 15.828 C10.788 16.281 10.351 16.688 9.757 16.688 C8.726 16.688 8.226 15.750 8.038 15.141 L8.038 16.688 L6.085 16.531 L6.085 16.094 C7.069 16.094 7.179 16.000 7.179 15.312 L7.179 11.562 C7.179 10.938 7.022 10.938 6.085 10.938 L6.085 10.500 L7.679 10.547 C8.241 10.547 8.897 10.547 9.460 10.500 L9.460 10.938 L9.163 10.938 C8.132 10.938 8.101 11.094 8.101 11.594 L8.101 13.750 C8.101 15.141 8.694 16.375 9.757 16.375 C9.851 16.375 9.882 16.375 9.913 16.359 C9.866 16.359 9.585 16.188 9.585 15.812 C9.585 15.422 9.882 15.219 10.194 15.219 C10.444 15.219 10.788 15.391 10.788 15.828 Z" style="fill:#fff"></path><path d="M17.972 7.281 C17.972 7.281 17.972 7.344 17.894 7.531 L13.144 20.688 C13.081 20.844 13.034 21.000 12.831 21.000 C12.675 21.000 12.550 20.875 12.550 20.719 C12.550 20.719 12.550 20.656 12.628 20.469 L17.378 7.312 C17.441 7.156 17.488 7.000 17.691 7.000 C17.847 7.000 17.972 7.125 17.972 7.281 Z" style="fill:#fff"></path><path d="M23.675 15.828 C23.675 16.281 23.238 16.688 22.644 16.688 C21.613 16.688 21.113 15.750 20.925 15.141 L20.925 16.688 L18.972 16.531 L18.972 16.094 C19.956 16.094 20.066 16.000 20.066 15.312 L20.066 11.562 C20.066 10.938 19.910 10.938 18.972 10.938 L18.972 10.500 L20.566 10.547 C21.128 10.547 21.785 10.547 22.347 10.500 L22.347 10.938 L22.050 10.938 C21.019 10.938 20.988 11.094 20.988 11.594 L20.988 13.750 C20.988 15.141 21.581 16.375 22.644 16.375 C22.738 16.375 22.769 16.375 22.800 16.359 C22.753 16.359 22.472 16.188 22.472 15.812 C22.472 15.422 22.769 15.219 23.081 15.219 C23.331 15.219 23.675 15.391 23.675 15.828 Z" style="fill:#fff"></path></g></g><g class="mindmap-node section-1" transform="translate(523.62,415.69)"><path d="M-61.33 13.09 v-26.19 q0,-5.00 5.00,-5.00 h112.66 q5.00,0 5.00,5.00 v31.19 H-61.33 Z" style="fill:#e15759;stroke:none"></path><line x1="-61.33" y1="18.09" x2="61.33" y2="18.09" style="stroke:#e15759;stroke-width:2;fill:none"></line><text x="0.00" y="0.00" text-anchor="middle" dominant-baseline="central" style="fill:#fff;font-size:14px">Area of circle</text></g><g class="mindmap-node section-2" transform="translate(307.82,660.36)"><path d="M-40.00 12.50 v-25.00 q0,-5.00 5.00,-5.00 h70.00 q5.00,0 5.00,5.00 v30.00 H-40.00 Z" style="fill:#76b7b2;stroke:none"></path><line x1="-40.00" y1="17.50" x2="40.00" y2="17.50" style="stroke:#76b7b2;stroke-width:2;fill:none"></line><g transform="translate(-6.48,-7.50) scale(1.000)"><path d="M8.359 24.267 C8.359 24.548 8.094 24.595 7.906 24.595 L6.469 24.595 C5.906 24.595 5.906 24.204 5.797 23.736 L3.250 14.048 C3.203 13.845 3.125 13.611 3.094 13.408 L2.188 17.876 L0.469 15.204 L0.391 15.001 L0.609 14.767 L1.562 16.267 C1.609 15.845 1.750 15.408 1.828 14.970 L2.359 12.361 L2.531 11.454 C2.547 11.361 2.547 11.189 2.672 11.173 L2.812 11.173 C3.172 11.173 3.219 11.376 3.297 11.658 L3.922 14.064 L6.375 23.439 C6.422 23.611 6.484 23.767 6.500 23.954 L8.062 23.954 C8.219 23.970 8.359 24.111 8.359 24.267 Z" style="fill:#fff"></path><rect x="3.76" y="0.88" width="9.19" height="0.88" style="fill:#fff"></rect><path d="M9.372 16.815 L9.372 17.628 L5.669 17.628 L5.669 16.815 L9.372 16.815 Z" style="fill:#fff"></path><path d="M13.648 14.190 L13.648 14.628 L13.211 14.628 C11.945 14.628 11.898 14.784 11.898 15.299 L11.898 23.143 C11.898 23.487 11.898 23.518 11.586 23.518 C10.711 22.612 9.477 22.612 9.039 22.612 L9.039 22.190 C9.320 22.190 10.148 22.190 10.867 22.549 L10.867 15.299 C10.867 14.799 10.820 14.628 9.570 14.628 L9.117 14.628 L9.117 14.190 C9.602 14.237 10.820 14.237 11.383 14.237 C11.945 14.237 13.164 14.237 13.648 14.190 Z" style="fill:#fff"></path></g></g><g class="mindmap-node section-2" transform="translate(357.48,479.56)"><path d="M-65.16 13.09 v-26.19 q0,-5.00 5.00,-5.00 h120.33 q5.00,0 5.00,5.00 v31.19 H-65.16 Z" style="fill:#76b7b2;stroke:none"></path><line x1="-65.16" y1="18.09" x2="65.16" y2="18.09" style="stroke:#76b7b2;stroke-width:2;fill:none"></line><text x="0.00" y="0.00" text-anchor="middle" dominant-baseline="central" style="fill:#fff;font-size:14px">Imaginary unit</text></g><g class="mindmap-node section-3" transform="translate(60.00,348.70)"><path d="M-40.00 12.50 v-25.00 q0,-5.00 5.00,-5.00 h70.00 q5.00,0 5.00,5.00 v30.00 H-40.00 Z" style="fill:#59a14f;stroke:none"></path><line x1="-40.00" y1="17.50" x2="40.00" y2="17.50" style="stroke:#59a14f;stroke-width:2;fill:none"></line><g transform="translate(-10.25,-7.00) scale(1.000)"><path d="M6.203 7.281 C6.203 7.281 6.203 7.344 6.125 7.531 L1.375 20.688 C1.312 20.844 1.266 21.000 1.062 21.000 C0.906 21.000 0.781 20.875 0.781 20.719 C0.781 20.719 0.781 20.656 0.859 20.469 L5.609 7.312 C5.672 7.156 5.719 7.000 5.922 7.000 C6.078 7.000 6.203 7.125 6.203 7.281 Z" style="fill:#fff"></path><path d="M11.897 7.281 C11.897 7.281 11.897 7.344 11.819 7.531 L7.069 20.688 C7.007 20.844 6.960 21.000 6.757 21.000 C6.601 21.000 6.476 20.875 6.476 20.719 C6.476 20.719 6.476 20.656 6.554 20.469 L11.304 7.312 C11.366 7.156 11.413 7.000 11.616 7.000 C11.772 7.000 11.897 7.125 11.897 7.281 Z" style="fill:#fff"></path><path d="M17.592 7.281 C17.592 7.281 17.592 7.344 17.514 7.531 L12.764 20.688 C12.701 20.844 12.654 21.000 12.451 21.000 C12.295 21.000 12.170 20.875 12.170 20.719 C12.170 20.719 12.170 20.656 12.248 20.469 L16.998 7.312 C17.061 7.156 17.107 7.000 17.311 7.000 C17.467 7.000 17.592 7.125 17.592 7.281 Z" style="fill:#fff"></path><path d="M23.286 7.281 C23.286 7.281 23.286 7.344 23.208 7.531 L18.458 20.688 C18.396 20.844 18.349 21.000 18.146 21.000 C17.989 21.000 17.864 20.875 17.864 20.719 C17.864 20.719 17.864 20.656 17.942 20.469 L22.692 7.312 C22.755 7.156 22.802 7.000 23.005 7.000 C23.161 7.000 23.286 7.125 23.286 7.281 Z" style="fill:#fff"></path></g></g><g class="mindmap-node section-3" transform="translate(247.34,341.04)"><path d="M-60.44 13.09 v-26.19 q0,-5.00 5.00,-5.00 h110.88 q5.00,0 5.00,5.00 v31.19 H-60.44 Z" style="fill:#59a14f;stroke:none"></path><line x1="-60.44" y1="18.09" x2="60.44" y2="18.09" style="stroke:#59a14f;stroke-width:2;fill:none"></line><text x="0.00" y="0.00" text-anchor="middle" dominant-baseline="central" style="fill:#fff;font-size:14px">Greek letters</text></g><g class="mindmap-node section-4" transform="translate(234.93,39.00)"><path d="M-40.00 14.00 v-28.00 q0,-5.00 5.00,-5.00 h70.00 q5.00,0 5.00,5.00 v33.00 H-40.00 Z" style="fill:#edc948;stroke:none"></path><line x1="-40.00" y1="19.00" x2="40.00" y2="19.00" style="stroke:#edc948;stroke-width:2;fill:none"></line><g transform="translate(-16.08,-9.00) scale(1.000)"><path d="M3.766 6.738 L3.766 7.019 L3.484 7.019 C2.672 7.019 2.641 7.113 2.641 7.456 L2.641 12.503 C2.641 12.706 2.641 12.738 2.438 12.738 C1.875 12.159 1.094 12.159 0.797 12.159 L0.797 11.878 C0.984 11.878 1.516 11.878 1.984 12.113 L1.984 7.456 C1.984 7.128 1.953 7.019 1.141 7.019 L0.859 7.019 L0.859 6.738 C1.172 6.769 1.953 6.769 2.312 6.769 C2.672 6.769 3.453 6.769 3.766 6.738 Z" style="fill:#fff"></path><rect x="0.00" y="9.36" width="2.39" height="0.88" style="fill:#fff"></rect><path d="M4.047 19.196 L3.812 19.196 C3.766 18.930 3.703 18.539 3.625 18.399 C3.562 18.321 2.969 18.321 2.766 18.321 L1.141 18.321 L2.094 19.258 C3.500 20.492 4.047 20.977 4.047 21.883 C4.047 22.914 3.234 23.633 2.141 23.633 C1.109 23.633 0.453 22.805 0.453 21.992 C0.453 21.492 0.906 21.492 0.922 21.492 C1.078 21.492 1.391 21.602 1.391 21.977 C1.391 22.211 1.234 22.446 0.922 22.446 C0.844 22.446 0.828 22.446 0.797 22.430 C1.016 23.008 1.500 23.352 2.016 23.352 C2.828 23.352 3.219 22.617 3.219 21.883 C3.219 21.164 2.766 20.446 2.281 19.899 L0.547 17.961 C0.453 17.867 0.453 17.852 0.453 17.633 L3.781 17.633 L4.047 19.196 Z" style="fill:#fff"></path><path d="M16.513 15.488 C16.513 15.769 16.247 15.769 16.044 15.769 L12.138 15.769 L12.138 19.691 C12.138 19.878 12.138 20.144 11.872 20.144 C11.591 20.144 11.591 19.878 11.591 19.691 L11.591 15.769 L7.669 15.769 C7.466 15.769 7.200 15.769 7.200 15.488 C7.200 15.206 7.466 15.206 7.669 15.206 L11.591 15.206 L11.591 11.284 C11.591 11.097 11.591 10.831 11.872 10.831 C12.138 10.831 12.138 11.097 12.138 11.284 L12.138 15.206 L16.044 15.206 C16.247 15.206 16.513 15.206 16.513 15.488 Z" style="fill:#fff"></path><path d="M17.779 6.738 L17.779 7.019 L17.498 7.019 C16.686 7.019 16.654 7.113 16.654 7.456 L16.654 12.503 C16.654 12.706 16.654 12.738 16.451 12.738 C15.889 12.159 15.107 12.159 14.811 12.159 L14.811 11.878 C14.998 11.878 15.529 11.878 15.998 12.113 L15.998 7.456 C15.998 7.128 15.967 7.019 15.154 7.019 L14.873 7.019 L14.873 6.738 C15.186 6.769 15.967 6.769 16.326 6.769 C16.686 6.769 17.467 6.769 17.779 6.738 Z" style="fill:#fff"></path><rect x="14.01" y="9.36" width="2.39" height="0.88" style="fill:#fff"></rect><path d="M18.123 19.164 C18.123 19.914 17.561 20.617 16.623 20.805 C17.357 21.039 17.889 21.680 17.889 22.383 C17.889 23.117 17.092 23.633 16.232 23.633 C15.326 23.633 14.639 23.086 14.639 22.399 C14.639 22.102 14.826 21.930 15.092 21.930 C15.373 21.930 15.545 22.133 15.545 22.399 C15.545 22.852 15.123 22.852 14.998 22.852 C15.279 23.289 15.873 23.399 16.186 23.399 C16.561 23.399 17.061 23.211 17.061 22.399 C17.061 22.289 17.045 21.758 16.811 21.367 C16.529 20.930 16.232 20.914 15.998 20.899 C15.936 20.899 15.717 20.867 15.654 20.867 C15.576 20.867 15.514 20.852 15.514 20.758 C15.514 20.664 15.576 20.664 15.732 20.664 L16.123 20.664 C16.873 20.664 17.201 20.055 17.201 19.164 C17.201 17.946 16.576 17.680 16.186 17.680 C15.795 17.680 15.123 17.836 14.811 18.367 C15.123 18.321 15.404 18.524 15.404 18.867 C15.404 19.196 15.154 19.367 14.889 19.367 C14.686 19.367 14.389 19.242 14.389 18.852 C14.389 18.024 15.232 17.430 16.217 17.430 C17.311 17.430 18.123 18.258 18.123 19.164 Z" style="fill:#fff"></path><path d="M30.526 16.847 C30.526 17.128 30.261 17.128 30.058 17.128 L21.683 17.128 C21.479 17.128 21.214 17.128 21.214 16.847 C21.214 16.566 21.479 16.566 21.698 16.566 L30.058 16.566 C30.261 16.566 30.526 16.566 30.526 16.847 Z M30.526 14.128 C30.526 14.409 30.261 14.409 30.058 14.409 L21.698 14.409 C21.479 14.409 21.214 14.409 21.214 14.128 C21.214 13.847 21.479 13.847 21.683 13.847 L30.058 13.847 C30.261 13.847 30.526 13.847 30.526 14.128 Z" style="fill:#fff"></path><path d="M32.074 8.333 C32.074 9.396 31.324 10.302 30.355 10.302 C29.934 10.302 29.543 10.161 29.215 9.849 L29.215 11.599 C29.402 11.536 29.699 11.474 29.980 11.474 C31.090 11.474 31.715 12.302 31.715 12.411 C31.715 12.474 31.684 12.521 31.621 12.521 C31.621 12.521 31.605 12.521 31.559 12.489 C31.371 12.411 30.934 12.224 30.324 12.224 C29.965 12.224 29.559 12.286 29.137 12.474 C29.059 12.505 29.027 12.505 29.027 12.505 C28.934 12.505 28.934 12.427 28.934 12.286 L28.934 9.630 C28.934 9.458 28.934 9.396 29.059 9.396 C29.121 9.396 29.137 9.411 29.184 9.474 C29.277 9.614 29.605 10.099 30.340 10.099 C30.809 10.099 31.027 9.692 31.105 9.521 C31.246 9.192 31.262 8.849 31.262 8.396 C31.262 8.083 31.262 7.536 31.059 7.161 C30.840 6.802 30.496 6.567 30.090 6.567 C29.434 6.567 28.918 7.052 28.762 7.583 C28.793 7.567 28.824 7.567 28.918 7.567 C29.215 7.567 29.371 7.786 29.371 8.005 C29.371 8.224 29.215 8.442 28.918 8.442 C28.793 8.442 28.480 8.380 28.480 7.974 C28.480 7.192 29.105 6.317 30.105 6.317 C31.152 6.317 32.074 7.192 32.074 8.333 Z" style="fill:#fff"></path><rect x="28.03" y="9.36" width="2.39" height="0.88" style="fill:#fff"></rect><path d="M32.137 19.477 C32.137 20.617 31.340 21.477 30.340 21.477 C29.730 21.477 29.402 21.024 29.215 20.586 L29.215 20.805 C29.215 23.071 30.324 23.399 30.793 23.399 C31.012 23.399 31.387 23.352 31.590 23.039 C31.449 23.039 31.090 23.039 31.090 22.633 C31.090 22.352 31.309 22.227 31.496 22.227 C31.652 22.227 31.918 22.305 31.918 22.649 C31.918 23.196 31.512 23.633 30.777 23.633 C29.621 23.633 28.402 22.461 28.402 20.477 C28.402 18.071 29.449 17.430 30.293 17.430 C31.293 17.430 32.137 18.274 32.137 19.477 Z M31.324 19.477 C31.324 19.039 31.324 18.602 31.184 18.274 C30.902 17.727 30.496 17.680 30.293 17.680 C29.715 17.680 29.449 18.227 29.402 18.367 C29.230 18.789 29.230 19.508 29.230 19.664 C29.230 20.367 29.527 21.274 30.324 21.274 C30.480 21.274 30.887 21.274 31.168 20.711 C31.324 20.383 31.324 19.914 31.324 19.477 Z" style="fill:#fff"></path></g></g><g class="mindmap-node section-4" transform="translate(325.09,203.40)"><path d="M-48.98 13.09 v-26.19 q0,-5.00 5.00,-5.00 h87.95 q5.00,0 5.00,5.00 v31.19 H-48.98 Z" style="fill:#edc948;stroke:none"></path><line x1="-48.98" y1="18.09" x2="48.98" y2="18.09" style="stroke:#edc948;stroke-width:2;fill:none"></line><text x="0.00" y="0.00" text-anchor="middle" dominant-baseline="central" style="fill:#fff;font-size:14px">Fractions</text></g><g class="mindmap-node section-root" transform="translate(397.22,334.92)"><path d="M-40.00 13.09 v-26.19 q0,-5.00 5.00,-5.00 h70.00 q5.00,0 5.00,5.00 v31.19 H-40.00 Z" style="fill:#4e79a7;stroke:none"></path><line x1="-40.00" y1="18.09" x2="40.00" y2="18.09" style="stroke:#4e79a7;stroke-width:2;fill:none"></line><text x="0.00" y="0.00" text-anchor="middle" dominant-baseline="central" style="fill:#fff;font-size:14px">Root</text></g></g></svg>