<?xml version="1.0" encoding="UTF-8"?>
<svg xmlns="http://www.w3.org/2000/svg" viewBox="0 0 884.55 697.86" role="graphics-document document" aria-roledescription="mindmap"><rect x="0.00" y="0.00" width="884.55" height="697.86" style="fill:#fff;stroke:none"></rect><g><path d="M468.22,334.92 Q528.65,288.90 571.70,226.33" style="stroke:#f28e2b;stroke-width:17;fill:none"></path><path d="M571.70,226.33 Q647.23,168.80 701.05,90.59" style="stroke:#f28e2b;stroke-width:14;fill:none"></path><path d="M468.22,334.92 Q524.96,385.41 594.62,415.69" style="stroke:#e15759;stroke-width:17;fill:none"></path><path d="M594.62,415.69 Q665.54,478.81 752.61,516.65" style="stroke:#e15759;stroke-width:14;fill:none"></path><path d="M468.22,334.92 Q436.78,404.06 428.48,479.56" style="stroke:#76b7b2;stroke-width:17;fill:none"></path><path d="M428.48,479.56 Q389.19,565.99 378.82,660.36" style="stroke:#76b7b2;stroke-width:14;fill:none"></path><path d="M468.22,334.92 Q392.79,325.99 318.34,341.04" style="stroke:#59a14f;stroke-width:17;fill:none"></path><path d="M318.34,341.04 Q224.06,329.89 131.00,348.70" style="stroke:#59a14f;stroke-width:14;fill:none"></path><path d="M468.22,334.92 Q442.67,263.39 396.09,203.40" style="stroke:#edc948;stroke-width:17;fill:none"></path><path d="M396.09,203.40 Q364.16,113.99 305.93,39.00" style="stroke:#edc948;stroke-width:14;fill:none"></path></g><g><g class="mindmap-node section-0" transform="translate(701.05,90.59)"><path d="M-163.50 13.00 v-26.00 q0,-5.00 5.00,-5.00 h317.00 q5.00,0 5.00,5.00 v31.00 H-163.50 Z" style="fill:#f28e2b;stroke:none"></path><line x1="-163.50" y1="18.00" x2="163.50" y2="18.00" style="stroke:#f28e2b;stroke-width:2;fill:none"></line><text x="0.00" y="0.00" text-anchor="middle" dominant-baseline="central" style="fill:#fff;font-size:14px">\frac{-b \pm \sqrt{b \times b - 4ac}}{2a}</text></g><g class="mindmap-node section-0" transform="translate(571.70,226.33)"><path d="M-76.13 13.09 v-26.19 q0,-5.00 5.00,-5.00 h142.27 q5.00,0 5.00,5.00 v31.19 H-76.13 Z" style="fill:#f28e2b;stroke:none"></path><line x1="-76.13" y1="18.09" x2="76.13" y2="18.09" style="stroke:#f28e2b;stroke-width:2;fill:none"></line><text x="0.00" y="0.00" text-anchor="middle" dominant-baseline="central" style="fill:#fff;font-size:14px">Quadratic formula</text></g><g class="mindmap-node section-1" transform="translate(752.61,516.65)"><path d="M-69.00 13.00 v-26.00 q0,-5.00 5.00,-5.00 h128.00 q5.00,0 5.00,5.00 v31.00 H-69.00 Z" style="fill:#e15759;stroke:none"></path><line x1="-69.00" y1="18.00" x2="69.00" y2="18.00" style="stroke:#e15759;stroke-width:2;fill:none"></line><text x="0.00" y="0.00" text-anchor="middle" dominant-baseline="central" style="fill:#fff;font-size:14px">\pi r \times r</text></g><g class="mindmap-node section-1" transform="translate(594.62,415.69)"><path d="M-61.33 13.09 v-26.19 q0,-5.00 5.00,-5.00 h112.66 q5.00,0 5.00,5.00 v31.19 H-61.33 Z" style="fill:#e15759;stroke:none"></path><line x1="-61.33" y1="18.09" x2="61.33" y2="18.09" style="stroke:#e15759;stroke-width:2;fill:none"></line><text x="0.00" y="0.00" text-anchor="middle" dominant-baseline="central" style="fill:#fff;font-size:14px">Area of circle</text></g><g class="mindmap-node section-2" transform="translate(378.82,660.36)"><path d="M-40.00 12.50 v-25.00 q0,-5.00 5.00,-5.00 h70.00 q5.00,0 5.00,5.00 v30.00 H-40.00 Z" style="fill:#76b7b2;stroke:none"></path><line x1="-40.00" y1="17.50" x2="40.00" y2="17.50" style="stroke:#76b7b2;stroke-width:2;fill:none"></line><g transform="translate(-6.48,-7.50) scale(1.000)"><path d="M8.359 13.608 C8.359 13.889 8.094 13.936 7.906 13.936 L6.469 13.936 C5.906 13.936 5.906 13.546 5.797 13.077 L3.250 3.389 C3.203 3.186 3.125 2.952 3.094 2.749 L2.188 7.217 L0.469 4.546 L0.391 4.342 L0.609 4.108 L1.562 5.608 C1.609 5.186 1.750 4.749 1.828 4.311 L2.359 1.702 L2.531 0.796 C2.547 0.702 2.547 0.530 2.672 0.514 L2.812 0.514 C3.172 0.514 3.219 0.717 3.297 0.999 L3.922 3.405 L6.375 12.780 C6.422 12.952 6.484 13.108 6.500 13.296 L8.062 13.296 C8.219 13.311 8.359 13.452 8.359 13.608 Z" style="fill:#fff"></path><rect x="3.76" y="13.25" width="9.19" height="0.88" style="fill:#fff"></rect><path d="M9.372 3.435 L9.372 4.247 L5.669 4.247 L5.669 3.435 L9.372 3.435 Z" style="fill:#fff"></path><path d="M13.648 0.810 L13.648 1.247 L13.211 1.247 C11.945 1.247 11.898 1.404 11.898 1.919 L11.898 9.763 C11.898 10.107 11.898 10.138 11.586 10.138 C10.711 9.232 9.477 9.232 9.039 9.232 L9.039 8.810 C9.320 8.810 10.148 8.810 10.867 9.169 L10.867 1.919 C10.867 1.419 10.820 1.247 9.570 1.247 L9.117 1.247 L9.117 0.810 C9.602 0.857 10.820 0.857 11.383 0.857 C11.945 0.857 13.164 0.857 13.648 0.810 Z" style="fill:#fff"></path></g></g><g class="mindmap-node section-2" transform="translate(428.48,479.56)"><path d="M-65.16 13.09 v-26.19 q0,-5.00 5.00,-5.00 h120.33 q5.00,0 5.00,5.00 v31.19 H-65.16 Z" style="fill:#76b7b2;stroke:none"></path><line x1="-65.16" y1="18.09" x2="65.16" y2="18.09" style="stroke:#76b7b2;stroke-width:2;fill:none"></line><text x="0.00" y="0.00" text-anchor="middle" dominant-baseline="central" style="fill:#fff;font-size:14px">Imaginary unit</text></g><g class="mindmap-node section-3" transform="translate(131.00,348.70)"><path d="M-111.00 13.00 v-26.00 q0,-5.00 5.00,-5.00 h212.00 q5.00,0 5.00,5.00 v31.00 H-111.00 Z" style="fill:#59a14f;stroke:none"></path><line x1="-111.00" y1="18.00" x2="111.00" y2="18.00" style="stroke:#59a14f;stroke-width:2;fill:none"></line><text x="0.00" y="0.00" text-anchor="middle" dominant-baseline="central" style="fill:#fff;font-size:14px">\alpha \beta \gamma \delta</text></g><g class="mindmap-node section-3" transform="translate(318.34,341.04)"><path d="M-60.44 13.09 v-26.19 q0,-5.00 5.00,-5.00 h110.88 q5.00,0 5.00,5.00 v31.19 H-60.44 Z" style="fill:#59a14f;stroke:none"></path><line x1="-60.44" y1="18.09" x2="60.44" y2="18.09" style="stroke:#59a14f;stroke-width:2;fill:none"></line><text x="0.00" y="0.00" text-anchor="middle" dominant-baseline="central" style="fill:#fff;font-size:14px">Greek letters</text></g><g class="mindmap-node section-4" transform="translate(305.93,39.00)"><path d="M-40.00 14.00 v-28.00 q0,-5.00 5.00,-5.00 h70.00 q5.00,0 5.00,5.00 v33.00 H-40.00 Z" style="fill:#edc948;stroke:none"></path><line x1="-40.00" y1="19.00" x2="40.00" y2="19.00" style="stroke:#edc948;stroke-width:2;fill:none"></line><g transform="translate(-16.08,-9.00) scale(1.000)"><path d="M3.766 11.262 L3.766 11.544 L3.484 11.544 C2.672 11.544 2.641 11.637 2.641 11.981 L2.641 17.028 C2.641 17.231 2.641 17.262 2.438 17.262 C1.875 16.684 1.094 16.684 0.797 16.684 L0.797 16.403 C0.984 16.403 1.516 16.403 1.984 16.637 L1.984 11.981 C1.984 11.653 1.953 11.544 1.141 11.544 L0.859 11.544 L0.859 11.262 C1.172 11.294 1.953 11.294 2.312 11.294 C2.672 11.294 3.453 11.294 3.766 11.262 Z" style="fill:#fff"></path><rect x="0.00" y="7.76" width="2.39" height="0.88" style="fill:#fff"></rect><path d="M4.047 1.929 L3.812 1.929 C3.766 1.664 3.703 1.273 3.625 1.133 C3.562 1.054 2.969 1.054 2.766 1.054 L1.141 1.054 L2.094 1.992 C3.500 3.226 4.047 3.711 4.047 4.617 C4.047 5.648 3.234 6.367 2.141 6.367 C1.109 6.367 0.453 5.539 0.453 4.726 C0.453 4.226 0.906 4.226 0.922 4.226 C1.078 4.226 1.391 4.336 1.391 4.711 C1.391 4.945 1.234 5.179 0.922 5.179 C0.844 5.179 0.828 5.179 0.797 5.164 C1.016 5.742 1.500 6.086 2.016 6.086 C2.828 6.086 3.219 5.351 3.219 4.617 C3.219 3.898 2.766 3.179 2.281 2.633 L0.547 0.695 C0.453 0.601 0.453 0.586 0.453 0.367 L3.781 0.367 L4.047 1.929 Z" style="fill:#fff"></path><path d="M16.513 9.512 C16.513 9.794 16.247 9.794 16.044 9.794 L12.138 9.794 L12.138 13.716 C12.138 13.903 12.138 14.169 11.872 14.169 C11.591 14.169 11.591 13.903 11.591 13.716 L11.591 9.794 L7.669 9.794 C7.466 9.794 7.200 9.794 7.200 9.512 C7.200 9.231 7.466 9.231 7.669 9.231 L11.591 9.231 L11.591 5.309 C11.591 5.122 11.591 4.856 11.872 4.856 C12.138 4.856 12.138 5.122 12.138 5.309 L12.138 9.231 L16.044 9.231 C16.247 9.231 16.513 9.231 16.513 9.512 Z" style="fill:#fff"></path><path d="M17.779 11.262 L17.779 11.544 L17.498 11.544 C16.686 11.544 16.654 11.637 16.654 11.981 L16.654 17.028 C16.654 17.231 16.654 17.262 16.451 17.262 C15.889 16.684 15.107 16.684 14.811 16.684 L14.811 16.403 C14.998 16.403 15.529 16.403 15.998 16.637 L15.998 11.981 C15.998 11.653 15.967 11.544 15.154 11.544 L14.873 11.544 L14.873 11.262 C15.186 11.294 15.967 11.294 16.326 11.294 C16.686 11.294 17.467 11.294 17.779 11.262 Z" style="fill:#fff"></path><rect x="14.01" y="7.76" width="2.39" height="0.88" style="fill:#fff"></rect><path d="M18.123 1.898 C18.123 2.648 17.561 3.351 16.623 3.539 C17.357 3.773 17.889 4.414 17.889 5.117 C17.889 5.851 17.092 6.367 16.232 6.367 C15.326 6.367 14.639 5.820 14.639 5.133 C14.639 4.836 14.826 4.664 15.092 4.664 C15.373 4.664 15.545 4.867 15.545 5.133 C15.545 5.586 15.123 5.586 14.998 5.586 C15.279 6.023 15.873 6.133 16.186 6.133 C16.561 6.133 17.061 5.945 17.061 5.133 C17.061 5.023 17.045 4.492 16.811 4.101 C16.529 3.664 16.232 3.648 15.998 3.633 C15.936 3.633 15.717 3.601 15.654 3.601 C15.576 3.601 15.514 3.586 15.514 3.492 C15.514 3.398 15.576 3.398 15.732 3.398 L16.123 3.398 C16.873 3.398 17.201 2.789 17.201 1.898 C17.201 0.679 16.576 0.414 16.186 0.414 C15.795 0.414 15.123 0.570 14.811 1.101 C15.123 1.054 15.404 1.258 15.404 1.601 C15.404 1.929 15.154 2.101 14.889 2.101 C14.686 2.101 14.389 1.976 14.389 1.586 C14.389 0.758 15.232 0.164 16.217 0.164 C17.311 0.164 18.123 0.992 18.123 1.898 Z" style="fill:#fff"></path><path d="M30.526 10.872 C30.526 11.153 30.261 11.153 30.058 11.153 L21.683 11.153 C21.479 11.153 21.214 11.153 21.214 10.872 C21.214 10.591 21.479 10.591 21.698 10.591 L30.058 10.591 C30.261 10.591 30.526 10.591 30.526 10.872 M30.526 8.153 C30.526 8.434 30.261 8.434 30.058 8.434 L21.698 8.434 C21.479 8.434 21.214 8.434 21.214 8.153 C21.214 7.872 21.479 7.872 21.683 7.872 L30.058 7.872 C30.261 7.872 30.526 7.872 30.526 8.153 Z" style="fill:#fff"></path><path d="M32.074 13.292 C32.074 14.354 31.324 15.261 30.355 15.261 C29.934 15.261 29.543 15.120 29.215 14.808 L29.215 16.558 C29.402 16.495 29.699 16.433 29.980 16.433 C31.090 16.433 31.715 17.261 31.715 17.370 C31.715 17.433 31.684 17.479 31.621 17.479 C31.621 17.479 31.605 17.479 31.559 17.448 C31.371 17.370 30.934 17.183 30.324 17.183 C29.965 17.183 29.559 17.245 29.137 17.433 C29.059 17.464 29.027 17.464 29.027 17.464 C28.934 17.464 28.934 17.386 28.934 17.245 L28.934 14.589 C28.934 14.417 28.934 14.354 29.059 14.354 C29.121 14.354 29.137 14.370 29.184 14.433 C29.277 14.573 29.605 15.058 30.340 15.058 C30.809 15.058 31.027 14.651 31.105 14.479 C31.246 14.151 31.262 13.808 31.262 13.354 C31.262 13.042 31.262 12.495 31.059 12.120 C30.840 11.761 30.496 11.526 30.090 11.526 C29.434 11.526 28.918 12.011 28.762 12.542 C28.793 12.526 28.824 12.526 28.918 12.526 C29.215 12.526 29.371 12.745 29.371 12.964 C29.371 13.183 29.215 13.401 28.918 13.401 C28.793 13.401 28.480 13.339 28.480 12.933 C28.480 12.151 29.105 11.276 30.105 11.276 C31.152 11.276 32.074 12.151 32.074 13.292 Z" style="fill:#fff"></path><rect x="28.03" y="7.76" width="2.39" height="0.88" style="fill:#fff"></rect><path d="M32.137 2.211 C32.137 3.351 31.340 4.211 30.340 4.211 C29.730 4.211 29.402 3.758 29.215 3.320 L29.215 3.539 C29.215 5.804 30.324 6.133 30.793 6.133 C31.012 6.133 31.387 6.086 31.590 5.773 C31.449 5.773 31.090 5.773 31.090 5.367 C31.090 5.086 31.309 4.961 31.496 4.961 C31.652 4.961 31.918 5.039 31.918 5.383 C31.918 5.929 31.512 6.367 30.777 6.367 C29.621 6.367 28.402 5.195 28.402 3.211 C28.402 0.804 29.449 0.164 30.293 0.164 C31.293 0.164 32.137 1.008 32.137 2.211 M31.324 2.211 C31.324 1.773 31.324 1.336 31.184 1.008 C30.902 0.461 30.496 0.414 30.293 0.414 C29.715 0.414 29.449 0.961 29.402 1.101 C29.230 1.523 29.230 2.242 29.230 2.398 C29.230 3.101 29.527 4.008 30.324 4.008 C30.480 4.008 30.887 4.008 31.168 3.445 C31.324 3.117 31.324 2.648 31.324 2.211 Z" style="fill:#fff"></path></g></g><g class="mindmap-node section-4" transform="translate(396.09,203.40)"><path d="M-48.98 13.09 v-26.19 q0,-5.00 5.00,-5.00 h87.95 q5.00,0 5.00,5.00 v31.19 H-48.98 Z" style="fill:#edc948;stroke:none"></path><line x1="-48.98" y1="18.09" x2="48.98" y2="18.09" style="stroke:#edc948;stroke-width:2;fill:none"></line><text x="0.00" y="0.00" text-anchor="middle" dominant-baseline="central" style="fill:#fff;font-size:14px">Fractions</text></g><g class="mindmap-node section-root" transform="translate(468.22,334.92)"><path d="M-40.00 13.09 v-26.19 q0,-5.00 5.00,-5.00 h70.00 q5.00,0 5.00,5.00 v31.19 H-40.00 Z" style="fill:#4e79a7;stroke:none"></path><line x1="-40.00" y1="18.09" x2="40.00" y2="18.09" style="stroke:#4e79a7;stroke-width:2;fill:none"></line><text x="0.00" y="0.00" text-anchor="middle" dominant-baseline="central" style="fill:#fff;font-size:14px">Root</text></g></g></svg>