<?xml version="1.0" encoding="UTF-8"?>
<svg xmlns="http://www.w3.org/2000/svg" viewBox="0 0 741.61 700.89" role="graphics-document document" aria-roledescription="mindmap"><rect x="0.00" y="0.00" width="741.61" height="700.89" style="fill:#fff;stroke:none"></rect><g><path d="M397.22,336.85 Q457.65,290.83 500.70,228.25" style="stroke:#f28e2b;stroke-width:17;fill:none"></path><path d="M500.70,228.25 Q576.23,170.73 630.05,92.51" style="stroke:#f28e2b;stroke-width:14;fill:none"></path><path d="M397.22,336.85 Q453.96,387.34 523.62,417.61" style="stroke:#e15759;stroke-width:17;fill:none"></path><path d="M523.62,417.61 Q594.54,480.73 681.61,518.58" style="stroke:#e15759;stroke-width:14;fill:none"></path><path d="M397.22,336.85 Q365.78,405.99 357.48,481.49" style="stroke:#76b7b2;stroke-width:17;fill:none"></path><path d="M357.48,481.49 Q318.19,567.91 307.82,662.29" style="stroke:#76b7b2;stroke-width:14;fill:none"></path><path d="M397.22,336.85 Q321.79,327.92 247.34,342.97" style="stroke:#59a14f;stroke-width:17;fill:none"></path><path d="M247.34,342.97 Q153.06,331.81 60.00,350.63" style="stroke:#59a14f;stroke-width:14;fill:none"></path><path d="M397.22,336.85 Q371.67,265.32 325.09,205.33" style="stroke:#edc948;stroke-width:17;fill:none"></path><path d="M325.09,205.33 Q293.16,115.91 234.93,40.93" style="stroke:#edc948;stroke-width:14;fill:none"></path></g><g><g class="mindmap-node section-0" transform="translate(630.05,92.51)"><path d="M-57.55 18.29 v-36.58 q0,-5.00 5.00,-5.00 h105.11 q5.00,0 5.00,5.00 v41.58 H-57.55 Z" style="fill:#f28e2b;stroke:none"></path><line x1="-57.55" y1="23.29" x2="57.55" y2="23.29" style="stroke:#f28e2b;stroke-width:2;fill:none"></line><g transform="translate(-37.55,-13.29) scale(1.000)"><g transform="translate(0,-0.735)"><path d="M0.562 10.667 L0.562 9.886 L5.734 9.886 L5.734 10.667 L0.562 10.667 Z" style="fill:#fff"></path><path d="M8.825 13.432 Q8.122 13.432 7.685 13.182 Q7.247 12.932 6.997 12.573 L6.919 12.573 L6.716 13.323 L6.029 13.323 L6.029 4.964 L6.997 4.964 L6.997 6.995 Q6.997 7.370 6.966 7.698 Q6.966 8.026 6.935 8.214 L6.997 8.214 Q7.247 7.839 7.685 7.589 Q8.122 7.323 8.825 7.323 Q9.919 7.323 10.575 8.104 Q11.247 8.854 11.247 10.370 Q11.247 11.886 10.575 12.667 Q9.904 13.432 8.825 13.432 Z M8.685 12.636 Q9.466 12.636 9.857 12.042 Q10.247 11.464 10.247 10.370 Q10.247 8.136 8.654 8.136 Q7.716 8.136 7.357 8.667 Q6.997 9.214 6.997 10.339 L6.997 10.386 Q6.997 11.479 7.341 12.057 Q7.716 12.636 8.685 12.636 Z" style="fill:#fff"></path><path d="M14.970 12.932 L14.970 10.667 L12.783 10.667 L12.783 9.886 L14.970 9.886 L14.970 7.604 L15.767 7.604 L15.767 9.886 L17.955 9.886 L17.955 10.667 L15.767 10.667 L15.767 12.932 L14.970 12.932 Z M12.783 12.932 L12.783 12.151 L17.955 12.151 L17.955 12.932 L12.783 12.932 Z" style="fill:#fff"></path><path d="M22.257 13.446 L20.648 8.883 L19.585 8.883 L19.585 8.039 L21.304 8.039 L22.663 11.992 L26.648 0.758 L27.491 0.758 L23.038 13.446 L22.257 13.446 Z" style="fill:#fff"></path><rect x="23.67" y="0.74" width="49.68" height="0.74" style="fill:#fff"></rect><path d="M31.181 13.787 Q30.478 13.787 30.040 13.537 Q29.603 13.287 29.353 12.927 L29.274 12.927 L29.071 13.677 L28.384 13.677 L28.384 5.318 L29.353 5.318 L29.353 7.349 Q29.353 7.724 29.321 8.052 Q29.321 8.381 29.290 8.568 L29.353 8.568 Q29.603 8.193 30.040 7.943 Q30.478 7.677 31.181 7.677 Q32.274 7.677 32.931 8.459 Q33.603 9.209 33.603 10.724 Q33.603 12.240 32.931 13.021 Q32.259 13.787 31.181 13.787 Z M31.040 12.990 Q31.821 12.990 32.212 12.396 Q32.603 11.818 32.603 10.724 Q32.603 8.490 31.009 8.490 Q30.071 8.490 29.712 9.021 Q29.353 9.568 29.353 10.693 L29.353 10.740 Q29.353 11.834 29.696 12.412 Q30.071 12.990 31.040 12.990 Z" style="fill:#fff"></path><path d="M35.872 13.052 L35.294 12.490 L37.154 10.615 L35.294 8.756 L35.857 8.193 L37.716 10.068 L39.607 8.193 L40.154 8.756 L38.279 10.615 L40.138 12.490 L39.591 13.052 L37.716 11.193 L35.872 13.052 Z" style="fill:#fff"></path><path d="M45.065 13.787 Q44.362 13.787 43.925 13.537 Q43.487 13.287 43.237 12.927 L43.159 12.927 L42.956 13.677 L42.268 13.677 L42.268 5.318 L43.237 5.318 L43.237 7.349 Q43.237 7.724 43.206 8.052 Q43.206 8.381 43.175 8.568 L43.237 8.568 Q43.487 8.193 43.925 7.943 Q44.362 7.677 45.065 7.677 Q46.159 7.677 46.815 8.459 Q47.487 9.209 47.487 10.724 Q47.487 12.240 46.815 13.021 Q46.143 13.787 45.065 13.787 Z M44.925 12.990 Q45.706 12.990 46.097 12.396 Q46.487 11.818 46.487 10.724 Q46.487 8.490 44.893 8.490 Q43.956 8.490 43.597 9.021 Q43.237 9.568 43.237 10.693 L43.237 10.740 Q43.237 11.834 43.581 12.412 Q43.956 12.990 44.925 12.990 Z" style="fill:#fff"></path><path d="M49.023 11.021 L49.023 10.240 L54.195 10.240 L54.195 11.021 L49.023 11.021 Z" style="fill:#fff"></path><path d="M59.216 13.677 L59.216 11.896 L55.450 11.896 L55.450 11.068 L59.137 5.787 L60.137 5.787 L60.137 11.021 L61.294 11.021 L61.294 11.896 L60.137 11.896 L60.137 13.677 L59.216 13.677 Z M56.387 11.021 L59.216 11.021 L59.216 8.552 Q59.216 7.974 59.216 7.584 Q59.247 7.177 59.262 6.818 L59.216 6.818 Q59.137 7.021 58.997 7.271 Q58.872 7.506 58.747 7.677 L56.387 11.021 Z" style="fill:#fff"></path><path d="M62.666 13.787 Q61.869 13.787 61.338 13.365 Q60.807 12.943 60.807 12.037 Q60.807 11.162 61.510 10.693 Q62.197 10.209 63.635 10.162 L64.635 10.131 L64.635 9.771 Q64.635 9.037 64.322 8.756 Q64.010 8.459 63.416 8.459 Q62.963 8.459 62.541 8.599 Q62.119 8.740 61.760 8.912 L61.463 8.193 Q61.853 7.974 62.369 7.834 Q62.900 7.677 63.478 7.677 Q64.557 7.677 65.072 8.162 Q65.588 8.631 65.588 9.662 L65.588 13.677 L64.885 13.677 L64.697 12.834 L64.650 12.834 Q64.260 13.318 63.838 13.552 Q63.416 13.787 62.666 13.787 Z M62.885 13.006 Q63.635 13.006 64.135 12.599 Q64.635 12.177 64.635 11.318 L64.635 10.802 L63.760 10.834 Q62.666 10.865 62.228 11.177 Q61.807 11.490 61.807 12.052 Q61.807 12.537 62.103 12.771 Q62.416 13.006 62.885 13.006 Z" style="fill:#fff"></path><path d="M68.597 13.787 Q67.815 13.787 67.206 13.474 Q66.597 13.146 66.253 12.474 Q65.909 11.802 65.909 10.756 Q65.909 9.677 66.268 8.990 Q66.628 8.302 67.253 7.990 Q67.878 7.677 68.659 7.677 Q69.112 7.677 69.534 7.771 Q69.956 7.865 70.222 7.990 L69.925 8.787 Q69.659 8.693 69.300 8.599 Q68.956 8.521 68.643 8.521 Q66.909 8.521 66.909 10.756 Q66.909 11.818 67.331 12.396 Q67.753 12.959 68.581 12.959 Q69.065 12.959 69.440 12.849 Q69.815 12.756 70.112 12.615 L70.112 13.474 Q69.815 13.615 69.456 13.693 Q69.112 13.787 68.597 13.787 Z" style="fill:#fff"></path><rect x="-1.50" y="16.60" width="74.85" height="1.05" style="fill:#fff"></rect><path d="M31.531 27.209 L31.531 26.412 L33.578 24.334 Q34.172 23.741 34.594 23.272 Q35.000 22.803 35.203 22.366 Q35.406 21.912 35.406 21.397 Q35.406 20.741 35.031 20.412 Q34.641 20.069 34.031 20.069 Q33.453 20.069 33.016 20.272 Q32.578 20.459 32.141 20.819 L31.609 20.162 Q32.078 19.787 32.672 19.522 Q33.281 19.241 34.031 19.241 Q35.125 19.241 35.766 19.803 Q36.406 20.350 36.406 21.334 Q36.406 21.944 36.141 22.491 Q35.891 23.022 35.438 23.553 Q35.000 24.069 34.391 24.662 L32.750 26.287 L32.750 26.334 L36.719 26.334 L36.719 27.209 L31.531 27.209 Z" style="fill:#fff"></path><path d="M38.450 27.319 Q37.654 27.319 37.122 26.897 Q36.591 26.475 36.591 25.569 Q36.591 24.694 37.294 24.225 Q37.982 23.741 39.419 23.694 L40.419 23.662 L40.419 23.303 Q40.419 22.569 40.107 22.287 Q39.794 21.991 39.200 21.991 Q38.747 21.991 38.325 22.131 Q37.904 22.272 37.544 22.444 L37.247 21.725 Q37.638 21.506 38.154 21.366 Q38.685 21.209 39.263 21.209 Q40.341 21.209 40.857 21.694 Q41.372 22.162 41.372 23.194 L41.372 27.209 L40.669 27.209 L40.482 26.366 L40.435 26.366 Q40.044 26.850 39.622 27.084 Q39.200 27.319 38.450 27.319 Z M38.669 26.537 Q39.419 26.537 39.919 26.131 Q40.419 25.709 40.419 24.850 L40.419 24.334 L39.544 24.366 Q38.450 24.397 38.013 24.709 Q37.591 25.022 37.591 25.584 Q37.591 26.069 37.888 26.303 Q38.200 26.537 38.669 26.537 Z" style="fill:#fff"></path></g></g></g><g class="mindmap-node section-0" transform="translate(500.70,228.25)"><path d="M-76.13 13.09 v-26.19 q0,-5.00 5.00,-5.00 h142.27 q5.00,0 5.00,5.00 v31.19 H-76.13 Z" style="fill:#f28e2b;stroke:none"></path><line x1="-76.13" y1="18.09" x2="76.13" y2="18.09" style="stroke:#f28e2b;stroke-width:2;fill:none"></line><text x="0.00" y="0.00" text-anchor="middle" dominant-baseline="central" style="fill:#fff;font-size:14px">Quadratic formula</text></g><g class="mindmap-node section-1" transform="translate(681.61,518.58)"><path d="M-40.00 12.50 v-25.00 q0,-5.00 5.00,-5.00 h70.00 q5.00,0 5.00,5.00 v30.00 H-40.00 Z" style="fill:#e15759;stroke:none"></path><line x1="-40.00" y1="17.50" x2="40.00" y2="17.50" style="stroke:#e15759;stroke-width:2;fill:none"></line><g transform="translate(-15.45,-4.45) scale(1.000)"><g transform="translate(0,-0.431)"><path d="M8.734 9.322 Q6.953 9.322 6.953 7.275 L6.953 1.759 L3.328 1.759 L3.328 9.166 L1.938 9.166 L1.938 1.759 L0.188 1.759 L0.188 1.150 L1.344 0.588 L10.031 0.588 L10.031 1.759 L8.359 1.759 L8.359 7.181 Q8.359 7.744 8.562 7.963 Q8.766 8.181 9.094 8.181 Q9.312 8.181 9.484 8.119 Q9.688 8.072 9.797 8.009 L9.797 9.119 Q9.656 9.181 9.375 9.244 Q9.109 9.322 8.734 9.322 Z" style="fill:#fff"></path><path d="M9.738 9.166 L9.738 0.588 L10.895 0.588 L11.051 2.150 L11.113 2.150 Q11.535 1.447 12.192 0.947 Q12.848 0.431 13.738 0.431 Q13.973 0.431 14.254 0.463 Q14.535 0.478 14.754 0.525 L14.567 1.822 Q14.363 1.775 14.113 1.744 Q13.863 1.713 13.645 1.713 Q12.988 1.713 12.410 2.072 Q11.832 2.431 11.488 3.088 Q11.145 3.728 11.145 4.588 L11.145 9.166 L9.738 9.166 Z" style="fill:#fff"></path><path d="M17.899 8.259 L17.070 7.431 L19.774 4.713 L17.055 2.009 L17.883 1.181 L20.586 3.916 L23.320 1.181 L24.117 1.994 L21.399 4.713 L24.102 7.431 L23.305 8.259 L20.570 5.556 L17.899 8.259 Z" style="fill:#fff"></path><path d="M27.018 9.166 L27.018 0.588 L28.174 0.588 L28.330 2.150 L28.393 2.150 Q28.815 1.447 29.471 0.947 Q30.127 0.431 31.018 0.431 Q31.252 0.431 31.534 0.463 Q31.815 0.478 32.034 0.525 L31.846 1.822 Q31.643 1.775 31.393 1.744 Q31.143 1.713 30.924 1.713 Q30.268 1.713 29.690 2.072 Q29.112 2.431 28.768 3.088 Q28.424 3.728 28.424 4.588 L28.424 9.166 L27.018 9.166 Z" style="fill:#fff"></path></g></g></g><g class="mindmap-node section-1" transform="translate(523.62,417.61)"><path d="M-61.33 13.09 v-26.19 q0,-5.00 5.00,-5.00 h112.66 q5.00,0 5.00,5.00 v31.19 H-61.33 Z" style="fill:#e15759;stroke:none"></path><line x1="-61.33" y1="18.09" x2="61.33" y2="18.09" style="stroke:#e15759;stroke-width:2;fill:none"></line><text x="0.00" y="0.00" text-anchor="middle" dominant-baseline="central" style="fill:#fff;font-size:14px">Area of circle</text></g><g class="mindmap-node section-2" transform="translate(307.82,662.29)"><path d="M-40.00 13.60 v-27.20 q0,-5.00 5.00,-5.00 h70.00 q5.00,0 5.00,5.00 v32.20 H-40.00 Z" style="fill:#76b7b2;stroke:none"></path><line x1="-40.00" y1="18.60" x2="40.00" y2="18.60" style="stroke:#76b7b2;stroke-width:2;fill:none"></line><g transform="translate(-14.72,-8.60) scale(1.000)"><g transform="translate(0,-1.050)"><path d="M4.391 18.245 L2.219 12.167 L0.812 12.167 L0.812 11.042 L3.109 11.042 L4.906 16.308 L10.219 1.339 L11.359 1.339 L5.422 18.245 L4.391 18.245 Z" style="fill:#fff"></path><rect x="6.88" y="1.05" width="24.06" height="1.05" style="fill:#fff"></rect><path d="M12.446 14.163 L12.446 13.022 L19.977 13.022 L19.977 14.163 L12.446 14.163 Z" style="fill:#fff"></path><path d="M23.203 18.038 L23.203 10.053 Q23.203 9.366 23.219 8.944 Q23.250 8.538 23.281 8.084 Q23.015 8.319 22.812 8.522 Q22.609 8.694 22.281 8.959 L21.062 9.959 L20.328 9.006 L23.422 6.616 L24.594 6.616 L24.594 18.038 L23.203 18.038 Z" style="fill:#fff"></path></g></g></g><g class="mindmap-node section-2" transform="translate(357.48,481.49)"><path d="M-65.16 13.09 v-26.19 q0,-5.00 5.00,-5.00 h120.33 q5.00,0 5.00,5.00 v31.19 H-65.16 Z" style="fill:#76b7b2;stroke:none"></path><line x1="-65.16" y1="18.09" x2="65.16" y2="18.09" style="stroke:#76b7b2;stroke-width:2;fill:none"></line><text x="0.00" y="0.00" text-anchor="middle" dominant-baseline="central" style="fill:#fff;font-size:14px">Imaginary unit</text></g><g class="mindmap-node section-3" transform="translate(60.00,350.63)"><path d="M-40.00 13.04 v-26.08 q0,-5.00 5.00,-5.00 h70.00 q5.00,0 5.00,5.00 v31.08 H-40.00 Z" style="fill:#59a14f;stroke:none"></path><line x1="-40.00" y1="18.04" x2="40.00" y2="18.04" style="stroke:#59a14f;stroke-width:2;fill:none"></line><g transform="translate(-15.05,-8.04) scale(1.000)"><g transform="translate(0,-0.628)"><path d="M4.406 13.019 Q2.828 13.019 1.859 11.925 Q0.875 10.800 0.875 8.613 Q0.875 6.425 1.844 5.284 Q2.797 4.128 4.531 4.128 Q5.469 4.128 6.094 4.456 Q6.734 4.784 7.156 5.441 L7.250 5.441 Q7.328 5.159 7.453 4.847 Q7.578 4.519 7.766 4.284 L8.859 4.284 Q8.750 4.644 8.656 5.222 Q8.562 5.784 8.516 6.425 Q8.469 7.066 8.469 7.644 L8.469 10.972 Q8.469 11.472 8.656 11.675 Q8.844 11.878 9.125 11.878 Q9.250 11.878 9.391 11.831 Q9.531 11.800 9.594 11.784 L9.594 12.816 Q9.484 12.878 9.234 12.941 Q8.969 13.019 8.703 13.019 Q8.109 13.019 7.734 12.738 Q7.359 12.441 7.188 11.706 L7.078 11.706 Q6.703 12.253 6.094 12.644 Q5.484 13.019 4.406 13.019 Z M4.641 11.847 Q5.969 11.847 6.516 11.097 Q7.078 10.331 7.078 8.691 L7.078 8.597 Q7.078 6.988 6.547 6.159 Q6.031 5.316 4.625 5.316 Q3.453 5.316 2.891 6.159 Q2.344 7.003 2.344 8.628 Q2.344 10.222 2.875 11.034 Q3.438 11.847 4.641 11.847 Z" style="fill:#fff"></path><path d="M9.179 16.706 L9.179 4.300 Q9.179 3.003 9.679 2.206 Q10.179 1.394 11.038 1.003 Q11.898 0.628 13.007 0.628 Q14.070 0.628 14.913 0.972 Q15.742 1.316 16.210 1.988 Q16.679 2.659 16.679 3.675 Q16.679 4.831 16.054 5.503 Q15.429 6.175 14.257 6.363 L14.257 6.425 Q15.710 6.597 16.445 7.378 Q17.195 8.159 17.195 9.613 Q17.195 11.269 16.163 12.144 Q15.132 13.019 13.288 13.019 Q12.367 13.019 11.726 12.878 Q11.101 12.738 10.585 12.472 L10.585 16.706 L9.179 16.706 Z M13.163 11.878 Q14.538 11.878 15.163 11.269 Q15.788 10.644 15.788 9.519 Q15.788 8.253 15.023 7.675 Q14.257 7.081 13.007 7.081 L12.163 7.081 L12.163 5.909 L12.851 5.909 Q14.085 5.909 14.663 5.316 Q15.242 4.722 15.242 3.738 Q15.242 2.753 14.617 2.269 Q14.007 1.784 12.976 1.784 Q12.335 1.784 11.788 2.019 Q11.242 2.238 10.913 2.800 Q10.585 3.363 10.585 4.363 L10.585 11.222 Q11.148 11.503 11.742 11.691 Q12.351 11.878 13.163 11.878 Z" style="fill:#fff"></path><path d="M18.577 16.706 Q18.577 16.253 18.671 15.581 Q18.780 14.909 18.968 14.159 Q19.155 13.425 19.390 12.769 L15.921 4.284 L17.374 4.284 L19.186 8.784 Q19.358 9.206 19.546 9.706 Q19.718 10.222 19.858 10.691 Q19.999 11.144 20.046 11.441 L20.108 11.441 Q20.155 11.175 20.296 10.706 Q20.436 10.222 20.593 9.706 Q20.765 9.206 20.905 8.847 L22.593 4.284 L24.046 4.284 L20.890 12.659 Q20.640 13.300 20.468 14.034 Q20.296 14.769 20.202 15.456 Q20.093 16.159 20.093 16.706 L18.577 16.706 Z" style="fill:#fff"></path><path d="M27.226 13.019 Q26.085 13.019 25.195 12.613 Q24.304 12.191 23.788 11.394 Q23.288 10.581 23.288 9.441 Q23.288 8.409 23.726 7.644 Q24.179 6.878 24.929 6.363 Q25.695 5.831 26.632 5.566 Q25.741 5.050 25.195 4.441 Q24.648 3.816 24.648 2.941 Q24.648 1.831 25.476 1.284 Q26.304 0.706 27.538 0.706 Q28.632 0.706 29.413 0.972 Q30.210 1.253 30.835 1.566 L30.226 2.675 Q29.632 2.331 28.960 2.097 Q28.288 1.847 27.476 1.847 Q26.741 1.847 26.413 2.191 Q26.070 2.503 26.070 2.956 Q26.070 3.347 26.288 3.644 Q26.491 3.956 26.960 4.284 Q27.445 4.613 28.226 5.034 Q29.679 5.816 30.445 6.769 Q31.226 7.691 31.226 9.081 Q31.226 11.003 30.132 12.019 Q29.038 13.019 27.226 13.019 Z M27.226 11.847 Q28.460 11.847 29.116 11.144 Q29.773 10.425 29.773 9.097 Q29.773 8.019 29.226 7.347 Q28.695 6.675 27.757 6.175 Q27.257 6.284 26.726 6.519 Q26.226 6.753 25.773 7.128 Q25.320 7.503 25.038 8.081 Q24.773 8.644 24.773 9.456 Q24.773 10.503 25.398 11.175 Q26.054 11.847 27.226 11.847 Z" style="fill:#fff"></path></g></g></g><g class="mindmap-node section-3" transform="translate(247.34,342.97)"><path d="M-60.44 13.09 v-26.19 q0,-5.00 5.00,-5.00 h110.88 q5.00,0 5.00,5.00 v31.19 H-60.44 Z" style="fill:#59a14f;stroke:none"></path><line x1="-60.44" y1="18.09" x2="60.44" y2="18.09" style="stroke:#59a14f;stroke-width:2;fill:none"></line><text x="0.00" y="0.00" text-anchor="middle" dominant-baseline="central" style="fill:#fff;font-size:14px">Greek letters</text></g><g class="mindmap-node section-4" transform="translate(234.93,40.93)"><path d="M-44.55 15.93 v-31.86 q0,-5.00 5.00,-5.00 h79.09 q5.00,0 5.00,5.00 v36.86 H-44.55 Z" style="fill:#edc948;stroke:none"></path><line x1="-44.55" y1="20.93" x2="44.55" y2="20.93" style="stroke:#edc948;stroke-width:2;fill:none"></line><g transform="translate(-24.55,-10.93) scale(1.000)"><g transform="translate(0,-0.532)"><path d="M2.953 8.514 L2.953 3.029 Q2.953 2.545 2.969 2.264 Q2.984 1.982 3.000 1.670 Q2.828 1.842 2.688 1.967 Q2.547 2.092 2.328 2.279 L1.484 2.951 L0.984 2.311 L3.109 0.654 L3.906 0.654 L3.906 8.514 L2.953 8.514 Z" style="fill:#fff"></path><rect x="-1.50" y="11.66" width="8.09" height="1.05" style="fill:#fff"></rect><path d="M0.531 22.277 L0.531 21.481 L2.578 19.402 Q3.172 18.809 3.594 18.340 Q4.000 17.871 4.203 17.434 Q4.406 16.981 4.406 16.465 Q4.406 15.809 4.031 15.481 Q3.641 15.137 3.031 15.137 Q2.453 15.137 2.016 15.340 Q1.578 15.527 1.141 15.887 L0.609 15.231 Q1.078 14.856 1.672 14.590 Q2.281 14.309 3.031 14.309 Q4.125 14.309 4.766 14.871 Q5.406 15.418 5.406 16.402 Q5.406 17.012 5.141 17.559 Q4.891 18.090 4.438 18.621 Q4.000 19.137 3.391 19.731 L1.750 21.356 L1.750 21.402 L5.719 21.402 L5.719 22.277 L0.531 22.277 Z" style="fill:#fff"></path><path d="M14.724 14.706 L14.724 11.409 L11.536 11.409 L11.536 10.268 L14.724 10.268 L14.724 6.972 L15.880 6.972 L15.880 10.268 L19.067 10.268 L19.067 11.409 L15.880 11.409 L15.880 14.706 L14.724 14.706 Z" style="fill:#fff"></path><path d="M23.327 8.514 L23.327 3.029 Q23.327 2.545 23.343 2.264 Q23.359 1.982 23.374 1.670 Q23.202 1.842 23.062 1.967 Q22.921 2.092 22.702 2.279 L21.859 2.951 L21.359 2.311 L23.484 0.654 L24.281 0.654 L24.281 8.514 L23.327 8.514 Z" style="fill:#fff"></path><rect x="18.87" y="11.66" width="8.09" height="1.05" style="fill:#fff"></rect><path d="M23.031 22.387 Q22.406 22.387 21.874 22.293 Q21.359 22.199 20.874 21.965 L20.874 21.059 Q21.359 21.293 21.937 21.434 Q22.515 21.574 23.031 21.574 Q24.093 21.574 24.562 21.168 Q25.031 20.746 25.031 20.027 Q25.031 19.293 24.437 18.965 Q23.874 18.637 22.827 18.637 L22.062 18.637 L22.062 17.809 L22.843 17.809 Q23.812 17.809 24.296 17.402 Q24.812 16.996 24.812 16.324 Q24.812 15.762 24.421 15.449 Q24.031 15.121 23.374 15.121 Q22.734 15.121 22.281 15.309 Q21.843 15.496 21.390 15.793 L20.906 15.121 Q21.327 14.793 21.952 14.559 Q22.577 14.309 23.359 14.309 Q24.593 14.309 25.187 14.871 Q25.796 15.418 25.796 16.262 Q25.796 17.059 25.359 17.527 Q24.921 17.981 24.171 18.137 L24.171 18.184 Q25.109 18.293 25.577 18.777 Q26.046 19.262 26.046 20.043 Q26.046 20.731 25.718 21.262 Q25.406 21.793 24.734 22.090 Q24.077 22.387 23.031 22.387 Z" style="fill:#fff"></path><path d="M31.910 9.815 L31.910 8.675 L39.442 8.675 L39.442 9.815 L31.910 9.815 Z M31.910 13.003 L31.910 11.862 L39.442 11.862 L39.442 13.003 L31.910 13.003 Z" style="fill:#fff"></path><path d="M43.483 8.501 Q42.874 8.501 42.327 8.391 Q41.811 8.282 41.436 8.079 L41.436 7.157 Q41.842 7.407 42.405 7.547 Q42.967 7.672 43.483 7.672 Q44.358 7.672 44.889 7.266 Q45.420 6.844 45.420 5.985 Q45.420 5.219 44.952 4.797 Q44.483 4.391 43.452 4.391 Q43.139 4.391 42.749 4.438 Q42.358 4.501 42.108 4.547 L41.624 4.251 L41.920 0.532 L45.858 0.532 L45.858 1.422 L42.749 1.422 L42.561 3.688 Q42.749 3.657 43.077 3.610 Q43.389 3.579 43.780 3.579 Q44.983 3.579 45.702 4.172 Q46.420 4.782 46.420 5.876 Q46.420 7.110 45.639 7.813 Q44.858 8.501 43.483 8.501 Z" style="fill:#fff"></path><rect x="39.25" y="11.66" width="8.09" height="1.05" style="fill:#fff"></rect><path d="M44.030 22.387 Q43.280 22.387 42.670 22.012 Q42.061 21.637 41.702 20.871 Q41.358 20.106 41.358 18.918 Q41.358 18.074 41.499 17.262 Q41.655 16.434 42.030 15.777 Q42.436 15.106 43.139 14.715 Q43.842 14.309 44.952 14.309 Q45.186 14.309 45.452 14.340 Q45.749 14.356 45.920 14.418 L45.920 15.231 Q45.717 15.168 45.467 15.137 Q45.233 15.106 44.967 15.106 Q44.217 15.106 43.702 15.356 Q43.202 15.606 42.905 16.059 Q42.624 16.496 42.483 17.059 Q42.358 17.637 42.327 18.277 L42.389 18.277 Q42.639 17.902 43.092 17.637 Q43.545 17.356 44.249 17.356 Q45.264 17.356 45.889 17.981 Q46.530 18.606 46.530 19.746 Q46.530 20.981 45.842 21.684 Q45.170 22.387 44.030 22.387 Z M44.014 21.574 Q44.702 21.574 45.139 21.137 Q45.561 20.684 45.561 19.746 Q45.561 18.996 45.186 18.559 Q44.811 18.121 44.045 18.121 Q43.530 18.121 43.139 18.340 Q42.764 18.543 42.545 18.871 Q42.327 19.215 42.327 19.559 Q42.327 20.027 42.514 20.512 Q42.702 20.965 43.077 21.277 Q43.452 21.574 44.014 21.574 Z" style="fill:#fff"></path></g></g></g><g class="mindmap-node section-4" transform="translate(325.09,205.33)"><path d="M-48.98 13.09 v-26.19 q0,-5.00 5.00,-5.00 h87.95 q5.00,0 5.00,5.00 v31.19 H-48.98 Z" style="fill:#edc948;stroke:none"></path><line x1="-48.98" y1="18.09" x2="48.98" y2="18.09" style="stroke:#edc948;stroke-width:2;fill:none"></line><text x="0.00" y="0.00" text-anchor="middle" dominant-baseline="central" style="fill:#fff;font-size:14px">Fractions</text></g><g class="mindmap-node section-root" transform="translate(397.22,336.85)"><path d="M-40.00 13.09 v-26.19 q0,-5.00 5.00,-5.00 h70.00 q5.00,0 5.00,5.00 v31.19 H-40.00 Z" style="fill:#4e79a7;stroke:none"></path><line x1="-40.00" y1="18.09" x2="40.00" y2="18.09" style="stroke:#4e79a7;stroke-width:2;fill:none"></line><text x="0.00" y="0.00" text-anchor="middle" dominant-baseline="central" style="fill:#fff;font-size:14px">Root</text></g></g></svg>