<?xml version="1.0" encoding="UTF-8"?>
<svg xmlns="http://www.w3.org/2000/svg" viewBox="0 0 741.61 700.89" role="graphics-document document" aria-roledescription="mindmap"><rect x="0.00" y="0.00" width="741.61" height="700.89" style="fill:#fff;stroke:none"></rect><g><path d="M397.22,336.85 Q457.65,290.83 500.70,228.25" style="stroke:#f28e2b;stroke-width:17;fill:none"></path><path d="M500.70,228.25 Q576.23,170.73 630.05,92.51" style="stroke:#f28e2b;stroke-width:14;fill:none"></path><path d="M397.22,336.85 Q453.96,387.34 523.62,417.61" style="stroke:#e15759;stroke-width:17;fill:none"></path><path d="M523.62,417.61 Q594.54,480.73 681.61,518.58" style="stroke:#e15759;stroke-width:14;fill:none"></path><path d="M397.22,336.85 Q365.78,405.99 357.48,481.49" style="stroke:#76b7b2;stroke-width:17;fill:none"></path><path d="M357.48,481.49 Q318.19,567.91 307.82,662.29" style="stroke:#76b7b2;stroke-width:14;fill:none"></path><path d="M397.22,336.85 Q321.79,327.92 247.34,342.97" style="stroke:#59a14f;stroke-width:17;fill:none"></path><path d="M247.34,342.97 Q153.06,331.81 60.00,350.63" style="stroke:#59a14f;stroke-width:14;fill:none"></path><path d="M397.22,336.85 Q371.67,265.32 325.09,205.33" style="stroke:#edc948;stroke-width:17;fill:none"></path><path d="M325.09,205.33 Q293.16,115.91 234.93,40.93" style="stroke:#edc948;stroke-width:14;fill:none"></path></g><g><g class="mindmap-node section-0" transform="translate(630.05,92.51)"><path d="M-52.71 18.29 v-36.58 q0,-5.00 5.00,-5.00 h95.41 q5.00,0 5.00,5.00 v41.58 H-52.71 Z" style="fill:#f28e2b;stroke:none"></path><line x1="-52.71" y1="23.29" x2="52.71" y2="23.29" style="stroke:#f28e2b;stroke-width:2;fill:none"></line><g transform="translate(-32.71,-13.29) scale(1.000)"><g transform="translate(0,-0.735)"><path d="M0.562 10.667 L0.562 9.886 L5.734 9.886 L5.734 10.667 L0.562 10.667 Z" style="fill:#fff"></path><path d="M8.168 13.432 Q7.465 13.432 7.028 13.182 Q6.590 12.932 6.340 12.573 L6.262 12.573 L6.059 13.323 L5.372 13.323 L5.372 4.964 L6.340 4.964 L6.340 6.995 Q6.340 7.370 6.309 7.698 Q6.309 8.026 6.278 8.214 L6.340 8.214 Q6.590 7.839 7.028 7.589 Q7.465 7.323 8.168 7.323 Q9.262 7.323 9.918 8.104 Q10.590 8.854 10.590 10.370 Q10.590 11.886 9.918 12.667 Q9.247 13.432 8.168 13.432 Z M8.028 12.636 Q8.809 12.636 9.200 12.042 Q9.590 11.464 9.590 10.370 Q9.590 8.136 7.997 8.136 Q7.059 8.136 6.700 8.667 Q6.340 9.214 6.340 10.339 L6.340 10.386 Q6.340 11.479 6.684 12.057 Q7.059 12.636 8.028 12.636 Z" style="fill:#fff"></path><path d="M13.393 12.932 L13.393 10.667 L11.206 10.667 L11.206 9.886 L13.393 9.886 L13.393 7.604 L14.190 7.604 L14.190 9.886 L16.378 9.886 L16.378 10.667 L14.190 10.667 L14.190 12.932 L13.393 12.932 Z M11.206 12.932 L11.206 12.151 L16.378 12.151 L16.378 12.932 L11.206 12.932 Z" style="fill:#fff"></path><path d="M19.808 13.446 L18.199 8.883 L17.137 8.883 L17.137 8.039 L18.855 8.039 L20.215 11.992 L24.199 0.758 L25.043 0.758 L20.590 13.446 L19.808 13.446 Z" style="fill:#fff"></path><rect x="20.42" y="0.74" width="43.66" height="0.74" style="fill:#fff"></rect><path d="M27.639 13.787 Q26.936 13.787 26.499 13.537 Q26.061 13.287 25.811 12.927 L25.733 12.927 L25.530 13.677 L24.842 13.677 L24.842 5.318 L25.811 5.318 L25.811 7.349 Q25.811 7.724 25.780 8.052 Q25.780 8.381 25.749 8.568 L25.811 8.568 Q26.061 8.193 26.499 7.943 Q26.936 7.677 27.639 7.677 Q28.733 7.677 29.389 8.459 Q30.061 9.209 30.061 10.724 Q30.061 12.240 29.389 13.021 Q28.717 13.787 27.639 13.787 Z M27.499 12.990 Q28.280 12.990 28.671 12.396 Q29.061 11.818 29.061 10.724 Q29.061 8.490 27.467 8.490 Q26.530 8.490 26.171 9.021 Q25.811 9.568 25.811 10.693 L25.811 10.740 Q25.811 11.834 26.155 12.412 Q26.530 12.990 27.499 12.990 Z" style="fill:#fff"></path><path d="M31.411 13.052 L30.833 12.490 L32.692 10.615 L30.833 8.756 L31.395 8.193 L33.255 10.068 L35.145 8.193 L35.692 8.756 L33.817 10.615 L35.677 12.490 L35.130 13.052 L33.255 11.193 L31.411 13.052 Z" style="fill:#fff"></path><path d="M39.732 13.787 Q39.029 13.787 38.592 13.537 Q38.154 13.287 37.904 12.927 L37.826 12.927 L37.623 13.677 L36.935 13.677 L36.935 5.318 L37.904 5.318 L37.904 7.349 Q37.904 7.724 37.873 8.052 Q37.873 8.381 37.842 8.568 L37.904 8.568 Q38.154 8.193 38.592 7.943 Q39.029 7.677 39.732 7.677 Q40.826 7.677 41.482 8.459 Q42.154 9.209 42.154 10.724 Q42.154 12.240 41.482 13.021 Q40.810 13.787 39.732 13.787 Z M39.592 12.990 Q40.373 12.990 40.764 12.396 Q41.154 11.818 41.154 10.724 Q41.154 8.490 39.560 8.490 Q38.623 8.490 38.264 9.021 Q37.904 9.568 37.904 10.693 L37.904 10.740 Q37.904 11.834 38.248 12.412 Q38.623 12.990 39.592 12.990 Z" style="fill:#fff"></path><path d="M42.770 11.021 L42.770 10.240 L47.942 10.240 L47.942 11.021 L42.770 11.021 Z" style="fill:#fff"></path><path d="M52.091 13.677 L52.091 11.896 L48.325 11.896 L48.325 11.068 L52.013 5.787 L53.013 5.787 L53.013 11.021 L54.169 11.021 L54.169 11.896 L53.013 11.896 L53.013 13.677 L52.091 13.677 Z M49.263 11.021 L52.091 11.021 L52.091 8.552 Q52.091 7.974 52.091 7.584 Q52.122 7.177 52.138 6.818 L52.091 6.818 Q52.013 7.021 51.872 7.271 Q51.747 7.506 51.622 7.677 L49.263 11.021 Z" style="fill:#fff"></path><path d="M54.884 13.787 Q54.088 13.787 53.556 13.365 Q53.025 12.943 53.025 12.037 Q53.025 11.162 53.728 10.693 Q54.416 10.209 55.853 10.162 L56.853 10.131 L56.853 9.771 Q56.853 9.037 56.541 8.756 Q56.228 8.459 55.634 8.459 Q55.181 8.459 54.759 8.599 Q54.338 8.740 53.978 8.912 L53.681 8.193 Q54.072 7.974 54.588 7.834 Q55.119 7.677 55.697 7.677 Q56.775 7.677 57.291 8.162 Q57.806 8.631 57.806 9.662 L57.806 13.677 L57.103 13.677 L56.916 12.834 L56.869 12.834 Q56.478 13.318 56.056 13.552 Q55.634 13.787 54.884 13.787 Z M55.103 13.006 Q55.853 13.006 56.353 12.599 Q56.853 12.177 56.853 11.318 L56.853 10.802 L55.978 10.834 Q54.884 10.865 54.447 11.177 Q54.025 11.490 54.025 12.052 Q54.025 12.537 54.322 12.771 Q54.634 13.006 55.103 13.006 Z" style="fill:#fff"></path><path d="M60.171 13.787 Q59.390 13.787 58.780 13.474 Q58.171 13.146 57.827 12.474 Q57.483 11.802 57.483 10.756 Q57.483 9.677 57.843 8.990 Q58.202 8.302 58.827 7.990 Q59.452 7.677 60.233 7.677 Q60.686 7.677 61.108 7.771 Q61.530 7.865 61.796 7.990 L61.499 8.787 Q61.233 8.693 60.874 8.599 Q60.530 8.521 60.218 8.521 Q58.483 8.521 58.483 10.756 Q58.483 11.818 58.905 12.396 Q59.327 12.959 60.155 12.959 Q60.640 12.959 61.015 12.849 Q61.390 12.756 61.686 12.615 L61.686 13.474 Q61.390 13.615 61.030 13.693 Q60.686 13.787 60.171 13.787 Z" style="fill:#fff"></path><rect x="-1.50" y="16.60" width="65.58" height="1.05" style="fill:#fff"></rect><path d="M27.531 27.209 L27.531 26.412 L29.578 24.334 Q30.172 23.741 30.594 23.272 Q31.000 22.803 31.203 22.366 Q31.406 21.912 31.406 21.397 Q31.406 20.741 31.031 20.412 Q30.641 20.069 30.031 20.069 Q29.453 20.069 29.016 20.272 Q28.578 20.459 28.141 20.819 L27.609 20.162 Q28.078 19.787 28.672 19.522 Q29.281 19.241 30.031 19.241 Q31.125 19.241 31.766 19.803 Q32.406 20.350 32.406 21.334 Q32.406 21.944 32.141 22.491 Q31.891 23.022 31.438 23.553 Q31.000 24.069 30.391 24.662 L28.750 26.287 L28.750 26.334 L32.719 26.334 L32.719 27.209 L27.531 27.209 Z" style="fill:#fff"></path><path d="M33.793 27.319 Q32.997 27.319 32.465 26.897 Q31.934 26.475 31.934 25.569 Q31.934 24.694 32.637 24.225 Q33.325 23.741 34.762 23.694 L35.762 23.662 L35.762 23.303 Q35.762 22.569 35.450 22.287 Q35.137 21.991 34.543 21.991 Q34.090 21.991 33.668 22.131 Q33.247 22.272 32.887 22.444 L32.590 21.725 Q32.981 21.506 33.497 21.366 Q34.028 21.209 34.606 21.209 Q35.684 21.209 36.200 21.694 Q36.715 22.162 36.715 23.194 L36.715 27.209 L36.012 27.209 L35.825 26.366 L35.778 26.366 Q35.387 26.850 34.965 27.084 Q34.543 27.319 33.793 27.319 Z M34.012 26.537 Q34.762 26.537 35.262 26.131 Q35.762 25.709 35.762 24.850 L35.762 24.334 L34.887 24.366 Q33.793 24.397 33.356 24.709 Q32.934 25.022 32.934 25.584 Q32.934 26.069 33.231 26.303 Q33.543 26.537 34.012 26.537 Z" style="fill:#fff"></path></g></g></g><g class="mindmap-node section-0" transform="translate(500.70,228.25)"><path d="M-76.13 13.09 v-26.19 q0,-5.00 5.00,-5.00 h142.27 q5.00,0 5.00,5.00 v31.19 H-76.13 Z" style="fill:#f28e2b;stroke:none"></path><line x1="-76.13" y1="18.09" x2="76.13" y2="18.09" style="stroke:#f28e2b;stroke-width:2;fill:none"></line><text x="0.00" y="0.00" text-anchor="middle" dominant-baseline="central" style="fill:#fff;font-size:14px">Quadratic formula</text></g><g class="mindmap-node section-1" transform="translate(681.61,518.58)"><path d="M-40.00 12.50 v-25.00 q0,-5.00 5.00,-5.00 h70.00 q5.00,0 5.00,5.00 v30.00 H-40.00 Z" style="fill:#e15759;stroke:none"></path><line x1="-40.00" y1="17.50" x2="40.00" y2="17.50" style="stroke:#e15759;stroke-width:2;fill:none"></line><g transform="translate(-13.46,-4.45) scale(1.000)"><g transform="translate(0,-0.431)"><path d="M8.734 9.322 Q6.953 9.322 6.953 7.275 L6.953 1.759 L3.328 1.759 L3.328 9.166 L1.938 9.166 L1.938 1.759 L0.188 1.759 L0.188 1.150 L1.344 0.588 L10.031 0.588 L10.031 1.759 L8.359 1.759 L8.359 7.181 Q8.359 7.744 8.562 7.963 Q8.766 8.181 9.094 8.181 Q9.312 8.181 9.484 8.119 Q9.688 8.072 9.797 8.009 L9.797 9.119 Q9.656 9.181 9.375 9.244 Q9.109 9.322 8.734 9.322 Z" style="fill:#fff"></path><path d="M8.657 9.166 L8.657 0.588 L9.814 0.588 L9.970 2.150 L10.032 2.150 Q10.454 1.447 11.110 0.947 Q11.767 0.431 12.657 0.431 Q12.892 0.431 13.173 0.463 Q13.454 0.478 13.673 0.525 L13.485 1.822 Q13.282 1.775 13.032 1.744 Q12.782 1.713 12.564 1.713 Q11.907 1.713 11.329 2.072 Q10.751 2.431 10.407 3.088 Q10.064 3.728 10.064 4.588 L10.064 9.166 L8.657 9.166 Z" style="fill:#fff"></path><path d="M15.833 8.259 L15.005 7.431 L17.708 4.713 L14.989 2.009 L15.817 1.181 L18.521 3.916 L21.255 1.181 L22.052 1.994 L19.333 4.713 L22.036 7.431 L21.239 8.259 L18.505 5.556 L15.833 8.259 Z" style="fill:#fff"></path><path d="M23.707 9.166 L23.707 0.588 L24.863 0.588 L25.020 2.150 L25.082 2.150 Q25.504 1.447 26.160 0.947 Q26.817 0.431 27.707 0.431 Q27.942 0.431 28.223 0.463 Q28.504 0.478 28.723 0.525 L28.535 1.822 Q28.332 1.775 28.082 1.744 Q27.832 1.713 27.613 1.713 Q26.957 1.713 26.379 2.072 Q25.801 2.431 25.457 3.088 Q25.113 3.728 25.113 4.588 L25.113 9.166 L23.707 9.166 Z" style="fill:#fff"></path></g></g></g><g class="mindmap-node section-1" transform="translate(523.62,417.61)"><path d="M-61.33 13.09 v-26.19 q0,-5.00 5.00,-5.00 h112.66 q5.00,0 5.00,5.00 v31.19 H-61.33 Z" style="fill:#e15759;stroke:none"></path><line x1="-61.33" y1="18.09" x2="61.33" y2="18.09" style="stroke:#e15759;stroke-width:2;fill:none"></line><text x="0.00" y="0.00" text-anchor="middle" dominant-baseline="central" style="fill:#fff;font-size:14px">Area of circle</text></g><g class="mindmap-node section-2" transform="translate(307.82,662.29)"><path d="M-40.00 13.60 v-27.20 q0,-5.00 5.00,-5.00 h70.00 q5.00,0 5.00,5.00 v32.20 H-40.00 Z" style="fill:#76b7b2;stroke:none"></path><line x1="-40.00" y1="18.60" x2="40.00" y2="18.60" style="stroke:#76b7b2;stroke-width:2;fill:none"></line><g transform="translate(-12.82,-8.60) scale(1.000)"><g transform="translate(0,-1.050)"><path d="M4.391 18.245 L2.219 12.167 L0.812 12.167 L0.812 11.042 L3.109 11.042 L4.906 16.308 L10.219 1.339 L11.359 1.339 L5.422 18.245 L4.391 18.245 Z" style="fill:#fff"></path><rect x="5.80" y="1.05" width="21.34" height="1.05" style="fill:#fff"></rect><path d="M10.945 14.163 L10.945 13.022 L18.476 13.022 L18.476 14.163 L10.945 14.163 Z" style="fill:#fff"></path><path d="M20.763 18.038 L20.763 10.053 Q20.763 9.366 20.779 8.944 Q20.810 8.538 20.842 8.084 Q20.576 8.319 20.373 8.522 Q20.170 8.694 19.842 8.959 L18.623 9.959 L17.888 9.006 L20.982 6.616 L22.154 6.616 L22.154 18.038 L20.763 18.038 Z" style="fill:#fff"></path></g></g></g><g class="mindmap-node section-2" transform="translate(357.48,481.49)"><path d="M-65.16 13.09 v-26.19 q0,-5.00 5.00,-5.00 h120.33 q5.00,0 5.00,5.00 v31.19 H-65.16 Z" style="fill:#76b7b2;stroke:none"></path><line x1="-65.16" y1="18.09" x2="65.16" y2="18.09" style="stroke:#76b7b2;stroke-width:2;fill:none"></line><text x="0.00" y="0.00" text-anchor="middle" dominant-baseline="central" style="fill:#fff;font-size:14px">Imaginary unit</text></g><g class="mindmap-node section-3" transform="translate(60.00,350.63)"><path d="M-40.00 13.04 v-26.08 q0,-5.00 5.00,-5.00 h70.00 q5.00,0 5.00,5.00 v31.08 H-40.00 Z" style="fill:#59a14f;stroke:none"></path><line x1="-40.00" y1="18.04" x2="40.00" y2="18.04" style="stroke:#59a14f;stroke-width:2;fill:none"></line><g transform="translate(-13.11,-8.04) scale(1.000)"><g transform="translate(0,-0.628)"><path d="M4.406 13.019 Q2.828 13.019 1.859 11.925 Q0.875 10.800 0.875 8.613 Q0.875 6.425 1.844 5.284 Q2.797 4.128 4.531 4.128 Q5.469 4.128 6.094 4.456 Q6.734 4.784 7.156 5.441 L7.250 5.441 Q7.328 5.159 7.453 4.847 Q7.578 4.519 7.766 4.284 L8.859 4.284 Q8.750 4.644 8.656 5.222 Q8.562 5.784 8.516 6.425 Q8.469 7.066 8.469 7.644 L8.469 10.972 Q8.469 11.472 8.656 11.675 Q8.844 11.878 9.125 11.878 Q9.250 11.878 9.391 11.831 Q9.531 11.800 9.594 11.784 L9.594 12.816 Q9.484 12.878 9.234 12.941 Q8.969 13.019 8.703 13.019 Q8.109 13.019 7.734 12.738 Q7.359 12.441 7.188 11.706 L7.078 11.706 Q6.703 12.253 6.094 12.644 Q5.484 13.019 4.406 13.019 Z M4.641 11.847 Q5.969 11.847 6.516 11.097 Q7.078 10.331 7.078 8.691 L7.078 8.597 Q7.078 6.988 6.547 6.159 Q6.031 5.316 4.625 5.316 Q3.453 5.316 2.891 6.159 Q2.344 7.003 2.344 8.628 Q2.344 10.222 2.875 11.034 Q3.438 11.847 4.641 11.847 Z" style="fill:#fff"></path><path d="M8.170 16.706 L8.170 4.300 Q8.170 3.003 8.670 2.206 Q9.170 1.394 10.029 1.003 Q10.889 0.628 11.998 0.628 Q13.061 0.628 13.904 0.972 Q14.733 1.316 15.201 1.988 Q15.670 2.659 15.670 3.675 Q15.670 4.831 15.045 5.503 Q14.420 6.175 13.248 6.363 L13.248 6.425 Q14.701 6.597 15.436 7.378 Q16.186 8.159 16.186 9.613 Q16.186 11.269 15.154 12.144 Q14.123 13.019 12.279 13.019 Q11.358 13.019 10.717 12.878 Q10.092 12.738 9.576 12.472 L9.576 16.706 L8.170 16.706 Z M12.154 11.878 Q13.529 11.878 14.154 11.269 Q14.779 10.644 14.779 9.519 Q14.779 8.253 14.014 7.675 Q13.248 7.081 11.998 7.081 L11.154 7.081 L11.154 5.909 L11.842 5.909 Q13.076 5.909 13.654 5.316 Q14.233 4.722 14.233 3.738 Q14.233 2.753 13.608 2.269 Q12.998 1.784 11.967 1.784 Q11.326 1.784 10.779 2.019 Q10.233 2.238 9.904 2.800 Q9.576 3.363 9.576 4.363 L9.576 11.222 Q10.139 11.503 10.733 11.691 Q11.342 11.878 12.154 11.878 Z" style="fill:#fff"></path><path d="M16.533 16.706 Q16.533 16.253 16.627 15.581 Q16.736 14.909 16.923 14.159 Q17.111 13.425 17.345 12.769 L13.877 4.284 L15.330 4.284 L17.142 8.784 Q17.314 9.206 17.502 9.706 Q17.673 10.222 17.814 10.691 Q17.955 11.144 18.002 11.441 L18.064 11.441 Q18.111 11.175 18.252 10.706 Q18.392 10.222 18.548 9.706 Q18.720 9.206 18.861 8.847 L20.548 4.284 L22.002 4.284 L18.845 12.659 Q18.595 13.300 18.423 14.034 Q18.252 14.769 18.158 15.456 Q18.048 16.159 18.048 16.706 L16.533 16.706 Z" style="fill:#fff"></path><path d="M24.332 13.019 Q23.191 13.019 22.301 12.613 Q21.410 12.191 20.894 11.394 Q20.394 10.581 20.394 9.441 Q20.394 8.409 20.832 7.644 Q21.285 6.878 22.035 6.363 Q22.801 5.831 23.738 5.566 Q22.847 5.050 22.301 4.441 Q21.754 3.816 21.754 2.941 Q21.754 1.831 22.582 1.284 Q23.410 0.706 24.644 0.706 Q25.738 0.706 26.519 0.972 Q27.316 1.253 27.941 1.566 L27.332 2.675 Q26.738 2.331 26.066 2.097 Q25.394 1.847 24.582 1.847 Q23.847 1.847 23.519 2.191 Q23.176 2.503 23.176 2.956 Q23.176 3.347 23.394 3.644 Q23.597 3.956 24.066 4.284 Q24.551 4.613 25.332 5.034 Q26.785 5.816 27.551 6.769 Q28.332 7.691 28.332 9.081 Q28.332 11.003 27.238 12.019 Q26.144 13.019 24.332 13.019 Z M24.332 11.847 Q25.566 11.847 26.222 11.144 Q26.879 10.425 26.879 9.097 Q26.879 8.019 26.332 7.347 Q25.801 6.675 24.863 6.175 Q24.363 6.284 23.832 6.519 Q23.332 6.753 22.879 7.128 Q22.426 7.503 22.144 8.081 Q21.879 8.644 21.879 9.456 Q21.879 10.503 22.504 11.175 Q23.160 11.847 24.332 11.847 Z" style="fill:#fff"></path></g></g></g><g class="mindmap-node section-3" transform="translate(247.34,342.97)"><path d="M-60.44 13.09 v-26.19 q0,-5.00 5.00,-5.00 h110.88 q5.00,0 5.00,5.00 v31.19 H-60.44 Z" style="fill:#59a14f;stroke:none"></path><line x1="-60.44" y1="18.09" x2="60.44" y2="18.09" style="stroke:#59a14f;stroke-width:2;fill:none"></line><text x="0.00" y="0.00" text-anchor="middle" dominant-baseline="central" style="fill:#fff;font-size:14px">Greek letters</text></g><g class="mindmap-node section-4" transform="translate(234.93,40.93)"><path d="M-41.38 15.93 v-31.86 q0,-5.00 5.00,-5.00 h72.76 q5.00,0 5.00,5.00 v36.86 H-41.38 Z" style="fill:#edc948;stroke:none"></path><line x1="-41.38" y1="20.93" x2="41.38" y2="20.93" style="stroke:#edc948;stroke-width:2;fill:none"></line><g transform="translate(-21.38,-10.93) scale(1.000)"><g transform="translate(0,-0.532)"><path d="M2.953 8.514 L2.953 3.029 Q2.953 2.545 2.969 2.264 Q2.984 1.982 3.000 1.670 Q2.828 1.842 2.688 1.967 Q2.547 2.092 2.328 2.279 L1.484 2.951 L0.984 2.311 L3.109 0.654 L3.906 0.654 L3.906 8.514 L2.953 8.514 Z" style="fill:#fff"></path><rect x="-1.50" y="11.66" width="7.43" height="1.05" style="fill:#fff"></rect><path d="M0.531 22.277 L0.531 21.481 L2.578 19.402 Q3.172 18.809 3.594 18.340 Q4.000 17.871 4.203 17.434 Q4.406 16.981 4.406 16.465 Q4.406 15.809 4.031 15.481 Q3.641 15.137 3.031 15.137 Q2.453 15.137 2.016 15.340 Q1.578 15.527 1.141 15.887 L0.609 15.231 Q1.078 14.856 1.672 14.590 Q2.281 14.309 3.031 14.309 Q4.125 14.309 4.766 14.871 Q5.406 15.418 5.406 16.402 Q5.406 17.012 5.141 17.559 Q4.891 18.090 4.438 18.621 Q4.000 19.137 3.391 19.731 L1.750 21.356 L1.750 21.402 L5.719 21.402 L5.719 22.277 L0.531 22.277 Z" style="fill:#fff"></path><path d="M13.340 14.706 L13.340 11.409 L10.152 11.409 L10.152 10.268 L13.340 10.268 L13.340 6.972 L14.496 6.972 L14.496 10.268 L17.684 10.268 L17.684 11.409 L14.496 11.409 L14.496 14.706 L13.340 14.706 Z" style="fill:#fff"></path><path d="M20.698 8.514 L20.698 3.029 Q20.698 2.545 20.714 2.264 Q20.730 1.982 20.745 1.670 Q20.573 1.842 20.433 1.967 Q20.292 2.092 20.073 2.279 L19.230 2.951 L18.730 2.311 L20.855 0.654 L21.652 0.654 L21.652 8.514 L20.698 8.514 Z" style="fill:#fff"></path><rect x="16.25" y="11.66" width="7.43" height="1.05" style="fill:#fff"></rect><path d="M20.402 22.387 Q19.777 22.387 19.245 22.293 Q18.730 22.199 18.245 21.965 L18.245 21.059 Q18.730 21.293 19.308 21.434 Q19.886 21.574 20.402 21.574 Q21.464 21.574 21.933 21.168 Q22.402 20.746 22.402 20.027 Q22.402 19.293 21.808 18.965 Q21.245 18.637 20.198 18.637 L19.433 18.637 L19.433 17.809 L20.214 17.809 Q21.183 17.809 21.667 17.402 Q22.183 16.996 22.183 16.324 Q22.183 15.762 21.792 15.449 Q21.402 15.121 20.745 15.121 Q20.105 15.121 19.652 15.309 Q19.214 15.496 18.761 15.793 L18.277 15.121 Q18.698 14.793 19.323 14.559 Q19.948 14.309 20.730 14.309 Q21.964 14.309 22.558 14.871 Q23.167 15.418 23.167 16.262 Q23.167 17.059 22.730 17.527 Q22.292 17.981 21.542 18.137 L21.542 18.184 Q22.480 18.293 22.948 18.777 Q23.417 19.262 23.417 20.043 Q23.417 20.731 23.089 21.262 Q22.777 21.793 22.105 22.090 Q21.448 22.387 20.402 22.387 Z" style="fill:#fff"></path><path d="M27.898 9.815 L27.898 8.675 L35.429 8.675 L35.429 9.815 L27.898 9.815 Z M27.898 13.003 L27.898 11.862 L35.429 11.862 L35.429 13.003 L27.898 13.003 Z" style="fill:#fff"></path><path d="M38.225 8.501 Q37.616 8.501 37.069 8.391 Q36.553 8.282 36.178 8.079 L36.178 7.157 Q36.584 7.407 37.147 7.547 Q37.709 7.672 38.225 7.672 Q39.100 7.672 39.631 7.266 Q40.163 6.844 40.163 5.985 Q40.163 5.219 39.694 4.797 Q39.225 4.391 38.194 4.391 Q37.881 4.391 37.491 4.438 Q37.100 4.501 36.850 4.547 L36.366 4.251 L36.663 0.532 L40.600 0.532 L40.600 1.422 L37.491 1.422 L37.303 3.688 Q37.491 3.657 37.819 3.610 Q38.131 3.579 38.522 3.579 Q39.725 3.579 40.444 4.172 Q41.163 4.782 41.163 5.876 Q41.163 7.110 40.381 7.813 Q39.600 8.501 38.225 8.501 Z" style="fill:#fff"></path><rect x="33.99" y="11.66" width="7.43" height="1.05" style="fill:#fff"></rect><path d="M38.772 22.387 Q38.022 22.387 37.413 22.012 Q36.803 21.637 36.444 20.871 Q36.100 20.106 36.100 18.918 Q36.100 18.074 36.241 17.262 Q36.397 16.434 36.772 15.777 Q37.178 15.106 37.881 14.715 Q38.584 14.309 39.694 14.309 Q39.928 14.309 40.194 14.340 Q40.491 14.356 40.663 14.418 L40.663 15.231 Q40.459 15.168 40.209 15.137 Q39.975 15.106 39.709 15.106 Q38.959 15.106 38.444 15.356 Q37.944 15.606 37.647 16.059 Q37.366 16.496 37.225 17.059 Q37.100 17.637 37.069 18.277 L37.131 18.277 Q37.381 17.902 37.834 17.637 Q38.288 17.356 38.991 17.356 Q40.006 17.356 40.631 17.981 Q41.272 18.606 41.272 19.746 Q41.272 20.981 40.584 21.684 Q39.913 22.387 38.772 22.387 Z M38.756 21.574 Q39.444 21.574 39.881 21.137 Q40.303 20.684 40.303 19.746 Q40.303 18.996 39.928 18.559 Q39.553 18.121 38.788 18.121 Q38.272 18.121 37.881 18.340 Q37.506 18.543 37.288 18.871 Q37.069 19.215 37.069 19.559 Q37.069 20.027 37.256 20.512 Q37.444 20.965 37.819 21.277 Q38.194 21.574 38.756 21.574 Z" style="fill:#fff"></path></g></g></g><g class="mindmap-node section-4" transform="translate(325.09,205.33)"><path d="M-48.98 13.09 v-26.19 q0,-5.00 5.00,-5.00 h87.95 q5.00,0 5.00,5.00 v31.19 H-48.98 Z" style="fill:#edc948;stroke:none"></path><line x1="-48.98" y1="18.09" x2="48.98" y2="18.09" style="stroke:#edc948;stroke-width:2;fill:none"></line><text x="0.00" y="0.00" text-anchor="middle" dominant-baseline="central" style="fill:#fff;font-size:14px">Fractions</text></g><g class="mindmap-node section-root" transform="translate(397.22,336.85)"><path d="M-40.00 13.09 v-26.19 q0,-5.00 5.00,-5.00 h70.00 q5.00,0 5.00,5.00 v31.19 H-40.00 Z" style="fill:#4e79a7;stroke:none"></path><line x1="-40.00" y1="18.09" x2="40.00" y2="18.09" style="stroke:#4e79a7;stroke-width:2;fill:none"></line><text x="0.00" y="0.00" text-anchor="middle" dominant-baseline="central" style="fill:#fff;font-size:14px">Root</text></g></g></svg>