<?xml version="1.0" encoding="UTF-8"?>
<svg xmlns="http://www.w3.org/2000/svg" viewBox="0 0 884.55 697.86" role="graphics-document document" aria-roledescription="mindmap"><rect x="0.00" y="0.00" width="884.55" height="697.86" style="fill:#fff;stroke:none"></rect><g><path d="M468.22,334.92 Q528.65,288.90 571.70,226.33" style="stroke:#f28e2b;stroke-width:17;fill:none"></path><path d="M571.70,226.33 Q647.23,168.80 701.05,90.59" style="stroke:#f28e2b;stroke-width:14;fill:none"></path><path d="M468.22,334.92 Q524.96,385.41 594.62,415.69" style="stroke:#e15759;stroke-width:17;fill:none"></path><path d="M594.62,415.69 Q665.54,478.81 752.61,516.65" style="stroke:#e15759;stroke-width:14;fill:none"></path><path d="M468.22,334.92 Q436.78,404.06 428.48,479.56" style="stroke:#76b7b2;stroke-width:17;fill:none"></path><path d="M428.48,479.56 Q389.19,565.99 378.82,660.36" style="stroke:#76b7b2;stroke-width:14;fill:none"></path><path d="M468.22,334.92 Q392.79,325.99 318.34,341.04" style="stroke:#59a14f;stroke-width:17;fill:none"></path><path d="M318.34,341.04 Q224.06,329.89 131.00,348.70" style="stroke:#59a14f;stroke-width:14;fill:none"></path><path d="M468.22,334.92 Q442.67,263.39 396.09,203.40" style="stroke:#edc948;stroke-width:17;fill:none"></path><path d="M396.09,203.40 Q364.16,113.99 305.93,39.00" style="stroke:#edc948;stroke-width:14;fill:none"></path></g><g><g class="mindmap-node section-0" transform="translate(701.05,90.59)"><path d="M-163.50 13.00 v-26.00 q0,-5.00 5.00,-5.00 h317.00 q5.00,0 5.00,5.00 v31.00 H-163.50 Z" style="fill:#f28e2b;stroke:none"></path><line x1="-163.50" y1="18.00" x2="163.50" y2="18.00" style="stroke:#f28e2b;stroke-width:2;fill:none"></line><text x="0.00" y="0.00" text-anchor="middle" dominant-baseline="central" style="fill:#fff;font-size:14px">frac{-b pm sqrt{b times b - 4ac}}{2a}</text></g><g class="mindmap-node section-0" transform="translate(571.70,226.33)"><path d="M-76.13 13.09 v-26.19 q0,-5.00 5.00,-5.00 h142.27 q5.00,0 5.00,5.00 v31.19 H-76.13 Z" style="fill:#f28e2b;stroke:none"></path><line x1="-76.13" y1="18.09" x2="76.13" y2="18.09" style="stroke:#f28e2b;stroke-width:2;fill:none"></line><text x="0.00" y="0.00" text-anchor="middle" dominant-baseline="central" style="fill:#fff;font-size:14px">Quadratic formula</text></g><g class="mindmap-node section-1" transform="translate(752.61,516.65)"><path d="M-69.00 13.00 v-26.00 q0,-5.00 5.00,-5.00 h128.00 q5.00,0 5.00,5.00 v31.00 H-69.00 Z" style="fill:#e15759;stroke:none"></path><line x1="-69.00" y1="18.00" x2="69.00" y2="18.00" style="stroke:#e15759;stroke-width:2;fill:none"></line><text x="0.00" y="0.00" text-anchor="middle" dominant-baseline="central" style="fill:#fff;font-size:14px">pi r times r</text></g><g class="mindmap-node section-1" transform="translate(594.62,415.69)"><path d="M-61.33 13.09 v-26.19 q0,-5.00 5.00,-5.00 h112.66 q5.00,0 5.00,5.00 v31.19 H-61.33 Z" style="fill:#e15759;stroke:none"></path><line x1="-61.33" y1="18.09" x2="61.33" y2="18.09" style="stroke:#e15759;stroke-width:2;fill:none"></line><text x="0.00" y="0.00" text-anchor="middle" dominant-baseline="central" style="fill:#fff;font-size:14px">Area of circle</text></g><g class="mindmap-node section-2" transform="translate(378.82,660.36)"><path d="M-40.00 12.50 v-25.00 q0,-5.00 5.00,-5.00 h70.00 q5.00,0 5.00,5.00 v30.00 H-40.00 Z" style="fill:#76b7b2;stroke:none"></path><line x1="-40.00" y1="17.50" x2="40.00" y2="17.50" style="stroke:#76b7b2;stroke-width:2;fill:none"></line><g transform="translate(-6.48,-7.50) scale(1.000)"><path d="M8.359 24.267 C8.359 24.548 8.094 24.595 7.906 24.595 L6.469 24.595 C5.906 24.595 5.906 24.204 5.797 23.736 L3.250 14.048 C3.203 13.845 3.125 13.611 3.094 13.408 L2.188 17.876 L0.469 15.204 L0.391 15.001 L0.609 14.767 L1.562 16.267 C1.609 15.845 1.750 15.408 1.828 14.970 L2.359 12.361 L2.531 11.454 C2.547 11.361 2.547 11.189 2.672 11.173 L2.812 11.173 C3.172 11.173 3.219 11.376 3.297 11.658 L3.922 14.064 L6.375 23.439 C6.422 23.611 6.484 23.767 6.500 23.954 L8.062 23.954 C8.219 23.970 8.359 24.111 8.359 24.267 Z" style="fill:#fff"></path><rect x="3.76" y="0.88" width="9.19" height="0.88" style="fill:#fff"></rect><path d="M9.372 16.815 L9.372 17.628 L5.669 17.628 L5.669 16.815 L9.372 16.815 Z" style="fill:#fff"></path><path d="M13.648 14.190 L13.648 14.628 L13.211 14.628 C11.945 14.628 11.898 14.784 11.898 15.299 L11.898 23.143 C11.898 23.487 11.898 23.518 11.586 23.518 C10.711 22.612 9.477 22.612 9.039 22.612 L9.039 22.190 C9.320 22.190 10.148 22.190 10.867 22.549 L10.867 15.299 C10.867 14.799 10.820 14.628 9.570 14.628 L9.117 14.628 L9.117 14.190 C9.602 14.237 10.820 14.237 11.383 14.237 C11.945 14.237 13.164 14.237 13.648 14.190 Z" style="fill:#fff"></path></g></g><g class="mindmap-node section-2" transform="translate(428.48,479.56)"><path d="M-65.16 13.09 v-26.19 q0,-5.00 5.00,-5.00 h120.33 q5.00,0 5.00,5.00 v31.19 H-65.16 Z" style="fill:#76b7b2;stroke:none"></path><line x1="-65.16" y1="18.09" x2="65.16" y2="18.09" style="stroke:#76b7b2;stroke-width:2;fill:none"></line><text x="0.00" y="0.00" text-anchor="middle" dominant-baseline="central" style="fill:#fff;font-size:14px">Imaginary unit</text></g><g class="mindmap-node section-3" transform="translate(131.00,348.70)"><path d="M-111.00 13.00 v-26.00 q0,-5.00 5.00,-5.00 h212.00 q5.00,0 5.00,5.00 v31.00 H-111.00 Z" style="fill:#59a14f;stroke:none"></path><line x1="-111.00" y1="18.00" x2="111.00" y2="18.00" style="stroke:#59a14f;stroke-width:2;fill:none"></line><text x="0.00" y="0.00" text-anchor="middle" dominant-baseline="central" style="fill:#fff;font-size:14px">alpha beta gamma delta</text></g><g class="mindmap-node section-3" transform="translate(318.34,341.04)"><path d="M-60.44 13.09 v-26.19 q0,-5.00 5.00,-5.00 h110.88 q5.00,0 5.00,5.00 v31.19 H-60.44 Z" style="fill:#59a14f;stroke:none"></path><line x1="-60.44" y1="18.09" x2="60.44" y2="18.09" style="stroke:#59a14f;stroke-width:2;fill:none"></line><text x="0.00" y="0.00" text-anchor="middle" dominant-baseline="central" style="fill:#fff;font-size:14px">Greek letters</text></g><g class="mindmap-node section-4" transform="translate(305.93,39.00)"><path d="M-40.00 14.00 v-28.00 q0,-5.00 5.00,-5.00 h70.00 q5.00,0 5.00,5.00 v33.00 H-40.00 Z" style="fill:#edc948;stroke:none"></path><line x1="-40.00" y1="19.00" x2="40.00" y2="19.00" style="stroke:#edc948;stroke-width:2;fill:none"></line><g transform="translate(-16.08,-9.00) scale(1.000)"><path d="M3.766 6.738 L3.766 7.019 L3.484 7.019 C2.672 7.019 2.641 7.113 2.641 7.456 L2.641 12.503 C2.641 12.706 2.641 12.738 2.438 12.738 C1.875 12.159 1.094 12.159 0.797 12.159 L0.797 11.878 C0.984 11.878 1.516 11.878 1.984 12.113 L1.984 7.456 C1.984 7.128 1.953 7.019 1.141 7.019 L0.859 7.019 L0.859 6.738 C1.172 6.769 1.953 6.769 2.312 6.769 C2.672 6.769 3.453 6.769 3.766 6.738 Z" style="fill:#fff"></path><rect x="0.00" y="9.36" width="2.39" height="0.88" style="fill:#fff"></rect><path d="M4.047 19.196 L3.812 19.196 C3.766 18.930 3.703 18.539 3.625 18.399 C3.562 18.321 2.969 18.321 2.766 18.321 L1.141 18.321 L2.094 19.258 C3.500 20.492 4.047 20.977 4.047 21.883 C4.047 22.914 3.234 23.633 2.141 23.633 C1.109 23.633 0.453 22.805 0.453 21.992 C0.453 21.492 0.906 21.492 0.922 21.492 C1.078 21.492 1.391 21.602 1.391 21.977 C1.391 22.211 1.234 22.446 0.922 22.446 C0.844 22.446 0.828 22.446 0.797 22.430 C1.016 23.008 1.500 23.352 2.016 23.352 C2.828 23.352 3.219 22.617 3.219 21.883 C3.219 21.164 2.766 20.446 2.281 19.899 L0.547 17.961 C0.453 17.867 0.453 17.852 0.453 17.633 L3.781 17.633 L4.047 19.196 Z" style="fill:#fff"></path><path d="M16.513 15.488 C16.513 15.769 16.247 15.769 16.044 15.769 L12.138 15.769 L12.138 19.691 C12.138 19.878 12.138 20.144 11.872 20.144 C11.591 20.144 11.591 19.878 11.591 19.691 L11.591 15.769 L7.669 15.769 C7.466 15.769 7.200 15.769 7.200 15.488 C7.200 15.206 7.466 15.206 7.669 15.206 L11.591 15.206 L11.591 11.284 C11.591 11.097 11.591 10.831 11.872 10.831 C12.138 10.831 12.138 11.097 12.138 11.284 L12.138 15.206 L16.044 15.206 C16.247 15.206 16.513 15.206 16.513 15.488 Z" style="fill:#fff"></path><path d="M17.779 6.738 L17.779 7.019 L17.498 7.019 C16.686 7.019 16.654 7.113 16.654 7.456 L16.654 12.503 C16.654 12.706 16.654 12.738 16.451 12.738 C15.889 12.159 15.107 12.159 14.811 12.159 L14.811 11.878 C14.998 11.878 15.529 11.878 15.998 12.113 L15.998 7.456 C15.998 7.128 15.967 7.019 15.154 7.019 L14.873 7.019 L14.873 6.738 C15.186 6.769 15.967 6.769 16.326 6.769 C16.686 6.769 17.467 6.769 17.779 6.738 Z" style="fill:#fff"></path><rect x="14.01" y="9.36" width="2.39" height="0.88" style="fill:#fff"></rect><path d="M18.123 19.164 C18.123 19.914 17.561 20.617 16.623 20.805 C17.357 21.039 17.889 21.680 17.889 22.383 C17.889 23.117 17.092 23.633 16.232 23.633 C15.326 23.633 14.639 23.086 14.639 22.399 C14.639 22.102 14.826 21.930 15.092 21.930 C15.373 21.930 15.545 22.133 15.545 22.399 C15.545 22.852 15.123 22.852 14.998 22.852 C15.279 23.289 15.873 23.399 16.186 23.399 C16.561 23.399 17.061 23.211 17.061 22.399 C17.061 22.289 17.045 21.758 16.811 21.367 C16.529 20.930 16.232 20.914 15.998 20.899 C15.936 20.899 15.717 20.867 15.654 20.867 C15.576 20.867 15.514 20.852 15.514 20.758 C15.514 20.664 15.576 20.664 15.732 20.664 L16.123 20.664 C16.873 20.664 17.201 20.055 17.201 19.164 C17.201 17.946 16.576 17.680 16.186 17.680 C15.795 17.680 15.123 17.836 14.811 18.367 C15.123 18.321 15.404 18.524 15.404 18.867 C15.404 19.196 15.154 19.367 14.889 19.367 C14.686 19.367 14.389 19.242 14.389 18.852 C14.389 18.024 15.232 17.430 16.217 17.430 C17.311 17.430 18.123 18.258 18.123 19.164 Z" style="fill:#fff"></path><path d="M30.526 16.847 C30.526 17.128 30.261 17.128 30.058 17.128 L21.683 17.128 C21.479 17.128 21.214 17.128 21.214 16.847 C21.214 16.566 21.479 16.566 21.698 16.566 L30.058 16.566 C30.261 16.566 30.526 16.566 30.526 16.847 Z M30.526 14.128 C30.526 14.409 30.261 14.409 30.058 14.409 L21.698 14.409 C21.479 14.409 21.214 14.409 21.214 14.128 C21.214 13.847 21.479 13.847 21.683 13.847 L30.058 13.847 C30.261 13.847 30.526 13.847 30.526 14.128 Z" style="fill:#fff"></path><path d="M32.074 8.333 C32.074 9.396 31.324 10.302 30.355 10.302 C29.934 10.302 29.543 10.161 29.215 9.849 L29.215 11.599 C29.402 11.536 29.699 11.474 29.980 11.474 C31.090 11.474 31.715 12.302 31.715 12.411 C31.715 12.474 31.684 12.521 31.621 12.521 C31.621 12.521 31.605 12.521 31.559 12.489 C31.371 12.411 30.934 12.224 30.324 12.224 C29.965 12.224 29.559 12.286 29.137 12.474 C29.059 12.505 29.027 12.505 29.027 12.505 C28.934 12.505 28.934 12.427 28.934 12.286 L28.934 9.630 C28.934 9.458 28.934 9.396 29.059 9.396 C29.121 9.396 29.137 9.411 29.184 9.474 C29.277 9.614 29.605 10.099 30.340 10.099 C30.809 10.099 31.027 9.692 31.105 9.521 C31.246 9.192 31.262 8.849 31.262 8.396 C31.262 8.083 31.262 7.536 31.059 7.161 C30.840 6.802 30.496 6.567 30.090 6.567 C29.434 6.567 28.918 7.052 28.762 7.583 C28.793 7.567 28.824 7.567 28.918 7.567 C29.215 7.567 29.371 7.786 29.371 8.005 C29.371 8.224 29.215 8.442 28.918 8.442 C28.793 8.442 28.480 8.380 28.480 7.974 C28.480 7.192 29.105 6.317 30.105 6.317 C31.152 6.317 32.074 7.192 32.074 8.333 Z" style="fill:#fff"></path><rect x="28.03" y="9.36" width="2.39" height="0.88" style="fill:#fff"></rect><path d="M32.137 19.477 C32.137 20.617 31.340 21.477 30.340 21.477 C29.730 21.477 29.402 21.024 29.215 20.586 L29.215 20.805 C29.215 23.071 30.324 23.399 30.793 23.399 C31.012 23.399 31.387 23.352 31.590 23.039 C31.449 23.039 31.090 23.039 31.090 22.633 C31.090 22.352 31.309 22.227 31.496 22.227 C31.652 22.227 31.918 22.305 31.918 22.649 C31.918 23.196 31.512 23.633 30.777 23.633 C29.621 23.633 28.402 22.461 28.402 20.477 C28.402 18.071 29.449 17.430 30.293 17.430 C31.293 17.430 32.137 18.274 32.137 19.477 Z M31.324 19.477 C31.324 19.039 31.324 18.602 31.184 18.274 C30.902 17.727 30.496 17.680 30.293 17.680 C29.715 17.680 29.449 18.227 29.402 18.367 C29.230 18.789 29.230 19.508 29.230 19.664 C29.230 20.367 29.527 21.274 30.324 21.274 C30.480 21.274 30.887 21.274 31.168 20.711 C31.324 20.383 31.324 19.914 31.324 19.477 Z" style="fill:#fff"></path></g></g><g class="mindmap-node section-4" transform="translate(396.09,203.40)"><path d="M-48.98 13.09 v-26.19 q0,-5.00 5.00,-5.00 h87.95 q5.00,0 5.00,5.00 v31.19 H-48.98 Z" style="fill:#edc948;stroke:none"></path><line x1="-48.98" y1="18.09" x2="48.98" y2="18.09" style="stroke:#edc948;stroke-width:2;fill:none"></line><text x="0.00" y="0.00" text-anchor="middle" dominant-baseline="central" style="fill:#fff;font-size:14px">Fractions</text></g><g class="mindmap-node section-root" transform="translate(468.22,334.92)"><path d="M-40.00 13.09 v-26.19 q0,-5.00 5.00,-5.00 h70.00 q5.00,0 5.00,5.00 v31.19 H-40.00 Z" style="fill:#4e79a7;stroke:none"></path><line x1="-40.00" y1="18.09" x2="40.00" y2="18.09" style="stroke:#4e79a7;stroke-width:2;fill:none"></line><text x="0.00" y="0.00" text-anchor="middle" dominant-baseline="central" style="fill:#fff;font-size:14px">Root</text></g></g></svg>