<?xml version="1.0" encoding="UTF-8"?>
<svg xmlns="http://www.w3.org/2000/svg" viewBox="0 0 772.66 655.10" role="graphics-document document" aria-roledescription="mindmap"><rect x="0.00" y="0.00" width="772.66" height="655.10" style="fill:#fff;stroke:none"></rect><g><path d="M377.32,292.52 Q451.79,277.55 517.87,240.11" style="stroke:#f28e2b;stroke-width:17;fill:none"></path><path d="M517.87,240.11 Q566.17,158.37 586.56,65.64" style="stroke:#f28e2b;stroke-width:14;fill:none"></path><path d="M517.87,240.11 Q609.09,213.79 687.55,160.32" style="stroke:#f28e2b;stroke-width:14;fill:none"></path><path d="M517.87,240.11 Q598.42,290.37 690.62,312.99" style="stroke:#f28e2b;stroke-width:14;fill:none"></path><path d="M377.32,292.52 Q343.49,360.52 332.56,435.68" style="stroke:#e15759;stroke-width:17;fill:none"></path><path d="M332.56,435.68 Q341.92,530.16 380.29,617.01" style="stroke:#e15759;stroke-width:14;fill:none"></path><path d="M332.56,435.68 Q257.13,493.34 203.45,571.65" style="stroke:#e15759;stroke-width:14;fill:none"></path><path d="M377.32,292.52 Q325.43,237.05 258.82,200.55" style="stroke:#76b7b2;stroke-width:17;fill:none"></path><path d="M258.82,200.55 Q168.01,172.87 73.09,174.90" style="stroke:#76b7b2;stroke-width:14;fill:none"></path><path d="M258.82,200.55 Q225.01,111.83 165.21,38.09" style="stroke:#76b7b2;stroke-width:14;fill:none"></path></g><g><g class="mindmap-node section-0" transform="translate(586.56,65.64)"><path d="M-50.68 13.09 v-26.19 q0,-5.00 5.00,-5.00 h91.36 q5.00,0 5.00,5.00 v31.19 H-50.68 Z" style="fill:#f28e2b;stroke:none"></path><line x1="-50.68" y1="18.09" x2="50.68" y2="18.09" style="stroke:#f28e2b;stroke-width:2;fill:none"></line><text x="0.00" y="0.00" text-anchor="middle" dominant-baseline="central" style="fill:#fff;font-size:14px">Flowchart</text></g><g class="mindmap-node section-0" transform="translate(687.55,160.32)"><path d="M-51.52 13.09 v-26.19 q0,-5.00 5.00,-5.00 h93.03 q5.00,0 5.00,5.00 v31.19 H-51.52 Z" style="fill:#f28e2b;stroke:none"></path><line x1="-51.52" y1="18.09" x2="51.52" y2="18.09" style="stroke:#f28e2b;stroke-width:2;fill:none"></line><text x="0.00" y="0.00" text-anchor="middle" dominant-baseline="central" style="fill:#fff;font-size:14px">Sequence</text></g><g class="mindmap-node section-0" transform="translate(690.62,312.99)"><path d="M-62.04 13.09 v-26.19 q0,-5.00 5.00,-5.00 h114.08 q5.00,0 5.00,5.00 v31.19 H-62.04 Z" style="fill:#f28e2b;stroke:none"></path><line x1="-62.04" y1="18.09" x2="62.04" y2="18.09" style="stroke:#f28e2b;stroke-width:2;fill:none"></line><text x="0.00" y="0.00" text-anchor="middle" dominant-baseline="central" style="fill:#fff;font-size:14px">16 types total</text></g><g class="mindmap-node section-0" transform="translate(517.87,240.11)"><path d="M-44.11 13.09 v-26.19 q0,-5.00 5.00,-5.00 h78.22 q5.00,0 5.00,5.00 v31.19 H-44.11 Z" style="fill:#f28e2b;stroke:none"></path><line x1="-44.11" y1="18.09" x2="44.11" y2="18.09" style="stroke:#f28e2b;stroke-width:2;fill:none"></line><text x="0.00" y="0.00" text-anchor="middle" dominant-baseline="central" style="fill:#fff;font-size:14px">Parsers</text></g><g class="mindmap-node section-1" transform="translate(380.29,617.01)"><path d="M-56.25 13.09 v-26.19 q0,-5.00 5.00,-5.00 h102.50 q5.00,0 5.00,5.00 v31.19 H-56.25 Z" style="fill:#e15759;stroke:none"></path><line x1="-56.25" y1="18.09" x2="56.25" y2="18.09" style="stroke:#e15759;stroke-width:2;fill:none"></line><text x="0.00" y="0.00" text-anchor="middle" dominant-baseline="central" style="fill:#fff;font-size:14px">SVG output</text></g><g class="mindmap-node section-1" transform="translate(203.45,571.65)"><path d="M-70.35 13.09 v-26.19 q0,-5.00 5.00,-5.00 h130.70 q5.00,0 5.00,5.00 v31.19 H-70.35 Z" style="fill:#e15759;stroke:none"></path><line x1="-70.35" y1="18.09" x2="70.35" y2="18.09" style="stroke:#e15759;stroke-width:2;fill:none"></line><text x="0.00" y="0.00" text-anchor="middle" dominant-baseline="central" style="fill:#fff;font-size:14px">PNG via canvas</text></g><g class="mindmap-node section-1" transform="translate(332.56,435.68)"><path d="M-52.66 13.09 v-26.19 q0,-5.00 5.00,-5.00 h95.33 q5.00,0 5.00,5.00 v31.19 H-52.66 Z" style="fill:#e15759;stroke:none"></path><line x1="-52.66" y1="18.09" x2="52.66" y2="18.09" style="stroke:#e15759;stroke-width:2;fill:none"></line><text x="0.00" y="0.00" text-anchor="middle" dominant-baseline="central" style="fill:#fff;font-size:14px">Renderers</text></g><g class="mindmap-node section-2" transform="translate(73.09,174.90)"><path d="M-53.09 13.09 v-26.19 q0,-5.00 5.00,-5.00 h96.17 q5.00,0 5.00,5.00 v31.19 H-53.09 Z" style="fill:#76b7b2;stroke:none"></path><line x1="-53.09" y1="18.09" x2="53.09" y2="18.09" style="stroke:#76b7b2;stroke-width:2;fill:none"></line><text x="0.00" y="0.00" text-anchor="middle" dominant-baseline="central" style="fill:#fff;font-size:14px">Dagre port</text></g><g class="mindmap-node section-2" transform="translate(165.21,38.09)"><path d="M-71.40 13.09 v-26.19 q0,-5.00 5.00,-5.00 h132.80 q5.00,0 5.00,5.00 v31.19 H-71.40 Z" style="fill:#76b7b2;stroke:none"></path><line x1="-71.40" y1="18.09" x2="71.40" y2="18.09" style="stroke:#76b7b2;stroke-width:2;fill:none"></line><text x="0.00" y="0.00" text-anchor="middle" dominant-baseline="central" style="fill:#fff;font-size:14px">Custom per type</text></g><g class="mindmap-node section-2" transform="translate(258.82,200.55)"><path d="M-41.04 13.09 v-26.19 q0,-5.00 5.00,-5.00 h72.08 q5.00,0 5.00,5.00 v31.19 H-41.04 Z" style="fill:#76b7b2;stroke:none"></path><line x1="-41.04" y1="18.09" x2="41.04" y2="18.09" style="stroke:#76b7b2;stroke-width:2;fill:none"></line><text x="0.00" y="0.00" text-anchor="middle" dominant-baseline="central" style="fill:#fff;font-size:14px">Layout</text></g><g class="mindmap-node section-root" transform="translate(377.32,292.52)"><path d="M-40.00 13.09 v-26.19 q0,-5.00 5.00,-5.00 h70.00 q5.00,0 5.00,5.00 v31.19 H-40.00 Z" style="fill:#4e79a7;stroke:none"></path><line x1="-40.00" y1="18.09" x2="40.00" y2="18.09" style="stroke:#4e79a7;stroke-width:2;fill:none"></line><text x="0.00" y="0.00" text-anchor="middle" dominant-baseline="central" style="fill:#fff;font-size:14px">mmgo</text></g></g></svg>