<?xml version="1.0" encoding="UTF-8"?>
<svg xmlns="http://www.w3.org/2000/svg" viewBox="0 0 589.40 487.24" role="graphics-document document" aria-roledescription="mindmap"><rect x="0.00" y="0.00" width="589.40" height="487.24" style="fill:#fff;stroke:none"></rect><g><path d="M283.90,221.03 Q344.53,217.04 400.89,194.33" style="stroke:#f28e2b;stroke-width:17;fill:none"></path><path d="M400.89,194.33 Q435.57,144.43 452.95,86.21" style="stroke:#f28e2b;stroke-width:14;fill:none"></path><path d="M400.89,194.33 Q461.52,190.33 517.88,167.62" style="stroke:#f28e2b;stroke-width:14;fill:none"></path><path d="M400.89,194.33 Q441.81,239.24 494.71,269.15" style="stroke:#f28e2b;stroke-width:14;fill:none"></path><path d="M283.90,221.03 Q249.21,270.92 231.83,329.15" style="stroke:#e15759;stroke-width:17;fill:none"></path><path d="M231.83,329.15 Q222.23,389.15 231.83,449.15" style="stroke:#e15759;stroke-width:14;fill:none"></path><path d="M231.83,329.15 Q178.94,359.05 138.01,403.96" style="stroke:#e15759;stroke-width:14;fill:none"></path><path d="M283.90,221.03 Q242.97,176.11 190.08,146.21" style="stroke:#76b7b2;stroke-width:17;fill:none"></path><path d="M190.08,146.21 Q133.72,123.50 73.09,119.51" style="stroke:#76b7b2;stroke-width:14;fill:none"></path><path d="M190.08,146.21 Q172.69,87.99 138.01,38.09" style="stroke:#76b7b2;stroke-width:14;fill:none"></path></g><g><g class="mindmap-node section-0" transform="translate(452.95,86.21)"><path d="M-50.68 13.09 v-26.19 q0,-5.00 5.00,-5.00 h91.36 q5.00,0 5.00,5.00 v31.19 H-50.68 Z" style="fill:#f28e2b;stroke:none"></path><line x1="-50.68" y1="18.09" x2="50.68" y2="18.09" style="stroke:#f28e2b;stroke-width:2;fill:none"></line><text x="0.00" y="0.00" text-anchor="middle" dominant-baseline="central" style="fill:#fff;font-size:14px">Flowchart</text></g><g class="mindmap-node section-0" transform="translate(517.88,167.62)"><path d="M-51.52 13.09 v-26.19 q0,-5.00 5.00,-5.00 h93.03 q5.00,0 5.00,5.00 v31.19 H-51.52 Z" style="fill:#f28e2b;stroke:none"></path><line x1="-51.52" y1="18.09" x2="51.52" y2="18.09" style="stroke:#f28e2b;stroke-width:2;fill:none"></line><text x="0.00" y="0.00" text-anchor="middle" dominant-baseline="central" style="fill:#fff;font-size:14px">Sequence</text></g><g class="mindmap-node section-0" transform="translate(494.71,269.15)"><path d="M-62.04 13.09 v-26.19 q0,-5.00 5.00,-5.00 h114.08 q5.00,0 5.00,5.00 v31.19 H-62.04 Z" style="fill:#f28e2b;stroke:none"></path><line x1="-62.04" y1="18.09" x2="62.04" y2="18.09" style="stroke:#f28e2b;stroke-width:2;fill:none"></line><text x="0.00" y="0.00" text-anchor="middle" dominant-baseline="central" style="fill:#fff;font-size:14px">16 types total</text></g><g class="mindmap-node section-0" transform="translate(400.89,194.33)"><path d="M-44.11 13.09 v-26.19 q0,-5.00 5.00,-5.00 h78.22 q5.00,0 5.00,5.00 v31.19 H-44.11 Z" style="fill:#f28e2b;stroke:none"></path><line x1="-44.11" y1="18.09" x2="44.11" y2="18.09" style="stroke:#f28e2b;stroke-width:2;fill:none"></line><text x="0.00" y="0.00" text-anchor="middle" dominant-baseline="central" style="fill:#fff;font-size:14px">Parsers</text></g><g class="mindmap-node section-1" transform="translate(231.83,449.15)"><path d="M-56.25 13.09 v-26.19 q0,-5.00 5.00,-5.00 h102.50 q5.00,0 5.00,5.00 v31.19 H-56.25 Z" style="fill:#e15759;stroke:none"></path><line x1="-56.25" y1="18.09" x2="56.25" y2="18.09" style="stroke:#e15759;stroke-width:2;fill:none"></line><text x="0.00" y="0.00" text-anchor="middle" dominant-baseline="central" style="fill:#fff;font-size:14px">SVG output</text></g><g class="mindmap-node section-1" transform="translate(138.01,403.96)"><path d="M-70.35 13.09 v-26.19 q0,-5.00 5.00,-5.00 h130.70 q5.00,0 5.00,5.00 v31.19 H-70.35 Z" style="fill:#e15759;stroke:none"></path><line x1="-70.35" y1="18.09" x2="70.35" y2="18.09" style="stroke:#e15759;stroke-width:2;fill:none"></line><text x="0.00" y="0.00" text-anchor="middle" dominant-baseline="central" style="fill:#fff;font-size:14px">PNG via canvas</text></g><g class="mindmap-node section-1" transform="translate(231.83,329.15)"><path d="M-52.66 13.09 v-26.19 q0,-5.00 5.00,-5.00 h95.33 q5.00,0 5.00,5.00 v31.19 H-52.66 Z" style="fill:#e15759;stroke:none"></path><line x1="-52.66" y1="18.09" x2="52.66" y2="18.09" style="stroke:#e15759;stroke-width:2;fill:none"></line><text x="0.00" y="0.00" text-anchor="middle" dominant-baseline="central" style="fill:#fff;font-size:14px">Renderers</text></g><g class="mindmap-node section-2" transform="translate(73.09,119.51)"><path d="M-53.09 13.09 v-26.19 q0,-5.00 5.00,-5.00 h96.17 q5.00,0 5.00,5.00 v31.19 H-53.09 Z" style="fill:#76b7b2;stroke:none"></path><line x1="-53.09" y1="18.09" x2="53.09" y2="18.09" style="stroke:#76b7b2;stroke-width:2;fill:none"></line><text x="0.00" y="0.00" text-anchor="middle" dominant-baseline="central" style="fill:#fff;font-size:14px">Dagre port</text></g><g class="mindmap-node section-2" transform="translate(138.01,38.09)"><path d="M-71.40 13.09 v-26.19 q0,-5.00 5.00,-5.00 h132.80 q5.00,0 5.00,5.00 v31.19 H-71.40 Z" style="fill:#76b7b2;stroke:none"></path><line x1="-71.40" y1="18.09" x2="71.40" y2="18.09" style="stroke:#76b7b2;stroke-width:2;fill:none"></line><text x="0.00" y="0.00" text-anchor="middle" dominant-baseline="central" style="fill:#fff;font-size:14px">Custom per type</text></g><g class="mindmap-node section-2" transform="translate(190.08,146.21)"><path d="M-41.04 13.09 v-26.19 q0,-5.00 5.00,-5.00 h72.08 q5.00,0 5.00,5.00 v31.19 H-41.04 Z" style="fill:#76b7b2;stroke:none"></path><line x1="-41.04" y1="18.09" x2="41.04" y2="18.09" style="stroke:#76b7b2;stroke-width:2;fill:none"></line><text x="0.00" y="0.00" text-anchor="middle" dominant-baseline="central" style="fill:#fff;font-size:14px">Layout</text></g><g class="mindmap-node section-root" transform="translate(283.90,221.03)"><path d="M-40.00 13.09 v-26.19 q0,-5.00 5.00,-5.00 h70.00 q5.00,0 5.00,5.00 v31.19 H-40.00 Z" style="fill:#4e79a7;stroke:none"></path><line x1="-40.00" y1="18.09" x2="40.00" y2="18.09" style="stroke:#4e79a7;stroke-width:2;fill:none"></line><text x="0.00" y="0.00" text-anchor="middle" dominant-baseline="central" style="fill:#fff;font-size:14px">mmgo</text></g></g></svg>