<?xml version="1.0" encoding="UTF-8"?>
<svg xmlns="http://www.w3.org/2000/svg" viewBox="0 0 1170.64 176.19"><rect x="0.00" y="0.00" width="1170.64" height="176.19" style="fill:#fff;stroke:none"></rect><line x1="643.02" y1="38.09" x2="222.88" y2="88.09" style="stroke:#999;stroke-width:2;fill:none"></line><line x1="643.02" y1="38.09" x2="643.02" y2="88.09" style="stroke:#999;stroke-width:2;fill:none"></line><line x1="643.02" y1="38.09" x2="992.00" y2="88.09" style="stroke:#999;stroke-width:2;fill:none"></line><line x1="222.88" y1="88.09" x2="70.68" y2="138.09" style="stroke:#999;stroke-width:2;fill:none"></line><line x1="222.88" y1="88.09" x2="222.88" y2="138.09" style="stroke:#999;stroke-width:2;fill:none"></line><line x1="222.88" y1="88.09" x2="386.43" y2="138.09" style="stroke:#999;stroke-width:2;fill:none"></line><line x1="643.02" y1="88.09" x2="554.72" y2="138.09" style="stroke:#999;stroke-width:2;fill:none"></line><line x1="643.02" y1="88.09" x2="731.32" y2="138.09" style="stroke:#999;stroke-width:2;fill:none"></line><line x1="992.00" y1="88.09" x2="904.76" y2="138.09" style="stroke:#999;stroke-width:2;fill:none"></line><line x1="992.00" y1="88.09" x2="1079.24" y2="138.09" style="stroke:#999;stroke-width:2;fill:none"></line><rect x="603.02" y="20.00" width="80.00" height="36.19" rx="5.00" ry="5.00" style="fill:#4e79a7;stroke:none"></rect><text x="643.02" y="38.09" text-anchor="middle" dominant-baseline="central" style="fill:white;font-size:14px;font-weight:bold">mmgo</text><rect x="178.77" y="70.00" width="88.22" height="36.19" rx="5.00" ry="5.00" style="fill:#f28e2b;stroke:none"></rect><text x="222.88" y="88.09" text-anchor="middle" dominant-baseline="central" style="fill:white;font-size:14px;font-weight:bold">Parsers</text><rect x="20.00" y="120.00" width="101.36" height="36.19" rx="5.00" ry="5.00" style="fill:#e15759;stroke:none"></rect><text x="70.68" y="138.09" text-anchor="middle" dominant-baseline="central" style="fill:white;font-size:14px;font-weight:bold">Flowchart</text><rect x="171.36" y="120.00" width="103.03" height="36.19" rx="5.00" ry="5.00" style="fill:#e15759;stroke:none"></rect><text x="222.88" y="138.09" text-anchor="middle" dominant-baseline="central" style="fill:white;font-size:14px;font-weight:bold">Sequence</text><rect x="324.39" y="120.00" width="124.08" height="36.19" rx="5.00" ry="5.00" style="fill:#e15759;stroke:none"></rect><text x="386.43" y="138.09" text-anchor="middle" dominant-baseline="central" style="fill:white;font-size:14px;font-weight:bold">16 types total</text><rect x="590.36" y="70.00" width="105.33" height="36.19" rx="5.00" ry="5.00" style="fill:#f28e2b;stroke:none"></rect><text x="643.02" y="88.09" text-anchor="middle" dominant-baseline="central" style="fill:white;font-size:14px;font-weight:bold">Renderers</text><rect x="498.47" y="120.00" width="112.50" height="36.19" rx="5.00" ry="5.00" style="fill:#e15759;stroke:none"></rect><text x="554.72" y="138.09" text-anchor="middle" dominant-baseline="central" style="fill:white;font-size:14px;font-weight:bold">SVG output</text><rect x="660.97" y="120.00" width="140.70" height="36.19" rx="5.00" ry="5.00" style="fill:#e15759;stroke:none"></rect><text x="731.32" y="138.09" text-anchor="middle" dominant-baseline="central" style="fill:white;font-size:14px;font-weight:bold">PNG via canvas</text><rect x="950.96" y="70.00" width="82.08" height="36.19" rx="5.00" ry="5.00" style="fill:#f28e2b;stroke:none"></rect><text x="992.00" y="88.09" text-anchor="middle" dominant-baseline="central" style="fill:white;font-size:14px;font-weight:bold">Layout</text><rect x="851.67" y="120.00" width="106.17" height="36.19" rx="5.00" ry="5.00" style="fill:#e15759;stroke:none"></rect><text x="904.76" y="138.09" text-anchor="middle" dominant-baseline="central" style="fill:white;font-size:14px;font-weight:bold">Dagre port</text><rect x="1007.84" y="120.00" width="142.80" height="36.19" rx="5.00" ry="5.00" style="fill:#e15759;stroke:none"></rect><text x="1079.24" y="138.09" text-anchor="middle" dominant-baseline="central" style="fill:white;font-size:14px;font-weight:bold">Custom per type</text></svg>