<?xml version="1.0" encoding="UTF-8"?>
<svg xmlns="http://www.w3.org/2000/svg" viewBox="0 0 659.41 359.74" role="graphics-document document" aria-roledescription="mindmap"><rect x="0.00" y="0.00" width="659.41" height="359.74" style="fill:#fff;stroke:none"></rect><g><path d="M414.95,97.87 Q490.17,87.32 558.34,53.83" style="stroke:#f28e2b;stroke-width:17;fill:none"></path><path d="M414.95,97.87 Q339.73,108.41 271.56,141.91" style="stroke:#e15759;stroke-width:17;fill:none"></path><path d="M271.56,141.91 Q230.48,227.50 218.17,321.64" style="stroke:#e15759;stroke-width:14;fill:none"></path><path d="M271.56,141.91 Q201.80,77.51 115.42,38.09" style="stroke:#e15759;stroke-width:14;fill:none"></path></g><g><g class="mindmap-node section-0" transform="translate(558.34,53.83)"><rect x="-81.07" y="-18.09" width="162.14" height="36.19" rx="18.09" ry="18.09" style="fill:#f28e2b;stroke:none"></rect><text x="0.00" y="0.00" text-anchor="middle" dominant-baseline="central" style="fill:#fff;font-size:14px">String with (parens)</text></g><g class="mindmap-node section-1" transform="translate(218.17,321.64)"><rect x="-82.83" y="-18.09" width="165.66" height="36.19" rx="18.09" ry="18.09" style="fill:#e15759;stroke:none"></rect><text x="0.00" y="0.00" text-anchor="middle" dominant-baseline="central" style="fill:#fff;font-size:14px">Even (deep) nesting</text></g><g class="mindmap-node section-1" transform="translate(115.42,38.09)"><polygon points="-86.38,-18.09 86.38,-18.09 95.42,0.00 86.38,18.09 -86.38,18.09 -95.42,0.00" style="fill:#e15759;stroke:none"></polygon><text x="0.00" y="0.00" text-anchor="middle" dominant-baseline="central" style="fill:#fff;font-size:14px">Hex with [mixed] (chars)</text></g><g class="mindmap-node section-1" transform="translate(271.56,141.91)"><rect x="-87.32" y="-18.09" width="174.64" height="36.19" style="fill:#e15759;stroke:none"></rect><text x="0.00" y="0.00" text-anchor="middle" dominant-baseline="central" style="fill:#fff;font-size:14px">Nested [shapes] work</text></g><g class="mindmap-node section-root" transform="translate(414.95,97.87)"><rect x="-85.39" y="-18.09" width="170.78" height="36.19" style="fill:#4e79a7;stroke:none"></rect><text x="0.00" y="0.00" text-anchor="middle" dominant-baseline="central" style="fill:#fff;font-size:14px">String with [brackets]</text></g></g></svg>