<?xml version="1.0" encoding="UTF-8"?>
<svg xmlns="http://www.w3.org/2000/svg" viewBox="0 0 438.17 359.45" role="graphics-document document" aria-roledescription="mindmap"><rect x="0.00" y="0.00" width="438.17" height="359.45" style="fill:#fff;stroke:none"></rect><g><path d="M217.41,175.94 Q258.02,111.75 276.57,38.09" style="stroke:#f28e2b;stroke-width:17;fill:none"></path><path d="M217.41,175.94 Q291.92,161.17 358.10,123.89" style="stroke:#e15759;stroke-width:17;fill:none"></path><path d="M217.41,175.94 Q277.52,222.38 349.11,247.75" style="stroke:#76b7b2;stroke-width:17;fill:none"></path><path d="M217.41,175.94 Q224.18,251.59 254.21,321.35" style="stroke:#59a14f;stroke-width:17;fill:none"></path><path d="M217.41,175.94 Q171.55,236.48 146.87,308.31" style="stroke:#edc948;stroke-width:17;fill:none"></path><path d="M217.41,175.94 Q142.74,189.80 76.11,226.27" style="stroke:#b07aa1;stroke-width:17;fill:none"></path><path d="M217.41,175.94 Q151.37,138.42 76.92,123.37" style="stroke:#f28e2b;stroke-width:17;fill:none"></path><path d="M217.41,175.94 Q195.96,103.08 152.84,40.55" style="stroke:#e15759;stroke-width:17;fill:none"></path></g><g><g class="mindmap-node section-0" transform="translate(276.57,38.09)"><path d="M-60.03 13.09 v-26.19 q0,-5.00 5.00,-5.00 h110.06 q5.00,0 5.00,5.00 v31.19 H-60.03 Z" style="fill:#f28e2b;stroke:none"></path><line x1="-60.03" y1="18.09" x2="60.03" y2="18.09" style="stroke:#f28e2b;stroke-width:2;fill:none"></line><text x="0.00" y="0.00" text-anchor="middle" dominant-baseline="central" style="fill:#fff;font-size:14px">Default node</text></g><g class="mindmap-node section-1" transform="translate(358.10,123.89)"><rect x="-60.07" y="-18.09" width="120.14" height="36.19" style="fill:#e15759;stroke:none"></rect><text x="0.00" y="0.00" text-anchor="middle" dominant-baseline="central" style="fill:#fff;font-size:14px">Square node</text></g><g class="mindmap-node section-2" transform="translate(349.11,247.75)"><rect x="-65.91" y="-18.09" width="131.81" height="36.19" rx="18.09" ry="18.09" style="fill:#76b7b2;stroke:none"></rect><text x="0.00" y="0.00" text-anchor="middle" dominant-baseline="central" style="fill:#fff;font-size:14px">Rounded node</text></g><g class="mindmap-node section-3" transform="translate(254.21,321.35)"><circle cx="0.00" cy="0.00" r="55.88" style="fill:#59a14f;stroke:none"></circle><text x="0.00" y="0.00" text-anchor="middle" dominant-baseline="central" style="fill:#fff;font-size:14px">Circle node</text></g><g class="mindmap-node section-4" transform="translate(146.87,308.31)"><path d="M-53.85 -18.09 a16.16,16.16 1 0,0 26.93,-3.62 a16.16,16.16 1 0,0 26.93,0.00 a16.16,16.16 1 0,0 26.93,0.00 a16.16,16.16 1 0,0 26.93,3.62 a16.16,16.16 1 0,0 16.16,11.94 a12.92,12.92 1 0,0 0.00,12.30 a16.16,16.16 1 0,0 -16.16,11.94 a16.16,16.16 1 0,0 -26.93,5.43 a16.16,16.16 1 0,0 -26.93,0.00 a16.16,16.16 1 0,0 -26.93,0.00 a16.16,16.16 1 0,0 -26.93,-5.43 a16.16,16.16 1 0,0 -10.77,-11.94 a12.92,12.92 1 0,0 0.00,-12.30 a16.16,16.16 1 0,0 10.77,-11.94 H-53.85 V-18.09 Z" style="fill:#edc948;stroke:none"></path><text x="0.00" y="0.00" text-anchor="middle" dominant-baseline="central" style="fill:#fff;font-size:14px">Bang node</text></g><g class="mindmap-node section-5" transform="translate(76.11,226.27)"><path d="M-56.11 -18.09 a16.83,16.83 0 0,1 28.05,-11.22 a39.28,39.28 1 0,1 44.89,-11.22 a28.05,28.05 1 0,1 39.28,22.44 a16.83,16.83 1 0,1 16.83,12.67 a22.44,22.44 1 0,1 -16.83,23.52 a28.05,16.83 1 0,1 -28.05,16.83 a39.28,39.28 1 0,1 -56.11,0.00 a16.83,16.83 1 0,1 -28.05,-16.83 a16.83,16.83 1 0,1 -11.22,-12.67 a22.44,22.44 1 0,1 11.22,-23.52 H-56.11 V-18.09 Z" style="fill:#b07aa1;stroke:none"></path><text x="0.00" y="0.00" text-anchor="middle" dominant-baseline="central" style="fill:#fff;font-size:14px">Cloud node</text></g><g class="mindmap-node section-6" transform="translate(76.92,123.37)"><path d="M-48.29 -18.09 a14.49,14.49 0 0,1 24.14,-9.66 a33.80,33.80 1 0,1 38.63,-9.66 a24.14,24.14 1 0,1 33.80,19.32 a14.49,14.49 1 0,1 14.49,12.67 a19.32,19.32 1 0,1 -14.49,23.52 a24.14,14.49 1 0,1 -24.14,14.49 a33.80,33.80 1 0,1 -48.29,0.00 a14.49,14.49 1 0,1 -24.14,-14.49 a14.49,14.49 1 0,1 -9.66,-12.67 a19.32,19.32 1 0,1 9.66,-23.52 H-48.29 V-18.09 Z" style="fill:#f28e2b;stroke:none"></path><text x="0.00" y="0.00" text-anchor="middle" dominant-baseline="central" style="fill:#fff;font-size:14px">Cloud alt</text></g><g class="mindmap-node section-7" transform="translate(152.84,40.55)"><polygon points="-56.47,-18.09 56.47,-18.09 65.52,0.00 56.47,18.09 -56.47,18.09 -65.52,0.00" style="fill:#e15759;stroke:none"></polygon><text x="0.00" y="0.00" text-anchor="middle" dominant-baseline="central" style="fill:#fff;font-size:14px">Hexagon node</text></g><g class="mindmap-node section-root" transform="translate(217.41,175.94)"><path d="M-40.00 13.09 v-26.19 q0,-5.00 5.00,-5.00 h70.00 q5.00,0 5.00,5.00 v31.19 H-40.00 Z" style="fill:#4e79a7;stroke:none"></path><line x1="-40.00" y1="18.09" x2="40.00" y2="18.09" style="stroke:#4e79a7;stroke-width:2;fill:none"></line><text x="0.00" y="0.00" text-anchor="middle" dominant-baseline="central" style="fill:#fff;font-size:14px">Root</text></g></g></svg>