<?xml version="1.0" encoding="UTF-8"?>
<svg xmlns="http://www.w3.org/2000/svg" viewBox="0 0 829.59 248.56"><rect x="0.00" y="0.00" width="829.59" height="248.56" style="fill:#fff;stroke:none"></rect><line x1="281.59" y1="38.09" x2="281.59" y2="124.28" style="stroke:#999;stroke-width:2;fill:none"></line><line x1="281.59" y1="38.09" x2="627.22" y2="124.28" style="stroke:#999;stroke-width:2;fill:none"></line><path d="M281.59,38.09 L69.17,124.28 L69.17,210.47" style="stroke:#999;stroke-width:2;fill:none"></path><line x1="281.59" y1="124.28" x2="212.47" y2="210.47" style="stroke:#999;stroke-width:2;fill:none"></line><line x1="281.59" y1="124.28" x2="350.72" y2="210.47" style="stroke:#999;stroke-width:2;fill:none"></line><line x1="627.22" y1="124.28" x2="488.97" y2="210.47" style="stroke:#999;stroke-width:2;fill:none"></line><line x1="627.22" y1="124.28" x2="627.22" y2="210.47" style="stroke:#999;stroke-width:2;fill:none"></line><line x1="627.22" y1="124.28" x2="765.47" y2="210.47" style="stroke:#999;stroke-width:2;fill:none"></line><rect x="241.59" y="20.00" width="80.00" height="36.19" rx="5.00" ry="5.00" style="fill:#4e79a7;stroke:none"></rect><text x="281.59" y="38.09" text-anchor="middle" dominant-baseline="central" style="fill:#fff;font-size:14px;font-weight:bold">Root</text><rect x="232.80" y="106.19" width="97.58" height="36.19" rx="5.00" ry="5.00" style="fill:#f28e2b;stroke:none"></rect><text x="281.59" y="124.28" text-anchor="middle" dominant-baseline="central" style="fill:#fff;font-size:14px;font-weight:bold">Branch A</text><rect x="168.34" y="192.38" width="88.25" height="36.19" rx="5.00" ry="5.00" style="fill:#e15759;stroke:none"></rect><text x="212.47" y="210.47" text-anchor="middle" dominant-baseline="central" style="fill:#fff;font-size:14px;font-weight:bold">Leaf A1</text><rect x="306.59" y="192.38" width="88.25" height="36.19" rx="5.00" ry="5.00" style="fill:#e15759;stroke:none"></rect><text x="350.72" y="210.47" text-anchor="middle" dominant-baseline="central" style="fill:#fff;font-size:14px;font-weight:bold">Leaf A2</text><rect x="578.43" y="106.19" width="97.58" height="36.19" rx="5.00" ry="5.00" style="fill:#f28e2b;stroke:none"></rect><text x="627.22" y="124.28" text-anchor="middle" dominant-baseline="central" style="fill:#fff;font-size:14px;font-weight:bold">Branch B</text><rect x="444.84" y="192.38" width="88.25" height="36.19" rx="5.00" ry="5.00" style="fill:#e15759;stroke:none"></rect><text x="488.97" y="210.47" text-anchor="middle" dominant-baseline="central" style="fill:#fff;font-size:14px;font-weight:bold">Leaf B1</text><rect x="583.09" y="192.38" width="88.25" height="36.19" rx="5.00" ry="5.00" style="fill:#e15759;stroke:none"></rect><text x="627.22" y="210.47" text-anchor="middle" dominant-baseline="central" style="fill:#fff;font-size:14px;font-weight:bold">Leaf B2</text><rect x="721.34" y="192.38" width="88.25" height="36.19" rx="5.00" ry="5.00" style="fill:#e15759;stroke:none"></rect><text x="765.47" y="210.47" text-anchor="middle" dominant-baseline="central" style="fill:#fff;font-size:14px;font-weight:bold">Leaf B3</text><rect x="20.00" y="192.38" width="98.34" height="36.19" rx="5.00" ry="5.00" style="fill:#f28e2b;stroke:none"></rect><text x="69.17" y="210.47" text-anchor="middle" dominant-baseline="central" style="fill:#fff;font-size:14px;font-weight:bold">Branch C</text></svg>