<?xml version="1.0" encoding="UTF-8"?>
<svg xmlns="http://www.w3.org/2000/svg" viewBox="0 0 665.69 635.78" role="graphics-document document" aria-roledescription="mindmap"><rect x="0.00" y="0.00" width="665.69" height="635.78" style="fill:#fff;stroke:none"></rect><g><path d="M284.25,275.68 Q355.17,248.49 414.07,200.53" style="stroke:#f28e2b;stroke-width:17;fill:none"></path><path d="M414.07,200.53 Q473.89,126.80 507.73,38.09" style="stroke:#f28e2b;stroke-width:14;fill:none"></path><path d="M414.07,200.53 Q507.85,215.36 601.57,200.20" style="stroke:#f28e2b;stroke-width:14;fill:none"></path><path d="M284.25,275.68 Q250.34,343.64 239.33,418.79" style="stroke:#e15759;stroke-width:17;fill:none"></path><path d="M239.33,418.79 Q279.74,504.71 344.94,573.72" style="stroke:#e15759;stroke-width:14;fill:none"></path><path d="M239.33,418.79 Q196.94,503.75 183.17,597.69" style="stroke:#e15759;stroke-width:14;fill:none"></path><path d="M239.33,418.79 Q146.38,438.17 64.12,485.58" style="stroke:#e15759;stroke-width:14;fill:none"></path><path d="M284.25,275.68 Q242.43,212.28 182.91,165.10" style="stroke:#76b7b2;stroke-width:17;fill:none"></path></g><g><g class="mindmap-node section-0" transform="translate(507.73,38.09)"><path d="M-44.12 13.09 v-26.19 q0,-5.00 5.00,-5.00 h78.25 q5.00,0 5.00,5.00 v31.19 H-44.12 Z" style="fill:#f28e2b;stroke:none"></path><line x1="-44.13" y1="18.09" x2="44.13" y2="18.09" style="stroke:#f28e2b;stroke-width:2;fill:none"></line><text x="0.00" y="0.00" text-anchor="middle" dominant-baseline="central" style="fill:#fff;font-size:14px">Leaf A1</text></g><g class="mindmap-node section-0" transform="translate(601.57,200.20)"><path d="M-44.12 13.09 v-26.19 q0,-5.00 5.00,-5.00 h78.25 q5.00,0 5.00,5.00 v31.19 H-44.12 Z" style="fill:#f28e2b;stroke:none"></path><line x1="-44.13" y1="18.09" x2="44.13" y2="18.09" style="stroke:#f28e2b;stroke-width:2;fill:none"></line><text x="0.00" y="0.00" text-anchor="middle" dominant-baseline="central" style="fill:#fff;font-size:14px">Leaf A2</text></g><g class="mindmap-node section-0" transform="translate(414.07,200.53)"><path d="M-48.79 13.09 v-26.19 q0,-5.00 5.00,-5.00 h87.58 q5.00,0 5.00,5.00 v31.19 H-48.79 Z" style="fill:#f28e2b;stroke:none"></path><line x1="-48.79" y1="18.09" x2="48.79" y2="18.09" style="stroke:#f28e2b;stroke-width:2;fill:none"></line><text x="0.00" y="0.00" text-anchor="middle" dominant-baseline="central" style="fill:#fff;font-size:14px">Branch A</text></g><g class="mindmap-node section-1" transform="translate(344.94,573.72)"><path d="M-44.12 13.09 v-26.19 q0,-5.00 5.00,-5.00 h78.25 q5.00,0 5.00,5.00 v31.19 H-44.12 Z" style="fill:#e15759;stroke:none"></path><line x1="-44.13" y1="18.09" x2="44.13" y2="18.09" style="stroke:#e15759;stroke-width:2;fill:none"></line><text x="0.00" y="0.00" text-anchor="middle" dominant-baseline="central" style="fill:#fff;font-size:14px">Leaf B1</text></g><g class="mindmap-node section-1" transform="translate(183.17,597.69)"><path d="M-44.12 13.09 v-26.19 q0,-5.00 5.00,-5.00 h78.25 q5.00,0 5.00,5.00 v31.19 H-44.12 Z" style="fill:#e15759;stroke:none"></path><line x1="-44.13" y1="18.09" x2="44.13" y2="18.09" style="stroke:#e15759;stroke-width:2;fill:none"></line><text x="0.00" y="0.00" text-anchor="middle" dominant-baseline="central" style="fill:#fff;font-size:14px">Leaf B2</text></g><g class="mindmap-node section-1" transform="translate(64.12,485.58)"><path d="M-44.12 13.09 v-26.19 q0,-5.00 5.00,-5.00 h78.25 q5.00,0 5.00,5.00 v31.19 H-44.12 Z" style="fill:#e15759;stroke:none"></path><line x1="-44.13" y1="18.09" x2="44.13" y2="18.09" style="stroke:#e15759;stroke-width:2;fill:none"></line><text x="0.00" y="0.00" text-anchor="middle" dominant-baseline="central" style="fill:#fff;font-size:14px">Leaf B3</text></g><g class="mindmap-node section-1" transform="translate(239.33,418.79)"><path d="M-48.79 13.09 v-26.19 q0,-5.00 5.00,-5.00 h87.58 q5.00,0 5.00,5.00 v31.19 H-48.79 Z" style="fill:#e15759;stroke:none"></path><line x1="-48.79" y1="18.09" x2="48.79" y2="18.09" style="stroke:#e15759;stroke-width:2;fill:none"></line><text x="0.00" y="0.00" text-anchor="middle" dominant-baseline="central" style="fill:#fff;font-size:14px">Branch B</text></g><g class="mindmap-node section-2" transform="translate(182.91,165.10)"><path d="M-49.17 13.09 v-26.19 q0,-5.00 5.00,-5.00 h88.34 q5.00,0 5.00,5.00 v31.19 H-49.17 Z" style="fill:#76b7b2;stroke:none"></path><line x1="-49.17" y1="18.09" x2="49.17" y2="18.09" style="stroke:#76b7b2;stroke-width:2;fill:none"></line><text x="0.00" y="0.00" text-anchor="middle" dominant-baseline="central" style="fill:#fff;font-size:14px">Branch C</text></g><g class="mindmap-node section-root" transform="translate(284.25,275.68)"><path d="M-40.00 13.09 v-26.19 q0,-5.00 5.00,-5.00 h70.00 q5.00,0 5.00,5.00 v31.19 H-40.00 Z" style="fill:#4e79a7;stroke:none"></path><line x1="-40.00" y1="18.09" x2="40.00" y2="18.09" style="stroke:#4e79a7;stroke-width:2;fill:none"></line><text x="0.00" y="0.00" text-anchor="middle" dominant-baseline="central" style="fill:#fff;font-size:14px">Root</text></g></g></svg>