<?xml version="1.0" encoding="UTF-8"?>
<svg xmlns="http://www.w3.org/2000/svg" viewBox="0 0 532.17 447.96" role="graphics-document document" aria-roledescription="mindmap"><rect x="0.00" y="0.00" width="532.17" height="447.96" style="fill:#fff;stroke:none"></rect><style>.section-0 rect,.section-0 path,.section-0 circle,.section-0 polygon{fill:#f28e2b}.section-0 text{fill:#fff}.section-edge-0{stroke:#f28e2b}.edge-depth-0{stroke-width:17}.section-1 rect,.section-1 path,.section-1 circle,.section-1 polygon{fill:#e15759}.section-1 text{fill:#fff}.section-edge-1{stroke:#e15759}.edge-depth-1{stroke-width:14}.section-2 rect,.section-2 path,.section-2 circle,.section-2 polygon{fill:#76b7b2}.section-2 text{fill:#fff}.section-edge-2{stroke:#76b7b2}.edge-depth-2{stroke-width:11}.section-3 rect,.section-3 path,.section-3 circle,.section-3 polygon{fill:#59a14f}.section-3 text{fill:#fff}.section-edge-3{stroke:#59a14f}.edge-depth-3{stroke-width:8}.section-4 rect,.section-4 path,.section-4 circle,.section-4 polygon{fill:#edc948}.section-4 text{fill:#fff}.section-edge-4{stroke:#edc948}.edge-depth-4{stroke-width:5}.section-5 rect,.section-5 path,.section-5 circle,.section-5 polygon{fill:#b07aa1}.section-5 text{fill:#fff}.section-edge-5{stroke:#b07aa1}.edge-depth-5{stroke-width:2}.section-root rect,.section-root path,.section-root circle,.section-root polygon{fill:#4e79a7}.section-root text{fill:#fff}.edge{fill:none}.mindmap-node-label{text-anchor:middle;dominant-baseline:central}</style><g><path d="M244.12,202.02 Q300.89,180.33 348.05,142.02" style="stroke:#f28e2b;stroke-width:17;fill:none"></path><path d="M348.05,142.02 Q386.36,94.86 408.05,38.09" style="stroke:#f28e2b;stroke-width:14;fill:none"></path><path d="M348.05,142.02 Q408.05,151.62 468.05,142.02" style="stroke:#f28e2b;stroke-width:14;fill:none"></path><path d="M244.12,202.02 Q205.81,249.18 184.12,305.94" style="stroke:#e15759;stroke-width:17;fill:none"></path><path d="M184.12,305.94 Q205.81,362.70 244.13,409.86" style="stroke:#e15759;stroke-width:14;fill:none"></path><path d="M184.12,305.94 Q145.81,353.10 124.13,409.86" style="stroke:#e15759;stroke-width:14;fill:none"></path><path d="M184.12,305.94 Q124.12,296.34 64.12,305.94" style="stroke:#e15759;stroke-width:14;fill:none"></path><path d="M244.12,202.02 Q222.44,145.26 184.12,98.09" style="stroke:#76b7b2;stroke-width:17;fill:none"></path></g><g><g class="mindmap-node section-0" transform="translate(408.05,38.09)"><path d="M-44.12 13.09 v-26.19 q0,-5.00 5.00,-5.00 h78.25 q5.00,0 5.00,5.00 v31.19 H-44.12 Z" style="fill:#f28e2b;stroke:none"></path><line x1="-44.13" y1="18.09" x2="44.13" y2="18.09" style="stroke:#f28e2b;stroke-width:2;fill:none"></line><text x="0.00" y="0.00" text-anchor="middle" dominant-baseline="central" style="fill:#fff;font-size:14px"><tspan style="fill:#fff;font-size:14px">Leaf A1</tspan></text></g><g class="mindmap-node section-0" transform="translate(468.05,142.02)"><path d="M-44.12 13.09 v-26.19 q0,-5.00 5.00,-5.00 h78.25 q5.00,0 5.00,5.00 v31.19 H-44.12 Z" style="fill:#f28e2b;stroke:none"></path><line x1="-44.13" y1="18.09" x2="44.13" y2="18.09" style="stroke:#f28e2b;stroke-width:2;fill:none"></line><text x="0.00" y="0.00" text-anchor="middle" dominant-baseline="central" style="fill:#fff;font-size:14px"><tspan style="fill:#fff;font-size:14px">Leaf A2</tspan></text></g><g class="mindmap-node section-0" transform="translate(348.05,142.02)"><path d="M-48.79 13.09 v-26.19 q0,-5.00 5.00,-5.00 h87.58 q5.00,0 5.00,5.00 v31.19 H-48.79 Z" style="fill:#f28e2b;stroke:none"></path><line x1="-48.79" y1="18.09" x2="48.79" y2="18.09" style="stroke:#f28e2b;stroke-width:2;fill:none"></line><text x="0.00" y="0.00" text-anchor="middle" dominant-baseline="central" style="fill:#fff;font-size:14px"><tspan style="fill:#fff;font-size:14px">Branch A</tspan></text></g><g class="mindmap-node section-1" transform="translate(244.13,409.86)"><path d="M-44.12 13.09 v-26.19 q0,-5.00 5.00,-5.00 h78.25 q5.00,0 5.00,5.00 v31.19 H-44.12 Z" style="fill:#e15759;stroke:none"></path><line x1="-44.13" y1="18.09" x2="44.13" y2="18.09" style="stroke:#e15759;stroke-width:2;fill:none"></line><text x="0.00" y="0.00" text-anchor="middle" dominant-baseline="central" style="fill:#fff;font-size:14px"><tspan style="fill:#fff;font-size:14px">Leaf B1</tspan></text></g><g class="mindmap-node section-1" transform="translate(124.13,409.86)"><path d="M-44.12 13.09 v-26.19 q0,-5.00 5.00,-5.00 h78.25 q5.00,0 5.00,5.00 v31.19 H-44.12 Z" style="fill:#e15759;stroke:none"></path><line x1="-44.13" y1="18.09" x2="44.13" y2="18.09" style="stroke:#e15759;stroke-width:2;fill:none"></line><text x="0.00" y="0.00" text-anchor="middle" dominant-baseline="central" style="fill:#fff;font-size:14px"><tspan style="fill:#fff;font-size:14px">Leaf B2</tspan></text></g><g class="mindmap-node section-1" transform="translate(64.12,305.94)"><path d="M-44.12 13.09 v-26.19 q0,-5.00 5.00,-5.00 h78.25 q5.00,0 5.00,5.00 v31.19 H-44.12 Z" style="fill:#e15759;stroke:none"></path><line x1="-44.13" y1="18.09" x2="44.13" y2="18.09" style="stroke:#e15759;stroke-width:2;fill:none"></line><text x="0.00" y="0.00" text-anchor="middle" dominant-baseline="central" style="fill:#fff;font-size:14px"><tspan style="fill:#fff;font-size:14px">Leaf B3</tspan></text></g><g class="mindmap-node section-1" transform="translate(184.12,305.94)"><path d="M-48.79 13.09 v-26.19 q0,-5.00 5.00,-5.00 h87.58 q5.00,0 5.00,5.00 v31.19 H-48.79 Z" style="fill:#e15759;stroke:none"></path><line x1="-48.79" y1="18.09" x2="48.79" y2="18.09" style="stroke:#e15759;stroke-width:2;fill:none"></line><text x="0.00" y="0.00" text-anchor="middle" dominant-baseline="central" style="fill:#fff;font-size:14px"><tspan style="fill:#fff;font-size:14px">Branch B</tspan></text></g><g class="mindmap-node section-2" transform="translate(184.12,98.09)"><path d="M-49.17 13.09 v-26.19 q0,-5.00 5.00,-5.00 h88.34 q5.00,0 5.00,5.00 v31.19 H-49.17 Z" style="fill:#76b7b2;stroke:none"></path><line x1="-49.17" y1="18.09" x2="49.17" y2="18.09" style="stroke:#76b7b2;stroke-width:2;fill:none"></line><text x="0.00" y="0.00" text-anchor="middle" dominant-baseline="central" style="fill:#fff;font-size:14px"><tspan style="fill:#fff;font-size:14px">Branch C</tspan></text></g><g class="mindmap-node section-root" transform="translate(244.12,202.02)"><path d="M-40.00 13.09 v-26.19 q0,-5.00 5.00,-5.00 h70.00 q5.00,0 5.00,5.00 v31.19 H-40.00 Z" style="fill:#4e79a7;stroke:none"></path><line x1="-40.00" y1="18.09" x2="40.00" y2="18.09" style="stroke:#4e79a7;stroke-width:2;fill:none"></line><text x="0.00" y="0.00" text-anchor="middle" dominant-baseline="central" style="fill:#fff;font-size:14px"><tspan style="fill:#fff;font-size:14px">Root</tspan></text></g></g></svg>