<?xml version="1.0" encoding="UTF-8"?>
<svg xmlns="http://www.w3.org/2000/svg" viewBox="0 0 829.59 176.19"><rect x="0.00" y="0.00" width="829.59" height="176.19" style="fill:#fff;stroke:none"></rect><line x1="478.88" y1="38.09" x2="133.25" y2="88.09" style="stroke:#999;stroke-width:2;fill:none"></line><line x1="478.88" y1="38.09" x2="478.88" y2="88.09" style="stroke:#999;stroke-width:2;fill:none"></line><line x1="478.88" y1="38.09" x2="760.42" y2="138.09" style="stroke:#999;stroke-width:2;fill:none"></line><line x1="133.25" y1="88.09" x2="64.13" y2="138.09" style="stroke:#999;stroke-width:2;fill:none"></line><line x1="133.25" y1="88.09" x2="202.38" y2="138.09" style="stroke:#999;stroke-width:2;fill:none"></line><line x1="478.88" y1="88.09" x2="340.63" y2="138.09" style="stroke:#999;stroke-width:2;fill:none"></line><line x1="478.88" y1="88.09" x2="478.88" y2="138.09" style="stroke:#999;stroke-width:2;fill:none"></line><line x1="478.88" y1="88.09" x2="617.13" y2="138.09" style="stroke:#999;stroke-width:2;fill:none"></line><rect x="438.88" y="20.00" width="80.00" height="36.19" rx="5.00" ry="5.00" style="fill:#4e79a7;stroke:none"></rect><text x="478.88" y="38.09" text-anchor="middle" dominant-baseline="central" style="fill:white;font-size:14px;font-weight:bold">Root</text><rect x="84.46" y="70.00" width="97.58" height="36.19" rx="5.00" ry="5.00" style="fill:#f28e2b;stroke:none"></rect><text x="133.25" y="88.09" text-anchor="middle" dominant-baseline="central" style="fill:white;font-size:14px;font-weight:bold">Branch A</text><rect x="20.00" y="120.00" width="88.25" height="36.19" rx="5.00" ry="5.00" style="fill:#e15759;stroke:none"></rect><text x="64.13" y="138.09" text-anchor="middle" dominant-baseline="central" style="fill:white;font-size:14px;font-weight:bold">Leaf A1</text><rect x="158.25" y="120.00" width="88.25" height="36.19" rx="5.00" ry="5.00" style="fill:#e15759;stroke:none"></rect><text x="202.38" y="138.09" text-anchor="middle" dominant-baseline="central" style="fill:white;font-size:14px;font-weight:bold">Leaf A2</text><rect x="430.09" y="70.00" width="97.58" height="36.19" rx="5.00" ry="5.00" style="fill:#f28e2b;stroke:none"></rect><text x="478.88" y="88.09" text-anchor="middle" dominant-baseline="central" style="fill:white;font-size:14px;font-weight:bold">Branch B</text><rect x="296.50" y="120.00" width="88.25" height="36.19" rx="5.00" ry="5.00" style="fill:#e15759;stroke:none"></rect><text x="340.63" y="138.09" text-anchor="middle" dominant-baseline="central" style="fill:white;font-size:14px;font-weight:bold">Leaf B1</text><rect x="434.75" y="120.00" width="88.25" height="36.19" rx="5.00" ry="5.00" style="fill:#e15759;stroke:none"></rect><text x="478.88" y="138.09" text-anchor="middle" dominant-baseline="central" style="fill:white;font-size:14px;font-weight:bold">Leaf B2</text><rect x="573.00" y="120.00" width="88.25" height="36.19" rx="5.00" ry="5.00" style="fill:#e15759;stroke:none"></rect><text x="617.13" y="138.09" text-anchor="middle" dominant-baseline="central" style="fill:white;font-size:14px;font-weight:bold">Leaf B3</text><rect x="711.25" y="120.00" width="98.34" height="36.19" rx="5.00" ry="5.00" style="fill:#f28e2b;stroke:none"></rect><text x="760.42" y="138.09" text-anchor="middle" dominant-baseline="central" style="fill:white;font-size:14px;font-weight:bold">Branch C</text></svg>