<?xml version="1.0" encoding="UTF-8"?>
<svg xmlns="http://www.w3.org/2000/svg" viewBox="0 0 125.89 350.75"><defs><marker id="block-arrow" viewBox="0 0 10 10" refX="9.00" refY="5.00" markerWidth="8.00" markerHeight="8.00" orient="auto"><polygon points="0,0 10,5 0,10" style="fill:#333"></polygon></marker><marker id="block-cross" viewBox="0 0 10 10" refX="5.00" refY="5.00" markerWidth="10.00" markerHeight="10.00" orient="auto"><line x1="0.00" y1="0.00" x2="10.00" y2="10.00" style="stroke:#333;fill:none"></line><line x1="10.00" y1="0.00" x2="0.00" y2="10.00" style="stroke:#333;fill:none"></line></marker><marker id="block-circle" viewBox="0 0 10 10" refX="9.00" refY="5.00" markerWidth="10.00" markerHeight="10.00" orient="auto"><circle cx="5.00" cy="5.00" r="4.00" style="fill:#fff;stroke:#333"></circle></marker></defs><rect x="0.00" y="0.00" width="125.89" height="350.75" style="fill:#fff;stroke:none"></rect><line x1="62.95" y1="220.47" x2="62.95" y2="310.66" style="stroke:#333;stroke-width:1.5;fill:none" marker-end="url(#block-arrow)"></line><line x1="62.95" y1="130.28" x2="62.95" y2="220.47" style="stroke:#333;stroke-width:1.5;fill:none" marker-end="url(#block-arrow)"></line><line x1="62.95" y1="40.09" x2="62.95" y2="130.28" style="stroke:#333;stroke-width:1.5;fill:none" marker-end="url(#block-arrow)"></line><rect x="20.77" y="20.00" width="84.34" height="40.19" rx="5.00" ry="5.00" style="fill:#ECECFF;stroke:#9370DB;stroke-width:1.5"></rect><text x="62.95" y="40.09" text-anchor="middle" dominant-baseline="central" style="fill:#333;font-size:14px">Source</text><rect x="22.95" y="110.19" width="80.00" height="40.19" rx="5.00" ry="5.00" style="fill:#ECECFF;stroke:#9370DB;stroke-width:1.5"></rect><text x="62.95" y="130.28" text-anchor="middle" dominant-baseline="central" style="fill:#333;font-size:14px">Parse</text><rect x="21.91" y="200.38" width="82.08" height="40.19" rx="5.00" ry="5.00" style="fill:#ECECFF;stroke:#9370DB;stroke-width:1.5"></rect><text x="62.95" y="220.47" text-anchor="middle" dominant-baseline="central" style="fill:#333;font-size:14px">Layout</text><rect x="20.00" y="290.56" width="85.89" height="40.19" rx="5.00" ry="5.00" style="fill:#ECECFF;stroke:#9370DB;stroke-width:1.5"></rect><text x="62.95" y="310.66" text-anchor="middle" dominant-baseline="central" style="fill:#333;font-size:14px">Render</text></svg>