<?xml version="1.0" encoding="UTF-8"?>
<svg xmlns="http://www.w3.org/2000/svg" viewBox="0 0 514.80 200.00"><rect x="0.00" y="0.00" width="514.80" height="200.00" style="fill:#fff;stroke:none"></rect><text x="48.00" y="40.00" text-anchor="start" dominant-baseline="central" style="fill:#0f62fe;font-size:14px;font-weight:bold">main</text><line x1="114.80" y1="40.00" x2="474.80" y2="40.00" style="stroke:#0f62fe;stroke-width:3;fill:none;opacity:0.6"></line><text x="48.00" y="100.00" text-anchor="start" dominant-baseline="central" style="fill:#24a148;font-size:14px;font-weight:bold">feature</text><line x1="234.80" y1="100.00" x2="294.80" y2="100.00" style="stroke:#24a148;stroke-width:3;fill:none;opacity:0.6"></line><path d="M174.80,40.00 C204.80,40.00 204.80,100.00 234.80,100.00" style="stroke:#24a148;stroke-width:2;fill:none;opacity:0.8"></path><path d="M294.80,100.00 C354.80,100.00 354.80,40.00 414.80,40.00" style="stroke:#0f62fe;stroke-width:2;fill:none;opacity:0.8"></path><circle cx="114.80" cy="40.00" r="8.00" style="fill:#0f62fe;stroke:#333;stroke-width:1.5"></circle><text x="114.80" y="26.00" text-anchor="middle" dominant-baseline="baseline" style="fill:#333;font-size:12px">c1</text><circle cx="174.80" cy="40.00" r="8.00" style="fill:#0f62fe;stroke:#333;stroke-width:1.5"></circle><text x="174.80" y="26.00" text-anchor="middle" dominant-baseline="baseline" style="fill:#333;font-size:12px">c2</text><circle cx="234.80" cy="100.00" r="8.00" style="fill:#24a148;stroke:#333;stroke-width:1.5"></circle><text x="234.80" y="86.00" text-anchor="middle" dominant-baseline="baseline" style="fill:#333;font-size:12px">c3</text><circle cx="294.80" cy="100.00" r="8.00" style="fill:#24a148;stroke:#333;stroke-width:1.5"></circle><text x="294.80" y="86.00" text-anchor="middle" dominant-baseline="baseline" style="fill:#333;font-size:12px">c4</text><circle cx="354.80" cy="40.00" r="8.00" style="fill:#0f62fe;stroke:#333;stroke-width:1.5"></circle><text x="354.80" y="26.00" text-anchor="middle" dominant-baseline="baseline" style="fill:#333;font-size:12px">c5</text><circle cx="414.80" cy="40.00" r="8.00" style="fill:#0f62fe;stroke:#fff;stroke-width:2"></circle><circle cx="414.80" cy="40.00" r="3.20" style="fill:#fff;stroke:none"></circle><text x="414.80" y="26.00" text-anchor="middle" dominant-baseline="baseline" style="fill:#333;font-size:12px">release-1</text><circle cx="474.80" cy="40.00" r="11.00" style="fill:#0f62fe;stroke:#333;stroke-width:2"></circle><text x="474.80" y="26.00" text-anchor="middle" dominant-baseline="baseline" style="fill:#333;font-size:12px">c7</text></svg>