<?xml version="1.0" encoding="UTF-8"?>
<svg xmlns="http://www.w3.org/2000/svg" viewBox="0 0 518.80 200.00"><rect x="0.00" y="0.00" width="518.80" height="200.00" style="fill:#fff;stroke:none"></rect><line x1="88.80" y1="40.00" x2="478.80" y2="40.00" style="stroke:#bbb;stroke-width:1;stroke-dasharray:4,4;fill:none"></line><line x1="88.80" y1="100.00" x2="478.80" y2="100.00" style="stroke:#bbb;stroke-width:1;stroke-dasharray:4,4;fill:none"></line><rect x="40.00" y="28.00" width="53.60" height="24.00" rx="10.00" ry="10.00" style="fill:#0f62fe;stroke:none"></rect><text x="66.80" y="40.00" text-anchor="middle" dominant-baseline="central" style="fill:#fff;font-size:14px;font-weight:bold">main</text><line x1="118.80" y1="40.00" x2="478.80" y2="40.00" style="stroke:#0f62fe;stroke-width:4;fill:none;opacity:1"></line><rect x="40.00" y="88.00" width="78.80" height="24.00" rx="10.00" ry="10.00" style="fill:#24a148;stroke:none"></rect><text x="79.40" y="100.00" text-anchor="middle" dominant-baseline="central" style="fill:#fff;font-size:14px;font-weight:bold">feature</text><line x1="238.80" y1="100.00" x2="298.80" y2="100.00" style="stroke:#24a148;stroke-width:4;fill:none;opacity:1"></line><path d="M178.80,40.00 C208.80,40.00 208.80,100.00 238.80,100.00" style="stroke:#24a148;stroke-width:2;fill:none;opacity:0.8"></path><path d="M298.80,100.00 C358.80,100.00 358.80,40.00 418.80,40.00" style="stroke:#0f62fe;stroke-width:2;fill:none;opacity:0.8"></path><circle cx="118.80" cy="40.00" r="8.00" style="fill:#0f62fe;stroke:#333;stroke-width:1.5"></circle><text x="118.80" y="26.00" text-anchor="middle" dominant-baseline="baseline" style="fill:#333;font-size:12px">c1</text><circle cx="178.80" cy="40.00" r="8.00" style="fill:#0f62fe;stroke:#333;stroke-width:1.5"></circle><text x="178.80" y="26.00" text-anchor="middle" dominant-baseline="baseline" style="fill:#333;font-size:12px">c2</text><circle cx="238.80" cy="100.00" r="8.00" style="fill:#24a148;stroke:#333;stroke-width:1.5"></circle><text x="238.80" y="86.00" text-anchor="middle" dominant-baseline="baseline" style="fill:#333;font-size:12px">c3</text><circle cx="298.80" cy="100.00" r="8.00" style="fill:#24a148;stroke:#333;stroke-width:1.5"></circle><text x="298.80" y="86.00" text-anchor="middle" dominant-baseline="baseline" style="fill:#333;font-size:12px">c4</text><circle cx="358.80" cy="40.00" r="8.00" style="fill:#0f62fe;stroke:#333;stroke-width:1.5"></circle><text x="358.80" y="26.00" text-anchor="middle" dominant-baseline="baseline" style="fill:#333;font-size:12px">c5</text><circle cx="418.80" cy="40.00" r="8.00" style="fill:#0f62fe;stroke:#fff;stroke-width:2"></circle><circle cx="418.80" cy="40.00" r="3.20" style="fill:#fff;stroke:none"></circle><rect x="380.40" y="8.00" width="76.80" height="18.00" rx="4.00" ry="4.00" style="fill:#eeeeee;stroke:#bbb;stroke-width:1"></rect><text x="418.80" y="17.00" text-anchor="middle" dominant-baseline="central" style="fill:#333;font-size:12px">release-1</text><rect x="467.80" y="29.00" width="22.00" height="22.00" style="fill:#fff;stroke:#0f62fe;stroke-width:2"></rect><text x="478.80" y="26.00" text-anchor="middle" dominant-baseline="baseline" style="fill:#333;font-size:12px">c7</text></svg>