<?xml version="1.0" encoding="UTF-8"?>
<svg xmlns="http://www.w3.org/2000/svg" viewBox="0 0 466.80 200.00"><rect x="0.00" y="0.00" width="466.80" height="200.00" style="fill:#fff;stroke:none"></rect><line x1="96.80" y1="40.00" x2="426.80" y2="40.00" style="stroke:#bbb;stroke-width:1;stroke-dasharray:4,4;fill:none"></line><line x1="96.80" y1="100.00" x2="426.80" y2="100.00" style="stroke:#bbb;stroke-width:1;stroke-dasharray:4,4;fill:none"></line><rect x="40.00" y="28.00" width="53.60" height="24.00" rx="10.00" ry="10.00" style="fill:#0f62fe;stroke:none"></rect><text x="66.80" y="40.00" text-anchor="middle" dominant-baseline="central" style="fill:#fff;font-size:14px;font-weight:bold">main</text><line x1="126.80" y1="40.00" x2="426.80" y2="40.00" style="stroke:#0f62fe;stroke-width:4;fill:none;opacity:1"></line><rect x="40.00" y="88.00" width="78.80" height="24.00" rx="10.00" ry="10.00" style="fill:#24a148;stroke:none"></rect><text x="79.40" y="100.00" text-anchor="middle" dominant-baseline="central" style="fill:#fff;font-size:14px;font-weight:bold">develop</text><line x1="246.80" y1="100.00" x2="306.80" y2="100.00" style="stroke:#24a148;stroke-width:4;fill:none;opacity:1"></line><path d="M186.80,40.00 C216.80,40.00 216.80,100.00 246.80,100.00" style="stroke:#24a148;stroke-width:2;fill:none;opacity:0.8"></path><path d="M306.80,100.00 C336.80,100.00 336.80,40.00 366.80,40.00" style="stroke:#0f62fe;stroke-width:2;fill:none;opacity:0.8"></path><circle cx="126.80" cy="40.00" r="8.00" style="fill:#0f62fe;stroke:#333;stroke-width:1.5"></circle><text x="126.80" y="26.00" text-anchor="start" dominant-baseline="baseline" style="fill:#333;font-size:12px" transform="rotate(-45 126.80 26.00)">init</text><circle cx="186.80" cy="40.00" r="8.00" style="fill:#0f62fe;stroke:#333;stroke-width:1.5"></circle><text x="186.80" y="26.00" text-anchor="start" dominant-baseline="baseline" style="fill:#333;font-size:12px" transform="rotate(-45 186.80 26.00)">feature-A</text><circle cx="246.80" cy="100.00" r="8.00" style="fill:#24a148;stroke:#333;stroke-width:1.5"></circle><text x="246.80" y="86.00" text-anchor="start" dominant-baseline="baseline" style="fill:#333;font-size:12px" transform="rotate(-45 246.80 86.00)">work-1</text><circle cx="306.80" cy="100.00" r="8.00" style="fill:#24a148;stroke:#333;stroke-width:1.5"></circle><text x="306.80" y="86.00" text-anchor="start" dominant-baseline="baseline" style="fill:#333;font-size:12px" transform="rotate(-45 306.80 86.00)">work-2</text><circle cx="366.80" cy="40.00" r="8.00" style="fill:#0f62fe;stroke:#fff;stroke-width:2"></circle><circle cx="366.80" cy="40.00" r="3.20" style="fill:#fff;stroke:none"></circle><rect x="346.40" y="8.00" width="40.80" height="18.00" rx="4.00" ry="4.00" style="fill:#eeeeee;stroke:#bbb;stroke-width:1"></rect><text x="366.80" y="17.00" text-anchor="middle" dominant-baseline="central" style="fill:#333;font-size:12px">v1.0</text><circle cx="426.80" cy="40.00" r="8.00" style="fill:#0f62fe;stroke:#333;stroke-width:1.5"></circle><text x="426.80" y="26.00" text-anchor="start" dominant-baseline="baseline" style="fill:#333;font-size:12px" transform="rotate(-45 426.80 26.00)">patch</text></svg>