<?xml version="1.0" encoding="UTF-8"?>
<svg xmlns="http://www.w3.org/2000/svg" viewBox="0 0 280.00 412.00"><rect x="0.00" y="0.00" width="280.00" height="412.00" style="fill:#fff;stroke:none"></rect><line x1="40.00" y1="42.00" x2="40.00" y2="372.00" style="stroke:#bbb;stroke-width:1;stroke-dasharray:4,4;fill:none"></line><line x1="100.00" y1="42.00" x2="100.00" y2="372.00" style="stroke:#bbb;stroke-width:1;stroke-dasharray:4,4;fill:none"></line><rect x="13.20" y="40.00" width="53.60" height="24.00" rx="10.00" ry="10.00" style="fill:#0f62fe;stroke:none"></rect><text x="40.00" y="52.00" text-anchor="middle" dominant-baseline="central" style="fill:#fff;font-size:14px;font-weight:bold">main</text><line x1="40.00" y1="72.00" x2="40.00" y2="372.00" style="stroke:#0f62fe;stroke-width:4;fill:none;opacity:1"></line><rect x="60.60" y="40.00" width="78.80" height="24.00" rx="10.00" ry="10.00" style="fill:#24a148;stroke:none"></rect><text x="100.00" y="52.00" text-anchor="middle" dominant-baseline="central" style="fill:#fff;font-size:14px;font-weight:bold">develop</text><line x1="100.00" y1="132.00" x2="100.00" y2="192.00" style="stroke:#24a148;stroke-width:4;fill:none;opacity:1"></line><path d="M40.00,72.00 C40.00,102.00 100.00,102.00 100.00,132.00" style="stroke:#24a148;stroke-width:2;fill:none;opacity:0.8"></path><path d="M100.00,192.00 C100.00,252.00 40.00,252.00 40.00,312.00" style="stroke:#0f62fe;stroke-width:2;fill:none;opacity:0.8"></path><circle cx="40.00" cy="72.00" r="8.00" style="fill:#0f62fe;stroke:#333;stroke-width:1.5"></circle><text x="54.00" y="72.00" text-anchor="start" dominant-baseline="central" style="fill:#333;font-size:12px">init</text><circle cx="100.00" cy="132.00" r="8.00" style="fill:#24a148;stroke:#333;stroke-width:1.5"></circle><text x="114.00" y="132.00" text-anchor="start" dominant-baseline="central" style="fill:#333;font-size:12px">wip-1</text><circle cx="100.00" cy="192.00" r="8.00" style="fill:#24a148;stroke:#333;stroke-width:1.5"></circle><text x="114.00" y="192.00" text-anchor="start" dominant-baseline="central" style="fill:#333;font-size:12px">wip-2</text><circle cx="40.00" cy="252.00" r="8.00" style="fill:#0f62fe;stroke:#333;stroke-width:1.5"></circle><text x="54.00" y="252.00" text-anchor="start" dominant-baseline="central" style="fill:#333;font-size:12px">hotfix</text><circle cx="40.00" cy="312.00" r="8.00" style="fill:#0f62fe;stroke:#fff;stroke-width:2"></circle><circle cx="40.00" cy="312.00" r="3.20" style="fill:#fff;stroke:none"></circle><text x="54.00" y="312.00" text-anchor="start" dominant-baseline="central" style="fill:#333;font-size:12px">merge</text><circle cx="40.00" cy="372.00" r="8.00" style="fill:#0f62fe;stroke:#333;stroke-width:1.5"></circle><rect x="54.00" y="363.00" width="40.80" height="18.00" rx="4.00" ry="4.00" style="fill:#eeeeee;stroke:#bbb;stroke-width:1"></rect><text x="74.40" y="372.00" text-anchor="middle" dominant-baseline="central" style="fill:#333;font-size:12px">v1.0</text></svg>