<?xml version="1.0" encoding="UTF-8"?>
<svg xmlns="http://www.w3.org/2000/svg" viewBox="0 0 345.84 318.00"><title>Library schema with aliased names</title><desc>Books and the people who borrow them, using human-readable display labels</desc><rect x="0.00" y="0.00" width="345.84" height="318.00" style="fill:#fff;stroke:none"></rect><defs><marker id="er-zeroOrMore-end" viewBox="0 0 57 36" refX="39.00" refY="18.00" markerWidth="57.00" markerHeight="36.00" orient="auto"><circle cx="9.00" cy="18.00" r="6.00" style="fill:#fff;stroke:#333;stroke-width:1"></circle><path d="M21,18 Q39,0 57,18 Q39,36 21,18" style="stroke:#333;stroke-width:1;fill:none"></path></marker></defs><line x1="109.67" y1="122.00" x2="136.79" y2="172.00" style="stroke:#333;stroke-width:1.5;fill:none" marker-end="url(#er-zeroOrMore-end)"></line><rect x="78.72" y="141.48" width="95.53" height="23.03" rx="3.00" ry="3.00" style="fill:#fff;stroke:none"></rect><g transform="translate(109.67,122.00) rotate(61.52) translate(0.00,-9.00)"><path d="M9,0 L9,18 M15,0 L15,18" style="stroke:#333;stroke-width:1;fill:none"></path></g><text x="126.49" y="153.00" text-anchor="middle" dominant-baseline="central" style="fill:#333;font-size:13px">checked out as</text><line x1="232.27" y1="122.00" x2="205.14" y2="172.00" style="stroke:#333;stroke-width:1.5;fill:none" marker-end="url(#er-zeroOrMore-end)"></line><rect x="195.61" y="141.48" width="39.69" height="23.03" rx="3.00" ry="3.00" style="fill:#fff;stroke:none"></rect><g transform="translate(232.27,122.00) rotate(118.48) translate(0.00,-9.00)"><path d="M9,0 L9,18 M15,0 L15,18" style="stroke:#333;stroke-width:1;fill:none"></path></g><text x="215.45" y="153.00" text-anchor="middle" dominant-baseline="central" style="fill:#333;font-size:13px">holds</text><rect x="20.00" y="20.00" width="124.02" height="102.00" style="fill:#ECECFF;stroke:#9370DB;stroke-width:1.5"></rect><text x="82.01" y="35.00" text-anchor="middle" dominant-baseline="central" style="fill:#333;font-size:14px;font-weight:bold">Library Book</text><line x1="20.00" y1="50.00" x2="144.02" y2="50.00" style="stroke:#9370DB;stroke-width:1"></line><line x1="20.00" y1="74.00" x2="144.02" y2="74.00" style="stroke:#9370DB;stroke-width:1"></line><line x1="20.00" y1="98.00" x2="144.02" y2="98.00" style="stroke:#9370DB;stroke-width:1"></line><line x1="75.17" y1="50.00" x2="75.17" y2="122.00" style="stroke:#9370DB;stroke-width:1"></line><text x="35.00" y="62.00" text-anchor="start" dominant-baseline="central" style="fill:#333;font-size:13px">int</text><text x="83.17" y="62.00" text-anchor="start" dominant-baseline="central" style="fill:#333;font-size:13px">id PK</text><text x="35.00" y="86.00" text-anchor="start" dominant-baseline="central" style="fill:#333;font-size:13px">string</text><text x="83.17" y="86.00" text-anchor="start" dominant-baseline="central" style="fill:#333;font-size:13px">isbn UK</text><text x="35.00" y="110.00" text-anchor="start" dominant-baseline="central" style="fill:#333;font-size:13px">string</text><text x="83.17" y="110.00" text-anchor="start" dominant-baseline="central" style="fill:#333;font-size:13px">title</text><rect x="194.02" y="20.00" width="131.83" height="102.00" style="fill:#ECECFF;stroke:#9370DB;stroke-width:1.5"></rect><text x="259.93" y="35.00" text-anchor="middle" dominant-baseline="central" style="fill:#333;font-size:14px;font-weight:bold">Library Patron</text><line x1="194.02" y1="50.00" x2="325.84" y2="50.00" style="stroke:#9370DB;stroke-width:1"></line><line x1="194.02" y1="74.00" x2="325.84" y2="74.00" style="stroke:#9370DB;stroke-width:1"></line><line x1="194.02" y1="98.00" x2="325.84" y2="98.00" style="stroke:#9370DB;stroke-width:1"></line><line x1="249.19" y1="50.00" x2="249.19" y2="122.00" style="stroke:#9370DB;stroke-width:1"></line><text x="209.02" y="62.00" text-anchor="start" dominant-baseline="central" style="fill:#333;font-size:13px">int</text><text x="257.19" y="62.00" text-anchor="start" dominant-baseline="central" style="fill:#333;font-size:13px">id PK</text><text x="209.02" y="86.00" text-anchor="start" dominant-baseline="central" style="fill:#333;font-size:13px">string</text><text x="257.19" y="86.00" text-anchor="start" dominant-baseline="central" style="fill:#333;font-size:13px">name</text><text x="209.02" y="110.00" text-anchor="start" dominant-baseline="central" style="fill:#333;font-size:13px">string</text><text x="257.19" y="110.00" text-anchor="start" dominant-baseline="central" style="fill:#333;font-size:13px">email UK</text><rect x="87.14" y="172.00" width="167.66" height="126.00" style="fill:#ECECFF;stroke:#9370DB;stroke-width:1.5"></rect><text x="170.97" y="187.00" text-anchor="middle" dominant-baseline="central" style="fill:#333;font-size:14px;font-weight:bold">Active Loan</text><line x1="87.14" y1="202.00" x2="254.80" y2="202.00" style="stroke:#9370DB;stroke-width:1"></line><line x1="87.14" y1="226.00" x2="254.80" y2="226.00" style="stroke:#9370DB;stroke-width:1"></line><line x1="87.14" y1="250.00" x2="254.80" y2="250.00" style="stroke:#9370DB;stroke-width:1"></line><line x1="87.14" y1="274.00" x2="254.80" y2="274.00" style="stroke:#9370DB;stroke-width:1"></line><line x1="135.52" y1="202.00" x2="135.52" y2="298.00" style="stroke:#9370DB;stroke-width:1"></line><text x="102.14" y="214.00" text-anchor="start" dominant-baseline="central" style="fill:#333;font-size:13px">int</text><text x="143.52" y="214.00" text-anchor="start" dominant-baseline="central" style="fill:#333;font-size:13px">id PK</text><text x="102.14" y="238.00" text-anchor="start" dominant-baseline="central" style="fill:#333;font-size:13px">int</text><text x="143.52" y="238.00" text-anchor="start" dominant-baseline="central" style="fill:#333;font-size:13px">book_id PK,FK</text><text x="102.14" y="262.00" text-anchor="start" dominant-baseline="central" style="fill:#333;font-size:13px">int</text><text x="143.52" y="262.00" text-anchor="start" dominant-baseline="central" style="fill:#333;font-size:13px">patron_id PK,FK</text><text x="102.14" y="286.00" text-anchor="start" dominant-baseline="central" style="fill:#333;font-size:13px">date</text><text x="143.52" y="286.00" text-anchor="start" dominant-baseline="central" style="fill:#333;font-size:13px">due_date</text></svg>