<?xml version="1.0" encoding="UTF-8"?>
<svg xmlns="http://www.w3.org/2000/svg" viewBox="0 0 330.00 490.00"><rect x="0.00" y="0.00" width="330.00" height="490.00" style="fill:#fff;stroke:none"></rect><defs><marker id="er-zeroOrMore-end" viewBox="0 0 57 36" refX="39.00" refY="18.00" markerWidth="57.00" markerHeight="36.00" orient="auto"><circle cx="9.00" cy="18.00" r="6.00" style="fill:#fff;stroke:#333;stroke-width:1"></circle><path d="M21,18 Q39,0 57,18 Q39,36 21,18" style="stroke:#333;stroke-width:1;fill:none"></path></marker></defs><line x1="189.63" y1="310.00" x2="218.38" y2="360.00" style="stroke:#333;stroke-width:1.5;fill:none" marker-end="url(#er-zeroOrMore-end)"></line><g transform="translate(189.62,310.00) rotate(60.10) translate(0.00,-9.00)"><path d="M9,0 L9,18 M15,0 L15,18" style="stroke:#333;stroke-width:1;fill:none"></path></g><text x="201.13" y="330.00" text-anchor="middle" dominant-baseline="central" style="fill:#333;font-size:13px">has</text><line x1="124.63" y1="310.00" x2="99.13" y2="370.00" style="stroke:#333;stroke-width:1.5;fill:none" marker-end="url(#er-zeroOrMore-end)"></line><g transform="translate(124.62,310.00) rotate(113.03) translate(-18.00,-18.00)"><circle cx="48.00" cy="18.00" r="6.00" style="fill:#fff;stroke:#333;stroke-width:1"></circle><path d="M0,18 Q18,0 36,18 Q18,36 0,18" style="stroke:#333;stroke-width:1;fill:none"></path></g><text x="116.13" y="330.00" text-anchor="middle" dominant-baseline="central" style="fill:#333;font-size:13px">tagged</text><path d="M225.38,130.00 L262.75,245.00 L254.12,360.00" style="stroke:#333;stroke-width:1.5;fill:none" marker-end="url(#er-zeroOrMore-end)"></path><g transform="translate(225.38,130.00) rotate(72.00) translate(0.00,-9.00)"><path d="M9,0 L9,18 M15,0 L15,18" style="stroke:#333;stroke-width:1;fill:none"></path></g><text x="235.13" y="160.00" text-anchor="middle" dominant-baseline="central" style="fill:#333;font-size:13px">writes</text><line x1="189.63" y1="130.00" x2="173.38" y2="180.00" style="stroke:#333;stroke-width:1.5;fill:none" marker-end="url(#er-zeroOrMore-end)"></line><g transform="translate(189.62,130.00) rotate(108.00) translate(0.00,-9.00)"><path d="M9,0 L9,18 M15,0 L15,18" style="stroke:#333;stroke-width:1;fill:none"></path></g><text x="179.88" y="160.00" text-anchor="middle" dominant-baseline="central" style="fill:#333;font-size:13px">writes</text><rect x="145.70" y="20.00" width="123.61" height="110.00" style="fill:#ECECFF;stroke:#9370DB;stroke-width:1.5"></rect><text x="207.50" y="35.00" text-anchor="middle" dominant-baseline="central" style="fill:#333;font-size:14px;font-weight:bold">USER</text><line x1="145.70" y1="50.00" x2="269.30" y2="50.00" style="stroke:#9370DB;stroke-width:1"></line><text x="160.70" y="65.00" text-anchor="start" dominant-baseline="central" style="fill:#333;font-size:13px">int id</text><text x="160.70" y="85.00" text-anchor="start" dominant-baseline="central" style="fill:#333;font-size:13px">string username</text><text x="160.70" y="105.00" text-anchor="start" dominant-baseline="central" style="fill:#333;font-size:13px">string email</text><rect x="92.25" y="180.00" width="120.00" height="130.00" style="fill:#ECECFF;stroke:#9370DB;stroke-width:1.5"></rect><text x="152.25" y="195.00" text-anchor="middle" dominant-baseline="central" style="fill:#333;font-size:14px;font-weight:bold">POST</text><line x1="92.25" y1="210.00" x2="212.25" y2="210.00" style="stroke:#9370DB;stroke-width:1"></line><text x="107.25" y="225.00" text-anchor="start" dominant-baseline="central" style="fill:#333;font-size:13px">int id</text><text x="107.25" y="245.00" text-anchor="start" dominant-baseline="central" style="fill:#333;font-size:13px">string title</text><text x="107.25" y="265.00" text-anchor="start" dominant-baseline="central" style="fill:#333;font-size:13px">string body</text><text x="107.25" y="285.00" text-anchor="start" dominant-baseline="central" style="fill:#333;font-size:13px">date published</text><rect x="190.00" y="360.00" width="120.00" height="110.00" style="fill:#ECECFF;stroke:#9370DB;stroke-width:1.5"></rect><text x="250.00" y="375.00" text-anchor="middle" dominant-baseline="central" style="fill:#333;font-size:14px;font-weight:bold">COMMENT</text><line x1="190.00" y1="390.00" x2="310.00" y2="390.00" style="stroke:#9370DB;stroke-width:1"></line><text x="205.00" y="405.00" text-anchor="start" dominant-baseline="central" style="fill:#333;font-size:13px">int id</text><text x="205.00" y="425.00" text-anchor="start" dominant-baseline="central" style="fill:#333;font-size:13px">string body</text><text x="205.00" y="445.00" text-anchor="start" dominant-baseline="central" style="fill:#333;font-size:13px">date created</text><rect x="20.00" y="370.00" width="120.00" height="90.00" style="fill:#ECECFF;stroke:#9370DB;stroke-width:1.5"></rect><text x="80.00" y="385.00" text-anchor="middle" dominant-baseline="central" style="fill:#333;font-size:14px;font-weight:bold">TAG</text><line x1="20.00" y1="400.00" x2="140.00" y2="400.00" style="stroke:#9370DB;stroke-width:1"></line><text x="35.00" y="415.00" text-anchor="start" dominant-baseline="central" style="fill:#333;font-size:13px">int id</text><text x="35.00" y="435.00" text-anchor="start" dominant-baseline="central" style="fill:#333;font-size:13px">string name</text></svg>