<?xml version="1.0" encoding="UTF-8"?>
<svg xmlns="http://www.w3.org/2000/svg" viewBox="0 0 331.61 470.00"><rect x="0.00" y="0.00" width="331.61" height="470.00" style="fill:#fff;stroke:none"></rect><defs><marker id="er-zeroOrMore-end" viewBox="0 0 57 36" refX="39.00" refY="18.00" markerWidth="57.00" markerHeight="36.00" orient="auto"><circle cx="9.00" cy="18.00" r="6.00" style="fill:#fff;stroke:#333;stroke-width:1"></circle><path d="M21,18 Q39,0 57,18 Q39,36 21,18" style="stroke:#333;stroke-width:1;fill:none"></path></marker></defs><line x1="188.21" y1="298.00" x2="219.20" y2="348.00" style="stroke:#333;stroke-width:1.5;fill:none" marker-end="url(#er-zeroOrMore-end)"></line><g transform="translate(188.21,298.00) rotate(58.21) translate(0.00,-9.00)"><path d="M9,0 L9,18 M15,0 L15,18" style="stroke:#333;stroke-width:1;fill:none"></path></g><rect x="185.50" y="305.48" width="28.97" height="23.03" rx="3.00" ry="3.00" style="fill:#fff;stroke:none"></rect><text x="199.98" y="317.00" text-anchor="middle" dominant-baseline="central" style="fill:#333;font-size:13px">has</text><line x1="122.59" y1="298.00" x2="96.45" y2="360.00" style="stroke:#333;stroke-width:1.5;fill:none" marker-end="url(#er-zeroOrMore-end)"></line><g transform="translate(122.59,298.00) rotate(112.87) translate(-18.00,-18.00)"><circle cx="48.00" cy="18.00" r="6.00" style="fill:#fff;stroke:#333;stroke-width:1"></circle><path d="M0,18 Q18,0 36,18 Q18,36 0,18" style="stroke:#333;stroke-width:1;fill:none"></path></g><rect x="90.66" y="305.48" width="47.84" height="23.03" rx="3.00" ry="3.00" style="fill:#fff;stroke:none"></rect><text x="114.58" y="317.00" text-anchor="middle" dominant-baseline="central" style="fill:#333;font-size:13px">tagged</text><path d="M226.43,122.00 C230.49,133.30 264.10,212.40 267.04,235.00 C269.99,257.60 256.97,336.70 255.86,348.00" style="stroke:#333;stroke-width:1.5;fill:none" marker-end="url(#er-zeroOrMore-end)"></path><g transform="translate(226.43,122.00) rotate(70.23) translate(0.00,-9.00)"><path d="M9,0 L9,18 M15,0 L15,18" style="stroke:#333;stroke-width:1;fill:none"></path></g><rect x="216.41" y="141.48" width="42.33" height="23.03" rx="3.00" ry="3.00" style="fill:#fff;stroke:none"></rect><text x="237.57" y="153.00" text-anchor="middle" dominant-baseline="central" style="fill:#333;font-size:13px">writes</text><line x1="189.77" y1="122.00" x2="171.80" y2="172.00" style="stroke:#333;stroke-width:1.5;fill:none" marker-end="url(#er-zeroOrMore-end)"></line><g transform="translate(189.77,122.00) rotate(109.77) translate(0.00,-9.00)"><path d="M9,0 L9,18 M15,0 L15,18" style="stroke:#333;stroke-width:1;fill:none"></path></g><rect x="157.47" y="141.48" width="42.33" height="23.03" rx="3.00" ry="3.00" style="fill:#fff;stroke:none"></rect><text x="178.63" y="153.00" text-anchor="middle" dominant-baseline="central" style="fill:#333;font-size:13px">writes</text><rect x="140.10" y="20.00" width="136.00" height="102.00" style="fill:#ECECFF;stroke:#9370DB;stroke-width:1.5"></rect><text x="208.10" y="35.00" text-anchor="middle" dominant-baseline="central" style="fill:#333;font-size:14px;font-weight:bold">USER</text><line x1="140.10" y1="50.00" x2="276.10" y2="50.00" style="stroke:#9370DB;stroke-width:1"></line><line x1="195.28" y1="50.00" x2="195.28" y2="122.00" style="stroke:#9370DB;stroke-width:1"></line><text x="155.10" y="62.00" text-anchor="start" dominant-baseline="central" style="fill:#333;font-size:13px">int</text><text x="203.28" y="62.00" text-anchor="start" dominant-baseline="central" style="fill:#333;font-size:13px">id</text><line x1="140.10" y1="74.00" x2="276.10" y2="74.00" style="stroke:#9370DB;stroke-width:1"></line><text x="155.10" y="86.00" text-anchor="start" dominant-baseline="central" style="fill:#333;font-size:13px">string</text><text x="203.28" y="86.00" text-anchor="start" dominant-baseline="central" style="fill:#333;font-size:13px">username</text><line x1="140.10" y1="98.00" x2="276.10" y2="98.00" style="stroke:#9370DB;stroke-width:1"></line><text x="155.10" y="110.00" text-anchor="start" dominant-baseline="central" style="fill:#333;font-size:13px">string</text><text x="203.28" y="110.00" text-anchor="start" dominant-baseline="central" style="fill:#333;font-size:13px">email</text><rect x="81.78" y="172.00" width="134.77" height="126.00" style="fill:#ECECFF;stroke:#9370DB;stroke-width:1.5"></rect><text x="149.16" y="187.00" text-anchor="middle" dominant-baseline="central" style="fill:#333;font-size:14px;font-weight:bold">POST</text><line x1="81.78" y1="202.00" x2="216.54" y2="202.00" style="stroke:#9370DB;stroke-width:1"></line><line x1="136.95" y1="202.00" x2="136.95" y2="298.00" style="stroke:#9370DB;stroke-width:1"></line><text x="96.78" y="214.00" text-anchor="start" dominant-baseline="central" style="fill:#333;font-size:13px">int</text><text x="144.95" y="214.00" text-anchor="start" dominant-baseline="central" style="fill:#333;font-size:13px">id</text><line x1="81.78" y1="226.00" x2="216.54" y2="226.00" style="stroke:#9370DB;stroke-width:1"></line><text x="96.78" y="238.00" text-anchor="start" dominant-baseline="central" style="fill:#333;font-size:13px">string</text><text x="144.95" y="238.00" text-anchor="start" dominant-baseline="central" style="fill:#333;font-size:13px">title</text><line x1="81.78" y1="250.00" x2="216.54" y2="250.00" style="stroke:#9370DB;stroke-width:1"></line><text x="96.78" y="262.00" text-anchor="start" dominant-baseline="central" style="fill:#333;font-size:13px">string</text><text x="144.95" y="262.00" text-anchor="start" dominant-baseline="central" style="fill:#333;font-size:13px">body</text><line x1="81.78" y1="274.00" x2="216.54" y2="274.00" style="stroke:#9370DB;stroke-width:1"></line><text x="96.78" y="286.00" text-anchor="start" dominant-baseline="central" style="fill:#333;font-size:13px">date</text><text x="144.95" y="286.00" text-anchor="start" dominant-baseline="central" style="fill:#333;font-size:13px">published</text><rect x="190.00" y="348.00" width="121.61" height="102.00" style="fill:#ECECFF;stroke:#9370DB;stroke-width:1.5"></rect><text x="250.80" y="363.00" text-anchor="middle" dominant-baseline="central" style="fill:#333;font-size:14px;font-weight:bold">COMMENT</text><line x1="190.00" y1="378.00" x2="311.61" y2="378.00" style="stroke:#9370DB;stroke-width:1"></line><line x1="245.17" y1="378.00" x2="245.17" y2="450.00" style="stroke:#9370DB;stroke-width:1"></line><text x="205.00" y="390.00" text-anchor="start" dominant-baseline="central" style="fill:#333;font-size:13px">int</text><text x="253.17" y="390.00" text-anchor="start" dominant-baseline="central" style="fill:#333;font-size:13px">id</text><line x1="190.00" y1="402.00" x2="311.61" y2="402.00" style="stroke:#9370DB;stroke-width:1"></line><text x="205.00" y="414.00" text-anchor="start" dominant-baseline="central" style="fill:#333;font-size:13px">string</text><text x="253.17" y="414.00" text-anchor="start" dominant-baseline="central" style="fill:#333;font-size:13px">body</text><line x1="190.00" y1="426.00" x2="311.61" y2="426.00" style="stroke:#9370DB;stroke-width:1"></line><text x="205.00" y="438.00" text-anchor="start" dominant-baseline="central" style="fill:#333;font-size:13px">date</text><text x="253.17" y="438.00" text-anchor="start" dominant-baseline="central" style="fill:#333;font-size:13px">created</text><rect x="20.00" y="360.00" width="120.00" height="78.00" style="fill:#ECECFF;stroke:#9370DB;stroke-width:1.5"></rect><text x="80.00" y="375.00" text-anchor="middle" dominant-baseline="central" style="fill:#333;font-size:14px;font-weight:bold">TAG</text><line x1="20.00" y1="390.00" x2="140.00" y2="390.00" style="stroke:#9370DB;stroke-width:1"></line><line x1="75.17" y1="390.00" x2="75.17" y2="438.00" style="stroke:#9370DB;stroke-width:1"></line><text x="35.00" y="402.00" text-anchor="start" dominant-baseline="central" style="fill:#333;font-size:13px">int</text><text x="83.17" y="402.00" text-anchor="start" dominant-baseline="central" style="fill:#333;font-size:13px">id</text><line x1="20.00" y1="414.00" x2="140.00" y2="414.00" style="stroke:#9370DB;stroke-width:1"></line><text x="35.00" y="426.00" text-anchor="start" dominant-baseline="central" style="fill:#333;font-size:13px">string</text><text x="83.17" y="426.00" text-anchor="start" dominant-baseline="central" style="fill:#333;font-size:13px">name</text></svg>