<?xml version="1.0" encoding="UTF-8"?>
<svg xmlns="http://www.w3.org/2000/svg" viewBox="0 0 357.98 374.00"><rect x="0.00" y="0.00" width="357.98" height="374.00" style="fill:#fff;stroke:none"></rect><defs><marker id="er-oneOrMore-end" viewBox="0 0 45 36" refX="27.00" refY="18.00" markerWidth="45.00" markerHeight="36.00" orient="auto"><path d="M3,9 L3,27 M9,18 Q27,0 45,18 Q27,36 9,18" style="stroke:#333;stroke-width:1;fill:none"></path></marker><marker id="er-zeroOrMore-end" viewBox="0 0 57 36" refX="39.00" refY="18.00" markerWidth="57.00" markerHeight="36.00" orient="auto"><circle cx="9.00" cy="18.00" r="6.00" style="fill:#fff;stroke:#333;stroke-width:1"></circle><path d="M21,18 Q39,0 57,18 Q39,36 21,18" style="stroke:#333;stroke-width:1;fill:none"></path></marker></defs><line x1="93.99" y1="98.00" x2="93.99" y2="148.00" style="stroke:#333;stroke-width:1.5;fill:none" marker-end="url(#er-zeroOrMore-end)"></line><rect x="70.90" y="111.48" width="46.19" height="23.03" rx="3.00" ry="3.00" style="fill:#fff;stroke:none"></rect><g transform="translate(93.99,98.00) rotate(90.00) translate(0.00,-9.00)"><path d="M9,0 L9,18 M15,0 L15,18" style="stroke:#333;stroke-width:1;fill:none"></path></g><text x="93.99" y="123.00" text-anchor="middle" dominant-baseline="central" style="fill:#333;font-size:13px">places</text><line x1="122.02" y1="226.00" x2="157.96" y2="276.00" style="stroke:#333;stroke-width:1.5;fill:none" marker-end="url(#er-oneOrMore-end)"></line><rect x="111.58" y="239.48" width="56.81" height="23.03" rx="3.00" ry="3.00" style="fill:#fff;stroke:none"></rect><g transform="translate(122.02,226.00) rotate(54.29) translate(0.00,-9.00)"><path d="M9,0 L9,18 M15,0 L15,18" style="stroke:#333;stroke-width:1;fill:none"></path></g><text x="139.99" y="251.00" text-anchor="middle" dominant-baseline="central" style="fill:#333;font-size:13px">contains</text><line x1="249.95" y1="226.00" x2="214.02" y2="276.00" style="stroke:#333;stroke-width:1.5;fill:none" marker-end="url(#er-zeroOrMore-end)"></line><rect x="203.67" y="239.48" width="56.63" height="23.03" rx="3.00" ry="3.00" style="fill:#fff;stroke:none"></rect><g transform="translate(249.95,226.00) rotate(125.71) translate(0.00,-9.00)"><path d="M9,0 L9,18 M15,0 L15,18" style="stroke:#333;stroke-width:1;fill:none"></path></g><text x="231.99" y="251.00" text-anchor="middle" dominant-baseline="central" style="fill:#333;font-size:13px">includes</text><rect x="33.99" y="20.00" width="120.00" height="78.00" style="fill:#ECECFF;stroke:#9370DB;stroke-width:1.5"></rect><text x="93.99" y="35.00" text-anchor="middle" dominant-baseline="central" style="fill:#333;font-size:14px;font-weight:bold">CUSTOMER</text><line x1="33.99" y1="50.00" x2="153.99" y2="50.00" style="stroke:#9370DB;stroke-width:1"></line><line x1="33.99" y1="74.00" x2="153.99" y2="74.00" style="stroke:#9370DB;stroke-width:1"></line><line x1="89.16" y1="50.00" x2="89.16" y2="98.00" style="stroke:#9370DB;stroke-width:1"></line><text x="48.99" y="62.00" text-anchor="start" dominant-baseline="central" style="fill:#333;font-size:13px">string</text><text x="97.16" y="62.00" text-anchor="start" dominant-baseline="central" style="fill:#333;font-size:13px">name</text><text x="48.99" y="86.00" text-anchor="start" dominant-baseline="central" style="fill:#333;font-size:13px">string</text><text x="97.16" y="86.00" text-anchor="start" dominant-baseline="central" style="fill:#333;font-size:13px">email</text><rect x="20.00" y="148.00" width="147.98" height="78.00" style="fill:#ECECFF;stroke:#9370DB;stroke-width:1.5"></rect><text x="93.99" y="163.00" text-anchor="middle" dominant-baseline="central" style="fill:#333;font-size:14px;font-weight:bold">ORDER</text><line x1="20.00" y1="178.00" x2="167.98" y2="178.00" style="stroke:#9370DB;stroke-width:1"></line><line x1="20.00" y1="202.00" x2="167.98" y2="202.00" style="stroke:#9370DB;stroke-width:1"></line><line x1="68.38" y1="178.00" x2="68.38" y2="226.00" style="stroke:#9370DB;stroke-width:1"></line><text x="35.00" y="190.00" text-anchor="start" dominant-baseline="central" style="fill:#333;font-size:13px">int</text><text x="76.38" y="190.00" text-anchor="start" dominant-baseline="central" style="fill:#333;font-size:13px">orderNumber</text><text x="35.00" y="214.00" text-anchor="start" dominant-baseline="central" style="fill:#333;font-size:13px">date</text><text x="76.38" y="214.00" text-anchor="start" dominant-baseline="central" style="fill:#333;font-size:13px">orderDate</text><rect x="125.99" y="276.00" width="120.00" height="78.00" style="fill:#ECECFF;stroke:#9370DB;stroke-width:1.5"></rect><text x="185.99" y="291.00" text-anchor="middle" dominant-baseline="central" style="fill:#333;font-size:14px;font-weight:bold">LINE_ITEM</text><line x1="125.99" y1="306.00" x2="245.99" y2="306.00" style="stroke:#9370DB;stroke-width:1"></line><line x1="125.99" y1="330.00" x2="245.99" y2="330.00" style="stroke:#9370DB;stroke-width:1"></line><line x1="174.22" y1="306.00" x2="174.22" y2="354.00" style="stroke:#9370DB;stroke-width:1"></line><text x="140.99" y="318.00" text-anchor="start" dominant-baseline="central" style="fill:#333;font-size:13px">int</text><text x="182.22" y="318.00" text-anchor="start" dominant-baseline="central" style="fill:#333;font-size:13px">quantity</text><text x="140.99" y="342.00" text-anchor="start" dominant-baseline="central" style="fill:#333;font-size:13px">float</text><text x="182.22" y="342.00" text-anchor="start" dominant-baseline="central" style="fill:#333;font-size:13px">price</text><rect x="217.98" y="148.00" width="120.00" height="78.00" style="fill:#ECECFF;stroke:#9370DB;stroke-width:1.5"></rect><text x="277.98" y="163.00" text-anchor="middle" dominant-baseline="central" style="fill:#333;font-size:14px;font-weight:bold">PRODUCT</text><line x1="217.98" y1="178.00" x2="337.98" y2="178.00" style="stroke:#9370DB;stroke-width:1"></line><line x1="217.98" y1="202.00" x2="337.98" y2="202.00" style="stroke:#9370DB;stroke-width:1"></line><line x1="273.16" y1="178.00" x2="273.16" y2="226.00" style="stroke:#9370DB;stroke-width:1"></line><text x="232.98" y="190.00" text-anchor="start" dominant-baseline="central" style="fill:#333;font-size:13px">string</text><text x="281.16" y="190.00" text-anchor="start" dominant-baseline="central" style="fill:#333;font-size:13px">sku</text><text x="232.98" y="214.00" text-anchor="start" dominant-baseline="central" style="fill:#333;font-size:13px">string</text><text x="281.16" y="214.00" text-anchor="start" dominant-baseline="central" style="fill:#333;font-size:13px">name</text></svg>