<?xml version="1.0" encoding="UTF-8"?>
<svg xmlns="http://www.w3.org/2000/svg" viewBox="0 0 334.33 410.00"><rect x="0.00" y="0.00" width="334.33" height="410.00" style="fill:#fff;stroke:none"></rect><defs><marker id="er-oneOrMore-end" viewBox="0 0 45 36" refX="27.00" refY="18.00" markerWidth="45.00" markerHeight="36.00" orient="auto"><path d="M3,9 L3,27 M9,18 Q27,0 45,18 Q27,36 9,18" style="stroke:#333;stroke-width:1;fill:none"></path></marker><marker id="er-zeroOrMore-end" viewBox="0 0 57 36" refX="39.00" refY="18.00" markerWidth="57.00" markerHeight="36.00" orient="auto"><circle cx="9.00" cy="18.00" r="6.00" style="fill:#fff;stroke:#333;stroke-width:1"></circle><path d="M21,18 Q39,0 57,18 Q39,36 21,18" style="stroke:#333;stroke-width:1;fill:none"></path></marker></defs><line x1="82.16" y1="110.00" x2="82.16" y2="160.00" style="stroke:#333;stroke-width:1.5;fill:none" marker-end="url(#er-zeroOrMore-end)"></line><g transform="translate(82.16,110.00) rotate(90.00) translate(0.00,-9.00)"><path d="M9,0 L9,18 M15,0 L15,18" style="stroke:#333;stroke-width:1;fill:none"></path></g><text x="82.16" y="135.00" text-anchor="middle" dominant-baseline="central" style="fill:#333;font-size:13px">places</text><line x1="109.83" y1="250.00" x2="140.58" y2="300.00" style="stroke:#333;stroke-width:1.5;fill:none" marker-end="url(#er-oneOrMore-end)"></line><g transform="translate(109.83,250.00) rotate(58.41) translate(0.00,-9.00)"><path d="M9,0 L9,18 M15,0 L15,18" style="stroke:#333;stroke-width:1;fill:none"></path></g><text x="125.21" y="275.00" text-anchor="middle" dominant-baseline="central" style="fill:#333;font-size:13px">contains</text><line x1="226.66" y1="250.00" x2="195.92" y2="300.00" style="stroke:#333;stroke-width:1.5;fill:none" marker-end="url(#er-zeroOrMore-end)"></line><g transform="translate(226.66,250.00) rotate(121.59) translate(0.00,-9.00)"><path d="M9,0 L9,18 M15,0 L15,18" style="stroke:#333;stroke-width:1;fill:none"></path></g><text x="211.29" y="275.00" text-anchor="middle" dominant-baseline="central" style="fill:#333;font-size:13px">includes</text><rect x="22.16" y="20.00" width="120.00" height="90.00" style="fill:#ECECFF;stroke:#9370DB;stroke-width:1.5"></rect><text x="82.16" y="35.00" text-anchor="middle" dominant-baseline="central" style="fill:#333;font-size:14px;font-weight:bold">CUSTOMER</text><line x1="22.16" y1="50.00" x2="142.16" y2="50.00" style="stroke:#9370DB;stroke-width:1"></line><text x="37.16" y="65.00" text-anchor="start" dominant-baseline="central" style="fill:#333;font-size:13px">string name</text><text x="37.16" y="85.00" text-anchor="start" dominant-baseline="central" style="fill:#333;font-size:13px">string email</text><rect x="20.00" y="160.00" width="124.33" height="90.00" style="fill:#ECECFF;stroke:#9370DB;stroke-width:1.5"></rect><text x="82.16" y="175.00" text-anchor="middle" dominant-baseline="central" style="fill:#333;font-size:14px;font-weight:bold">ORDER</text><line x1="20.00" y1="190.00" x2="144.33" y2="190.00" style="stroke:#9370DB;stroke-width:1"></line><text x="35.00" y="205.00" text-anchor="start" dominant-baseline="central" style="fill:#333;font-size:13px">int orderNumber</text><text x="35.00" y="225.00" text-anchor="start" dominant-baseline="central" style="fill:#333;font-size:13px">date orderDate</text><rect x="108.25" y="300.00" width="120.00" height="90.00" style="fill:#ECECFF;stroke:#9370DB;stroke-width:1.5"></rect><text x="168.25" y="315.00" text-anchor="middle" dominant-baseline="central" style="fill:#333;font-size:14px;font-weight:bold">LINE_ITEM</text><line x1="108.25" y1="330.00" x2="228.25" y2="330.00" style="stroke:#9370DB;stroke-width:1"></line><text x="123.25" y="345.00" text-anchor="start" dominant-baseline="central" style="fill:#333;font-size:13px">int quantity</text><text x="123.25" y="365.00" text-anchor="start" dominant-baseline="central" style="fill:#333;font-size:13px">float price</text><rect x="194.33" y="160.00" width="120.00" height="90.00" style="fill:#ECECFF;stroke:#9370DB;stroke-width:1.5"></rect><text x="254.33" y="175.00" text-anchor="middle" dominant-baseline="central" style="fill:#333;font-size:14px;font-weight:bold">PRODUCT</text><line x1="194.33" y1="190.00" x2="314.33" y2="190.00" style="stroke:#9370DB;stroke-width:1"></line><text x="209.33" y="205.00" text-anchor="start" dominant-baseline="central" style="fill:#333;font-size:13px">string sku</text><text x="209.33" y="225.00" text-anchor="start" dominant-baseline="central" style="fill:#333;font-size:13px">string name</text></svg>