<?xml version="1.0" encoding="UTF-8"?>
<svg xmlns="http://www.w3.org/2000/svg" viewBox="0 0 231.05 446.00"><title>Order schema</title><desc>Customer places orders consisting of line items</desc><rect x="0.00" y="0.00" width="231.05" height="446.00" style="fill:#fff;stroke:none"></rect><defs><marker id="er-oneOrMore-end" viewBox="0 0 45 36" refX="27.00" refY="18.00" markerWidth="45.00" markerHeight="36.00" orient="auto"><path d="M3,9 L3,27 M9,18 Q27,0 45,18 Q27,36 9,18" style="stroke:#333;stroke-width:1;fill:none"></path></marker><marker id="er-zeroOrMore-end" viewBox="0 0 57 36" refX="39.00" refY="18.00" markerWidth="57.00" markerHeight="36.00" orient="auto"><circle cx="9.00" cy="18.00" r="6.00" style="fill:#fff;stroke:#333;stroke-width:1"></circle><path d="M21,18 Q39,0 57,18 Q39,36 21,18" style="stroke:#333;stroke-width:1;fill:none"></path></marker></defs><line x1="115.52" y1="122.00" x2="115.52" y2="172.00" style="stroke:#333;stroke-width:1.5;fill:none" marker-end="url(#er-zeroOrMore-end)"></line><rect x="92.43" y="135.48" width="46.19" height="23.03" rx="3.00" ry="3.00" style="fill:#fff;stroke:none"></rect><g transform="translate(115.52,122.00) rotate(90.00) translate(0.00,-9.00)"><path d="M9,0 L9,18 M15,0 L15,18" style="stroke:#333;stroke-width:1;fill:none"></path></g><text x="115.52" y="147.00" text-anchor="middle" dominant-baseline="central" style="fill:#333;font-size:13px">places</text><line x1="115.52" y1="274.00" x2="115.52" y2="324.00" style="stroke:#333;stroke-width:1.5;fill:none" marker-end="url(#er-oneOrMore-end)"></line><rect x="87.12" y="287.48" width="56.81" height="23.03" rx="3.00" ry="3.00" style="fill:#fff;stroke:none"></rect><g transform="translate(115.52,274.00) rotate(90.00) translate(0.00,-9.00)"><path d="M9,0 L9,18 M15,0 L15,18" style="stroke:#333;stroke-width:1;fill:none"></path></g><text x="115.52" y="299.00" text-anchor="middle" dominant-baseline="central" style="fill:#333;font-size:13px">contains</text><rect x="49.61" y="20.00" width="131.83" height="102.00" style="fill:#ECECFF;stroke:#9370DB;stroke-width:1.5;fill:#ffe066;stroke:#f59f00"></rect><text x="115.52" y="35.00" text-anchor="middle" dominant-baseline="central" style="fill:#333;font-size:14px;font-weight:bold">CUSTOMER</text><line x1="49.61" y1="50.00" x2="181.44" y2="50.00" style="stroke:#9370DB;stroke-width:1"></line><line x1="49.61" y1="74.00" x2="181.44" y2="74.00" style="stroke:#9370DB;stroke-width:1"></line><line x1="49.61" y1="98.00" x2="181.44" y2="98.00" style="stroke:#9370DB;stroke-width:1"></line><line x1="104.78" y1="50.00" x2="104.78" y2="122.00" style="stroke:#9370DB;stroke-width:1"></line><text x="64.61" y="62.00" text-anchor="start" dominant-baseline="central" style="fill:#333;font-size:13px">int</text><text x="112.78" y="62.00" text-anchor="start" dominant-baseline="central" style="fill:#333;font-size:13px">id PK</text><text x="64.61" y="86.00" text-anchor="start" dominant-baseline="central" style="fill:#333;font-size:13px">string</text><text x="112.78" y="86.00" text-anchor="start" dominant-baseline="central" style="fill:#333;font-size:13px">name</text><text x="64.61" y="110.00" text-anchor="start" dominant-baseline="central" style="fill:#333;font-size:13px">string</text><text x="112.78" y="110.00" text-anchor="start" dominant-baseline="central" style="fill:#333;font-size:13px">email UK</text><rect x="20.00" y="172.00" width="191.05" height="102.00" style="fill:#ECECFF;stroke:#9370DB;stroke-width:1.5;fill:#a5d8ff"></rect><text x="115.52" y="187.00" text-anchor="middle" dominant-baseline="central" style="fill:#333;font-size:14px;font-weight:bold">ORDER</text><line x1="20.00" y1="202.00" x2="211.05" y2="202.00" style="stroke:#9370DB;stroke-width:1"></line><line x1="20.00" y1="226.00" x2="211.05" y2="226.00" style="stroke:#9370DB;stroke-width:1"></line><line x1="20.00" y1="250.00" x2="211.05" y2="250.00" style="stroke:#9370DB;stroke-width:1"></line><line x1="75.17" y1="202.00" x2="75.17" y2="274.00" style="stroke:#9370DB;stroke-width:1"></line><text x="35.00" y="214.00" text-anchor="start" dominant-baseline="central" style="fill:#333;font-size:13px">int</text><text x="83.17" y="214.00" text-anchor="start" dominant-baseline="central" style="fill:#333;font-size:13px">id PK</text><text x="35.00" y="238.00" text-anchor="start" dominant-baseline="central" style="fill:#333;font-size:13px">int</text><text x="83.17" y="238.00" text-anchor="start" dominant-baseline="central" style="fill:#333;font-size:13px">customer_id PK,FK</text><text x="35.00" y="262.00" text-anchor="start" dominant-baseline="central" style="fill:#333;font-size:13px">string</text><text x="83.17" y="262.00" text-anchor="start" dominant-baseline="central" style="fill:#333;font-size:13px">status</text><rect x="51.34" y="324.00" width="128.36" height="102.00" style="fill:#ECECFF;stroke:#9370DB;stroke-width:1.5;fill:#f1f3f5;stroke:#adb5bd"></rect><text x="115.52" y="339.00" text-anchor="middle" dominant-baseline="central" style="fill:#333;font-size:14px;font-weight:bold">LINE_ITEM</text><line x1="51.34" y1="354.00" x2="179.70" y2="354.00" style="stroke:#9370DB;stroke-width:1"></line><line x1="51.34" y1="378.00" x2="179.70" y2="378.00" style="stroke:#9370DB;stroke-width:1"></line><line x1="51.34" y1="402.00" x2="179.70" y2="402.00" style="stroke:#9370DB;stroke-width:1"></line><line x1="88.45" y1="354.00" x2="88.45" y2="426.00" style="stroke:#9370DB;stroke-width:1"></line><text x="66.34" y="366.00" text-anchor="start" dominant-baseline="central" style="fill:#333;font-size:13px">int</text><text x="96.45" y="366.00" text-anchor="start" dominant-baseline="central" style="fill:#333;font-size:13px">order_id FK</text><text x="66.34" y="390.00" text-anchor="start" dominant-baseline="central" style="fill:#333;font-size:13px">int</text><text x="96.45" y="390.00" text-anchor="start" dominant-baseline="central" style="fill:#333;font-size:13px">sku PK</text><text x="66.34" y="414.00" text-anchor="start" dominant-baseline="central" style="fill:#333;font-size:13px">int</text><text x="96.45" y="414.00" text-anchor="start" dominant-baseline="central" style="fill:#333;font-size:13px">qty</text></svg>