<?xml version="1.0" encoding="UTF-8"?>
<svg xmlns="http://www.w3.org/2000/svg" viewBox="0 0 210.00 530.00"><defs><marker id="arrow-arrow-solid" viewBox="0 0 10 10" refX="9.00" refY="5.00" markerWidth="8.00" markerHeight="8.00" orient="auto"><polygon points="0,0 10,5 0,10" style="fill:#333"></polygon></marker><marker id="arrow-circle-solid" viewBox="0 0 10 10" refX="5.00" refY="5.00" markerWidth="8.00" markerHeight="8.00" orient="auto"><circle cx="5.00" cy="5.00" r="4.00" style="fill:#333;stroke:#333;stroke-width:1.50"></circle></marker><marker id="arrow-cross-solid" viewBox="0 0 10 10" refX="9.00" refY="5.00" markerWidth="8.00" markerHeight="8.00" orient="auto"><path d="M0,0 L10,10 M0,10 L10,0" style="stroke:#333;stroke-width:1.50;fill:none"></path></marker></defs><rect x="0.00" y="0.00" width="210.00" height="530.00" style="fill:#fff;stroke:none"></rect><line x1="80.00" y1="40.00" x2="130.00" y2="40.00" style="stroke:#333;stroke-width:1.5;fill:none" marker-end="url(#arrow-arrow-solid)"></line><line x1="80.00" y1="130.00" x2="130.00" y2="130.00" style="stroke:#333;stroke-width:1.5;fill:none" marker-end="url(#arrow-circle-solid)"></line><line x1="80.00" y1="220.00" x2="130.00" y2="220.00" style="stroke:#333;stroke-width:1.5;fill:none" marker-end="url(#arrow-cross-solid)"></line><line x1="89.00" y1="310.00" x2="130.00" y2="310.00" style="stroke:#333;stroke-width:1.5;fill:none" marker-end="url(#arrow-arrow-solid)"></line><polygon points="80.00,310.00 89.00,314.50 89.00,305.50" style="fill:#333"></polygon><line x1="89.00" y1="400.00" x2="130.00" y2="400.00" style="stroke:#333;stroke-width:1.5;fill:none" marker-end="url(#arrow-circle-solid)"></line><circle cx="89.00" cy="400.00" r="3.60" style="fill:#333;stroke:#333;stroke-width:1.50"></circle><line x1="89.00" y1="490.00" x2="130.00" y2="490.00" style="stroke:#333;stroke-width:1.5;fill:none" marker-end="url(#arrow-cross-solid)"></line><path d="M93.50,490.00 L84.50,490.00 M89.00,494.50 L89.00,485.50" style="stroke:#333;stroke-width:1.50;fill:none"></path><rect x="20.00" y="20.00" width="60.00" height="40.00" style="fill:#ECECFF;stroke:#9370DB;stroke-width:1.50"></rect><text x="50.00" y="40.00" text-anchor="middle" dominant-baseline="central" font-size="16.00" style="fill:#333;font-size:16.00px">A</text><rect x="130.00" y="20.00" width="60.00" height="40.00" style="fill:#ECECFF;stroke:#9370DB;stroke-width:1.50"></rect><text x="160.00" y="40.00" text-anchor="middle" dominant-baseline="central" font-size="16.00" style="fill:#333;font-size:16.00px">B</text><rect x="20.00" y="110.00" width="60.00" height="40.00" style="fill:#ECECFF;stroke:#9370DB;stroke-width:1.50"></rect><text x="50.00" y="130.00" text-anchor="middle" dominant-baseline="central" font-size="16.00" style="fill:#333;font-size:16.00px">C</text><rect x="130.00" y="110.00" width="60.00" height="40.00" style="fill:#ECECFF;stroke:#9370DB;stroke-width:1.50"></rect><text x="160.00" y="130.00" text-anchor="middle" dominant-baseline="central" font-size="16.00" style="fill:#333;font-size:16.00px">D</text><rect x="20.00" y="200.00" width="60.00" height="40.00" style="fill:#ECECFF;stroke:#9370DB;stroke-width:1.50"></rect><text x="50.00" y="220.00" text-anchor="middle" dominant-baseline="central" font-size="16.00" style="fill:#333;font-size:16.00px">E</text><rect x="130.00" y="200.00" width="60.00" height="40.00" style="fill:#ECECFF;stroke:#9370DB;stroke-width:1.50"></rect><text x="160.00" y="220.00" text-anchor="middle" dominant-baseline="central" font-size="16.00" style="fill:#333;font-size:16.00px">F</text><rect x="20.00" y="290.00" width="60.00" height="40.00" style="fill:#ECECFF;stroke:#9370DB;stroke-width:1.50"></rect><text x="50.00" y="310.00" text-anchor="middle" dominant-baseline="central" font-size="16.00" style="fill:#333;font-size:16.00px">G</text><rect x="130.00" y="290.00" width="60.00" height="40.00" style="fill:#ECECFF;stroke:#9370DB;stroke-width:1.50"></rect><text x="160.00" y="310.00" text-anchor="middle" dominant-baseline="central" font-size="16.00" style="fill:#333;font-size:16.00px">H</text><rect x="20.00" y="380.00" width="60.00" height="40.00" style="fill:#ECECFF;stroke:#9370DB;stroke-width:1.50"></rect><text x="50.00" y="400.00" text-anchor="middle" dominant-baseline="central" font-size="16.00" style="fill:#333;font-size:16.00px">I</text><rect x="130.00" y="380.00" width="60.00" height="40.00" style="fill:#ECECFF;stroke:#9370DB;stroke-width:1.50"></rect><text x="160.00" y="400.00" text-anchor="middle" dominant-baseline="central" font-size="16.00" style="fill:#333;font-size:16.00px">J</text><rect x="20.00" y="470.00" width="60.00" height="40.00" style="fill:#ECECFF;stroke:#9370DB;stroke-width:1.50"></rect><text x="50.00" y="490.00" text-anchor="middle" dominant-baseline="central" font-size="16.00" style="fill:#333;font-size:16.00px">K</text><rect x="130.00" y="470.00" width="60.00" height="40.00" style="fill:#ECECFF;stroke:#9370DB;stroke-width:1.50"></rect><text x="160.00" y="490.00" text-anchor="middle" dominant-baseline="central" font-size="16.00" style="fill:#333;font-size:16.00px">L</text></svg>