<?xml version="1.0" encoding="UTF-8"?>
<svg xmlns="http://www.w3.org/2000/svg" viewBox="0 0 210.00 530.00"><defs><marker id="arrow-arrow-solid" viewBox="0 0 10 10" refX="9.00" refY="5.00" markerWidth="8.00" markerHeight="8.00" orient="auto"><polygon points="0,0 10,5 0,10" style="fill:#333"></polygon></marker><marker id="arrow-circle-solid" viewBox="0 0 10 10" refX="5.00" refY="5.00" markerWidth="8.00" markerHeight="8.00" orient="auto"><circle cx="5.00" cy="5.00" r="4.00" style="fill:#333;stroke:#333;stroke-width:1.50"></circle></marker><marker id="arrow-cross-solid" viewBox="0 0 10 10" refX="9.00" refY="5.00" markerWidth="8.00" markerHeight="8.00" orient="auto"><path d="M0,0 L10,10 M0,10 L10,0" style="stroke:#333;stroke-width:1.50;fill:none"></path></marker></defs><rect x="0.00" y="0.00" width="210.00" height="530.00" style="fill:#fff;stroke:none"></rect><path d="M80.00,40.00 L85.00,40.00 C85.00,40.00 125.00,40.00 125.00,40.00 L130.00,40.00" style="stroke:#333;stroke-width:1.5;fill:none" marker-end="url(#arrow-arrow-solid)"></path><path d="M80.00,130.00 L85.00,130.00 C85.00,130.00 125.00,130.00 125.00,130.00 L130.00,130.00" style="stroke:#333;stroke-width:1.5;fill:none" marker-end="url(#arrow-circle-solid)"></path><path d="M80.00,220.00 L85.00,220.00 C85.00,220.00 125.00,220.00 125.00,220.00 L130.00,220.00" style="stroke:#333;stroke-width:1.5;fill:none" marker-end="url(#arrow-cross-solid)"></path><path d="M89.00,310.00 L94.00,310.00 C94.00,310.00 125.00,310.00 125.00,310.00 L130.00,310.00" style="stroke:#333;stroke-width:1.5;fill:none" marker-end="url(#arrow-arrow-solid)"></path><g transform="translate(89.00,310.00) rotate(180.00) translate(-9.00,-5.00)"><polygon points="0,0 10,5 0,10" style="fill:#333"></polygon></g><path d="M85.00,400.00 L90.00,400.00 C90.00,400.00 125.00,400.00 125.00,400.00 L130.00,400.00" style="stroke:#333;stroke-width:1.5;fill:none" marker-end="url(#arrow-circle-solid)"></path><g transform="translate(85.00,400.00) rotate(180.00) translate(-5.00,-5.00)"><circle cx="5.00" cy="5.00" r="4.00" style="fill:#333;stroke:#333;stroke-width:1.50"></circle></g><path d="M89.00,490.00 L94.00,490.00 C94.00,490.00 125.00,490.00 125.00,490.00 L130.00,490.00" style="stroke:#333;stroke-width:1.5;fill:none" marker-end="url(#arrow-cross-solid)"></path><g transform="translate(89.00,490.00) rotate(180.00) translate(-9.00,-5.00)"><path d="M0,0 L10,10 M0,10 L10,0" style="stroke:#333;stroke-width:1.50;fill:none"></path></g><rect x="20.00" y="20.00" width="60.00" height="40.00" style="fill:#ECECFF;stroke:#9370DB;stroke-width:1.50"></rect><text x="50.00" y="40.00" text-anchor="middle" dominant-baseline="central" font-size="16.00" style="fill:#333;font-size:16.00px">A</text><rect x="130.00" y="20.00" width="60.00" height="40.00" style="fill:#ECECFF;stroke:#9370DB;stroke-width:1.50"></rect><text x="160.00" y="40.00" text-anchor="middle" dominant-baseline="central" font-size="16.00" style="fill:#333;font-size:16.00px">B</text><rect x="20.00" y="110.00" width="60.00" height="40.00" style="fill:#ECECFF;stroke:#9370DB;stroke-width:1.50"></rect><text x="50.00" y="130.00" text-anchor="middle" dominant-baseline="central" font-size="16.00" style="fill:#333;font-size:16.00px">C</text><rect x="130.00" y="110.00" width="60.00" height="40.00" style="fill:#ECECFF;stroke:#9370DB;stroke-width:1.50"></rect><text x="160.00" y="130.00" text-anchor="middle" dominant-baseline="central" font-size="16.00" style="fill:#333;font-size:16.00px">D</text><rect x="20.00" y="200.00" width="60.00" height="40.00" style="fill:#ECECFF;stroke:#9370DB;stroke-width:1.50"></rect><text x="50.00" y="220.00" text-anchor="middle" dominant-baseline="central" font-size="16.00" style="fill:#333;font-size:16.00px">E</text><rect x="130.00" y="200.00" width="60.00" height="40.00" style="fill:#ECECFF;stroke:#9370DB;stroke-width:1.50"></rect><text x="160.00" y="220.00" text-anchor="middle" dominant-baseline="central" font-size="16.00" style="fill:#333;font-size:16.00px">F</text><rect x="20.00" y="290.00" width="60.00" height="40.00" style="fill:#ECECFF;stroke:#9370DB;stroke-width:1.50"></rect><text x="50.00" y="310.00" text-anchor="middle" dominant-baseline="central" font-size="16.00" style="fill:#333;font-size:16.00px">G</text><rect x="130.00" y="290.00" width="60.00" height="40.00" style="fill:#ECECFF;stroke:#9370DB;stroke-width:1.50"></rect><text x="160.00" y="310.00" text-anchor="middle" dominant-baseline="central" font-size="16.00" style="fill:#333;font-size:16.00px">H</text><rect x="20.00" y="380.00" width="60.00" height="40.00" style="fill:#ECECFF;stroke:#9370DB;stroke-width:1.50"></rect><text x="50.00" y="400.00" text-anchor="middle" dominant-baseline="central" font-size="16.00" style="fill:#333;font-size:16.00px">I</text><rect x="130.00" y="380.00" width="60.00" height="40.00" style="fill:#ECECFF;stroke:#9370DB;stroke-width:1.50"></rect><text x="160.00" y="400.00" text-anchor="middle" dominant-baseline="central" font-size="16.00" style="fill:#333;font-size:16.00px">J</text><rect x="20.00" y="470.00" width="60.00" height="40.00" style="fill:#ECECFF;stroke:#9370DB;stroke-width:1.50"></rect><text x="50.00" y="490.00" text-anchor="middle" dominant-baseline="central" font-size="16.00" style="fill:#333;font-size:16.00px">K</text><rect x="130.00" y="470.00" width="60.00" height="40.00" style="fill:#ECECFF;stroke:#9370DB;stroke-width:1.50"></rect><text x="160.00" y="490.00" text-anchor="middle" dominant-baseline="central" font-size="16.00" style="fill:#333;font-size:16.00px">L</text></svg>