<?xml version="1.0" encoding="UTF-8"?>
<svg xmlns="http://www.w3.org/2000/svg" viewBox="0 0 522.49 451.00"><defs><marker id="arrow-arrow-solid" viewBox="0 0 10 10" refX="9.00" refY="5.00" markerWidth="8.00" markerHeight="8.00" orient="auto"><polygon points="0,0 10,5 0,10" style="fill:#333"></polygon></marker></defs><rect x="0.00" y="0.00" width="522.49" height="451.00" style="fill:#fff;stroke:none"></rect><rect x="0.00" y="184.40" width="149.28" height="82.20" rx="6.00" ry="6.00" style="fill:#E3F2FD;fill-opacity:0.35;stroke:#90CAF9;stroke-dasharray:4,3;stroke-width:1"></rect><rect x="159.28" y="184.40" width="173.61" height="82.20" rx="6.00" ry="6.00" style="fill:#E8F5E9;fill-opacity:0.35;stroke:#A5D6A7;stroke-dasharray:4,3;stroke-width:1"></rect><rect x="335.07" y="276.60" width="187.42" height="82.20" rx="6.00" ry="6.00" style="fill:#FFF9C4;fill-opacity:0.35;stroke:#FFF176;stroke-dasharray:4,3;stroke-width:1"></rect><line x1="113.88" y1="246.60" x2="206.85" y2="296.60" style="stroke:#333;stroke-width:1.5;fill:none" marker-end="url(#arrow-arrow-solid)"></line><line x1="407.88" y1="338.80" x2="358.34" y2="388.80" style="stroke:#333;stroke-width:1.5;fill:none" marker-end="url(#arrow-arrow-solid)"></line><line x1="266.99" y1="338.80" x2="316.53" y2="388.80" style="stroke:#333;stroke-width:1.5;fill:none" marker-end="url(#arrow-arrow-solid)"></line><path d="M219.42,144.74 C216.26,146.10 190.99,156.94 187.83,158.30 C184.67,159.66 195.59,153.69 187.83,158.30 C180.06,162.91 117.94,199.79 110.18,204.40" style="stroke:#333;stroke-width:1.5;fill:none" marker-end="url(#arrow-arrow-solid)"></path><rect x="193.65" y="147.94" width="35.73" height="26.50" rx="3.00" ry="3.00" style="fill:#fff;stroke:none"></rect><text x="211.52" y="161.19" text-anchor="middle" dominant-baseline="central" font-size="16.00" style="fill:#333;font-size:16.00px">API</text><path d="M272.75,144.74 C275.91,146.10 295.28,150.22 304.34,158.30 C313.41,166.38 352.44,211.67 363.39,225.50 C374.34,239.33 408.77,289.49 413.82,296.60" style="stroke:#333;stroke-width:1.5;fill:none" marker-end="url(#arrow-arrow-solid)"></path><rect x="265.82" y="125.89" width="48.59" height="26.50" rx="3.00" ry="3.00" style="fill:#fff;stroke:none"></rect><text x="290.12" y="139.14" text-anchor="middle" dominant-baseline="central" font-size="16.00" style="fill:#333;font-size:16.00px">Static</text><path d="M246.09,154.40 C246.09,156.90 246.09,176.90 246.09,179.40 C246.09,181.90 246.09,176.90 246.09,179.40 C246.09,181.90 246.09,201.90 246.09,204.40" style="stroke:#333;stroke-width:1.5;fill:none" marker-end="url(#arrow-arrow-solid)"></path><rect x="213.63" y="151.15" width="40.92" height="26.50" rx="3.00" ry="3.00" style="fill:#fff;stroke:none"></rect><text x="234.09" y="164.40" text-anchor="middle" dominant-baseline="central" font-size="16.00" style="fill:#333;font-size:16.00px">Web</text><line x1="246.09" y1="62.20" x2="246.09" y2="112.20" style="stroke:#333;stroke-width:1.5;fill:none" marker-end="url(#arrow-arrow-solid)"></line><line x1="246.09" y1="246.60" x2="246.09" y2="296.60" style="stroke:#333;stroke-width:1.5;fill:none" marker-end="url(#arrow-arrow-solid)"></line><rect x="168.47" y="20.00" width="155.23" height="42.20" rx="2.00" ry="2.00" style="fill:#ECECFF;stroke:#9370DB;stroke-width:1.50"></rect><text x="246.09" y="41.10" text-anchor="middle" dominant-baseline="central" font-size="16.00" style="fill:#333;font-size:16.00px">Incoming request</text><polygon points="246.09,112.20 304.34,133.30 246.09,154.40 187.83,133.30" style="fill:#ECECFF;stroke:#9370DB;stroke-width:1.50"></polygon><text x="246.09" y="133.30" text-anchor="middle" dominant-baseline="central" font-size="16.00" style="fill:#333;font-size:16.00px">Route type?</text><rect x="20.00" y="204.40" width="109.28" height="42.20" rx="2.00" ry="2.00" style="fill:#ECECFF;stroke:#9370DB;stroke-width:1.50"></rect><text x="74.64" y="225.50" text-anchor="middle" dominant-baseline="central" font-size="16.00" style="fill:#333;font-size:16.00px">Auth check</text><rect x="179.28" y="204.40" width="133.61" height="42.20" rx="2.00" ry="2.00" style="fill:#ECECFF;stroke:#9370DB;stroke-width:1.50"></rect><text x="246.09" y="225.50" text-anchor="middle" dominant-baseline="central" font-size="16.00" style="fill:#333;font-size:16.00px">Session check</text><rect x="355.07" y="296.60" width="147.42" height="42.20" rx="2.00" ry="2.00" style="fill:#ECECFF;stroke:#9370DB;stroke-width:1.50"></rect><text x="428.78" y="317.70" text-anchor="middle" dominant-baseline="central" font-size="16.00" style="fill:#333;font-size:16.00px">Serve from CDN</text><rect x="187.10" y="296.60" width="117.97" height="42.20" rx="2.00" ry="2.00" style="fill:#ECECFF;stroke:#9370DB;stroke-width:1.50"></rect><text x="246.09" y="317.70" text-anchor="middle" dominant-baseline="central" font-size="16.00" style="fill:#333;font-size:16.00px">Run handler</text><rect x="286.39" y="388.80" width="102.09" height="42.20" rx="2.00" ry="2.00" style="fill:#ECECFF;stroke:#9370DB;stroke-width:1.50"></rect><text x="337.43" y="409.90" text-anchor="middle" dominant-baseline="central" font-size="16.00" style="fill:#333;font-size:16.00px">Response</text></svg>