<?xml version="1.0" encoding="UTF-8"?>
<svg xmlns="http://www.w3.org/2000/svg" viewBox="0 0 430.00 440.00"><defs><marker id="arrow-arrow-solid" viewBox="0 0 10 10" refX="9.00" refY="5.00" markerWidth="8.00" markerHeight="8.00" orient="auto"><polygon points="0,0 10,5 0,10" style="fill:#333"></polygon></marker></defs><rect x="0.00" y="0.00" width="430.00" height="440.00" style="fill:#fff;stroke:none"></rect><rect x="330.00" y="180.00" width="100.00" height="80.00" rx="6.00" ry="6.00" style="fill:#E3F2FD;fill-opacity:0.35;stroke:#90CAF9;stroke-dasharray:4,3;stroke-width:1"></rect><rect x="330.00" y="270.00" width="100.00" height="80.00" rx="6.00" ry="6.00" style="fill:#E8F5E9;fill-opacity:0.35;stroke:#A5D6A7;stroke-dasharray:4,3;stroke-width:1"></rect><rect x="330.00" y="360.00" width="100.00" height="80.00" rx="6.00" ry="6.00" style="fill:#FFF9C4;fill-opacity:0.35;stroke:#FFF176;stroke-dasharray:4,3;stroke-width:1"></rect><line x1="80.00" y1="40.00" x2="130.00" y2="40.00" style="stroke:#333;stroke-width:1.5;fill:none" marker-end="url(#arrow-arrow-solid)"></line><line x1="190.00" y1="40.00" x2="240.00" y2="40.00" style="stroke:#333;stroke-width:1.5;fill:none" marker-end="url(#arrow-arrow-solid)"></line><line x1="300.00" y1="40.00" x2="350.00" y2="40.00" style="stroke:#333;stroke-width:1.5;fill:none" marker-end="url(#arrow-arrow-solid)"></line><path d="M300.00,304.55 C302.50,304.09 322.50,300.45 325.00,300.00 C327.50,299.55 320.88,306.00 325.00,300.00 C329.12,294.00 362.12,246.00 366.25,240.00" style="stroke:#333;stroke-width:1.5;fill:none" marker-end="url(#arrow-arrow-solid)"></path><path d="M300.00,310.00 C302.50,310.00 322.50,310.00 325.00,310.00 C327.50,310.00 322.50,310.00 325.00,310.00 C327.50,310.00 347.50,310.00 350.00,310.00" style="stroke:#333;stroke-width:1.5;fill:none" marker-end="url(#arrow-arrow-solid)"></path><path d="M300.00,315.45 C302.50,315.91 322.50,319.55 325.00,320.00 C327.50,320.45 320.88,314.00 325.00,320.00 C329.12,326.00 362.12,374.00 366.25,380.00" style="stroke:#333;stroke-width:1.5;fill:none" marker-end="url(#arrow-arrow-solid)"></path><rect x="20.00" y="20.00" width="60.00" height="40.00" style="fill:#ECECFF;stroke:#9370DB;stroke-width:1.50"></rect><text x="50.00" y="40.00" text-anchor="middle" dominant-baseline="central" font-size="16.00" style="fill:#333;font-size:16.00px">A</text><rect x="130.00" y="20.00" width="60.00" height="40.00" style="fill:#ECECFF;stroke:#9370DB;stroke-width:1.50"></rect><text x="160.00" y="40.00" text-anchor="middle" dominant-baseline="central" font-size="16.00" style="fill:#333;font-size:16.00px">B</text><rect x="240.00" y="20.00" width="60.00" height="40.00" style="fill:#ECECFF;stroke:#9370DB;stroke-width:1.50"></rect><text x="270.00" y="40.00" text-anchor="middle" dominant-baseline="central" font-size="16.00" style="fill:#333;font-size:16.00px">C</text><rect x="350.00" y="20.00" width="60.00" height="40.00" style="fill:#ECECFF;stroke:#9370DB;stroke-width:1.50"></rect><text x="380.00" y="40.00" text-anchor="middle" dominant-baseline="central" font-size="16.00" style="fill:#333;font-size:16.00px">D</text><rect x="240.00" y="290.00" width="60.00" height="40.00" style="fill:#ECECFF;stroke:#9370DB;stroke-width:1.50"></rect><text x="270.00" y="310.00" text-anchor="middle" dominant-baseline="central" font-size="16.00" style="fill:#333;font-size:16.00px">E</text><rect x="350.00" y="200.00" width="60.00" height="40.00" style="fill:#ECECFF;stroke:#9370DB;stroke-width:1.50"></rect><text x="380.00" y="220.00" text-anchor="middle" dominant-baseline="central" font-size="16.00" style="fill:#333;font-size:16.00px">F</text><rect x="350.00" y="290.00" width="60.00" height="40.00" style="fill:#ECECFF;stroke:#9370DB;stroke-width:1.50"></rect><text x="380.00" y="310.00" text-anchor="middle" dominant-baseline="central" font-size="16.00" style="fill:#333;font-size:16.00px">G</text><rect x="350.00" y="380.00" width="60.00" height="40.00" style="fill:#ECECFF;stroke:#9370DB;stroke-width:1.50"></rect><text x="380.00" y="400.00" text-anchor="middle" dominant-baseline="central" font-size="16.00" style="fill:#333;font-size:16.00px">H</text></svg>