<?xml version="1.0" encoding="UTF-8"?>
<svg xmlns="http://www.w3.org/2000/svg" viewBox="0 0 1607.91 234.40"><defs><marker id="arrow-arrow-solid" viewBox="0 0 10 10" refX="9.00" refY="5.00" markerWidth="8.00" markerHeight="8.00" orient="auto"><polygon points="0,0 10,5 0,10" style="fill:#333"></polygon></marker></defs><rect x="0.00" y="0.00" width="1607.91" height="234.40" style="fill:#fff;stroke:none"></rect><g id="build"><rect x="42.00" y="66.10" width="681.86" height="80.20" rx="5.00" ry="5.00" style="fill:#eee;stroke:#999;stroke-width:1.50"></rect><text x="382.93" y="81.10" text-anchor="middle" dominant-baseline="central" font-size="16.00" style="fill:#333;font-size:16.00px">Build</text></g><g id="deploy"><rect x="757.86" y="20.00" width="808.05" height="80.20" rx="5.00" ry="5.00" style="fill:#eee;stroke:#999;stroke-width:1.50"></rect><text x="1161.88" y="35.00" text-anchor="middle" dominant-baseline="central" font-size="16.00" style="fill:#333;font-size:16.00px">Deploy</text></g><line x1="190.45" y1="117.20" x2="240.45" y2="117.20" style="stroke:#333;stroke-width:1.5;fill:none" marker-end="url(#arrow-arrow-solid)"></line><line x1="562.81" y1="117.20" x2="612.81" y2="117.20" style="stroke:#333;stroke-width:1.5;fill:none" marker-end="url(#arrow-arrow-solid)"></line><line x1="422.97" y1="117.20" x2="472.97" y2="117.20" style="stroke:#333;stroke-width:1.5;fill:none" marker-end="url(#arrow-arrow-solid)"></line><line x1="912.98" y1="71.10" x2="962.98" y2="71.10" style="stroke:#333;stroke-width:1.5;fill:none" marker-end="url(#arrow-arrow-solid)"></line><line x1="1120.67" y1="71.10" x2="1170.67" y2="71.10" style="stroke:#333;stroke-width:1.5;fill:none" marker-end="url(#arrow-arrow-solid)"></line><path d="M715.86,130.77 C728.22,134.02 806.83,160.05 839.42,163.30 C872.02,166.55 1000.84,163.30 1041.83,163.30 C1082.82,163.30 1211.99,163.30 1249.33,163.30 C1286.66,163.30 1398.58,163.30 1415.16,163.30" style="stroke:#333;stroke-width:1.5;fill:none" marker-end="url(#arrow-arrow-solid)"></path><rect x="906.62" y="150.05" width="68.02" height="26.50" rx="3.00" ry="3.00" style="fill:#fff;stroke:none"></rect><text x="940.63" y="163.30" text-anchor="middle" dominant-baseline="central" font-size="16.00" style="fill:#333;font-size:16.00px">tests fail</text><line x1="715.86" y1="103.63" x2="765.86" y2="90.47" style="stroke:#333;stroke-width:1.5;fill:none" marker-end="url(#arrow-arrow-solid)"></line><rect x="711.76" y="80.90" width="80.23" height="26.50" rx="3.00" ry="3.00" style="fill:#fff;stroke:none"></rect><text x="751.88" y="94.15" text-anchor="middle" dominant-baseline="central" font-size="16.00" style="fill:#333;font-size:16.00px">tests pass</text><line x1="1327.98" y1="71.10" x2="1377.98" y2="71.10" style="stroke:#333;stroke-width:1.5;fill:none" marker-end="url(#arrow-arrow-solid)"></line><rect x="1415.16" y="142.20" width="105.56" height="42.20" rx="2.00" ry="2.00" style="fill:#ECECFF;stroke:#9370DB;stroke-width:1.50"></rect><text x="1467.95" y="163.30" text-anchor="middle" dominant-baseline="central" font-size="16.00" style="fill:#333;font-size:16.00px">Send Alert</text><rect x="50.00" y="96.10" width="140.45" height="42.20" rx="2.00" ry="2.00" style="fill:#ECECFF;stroke:#9370DB;stroke-width:1.50"></rect><text x="120.23" y="117.20" text-anchor="middle" dominant-baseline="central" font-size="16.00" style="fill:#333;font-size:16.00px">Checkout Code</text><rect x="240.45" y="96.10" width="182.52" height="42.20" rx="2.00" ry="2.00" style="fill:#ECECFF;stroke:#9370DB;stroke-width:1.50"></rect><text x="331.71" y="117.20" text-anchor="middle" dominant-baseline="central" font-size="16.00" style="fill:#333;font-size:16.00px">Install Dependencies</text><rect x="472.97" y="96.10" width="89.84" height="42.20" rx="2.00" ry="2.00" style="fill:#ECECFF;stroke:#9370DB;stroke-width:1.50"></rect><text x="517.89" y="117.20" text-anchor="middle" dominant-baseline="central" font-size="16.00" style="fill:#333;font-size:16.00px">Compile</text><rect x="612.81" y="96.10" width="103.05" height="42.20" rx="2.00" ry="2.00" style="fill:#ECECFF;stroke:#9370DB;stroke-width:1.50"></rect><text x="664.34" y="117.20" text-anchor="middle" dominant-baseline="central" font-size="16.00" style="fill:#333;font-size:16.00px">Run Tests</text><rect x="765.86" y="50.00" width="147.13" height="42.20" rx="2.00" ry="2.00" style="fill:#ECECFF;stroke:#9370DB;stroke-width:1.50"></rect><text x="839.42" y="71.10" text-anchor="middle" dominant-baseline="central" font-size="16.00" style="fill:#333;font-size:16.00px">Package Artifact</text><rect x="962.98" y="50.00" width="157.69" height="42.20" rx="2.00" ry="2.00" style="fill:#ECECFF;stroke:#9370DB;stroke-width:1.50"></rect><text x="1041.83" y="71.10" text-anchor="middle" dominant-baseline="central" font-size="16.00" style="fill:#333;font-size:16.00px">Deploy to Staging</text><rect x="1170.67" y="50.00" width="157.31" height="42.20" rx="2.00" ry="2.00" style="fill:#ECECFF;stroke:#9370DB;stroke-width:1.50"></rect><text x="1249.33" y="71.10" text-anchor="middle" dominant-baseline="central" font-size="16.00" style="fill:#333;font-size:16.00px">Run Smoke Tests</text><rect x="1377.98" y="50.00" width="179.92" height="42.20" rx="2.00" ry="2.00" style="fill:#ECECFF;stroke:#9370DB;stroke-width:1.50"></rect><text x="1467.95" y="71.10" text-anchor="middle" dominant-baseline="central" font-size="16.00" style="fill:#333;font-size:16.00px">Deploy to Production</text></svg>