<?xml version="1.0" encoding="UTF-8"?>
<svg xmlns="http://www.w3.org/2000/svg" viewBox="0 0 1787.91 228.10"><defs><marker id="arrow-arrow-solid" viewBox="0 0 10 10" refX="9.00" refY="5.00" markerWidth="8.00" markerHeight="8.00" orient="auto"><polygon points="0,0 10,5 0,10" style="fill:#333"></polygon></marker></defs><rect x="0.00" y="0.00" width="1787.91" height="228.10" style="fill:#fff;stroke:none"></rect><g transform="translate(0,30.00)"><g id="build"><rect x="2.00" y="42.03" width="821.86" height="102.05" rx="5.00" ry="5.00" style="fill:#eee;stroke:#999;stroke-width:1.50"></rect><text x="412.93" y="60.03" text-anchor="middle" dominant-baseline="central" font-size="16.00" style="fill:#333;font-size:16.00px">Build</text></g><g id="deploy"><rect x="837.86" y="-10.00" width="948.05" height="102.05" rx="5.00" ry="5.00" style="fill:#eee;stroke:#999;stroke-width:1.50"></rect><text x="1311.88" y="8.00" text-anchor="middle" dominant-baseline="central" font-size="16.00" style="fill:#333;font-size:16.00px">Deploy</text></g><line x1="190.45" y1="99.05" x2="240.45" y2="99.05" style="stroke:#333;stroke-width:1.5;fill:none" marker-end="url(#arrow-arrow-solid)"></line><line x1="622.81" y1="99.05" x2="672.81" y2="99.05" style="stroke:#333;stroke-width:1.5;fill:none" marker-end="url(#arrow-arrow-solid)"></line><line x1="452.97" y1="99.05" x2="502.97" y2="99.05" style="stroke:#333;stroke-width:1.5;fill:none" marker-end="url(#arrow-arrow-solid)"></line><line x1="1032.98" y1="47.03" x2="1082.98" y2="47.03" style="stroke:#333;stroke-width:1.5;fill:none" marker-end="url(#arrow-arrow-solid)"></line><line x1="1270.67" y1="47.03" x2="1320.67" y2="47.03" style="stroke:#333;stroke-width:1.5;fill:none" marker-end="url(#arrow-arrow-solid)"></line><path d="M805.86,115.93 C819.72,119.44 907.33,147.56 944.42,151.08 C981.52,154.59 1129.84,151.08 1176.83,151.08 C1223.82,151.08 1372.49,151.08 1414.33,151.08 C1456.16,151.08 1577.08,151.08 1595.16,151.08" style="stroke:#333;stroke-width:1.5;fill:none" marker-end="url(#arrow-arrow-solid)"></path><rect x="1026.62" y="137.83" width="68.02" height="26.50" rx="3.00" ry="3.00" style="fill:#fff;stroke:none"></rect><text x="1060.63" y="151.08" text-anchor="middle" dominant-baseline="central" font-size="16.00" style="fill:#333;font-size:16.00px">tests fail</text><line x1="805.86" y1="82.17" x2="855.86" y2="69.49" style="stroke:#333;stroke-width:1.5;fill:none" marker-end="url(#arrow-arrow-solid)"></line><rect x="801.76" y="59.79" width="80.23" height="26.50" rx="3.00" ry="3.00" style="fill:#fff;stroke:none"></rect><text x="841.88" y="73.04" text-anchor="middle" dominant-baseline="central" font-size="16.00" style="fill:#333;font-size:16.00px">tests pass</text><line x1="1507.98" y1="47.03" x2="1557.98" y2="47.03" style="stroke:#333;stroke-width:1.5;fill:none" marker-end="url(#arrow-arrow-solid)"></line><rect x="1595.16" y="124.05" width="135.56" height="54.05" rx="2.00" ry="2.00" style="fill:#ECECFF;stroke:#9370DB;stroke-width:1.50"></rect><text x="1662.95" y="151.08" text-anchor="middle" dominant-baseline="central" font-size="16.00" style="fill:#333;font-size:16.00px">Send Alert</text><rect x="20.00" y="72.03" width="170.45" height="54.05" rx="2.00" ry="2.00" style="fill:#ECECFF;stroke:#9370DB;stroke-width:1.50"></rect><text x="105.23" y="99.05" text-anchor="middle" dominant-baseline="central" font-size="16.00" style="fill:#333;font-size:16.00px">Checkout Code</text><rect x="240.45" y="72.03" width="212.52" height="54.05" rx="2.00" ry="2.00" style="fill:#ECECFF;stroke:#9370DB;stroke-width:1.50"></rect><text x="346.71" y="99.05" text-anchor="middle" dominant-baseline="central" font-size="16.00" style="fill:#333;font-size:16.00px">Install Dependencies</text><rect x="502.97" y="72.03" width="119.84" height="54.05" rx="2.00" ry="2.00" style="fill:#ECECFF;stroke:#9370DB;stroke-width:1.50"></rect><text x="562.89" y="99.05" text-anchor="middle" dominant-baseline="central" font-size="16.00" style="fill:#333;font-size:16.00px">Compile</text><rect x="672.81" y="72.03" width="133.05" height="54.05" rx="2.00" ry="2.00" style="fill:#ECECFF;stroke:#9370DB;stroke-width:1.50"></rect><text x="739.34" y="99.05" text-anchor="middle" dominant-baseline="central" font-size="16.00" style="fill:#333;font-size:16.00px">Run Tests</text><rect x="855.86" y="20.00" width="177.13" height="54.05" rx="2.00" ry="2.00" style="fill:#ECECFF;stroke:#9370DB;stroke-width:1.50"></rect><text x="944.42" y="47.03" text-anchor="middle" dominant-baseline="central" font-size="16.00" style="fill:#333;font-size:16.00px">Package Artifact</text><rect x="1082.98" y="20.00" width="187.69" height="54.05" rx="2.00" ry="2.00" style="fill:#ECECFF;stroke:#9370DB;stroke-width:1.50"></rect><text x="1176.83" y="47.03" text-anchor="middle" dominant-baseline="central" font-size="16.00" style="fill:#333;font-size:16.00px">Deploy to Staging</text><rect x="1320.67" y="20.00" width="187.31" height="54.05" rx="2.00" ry="2.00" style="fill:#ECECFF;stroke:#9370DB;stroke-width:1.50"></rect><text x="1414.33" y="47.03" text-anchor="middle" dominant-baseline="central" font-size="16.00" style="fill:#333;font-size:16.00px">Run Smoke Tests</text><rect x="1557.98" y="20.00" width="209.92" height="54.05" rx="2.00" ry="2.00" style="fill:#ECECFF;stroke:#9370DB;stroke-width:1.50"></rect><text x="1662.95" y="47.03" text-anchor="middle" dominant-baseline="central" font-size="16.00" style="fill:#333;font-size:16.00px">Deploy to Production</text></g></svg>