<?xml version="1.0" encoding="UTF-8"?>
<svg xmlns="http://www.w3.org/2000/svg" viewBox="0 0 1787.91 228.10"><defs><marker id="arrow-arrow-solid" viewBox="0 0 10 10" refX="9.00" refY="5.00" markerWidth="8.00" markerHeight="8.00" orient="auto"><polygon points="0,0 10,5 0,10" style="fill:#333"></polygon></marker></defs><rect x="0.00" y="0.00" width="1787.91" height="228.10" style="fill:#fff;stroke:none"></rect><g transform="translate(0,30.00)"><g id="build"><rect x="2.00" y="42.03" width="821.86" height="102.05" rx="5.00" ry="5.00" style="fill:#eee;stroke:#999;stroke-width:1.50"></rect><text x="412.93" y="60.03" text-anchor="middle" dominant-baseline="central" font-size="16.00" style="fill:#333;font-size:16.00px">Build</text></g><g id="deploy"><rect x="837.86" y="94.05" width="948.05" height="102.05" rx="5.00" ry="5.00" style="fill:#eee;stroke:#999;stroke-width:1.50"></rect><text x="1311.88" y="112.05" text-anchor="middle" dominant-baseline="central" font-size="16.00" style="fill:#333;font-size:16.00px">Deploy</text></g><path d="M190.45,99.05 L195.45,99.05 C195.45,99.05 235.45,99.05 235.45,99.05 L240.45,99.05" style="stroke:#333;stroke-width:1.5;fill:none" marker-end="url(#arrow-arrow-solid)"></path><path d="M622.81,99.05 L627.81,99.05 C627.81,99.05 667.81,99.05 667.81,99.05 L672.81,99.05" style="stroke:#333;stroke-width:1.5;fill:none" marker-end="url(#arrow-arrow-solid)"></path><path d="M452.97,99.05 L457.97,99.05 C457.97,99.05 497.97,99.05 497.97,99.05 L502.97,99.05" style="stroke:#333;stroke-width:1.5;fill:none" marker-end="url(#arrow-arrow-solid)"></path><path d="M1032.98,151.08 L1037.98,151.08 C1037.98,151.08 1077.98,151.08 1077.98,151.08 L1082.98,151.08" style="stroke:#333;stroke-width:1.5;fill:none" marker-end="url(#arrow-arrow-solid)"></path><path d="M1270.67,151.08 L1275.67,151.08 C1275.67,151.08 1315.67,151.08 1315.67,151.08 L1320.67,151.08" style="stroke:#333;stroke-width:1.5;fill:none" marker-end="url(#arrow-arrow-solid)"></path><path d="M805.86,82.17 L810.71,80.95 C810.71,80.95 871.79,65.45 871.79,65.45 L876.64,64.22" style="stroke:#333;stroke-width:1.5;fill:none" marker-end="url(#arrow-arrow-solid)"></path><rect x="807.87" y="59.79" width="68.02" height="26.50" rx="3.00" ry="3.00" style="fill:#fff;stroke:none"></rect><text x="841.88" y="73.04" text-anchor="middle" dominant-baseline="central" font-size="16.00" style="fill:#333;font-size:16.00px">tests fail</text><path d="M805.86,115.93 L810.71,117.15 C810.71,117.15 851.01,127.38 851.01,127.38 L855.86,128.61" style="stroke:#333;stroke-width:1.5;fill:none" marker-end="url(#arrow-arrow-solid)"></path><rect x="801.76" y="111.81" width="80.23" height="26.50" rx="3.00" ry="3.00" style="fill:#fff;stroke:none"></rect><text x="841.88" y="125.06" text-anchor="middle" dominant-baseline="central" font-size="16.00" style="fill:#333;font-size:16.00px">tests pass</text><path d="M1507.98,151.08 L1512.98,151.08 C1512.98,151.08 1552.98,151.08 1552.98,151.08 L1557.98,151.08" style="stroke:#333;stroke-width:1.5;fill:none" marker-end="url(#arrow-arrow-solid)"></path><rect x="876.64" y="20.00" width="135.56" height="54.05" rx="2.00" ry="2.00" style="fill:#ECECFF;stroke:#9370DB;stroke-width:1.50"></rect><text x="944.42" y="47.03" text-anchor="middle" dominant-baseline="central" font-size="16.00" style="fill:#333;font-size:16.00px">Send Alert</text><rect x="20.00" y="72.03" width="170.45" height="54.05" rx="2.00" ry="2.00" style="fill:#ECECFF;stroke:#9370DB;stroke-width:1.50"></rect><text x="105.23" y="99.05" text-anchor="middle" dominant-baseline="central" font-size="16.00" style="fill:#333;font-size:16.00px">Checkout Code</text><rect x="240.45" y="72.03" width="212.52" height="54.05" rx="2.00" ry="2.00" style="fill:#ECECFF;stroke:#9370DB;stroke-width:1.50"></rect><text x="346.71" y="99.05" text-anchor="middle" dominant-baseline="central" font-size="16.00" style="fill:#333;font-size:16.00px">Install Dependencies</text><rect x="502.97" y="72.03" width="119.84" height="54.05" rx="2.00" ry="2.00" style="fill:#ECECFF;stroke:#9370DB;stroke-width:1.50"></rect><text x="562.89" y="99.05" text-anchor="middle" dominant-baseline="central" font-size="16.00" style="fill:#333;font-size:16.00px">Compile</text><rect x="672.81" y="72.03" width="133.05" height="54.05" rx="2.00" ry="2.00" style="fill:#ECECFF;stroke:#9370DB;stroke-width:1.50"></rect><text x="739.34" y="99.05" text-anchor="middle" dominant-baseline="central" font-size="16.00" style="fill:#333;font-size:16.00px">Run Tests</text><rect x="855.86" y="124.05" width="177.13" height="54.05" rx="2.00" ry="2.00" style="fill:#ECECFF;stroke:#9370DB;stroke-width:1.50"></rect><text x="944.42" y="151.08" text-anchor="middle" dominant-baseline="central" font-size="16.00" style="fill:#333;font-size:16.00px">Package Artifact</text><rect x="1082.98" y="124.05" width="187.69" height="54.05" rx="2.00" ry="2.00" style="fill:#ECECFF;stroke:#9370DB;stroke-width:1.50"></rect><text x="1176.83" y="151.08" text-anchor="middle" dominant-baseline="central" font-size="16.00" style="fill:#333;font-size:16.00px">Deploy to Staging</text><rect x="1320.67" y="124.05" width="187.31" height="54.05" rx="2.00" ry="2.00" style="fill:#ECECFF;stroke:#9370DB;stroke-width:1.50"></rect><text x="1414.33" y="151.08" text-anchor="middle" dominant-baseline="central" font-size="16.00" style="fill:#333;font-size:16.00px">Run Smoke Tests</text><rect x="1557.98" y="124.05" width="209.92" height="54.05" rx="2.00" ry="2.00" style="fill:#ECECFF;stroke:#9370DB;stroke-width:1.50"></rect><text x="1662.95" y="151.08" text-anchor="middle" dominant-baseline="central" font-size="16.00" style="fill:#333;font-size:16.00px">Deploy to Production</text></g></svg>