<?xml version="1.0" encoding="UTF-8"?>
<svg xmlns="http://www.w3.org/2000/svg" viewBox="0 0 1547.91 354.40"><defs><marker id="arrow-arrow-solid" viewBox="0 0 10 10" refX="9.00" refY="5.00" markerWidth="8.00" markerHeight="8.00" orient="auto"><polygon points="0,0 10,5 0,10" style="fill:#333"></polygon></marker></defs><rect x="0.00" y="0.00" width="1547.91" height="354.40" style="fill:#fff;stroke:none"></rect><g id="build"><rect x="5.00" y="51.10" width="1477.95" height="208.30" rx="5.00" ry="5.00" style="fill:#eee;stroke:#999;stroke-width:1.50"></rect><text x="15.00" y="69.10" font-size="16.00" style="fill:#333;font-size:16.00px">Build</text></g><g id="deploy"><rect x="720.86" y="5.00" width="822.05" height="344.40" rx="5.00" ry="5.00" style="fill:#eee;stroke:#999;stroke-width:1.50"></rect><text x="730.86" y="23.00" font-size="16.00" style="fill:#333;font-size:16.00px">Deploy</text></g><line x1="160.45" y1="87.20" x2="210.45" y2="87.20" style="stroke:#333;stroke-width:1.5;fill:none" marker-end="url(#arrow-arrow-solid)"></line><line x1="532.81" y1="87.20" x2="582.81" y2="87.20" style="stroke:#333;stroke-width:1.5;fill:none" marker-end="url(#arrow-arrow-solid)"></line><line x1="392.97" y1="87.20" x2="442.97" y2="87.20" style="stroke:#333;stroke-width:1.5;fill:none" marker-end="url(#arrow-arrow-solid)"></line><line x1="882.98" y1="41.10" x2="932.98" y2="41.10" style="stroke:#333;stroke-width:1.5;fill:none" marker-end="url(#arrow-arrow-solid)"></line><line x1="1090.67" y1="41.10" x2="1140.67" y2="41.10" style="stroke:#333;stroke-width:1.5;fill:none" marker-end="url(#arrow-arrow-solid)"></line><path d="M685.86,100.77 C698.22,104.02 776.83,130.05 809.42,133.30 C842.02,136.55 970.84,133.30 1011.83,133.30 C1052.82,133.30 1181.99,133.30 1219.33,133.30 C1256.66,133.30 1368.58,133.30 1385.16,133.30" style="stroke:#333;stroke-width:1.5;fill:none" marker-end="url(#arrow-arrow-solid)"></path><rect x="876.62" y="120.05" width="68.02" height="26.50" rx="3.00" ry="3.00" style="fill:#fff;stroke:none"></rect><text x="910.63" y="133.30" text-anchor="middle" dominant-baseline="central" font-size="16.00" style="fill:#333;font-size:16.00px">tests fail</text><line x1="685.86" y1="73.63" x2="735.86" y2="60.47" style="stroke:#333;stroke-width:1.5;fill:none" marker-end="url(#arrow-arrow-solid)"></line><rect x="681.76" y="50.90" width="80.23" height="26.50" rx="3.00" ry="3.00" style="fill:#fff;stroke:none"></rect><text x="721.88" y="64.15" text-anchor="middle" dominant-baseline="central" font-size="16.00" style="fill:#333;font-size:16.00px">tests pass</text><line x1="1297.98" y1="41.10" x2="1347.98" y2="41.10" style="stroke:#333;stroke-width:1.5;fill:none" marker-end="url(#arrow-arrow-solid)"></line><rect x="1385.16" y="112.20" width="105.56" height="42.20" rx="2.00" ry="2.00" style="fill:#ECECFF;stroke:#9370DB;stroke-width:1.50"></rect><text x="1437.95" y="133.30" text-anchor="middle" dominant-baseline="central" font-size="16.00" style="fill:#333;font-size:16.00px">Send Alert</text><rect x="1407.95" y="204.40" width="60.00" height="40.00" style="fill:#ECECFF;stroke:#9370DB;stroke-width:1.50"></rect><text x="1437.95" y="224.40" text-anchor="middle" dominant-baseline="central" font-size="16.00" style="fill:#333;font-size:16.00px"></text><rect x="20.00" y="66.10" width="140.45" height="42.20" rx="2.00" ry="2.00" style="fill:#ECECFF;stroke:#9370DB;stroke-width:1.50"></rect><text x="90.23" y="87.20" text-anchor="middle" dominant-baseline="central" font-size="16.00" style="fill:#333;font-size:16.00px">Checkout Code</text><rect x="210.45" y="66.10" width="182.52" height="42.20" rx="2.00" ry="2.00" style="fill:#ECECFF;stroke:#9370DB;stroke-width:1.50"></rect><text x="301.71" y="87.20" text-anchor="middle" dominant-baseline="central" font-size="16.00" style="fill:#333;font-size:16.00px">Install Dependencies</text><rect x="442.97" y="66.10" width="89.84" height="42.20" rx="2.00" ry="2.00" style="fill:#ECECFF;stroke:#9370DB;stroke-width:1.50"></rect><text x="487.89" y="87.20" text-anchor="middle" dominant-baseline="central" font-size="16.00" style="fill:#333;font-size:16.00px">Compile</text><rect x="582.81" y="66.10" width="103.05" height="42.20" rx="2.00" ry="2.00" style="fill:#ECECFF;stroke:#9370DB;stroke-width:1.50"></rect><text x="634.34" y="87.20" text-anchor="middle" dominant-baseline="central" font-size="16.00" style="fill:#333;font-size:16.00px">Run Tests</text><rect x="1407.95" y="294.40" width="60.00" height="40.00" style="fill:#ECECFF;stroke:#9370DB;stroke-width:1.50"></rect><text x="1437.95" y="314.40" text-anchor="middle" dominant-baseline="central" font-size="16.00" style="fill:#333;font-size:16.00px"></text><rect x="735.86" y="20.00" width="147.13" height="42.20" rx="2.00" ry="2.00" style="fill:#ECECFF;stroke:#9370DB;stroke-width:1.50"></rect><text x="809.42" y="41.10" text-anchor="middle" dominant-baseline="central" font-size="16.00" style="fill:#333;font-size:16.00px">Package Artifact</text><rect x="932.98" y="20.00" width="157.69" height="42.20" rx="2.00" ry="2.00" style="fill:#ECECFF;stroke:#9370DB;stroke-width:1.50"></rect><text x="1011.83" y="41.10" text-anchor="middle" dominant-baseline="central" font-size="16.00" style="fill:#333;font-size:16.00px">Deploy to Staging</text><rect x="1140.67" y="20.00" width="157.31" height="42.20" rx="2.00" ry="2.00" style="fill:#ECECFF;stroke:#9370DB;stroke-width:1.50"></rect><text x="1219.33" y="41.10" text-anchor="middle" dominant-baseline="central" font-size="16.00" style="fill:#333;font-size:16.00px">Run Smoke Tests</text><rect x="1347.98" y="20.00" width="179.92" height="42.20" rx="2.00" ry="2.00" style="fill:#ECECFF;stroke:#9370DB;stroke-width:1.50"></rect><text x="1437.95" y="41.10" text-anchor="middle" dominant-baseline="central" font-size="16.00" style="fill:#333;font-size:16.00px">Deploy to Production</text></svg>