<?xml version="1.0" encoding="UTF-8"?>
<svg xmlns="http://www.w3.org/2000/svg" viewBox="0 0 320.00 560.00"><defs><marker id="arrow-arrow-solid" viewBox="0 0 10 10" refX="9.00" refY="5.00" markerWidth="8.00" markerHeight="8.00" orient="auto"><polygon points="0,0 10,5 0,10" style="fill:#333"></polygon></marker></defs><rect x="0.00" y="0.00" width="320.00" height="560.00" style="fill:#fff;stroke:none"></rect><g transform="translate(0,30.00)"><g id="top_to_bottom"><rect x="2.00" y="-10.00" width="316.00" height="88.00" rx="5.00" ry="5.00" style="fill:#eee;stroke:#999;stroke-width:1.50"></rect><text x="160.00" y="8.00" text-anchor="middle" dominant-baseline="central" font-size="16.00" style="fill:#333;font-size:16.00px">top_to_bottom</text></g><g id="bottom_to_top"><rect x="2.00" y="80.00" width="316.00" height="88.00" rx="5.00" ry="5.00" style="fill:#eee;stroke:#999;stroke-width:1.50"></rect><text x="160.00" y="98.00" text-anchor="middle" dominant-baseline="central" font-size="16.00" style="fill:#333;font-size:16.00px">bottom_to_top</text></g><g id="left_to_right"><rect x="2.00" y="170.00" width="316.00" height="88.00" rx="5.00" ry="5.00" style="fill:#eee;stroke:#999;stroke-width:1.50"></rect><text x="160.00" y="188.00" text-anchor="middle" dominant-baseline="central" font-size="16.00" style="fill:#333;font-size:16.00px">left_to_right</text></g><path d="M80.00,40.00 L130.00,40.00" style="stroke:#333;stroke-width:1.5;fill:none" marker-end="url(#arrow-arrow-solid)"></path><path d="M190.00,40.00 L240.00,40.00" style="stroke:#333;stroke-width:1.5;fill:none" marker-end="url(#arrow-arrow-solid)"></path><path d="M80.00,130.00 L130.00,130.00" style="stroke:#333;stroke-width:1.5;fill:none" marker-end="url(#arrow-arrow-solid)"></path><path d="M190.00,130.00 L240.00,130.00" style="stroke:#333;stroke-width:1.5;fill:none" marker-end="url(#arrow-arrow-solid)"></path><path d="M80.00,220.00 L130.00,220.00" style="stroke:#333;stroke-width:1.5;fill:none" marker-end="url(#arrow-arrow-solid)"></path><path d="M190.00,220.00 L240.00,220.00" style="stroke:#333;stroke-width:1.5;fill:none" marker-end="url(#arrow-arrow-solid)"></path><path d="M190.00,400.00 L240.00,400.00" style="stroke:#333;stroke-width:1.5;fill:none" marker-end="url(#arrow-arrow-solid)"></path><path d="M184.44,470.00 L245.56,420.00" style="stroke:#333;stroke-width:1.5;fill:none" marker-end="url(#arrow-arrow-solid)"></path><rect x="130.00" y="470.00" width="60.00" height="40.00" style="fill:#ECECFF;stroke:#9370DB;stroke-width:1.50"></rect><text x="160.00" y="490.00" text-anchor="middle" dominant-baseline="central" font-size="16.00" style="fill:#333;font-size:16.00px">top_to_bottom</text><rect x="240.00" y="380.00" width="60.00" height="40.00" style="fill:#ECECFF;stroke:#9370DB;stroke-width:1.50"></rect><text x="270.00" y="400.00" text-anchor="middle" dominant-baseline="central" font-size="16.00" style="fill:#333;font-size:16.00px">left_to_right</text><rect x="130.00" y="380.00" width="60.00" height="40.00" style="fill:#ECECFF;stroke:#9370DB;stroke-width:1.50"></rect><text x="160.00" y="400.00" text-anchor="middle" dominant-baseline="central" font-size="16.00" style="fill:#333;font-size:16.00px">bottom_to_top</text><rect x="20.00" y="20.00" width="60.00" height="40.00" style="fill:#ECECFF;stroke:#9370DB;stroke-width:1.50"></rect><text x="50.00" y="40.00" text-anchor="middle" dominant-baseline="central" font-size="16.00" style="fill:#333;font-size:16.00px">A</text><rect x="130.00" y="20.00" width="60.00" height="40.00" style="fill:#ECECFF;stroke:#9370DB;stroke-width:1.50"></rect><text x="160.00" y="40.00" text-anchor="middle" dominant-baseline="central" font-size="16.00" style="fill:#333;font-size:16.00px">B</text><rect x="240.00" y="20.00" width="60.00" height="40.00" style="fill:#ECECFF;stroke:#9370DB;stroke-width:1.50"></rect><text x="270.00" y="40.00" text-anchor="middle" dominant-baseline="central" font-size="16.00" style="fill:#333;font-size:16.00px">C</text><rect x="20.00" y="110.00" width="60.00" height="40.00" style="fill:#ECECFF;stroke:#9370DB;stroke-width:1.50"></rect><text x="50.00" y="130.00" text-anchor="middle" dominant-baseline="central" font-size="16.00" style="fill:#333;font-size:16.00px">D</text><rect x="130.00" y="110.00" width="60.00" height="40.00" style="fill:#ECECFF;stroke:#9370DB;stroke-width:1.50"></rect><text x="160.00" y="130.00" text-anchor="middle" dominant-baseline="central" font-size="16.00" style="fill:#333;font-size:16.00px">E</text><rect x="240.00" y="110.00" width="60.00" height="40.00" style="fill:#ECECFF;stroke:#9370DB;stroke-width:1.50"></rect><text x="270.00" y="130.00" text-anchor="middle" dominant-baseline="central" font-size="16.00" style="fill:#333;font-size:16.00px">F</text><rect x="20.00" y="200.00" width="60.00" height="40.00" style="fill:#ECECFF;stroke:#9370DB;stroke-width:1.50"></rect><text x="50.00" y="220.00" text-anchor="middle" dominant-baseline="central" font-size="16.00" style="fill:#333;font-size:16.00px">G</text><rect x="130.00" y="200.00" width="60.00" height="40.00" style="fill:#ECECFF;stroke:#9370DB;stroke-width:1.50"></rect><text x="160.00" y="220.00" text-anchor="middle" dominant-baseline="central" font-size="16.00" style="fill:#333;font-size:16.00px">H</text><rect x="240.00" y="200.00" width="60.00" height="40.00" style="fill:#ECECFF;stroke:#9370DB;stroke-width:1.50"></rect><text x="270.00" y="220.00" text-anchor="middle" dominant-baseline="central" font-size="16.00" style="fill:#333;font-size:16.00px">I</text></g></svg>