<?xml version="1.0" encoding="UTF-8"?>
<svg xmlns="http://www.w3.org/2000/svg" viewBox="0 0 320.00 530.00"><defs><marker id="arrow-arrow-solid" viewBox="0 0 10 10" refX="9.00" refY="5.00" markerWidth="8.00" markerHeight="8.00" orient="auto"><polygon points="0,0 10,5 0,10" style="fill:#333"></polygon></marker></defs><rect x="0.00" y="0.00" width="320.00" height="530.00" style="fill:#fff;stroke:none"></rect><g id="top_to_bottom"><rect x="5.00" y="5.00" width="310.00" height="520.00" rx="5.00" ry="5.00" style="fill:#eee;stroke:#999;stroke-width:1.50"></rect><text x="15.00" y="23.00" font-size="16.00" style="fill:#333;font-size:16.00px">top_to_bottom</text></g><g id="bottom_to_top"><rect x="5.00" y="95.00" width="310.00" height="340.00" rx="5.00" ry="5.00" style="fill:#eee;stroke:#999;stroke-width:1.50"></rect><text x="15.00" y="113.00" font-size="16.00" style="fill:#333;font-size:16.00px">bottom_to_top</text></g><g id="left_to_right"><rect x="5.00" y="185.00" width="310.00" height="250.00" rx="5.00" ry="5.00" style="fill:#eee;stroke:#999;stroke-width:1.50"></rect><text x="15.00" y="203.00" font-size="16.00" style="fill:#333;font-size:16.00px">left_to_right</text></g><line x1="80.00" y1="40.00" x2="130.00" y2="40.00" style="stroke:#333;stroke-width:1.5;fill:none" marker-end="url(#arrow-arrow-solid)"></line><line x1="190.00" y1="40.00" x2="240.00" y2="40.00" style="stroke:#333;stroke-width:1.5;fill:none" marker-end="url(#arrow-arrow-solid)"></line><line x1="80.00" y1="130.00" x2="130.00" y2="130.00" style="stroke:#333;stroke-width:1.5;fill:none" marker-end="url(#arrow-arrow-solid)"></line><line x1="190.00" y1="130.00" x2="240.00" y2="130.00" style="stroke:#333;stroke-width:1.5;fill:none" marker-end="url(#arrow-arrow-solid)"></line><line x1="80.00" y1="220.00" x2="130.00" y2="220.00" style="stroke:#333;stroke-width:1.5;fill:none" marker-end="url(#arrow-arrow-solid)"></line><line x1="190.00" y1="220.00" x2="240.00" y2="220.00" style="stroke:#333;stroke-width:1.5;fill:none" marker-end="url(#arrow-arrow-solid)"></line><line x1="190.00" y1="400.00" x2="240.00" y2="400.00" style="stroke:#333;stroke-width:1.5;fill:none" marker-end="url(#arrow-arrow-solid)"></line><line x1="184.44" y1="470.00" x2="245.56" y2="420.00" style="stroke:#333;stroke-width:1.5;fill:none" marker-end="url(#arrow-arrow-solid)"></line><rect x="130.00" y="470.00" width="60.00" height="40.00" style="fill:#ECECFF;stroke:#9370DB;stroke-width:1.50"></rect><text x="160.00" y="490.00" text-anchor="middle" dominant-baseline="central" font-size="16.00" style="fill:#333;font-size:16.00px"></text><rect x="20.00" y="20.00" width="60.00" height="40.00" style="fill:#ECECFF;stroke:#9370DB;stroke-width:1.50"></rect><text x="50.00" y="40.00" text-anchor="middle" dominant-baseline="central" font-size="16.00" style="fill:#333;font-size:16.00px"></text><rect x="130.00" y="20.00" width="60.00" height="40.00" style="fill:#ECECFF;stroke:#9370DB;stroke-width:1.50"></rect><text x="160.00" y="40.00" text-anchor="middle" dominant-baseline="central" font-size="16.00" style="fill:#333;font-size:16.00px"></text><rect x="240.00" y="20.00" width="60.00" height="40.00" style="fill:#ECECFF;stroke:#9370DB;stroke-width:1.50"></rect><text x="270.00" y="40.00" text-anchor="middle" dominant-baseline="central" font-size="16.00" style="fill:#333;font-size:16.00px"></text><rect x="130.00" y="380.00" width="60.00" height="40.00" style="fill:#ECECFF;stroke:#9370DB;stroke-width:1.50"></rect><text x="160.00" y="400.00" text-anchor="middle" dominant-baseline="central" font-size="16.00" style="fill:#333;font-size:16.00px"></text><rect x="20.00" y="110.00" width="60.00" height="40.00" style="fill:#ECECFF;stroke:#9370DB;stroke-width:1.50"></rect><text x="50.00" y="130.00" text-anchor="middle" dominant-baseline="central" font-size="16.00" style="fill:#333;font-size:16.00px"></text><rect x="130.00" y="110.00" width="60.00" height="40.00" style="fill:#ECECFF;stroke:#9370DB;stroke-width:1.50"></rect><text x="160.00" y="130.00" text-anchor="middle" dominant-baseline="central" font-size="16.00" style="fill:#333;font-size:16.00px"></text><rect x="240.00" y="110.00" width="60.00" height="40.00" style="fill:#ECECFF;stroke:#9370DB;stroke-width:1.50"></rect><text x="270.00" y="130.00" text-anchor="middle" dominant-baseline="central" font-size="16.00" style="fill:#333;font-size:16.00px"></text><rect x="240.00" y="380.00" width="60.00" height="40.00" style="fill:#ECECFF;stroke:#9370DB;stroke-width:1.50"></rect><text x="270.00" y="400.00" text-anchor="middle" dominant-baseline="central" font-size="16.00" style="fill:#333;font-size:16.00px"></text><rect x="20.00" y="200.00" width="60.00" height="40.00" style="fill:#ECECFF;stroke:#9370DB;stroke-width:1.50"></rect><text x="50.00" y="220.00" text-anchor="middle" dominant-baseline="central" font-size="16.00" style="fill:#333;font-size:16.00px"></text><rect x="130.00" y="200.00" width="60.00" height="40.00" style="fill:#ECECFF;stroke:#9370DB;stroke-width:1.50"></rect><text x="160.00" y="220.00" text-anchor="middle" dominant-baseline="central" font-size="16.00" style="fill:#333;font-size:16.00px"></text><rect x="240.00" y="200.00" width="60.00" height="40.00" style="fill:#ECECFF;stroke:#9370DB;stroke-width:1.50"></rect><text x="270.00" y="220.00" text-anchor="middle" dominant-baseline="central" font-size="16.00" style="fill:#333;font-size:16.00px"></text></svg>