<?xml version="1.0" encoding="UTF-8"?>
<svg xmlns="http://www.w3.org/2000/svg" viewBox="0 0 870.00 80.00"><defs><marker id="arrow-arrow-dotted" viewBox="0 0 10 10" refX="9.00" refY="5.00" markerWidth="8.00" markerHeight="8.00" orient="auto"><polygon points="0,0 10,5 0,10" style="fill:#333"></polygon></marker><marker id="arrow-arrow-solid" viewBox="0 0 10 10" refX="9.00" refY="5.00" markerWidth="8.00" markerHeight="8.00" orient="auto"><polygon points="0,0 10,5 0,10" style="fill:#333"></polygon></marker><marker id="arrow-arrow-thick" viewBox="0 0 10 10" refX="9.00" refY="5.00" markerWidth="8.00" markerHeight="8.00" orient="auto"><polygon points="0,0 10,5 0,10" style="fill:#333"></polygon></marker></defs><rect x="0.00" y="0.00" width="870.00" height="80.00" style="fill:#fff;stroke:none"></rect><path d="M80.00,40.00 L85.00,40.00 C85.00,40.00 125.00,40.00 125.00,40.00 L130.00,40.00" style="stroke:#333;stroke-width:1.5;fill:none" marker-end="url(#arrow-arrow-solid)"></path><rect x="83.98" y="26.75" width="42.05" height="26.50" rx="3.00" ry="3.00" style="fill:#fff;stroke:none"></rect><text x="105.00" y="40.00" text-anchor="middle" dominant-baseline="central" font-size="16.00" style="fill:#333;font-size:16.00px">solid</text><path d="M190.00,40.00 L195.00,40.00 C195.00,40.00 235.00,40.00 235.00,40.00 L240.00,40.00" style="stroke:#333;stroke-width:1.5;fill:none;stroke-dasharray:2,2" marker-end="url(#arrow-arrow-dotted)"></path><rect x="188.66" y="26.75" width="52.69" height="26.50" rx="3.00" ry="3.00" style="fill:#fff;stroke:none"></rect><text x="215.00" y="40.00" text-anchor="middle" dominant-baseline="central" font-size="16.00" style="fill:#333;font-size:16.00px">dotted</text><path d="M300.00,40.00 L305.00,40.00 C305.00,40.00 345.00,40.00 345.00,40.00 L350.00,40.00" style="stroke:#333;stroke-width:3;fill:none" marker-end="url(#arrow-arrow-thick)"></path><rect x="304.30" y="26.75" width="41.39" height="26.50" rx="3.00" ry="3.00" style="fill:#fff;stroke:none"></rect><text x="325.00" y="40.00" text-anchor="middle" dominant-baseline="central" font-size="16.00" style="fill:#333;font-size:16.00px">thick</text><path d="M410.00,40.00 L415.00,40.00 C415.00,40.00 455.00,40.00 455.00,40.00 L460.00,40.00" style="stroke:#333;stroke-width:1.5;fill:none"></path><path d="M520.00,40.00 L525.00,40.00 C525.00,40.00 565.00,40.00 565.00,40.00 L570.00,40.00" style="stroke:#333;stroke-width:1.5;fill:none;stroke-dasharray:2,2"></path><path d="M630.00,40.00 L635.00,40.00 C635.00,40.00 675.00,40.00 675.00,40.00 L680.00,40.00" style="stroke:#333;stroke-width:3;fill:none"></path><path d="M740.00,40.00 L745.00,40.00 C745.00,40.00 785.00,40.00 785.00,40.00 L790.00,40.00" style="stroke:none;fill:none"></path><rect x="20.00" y="20.00" width="60.00" height="40.00" style="fill:#ECECFF;stroke:#9370DB;stroke-width:1.50"></rect><text x="50.00" y="40.00" text-anchor="middle" dominant-baseline="central" font-size="16.00" style="fill:#333;font-size:16.00px">A</text><rect x="130.00" y="20.00" width="60.00" height="40.00" style="fill:#ECECFF;stroke:#9370DB;stroke-width:1.50"></rect><text x="160.00" y="40.00" text-anchor="middle" dominant-baseline="central" font-size="16.00" style="fill:#333;font-size:16.00px">B</text><rect x="240.00" y="20.00" width="60.00" height="40.00" style="fill:#ECECFF;stroke:#9370DB;stroke-width:1.50"></rect><text x="270.00" y="40.00" text-anchor="middle" dominant-baseline="central" font-size="16.00" style="fill:#333;font-size:16.00px">C</text><rect x="350.00" y="20.00" width="60.00" height="40.00" style="fill:#ECECFF;stroke:#9370DB;stroke-width:1.50"></rect><text x="380.00" y="40.00" text-anchor="middle" dominant-baseline="central" font-size="16.00" style="fill:#333;font-size:16.00px">D</text><rect x="460.00" y="20.00" width="60.00" height="40.00" style="fill:#ECECFF;stroke:#9370DB;stroke-width:1.50"></rect><text x="490.00" y="40.00" text-anchor="middle" dominant-baseline="central" font-size="16.00" style="fill:#333;font-size:16.00px">E</text><rect x="570.00" y="20.00" width="60.00" height="40.00" style="fill:#ECECFF;stroke:#9370DB;stroke-width:1.50"></rect><text x="600.00" y="40.00" text-anchor="middle" dominant-baseline="central" font-size="16.00" style="fill:#333;font-size:16.00px">F</text><rect x="680.00" y="20.00" width="60.00" height="40.00" style="fill:#ECECFF;stroke:#9370DB;stroke-width:1.50"></rect><text x="710.00" y="40.00" text-anchor="middle" dominant-baseline="central" font-size="16.00" style="fill:#333;font-size:16.00px">G</text><rect x="790.00" y="20.00" width="60.00" height="40.00" style="fill:#ECECFF;stroke:#9370DB;stroke-width:1.50"></rect><text x="820.00" y="40.00" text-anchor="middle" dominant-baseline="central" font-size="16.00" style="fill:#333;font-size:16.00px">H</text></svg>