<?xml version="1.0" encoding="UTF-8"?>
<svg xmlns="http://www.w3.org/2000/svg" viewBox="0 0 302.47 607.00"><defs><marker id="arrow-arrow-solid" viewBox="0 0 10 10" refX="9.00" refY="5.00" markerWidth="8.00" markerHeight="8.00" orient="auto"><polygon points="0,0 10,5 0,10" style="fill:#333"></polygon></marker></defs><rect x="0.00" y="0.00" width="302.47" height="607.00" style="fill:#fff;stroke:none"></rect><path d="M168.40,225.95 C174.51,233.71 223.40,286.53 229.52,303.50 C235.63,320.47 229.52,379.37 229.52,395.70 C229.52,412.03 229.52,459.69 229.52,466.80" style="stroke:#333;stroke-width:1.5;fill:none" marker-end="url(#arrow-arrow-solid)"></path><rect x="216.61" y="336.35" width="25.81" height="26.50" rx="3.00" ry="3.00" style="fill:#fff;stroke:none"></rect><text x="229.52" y="349.60" text-anchor="middle" dominant-baseline="central" font-size="16.00" style="fill:#333;font-size:16.00px">no</text><line x1="145.30" y1="225.95" x2="100.81" y2="282.40" style="stroke:#333;stroke-width:1.5;fill:none" marker-end="url(#arrow-arrow-solid)"></line><rect x="104.06" y="244.15" width="32.91" height="26.50" rx="3.00" ry="3.00" style="fill:#fff;stroke:none"></rect><text x="120.51" y="257.40" text-anchor="middle" dominant-baseline="central" font-size="16.00" style="fill:#333;font-size:16.00px">yes</text><line x1="156.85" y1="140.20" x2="156.85" y2="190.20" style="stroke:#333;stroke-width:1.5;fill:none" marker-end="url(#arrow-arrow-solid)"></line><line x1="211.50" y1="509.00" x2="165.94" y2="562.35" style="stroke:#333;stroke-width:1.5;fill:none" marker-end="url(#arrow-arrow-solid)"></line><line x1="84.18" y1="324.60" x2="84.18" y2="374.60" style="stroke:#333;stroke-width:1.5;fill:none" marker-end="url(#arrow-arrow-solid)"></line><line x1="84.18" y1="416.80" x2="84.18" y2="466.80" style="stroke:#333;stroke-width:1.5;fill:none" marker-end="url(#arrow-arrow-solid)"></line><line x1="156.85" y1="48.00" x2="156.85" y2="98.00" style="stroke:#333;stroke-width:1.5;fill:none" marker-end="url(#arrow-arrow-solid)"></line><line x1="97.88" y1="503.95" x2="147.76" y2="562.35" style="stroke:#333;stroke-width:1.5;fill:none" marker-end="url(#arrow-arrow-solid)"></line><circle cx="156.85" cy="34.00" r="14.00" style="fill:#ECECFF;stroke:#9370DB;stroke-width:1.50"></circle><text x="156.85" y="34.00" text-anchor="middle" dominant-baseline="central" font-size="16.00" style="fill:#333;font-size:16.00px"></text><polygon points="101.79,108.55 211.90,98.00 211.90,140.20 101.79,140.20" style="fill:#ECECFF;stroke:#9370DB;stroke-width:1.50"></polygon><text x="156.85" y="119.10" text-anchor="middle" dominant-baseline="central" font-size="16.00" style="fill:#333;font-size:16.00px">Read order</text><polygon points="156.85,190.20 194.66,211.30 156.85,232.40 119.04,211.30" style="fill:#ECECFF;stroke:#9370DB;stroke-width:1.50"></polygon><text x="156.85" y="211.30" text-anchor="middle" dominant-baseline="central" font-size="16.00" style="fill:#333;font-size:16.00px">Valid?</text><path d="M176.56,466.80 L282.47,466.80 L282.47,509.00 Q255.99,502.25 229.52,509.00 T176.56,509.00 Z" style="fill:#ECECFF;stroke:#9370DB;stroke-width:1.50"></path><text x="229.52" y="487.90" text-anchor="middle" dominant-baseline="central" font-size="16.00" style="fill:#333;font-size:16.00px">Log failure</text><polygon points="30.55,282.40 148.36,282.40 148.36,324.60 20.00,324.60 20.00,292.95" style="fill:#ECECFF;stroke:#9370DB;stroke-width:1.50"></polygon><text x="84.18" y="303.50" text-anchor="middle" dominant-baseline="central" font-size="16.00" style="fill:#333;font-size:16.00px">For each item</text><path d="M28.65,378.82 L28.65,412.58 A55.53,4.22 0 0,0 139.71,412.58 L139.71,378.82 A55.53,4.22 0 0,0 28.65,378.82 M28.65,378.82 A55.53,4.22 0 0,0 139.71,378.82" style="fill:#ECECFF;stroke:#9370DB;stroke-width:1.50"></path><text x="84.18" y="395.70" text-anchor="middle" dominant-baseline="central" font-size="16.00" style="fill:#333;font-size:16.00px">Save to DB</text><circle cx="84.18" cy="487.90" r="21.10" style="fill:#ECECFF;stroke:#9370DB;stroke-width:1.50"></circle><line x1="69.26" y1="472.98" x2="99.10" y2="502.82" style="stroke:#9370DB;stroke-width:1.50"></line><line x1="69.26" y1="502.82" x2="99.10" y2="472.98" style="stroke:#9370DB;stroke-width:1.50"></line><text x="84.18" y="487.90" text-anchor="middle" dominant-baseline="central" font-size="16.00" style="fill:#333;font-size:16.00px">Receipt</text><circle cx="156.85" cy="573.00" r="14.00" style="fill:#ECECFF;stroke:#9370DB;stroke-width:1.50"></circle><circle cx="156.85" cy="573.00" r="5.60" style="fill:#9370DB;stroke:none"></circle><text x="156.85" y="573.00" text-anchor="middle" dominant-baseline="central" font-size="16.00" style="fill:#333;font-size:16.00px"></text></svg>