<?xml version="1.0" encoding="UTF-8"?>
<svg xmlns="http://www.w3.org/2000/svg" viewBox="0 0 362.47 689.83"><defs><marker id="arrow-arrow-solid" viewBox="0 0 10 10" refX="9.00" refY="5.00" markerWidth="8.00" markerHeight="8.00" orient="auto"><polygon points="0,0 10,5 0,10" style="fill:#333"></polygon></marker></defs><rect x="0.00" y="0.00" width="362.47" height="689.83" style="fill:#fff;stroke:none"></rect><path d="M208.13,272.39 C214.77,282.22 267.88,350.46 274.52,370.70 C281.15,390.94 274.52,456.64 274.52,474.75 C274.52,492.86 274.52,544.07 274.52,551.78" style="stroke:#333;stroke-width:1.5;fill:none" marker-end="url(#arrow-arrow-solid)"></path><rect x="261.61" y="409.48" width="25.81" height="26.50" rx="3.00" ry="3.00" style="fill:#fff;stroke:none"></rect><text x="274.52" y="422.73" text-anchor="middle" dominant-baseline="central" font-size="16.00" style="fill:#333;font-size:16.00px">no</text><path d="M165.56,272.39 L162.76,276.53 L120.23,339.53 L117.43,343.68" style="stroke:#333;stroke-width:1.5;fill:none" marker-end="url(#arrow-arrow-solid)"></path><rect x="126.56" y="292.53" width="32.91" height="26.50" rx="3.00" ry="3.00" style="fill:#fff;stroke:none"></rect><text x="143.01" y="305.78" text-anchor="middle" dominant-baseline="central" font-size="16.00" style="fill:#333;font-size:16.00px">yes</text><path d="M186.85,138.05 L186.85,143.05 L186.85,183.05 L186.85,188.05" style="stroke:#333;stroke-width:1.5;fill:none" marker-end="url(#arrow-arrow-solid)"></path><path d="M246.32,605.83 L242.71,609.28 L195.51,654.52 L191.90,657.98" style="stroke:#333;stroke-width:1.5;fill:none" marker-end="url(#arrow-arrow-solid)"></path><path d="M99.18,397.73 L99.18,402.73 L99.18,442.73 L99.18,447.73" style="stroke:#333;stroke-width:1.5;fill:none" marker-end="url(#arrow-arrow-solid)"></path><path d="M99.18,501.78 L99.18,506.78 L99.18,546.78 L99.18,551.78" style="stroke:#333;stroke-width:1.5;fill:none" marker-end="url(#arrow-arrow-solid)"></path><path d="M186.85,34.00 L186.85,39.00 L186.85,85.76 L186.85,90.76" style="stroke:#333;stroke-width:1.5;fill:none" marker-end="url(#arrow-arrow-solid)"></path><path d="M118.69,597.50 L122.30,600.96 L178.18,654.52 L181.79,657.98" style="stroke:#333;stroke-width:1.5;fill:none" marker-end="url(#arrow-arrow-solid)"></path><circle cx="186.85" cy="27.00" r="7.00" style="fill:#ECECFF;stroke:#9370DB;stroke-width:1.50"></circle><polygon points="116.79,97.51 256.90,84.00 256.90,138.05 116.79,138.05" style="fill:#ECECFF;stroke:#9370DB;stroke-width:1.50"></polygon><text x="186.85" y="111.03" text-anchor="middle" dominant-baseline="central" font-size="16.00" style="fill:#333;font-size:16.00px">Read order</text><polygon points="186.85,188.05 239.66,240.86 186.85,293.68 134.04,240.86" style="fill:#ECECFF;stroke:#9370DB;stroke-width:1.50"></polygon><text x="186.85" y="240.86" text-anchor="middle" dominant-baseline="central" font-size="16.00" style="fill:#333;font-size:16.00px">Valid?</text><path d="M206.56,551.78 L342.47,551.78 L342.47,605.83 Q308.49,597.18 274.52,605.83 T206.56,605.83 Z" style="fill:#ECECFF;stroke:#9370DB;stroke-width:1.50"></path><text x="274.52" y="578.80" text-anchor="middle" dominant-baseline="central" font-size="16.00" style="fill:#333;font-size:16.00px">Log failure</text><polygon points="33.51,343.68 178.36,343.68 178.36,397.73 20.00,397.73 20.00,357.19" style="fill:#ECECFF;stroke:#9370DB;stroke-width:1.50"></polygon><text x="99.18" y="370.70" text-anchor="middle" dominant-baseline="central" font-size="16.00" style="fill:#333;font-size:16.00px">For each item</text><path d="M28.65,453.13 L28.65,496.37 A70.53,5.41 0 0,0 169.71,496.37 L169.71,453.13 A70.53,5.41 0 0,0 28.65,453.13 M28.65,453.13 A70.53,5.41 0 0,0 169.71,453.13" style="fill:#ECECFF;stroke:#9370DB;stroke-width:1.50"></path><text x="99.18" y="474.75" text-anchor="middle" dominant-baseline="central" font-size="16.00" style="fill:#333;font-size:16.00px">Save to DB</text><circle cx="99.18" cy="578.80" r="27.03" style="fill:#ECECFF;stroke:#9370DB;stroke-width:1.50"></circle><line x1="80.07" y1="559.69" x2="118.29" y2="597.91" style="stroke:#9370DB;stroke-width:1.50"></line><line x1="80.07" y1="597.91" x2="118.29" y2="559.69" style="stroke:#9370DB;stroke-width:1.50"></line><circle cx="186.85" cy="662.83" r="7.00" style="fill:#ECECFF;stroke:#9370DB;stroke-width:1.50"></circle><circle cx="186.85" cy="662.83" r="2.80" style="fill:#9370DB;stroke:none"></circle></svg>