<?xml version="1.0" encoding="UTF-8"?>
<svg xmlns="http://www.w3.org/2000/svg" viewBox="0 0 302.47 612.42"><defs><marker id="arrow-arrow-solid" viewBox="0 0 10 10" refX="9.00" refY="5.00" markerWidth="8.00" markerHeight="8.00" orient="auto"><polygon points="0,0 10,5 0,10" style="fill:#333"></polygon></marker></defs><rect x="0.00" y="0.00" width="302.47" height="612.42" style="fill:#fff;stroke:none"></rect><path d="M171.98,236.69 C177.73,245.32 223.76,305.08 229.52,322.92 C235.27,340.77 229.52,398.79 229.52,415.12 C229.52,431.45 229.52,479.11 229.52,486.22" style="stroke:#333;stroke-width:1.5;fill:none" marker-end="url(#arrow-arrow-solid)"></path><rect x="216.61" y="355.78" width="25.81" height="26.50" rx="3.00" ry="3.00" style="fill:#fff;stroke:none"></rect><text x="229.52" y="369.03" text-anchor="middle" dominant-baseline="central" font-size="16.00" style="fill:#333;font-size:16.00px">no</text><line x1="141.72" y1="236.69" x2="98.26" y2="301.82" style="stroke:#333;stroke-width:1.5;fill:none" marker-end="url(#arrow-arrow-solid)"></line><rect x="104.06" y="255.22" width="32.91" height="26.50" rx="3.00" ry="3.00" style="fill:#fff;stroke:none"></rect><text x="120.51" y="268.47" text-anchor="middle" dominant-baseline="central" font-size="16.00" style="fill:#333;font-size:16.00px">yes</text><line x1="156.85" y1="126.20" x2="156.85" y2="176.20" style="stroke:#333;stroke-width:1.5;fill:none" marker-end="url(#arrow-arrow-solid)"></line><line x1="209.88" y1="528.42" x2="161.62" y2="580.30" style="stroke:#333;stroke-width:1.5;fill:none" marker-end="url(#arrow-arrow-solid)"></line><line x1="84.18" y1="344.03" x2="84.18" y2="394.02" style="stroke:#333;stroke-width:1.5;fill:none" marker-end="url(#arrow-arrow-solid)"></line><line x1="84.18" y1="436.23" x2="84.18" y2="486.22" style="stroke:#333;stroke-width:1.5;fill:none" marker-end="url(#arrow-arrow-solid)"></line><line x1="156.85" y1="34.00" x2="156.85" y2="89.28" style="stroke:#333;stroke-width:1.5;fill:none" marker-end="url(#arrow-arrow-solid)"></line><line x1="98.55" y1="522.77" x2="152.08" y2="580.30" style="stroke:#333;stroke-width:1.5;fill:none" marker-end="url(#arrow-arrow-solid)"></line><circle cx="156.85" cy="27.00" r="7.00" style="fill:#ECECFF;stroke:#9370DB;stroke-width:1.50"></circle><polygon points="101.79,94.55 211.90,84.00 211.90,126.20 101.79,126.20" style="fill:#ECECFF;stroke:#9370DB;stroke-width:1.50"></polygon><text x="156.85" y="105.10" text-anchor="middle" dominant-baseline="central" font-size="16.00" style="fill:#333;font-size:16.00px">Read order</text><polygon points="156.85,176.20 194.66,214.01 156.85,251.82 119.04,214.01" style="fill:#ECECFF;stroke:#9370DB;stroke-width:1.50"></polygon><text x="156.85" y="214.01" text-anchor="middle" dominant-baseline="central" font-size="16.00" style="fill:#333;font-size:16.00px">Valid?</text><path d="M176.56,486.22 L282.47,486.22 L282.47,528.42 Q255.99,521.67 229.52,528.42 T176.56,528.42 Z" style="fill:#ECECFF;stroke:#9370DB;stroke-width:1.50"></path><text x="229.52" y="507.32" text-anchor="middle" dominant-baseline="central" font-size="16.00" style="fill:#333;font-size:16.00px">Log failure</text><polygon points="30.55,301.82 148.36,301.82 148.36,344.02 20.00,344.02 20.00,312.37" style="fill:#ECECFF;stroke:#9370DB;stroke-width:1.50"></polygon><text x="84.18" y="322.92" text-anchor="middle" dominant-baseline="central" font-size="16.00" style="fill:#333;font-size:16.00px">For each item</text><path d="M28.65,398.24 L28.65,432.00 A55.53,4.22 0 0,0 139.71,432.00 L139.71,398.24 A55.53,4.22 0 0,0 28.65,398.24 M28.65,398.24 A55.53,4.22 0 0,0 139.71,398.24" style="fill:#ECECFF;stroke:#9370DB;stroke-width:1.50"></path><text x="84.18" y="415.12" text-anchor="middle" dominant-baseline="central" font-size="16.00" style="fill:#333;font-size:16.00px">Save to DB</text><circle cx="84.18" cy="507.32" r="21.10" style="fill:#ECECFF;stroke:#9370DB;stroke-width:1.50"></circle><line x1="69.26" y1="492.41" x2="99.10" y2="522.24" style="stroke:#9370DB;stroke-width:1.50"></line><line x1="69.26" y1="522.24" x2="99.10" y2="492.41" style="stroke:#9370DB;stroke-width:1.50"></line><circle cx="156.85" cy="585.42" r="7.00" style="fill:#ECECFF;stroke:#9370DB;stroke-width:1.50"></circle><circle cx="156.85" cy="585.42" r="2.80" style="fill:#9370DB;stroke:none"></circle></svg>