<?xml version="1.0" encoding="UTF-8"?>
<svg xmlns="http://www.w3.org/2000/svg" viewBox="0 0 210.00 440.00"><defs><marker id="arrow-arrow-dotted" viewBox="0 0 10 10" refX="9.00" refY="5.00" markerWidth="8.00" markerHeight="8.00" orient="auto"><polygon points="0,0 10,5 0,10" style="fill:#333"></polygon></marker><marker id="arrow-arrow-solid" viewBox="0 0 10 10" refX="9.00" refY="5.00" markerWidth="8.00" markerHeight="8.00" orient="auto"><polygon points="0,0 10,5 0,10" style="fill:#333"></polygon></marker><marker id="arrow-arrow-thick" viewBox="0 0 10 10" refX="9.00" refY="5.00" markerWidth="8.00" markerHeight="8.00" orient="auto"><polygon points="0,0 10,5 0,10" style="fill:#333"></polygon></marker></defs><rect x="0.00" y="0.00" width="210.00" height="440.00" style="fill:#fff;stroke:none"></rect><path d="M80.00,40.00 L130.00,40.00" style="stroke:#333;stroke-width:1.5;fill:none" marker-end="url(#arrow-arrow-solid)"></path><rect x="65.80" y="26.75" width="78.41" height="26.50" rx="3.00" ry="3.00" style="fill:#fff;stroke:none"></rect><text x="105.00" y="40.00" text-anchor="middle" dominant-baseline="central" font-size="16.00" style="fill:#333;font-size:16.00px">pipe label</text><path d="M80.00,130.00 L130.00,130.00" style="stroke:#333;stroke-width:1.5;fill:none" marker-end="url(#arrow-arrow-solid)"></path><rect x="61.68" y="116.75" width="86.64" height="26.50" rx="3.00" ry="3.00" style="fill:#fff;stroke:none"></rect><text x="105.00" y="130.00" text-anchor="middle" dominant-baseline="central" font-size="16.00" style="fill:#333;font-size:16.00px">inline label</text><path d="M80.00,220.00 L130.00,220.00" style="stroke:#333;stroke-width:1.5;fill:none;stroke-dasharray:2,2" marker-end="url(#arrow-arrow-dotted)"></path><rect x="58.79" y="206.75" width="92.42" height="26.50" rx="3.00" ry="3.00" style="fill:#fff;stroke:none"></rect><text x="105.00" y="220.00" text-anchor="middle" dominant-baseline="central" font-size="16.00" style="fill:#333;font-size:16.00px">dotted label</text><path d="M80.00,310.00 L130.00,310.00" style="stroke:#333;stroke-width:3;fill:none" marker-end="url(#arrow-arrow-thick)"></path><rect x="64.44" y="296.75" width="81.13" height="26.50" rx="3.00" ry="3.00" style="fill:#fff;stroke:none"></rect><text x="105.00" y="310.00" text-anchor="middle" dominant-baseline="central" font-size="16.00" style="fill:#333;font-size:16.00px">thick label</text><path d="M80.00,400.00 L130.00,400.00" style="stroke:#333;stroke-width:1.5;fill:none" marker-end="url(#arrow-arrow-solid)"></path><rect x="56.60" y="386.75" width="96.80" height="26.50" rx="3.00" ry="3.00" style="fill:#fff;stroke:none"></rect><text x="105.00" y="400.00" text-anchor="middle" dominant-baseline="central" font-size="16.00" style="fill:#333;font-size:16.00px">quoted label</text><rect x="20.00" y="20.00" width="60.00" height="40.00" style="fill:#ECECFF;stroke:#9370DB;stroke-width:1.50"></rect><text x="50.00" y="40.00" text-anchor="middle" dominant-baseline="central" font-size="16.00" style="fill:#333;font-size:16.00px">A</text><rect x="130.00" y="20.00" width="60.00" height="40.00" style="fill:#ECECFF;stroke:#9370DB;stroke-width:1.50"></rect><text x="160.00" y="40.00" text-anchor="middle" dominant-baseline="central" font-size="16.00" style="fill:#333;font-size:16.00px">B</text><rect x="20.00" y="110.00" width="60.00" height="40.00" style="fill:#ECECFF;stroke:#9370DB;stroke-width:1.50"></rect><text x="50.00" y="130.00" text-anchor="middle" dominant-baseline="central" font-size="16.00" style="fill:#333;font-size:16.00px">C</text><rect x="130.00" y="110.00" width="60.00" height="40.00" style="fill:#ECECFF;stroke:#9370DB;stroke-width:1.50"></rect><text x="160.00" y="130.00" text-anchor="middle" dominant-baseline="central" font-size="16.00" style="fill:#333;font-size:16.00px">D</text><rect x="20.00" y="200.00" width="60.00" height="40.00" style="fill:#ECECFF;stroke:#9370DB;stroke-width:1.50"></rect><text x="50.00" y="220.00" text-anchor="middle" dominant-baseline="central" font-size="16.00" style="fill:#333;font-size:16.00px">E</text><rect x="130.00" y="200.00" width="60.00" height="40.00" style="fill:#ECECFF;stroke:#9370DB;stroke-width:1.50"></rect><text x="160.00" y="220.00" text-anchor="middle" dominant-baseline="central" font-size="16.00" style="fill:#333;font-size:16.00px">F</text><rect x="20.00" y="290.00" width="60.00" height="40.00" style="fill:#ECECFF;stroke:#9370DB;stroke-width:1.50"></rect><text x="50.00" y="310.00" text-anchor="middle" dominant-baseline="central" font-size="16.00" style="fill:#333;font-size:16.00px">G</text><rect x="130.00" y="290.00" width="60.00" height="40.00" style="fill:#ECECFF;stroke:#9370DB;stroke-width:1.50"></rect><text x="160.00" y="310.00" text-anchor="middle" dominant-baseline="central" font-size="16.00" style="fill:#333;font-size:16.00px">H</text><rect x="20.00" y="380.00" width="60.00" height="40.00" style="fill:#ECECFF;stroke:#9370DB;stroke-width:1.50"></rect><text x="50.00" y="400.00" text-anchor="middle" dominant-baseline="central" font-size="16.00" style="fill:#333;font-size:16.00px">I</text><rect x="130.00" y="380.00" width="60.00" height="40.00" style="fill:#ECECFF;stroke:#9370DB;stroke-width:1.50"></rect><text x="160.00" y="400.00" text-anchor="middle" dominant-baseline="central" font-size="16.00" style="fill:#333;font-size:16.00px">J</text></svg>