<?xml version="1.0" encoding="UTF-8"?>
<svg xmlns="http://www.w3.org/2000/svg" viewBox="0 0 374.03 389.27"><defs><marker id="arrow-arrow-solid" viewBox="0 0 10 10" refX="9.00" refY="5.00" markerWidth="8.00" markerHeight="8.00" orient="auto"><polygon points="0,0 10,5 0,10" style="fill:#333"></polygon></marker></defs><rect x="0.00" y="0.00" width="374.03" height="389.27" style="fill:#fff;stroke:none"></rect><line x1="97.19" y1="62.20" x2="72.20" y2="112.20" style="stroke:#333;stroke-width:1.5;fill:none" marker-end="url(#arrow-arrow-solid)"></line><path d="M153.81,240.74 Q170.70,131.70 107.73,41.10" style="stroke:#333;stroke-width:1.5;fill:none;stroke-dasharray:6,3" marker-end="url(#arrow-arrow-solid)"></path><rect x="137.36" y="173.77" width="32.91" height="26.50" rx="3.00" ry="3.00" style="fill:#fff;stroke:none"></rect><text x="153.81" y="187.02" text-anchor="middle" dominant-baseline="central" font-size="16.00" style="fill:#333;font-size:16.00px">yes</text><line x1="153.81" y1="277.07" x2="153.81" y2="327.07" style="stroke:#333;stroke-width:1.5;fill:none" marker-end="url(#arrow-arrow-solid)"></line><rect x="140.91" y="281.20" width="25.81" height="26.50" rx="3.00" ry="3.00" style="fill:#fff;stroke:none"></rect><text x="153.81" y="294.45" text-anchor="middle" dominant-baseline="central" font-size="16.00" style="fill:#333;font-size:16.00px">no</text><line x1="254.55" y1="154.40" x2="173.38" y2="223.97" style="stroke:#333;stroke-width:1.5;fill:none" marker-end="url(#arrow-arrow-solid)"></line><line x1="279.17" y1="62.20" x2="279.17" y2="112.20" style="stroke:#333;stroke-width:1.5;fill:none" marker-end="url(#arrow-arrow-solid)"></line><line x1="79.76" y1="154.40" x2="137.04" y2="221.18" style="stroke:#333;stroke-width:1.5;fill:none" marker-end="url(#arrow-arrow-solid)"></line><rect x="247.19" y="20.00" width="63.97" height="42.20" rx="2.00" ry="2.00" style="fill:#ECECFF;stroke:#9370DB;stroke-width:1.50"></rect><text x="279.17" y="41.10" text-anchor="middle" dominant-baseline="central" font-size="16.00" style="fill:#333;font-size:16.00px">Start</text><rect x="204.31" y="112.20" width="149.72" height="42.20" rx="2.00" ry="2.00" style="fill:#ECECFF;stroke:#9370DB;stroke-width:1.50"></rect><text x="279.17" y="133.30" text-anchor="middle" dominant-baseline="central" font-size="16.00" style="fill:#333;font-size:16.00px">Initialize counter</text><polygon points="153.81,204.40 190.15,240.74 153.81,277.07 117.48,240.74" style="fill:#ECECFF;stroke:#9370DB;stroke-width:1.50"></polygon><text x="153.81" y="240.74" text-anchor="middle" dominant-baseline="central" font-size="16.00" style="fill:#333;font-size:16.00px">i &lt; N?</text><rect x="46.24" y="20.00" width="122.98" height="42.20" rx="2.00" ry="2.00" style="fill:#ECECFF;stroke:#9370DB;stroke-width:1.50"></rect><text x="107.73" y="41.10" text-anchor="middle" dominant-baseline="central" font-size="16.00" style="fill:#333;font-size:16.00px">Process item</text><rect x="108.16" y="327.07" width="91.31" height="42.20" rx="2.00" ry="2.00" style="fill:#ECECFF;stroke:#9370DB;stroke-width:1.50"></rect><text x="153.81" y="348.17" text-anchor="middle" dominant-baseline="central" font-size="16.00" style="fill:#333;font-size:16.00px">Finished</text><rect x="20.00" y="112.20" width="83.31" height="42.20" rx="2.00" ry="2.00" style="fill:#ECECFF;stroke:#9370DB;stroke-width:1.50"></rect><text x="61.66" y="133.30" text-anchor="middle" dominant-baseline="central" font-size="16.00" style="fill:#333;font-size:16.00px">i = i + 1</text></svg>