<?xml version="1.0" encoding="UTF-8"?>
<svg xmlns="http://www.w3.org/2000/svg" viewBox="0 0 434.03 454.82"><defs><marker id="arrow-arrow-solid" viewBox="0 0 10 10" refX="9.00" refY="5.00" markerWidth="8.00" markerHeight="8.00" orient="auto"><polygon points="0,0 10,5 0,10" style="fill:#333"></polygon></marker></defs><rect x="0.00" y="0.00" width="434.03" height="454.82" style="fill:#fff;stroke:none"></rect><line x1="116.32" y1="74.05" x2="90.57" y2="124.05" style="stroke:#333;stroke-width:1.5;fill:none" marker-end="url(#arrow-arrow-solid)"></line><path d="M183.81,279.44 Q203.51,152.51 130.23,47.03" style="stroke:#333;stroke-width:1.5;fill:none;stroke-dasharray:6,3" marker-end="url(#arrow-arrow-solid)"></path><rect x="167.36" y="202.01" width="32.91" height="26.50" rx="3.00" ry="3.00" style="fill:#fff;stroke:none"></rect><text x="183.81" y="215.26" text-anchor="middle" dominant-baseline="central" font-size="16.00" style="fill:#333;font-size:16.00px">yes</text><line x1="183.81" y1="330.77" x2="183.81" y2="380.77" style="stroke:#333;stroke-width:1.5;fill:none" marker-end="url(#arrow-arrow-solid)"></line><rect x="170.91" y="330.37" width="25.81" height="26.50" rx="3.00" ry="3.00" style="fill:#fff;stroke:none"></rect><text x="183.81" y="343.62" text-anchor="middle" dominant-baseline="central" font-size="16.00" style="fill:#333;font-size:16.00px">no</text><line x1="294.62" y1="178.10" x2="210.63" y2="254.91" style="stroke:#333;stroke-width:1.5;fill:none" marker-end="url(#arrow-arrow-solid)"></line><line x1="324.17" y1="74.05" x2="324.17" y2="124.05" style="stroke:#333;stroke-width:1.5;fill:none" marker-end="url(#arrow-arrow-solid)"></line><line x1="99.22" y1="178.10" x2="160.46" y2="251.46" style="stroke:#333;stroke-width:1.5;fill:none" marker-end="url(#arrow-arrow-solid)"></line><rect x="277.19" y="20.00" width="93.97" height="54.05" rx="2.00" ry="2.00" style="fill:#ECECFF;stroke:#9370DB;stroke-width:1.50"></rect><text x="324.17" y="47.03" text-anchor="middle" dominant-baseline="central" font-size="16.00" style="fill:#333;font-size:16.00px">Start</text><rect x="234.31" y="124.05" width="179.72" height="54.05" rx="2.00" ry="2.00" style="fill:#ECECFF;stroke:#9370DB;stroke-width:1.50"></rect><text x="324.17" y="151.08" text-anchor="middle" dominant-baseline="central" font-size="16.00" style="fill:#333;font-size:16.00px">Initialize counter</text><polygon points="183.81,228.10 235.15,279.44 183.81,330.77 132.48,279.44" style="fill:#ECECFF;stroke:#9370DB;stroke-width:1.50"></polygon><text x="183.81" y="279.44" text-anchor="middle" dominant-baseline="central" font-size="16.00" style="fill:#333;font-size:16.00px">i &lt; N?</text><rect x="53.74" y="20.00" width="152.98" height="54.05" rx="2.00" ry="2.00" style="fill:#ECECFF;stroke:#9370DB;stroke-width:1.50"></rect><text x="130.23" y="47.03" text-anchor="middle" dominant-baseline="central" font-size="16.00" style="fill:#333;font-size:16.00px">Process item</text><rect x="123.16" y="380.77" width="121.31" height="54.05" rx="2.00" ry="2.00" style="fill:#ECECFF;stroke:#9370DB;stroke-width:1.50"></rect><text x="183.81" y="407.80" text-anchor="middle" dominant-baseline="central" font-size="16.00" style="fill:#333;font-size:16.00px">Finished</text><rect x="20.00" y="124.05" width="113.31" height="54.05" rx="2.00" ry="2.00" style="fill:#ECECFF;stroke:#9370DB;stroke-width:1.50"></rect><text x="76.66" y="151.08" text-anchor="middle" dominant-baseline="central" font-size="16.00" style="fill:#333;font-size:16.00px">i = i + 1</text></svg>