<?xml version="1.0" encoding="UTF-8"?>
<svg xmlns="http://www.w3.org/2000/svg" viewBox="0 0 318.78 722.77"><defs><marker id="arrow-arrow-solid" viewBox="0 0 10 10" refX="9.00" refY="5.00" markerWidth="8.00" markerHeight="8.00" orient="auto"><polygon points="0,0 10,5 0,10" style="fill:#333"></polygon></marker></defs><rect x="0.00" y="0.00" width="318.78" height="722.77" style="fill:#fff;stroke:none"></rect><path d="M146.44,74.05 L146.44,124.05" style="stroke:#333;stroke-width:1.5;fill:none" marker-end="url(#arrow-arrow-solid)"></path><path d="M146.44,223.67 L146.44,273.67" style="stroke:#333;stroke-width:1.5;fill:none" marker-end="url(#arrow-arrow-solid)"></path><rect x="136.74" y="223.67" width="19.39" height="27.20" rx="3.00" ry="3.00" style="fill:#fff;stroke:none"></rect><g style="fill:#333" transform="translate(140.74,230.77) scale(1.000)"><path d="M7.312 21.394 C7.312 21.628 7.078 21.675 6.922 21.675 L5.656 21.675 C5.172 21.675 5.172 21.331 5.062 20.925 L2.844 12.441 C2.797 12.253 2.734 12.066 2.703 11.878 L1.922 15.784 L0.406 13.456 L0.344 13.284 L0.531 13.066 L1.375 14.394 C1.406 14.003 1.531 13.628 1.594 13.253 L2.062 10.972 L2.219 10.175 C2.219 10.097 2.219 9.941 2.344 9.925 L2.469 9.925 C2.766 9.925 2.812 10.097 2.891 10.362 L3.438 12.456 L5.578 20.659 C5.609 20.816 5.672 20.956 5.688 21.112 L7.062 21.112 C7.203 21.128 7.312 21.253 7.312 21.394 Z" style="fill:#333"></path><rect x="3.27" y="1.00" width="8.13" height="1.00" style="fill:#333"></rect><path d="M13.520 12.896 L13.520 13.396 C12.660 13.396 12.379 13.427 12.004 13.880 L9.863 16.661 C10.348 17.271 10.957 18.052 11.332 18.458 C11.832 19.036 12.488 19.286 13.238 19.302 L13.238 19.786 C12.816 19.755 12.348 19.740 11.926 19.740 C11.441 19.740 10.598 19.771 10.395 19.786 L10.395 19.302 C10.723 19.271 10.848 19.052 10.848 18.802 C10.848 18.536 10.691 18.333 10.613 18.240 L9.629 16.990 L8.379 18.615 C8.223 18.771 8.223 18.802 8.223 18.896 C8.223 19.130 8.473 19.286 8.785 19.302 L8.785 19.786 L7.066 19.740 C6.723 19.740 5.973 19.755 5.535 19.786 L5.535 19.302 C6.660 19.302 6.676 19.286 7.426 18.318 L9.020 16.255 C8.254 15.302 8.254 15.271 7.504 14.349 C6.738 13.427 5.801 13.396 5.457 13.396 L5.457 12.896 C5.879 12.927 6.379 12.943 6.785 12.943 L8.316 12.896 L8.316 13.396 C7.957 13.443 7.848 13.646 7.848 13.880 C7.848 14.240 8.316 14.771 9.285 15.927 L10.504 14.318 C10.629 14.146 10.832 13.880 10.832 13.786 C10.832 13.646 10.691 13.411 10.254 13.396 L10.254 12.896 L11.988 12.943 C12.426 12.943 13.051 12.927 13.520 12.896 Z" style="fill:#333"></path></g><path d="M146.44,327.72 L146.44,377.72" style="stroke:#333;stroke-width:1.5;fill:none" marker-end="url(#arrow-arrow-solid)"></path><path d="M112.76,565.04 L76.09,648.72" style="stroke:#333;stroke-width:1.5;fill:none" marker-end="url(#arrow-arrow-solid)"></path><rect x="98.97" y="568.38" width="12.73" height="27.20" rx="3.00" ry="3.00" style="fill:#fff;stroke:none"></rect><g style="fill:#333" transform="translate(103.07,572.38) scale(0.960)"><path d="M4.609 7.452 L4.609 7.796 L4.250 7.796 C3.266 7.796 3.234 7.921 3.234 8.327 L3.234 14.499 C3.234 14.749 3.234 14.780 2.984 14.780 C2.297 14.077 1.328 14.077 0.984 14.077 L0.984 13.733 C1.203 13.733 1.844 13.733 2.422 14.015 L2.422 8.327 C2.422 7.921 2.391 7.796 1.391 7.796 L1.047 7.796 L1.047 7.452 C1.438 7.483 2.391 7.483 2.828 7.483 C3.266 7.483 4.219 7.483 4.609 7.452 Z" style="fill:#333"></path><rect x="0.00" y="10.45" width="2.73" height="1.00" style="fill:#333"></rect><path d="M4.938 21.810 L4.656 21.810 C4.609 21.482 4.531 20.998 4.422 20.842 C4.344 20.748 3.625 20.748 3.375 20.748 L1.391 20.748 L2.562 21.889 C4.281 23.404 4.938 23.998 4.938 25.092 C4.938 26.357 3.953 27.232 2.609 27.232 C1.359 27.232 0.547 26.217 0.547 25.232 C0.547 24.623 1.094 24.623 1.141 24.623 C1.312 24.623 1.703 24.748 1.703 25.201 C1.703 25.498 1.500 25.779 1.125 25.779 C1.031 25.779 1.016 25.779 0.984 25.764 C1.234 26.482 1.828 26.889 2.469 26.889 C3.469 26.889 3.938 25.998 3.938 25.092 C3.938 24.217 3.391 23.342 2.781 22.670 L0.672 20.310 C0.547 20.185 0.547 20.170 0.547 19.904 L4.625 19.904 L4.938 21.810 Z" style="fill:#333"></path></g><path d="M180.11,565.04 L216.79,648.72" style="stroke:#333;stroke-width:1.5;fill:none" marker-end="url(#arrow-arrow-solid)"></path><rect x="159.04" y="568.38" width="57.00" height="27.20" rx="3.00" ry="3.00" style="fill:#fff;stroke:none"></rect><text x="187.54" y="581.98" text-anchor="middle" dominant-baseline="central" style="fill:#333;font-size:16.00px">pi r^2</text><rect x="99.45" y="20.00" width="93.97" height="54.05" rx="2.00" ry="2.00" style="fill:#ECECFF;stroke:#9370DB;stroke-width:1.50"></rect><text x="146.44" y="47.03" text-anchor="middle" dominant-baseline="central" font-size="16.00" style="fill:#333;font-size:16.00px">Start</text><polygon points="146.44,124.05 196.25,173.86 146.44,223.67 96.63,173.86" style="fill:#ECECFF;stroke:#9370DB;stroke-width:1.50"></polygon><g style="fill:#333" transform="translate(128.33,164.26) scale(0.914)"><path d="M5.797 7.773 L5.797 8.117 C5.031 8.117 4.938 8.195 4.938 8.726 L4.938 15.414 L3.359 15.289 L3.359 14.945 C4.125 14.945 4.219 14.867 4.219 14.335 L4.219 11.960 C3.891 12.351 3.422 12.632 2.828 12.632 C1.531 12.632 0.375 11.554 0.375 10.132 C0.375 8.742 1.453 7.648 2.703 7.648 C3.406 7.648 3.906 8.023 4.188 8.382 L4.188 7.648 L5.797 7.773 Z M4.188 9.070 C4.188 8.867 4.188 8.851 4.062 8.664 C3.734 8.132 3.234 7.898 2.766 7.898 C2.266 7.898 1.875 8.179 1.609 8.601 C1.312 9.054 1.281 9.679 1.281 10.132 C1.281 10.539 1.312 11.195 1.625 11.695 C1.859 12.023 2.281 12.398 2.875 12.398 C3.250 12.398 3.719 12.226 4.062 11.726 C4.188 11.539 4.188 11.523 4.188 11.320 L4.188 9.070 Z" style="fill:#333"></path><path d="M8.713 7.773 L8.713 8.117 C8.119 8.117 7.931 8.132 7.666 8.460 L6.197 10.351 C6.525 10.773 6.947 11.320 7.213 11.601 C7.556 11.992 8.009 12.164 8.525 12.179 L8.525 12.507 C8.228 12.492 7.900 12.476 7.619 12.476 C7.291 12.476 6.697 12.507 6.556 12.507 L6.556 12.179 C6.791 12.148 6.884 12.007 6.884 11.835 C6.884 11.664 6.775 11.507 6.713 11.445 L6.025 10.585 L5.181 11.695 C5.072 11.804 5.072 11.835 5.072 11.898 C5.072 12.070 5.244 12.164 5.463 12.179 L5.463 12.507 L4.275 12.476 C4.041 12.476 3.525 12.492 3.228 12.507 L3.228 12.179 C3.994 12.179 4.009 12.164 4.525 11.507 L5.619 10.085 C5.103 9.429 5.103 9.398 4.588 8.773 C4.056 8.132 3.400 8.117 3.166 8.117 L3.166 7.773 C3.462 7.789 3.806 7.804 4.088 7.804 L5.134 7.773 L5.134 8.117 C4.884 8.148 4.806 8.289 4.806 8.460 C4.806 8.695 5.134 9.054 5.806 9.851 L6.634 8.757 C6.728 8.632 6.869 8.460 6.869 8.382 C6.869 8.289 6.775 8.132 6.478 8.117 L6.478 7.773 L7.666 7.804 C7.963 7.804 8.384 7.789 8.713 7.773 Z" style="fill:#333"></path><rect x="0.00" y="10.89" width="5.93" height="1.00" style="fill:#333"></rect><path d="M5.797 20.662 L5.797 21.006 C5.031 21.006 4.938 21.084 4.938 21.616 L4.938 28.303 L3.359 28.178 L3.359 27.834 C4.125 27.834 4.219 27.756 4.219 27.225 L4.219 24.850 C3.891 25.241 3.422 25.522 2.828 25.522 C1.531 25.522 0.375 24.444 0.375 23.022 C0.375 21.631 1.453 20.537 2.703 20.537 C3.406 20.537 3.906 20.912 4.188 21.272 L4.188 20.537 L5.797 20.662 Z M4.188 21.959 C4.188 21.756 4.188 21.741 4.062 21.553 C3.734 21.022 3.234 20.787 2.766 20.787 C2.266 20.787 1.875 21.069 1.609 21.491 C1.312 21.944 1.281 22.569 1.281 23.022 C1.281 23.428 1.312 24.084 1.625 24.584 C1.859 24.912 2.281 25.287 2.875 25.287 C3.250 25.287 3.719 25.116 4.062 24.616 C4.188 24.428 4.188 24.412 4.188 24.209 L4.188 21.959 Z" style="fill:#333"></path><path d="M6.697 22.022 L6.697 22.647 L6.416 22.647 L6.416 22.053 C6.416 21.241 6.088 20.819 5.681 20.819 C4.947 20.819 4.947 21.819 4.947 22.006 L4.947 25.069 L6.509 25.069 L6.509 25.397 L4.947 25.397 L4.947 27.428 L4.666 27.428 C4.650 26.522 4.322 25.350 3.244 25.303 L3.244 25.069 L4.181 25.069 L4.181 22.022 C4.181 20.678 5.213 20.537 5.603 20.537 C6.384 20.537 6.697 21.319 6.697 22.022 Z" style="fill:#333"></path><path d="M22.061 19.436 C22.061 19.765 21.764 19.765 21.545 19.765 L11.952 19.765 C11.733 19.765 11.420 19.765 11.420 19.436 C11.420 19.124 11.733 19.124 11.967 19.124 L21.514 19.124 C21.764 19.124 22.061 19.124 22.061 19.436 Z M22.061 16.343 C22.061 16.655 21.764 16.655 21.514 16.655 L11.967 16.655 C11.733 16.655 11.420 16.655 11.420 16.343 C11.420 16.015 11.733 16.015 11.952 16.015 L21.545 16.015 C21.764 16.015 22.061 16.015 22.061 16.343 Z" style="fill:#333"></path><path d="M24.928 24.046 C24.928 24.640 24.334 25.171 23.475 25.171 C22.366 25.171 21.006 24.327 21.006 22.624 L21.006 20.780 L19.741 20.780 L19.741 20.296 L21.006 20.296 L21.006 15.108 C21.006 14.390 20.819 14.390 19.756 14.390 L19.756 13.890 L21.584 13.936 C22.225 13.936 22.975 13.936 23.616 13.890 L23.616 14.390 L23.272 14.390 C22.084 14.390 22.053 14.561 22.053 15.140 L22.053 20.296 L23.881 20.296 L23.881 20.780 L22.006 20.780 L22.006 22.640 C22.006 24.046 22.772 24.811 23.475 24.811 C23.522 24.811 23.772 24.811 24.006 24.702 C23.819 24.640 23.522 24.436 23.522 24.030 C23.522 23.671 23.787 23.343 24.225 23.343 C24.678 23.343 24.928 23.671 24.928 24.046 Z" style="fill:#333"></path><path d="M26.897 10.046 C26.897 10.093 26.897 10.124 26.631 10.405 C24.631 12.421 24.116 15.436 24.116 17.890 C24.116 20.671 24.725 23.452 26.694 25.452 C26.897 25.655 26.897 25.686 26.897 25.733 C26.897 25.843 26.834 25.890 26.741 25.890 C26.569 25.890 25.131 24.796 24.194 22.765 C23.381 21.015 23.178 19.233 23.178 17.890 C23.178 16.640 23.366 14.702 24.241 12.905 C25.194 10.936 26.569 9.890 26.741 9.890 C26.834 9.890 26.897 9.936 26.897 10.046 Z" style="fill:#333"></path><path d="M32.889 13.890 L32.889 14.390 C32.030 14.390 31.748 14.421 31.373 14.874 L29.233 17.655 C29.717 18.265 30.327 19.046 30.702 19.452 C31.202 20.030 31.858 20.280 32.608 20.296 L32.608 20.780 C32.186 20.749 31.717 20.733 31.295 20.733 C30.811 20.733 29.967 20.765 29.764 20.780 L29.764 20.296 C30.092 20.265 30.217 20.046 30.217 19.796 C30.217 19.530 30.061 19.327 29.983 19.233 L28.998 17.983 L27.748 19.608 C27.592 19.765 27.592 19.796 27.592 19.890 C27.592 20.124 27.842 20.280 28.155 20.296 L28.155 20.780 L26.436 20.733 C26.092 20.733 25.342 20.749 24.905 20.780 L24.905 20.296 C26.030 20.296 26.045 20.280 26.795 19.311 L28.389 17.249 C27.623 16.296 27.623 16.265 26.873 15.343 C26.108 14.421 25.170 14.390 24.827 14.390 L24.827 13.890 C25.248 13.921 25.748 13.936 26.155 13.936 L27.686 13.890 L27.686 14.390 C27.327 14.436 27.217 14.640 27.217 14.874 C27.217 15.233 27.686 15.765 28.655 16.921 L29.873 15.311 C29.998 15.140 30.202 14.874 30.202 14.780 C30.202 14.640 30.061 14.405 29.623 14.390 L29.623 13.890 L31.358 13.936 C31.795 13.936 32.420 13.921 32.889 13.890 Z" style="fill:#333"></path><path d="M32.014 13.905 C32.014 14.936 31.623 15.593 30.983 15.593 C30.420 15.593 30.139 15.155 30.139 14.733 C30.139 14.327 30.405 13.890 30.983 13.890 C31.233 13.890 31.452 13.983 31.623 14.140 C31.655 12.874 31.217 11.905 30.514 11.155 C30.405 11.061 30.389 11.046 30.389 10.983 C30.389 10.858 30.483 10.796 30.561 10.796 C30.748 10.796 32.014 12.061 32.014 13.905 Z" style="fill:#333"></path><path d="M38.850 15.874 L38.850 16.780 L38.444 16.780 L38.444 15.905 C38.444 14.718 37.975 14.108 37.381 14.108 C36.303 14.108 36.303 15.577 36.303 15.843 L36.303 20.296 L38.600 20.296 L38.600 20.780 L36.303 20.780 L36.303 23.733 L35.912 23.733 C35.897 22.421 35.412 20.702 33.834 20.640 L33.834 20.296 L35.194 20.296 L35.194 15.874 C35.194 13.905 36.694 13.718 37.272 13.718 C38.397 13.718 38.850 14.843 38.850 15.874 Z" style="fill:#333"></path><path d="M41.202 17.890 C41.202 19.140 41.030 21.077 40.139 22.874 C39.186 24.843 37.811 25.890 37.655 25.890 C37.545 25.890 37.483 25.827 37.483 25.733 C37.483 25.686 37.483 25.655 37.795 25.358 C39.358 23.780 40.280 21.233 40.280 17.890 C40.280 15.155 39.686 12.343 37.702 10.327 C37.483 10.124 37.483 10.093 37.483 10.046 C37.483 9.952 37.545 9.890 37.655 9.890 C37.811 9.890 39.248 10.983 40.186 13.015 C41.014 14.765 41.202 16.546 41.202 17.890 Z" style="fill:#333"></path></g><rect x="87.53" y="273.67" width="117.81" height="54.05" rx="2.00" ry="2.00" style="fill:#ECECFF;stroke:#9370DB;stroke-width:1.50"></rect><text x="146.44" y="300.69" text-anchor="middle" dominant-baseline="central" font-size="16.00" style="fill:#333;font-size:16.00px">Process</text><polygon points="146.44,377.72 256.94,488.22 146.44,598.72 35.94,488.22" style="fill:#ECECFF;stroke:#9370DB;stroke-width:1.50"></polygon><text x="146.44" y="488.22" text-anchor="middle" dominant-baseline="central" style="fill:#333;font-size:16.00px">alpha + beta = gamma</text><rect x="20.00" y="648.72" width="88.48" height="54.05" rx="2.00" ry="2.00" style="fill:#ECECFF;stroke:#9370DB;stroke-width:1.50"></rect><text x="64.24" y="675.74" text-anchor="middle" dominant-baseline="central" font-size="16.00" style="fill:#333;font-size:16.00px">End</text><rect x="158.48" y="648.72" width="140.30" height="54.05" rx="2.00" ry="2.00" style="fill:#ECECFF;stroke:#9370DB;stroke-width:1.50"></rect><text x="228.63" y="675.74" text-anchor="middle" dominant-baseline="central" font-size="16.00" style="fill:#333;font-size:16.00px">Circle Area</text></svg>