<?xml version="1.0" encoding="UTF-8"?>
<svg xmlns="http://www.w3.org/2000/svg" viewBox="0 0 318.78 523.18"><defs><marker id="arrow-arrow-solid" viewBox="0 0 10 10" refX="9.00" refY="5.00" markerWidth="8.00" markerHeight="8.00" orient="auto"><polygon points="0,0 10,5 0,10" style="fill:#333"></polygon></marker></defs><rect x="0.00" y="0.00" width="318.78" height="523.18" style="fill:#fff;stroke:none"></rect><path d="M146.44,74.05 L146.44,124.05" style="stroke:#333;stroke-width:1.5;fill:none" marker-end="url(#arrow-arrow-solid)"></path><path d="M146.44,184.60 L146.44,234.60" style="stroke:#333;stroke-width:1.5;fill:none" marker-end="url(#arrow-arrow-solid)"></path><rect x="142.36" y="194.38" width="8.16" height="27.20" rx="3.00" ry="3.00" style="fill:#fff;stroke:none"></rect><g style="fill:#333" transform="translate(146.36,207.88) scale(1.000)"><path d="M0.102 -11.057 C0.102 -11.054 0.099 -11.053 0.097 -11.053 L0.079 -11.053 C0.072 -11.053 0.072 -11.058 0.071 -11.064 L0.040 -11.183 C0.039 -11.185 0.038 -11.188 0.038 -11.191 L0.027 -11.136 L0.006 -11.168 L0.005 -11.171 L0.007 -11.174 L0.019 -11.155 C0.020 -11.161 0.021 -11.166 0.022 -11.171 L0.029 -11.203 L0.031 -11.214 C0.031 -11.215 0.031 -11.218 0.033 -11.218 L0.035 -11.218 C0.039 -11.218 0.039 -11.215 0.040 -11.212 L0.048 -11.182 L0.078 -11.068 C0.079 -11.065 0.079 -11.063 0.080 -11.061 L0.099 -11.061 C0.101 -11.061 0.102 -11.059 0.102 -11.057 "></path><rect x="3.27" y="-1.82" width="8.13" height="1.00"></rect><path d="M5.402 -12.715 L5.402 -12.707 C5.388 -12.707 5.383 -12.707 5.377 -12.700 L5.343 -12.655 C5.351 -12.645 5.361 -12.633 5.367 -12.626 C5.375 -12.617 5.385 -12.613 5.397 -12.613 L5.397 -12.605 C5.390 -12.606 5.383 -12.606 5.376 -12.606 C5.368 -12.606 5.355 -12.605 5.352 -12.605 L5.352 -12.613 C5.357 -12.613 5.359 -12.617 5.359 -12.621 C5.359 -12.625 5.356 -12.628 5.355 -12.630 L5.339 -12.650 L5.319 -12.624 C5.317 -12.621 5.317 -12.621 5.317 -12.619 C5.317 -12.616 5.321 -12.613 5.326 -12.613 L5.326 -12.605 L5.298 -12.606 C5.293 -12.606 5.281 -12.606 5.274 -12.605 L5.274 -12.613 C5.292 -12.613 5.292 -12.613 5.304 -12.629 L5.330 -12.662 C5.317 -12.677 5.317 -12.677 5.305 -12.692 C5.293 -12.707 5.278 -12.707 5.273 -12.707 L5.273 -12.715 C5.279 -12.715 5.287 -12.715 5.294 -12.715 L5.318 -12.715 L5.318 -12.707 C5.313 -12.707 5.311 -12.703 5.311 -12.700 C5.311 -12.694 5.318 -12.685 5.334 -12.667 L5.353 -12.693 C5.355 -12.695 5.359 -12.700 5.359 -12.701 C5.359 -12.703 5.356 -12.707 5.349 -12.707 L5.349 -12.715 L5.377 -12.715 C5.384 -12.715 5.394 -12.715 5.402 -12.715 "></path></g><path d="M146.44,288.65 L146.44,338.65" style="stroke:#333;stroke-width:1.5;fill:none" marker-end="url(#arrow-arrow-solid)"></path><path d="M133.32,386.01 L84.95,449.13" style="stroke:#333;stroke-width:1.5;fill:none" marker-end="url(#arrow-arrow-solid)"></path><rect x="101.31" y="408.92" width="8.07" height="27.20" rx="3.00" ry="3.00" style="fill:#fff;stroke:none"></rect><g style="fill:#333" transform="translate(105.31,422.38) scale(1.000)"><path d="M0.051 -7.174 L0.051 -7.171 L0.047 -7.171 C0.036 -7.171 0.036 -7.169 0.036 -7.165 L0.036 -7.097 C0.036 -7.094 0.036 -7.094 0.033 -7.094 C0.025 -7.101 0.015 -7.101 0.011 -7.101 L0.011 -7.105 C0.013 -7.105 0.020 -7.105 0.027 -7.102 L0.027 -7.165 C0.027 -7.169 0.026 -7.171 0.015 -7.171 L0.012 -7.171 L0.012 -7.174 C0.016 -7.174 0.026 -7.174 0.031 -7.174 C0.036 -7.174 0.046 -7.174 0.051 -7.174 "></path><rect x="0.00" y="-11.17" width="2.73" height="1.00"></rect><path d="M0.054 -19.605 L0.051 -19.605 C0.051 -19.609 0.050 -19.614 0.049 -19.616 C0.048 -19.617 0.040 -19.617 0.037 -19.617 L0.015 -19.617 L0.028 -19.605 C0.047 -19.588 0.054 -19.581 0.054 -19.569 C0.054 -19.555 0.043 -19.546 0.029 -19.546 C0.015 -19.546 0.006 -19.557 0.006 -19.568 C0.006 -19.574 0.012 -19.574 0.013 -19.574 C0.014 -19.574 0.019 -19.573 0.019 -19.568 C0.019 -19.565 0.017 -19.562 0.012 -19.562 C0.011 -19.562 0.011 -19.562 0.011 -19.562 C0.014 -19.554 0.020 -19.550 0.027 -19.550 C0.038 -19.550 0.043 -19.559 0.043 -19.569 C0.043 -19.579 0.037 -19.589 0.031 -19.596 L0.007 -19.622 C0.006 -19.623 0.006 -19.623 0.006 -19.626 L0.051 -19.626 L0.054 -19.605 "></path></g><path d="M159.56,386.01 L207.92,449.13" style="stroke:#333;stroke-width:1.5;fill:none" marker-end="url(#arrow-arrow-solid)"></path><rect x="155.54" y="408.92" width="64.00" height="27.20" rx="3.00" ry="3.00" style="fill:#fff;stroke:none"></rect><text x="187.54" y="422.52" text-anchor="middle" dominant-baseline="central" style="fill:#333;font-size:16.00px">\\pi r^2</text><rect x="99.45" y="20.00" width="93.97" height="54.05" rx="2.00" ry="2.00" style="fill:#ECECFF;stroke:#9370DB;stroke-width:1.50"></rect><text x="146.44" y="47.03" text-anchor="middle" dominant-baseline="central" font-size="16.00" style="fill:#333;font-size:16.00px">Start</text><polygon points="146.44,124.05 176.71,154.33 146.44,184.60 116.16,154.33" style="fill:#ECECFF;stroke:#9370DB;stroke-width:1.50"></polygon><g style="fill:#333" transform="translate(146.16,154.18) scale(1.000)"><path d="M0.064 -7.481 L0.064 -7.477 C0.055 -7.477 0.054 -7.477 0.054 -7.471 L0.054 -7.397 L0.037 -7.399 L0.037 -7.402 C0.045 -7.402 0.046 -7.403 0.046 -7.409 L0.046 -7.435 C0.043 -7.431 0.038 -7.428 0.031 -7.428 C0.017 -7.428 0.004 -7.440 0.004 -7.455 C0.004 -7.471 0.016 -7.483 0.030 -7.483 C0.037 -7.483 0.043 -7.478 0.046 -7.475 L0.046 -7.483 L0.064 -7.481 M0.046 -7.467 C0.046 -7.469 0.046 -7.469 0.045 -7.471 C0.041 -7.477 0.036 -7.480 0.030 -7.480 C0.025 -7.480 0.021 -7.477 0.018 -7.472 C0.014 -7.467 0.014 -7.460 0.014 -7.455 C0.014 -7.451 0.014 -7.444 0.018 -7.438 C0.020 -7.434 0.025 -7.430 0.032 -7.430 C0.036 -7.430 0.041 -7.432 0.045 -7.438 C0.046 -7.440 0.046 -7.440 0.046 -7.442 L0.046 -7.467 "></path><path d="M3.103 -7.481 L3.103 -7.477 C3.096 -7.477 3.094 -7.477 3.091 -7.474 L3.075 -7.453 C3.079 -7.448 3.084 -7.442 3.087 -7.439 C3.090 -7.435 3.095 -7.433 3.101 -7.433 L3.101 -7.429 C3.098 -7.429 3.094 -7.430 3.091 -7.430 C3.087 -7.430 3.081 -7.429 3.079 -7.429 L3.079 -7.433 C3.082 -7.433 3.083 -7.435 3.083 -7.437 C3.083 -7.438 3.082 -7.440 3.081 -7.441 L3.073 -7.450 L3.064 -7.438 C3.063 -7.437 3.063 -7.437 3.063 -7.436 C3.063 -7.434 3.065 -7.433 3.067 -7.433 L3.067 -7.429 L3.054 -7.430 C3.052 -7.430 3.046 -7.429 3.043 -7.429 L3.043 -7.433 C3.051 -7.433 3.051 -7.433 3.057 -7.440 L3.069 -7.456 C3.063 -7.463 3.063 -7.463 3.058 -7.470 C3.052 -7.477 3.045 -7.477 3.042 -7.477 L3.042 -7.481 C3.045 -7.481 3.049 -7.481 3.052 -7.481 L3.064 -7.481 L3.064 -7.477 C3.061 -7.477 3.060 -7.476 3.060 -7.474 C3.060 -7.471 3.064 -7.467 3.071 -7.458 L3.080 -7.470 C3.081 -7.472 3.083 -7.474 3.083 -7.475 C3.083 -7.476 3.082 -7.477 3.078 -7.477 L3.078 -7.481 L3.091 -7.481 C3.095 -7.481 3.099 -7.481 3.103 -7.481 "></path><rect x="0.00" y="-11.60" width="5.93" height="1.00"></rect><path d="M0.064 -20.371 L0.064 -20.367 C0.055 -20.367 0.054 -20.366 0.054 -20.360 L0.054 -20.287 L0.037 -20.288 L0.037 -20.292 C0.045 -20.292 0.046 -20.293 0.046 -20.299 L0.046 -20.325 C0.043 -20.320 0.038 -20.317 0.031 -20.317 C0.017 -20.317 0.004 -20.329 0.004 -20.345 C0.004 -20.360 0.016 -20.372 0.030 -20.372 C0.037 -20.372 0.043 -20.368 0.046 -20.364 L0.046 -20.372 L0.064 -20.371 M0.046 -20.357 C0.046 -20.359 0.046 -20.359 0.045 -20.361 C0.041 -20.367 0.036 -20.369 0.030 -20.369 C0.025 -20.369 0.021 -20.366 0.018 -20.362 C0.014 -20.357 0.014 -20.350 0.014 -20.345 C0.014 -20.340 0.014 -20.333 0.018 -20.328 C0.020 -20.324 0.025 -20.320 0.032 -20.320 C0.036 -20.320 0.041 -20.322 0.045 -20.327 C0.046 -20.329 0.046 -20.330 0.046 -20.332 L0.046 -20.357 "></path><path d="M3.081 -20.356 L3.081 -20.349 L3.078 -20.349 L3.078 -20.356 C3.078 -20.364 3.074 -20.369 3.070 -20.369 C3.062 -20.369 3.062 -20.358 3.062 -20.356 L3.062 -20.322 L3.079 -20.322 L3.079 -20.319 L3.062 -20.319 L3.062 -20.296 L3.058 -20.296 C3.058 -20.306 3.055 -20.319 3.043 -20.320 L3.043 -20.322 L3.053 -20.322 L3.053 -20.356 C3.053 -20.371 3.065 -20.372 3.069 -20.372 C3.077 -20.372 3.081 -20.364 3.081 -20.356 "></path><path d="M10.714 -13.509 C10.714 -13.504 10.709 -13.504 10.706 -13.504 L10.552 -13.504 C10.549 -13.504 10.544 -13.504 10.544 -13.509 C10.544 -13.514 10.549 -13.514 10.553 -13.514 L10.705 -13.514 C10.709 -13.514 10.714 -13.514 10.714 -13.509 M10.714 -13.559 C10.714 -13.554 10.709 -13.554 10.705 -13.554 L10.553 -13.554 C10.549 -13.554 10.544 -13.554 10.544 -13.559 C10.544 -13.564 10.549 -13.564 10.552 -13.564 L10.706 -13.564 C10.709 -13.564 10.714 -13.564 10.714 -13.559 "></path><path d="M19.301 -13.435 C19.301 -13.426 19.291 -13.417 19.278 -13.417 C19.260 -13.417 19.238 -13.431 19.238 -13.458 L19.238 -13.488 L19.218 -13.488 L19.218 -13.495 L19.238 -13.495 L19.238 -13.578 C19.238 -13.590 19.235 -13.590 19.218 -13.590 L19.218 -13.598 L19.247 -13.597 C19.258 -13.597 19.270 -13.597 19.280 -13.598 L19.280 -13.590 L19.274 -13.590 C19.255 -13.590 19.255 -13.587 19.255 -13.578 L19.255 -13.495 L19.284 -13.495 L19.284 -13.488 L19.254 -13.488 L19.254 -13.458 C19.254 -13.435 19.266 -13.423 19.278 -13.423 C19.278 -13.423 19.282 -13.423 19.286 -13.425 C19.283 -13.426 19.278 -13.429 19.278 -13.436 C19.278 -13.441 19.283 -13.447 19.290 -13.447 C19.297 -13.447 19.301 -13.441 19.301 -13.435 "></path><path d="M21.685 -13.659 C21.685 -13.659 21.685 -13.658 21.680 -13.654 C21.648 -13.621 21.640 -13.573 21.640 -13.534 C21.640 -13.489 21.650 -13.445 21.681 -13.413 C21.685 -13.410 21.685 -13.409 21.685 -13.408 C21.685 -13.407 21.684 -13.406 21.682 -13.406 C21.679 -13.406 21.656 -13.423 21.641 -13.456 C21.628 -13.484 21.625 -13.512 21.625 -13.534 C21.625 -13.554 21.628 -13.585 21.642 -13.614 C21.657 -13.645 21.679 -13.662 21.682 -13.662 C21.684 -13.662 21.685 -13.661 21.685 -13.659 "></path><path d="M24.771 -13.598 L24.771 -13.590 C24.757 -13.590 24.753 -13.589 24.747 -13.582 L24.713 -13.538 C24.720 -13.528 24.730 -13.515 24.736 -13.509 C24.744 -13.500 24.755 -13.496 24.767 -13.495 L24.767 -13.488 C24.760 -13.488 24.752 -13.488 24.746 -13.488 C24.738 -13.488 24.724 -13.488 24.721 -13.488 L24.721 -13.495 C24.726 -13.496 24.728 -13.499 24.728 -13.503 C24.728 -13.508 24.726 -13.511 24.725 -13.512 L24.709 -13.532 L24.689 -13.506 C24.686 -13.504 24.686 -13.503 24.686 -13.502 C24.686 -13.498 24.690 -13.496 24.695 -13.495 L24.695 -13.488 L24.668 -13.488 C24.662 -13.488 24.650 -13.488 24.643 -13.488 L24.643 -13.495 C24.661 -13.495 24.662 -13.496 24.674 -13.511 L24.699 -13.544 C24.687 -13.559 24.687 -13.560 24.675 -13.575 C24.663 -13.589 24.648 -13.590 24.642 -13.590 L24.642 -13.598 C24.649 -13.597 24.657 -13.597 24.663 -13.597 L24.688 -13.598 L24.688 -13.590 C24.682 -13.589 24.680 -13.586 24.680 -13.582 C24.680 -13.576 24.688 -13.568 24.703 -13.549 L24.723 -13.575 C24.725 -13.578 24.728 -13.582 24.728 -13.584 C24.728 -13.586 24.726 -13.590 24.719 -13.590 L24.719 -13.598 L24.747 -13.597 C24.754 -13.597 24.764 -13.597 24.771 -13.598 "></path><path d="M28.816 -13.598 C28.816 -13.581 28.810 -13.571 28.800 -13.571 C28.791 -13.571 28.786 -13.578 28.786 -13.584 C28.786 -13.591 28.790 -13.598 28.800 -13.598 C28.804 -13.598 28.807 -13.596 28.810 -13.594 C28.810 -13.614 28.803 -13.630 28.792 -13.642 C28.790 -13.643 28.790 -13.643 28.790 -13.644 C28.790 -13.646 28.792 -13.647 28.793 -13.647 C28.796 -13.647 28.816 -13.627 28.816 -13.598 "></path><path d="M33.622 -13.566 L33.622 -13.552 L33.616 -13.552 L33.616 -13.566 C33.616 -13.585 33.608 -13.594 33.599 -13.594 C33.582 -13.594 33.582 -13.571 33.582 -13.567 L33.582 -13.495 L33.618 -13.495 L33.618 -13.488 L33.582 -13.488 L33.582 -13.440 L33.575 -13.440 C33.575 -13.461 33.567 -13.489 33.542 -13.490 L33.542 -13.495 L33.564 -13.495 L33.564 -13.566 C33.564 -13.598 33.588 -13.601 33.597 -13.601 C33.615 -13.601 33.622 -13.583 33.622 -13.566 "></path><path d="M36.651 -13.534 C36.651 -13.514 36.648 -13.483 36.634 -13.454 C36.618 -13.423 36.596 -13.406 36.594 -13.406 C36.592 -13.406 36.591 -13.407 36.591 -13.408 C36.591 -13.409 36.591 -13.410 36.596 -13.414 C36.621 -13.440 36.636 -13.480 36.636 -13.534 C36.636 -13.578 36.626 -13.623 36.595 -13.655 C36.591 -13.658 36.591 -13.659 36.591 -13.659 C36.591 -13.661 36.592 -13.662 36.594 -13.662 C36.596 -13.662 36.619 -13.644 36.634 -13.612 C36.648 -13.584 36.651 -13.555 36.651 -13.534 "></path></g><rect x="87.53" y="234.60" width="117.81" height="54.05" rx="2.00" ry="2.00" style="fill:#ECECFF;stroke:#9370DB;stroke-width:1.50"></rect><text x="146.44" y="261.63" text-anchor="middle" dominant-baseline="central" font-size="16.00" style="fill:#333;font-size:16.00px">Process</text><polygon points="146.44,338.65 176.68,368.89 146.44,399.13 116.20,368.89" style="fill:#ECECFF;stroke:#9370DB;stroke-width:1.50"></polygon><g style="fill:#333" transform="translate(146.20,368.78) scale(1.000)"><path d="M0.114 -11.837 C0.114 -11.837 0.114 -11.835 0.112 -11.832 L0.025 -11.592 C0.024 -11.589 0.023 -11.586 0.019 -11.586 C0.017 -11.586 0.014 -11.588 0.014 -11.591 C0.014 -11.591 0.014 -11.592 0.015 -11.596 L0.103 -11.836 C0.104 -11.839 0.105 -11.842 0.108 -11.842 C0.111 -11.842 0.114 -11.840 0.114 -11.837 "></path><path d="M6.692 -11.714 C6.692 -11.709 6.688 -11.709 6.684 -11.709 L6.613 -11.709 L6.613 -11.637 C6.613 -11.633 6.613 -11.629 6.607 -11.629 C6.602 -11.629 6.602 -11.633 6.602 -11.637 L6.602 -11.709 L6.531 -11.709 C6.527 -11.709 6.522 -11.709 6.522 -11.714 C6.522 -11.719 6.527 -11.719 6.531 -11.719 L6.602 -11.719 L6.602 -11.791 C6.602 -11.794 6.602 -11.799 6.607 -11.799 C6.613 -11.799 6.613 -11.794 6.613 -11.791 L6.613 -11.719 L6.684 -11.719 C6.688 -11.719 6.692 -11.719 6.692 -11.714 "></path><path d="M15.301 -11.837 C15.301 -11.837 15.301 -11.835 15.300 -11.832 L15.213 -11.592 C15.211 -11.589 15.210 -11.586 15.207 -11.586 C15.204 -11.586 15.202 -11.588 15.202 -11.591 C15.202 -11.591 15.202 -11.592 15.203 -11.596 L15.290 -11.836 C15.291 -11.839 15.292 -11.842 15.296 -11.842 C15.299 -11.842 15.301 -11.840 15.301 -11.837 "></path><path d="M21.880 -11.689 C21.880 -11.684 21.875 -11.684 21.872 -11.684 L21.718 -11.684 C21.715 -11.684 21.710 -11.684 21.710 -11.689 C21.710 -11.694 21.715 -11.694 21.718 -11.694 L21.871 -11.694 C21.875 -11.694 21.880 -11.694 21.880 -11.689 M21.880 -11.739 C21.880 -11.734 21.875 -11.734 21.871 -11.734 L21.718 -11.734 C21.715 -11.734 21.710 -11.734 21.710 -11.739 C21.710 -11.744 21.715 -11.744 21.718 -11.744 L21.872 -11.744 C21.875 -11.744 21.880 -11.744 21.880 -11.739 "></path><path d="M30.488 -11.837 C30.488 -11.837 30.488 -11.835 30.487 -11.832 L30.400 -11.592 C30.399 -11.589 30.398 -11.586 30.394 -11.586 C30.392 -11.586 30.389 -11.588 30.389 -11.591 C30.389 -11.591 30.389 -11.592 30.390 -11.596 L30.478 -11.836 C30.479 -11.839 30.480 -11.842 30.483 -11.842 C30.486 -11.842 30.488 -11.840 30.488 -11.837 "></path></g><rect x="20.00" y="449.13" width="88.48" height="54.05" rx="2.00" ry="2.00" style="fill:#ECECFF;stroke:#9370DB;stroke-width:1.50"></rect><text x="64.24" y="476.15" text-anchor="middle" dominant-baseline="central" font-size="16.00" style="fill:#333;font-size:16.00px">End</text><rect x="158.48" y="449.13" width="140.30" height="54.05" rx="2.00" ry="2.00" style="fill:#ECECFF;stroke:#9370DB;stroke-width:1.50"></rect><text x="228.63" y="476.15" text-anchor="middle" dominant-baseline="central" font-size="16.00" style="fill:#333;font-size:16.00px">Circle Area</text></svg>