<?xml version="1.0" encoding="UTF-8"?>
<svg xmlns="http://www.w3.org/2000/svg" viewBox="0 0 318.78 625.66"><defs><marker id="arrow-arrow-solid" viewBox="0 0 10 10" refX="9.00" refY="5.00" markerWidth="8.00" markerHeight="8.00" orient="auto"><polygon points="0,0 10,5 0,10" style="fill:#333"></polygon></marker></defs><rect x="0.00" y="0.00" width="318.78" height="625.66" style="fill:#fff;stroke:none"></rect><path d="M146.44,74.05 L146.44,124.05" style="stroke:#333;stroke-width:1.5;fill:none" marker-end="url(#arrow-arrow-solid)"></path><path d="M146.44,241.29 L146.44,291.29" style="stroke:#333;stroke-width:1.5;fill:none" marker-end="url(#arrow-arrow-solid)"></path><rect x="132.40" y="236.89" width="28.08" height="27.20" rx="3.00" ry="3.00" style="fill:#fff;stroke:none"></rect><g style="fill:#333" transform="translate(136.40,242.34) scale(1.000)"><g transform="translate(0,-1.200)"><path d="M4.109 17.452 L2.078 11.749 L0.766 11.749 L0.766 10.702 L2.906 10.702 L4.609 15.640 L9.578 1.593 L10.656 1.593 L5.078 17.452 L4.109 17.452 Z" style="fill:#333"></path><rect x="5.40" y="1.20" width="16.18" height="1.20" style="fill:#333"></rect><path d="M10.484 17.500 L14.172 12.297 L10.656 7.312 L12.547 7.312 L15.172 11.156 L17.781 7.312 L19.656 7.312 L16.140 12.297 L19.843 17.500 L17.953 17.500 L15.172 13.438 L12.359 17.500 L10.484 17.500 Z" style="fill:#333"></path></g></g><path d="M146.44,345.34 L146.44,395.34" style="stroke:#333;stroke-width:1.5;fill:none" marker-end="url(#arrow-arrow-solid)"></path><path d="M125.87,481.05 L81.31,551.61" style="stroke:#333;stroke-width:1.5;fill:none" marker-end="url(#arrow-arrow-solid)"></path><rect x="97.19" y="497.05" width="16.31" height="33.01" rx="3.00" ry="3.00" style="fill:#fff;stroke:none"></rect><g style="fill:#333" transform="translate(101.19,501.05) scale(1.000)"><g transform="translate(0,-0.309)"><path d="M3.500 9.590 L3.500 3.106 Q3.500 2.543 3.516 2.199 Q3.516 1.871 3.547 1.496 Q3.344 1.699 3.172 1.856 Q3.000 1.996 2.750 2.215 L1.750 3.027 L1.156 2.262 L3.672 0.309 L4.609 0.309 L4.609 9.590 L3.500 9.590 Z" style="fill:#333"></path><rect x="-1.50" y="13.19" width="8.07" height="1.20" style="fill:#333"></rect><path d="M0.625 25.320 L0.625 24.367 L3.062 21.914 Q3.750 21.211 4.234 20.664 Q4.719 20.117 4.969 19.601 Q5.219 19.070 5.219 18.445 Q5.219 17.679 4.766 17.289 Q4.297 16.882 3.578 16.882 Q2.906 16.882 2.375 17.117 Q1.875 17.351 1.344 17.773 L0.734 17.007 Q1.281 16.539 1.969 16.226 Q2.688 15.914 3.578 15.914 Q4.875 15.914 5.625 16.570 Q6.391 17.226 6.391 18.382 Q6.391 19.101 6.078 19.742 Q5.781 20.367 5.250 20.992 Q4.719 21.617 4.000 22.320 L2.062 24.226 L2.062 24.273 L6.766 24.273 L6.766 25.320 L0.625 25.320 Z" style="fill:#333"></path></g></g><path d="M167.00,481.05 L211.57,551.61" style="stroke:#333;stroke-width:1.5;fill:none" marker-end="url(#arrow-arrow-solid)"></path><rect x="174.22" y="499.96" width="26.64" height="27.20" rx="3.00" ry="3.00" style="fill:#fff;stroke:none"></rect><g style="fill:#333" transform="translate(178.22,505.01) scale(1.000)"><g transform="translate(0.000,0)"><g transform="translate(0,-0.100)"><path d="M10.375 10.662 Q8.266 10.662 8.266 8.241 L8.266 1.678 L3.953 1.678 L3.953 10.475 L2.297 10.475 L2.297 1.678 L0.234 1.678 L0.234 0.959 L1.594 0.287 L11.906 0.287 L11.906 1.678 L9.922 1.678 L9.922 8.116 Q9.922 8.787 10.172 9.053 Q10.406 9.303 10.797 9.303 Q11.062 9.303 11.266 9.241 Q11.500 9.178 11.625 9.100 L11.625 10.412 Q11.469 10.491 11.141 10.569 Q10.812 10.662 10.375 10.662 Z" style="fill:#333"></path><path d="M9.950 10.475 L9.950 0.287 L11.325 0.287 L11.512 2.147 L11.590 2.147 Q12.090 1.319 12.856 0.709 Q13.637 0.100 14.700 0.100 Q14.997 0.100 15.309 0.131 Q15.653 0.162 15.903 0.209 L15.700 1.756 Q15.450 1.694 15.137 1.662 Q14.856 1.616 14.590 1.616 Q13.809 1.616 13.122 2.053 Q12.450 2.475 12.028 3.256 Q11.622 4.022 11.622 5.037 L11.622 10.475 L9.950 10.475 Z" style="fill:#333"></path></g></g><g transform="translate(13.568,-7.680)"><g transform="translate(0,-0.324)"><path d="M0.625 9.730 L0.625 8.777 L3.062 6.324 Q3.750 5.621 4.234 5.074 Q4.719 4.527 4.969 4.011 Q5.219 3.480 5.219 2.855 Q5.219 2.089 4.766 1.699 Q4.297 1.292 3.578 1.292 Q2.906 1.292 2.375 1.527 Q1.875 1.761 1.344 2.183 L0.734 1.417 Q1.281 0.949 1.969 0.636 Q2.688 0.324 3.578 0.324 Q4.875 0.324 5.625 0.980 Q6.391 1.636 6.391 2.792 Q6.391 3.511 6.078 4.152 Q5.781 4.777 5.250 5.402 Q4.719 6.027 4.000 6.730 L2.062 8.636 L2.062 8.683 L6.766 8.683 L6.766 9.730 L0.625 9.730 Z" style="fill:#333"></path></g></g></g><rect x="99.45" y="20.00" width="93.97" height="54.05" rx="2.00" ry="2.00" style="fill:#ECECFF;stroke:#9370DB;stroke-width:1.50"></rect><text x="146.44" y="47.03" text-anchor="middle" dominant-baseline="central" font-size="16.00" style="fill:#333;font-size:16.00px">Start</text><polygon points="146.44,124.05 205.06,182.67 146.44,241.29 87.82,182.67" style="fill:#ECECFF;stroke:#9370DB;stroke-width:1.50"></polygon><g style="fill:#333" transform="translate(117.82,169.49) scale(1.000)"><g transform="translate(0.000,0)"><g transform="translate(0,-0.345)"><path d="M3.578 10.345 Q2.281 10.345 1.500 9.454 Q0.719 8.548 0.719 6.751 Q0.719 4.954 1.500 4.048 Q2.281 3.126 3.594 3.126 Q4.391 3.126 4.906 3.423 Q5.422 3.720 5.750 4.142 L5.828 4.142 Q5.812 3.986 5.766 3.657 Q5.750 3.314 5.750 3.126 L5.750 0.345 L6.891 0.345 L6.891 10.220 L5.969 10.220 L5.797 9.282 L5.750 9.282 Q5.438 9.720 4.906 10.032 Q4.391 10.345 3.578 10.345 Z M3.750 9.407 Q4.859 9.407 5.297 8.798 Q5.766 8.189 5.766 6.970 L5.766 6.767 Q5.766 5.454 5.328 4.767 Q4.906 4.064 3.750 4.064 Q2.828 4.064 2.359 4.814 Q1.891 5.532 1.891 6.782 Q1.891 8.017 2.359 8.704 Q2.828 9.407 3.750 9.407 Z" style="fill:#333"></path><path d="M5.683 10.220 L8.199 6.657 L5.792 3.251 L7.105 3.251 L8.886 5.876 L10.667 3.251 L11.964 3.251 L9.558 6.657 L12.089 10.220 L10.792 10.220 L8.886 7.439 L6.964 10.220 L5.683 10.220 Z" style="fill:#333"></path><rect x="-1.50" y="13.96" width="13.14" height="1.20" style="fill:#333"></rect><path d="M4.928 26.705 Q3.631 26.705 2.850 25.814 Q2.069 24.908 2.069 23.111 Q2.069 21.314 2.850 20.408 Q3.631 19.486 4.944 19.486 Q5.741 19.486 6.256 19.783 Q6.772 20.080 7.100 20.502 L7.178 20.502 Q7.162 20.346 7.116 20.017 Q7.100 19.674 7.100 19.486 L7.100 16.705 L8.241 16.705 L8.241 26.580 L7.319 26.580 L7.147 25.642 L7.100 25.642 Q6.787 26.080 6.256 26.392 Q5.741 26.705 4.928 26.705 Z M5.100 25.767 Q6.209 25.767 6.647 25.158 Q7.116 24.549 7.116 23.330 L7.116 23.127 Q7.116 21.814 6.678 21.127 Q6.256 20.424 5.100 20.424 Q4.178 20.424 3.709 21.174 Q3.241 21.892 3.241 23.142 Q3.241 24.377 3.709 25.064 Q4.178 25.767 5.100 25.767 Z" style="fill:#333"></path><path d="M10.033 26.705 Q9.486 26.705 9.017 26.533 Q8.564 26.330 8.283 25.861 Q8.002 25.392 8.002 24.549 L8.002 20.502 L7.002 20.502 L7.002 19.955 L8.002 19.502 L8.455 18.017 L9.142 18.017 L9.142 19.611 L11.158 19.611 L11.158 20.502 L9.142 20.502 L9.142 24.533 Q9.142 25.158 9.439 25.471 Q9.752 25.767 10.236 25.767 Q10.486 25.767 10.767 25.736 Q11.033 25.689 11.205 25.627 L11.205 26.502 Q11.017 26.596 10.689 26.642 Q10.345 26.705 10.033 26.705 Z" style="fill:#333"></path><path d="M16.711 11.597 L16.711 10.254 L25.648 10.254 L25.648 11.597 L16.711 11.597 Z M16.711 15.379 L16.711 14.035 L25.648 14.035 L25.648 15.379 L16.711 15.379 Z" style="fill:#333"></path><path d="M27.426 18.097 L27.426 9.207 L25.629 9.207 L25.629 8.426 L27.426 7.863 L27.426 7.269 Q27.426 5.285 28.285 4.441 Q29.160 3.566 30.723 3.566 Q31.332 3.566 31.832 3.676 Q32.332 3.769 32.707 3.910 L32.270 5.222 Q31.957 5.113 31.567 5.019 Q31.160 4.926 30.739 4.926 Q29.910 4.926 29.489 5.504 Q29.098 6.051 29.098 7.254 L29.098 7.910 L31.660 7.910 L31.660 9.207 L29.098 9.207 L29.098 18.097 L27.426 18.097 Z" style="fill:#333"></path><path d="M33.780 21.097 Q32.077 19.301 31.264 16.988 Q30.467 14.691 30.467 12.222 Q30.467 9.722 31.264 7.379 Q32.077 5.051 33.780 3.207 L35.358 3.207 Q33.764 5.113 32.952 7.457 Q32.155 9.769 32.155 12.207 Q32.155 14.597 32.967 16.894 Q33.780 19.176 35.342 21.097 L33.780 21.097 Z" style="fill:#333"></path><path d="M34.197 18.097 L37.884 12.894 L34.369 7.910 L36.259 7.910 L38.884 11.754 L41.494 7.910 L43.369 7.910 L39.853 12.894 L43.556 18.097 L41.665 18.097 L38.884 14.035 L36.072 18.097 L34.197 18.097 Z" style="fill:#333"></path></g></g><g transform="translate(40.548,16.320)"><path d="M0.781 2.453 Q1.047 1.375 1.312 0.078 Q1.594 -1.219 1.734 -2.203 L3.516 -2.203 L3.641 -2.000 Q3.406 -0.984 2.922 0.203 Q2.469 1.422 2.016 2.453 L0.781 2.453 Z" style="fill:#333"></path></g><g transform="translate(48.522,0)"><g transform="translate(0,-0.159)"><path d="M4.734 15.237 Q3.938 15.237 3.250 14.972 Q2.578 14.691 2.172 14.003 Q1.750 13.316 1.750 12.081 L1.750 6.159 L0.297 6.159 L0.297 5.362 L1.766 4.691 L2.438 2.534 L3.422 2.534 L3.422 4.862 L6.359 4.862 L6.359 6.159 L3.422 6.159 L3.422 12.050 Q3.422 12.972 3.859 13.441 Q4.312 13.878 5.016 13.878 Q5.391 13.878 5.797 13.816 Q6.188 13.737 6.438 13.659 L6.438 14.941 Q6.172 15.066 5.688 15.144 Q5.188 15.237 4.734 15.237 Z" style="fill:#333"></path><path d="M5.163 18.050 Q6.741 16.128 7.538 13.847 Q8.350 11.550 8.350 9.159 Q8.350 6.722 7.538 4.409 Q6.741 2.066 5.131 0.159 L6.710 0.159 Q8.428 2.003 9.225 4.331 Q10.038 6.675 10.038 9.175 Q10.038 11.644 9.225 13.941 Q8.428 16.253 6.710 18.050 L5.163 18.050 Z" style="fill:#333"></path></g></g></g><rect x="87.53" y="291.29" width="117.81" height="54.05" rx="2.00" ry="2.00" style="fill:#ECECFF;stroke:#9370DB;stroke-width:1.50"></rect><text x="146.44" y="318.32" text-anchor="middle" dominant-baseline="central" font-size="16.00" style="fill:#333;font-size:16.00px">Process</text><polygon points="146.44,395.34 199.57,448.48 146.44,501.61 93.30,448.48" style="fill:#ECECFF;stroke:#9370DB;stroke-width:1.50"></polygon><g style="fill:#333" transform="translate(123.30,438.93) scale(1.000)"><g transform="translate(0,-0.169)"><path d="M5.219 14.887 Q3.359 14.887 2.203 13.575 Q1.047 12.247 1.047 9.653 Q1.047 7.059 2.188 5.700 Q3.328 4.325 5.375 4.325 Q6.500 4.325 7.234 4.731 Q8.000 5.106 8.500 5.887 L8.609 5.887 Q8.703 5.559 8.859 5.184 Q9.000 4.794 9.219 4.512 L10.531 4.512 Q10.391 4.934 10.281 5.622 Q10.172 6.309 10.109 7.059 Q10.047 7.825 10.047 8.512 L10.047 12.466 Q10.047 13.044 10.281 13.294 Q10.500 13.528 10.828 13.528 Q10.984 13.528 11.156 13.481 Q11.328 13.450 11.406 13.434 L11.406 14.637 Q11.266 14.716 10.969 14.794 Q10.656 14.887 10.344 14.887 Q9.641 14.887 9.172 14.544 Q8.734 14.200 8.531 13.325 L8.391 13.325 Q7.969 13.981 7.234 14.434 Q6.516 14.887 5.219 14.887 Z M5.516 13.497 Q7.094 13.497 7.734 12.606 Q8.391 11.700 8.391 9.747 L8.391 9.622 Q8.391 7.731 7.766 6.731 Q7.156 5.731 5.484 5.731 Q4.109 5.731 3.438 6.731 Q2.781 7.747 2.781 9.669 Q2.781 11.559 3.422 12.528 Q4.078 13.497 5.516 13.497 Z" style="fill:#333"></path><path d="M14.900 14.012 L14.900 10.106 L11.119 10.106 L11.119 8.747 L14.900 8.747 L14.900 4.825 L16.275 4.825 L16.275 8.747 L20.057 8.747 L20.057 10.106 L16.275 10.106 L16.275 14.012 L14.900 14.012 Z" style="fill:#333"></path><path d="M21.366 19.262 L21.366 4.528 Q21.366 2.997 21.960 2.044 Q22.553 1.075 23.569 0.622 Q24.600 0.169 25.913 0.169 Q27.178 0.169 28.178 0.591 Q29.163 0.981 29.710 1.778 Q30.288 2.575 30.288 3.794 Q30.288 5.169 29.538 5.966 Q28.803 6.762 27.397 6.981 L27.397 7.059 Q29.116 7.247 29.991 8.184 Q30.897 9.106 30.897 10.841 Q30.897 12.794 29.663 13.841 Q28.444 14.887 26.256 14.887 Q25.147 14.887 24.397 14.716 Q23.647 14.544 23.038 14.247 L23.038 19.262 L21.366 19.262 Z M26.100 13.528 Q27.741 13.528 28.475 12.794 Q29.225 12.059 29.225 10.731 Q29.225 9.231 28.303 8.544 Q27.397 7.841 25.913 7.841 L24.913 7.841 L24.913 6.434 L25.725 6.434 Q27.210 6.434 27.881 5.731 Q28.569 5.028 28.569 3.872 Q28.569 2.684 27.835 2.122 Q27.116 1.559 25.881 1.559 Q25.116 1.559 24.475 1.825 Q23.819 2.091 23.428 2.747 Q23.038 3.419 23.038 4.606 L23.038 12.747 Q23.710 13.091 24.413 13.309 Q25.131 13.528 26.100 13.528 Z" style="fill:#333"></path><path d="M31.078 8.200 L31.078 6.856 L40.015 6.856 L40.015 8.200 L31.078 8.200 Z M31.078 11.981 L31.078 10.637 L40.015 10.637 L40.015 11.981 L31.078 11.981 Z" style="fill:#333"></path><path d="M42.965 19.262 Q42.965 18.731 43.075 17.934 Q43.215 17.137 43.418 16.231 Q43.653 15.372 43.934 14.591 L39.809 4.512 L41.543 4.512 L43.684 9.856 Q43.903 10.356 44.106 10.950 Q44.309 11.559 44.481 12.122 Q44.653 12.669 44.715 13.012 L44.793 13.012 Q44.840 12.700 44.997 12.137 Q45.168 11.559 45.356 10.950 Q45.575 10.356 45.715 9.934 L47.731 4.512 L49.465 4.512 L45.700 14.450 Q45.418 15.216 45.200 16.091 Q44.997 16.966 44.887 17.778 Q44.762 18.606 44.762 19.262 L42.965 19.262 Z" style="fill:#333"></path></g></g><rect x="20.00" y="551.61" width="88.48" height="54.05" rx="2.00" ry="2.00" style="fill:#ECECFF;stroke:#9370DB;stroke-width:1.50"></rect><text x="64.24" y="578.64" text-anchor="middle" dominant-baseline="central" font-size="16.00" style="fill:#333;font-size:16.00px">End</text><rect x="158.48" y="551.61" width="140.30" height="54.05" rx="2.00" ry="2.00" style="fill:#ECECFF;stroke:#9370DB;stroke-width:1.50"></rect><text x="228.63" y="578.64" text-anchor="middle" dominant-baseline="central" font-size="16.00" style="fill:#333;font-size:16.00px">Circle Area</text></svg>