<?xml version="1.0" encoding="UTF-8"?>
<svg xmlns="http://www.w3.org/2000/svg" viewBox="0 0 318.78 609.39"><defs><marker id="arrow-arrow-solid" viewBox="0 0 10 10" refX="9.00" refY="5.00" markerWidth="8.00" markerHeight="8.00" orient="auto"><polygon points="0,0 10,5 0,10" style="fill:#333"></polygon></marker></defs><rect x="0.00" y="0.00" width="318.78" height="609.39" style="fill:#fff;stroke:none"></rect><path d="M146.44,74.05 L146.44,124.05" style="stroke:#333;stroke-width:1.5;fill:none" marker-end="url(#arrow-arrow-solid)"></path><path d="M146.44,232.90 L146.44,282.90" style="stroke:#333;stroke-width:1.5;fill:none" marker-end="url(#arrow-arrow-solid)"></path><rect x="134.11" y="230.60" width="24.66" height="27.20" rx="3.00" ry="3.00" style="fill:#fff;stroke:none"></rect><g style="fill:#333" transform="translate(138.11,236.05) scale(1.000)"><g transform="translate(0,-1.200)"><path d="M4.109 17.452 L2.078 11.749 L0.766 11.749 L0.766 10.702 L2.906 10.702 L4.609 15.640 L9.578 1.593 L10.656 1.593 L5.078 17.452 L4.109 17.452 Z" style="fill:#333"></path><rect x="5.73" y="1.20" width="10.93" height="1.20" style="fill:#333"></rect><path d="M8.756 17.500 L12.444 12.297 L8.928 7.312 L10.819 7.312 L13.444 11.156 L16.053 7.312 L17.928 7.312 L14.413 12.297 L18.116 17.500 L16.225 17.500 L13.444 13.438 L10.631 17.500 L8.756 17.500 Z" style="fill:#333"></path></g></g><path d="M146.44,336.95 L146.44,386.95" style="stroke:#333;stroke-width:1.5;fill:none" marker-end="url(#arrow-arrow-solid)"></path><path d="M127.04,465.93 L81.84,535.34" style="stroke:#333;stroke-width:1.5;fill:none" marker-end="url(#arrow-arrow-solid)"></path><rect x="97.89" y="482.75" width="14.89" height="33.01" rx="3.00" ry="3.00" style="fill:#fff;stroke:none"></rect><g style="fill:#333" transform="translate(101.89,486.75) scale(1.000)"><g transform="translate(0,-0.309)"><path d="M3.500 9.590 L3.500 3.106 Q3.500 2.543 3.516 2.199 Q3.516 1.871 3.547 1.496 Q3.344 1.699 3.172 1.856 Q3.000 1.996 2.750 2.215 L1.750 3.027 L1.156 2.262 L3.672 0.309 L4.609 0.309 L4.609 9.590 L3.500 9.590 Z" style="fill:#333"></path><rect x="0.00" y="13.19" width="4.20" height="1.20" style="fill:#333"></rect><path d="M0.625 25.320 L0.625 24.367 L3.062 21.914 Q3.750 21.211 4.234 20.664 Q4.719 20.117 4.969 19.601 Q5.219 19.070 5.219 18.445 Q5.219 17.679 4.766 17.289 Q4.297 16.882 3.578 16.882 Q2.906 16.882 2.375 17.117 Q1.875 17.351 1.344 17.773 L0.734 17.007 Q1.281 16.539 1.969 16.226 Q2.688 15.914 3.578 15.914 Q4.875 15.914 5.625 16.570 Q6.391 17.226 6.391 18.382 Q6.391 19.101 6.078 19.742 Q5.781 20.367 5.250 20.992 Q4.719 21.617 4.000 22.320 L2.062 24.226 L2.062 24.273 L6.766 24.273 L6.766 25.320 L0.625 25.320 Z" style="fill:#333"></path></g></g><path d="M165.84,465.93 L211.03,535.34" style="stroke:#333;stroke-width:1.5;fill:none" marker-end="url(#arrow-arrow-solid)"></path><rect x="175.81" y="485.65" width="23.46" height="27.20" rx="3.00" ry="3.00" style="fill:#fff;stroke:none"></rect><g style="fill:#333" transform="translate(179.81,490.71) scale(1.000)"><g transform="translate(0.000,0)"><g transform="translate(0,-0.100)"><path d="M10.375 10.662 Q8.266 10.662 8.266 8.241 L8.266 1.678 L3.953 1.678 L3.953 10.475 L2.297 10.475 L2.297 1.678 L0.234 1.678 L0.234 0.959 L1.594 0.287 L11.906 0.287 L11.906 1.678 L9.922 1.678 L9.922 8.116 Q9.922 8.787 10.172 9.053 Q10.406 9.303 10.797 9.303 Q11.062 9.303 11.266 9.241 Q11.500 9.178 11.625 9.100 L11.625 10.412 Q11.469 10.491 11.141 10.569 Q10.812 10.662 10.375 10.662 Z" style="fill:#333"></path><path d="M8.529 10.475 L8.529 0.287 L9.904 0.287 L10.091 2.147 L10.170 2.147 Q10.670 1.319 11.435 0.709 Q12.216 0.100 13.279 0.100 Q13.576 0.100 13.888 0.131 Q14.232 0.162 14.482 0.209 L14.279 1.756 Q14.029 1.694 13.716 1.662 Q13.435 1.616 13.170 1.616 Q12.388 1.616 11.701 2.053 Q11.029 2.475 10.607 3.256 Q10.201 4.022 10.201 5.037 L10.201 10.475 L8.529 10.475 Z" style="fill:#333"></path></g></g><g transform="translate(11.256,-7.680)"><g transform="translate(0,-0.324)"><path d="M0.625 9.730 L0.625 8.777 L3.062 6.324 Q3.750 5.621 4.234 5.074 Q4.719 4.527 4.969 4.011 Q5.219 3.480 5.219 2.855 Q5.219 2.089 4.766 1.699 Q4.297 1.292 3.578 1.292 Q2.906 1.292 2.375 1.527 Q1.875 1.761 1.344 2.183 L0.734 1.417 Q1.281 0.949 1.969 0.636 Q2.688 0.324 3.578 0.324 Q4.875 0.324 5.625 0.980 Q6.391 1.636 6.391 2.792 Q6.391 3.511 6.078 4.152 Q5.781 4.777 5.250 5.402 Q4.719 6.027 4.000 6.730 L2.062 8.636 L2.062 8.683 L6.766 8.683 L6.766 9.730 L0.625 9.730 Z" style="fill:#333"></path></g></g></g><rect x="99.45" y="20.00" width="93.97" height="54.05" rx="2.00" ry="2.00" style="fill:#ECECFF;stroke:#9370DB;stroke-width:1.50"></rect><text x="146.44" y="47.03" text-anchor="middle" dominant-baseline="central" font-size="16.00" style="fill:#333;font-size:16.00px">Start</text><polygon points="146.44,124.05 200.86,178.47 146.44,232.90 92.01,178.47" style="fill:#ECECFF;stroke:#9370DB;stroke-width:1.50"></polygon><g style="fill:#333" transform="translate(122.01,165.29) scale(1.000)"><g transform="translate(0.000,0)"><g transform="translate(0,-0.345)"><path d="M3.578 10.345 Q2.281 10.345 1.500 9.454 Q0.719 8.548 0.719 6.751 Q0.719 4.954 1.500 4.048 Q2.281 3.126 3.594 3.126 Q4.391 3.126 4.906 3.423 Q5.422 3.720 5.750 4.142 L5.828 4.142 Q5.812 3.986 5.766 3.657 Q5.750 3.314 5.750 3.126 L5.750 0.345 L6.891 0.345 L6.891 10.220 L5.969 10.220 L5.797 9.282 L5.750 9.282 Q5.438 9.720 4.906 10.032 Q4.391 10.345 3.578 10.345 Z M3.750 9.407 Q4.859 9.407 5.297 8.798 Q5.766 8.189 5.766 6.970 L5.766 6.767 Q5.766 5.454 5.328 4.767 Q4.906 4.064 3.750 4.064 Q2.828 4.064 2.359 4.814 Q1.891 5.532 1.891 6.782 Q1.891 8.017 2.359 8.704 Q2.828 9.407 3.750 9.407 Z" style="fill:#333"></path><path d="M4.755 10.220 L7.270 6.657 L4.864 3.251 L6.176 3.251 L7.958 5.876 L9.739 3.251 L11.036 3.251 L8.630 6.657 L11.161 10.220 L9.864 10.220 L7.958 7.439 L6.036 10.220 L4.755 10.220 Z" style="fill:#333"></path><rect x="0.00" y="13.96" width="8.41" height="1.20" style="fill:#333"></rect><path d="M4.698 26.705 Q3.401 26.705 2.620 25.814 Q1.839 24.908 1.839 23.111 Q1.839 21.314 2.620 20.408 Q3.401 19.486 4.714 19.486 Q5.511 19.486 6.026 19.783 Q6.542 20.080 6.870 20.502 L6.948 20.502 Q6.933 20.346 6.886 20.017 Q6.870 19.674 6.870 19.486 L6.870 16.705 L8.011 16.705 L8.011 26.580 L7.089 26.580 L6.917 25.642 L6.870 25.642 Q6.558 26.080 6.026 26.392 Q5.511 26.705 4.698 26.705 Z M4.870 25.767 Q5.979 25.767 6.417 25.158 Q6.886 24.549 6.886 23.330 L6.886 23.127 Q6.886 21.814 6.448 21.127 Q6.026 20.424 4.870 20.424 Q3.948 20.424 3.479 21.174 Q3.011 21.892 3.011 23.142 Q3.011 24.377 3.479 25.064 Q3.948 25.767 4.870 25.767 Z" style="fill:#333"></path><path d="M8.875 26.705 Q8.328 26.705 7.859 26.533 Q7.406 26.330 7.125 25.861 Q6.843 25.392 6.843 24.549 L6.843 20.502 L5.843 20.502 L5.843 19.955 L6.843 19.502 L7.296 18.017 L7.984 18.017 L7.984 19.611 L10.000 19.611 L10.000 20.502 L7.984 20.502 L7.984 24.533 Q7.984 25.158 8.281 25.471 Q8.593 25.767 9.078 25.767 Q9.328 25.767 9.609 25.736 Q9.875 25.689 10.046 25.627 L10.046 26.502 Q9.859 26.596 9.531 26.642 Q9.187 26.705 8.875 26.705 Z" style="fill:#333"></path><path d="M14.029 11.597 L14.029 10.254 L22.966 10.254 L22.966 11.597 L14.029 11.597 Z M14.029 15.379 L14.029 14.035 L22.966 14.035 L22.966 15.379 L14.029 15.379 Z" style="fill:#333"></path><path d="M23.108 18.097 L23.108 9.207 L21.311 9.207 L21.311 8.426 L23.108 7.863 L23.108 7.269 Q23.108 5.285 23.967 4.441 Q24.842 3.566 26.404 3.566 Q27.014 3.566 27.514 3.676 Q28.014 3.769 28.389 3.910 L27.951 5.222 Q27.639 5.113 27.248 5.019 Q26.842 4.926 26.420 4.926 Q25.592 4.926 25.170 5.504 Q24.779 6.051 24.779 7.254 L24.779 7.910 L27.342 7.910 L27.342 9.207 L24.779 9.207 L24.779 18.097 L23.108 18.097 Z" style="fill:#333"></path><path d="M28.720 21.097 Q27.016 19.301 26.204 16.988 Q25.407 14.691 25.407 12.222 Q25.407 9.722 26.204 7.379 Q27.016 5.051 28.720 3.207 L30.298 3.207 Q28.704 5.113 27.891 7.457 Q27.095 9.769 27.095 12.207 Q27.095 14.597 27.907 16.894 Q28.720 19.176 30.282 21.097 L28.720 21.097 Z" style="fill:#333"></path><path d="M28.429 18.097 L32.117 12.894 L28.601 7.910 L30.492 7.910 L33.117 11.754 L35.726 7.910 L37.601 7.910 L34.085 12.894 L37.789 18.097 L35.898 18.097 L33.117 14.035 L30.304 18.097 L28.429 18.097 Z" style="fill:#333"></path></g></g><g transform="translate(33.640,16.320)"><path d="M0.781 2.453 Q1.047 1.375 1.312 0.078 Q1.594 -1.219 1.734 -2.203 L3.516 -2.203 L3.641 -2.000 Q3.406 -0.984 2.922 0.203 Q2.469 1.422 2.016 2.453 L0.781 2.453 Z" style="fill:#333"></path></g><g transform="translate(41.614,0)"><g transform="translate(0,-0.159)"><path d="M4.734 15.237 Q3.938 15.237 3.250 14.972 Q2.578 14.691 2.172 14.003 Q1.750 13.316 1.750 12.081 L1.750 6.159 L0.297 6.159 L0.297 5.362 L1.766 4.691 L2.438 2.534 L3.422 2.534 L3.422 4.862 L6.359 4.862 L6.359 6.159 L3.422 6.159 L3.422 12.050 Q3.422 12.972 3.859 13.441 Q4.312 13.878 5.016 13.878 Q5.391 13.878 5.797 13.816 Q6.188 13.737 6.438 13.659 L6.438 14.941 Q6.172 15.066 5.688 15.144 Q5.188 15.237 4.734 15.237 Z" style="fill:#333"></path><path d="M4.384 18.050 Q5.962 16.128 6.759 13.847 Q7.572 11.550 7.572 9.159 Q7.572 6.722 6.759 4.409 Q5.962 2.066 4.353 0.159 L5.931 0.159 Q7.650 2.003 8.447 4.331 Q9.259 6.675 9.259 9.175 Q9.259 11.644 8.447 13.941 Q7.650 16.253 5.931 18.050 L4.384 18.050 Z" style="fill:#333"></path></g></g></g><rect x="87.53" y="282.90" width="117.81" height="54.05" rx="2.00" ry="2.00" style="fill:#ECECFF;stroke:#9370DB;stroke-width:1.50"></rect><text x="146.44" y="309.92" text-anchor="middle" dominant-baseline="central" font-size="16.00" style="fill:#333;font-size:16.00px">Process</text><polygon points="146.44,386.95 195.63,436.14 146.44,485.34 97.24,436.14" style="fill:#ECECFF;stroke:#9370DB;stroke-width:1.50"></polygon><g style="fill:#333" transform="translate(127.24,426.60) scale(1.000)"><g transform="translate(0,-0.169)"><path d="M5.219 14.887 Q3.359 14.887 2.203 13.575 Q1.047 12.247 1.047 9.653 Q1.047 7.059 2.188 5.700 Q3.328 4.325 5.375 4.325 Q6.500 4.325 7.234 4.731 Q8.000 5.106 8.500 5.887 L8.609 5.887 Q8.703 5.559 8.859 5.184 Q9.000 4.794 9.219 4.512 L10.531 4.512 Q10.391 4.934 10.281 5.622 Q10.172 6.309 10.109 7.059 Q10.047 7.825 10.047 8.512 L10.047 12.466 Q10.047 13.044 10.281 13.294 Q10.500 13.528 10.828 13.528 Q10.984 13.528 11.156 13.481 Q11.328 13.450 11.406 13.434 L11.406 14.637 Q11.266 14.716 10.969 14.794 Q10.656 14.887 10.344 14.887 Q9.641 14.887 9.172 14.544 Q8.734 14.200 8.531 13.325 L8.391 13.325 Q7.969 13.981 7.234 14.434 Q6.516 14.887 5.219 14.887 Z M5.516 13.497 Q7.094 13.497 7.734 12.606 Q8.391 11.700 8.391 9.747 L8.391 9.622 Q8.391 7.731 7.766 6.731 Q7.156 5.731 5.484 5.731 Q4.109 5.731 3.438 6.731 Q2.781 7.747 2.781 9.669 Q2.781 11.559 3.422 12.528 Q4.078 13.497 5.516 13.497 Z" style="fill:#333"></path><path d="M13.171 14.012 L13.171 10.106 L9.390 10.106 L9.390 8.747 L13.171 8.747 L13.171 4.825 L14.546 4.825 L14.546 8.747 L18.327 8.747 L18.327 10.106 L14.546 10.106 L14.546 14.012 L13.171 14.012 Z" style="fill:#333"></path><path d="M18.000 19.262 L18.000 4.528 Q18.000 2.997 18.594 2.044 Q19.187 1.075 20.203 0.622 Q21.234 0.169 22.547 0.169 Q23.812 0.169 24.812 0.591 Q25.797 0.981 26.344 1.778 Q26.922 2.575 26.922 3.794 Q26.922 5.169 26.172 5.966 Q25.437 6.762 24.031 6.981 L24.031 7.059 Q25.750 7.247 26.625 8.184 Q27.531 9.106 27.531 10.841 Q27.531 12.794 26.297 13.841 Q25.078 14.887 22.891 14.887 Q21.781 14.887 21.031 14.716 Q20.281 14.544 19.672 14.247 L19.672 19.262 L18.000 19.262 Z M22.734 13.528 Q24.375 13.528 25.109 12.794 Q25.859 12.059 25.859 10.731 Q25.859 9.231 24.937 8.544 Q24.031 7.841 22.547 7.841 L21.547 7.841 L21.547 6.434 L22.359 6.434 Q23.844 6.434 24.516 5.731 Q25.203 5.028 25.203 3.872 Q25.203 2.684 24.469 2.122 Q23.750 1.559 22.516 1.559 Q21.750 1.559 21.109 1.825 Q20.453 2.091 20.062 2.747 Q19.672 3.419 19.672 4.606 L19.672 12.747 Q20.344 13.091 21.047 13.309 Q21.766 13.528 22.734 13.528 Z" style="fill:#333"></path><path d="M25.948 8.200 L25.948 6.856 L34.886 6.856 L34.886 8.200 L25.948 8.200 Z M25.948 11.981 L25.948 10.637 L34.886 10.637 L34.886 11.981 L25.948 11.981 Z" style="fill:#333"></path><path d="M36.199 19.262 Q36.199 18.731 36.308 17.934 Q36.449 17.137 36.652 16.231 Q36.887 15.372 37.168 14.591 L33.043 4.512 L34.777 4.512 L36.918 9.856 Q37.137 10.356 37.340 10.950 Q37.543 11.559 37.715 12.122 Q37.887 12.669 37.949 13.012 L38.027 13.012 Q38.074 12.700 38.230 12.137 Q38.402 11.559 38.590 10.950 Q38.808 10.356 38.949 9.934 L40.965 4.512 L42.699 4.512 L38.933 14.450 Q38.652 15.216 38.433 16.091 Q38.230 16.966 38.121 17.778 Q37.996 18.606 37.996 19.262 L36.199 19.262 Z" style="fill:#333"></path></g></g><rect x="20.00" y="535.34" width="88.48" height="54.05" rx="2.00" ry="2.00" style="fill:#ECECFF;stroke:#9370DB;stroke-width:1.50"></rect><text x="64.24" y="562.36" text-anchor="middle" dominant-baseline="central" font-size="16.00" style="fill:#333;font-size:16.00px">End</text><rect x="158.48" y="535.34" width="140.30" height="54.05" rx="2.00" ry="2.00" style="fill:#ECECFF;stroke:#9370DB;stroke-width:1.50"></rect><text x="228.63" y="562.36" text-anchor="middle" dominant-baseline="central" font-size="16.00" style="fill:#333;font-size:16.00px">Circle Area</text></svg>