<?xml version="1.0" encoding="UTF-8"?>
<svg xmlns="http://www.w3.org/2000/svg" viewBox="0 0 318.78 722.77"><defs><marker id="arrow-arrow-solid" viewBox="0 0 10 10" refX="9.00" refY="5.00" markerWidth="8.00" markerHeight="8.00" orient="auto"><polygon points="0,0 10,5 0,10" style="fill:#333"></polygon></marker></defs><rect x="0.00" y="0.00" width="318.78" height="722.77" style="fill:#fff;stroke:none"></rect><path d="M146.44,74.05 L146.44,124.05" style="stroke:#333;stroke-width:1.5;fill:none" marker-end="url(#arrow-arrow-solid)"></path><path d="M146.44,223.67 L146.44,273.67" style="stroke:#333;stroke-width:1.5;fill:none" marker-end="url(#arrow-arrow-solid)"></path><rect x="136.74" y="223.67" width="19.39" height="27.20" rx="3.00" ry="3.00" style="fill:#fff;stroke:none"></rect><g style="fill:#333" transform="translate(140.74,230.77) scale(1.000)"><path d="M7.312 11.638 C7.312 11.872 7.078 11.919 6.922 11.919 L5.656 11.919 C5.172 11.919 5.172 11.575 5.062 11.169 L2.844 2.684 C2.797 2.497 2.734 2.309 2.703 2.122 L1.922 6.028 L0.406 3.700 L0.344 3.528 L0.531 3.309 L1.375 4.638 C1.406 4.247 1.531 3.872 1.594 3.497 L2.062 1.216 L2.219 0.419 C2.219 0.341 2.219 0.184 2.344 0.169 L2.469 0.169 C2.766 0.169 2.812 0.341 2.891 0.606 L3.438 2.700 L5.578 10.903 C5.609 11.059 5.672 11.200 5.688 11.356 L7.062 11.356 C7.203 11.372 7.312 11.497 7.312 11.638 Z" style="fill:#333"></path><rect x="3.27" y="11.00" width="8.13" height="1.00" style="fill:#333"></rect><path d="M13.520 0.104 L13.520 0.604 C12.660 0.604 12.379 0.635 12.004 1.089 L9.863 3.870 C10.348 4.479 10.957 5.260 11.332 5.667 C11.832 6.245 12.488 6.495 13.238 6.510 L13.238 6.995 C12.816 6.964 12.348 6.948 11.926 6.948 C11.441 6.948 10.598 6.979 10.395 6.995 L10.395 6.510 C10.723 6.479 10.848 6.260 10.848 6.010 C10.848 5.745 10.691 5.542 10.613 5.448 L9.629 4.198 L8.379 5.823 C8.223 5.979 8.223 6.010 8.223 6.104 C8.223 6.339 8.473 6.495 8.785 6.510 L8.785 6.995 L7.066 6.948 C6.723 6.948 5.973 6.964 5.535 6.995 L5.535 6.510 C6.660 6.510 6.676 6.495 7.426 5.526 L9.020 3.464 C8.254 2.510 8.254 2.479 7.504 1.557 C6.738 0.635 5.801 0.604 5.457 0.604 L5.457 0.104 C5.879 0.135 6.379 0.151 6.785 0.151 L8.316 0.104 L8.316 0.604 C7.957 0.651 7.848 0.854 7.848 1.089 C7.848 1.448 8.316 1.979 9.285 3.135 L10.504 1.526 C10.629 1.354 10.832 1.089 10.832 0.995 C10.832 0.854 10.691 0.620 10.254 0.604 L10.254 0.104 L11.988 0.151 C12.426 0.151 13.051 0.135 13.520 0.104 Z" style="fill:#333"></path></g><path d="M146.44,327.72 L146.44,377.72" style="stroke:#333;stroke-width:1.5;fill:none" marker-end="url(#arrow-arrow-solid)"></path><path d="M112.76,565.04 L76.09,648.72" style="stroke:#333;stroke-width:1.5;fill:none" marker-end="url(#arrow-arrow-solid)"></path><rect x="98.97" y="568.38" width="12.73" height="27.20" rx="3.00" ry="3.00" style="fill:#fff;stroke:none"></rect><g style="fill:#333" transform="translate(103.07,572.38) scale(0.960)"><path d="M4.609 12.548 L4.609 12.892 L4.250 12.892 C3.266 12.892 3.234 13.017 3.234 13.423 L3.234 19.595 C3.234 19.845 3.234 19.876 2.984 19.876 C2.297 19.173 1.328 19.173 0.984 19.173 L0.984 18.829 C1.203 18.829 1.844 18.829 2.422 19.110 L2.422 13.423 C2.422 13.017 2.391 12.892 1.391 12.892 L1.047 12.892 L1.047 12.548 C1.438 12.579 2.391 12.579 2.828 12.579 C3.266 12.579 4.219 12.579 4.609 12.548 Z" style="fill:#333"></path><rect x="0.00" y="8.55" width="2.73" height="1.00" style="fill:#333"></rect><path d="M4.938 2.002 L4.656 2.002 C4.609 1.674 4.531 1.190 4.422 1.033 C4.344 0.940 3.625 0.940 3.375 0.940 L1.391 0.940 L2.562 2.080 C4.281 3.596 4.938 4.190 4.938 5.283 C4.938 6.549 3.953 7.424 2.609 7.424 C1.359 7.424 0.547 6.408 0.547 5.424 C0.547 4.815 1.094 4.815 1.141 4.815 C1.312 4.815 1.703 4.940 1.703 5.393 C1.703 5.690 1.500 5.971 1.125 5.971 C1.031 5.971 1.016 5.971 0.984 5.955 C1.234 6.674 1.828 7.080 2.469 7.080 C3.469 7.080 3.938 6.190 3.938 5.283 C3.938 4.408 3.391 3.533 2.781 2.861 L0.672 0.502 C0.547 0.377 0.547 0.361 0.547 0.096 L4.625 0.096 L4.938 2.002 Z" style="fill:#333"></path></g><path d="M180.11,565.04 L216.79,648.72" style="stroke:#333;stroke-width:1.5;fill:none" marker-end="url(#arrow-arrow-solid)"></path><rect x="159.04" y="568.38" width="57.00" height="27.20" rx="3.00" ry="3.00" style="fill:#fff;stroke:none"></rect><text x="187.54" y="581.98" text-anchor="middle" dominant-baseline="central" style="fill:#333;font-size:16.00px">\pi r^2</text><rect x="99.45" y="20.00" width="93.97" height="54.05" rx="2.00" ry="2.00" style="fill:#ECECFF;stroke:#9370DB;stroke-width:1.50"></rect><text x="146.44" y="47.03" text-anchor="middle" dominant-baseline="central" font-size="16.00" style="fill:#333;font-size:16.00px">Start</text><polygon points="146.44,124.05 196.25,173.86 146.44,223.67 96.63,173.86" style="fill:#ECECFF;stroke:#9370DB;stroke-width:1.50"></polygon><g style="fill:#333" transform="translate(128.33,164.26) scale(0.914)"><path d="M5.797 13.227 L5.797 13.571 C5.031 13.571 4.938 13.649 4.938 14.180 L4.938 20.868 L3.359 20.743 L3.359 20.399 C4.125 20.399 4.219 20.321 4.219 19.790 L4.219 17.415 C3.891 17.805 3.422 18.086 2.828 18.086 C1.531 18.086 0.375 17.008 0.375 15.586 C0.375 14.196 1.453 13.102 2.703 13.102 C3.406 13.102 3.906 13.477 4.188 13.836 L4.188 13.102 L5.797 13.227 M4.188 14.524 C4.188 14.321 4.188 14.305 4.062 14.118 C3.734 13.586 3.234 13.352 2.766 13.352 C2.266 13.352 1.875 13.633 1.609 14.055 C1.312 14.508 1.281 15.133 1.281 15.586 C1.281 15.993 1.312 16.649 1.625 17.149 C1.859 17.477 2.281 17.852 2.875 17.852 C3.250 17.852 3.719 17.680 4.062 17.180 C4.188 16.993 4.188 16.977 4.188 16.774 L4.188 14.524 Z" style="fill:#333"></path><path d="M8.713 13.227 L8.713 13.571 C8.119 13.571 7.931 13.586 7.666 13.915 L6.197 15.805 C6.525 16.227 6.947 16.774 7.213 17.055 C7.556 17.446 8.009 17.618 8.525 17.633 L8.525 17.961 C8.228 17.946 7.900 17.930 7.619 17.930 C7.291 17.930 6.697 17.961 6.556 17.961 L6.556 17.633 C6.791 17.602 6.884 17.461 6.884 17.290 C6.884 17.118 6.775 16.961 6.713 16.899 L6.025 16.040 L5.181 17.149 C5.072 17.258 5.072 17.290 5.072 17.352 C5.072 17.524 5.244 17.618 5.463 17.633 L5.463 17.961 L4.275 17.930 C4.041 17.930 3.525 17.946 3.228 17.961 L3.228 17.633 C3.994 17.633 4.009 17.618 4.525 16.961 L5.619 15.540 C5.103 14.883 5.103 14.852 4.588 14.227 C4.056 13.586 3.400 13.571 3.166 13.571 L3.166 13.227 C3.462 13.243 3.806 13.258 4.088 13.258 L5.134 13.227 L5.134 13.571 C4.884 13.602 4.806 13.743 4.806 13.915 C4.806 14.149 5.134 14.508 5.806 15.305 L6.634 14.211 C6.728 14.086 6.869 13.915 6.869 13.836 C6.869 13.743 6.775 13.586 6.478 13.571 L6.478 13.227 L7.666 13.258 C7.963 13.258 8.384 13.243 8.713 13.227 Z" style="fill:#333"></path><rect x="0.00" y="9.11" width="5.93" height="1.00" style="fill:#333"></rect><path d="M5.797 0.338 L5.797 0.681 C5.031 0.681 4.938 0.759 4.938 1.291 L4.938 7.978 L3.359 7.853 L3.359 7.509 C4.125 7.509 4.219 7.431 4.219 6.900 L4.219 4.525 C3.891 4.916 3.422 5.197 2.828 5.197 C1.531 5.197 0.375 4.119 0.375 2.697 C0.375 1.306 1.453 0.213 2.703 0.213 C3.406 0.213 3.906 0.588 4.188 0.947 L4.188 0.213 L5.797 0.338 M4.188 1.634 C4.188 1.431 4.188 1.416 4.062 1.228 C3.734 0.697 3.234 0.463 2.766 0.463 C2.266 0.463 1.875 0.744 1.609 1.166 C1.312 1.619 1.281 2.244 1.281 2.697 C1.281 3.103 1.312 3.759 1.625 4.259 C1.859 4.588 2.281 4.963 2.875 4.963 C3.250 4.963 3.719 4.791 4.062 4.291 C4.188 4.103 4.188 4.088 4.188 3.884 L4.188 1.634 Z" style="fill:#333"></path><path d="M6.697 1.697 L6.697 2.322 L6.416 2.322 L6.416 1.728 C6.416 0.916 6.088 0.494 5.681 0.494 C4.947 0.494 4.947 1.494 4.947 1.681 L4.947 4.744 L6.509 4.744 L6.509 5.072 L4.947 5.072 L4.947 7.103 L4.666 7.103 C4.650 6.197 4.322 5.025 3.244 4.978 L3.244 4.744 L4.181 4.744 L4.181 1.697 C4.181 0.353 5.213 0.213 5.603 0.213 C6.384 0.213 6.697 0.994 6.697 1.697 Z" style="fill:#333"></path><path d="M22.061 12.657 C22.061 12.985 21.764 12.985 21.545 12.985 L11.952 12.985 C11.733 12.985 11.420 12.985 11.420 12.657 C11.420 12.345 11.733 12.345 11.967 12.345 L21.514 12.345 C21.764 12.345 22.061 12.345 22.061 12.657 M22.061 9.564 C22.061 9.876 21.764 9.876 21.514 9.876 L11.967 9.876 C11.733 9.876 11.420 9.876 11.420 9.564 C11.420 9.235 11.733 9.235 11.952 9.235 L21.545 9.235 C21.764 9.235 22.061 9.235 22.061 9.564 Z" style="fill:#333"></path><path d="M24.928 17.267 C24.928 17.860 24.334 18.392 23.475 18.392 C22.366 18.392 21.006 17.548 21.006 15.845 L21.006 14.001 L19.741 14.001 L19.741 13.517 L21.006 13.517 L21.006 8.329 C21.006 7.610 20.819 7.610 19.756 7.610 L19.756 7.110 L21.584 7.157 C22.225 7.157 22.975 7.157 23.616 7.110 L23.616 7.610 L23.272 7.610 C22.084 7.610 22.053 7.782 22.053 8.360 L22.053 13.517 L23.881 13.517 L23.881 14.001 L22.006 14.001 L22.006 15.860 C22.006 17.267 22.772 18.032 23.475 18.032 C23.522 18.032 23.772 18.032 24.006 17.923 C23.819 17.860 23.522 17.657 23.522 17.251 C23.522 16.892 23.787 16.564 24.225 16.564 C24.678 16.564 24.928 16.892 24.928 17.267 Z" style="fill:#333"></path><path d="M26.897 3.267 C26.897 3.314 26.897 3.345 26.631 3.626 C24.631 5.642 24.116 8.657 24.116 11.110 C24.116 13.892 24.725 16.673 26.694 18.673 C26.897 18.876 26.897 18.907 26.897 18.954 C26.897 19.064 26.834 19.110 26.741 19.110 C26.569 19.110 25.131 18.017 24.194 15.985 C23.381 14.235 23.178 12.454 23.178 11.110 C23.178 9.860 23.366 7.923 24.241 6.126 C25.194 4.157 26.569 3.110 26.741 3.110 C26.834 3.110 26.897 3.157 26.897 3.267 Z" style="fill:#333"></path><path d="M32.889 7.110 L32.889 7.610 C32.030 7.610 31.748 7.642 31.373 8.095 L29.233 10.876 C29.717 11.485 30.327 12.267 30.702 12.673 C31.202 13.251 31.858 13.501 32.608 13.517 L32.608 14.001 C32.186 13.970 31.717 13.954 31.295 13.954 C30.811 13.954 29.967 13.985 29.764 14.001 L29.764 13.517 C30.092 13.485 30.217 13.267 30.217 13.017 C30.217 12.751 30.061 12.548 29.983 12.454 L28.998 11.204 L27.748 12.829 C27.592 12.985 27.592 13.017 27.592 13.110 C27.592 13.345 27.842 13.501 28.155 13.517 L28.155 14.001 L26.436 13.954 C26.092 13.954 25.342 13.970 24.905 14.001 L24.905 13.517 C26.030 13.517 26.045 13.501 26.795 12.532 L28.389 10.470 C27.623 9.517 27.623 9.485 26.873 8.564 C26.108 7.642 25.170 7.610 24.827 7.610 L24.827 7.110 C25.248 7.142 25.748 7.157 26.155 7.157 L27.686 7.110 L27.686 7.610 C27.327 7.657 27.217 7.860 27.217 8.095 C27.217 8.454 27.686 8.985 28.655 10.142 L29.873 8.532 C29.998 8.360 30.202 8.095 30.202 8.001 C30.202 7.860 30.061 7.626 29.623 7.610 L29.623 7.110 L31.358 7.157 C31.795 7.157 32.420 7.142 32.889 7.110 Z" style="fill:#333"></path><path d="M32.014 7.126 C32.014 8.157 31.623 8.814 30.983 8.814 C30.420 8.814 30.139 8.376 30.139 7.954 C30.139 7.548 30.405 7.110 30.983 7.110 C31.233 7.110 31.452 7.204 31.623 7.360 C31.655 6.095 31.217 5.126 30.514 4.376 C30.405 4.282 30.389 4.267 30.389 4.204 C30.389 4.079 30.483 4.017 30.561 4.017 C30.748 4.017 32.014 5.282 32.014 7.126 Z" style="fill:#333"></path><path d="M38.850 9.095 L38.850 10.001 L38.444 10.001 L38.444 9.126 C38.444 7.939 37.975 7.329 37.381 7.329 C36.303 7.329 36.303 8.798 36.303 9.064 L36.303 13.517 L38.600 13.517 L38.600 14.001 L36.303 14.001 L36.303 16.954 L35.912 16.954 C35.897 15.642 35.412 13.923 33.834 13.860 L33.834 13.517 L35.194 13.517 L35.194 9.095 C35.194 7.126 36.694 6.939 37.272 6.939 C38.397 6.939 38.850 8.064 38.850 9.095 Z" style="fill:#333"></path><path d="M41.202 11.110 C41.202 12.360 41.030 14.298 40.139 16.095 C39.186 18.064 37.811 19.110 37.655 19.110 C37.545 19.110 37.483 19.048 37.483 18.954 C37.483 18.907 37.483 18.876 37.795 18.579 C39.358 17.001 40.280 14.454 40.280 11.110 C40.280 8.376 39.686 5.564 37.702 3.548 C37.483 3.345 37.483 3.314 37.483 3.267 C37.483 3.173 37.545 3.110 37.655 3.110 C37.811 3.110 39.248 4.204 40.186 6.235 C41.014 7.985 41.202 9.767 41.202 11.110 Z" style="fill:#333"></path></g><rect x="87.53" y="273.67" width="117.81" height="54.05" rx="2.00" ry="2.00" style="fill:#ECECFF;stroke:#9370DB;stroke-width:1.50"></rect><text x="146.44" y="300.69" text-anchor="middle" dominant-baseline="central" font-size="16.00" style="fill:#333;font-size:16.00px">Process</text><polygon points="146.44,377.72 256.94,488.22 146.44,598.72 35.94,488.22" style="fill:#ECECFF;stroke:#9370DB;stroke-width:1.50"></polygon><text x="146.44" y="488.22" text-anchor="middle" dominant-baseline="central" style="fill:#333;font-size:16.00px">\alpha + \beta = \gamma</text><rect x="20.00" y="648.72" width="88.48" height="54.05" rx="2.00" ry="2.00" style="fill:#ECECFF;stroke:#9370DB;stroke-width:1.50"></rect><text x="64.24" y="675.74" text-anchor="middle" dominant-baseline="central" font-size="16.00" style="fill:#333;font-size:16.00px">End</text><rect x="158.48" y="648.72" width="140.30" height="54.05" rx="2.00" ry="2.00" style="fill:#ECECFF;stroke:#9370DB;stroke-width:1.50"></rect><text x="228.63" y="675.74" text-anchor="middle" dominant-baseline="central" font-size="16.00" style="fill:#333;font-size:16.00px">Circle Area</text></svg>