<?xml version="1.0" encoding="UTF-8"?>
<svg xmlns="http://www.w3.org/2000/svg" viewBox="0 0 318.78 653.97"><defs><marker id="arrow-arrow-solid" viewBox="0 0 10 10" refX="9.00" refY="5.00" markerWidth="8.00" markerHeight="8.00" orient="auto"><polygon points="0,0 10,5 0,10" style="fill:#333"></polygon></marker></defs><rect x="0.00" y="0.00" width="318.78" height="653.97" style="fill:#fff;stroke:none"></rect><path d="M146.44,74.05 L146.44,124.05" style="stroke:#333;stroke-width:1.5;fill:none" marker-end="url(#arrow-arrow-solid)"></path><path d="M146.44,255.89 L146.44,305.89" style="stroke:#333;stroke-width:1.5;fill:none" marker-end="url(#arrow-arrow-solid)"></path><rect x="129.43" y="247.84" width="34.02" height="27.20" rx="3.00" ry="3.00" style="fill:#fff;stroke:none"></rect><g style="fill:#333" transform="translate(133.43,253.29) scale(1.000)"><g transform="translate(0,-1.200)"><path d="M4.109 17.452 L2.078 11.749 L0.766 11.749 L0.766 10.702 L2.906 10.702 L4.609 15.640 L9.578 1.593 L10.656 1.593 L5.078 17.452 L4.109 17.452 Z" style="fill:#333"></path><rect x="9.16" y="1.20" width="15.19" height="1.20" style="fill:#333"></rect><path d="M13.489 17.500 L17.176 12.297 L13.660 7.312 L15.551 7.312 L18.176 11.156 L20.785 7.312 L22.660 7.312 L19.145 12.297 L22.848 17.500 L20.957 17.500 L18.176 13.438 L15.364 17.500 L13.489 17.500 Z" style="fill:#333"></path></g></g><path d="M146.44,359.94 L146.44,409.94" style="stroke:#333;stroke-width:1.5;fill:none" marker-end="url(#arrow-arrow-solid)"></path><path d="M123.94,507.43 L80.45,579.92" style="stroke:#333;stroke-width:1.5;fill:none" marker-end="url(#arrow-arrow-solid)"></path><rect x="95.96" y="521.93" width="18.77" height="33.01" rx="3.00" ry="3.00" style="fill:#fff;stroke:none"></rect><g style="fill:#333" transform="translate(99.96,525.93) scale(1.000)"><g transform="translate(0,-0.309)"><path d="M3.500 9.590 L3.500 3.106 Q3.500 2.543 3.516 2.199 Q3.516 1.871 3.547 1.496 Q3.344 1.699 3.172 1.856 Q3.000 1.996 2.750 2.215 L1.750 3.027 L1.156 2.262 L3.672 0.309 L4.609 0.309 L4.609 9.590 L3.500 9.590 Z" style="fill:#333"></path><rect x="-1.50" y="13.19" width="9.77" height="1.20" style="fill:#333"></rect><path d="M0.625 25.320 L0.625 24.367 L3.062 21.914 Q3.750 21.211 4.234 20.664 Q4.719 20.117 4.969 19.601 Q5.219 19.070 5.219 18.445 Q5.219 17.679 4.766 17.289 Q4.297 16.882 3.578 16.882 Q2.906 16.882 2.375 17.117 Q1.875 17.351 1.344 17.773 L0.734 17.007 Q1.281 16.539 1.969 16.226 Q2.688 15.914 3.578 15.914 Q4.875 15.914 5.625 16.570 Q6.391 17.226 6.391 18.382 Q6.391 19.101 6.078 19.742 Q5.781 20.367 5.250 20.992 Q4.719 21.617 4.000 22.320 L2.062 24.226 L2.062 24.273 L6.766 24.273 L6.766 25.320 L0.625 25.320 Z" style="fill:#333"></path></g></g><path d="M168.93,507.43 L212.42,579.92" style="stroke:#333;stroke-width:1.5;fill:none" marker-end="url(#arrow-arrow-solid)"></path><rect x="171.46" y="524.84" width="32.16" height="27.20" rx="3.00" ry="3.00" style="fill:#fff;stroke:none"></rect><g style="fill:#333" transform="translate(175.46,529.90) scale(1.000)"><g transform="translate(0.000,0)"><g transform="translate(0,-0.100)"><path d="M10.375 10.662 Q8.266 10.662 8.266 8.241 L8.266 1.678 L3.953 1.678 L3.953 10.475 L2.297 10.475 L2.297 1.678 L0.234 1.678 L0.234 0.959 L1.594 0.287 L11.906 0.287 L11.906 1.678 L9.922 1.678 L9.922 8.116 Q9.922 8.787 10.172 9.053 Q10.406 9.303 10.797 9.303 Q11.062 9.303 11.266 9.241 Q11.500 9.178 11.625 9.100 L11.625 10.412 Q11.469 10.491 11.141 10.569 Q10.812 10.662 10.375 10.662 Z" style="fill:#333"></path><path d="M12.421 10.475 L12.421 0.287 L13.796 0.287 L13.984 2.147 L14.062 2.147 Q14.562 1.319 15.327 0.709 Q16.109 0.100 17.171 0.100 Q17.468 0.100 17.780 0.131 Q18.124 0.162 18.374 0.209 L18.171 1.756 Q17.921 1.694 17.609 1.662 Q17.327 1.616 17.062 1.616 Q16.280 1.616 15.593 2.053 Q14.921 2.475 14.499 3.256 Q14.093 4.022 14.093 5.037 L14.093 10.475 L12.421 10.475 Z" style="fill:#333"></path></g></g><g transform="translate(17.588,-7.680)"><g transform="translate(0,-0.324)"><path d="M0.625 9.730 L0.625 8.777 L3.062 6.324 Q3.750 5.621 4.234 5.074 Q4.719 4.527 4.969 4.011 Q5.219 3.480 5.219 2.855 Q5.219 2.089 4.766 1.699 Q4.297 1.292 3.578 1.292 Q2.906 1.292 2.375 1.527 Q1.875 1.761 1.344 2.183 L0.734 1.417 Q1.281 0.949 1.969 0.636 Q2.688 0.324 3.578 0.324 Q4.875 0.324 5.625 0.980 Q6.391 1.636 6.391 2.792 Q6.391 3.511 6.078 4.152 Q5.781 4.777 5.250 5.402 Q4.719 6.027 4.000 6.730 L2.062 8.636 L2.062 8.683 L6.766 8.683 L6.766 9.730 L0.625 9.730 Z" style="fill:#333"></path></g></g></g><rect x="99.45" y="20.00" width="93.97" height="54.05" rx="2.00" ry="2.00" style="fill:#ECECFF;stroke:#9370DB;stroke-width:1.50"></rect><text x="146.44" y="47.03" text-anchor="middle" dominant-baseline="central" font-size="16.00" style="fill:#333;font-size:16.00px">Start</text><polygon points="146.44,124.05 212.36,189.97 146.44,255.89 80.52,189.97" style="fill:#ECECFF;stroke:#9370DB;stroke-width:1.50"></polygon><g style="fill:#333" transform="translate(110.52,176.79) scale(1.000)"><g transform="translate(0.000,0)"><g transform="translate(0,-0.345)"><path d="M3.578 10.345 Q2.281 10.345 1.500 9.454 Q0.719 8.548 0.719 6.751 Q0.719 4.954 1.500 4.048 Q2.281 3.126 3.594 3.126 Q4.391 3.126 4.906 3.423 Q5.422 3.720 5.750 4.142 L5.828 4.142 Q5.812 3.986 5.766 3.657 Q5.750 3.314 5.750 3.126 L5.750 0.345 L6.891 0.345 L6.891 10.220 L5.969 10.220 L5.797 9.282 L5.750 9.282 Q5.438 9.720 4.906 10.032 Q4.391 10.345 3.578 10.345 Z M3.750 9.407 Q4.859 9.407 5.297 8.798 Q5.766 8.189 5.766 6.970 L5.766 6.767 Q5.766 5.454 5.328 4.767 Q4.906 4.064 3.750 4.064 Q2.828 4.064 2.359 4.814 Q1.891 5.532 1.891 6.782 Q1.891 8.017 2.359 8.704 Q2.828 9.407 3.750 9.407 Z" style="fill:#333"></path><path d="M7.297 10.220 L9.813 6.657 L7.407 3.251 L8.719 3.251 L10.500 5.876 L12.282 3.251 L13.579 3.251 L11.172 6.657 L13.704 10.220 L12.407 10.220 L10.500 7.439 L8.579 10.220 L7.297 10.220 Z" style="fill:#333"></path><rect x="-1.50" y="13.96" width="16.70" height="1.20" style="fill:#333"></rect><path d="M5.328 26.705 Q4.031 26.705 3.250 25.814 Q2.469 24.908 2.469 23.111 Q2.469 21.314 3.250 20.408 Q4.031 19.486 5.344 19.486 Q6.141 19.486 6.656 19.783 Q7.172 20.080 7.500 20.502 L7.578 20.502 Q7.562 20.346 7.516 20.017 Q7.500 19.674 7.500 19.486 L7.500 16.705 L8.641 16.705 L8.641 26.580 L7.719 26.580 L7.547 25.642 L7.500 25.642 Q7.188 26.080 6.656 26.392 Q6.141 26.705 5.328 26.705 Z M5.500 25.767 Q6.609 25.767 7.047 25.158 Q7.516 24.549 7.516 23.330 L7.516 23.127 Q7.516 21.814 7.078 21.127 Q6.656 20.424 5.500 20.424 Q4.578 20.424 4.109 21.174 Q3.641 21.892 3.641 23.142 Q3.641 24.377 4.109 25.064 Q4.578 25.767 5.500 25.767 Z" style="fill:#333"></path><path d="M12.047 26.705 Q11.500 26.705 11.032 26.533 Q10.579 26.330 10.297 25.861 Q10.016 25.392 10.016 24.549 L10.016 20.502 L9.016 20.502 L9.016 19.955 L10.016 19.502 L10.469 18.017 L11.157 18.017 L11.157 19.611 L13.172 19.611 L13.172 20.502 L11.157 20.502 L11.157 24.533 Q11.157 25.158 11.454 25.471 Q11.766 25.767 12.250 25.767 Q12.500 25.767 12.782 25.736 Q13.047 25.689 13.219 25.627 L13.219 26.502 Q13.032 26.596 12.704 26.642 Q12.360 26.705 12.047 26.705 Z" style="fill:#333"></path><path d="M21.375 11.597 L21.375 10.254 L30.312 10.254 L30.312 11.597 L21.375 11.597 Z M21.375 15.379 L21.375 14.035 L30.312 14.035 L30.312 15.379 L21.375 15.379 Z" style="fill:#333"></path><path d="M34.937 18.097 L34.937 9.207 L33.140 9.207 L33.140 8.426 L34.937 7.863 L34.937 7.269 Q34.937 5.285 35.796 4.441 Q36.671 3.566 38.233 3.566 Q38.843 3.566 39.343 3.676 Q39.843 3.769 40.218 3.910 L39.780 5.222 Q39.468 5.113 39.077 5.019 Q38.671 4.926 38.249 4.926 Q37.421 4.926 36.999 5.504 Q36.608 6.051 36.608 7.254 L36.608 7.910 L39.171 7.910 L39.171 9.207 L36.608 9.207 L36.608 18.097 L34.937 18.097 Z" style="fill:#333"></path><path d="M42.580 21.097 Q40.877 19.301 40.065 16.988 Q39.268 14.691 39.268 12.222 Q39.268 9.722 40.065 7.379 Q40.877 5.051 42.580 3.207 L44.158 3.207 Q42.565 5.113 41.752 7.457 Q40.955 9.769 40.955 12.207 Q40.955 14.597 41.768 16.894 Q42.580 19.176 44.143 21.097 L42.580 21.097 Z" style="fill:#333"></path><path d="M44.227 18.097 L47.915 12.894 L44.399 7.910 L46.290 7.910 L48.915 11.754 L51.524 7.910 L53.399 7.910 L49.883 12.894 L53.587 18.097 L51.696 18.097 L48.915 14.035 L46.102 18.097 L44.227 18.097 Z" style="fill:#333"></path></g></g><g transform="translate(52.562,16.320)"><path d="M0.781 2.453 Q1.047 1.375 1.312 0.078 Q1.594 -1.219 1.734 -2.203 L3.516 -2.203 L3.641 -2.000 Q3.406 -0.984 2.922 0.203 Q2.469 1.422 2.016 2.453 L0.781 2.453 Z" style="fill:#333"></path></g><g transform="translate(60.536,0)"><g transform="translate(0,-0.159)"><path d="M4.734 15.237 Q3.938 15.237 3.250 14.972 Q2.578 14.691 2.172 14.003 Q1.750 13.316 1.750 12.081 L1.750 6.159 L0.297 6.159 L0.297 5.362 L1.766 4.691 L2.438 2.534 L3.422 2.534 L3.422 4.862 L6.359 4.862 L6.359 6.159 L3.422 6.159 L3.422 12.050 Q3.422 12.972 3.859 13.441 Q4.312 13.878 5.016 13.878 Q5.391 13.878 5.797 13.816 Q6.188 13.737 6.438 13.659 L6.438 14.941 Q6.172 15.066 5.688 15.144 Q5.188 15.237 4.734 15.237 Z" style="fill:#333"></path><path d="M6.516 18.050 Q8.095 16.128 8.891 13.847 Q9.704 11.550 9.704 9.159 Q9.704 6.722 8.891 4.409 Q8.095 2.066 6.485 0.159 L8.063 0.159 Q9.782 2.003 10.579 4.331 Q11.391 6.675 11.391 9.175 Q11.391 11.644 10.579 13.941 Q9.782 16.253 8.063 18.050 L6.516 18.050 Z" style="fill:#333"></path></g></g></g><rect x="87.53" y="305.89" width="117.81" height="54.05" rx="2.00" ry="2.00" style="fill:#ECECFF;stroke:#9370DB;stroke-width:1.50"></rect><text x="146.44" y="332.92" text-anchor="middle" dominant-baseline="central" font-size="16.00" style="fill:#333;font-size:16.00px">Process</text><polygon points="146.44,409.94 206.43,469.93 146.44,529.92 86.45,469.93" style="fill:#ECECFF;stroke:#9370DB;stroke-width:1.50"></polygon><g style="fill:#333" transform="translate(116.45,460.38) scale(1.000)"><g transform="translate(0,-0.169)"><path d="M5.219 14.887 Q3.359 14.887 2.203 13.575 Q1.047 12.247 1.047 9.653 Q1.047 7.059 2.188 5.700 Q3.328 4.325 5.375 4.325 Q6.500 4.325 7.234 4.731 Q8.000 5.106 8.500 5.887 L8.609 5.887 Q8.703 5.559 8.859 5.184 Q9.000 4.794 9.219 4.512 L10.531 4.512 Q10.391 4.934 10.281 5.622 Q10.172 6.309 10.109 7.059 Q10.047 7.825 10.047 8.512 L10.047 12.466 Q10.047 13.044 10.281 13.294 Q10.500 13.528 10.828 13.528 Q10.984 13.528 11.156 13.481 Q11.328 13.450 11.406 13.434 L11.406 14.637 Q11.266 14.716 10.969 14.794 Q10.656 14.887 10.344 14.887 Q9.641 14.887 9.172 14.544 Q8.734 14.200 8.531 13.325 L8.391 13.325 Q7.969 13.981 7.234 14.434 Q6.516 14.887 5.219 14.887 Z M5.516 13.497 Q7.094 13.497 7.734 12.606 Q8.391 11.700 8.391 9.747 L8.391 9.622 Q8.391 7.731 7.766 6.731 Q7.156 5.731 5.484 5.731 Q4.109 5.731 3.438 6.731 Q2.781 7.747 2.781 9.669 Q2.781 11.559 3.422 12.528 Q4.078 13.497 5.516 13.497 Z" style="fill:#333"></path><path d="M17.908 14.012 L17.908 10.106 L14.127 10.106 L14.127 8.747 L17.908 8.747 L17.908 4.825 L19.283 4.825 L19.283 8.747 L23.064 8.747 L23.064 10.106 L19.283 10.106 L19.283 14.012 L17.908 14.012 Z" style="fill:#333"></path><path d="M27.220 19.262 L27.220 4.528 Q27.220 2.997 27.813 2.044 Q28.407 1.075 29.423 0.622 Q30.454 0.169 31.766 0.169 Q33.032 0.169 34.032 0.591 Q35.016 0.981 35.563 1.778 Q36.141 2.575 36.141 3.794 Q36.141 5.169 35.391 5.966 Q34.657 6.762 33.251 6.981 L33.251 7.059 Q34.970 7.247 35.845 8.184 Q36.751 9.106 36.751 10.841 Q36.751 12.794 35.516 13.841 Q34.298 14.887 32.110 14.887 Q31.001 14.887 30.251 14.716 Q29.501 14.544 28.891 14.247 L28.891 19.262 L27.220 19.262 Z M31.954 13.528 Q33.595 13.528 34.329 12.794 Q35.079 12.059 35.079 10.731 Q35.079 9.231 34.157 8.544 Q33.251 7.841 31.766 7.841 L30.766 7.841 L30.766 6.434 L31.579 6.434 Q33.063 6.434 33.735 5.731 Q34.423 5.028 34.423 3.872 Q34.423 2.684 33.688 2.122 Q32.970 1.559 31.735 1.559 Q30.970 1.559 30.329 1.825 Q29.673 2.091 29.282 2.747 Q28.891 3.419 28.891 4.606 L28.891 12.747 Q29.563 13.091 30.266 13.309 Q30.985 13.528 31.954 13.528 Z" style="fill:#333"></path><path d="M39.999 8.200 L39.999 6.856 L48.937 6.856 L48.937 8.200 L39.999 8.200 Z M39.999 11.981 L39.999 10.637 L48.937 10.637 L48.937 11.981 L39.999 11.981 Z" style="fill:#333"></path><path d="M54.733 19.262 Q54.733 18.731 54.842 17.934 Q54.983 17.137 55.186 16.231 Q55.420 15.372 55.702 14.591 L51.577 4.512 L53.311 4.512 L55.452 9.856 Q55.670 10.356 55.873 10.950 Q56.077 11.559 56.248 12.122 Q56.420 12.669 56.483 13.012 L56.561 13.012 Q56.608 12.700 56.764 12.137 Q56.936 11.559 57.123 10.950 Q57.342 10.356 57.483 9.934 L59.498 4.512 L61.233 4.512 L57.467 14.450 Q57.186 15.216 56.967 16.091 Q56.764 16.966 56.655 17.778 Q56.530 18.606 56.530 19.262 L54.733 19.262 Z" style="fill:#333"></path></g></g><rect x="20.00" y="579.92" width="88.48" height="54.05" rx="2.00" ry="2.00" style="fill:#ECECFF;stroke:#9370DB;stroke-width:1.50"></rect><text x="64.24" y="606.95" text-anchor="middle" dominant-baseline="central" font-size="16.00" style="fill:#333;font-size:16.00px">End</text><rect x="158.48" y="579.92" width="140.30" height="54.05" rx="2.00" ry="2.00" style="fill:#ECECFF;stroke:#9370DB;stroke-width:1.50"></rect><text x="228.63" y="606.95" text-anchor="middle" dominant-baseline="central" font-size="16.00" style="fill:#333;font-size:16.00px">Circle Area</text></svg>