<?xml version="1.0" encoding="UTF-8"?>
<svg xmlns="http://www.w3.org/2000/svg" viewBox="0 0 318.78 639.82"><defs><marker id="arrow-arrow-solid" viewBox="0 0 10 10" refX="9.00" refY="5.00" markerWidth="8.00" markerHeight="8.00" orient="auto"><polygon points="0,0 10,5 0,10" style="fill:#333"></polygon></marker></defs><rect x="0.00" y="0.00" width="318.78" height="639.82" style="fill:#fff;stroke:none"></rect><path d="M146.44,74.05 L146.44,124.05" style="stroke:#333;stroke-width:1.5;fill:none" marker-end="url(#arrow-arrow-solid)"></path><path d="M146.44,248.59 L146.44,298.59" style="stroke:#333;stroke-width:1.5;fill:none" marker-end="url(#arrow-arrow-solid)"></path><rect x="130.91" y="242.37" width="31.05" height="27.20" rx="3.00" ry="3.00" style="fill:#fff;stroke:none"></rect><g style="fill:#333" transform="translate(134.91,243.69) scale(1.000)"><g transform="translate(0,-1.200)"><path d="M4.109 17.452 L2.078 11.749 L0.766 11.749 L0.766 10.702 L2.906 10.702 L4.609 15.640 L9.578 1.593 L10.656 1.593 L5.078 17.452 L4.109 17.452 Z" style="fill:#333"></path><rect x="6.42" y="1.20" width="18.13" height="1.20" style="fill:#333"></rect><path d="M11.986 17.500 L15.674 12.297 L12.158 7.312 L14.049 7.312 L16.674 11.156 L19.283 7.312 L21.158 7.312 L17.643 12.297 L21.346 17.500 L19.455 17.500 L16.674 13.438 L13.861 17.500 L11.986 17.500 Z" style="fill:#333"></path></g></g><path d="M146.44,352.64 L146.44,402.64" style="stroke:#333;stroke-width:1.5;fill:none" marker-end="url(#arrow-arrow-solid)"></path><path d="M124.89,494.22 L80.87,565.77" style="stroke:#333;stroke-width:1.5;fill:none" marker-end="url(#arrow-arrow-solid)"></path><rect x="96.57" y="509.49" width="17.54" height="33.01" rx="3.00" ry="3.00" style="fill:#fff;stroke:none"></rect><g style="fill:#333" transform="translate(100.57,512.85) scale(1.000)"><g transform="translate(0,-0.309)"><path d="M3.500 9.590 L3.500 3.106 Q3.500 2.543 3.516 2.199 Q3.516 1.871 3.547 1.496 Q3.344 1.699 3.172 1.856 Q3.000 1.996 2.750 2.215 L1.750 3.027 L1.156 2.262 L3.672 0.309 L4.609 0.309 L4.609 9.590 L3.500 9.590 Z" style="fill:#333"></path><rect x="-1.50" y="13.19" width="8.82" height="1.20" style="fill:#333"></rect><path d="M0.625 25.320 L0.625 24.367 L3.062 21.914 Q3.750 21.211 4.234 20.664 Q4.719 20.117 4.969 19.601 Q5.219 19.070 5.219 18.445 Q5.219 17.679 4.766 17.289 Q4.297 16.882 3.578 16.882 Q2.906 16.882 2.375 17.117 Q1.875 17.351 1.344 17.773 L0.734 17.007 Q1.281 16.539 1.969 16.226 Q2.688 15.914 3.578 15.914 Q4.875 15.914 5.625 16.570 Q6.391 17.226 6.391 18.382 Q6.391 19.101 6.078 19.742 Q5.781 20.367 5.250 20.992 Q4.719 21.617 4.000 22.320 L2.062 24.226 L2.062 24.273 L6.766 24.273 L6.766 25.320 L0.625 25.320 Z" style="fill:#333"></path></g></g><path d="M167.98,494.22 L212.00,565.77" style="stroke:#333;stroke-width:1.5;fill:none" marker-end="url(#arrow-arrow-solid)"></path><rect x="172.84" y="512.40" width="29.40" height="27.20" rx="3.00" ry="3.00" style="fill:#fff;stroke:none"></rect><g style="fill:#333" transform="translate(176.84,519.62) scale(1.000)"><g transform="translate(0.000,0)"><g transform="translate(0,-0.100)"><path d="M10.375 10.662 Q8.266 10.662 8.266 8.241 L8.266 1.678 L3.953 1.678 L3.953 10.475 L2.297 10.475 L2.297 1.678 L0.234 1.678 L0.234 0.959 L1.594 0.287 L11.906 0.287 L11.906 1.678 L9.922 1.678 L9.922 8.116 Q9.922 8.787 10.172 9.053 Q10.406 9.303 10.797 9.303 Q11.062 9.303 11.266 9.241 Q11.500 9.178 11.625 9.100 L11.625 10.412 Q11.469 10.491 11.141 10.569 Q10.812 10.662 10.375 10.662 Z" style="fill:#333"></path><path d="M11.185 10.475 L11.185 0.287 L12.560 0.287 L12.748 2.147 L12.826 2.147 Q13.326 1.319 14.092 0.709 Q14.873 0.100 15.935 0.100 Q16.232 0.100 16.545 0.131 Q16.889 0.162 17.139 0.209 L16.935 1.756 Q16.685 1.694 16.373 1.662 Q16.092 1.616 15.826 1.616 Q15.045 1.616 14.357 2.053 Q13.685 2.475 13.264 3.256 Q12.857 4.022 12.857 5.037 L12.857 10.475 L11.185 10.475 Z" style="fill:#333"></path></g></g><g transform="translate(15.578,-7.680)"><g transform="translate(0,-0.324)"><path d="M0.625 9.730 L0.625 8.777 L3.062 6.324 Q3.750 5.621 4.234 5.074 Q4.719 4.527 4.969 4.011 Q5.219 3.480 5.219 2.855 Q5.219 2.089 4.766 1.699 Q4.297 1.292 3.578 1.292 Q2.906 1.292 2.375 1.527 Q1.875 1.761 1.344 2.183 L0.734 1.417 Q1.281 0.949 1.969 0.636 Q2.688 0.324 3.578 0.324 Q4.875 0.324 5.625 0.980 Q6.391 1.636 6.391 2.792 Q6.391 3.511 6.078 4.152 Q5.781 4.777 5.250 5.402 Q4.719 6.027 4.000 6.730 L2.062 8.636 L2.062 8.683 L6.766 8.683 L6.766 9.730 L0.625 9.730 Z" style="fill:#333"></path></g></g></g><rect x="99.45" y="20.00" width="93.97" height="54.05" rx="2.00" ry="2.00" style="fill:#ECECFF;stroke:#9370DB;stroke-width:1.50"></rect><text x="146.44" y="47.03" text-anchor="middle" dominant-baseline="central" font-size="16.00" style="fill:#333;font-size:16.00px">Start</text><polygon points="146.44,124.05 208.71,186.32 146.44,248.59 84.17,186.32" style="fill:#ECECFF;stroke:#9370DB;stroke-width:1.50"></polygon><g style="fill:#333" transform="translate(114.17,172.57) scale(1.000)"><g transform="translate(0.000,0)"><g transform="translate(0,-0.345)"><path d="M3.578 10.345 Q2.281 10.345 1.500 9.454 Q0.719 8.548 0.719 6.751 Q0.719 4.954 1.500 4.048 Q2.281 3.126 3.594 3.126 Q4.391 3.126 4.906 3.423 Q5.422 3.720 5.750 4.142 L5.828 4.142 Q5.812 3.986 5.766 3.657 Q5.750 3.314 5.750 3.126 L5.750 0.345 L6.891 0.345 L6.891 10.220 L5.969 10.220 L5.797 9.282 L5.750 9.282 Q5.438 9.720 4.906 10.032 Q4.391 10.345 3.578 10.345 Z M3.750 9.407 Q4.859 9.407 5.297 8.798 Q5.766 8.189 5.766 6.970 L5.766 6.767 Q5.766 5.454 5.328 4.767 Q4.906 4.064 3.750 4.064 Q2.828 4.064 2.359 4.814 Q1.891 5.532 1.891 6.782 Q1.891 8.017 2.359 8.704 Q2.828 9.407 3.750 9.407 Z" style="fill:#333"></path><path d="M6.490 10.220 L9.006 6.657 L6.599 3.251 L7.912 3.251 L9.693 5.876 L11.474 3.251 L12.771 3.251 L10.365 6.657 L12.896 10.220 L11.599 10.220 L9.693 7.439 L7.771 10.220 L6.490 10.220 Z" style="fill:#333"></path><rect x="-1.50" y="13.96" width="14.64" height="1.20" style="fill:#333"></rect><path d="M5.128 26.705 Q3.831 26.705 3.050 25.814 Q2.269 24.908 2.269 23.111 Q2.269 21.314 3.050 20.408 Q3.831 19.486 5.144 19.486 Q5.941 19.486 6.456 19.783 Q6.972 20.080 7.300 20.502 L7.378 20.502 Q7.362 20.346 7.316 20.017 Q7.300 19.674 7.300 19.486 L7.300 16.705 L8.441 16.705 L8.441 26.580 L7.519 26.580 L7.347 25.642 L7.300 25.642 Q6.987 26.080 6.456 26.392 Q5.941 26.705 5.128 26.705 Z M5.300 25.767 Q6.409 25.767 6.847 25.158 Q7.316 24.549 7.316 23.330 L7.316 23.127 Q7.316 21.814 6.878 21.127 Q6.456 20.424 5.300 20.424 Q4.378 20.424 3.909 21.174 Q3.441 21.892 3.441 23.142 Q3.441 24.377 3.909 25.064 Q4.378 25.767 5.300 25.767 Z" style="fill:#333"></path><path d="M11.040 26.705 Q10.493 26.705 10.024 26.533 Q9.571 26.330 9.290 25.861 Q9.009 25.392 9.009 24.549 L9.009 20.502 L8.009 20.502 L8.009 19.955 L9.009 19.502 L9.462 18.017 L10.149 18.017 L10.149 19.611 L12.165 19.611 L12.165 20.502 L10.149 20.502 L10.149 24.533 Q10.149 25.158 10.446 25.471 Q10.759 25.767 11.243 25.767 Q11.493 25.767 11.774 25.736 Q12.040 25.689 12.212 25.627 L12.212 26.502 Q12.024 26.596 11.696 26.642 Q11.353 26.705 11.040 26.705 Z" style="fill:#333"></path><path d="M19.043 11.597 L19.043 10.254 L27.980 10.254 L27.980 11.597 L19.043 11.597 Z M19.043 15.379 L19.043 14.035 L27.980 14.035 L27.980 15.379 L19.043 15.379 Z" style="fill:#333"></path><path d="M31.181 18.097 L31.181 9.207 L29.384 9.207 L29.384 8.426 L31.181 7.863 L31.181 7.269 Q31.181 5.285 32.041 4.441 Q32.916 3.566 34.478 3.566 Q35.088 3.566 35.588 3.676 Q36.088 3.769 36.463 3.910 L36.025 5.222 Q35.713 5.113 35.322 5.019 Q34.916 4.926 34.494 4.926 Q33.666 4.926 33.244 5.504 Q32.853 6.051 32.853 7.254 L32.853 7.910 L35.416 7.910 L35.416 9.207 L32.853 9.207 L32.853 18.097 L31.181 18.097 Z" style="fill:#333"></path><path d="M38.180 21.097 Q36.477 19.301 35.664 16.988 Q34.868 14.691 34.868 12.222 Q34.868 9.722 35.664 7.379 Q36.477 5.051 38.180 3.207 L39.758 3.207 Q38.164 5.113 37.352 7.457 Q36.555 9.769 36.555 12.207 Q36.555 14.597 37.368 16.894 Q38.180 19.176 39.743 21.097 L38.180 21.097 Z" style="fill:#333"></path><path d="M39.212 18.097 L42.899 12.894 L39.384 7.910 L41.274 7.910 L43.899 11.754 L46.509 7.910 L48.384 7.910 L44.868 12.894 L48.571 18.097 L46.681 18.097 L43.899 14.035 L41.087 18.097 L39.212 18.097 Z" style="fill:#333"></path></g></g><g transform="translate(46.555,16.320)"><path d="M0.781 2.453 Q1.047 1.375 1.312 0.078 Q1.594 -1.219 1.734 -2.203 L3.516 -2.203 L3.641 -2.000 Q3.406 -0.984 2.922 0.203 Q2.469 1.422 2.016 2.453 L0.781 2.453 Z" style="fill:#333"></path></g><g transform="translate(54.529,0)"><g transform="translate(0,-0.159)"><path d="M4.734 15.237 Q3.938 15.237 3.250 14.972 Q2.578 14.691 2.172 14.003 Q1.750 13.316 1.750 12.081 L1.750 6.159 L0.297 6.159 L0.297 5.362 L1.766 4.691 L2.438 2.534 L3.422 2.534 L3.422 4.862 L6.359 4.862 L6.359 6.159 L3.422 6.159 L3.422 12.050 Q3.422 12.972 3.859 13.441 Q4.312 13.878 5.016 13.878 Q5.391 13.878 5.797 13.816 Q6.188 13.737 6.438 13.659 L6.438 14.941 Q6.172 15.066 5.688 15.144 Q5.188 15.237 4.734 15.237 Z" style="fill:#333"></path><path d="M5.840 18.050 Q7.418 16.128 8.215 13.847 Q9.027 11.550 9.027 9.159 Q9.027 6.722 8.215 4.409 Q7.418 2.066 5.808 0.159 L7.386 0.159 Q9.105 2.003 9.902 4.331 Q10.715 6.675 10.715 9.175 Q10.715 11.644 9.902 13.941 Q9.105 16.253 7.386 18.050 L5.840 18.050 Z" style="fill:#333"></path></g></g></g><rect x="87.53" y="298.59" width="117.81" height="54.05" rx="2.00" ry="2.00" style="fill:#ECECFF;stroke:#9370DB;stroke-width:1.50"></rect><text x="146.44" y="325.62" text-anchor="middle" dominant-baseline="central" font-size="16.00" style="fill:#333;font-size:16.00px">Process</text><polygon points="146.44,402.64 203.00,459.20 146.44,515.77 89.87,459.20" style="fill:#ECECFF;stroke:#9370DB;stroke-width:1.50"></polygon><g style="fill:#333" transform="translate(119.87,448.67) scale(1.000)"><g transform="translate(0,-0.169)"><path d="M5.219 14.887 Q3.359 14.887 2.203 13.575 Q1.047 12.247 1.047 9.653 Q1.047 7.059 2.188 5.700 Q3.328 4.325 5.375 4.325 Q6.500 4.325 7.234 4.731 Q8.000 5.106 8.500 5.887 L8.609 5.887 Q8.703 5.559 8.859 5.184 Q9.000 4.794 9.219 4.512 L10.531 4.512 Q10.391 4.934 10.281 5.622 Q10.172 6.309 10.109 7.059 Q10.047 7.825 10.047 8.512 L10.047 12.466 Q10.047 13.044 10.281 13.294 Q10.500 13.528 10.828 13.528 Q10.984 13.528 11.156 13.481 Q11.328 13.450 11.406 13.434 L11.406 14.637 Q11.266 14.716 10.969 14.794 Q10.656 14.887 10.344 14.887 Q9.641 14.887 9.172 14.544 Q8.734 14.200 8.531 13.325 L8.391 13.325 Q7.969 13.981 7.234 14.434 Q6.516 14.887 5.219 14.887 Z M5.516 13.497 Q7.094 13.497 7.734 12.606 Q8.391 11.700 8.391 9.747 L8.391 9.622 Q8.391 7.731 7.766 6.731 Q7.156 5.731 5.484 5.731 Q4.109 5.731 3.438 6.731 Q2.781 7.747 2.781 9.669 Q2.781 11.559 3.422 12.528 Q4.078 13.497 5.516 13.497 Z" style="fill:#333"></path><path d="M16.404 14.012 L16.404 10.106 L12.623 10.106 L12.623 8.747 L16.404 8.747 L16.404 4.825 L17.779 4.825 L17.779 8.747 L21.560 8.747 L21.560 10.106 L17.779 10.106 L17.779 14.012 L16.404 14.012 Z" style="fill:#333"></path><path d="M24.293 19.262 L24.293 4.528 Q24.293 2.997 24.886 2.044 Q25.480 1.075 26.496 0.622 Q27.527 0.169 28.840 0.169 Q30.105 0.169 31.105 0.591 Q32.090 0.981 32.636 1.778 Q33.215 2.575 33.215 3.794 Q33.215 5.169 32.465 5.966 Q31.730 6.762 30.324 6.981 L30.324 7.059 Q32.043 7.247 32.918 8.184 Q33.824 9.106 33.824 10.841 Q33.824 12.794 32.590 13.841 Q31.371 14.887 29.183 14.887 Q28.074 14.887 27.324 14.716 Q26.574 14.544 25.965 14.247 L25.965 19.262 L24.293 19.262 Z M29.027 13.528 Q30.668 13.528 31.402 12.794 Q32.152 12.059 32.152 10.731 Q32.152 9.231 31.230 8.544 Q30.324 7.841 28.840 7.841 L27.840 7.841 L27.840 6.434 L28.652 6.434 Q30.136 6.434 30.808 5.731 Q31.496 5.028 31.496 3.872 Q31.496 2.684 30.761 2.122 Q30.043 1.559 28.808 1.559 Q28.043 1.559 27.402 1.825 Q26.746 2.091 26.355 2.747 Q25.965 3.419 25.965 4.606 L25.965 12.747 Q26.636 13.091 27.340 13.309 Q28.058 13.528 29.027 13.528 Z" style="fill:#333"></path><path d="M35.539 8.200 L35.539 6.856 L44.476 6.856 L44.476 8.200 L35.539 8.200 Z M35.539 11.981 L35.539 10.637 L44.476 10.637 L44.476 11.981 L35.539 11.981 Z" style="fill:#333"></path><path d="M48.849 19.262 Q48.849 18.731 48.958 17.934 Q49.099 17.137 49.302 16.231 Q49.537 15.372 49.818 14.591 L45.693 4.512 L47.427 4.512 L49.568 9.856 Q49.787 10.356 49.990 10.950 Q50.193 11.559 50.365 12.122 Q50.537 12.669 50.599 13.012 L50.677 13.012 Q50.724 12.700 50.880 12.137 Q51.052 11.559 51.240 10.950 Q51.458 10.356 51.599 9.934 L53.615 4.512 L55.349 4.512 L51.583 14.450 Q51.302 15.216 51.083 16.091 Q50.880 16.966 50.771 17.778 Q50.646 18.606 50.646 19.262 L48.849 19.262 Z" style="fill:#333"></path></g></g><rect x="20.00" y="565.77" width="88.48" height="54.05" rx="2.00" ry="2.00" style="fill:#ECECFF;stroke:#9370DB;stroke-width:1.50"></rect><text x="64.24" y="592.79" text-anchor="middle" dominant-baseline="central" font-size="16.00" style="fill:#333;font-size:16.00px">End</text><rect x="158.48" y="565.77" width="140.30" height="54.05" rx="2.00" ry="2.00" style="fill:#ECECFF;stroke:#9370DB;stroke-width:1.50"></rect><text x="228.63" y="592.79" text-anchor="middle" dominant-baseline="central" font-size="16.00" style="fill:#333;font-size:16.00px">Circle Area</text></svg>