<?xml version="1.0" encoding="UTF-8"?>
<svg xmlns="http://www.w3.org/2000/svg" viewBox="0 0 318.78 600.89"><defs><marker id="arrow-arrow-solid" viewBox="0 0 10 10" refX="9.00" refY="5.00" markerWidth="8.00" markerHeight="8.00" orient="auto"><polygon points="0,0 10,5 0,10" style="fill:#333"></polygon></marker></defs><rect x="0.00" y="0.00" width="318.78" height="600.89" style="fill:#fff;stroke:none"></rect><path d="M146.44,74.05 L146.44,124.05" style="stroke:#333;stroke-width:1.5;fill:none" marker-end="url(#arrow-arrow-solid)"></path><path d="M146.44,228.52 L146.44,278.52" style="stroke:#333;stroke-width:1.5;fill:none" marker-end="url(#arrow-arrow-solid)"></path><rect x="135.00" y="227.31" width="22.87" height="27.20" rx="3.00" ry="3.00" style="fill:#fff;stroke:none"></rect><g style="fill:#333" transform="translate(139.00,232.76) scale(1.000)"><g transform="translate(0,-1.200)"><path d="M4.109 17.452 L2.078 11.749 L0.766 11.749 L0.766 10.702 L2.906 10.702 L4.609 15.640 L9.578 1.593 L10.656 1.593 L5.078 17.452 L4.109 17.452 Z" style="fill:#333"></path><rect x="5.11" y="1.20" width="9.76" height="1.20" style="fill:#333"></rect><path d="M7.855 17.500 L11.543 12.297 L8.027 7.312 L9.918 7.312 L12.543 11.156 L15.152 7.312 L17.027 7.312 L13.511 12.297 L17.214 17.500 L15.324 17.500 L12.543 13.438 L9.730 17.500 L7.855 17.500 Z" style="fill:#333"></path></g></g><path d="M146.44,332.57 L146.44,382.57" style="stroke:#333;stroke-width:1.5;fill:none" marker-end="url(#arrow-arrow-solid)"></path><path d="M127.66,458.07 L82.13,526.84" style="stroke:#333;stroke-width:1.5;fill:none" marker-end="url(#arrow-arrow-solid)"></path><rect x="98.26" y="475.28" width="14.15" height="33.01" rx="3.00" ry="3.00" style="fill:#fff;stroke:none"></rect><g style="fill:#333" transform="translate(102.26,479.28) scale(1.000)"><g transform="translate(0,-0.309)"><path d="M3.500 9.590 L3.500 3.106 Q3.500 2.543 3.516 2.199 Q3.516 1.871 3.547 1.496 Q3.344 1.699 3.172 1.856 Q3.000 1.996 2.750 2.215 L1.750 3.027 L1.156 2.262 L3.672 0.309 L4.609 0.309 L4.609 9.590 L3.500 9.590 Z" style="fill:#333"></path><rect x="0.00" y="13.19" width="3.75" height="1.20" style="fill:#333"></rect><path d="M0.625 25.320 L0.625 24.367 L3.062 21.914 Q3.750 21.211 4.234 20.664 Q4.719 20.117 4.969 19.601 Q5.219 19.070 5.219 18.445 Q5.219 17.679 4.766 17.289 Q4.297 16.882 3.578 16.882 Q2.906 16.882 2.375 17.117 Q1.875 17.351 1.344 17.773 L0.734 17.007 Q1.281 16.539 1.969 16.226 Q2.688 15.914 3.578 15.914 Q4.875 15.914 5.625 16.570 Q6.391 17.226 6.391 18.382 Q6.391 19.101 6.078 19.742 Q5.781 20.367 5.250 20.992 Q4.719 21.617 4.000 22.320 L2.062 24.226 L2.062 24.273 L6.766 24.273 L6.766 25.320 L0.625 25.320 Z" style="fill:#333"></path></g></g><path d="M165.21,458.07 L210.74,526.84" style="stroke:#333;stroke-width:1.5;fill:none" marker-end="url(#arrow-arrow-solid)"></path><rect x="176.63" y="478.19" width="21.80" height="27.20" rx="3.00" ry="3.00" style="fill:#fff;stroke:none"></rect><g style="fill:#333" transform="translate(180.63,483.24) scale(1.000)"><g transform="translate(0.000,0)"><g transform="translate(0,-0.100)"><path d="M10.375 10.662 Q8.266 10.662 8.266 8.241 L8.266 1.678 L3.953 1.678 L3.953 10.475 L2.297 10.475 L2.297 1.678 L0.234 1.678 L0.234 0.959 L1.594 0.287 L11.906 0.287 L11.906 1.678 L9.922 1.678 L9.922 8.116 Q9.922 8.787 10.172 9.053 Q10.406 9.303 10.797 9.303 Q11.062 9.303 11.266 9.241 Q11.500 9.178 11.625 9.100 L11.625 10.412 Q11.469 10.491 11.141 10.569 Q10.812 10.662 10.375 10.662 Z" style="fill:#333"></path><path d="M7.788 10.475 L7.788 0.287 L9.163 0.287 L9.350 2.147 L9.428 2.147 Q9.928 1.319 10.694 0.709 Q11.475 0.100 12.538 0.100 Q12.834 0.100 13.147 0.131 Q13.491 0.162 13.741 0.209 L13.538 1.756 Q13.288 1.694 12.975 1.662 Q12.694 1.616 12.428 1.616 Q11.647 1.616 10.959 2.053 Q10.288 2.475 9.866 3.256 Q9.459 4.022 9.459 5.037 L9.459 10.475 L7.788 10.475 Z" style="fill:#333"></path></g></g><g transform="translate(10.050,-7.680)"><g transform="translate(0,-0.324)"><path d="M0.625 9.730 L0.625 8.777 L3.062 6.324 Q3.750 5.621 4.234 5.074 Q4.719 4.527 4.969 4.011 Q5.219 3.480 5.219 2.855 Q5.219 2.089 4.766 1.699 Q4.297 1.292 3.578 1.292 Q2.906 1.292 2.375 1.527 Q1.875 1.761 1.344 2.183 L0.734 1.417 Q1.281 0.949 1.969 0.636 Q2.688 0.324 3.578 0.324 Q4.875 0.324 5.625 0.980 Q6.391 1.636 6.391 2.792 Q6.391 3.511 6.078 4.152 Q5.781 4.777 5.250 5.402 Q4.719 6.027 4.000 6.730 L2.062 8.636 L2.062 8.683 L6.766 8.683 L6.766 9.730 L0.625 9.730 Z" style="fill:#333"></path></g></g></g><rect x="99.45" y="20.00" width="93.97" height="54.05" rx="2.00" ry="2.00" style="fill:#ECECFF;stroke:#9370DB;stroke-width:1.50"></rect><text x="146.44" y="47.03" text-anchor="middle" dominant-baseline="central" font-size="16.00" style="fill:#333;font-size:16.00px">Start</text><polygon points="146.44,124.05 198.67,176.28 146.44,228.52 94.20,176.28" style="fill:#ECECFF;stroke:#9370DB;stroke-width:1.50"></polygon><g style="fill:#333" transform="translate(124.20,163.10) scale(1.000)"><g transform="translate(0.000,0)"><g transform="translate(0,-0.345)"><path d="M3.578 10.345 Q2.281 10.345 1.500 9.454 Q0.719 8.548 0.719 6.751 Q0.719 4.954 1.500 4.048 Q2.281 3.126 3.594 3.126 Q4.391 3.126 4.906 3.423 Q5.422 3.720 5.750 4.142 L5.828 4.142 Q5.812 3.986 5.766 3.657 Q5.750 3.314 5.750 3.126 L5.750 0.345 L6.891 0.345 L6.891 10.220 L5.969 10.220 L5.797 9.282 L5.750 9.282 Q5.438 9.720 4.906 10.032 Q4.391 10.345 3.578 10.345 Z M3.750 9.407 Q4.859 9.407 5.297 8.798 Q5.766 8.189 5.766 6.970 L5.766 6.767 Q5.766 5.454 5.328 4.767 Q4.906 4.064 3.750 4.064 Q2.828 4.064 2.359 4.814 Q1.891 5.532 1.891 6.782 Q1.891 8.017 2.359 8.704 Q2.828 9.407 3.750 9.407 Z" style="fill:#333"></path><path d="M4.270 10.220 L6.786 6.657 L4.380 3.251 L5.692 3.251 L7.473 5.876 L9.255 3.251 L10.552 3.251 L8.145 6.657 L10.677 10.220 L9.380 10.220 L7.473 7.439 L5.552 10.220 L4.270 10.220 Z" style="fill:#333"></path><rect x="0.00" y="13.96" width="7.51" height="1.20" style="fill:#333"></rect><path d="M4.578 26.705 Q3.281 26.705 2.500 25.814 Q1.719 24.908 1.719 23.111 Q1.719 21.314 2.500 20.408 Q3.281 19.486 4.594 19.486 Q5.391 19.486 5.906 19.783 Q6.422 20.080 6.750 20.502 L6.828 20.502 Q6.812 20.346 6.766 20.017 Q6.750 19.674 6.750 19.486 L6.750 16.705 L7.891 16.705 L7.891 26.580 L6.969 26.580 L6.797 25.642 L6.750 25.642 Q6.438 26.080 5.906 26.392 Q5.391 26.705 4.578 26.705 Z M4.750 25.767 Q5.859 25.767 6.297 25.158 Q6.766 24.549 6.766 23.330 L6.766 23.127 Q6.766 21.814 6.328 21.127 Q5.906 20.424 4.750 20.424 Q3.828 20.424 3.359 21.174 Q2.891 21.892 2.891 23.142 Q2.891 24.377 3.359 25.064 Q3.828 25.767 4.750 25.767 Z" style="fill:#333"></path><path d="M8.270 26.705 Q7.723 26.705 7.255 26.533 Q6.802 26.330 6.520 25.861 Q6.239 25.392 6.239 24.549 L6.239 20.502 L5.239 20.502 L5.239 19.955 L6.239 19.502 L6.692 18.017 L7.380 18.017 L7.380 19.611 L9.395 19.611 L9.395 20.502 L7.380 20.502 L7.380 24.533 Q7.380 25.158 7.677 25.471 Q7.989 25.767 8.473 25.767 Q8.723 25.767 9.005 25.736 Q9.270 25.689 9.442 25.627 L9.442 26.502 Q9.255 26.596 8.927 26.642 Q8.583 26.705 8.270 26.705 Z" style="fill:#333"></path><path d="M12.629 11.597 L12.629 10.254 L21.567 10.254 L21.567 11.597 L12.629 11.597 Z M12.629 15.379 L12.629 14.035 L21.567 14.035 L21.567 15.379 L12.629 15.379 Z" style="fill:#333"></path><path d="M20.854 18.097 L20.854 9.207 L19.057 9.207 L19.057 8.426 L20.854 7.863 L20.854 7.269 Q20.854 5.285 21.714 4.441 Q22.589 3.566 24.151 3.566 Q24.761 3.566 25.261 3.676 Q25.761 3.769 26.136 3.910 L25.698 5.222 Q25.386 5.113 24.995 5.019 Q24.589 4.926 24.167 4.926 Q23.339 4.926 22.917 5.504 Q22.526 6.051 22.526 7.254 L22.526 7.910 L25.089 7.910 L25.089 9.207 L22.526 9.207 L22.526 18.097 L20.854 18.097 Z" style="fill:#333"></path><path d="M26.079 21.097 Q24.376 19.301 23.564 16.988 Q22.767 14.691 22.767 12.222 Q22.767 9.722 23.564 7.379 Q24.376 5.051 26.079 3.207 L27.657 3.207 Q26.064 5.113 25.251 7.457 Q24.454 9.769 24.454 12.207 Q24.454 14.597 25.267 16.894 Q26.079 19.176 27.642 21.097 L26.079 21.097 Z" style="fill:#333"></path><path d="M25.420 18.097 L29.107 12.894 L25.592 7.910 L27.482 7.910 L30.107 11.754 L32.717 7.910 L34.592 7.910 L31.076 12.894 L34.779 18.097 L32.889 18.097 L30.107 14.035 L27.295 18.097 L25.420 18.097 Z" style="fill:#333"></path></g></g><g transform="translate(30.036,16.320)"><path d="M0.781 2.453 Q1.047 1.375 1.312 0.078 Q1.594 -1.219 1.734 -2.203 L3.516 -2.203 L3.641 -2.000 Q3.406 -0.984 2.922 0.203 Q2.469 1.422 2.016 2.453 L0.781 2.453 Z" style="fill:#333"></path></g><g transform="translate(38.009,0)"><g transform="translate(0,-0.159)"><path d="M4.734 15.237 Q3.938 15.237 3.250 14.972 Q2.578 14.691 2.172 14.003 Q1.750 13.316 1.750 12.081 L1.750 6.159 L0.297 6.159 L0.297 5.362 L1.766 4.691 L2.438 2.534 L3.422 2.534 L3.422 4.862 L6.359 4.862 L6.359 6.159 L3.422 6.159 L3.422 12.050 Q3.422 12.972 3.859 13.441 Q4.312 13.878 5.016 13.878 Q5.391 13.878 5.797 13.816 Q6.188 13.737 6.438 13.659 L6.438 14.941 Q6.172 15.066 5.688 15.144 Q5.188 15.237 4.734 15.237 Z" style="fill:#333"></path><path d="M3.978 18.050 Q5.556 16.128 6.353 13.847 Q7.166 11.550 7.166 9.159 Q7.166 6.722 6.353 4.409 Q5.556 2.066 3.947 0.159 L5.525 0.159 Q7.244 2.003 8.041 4.331 Q8.853 6.675 8.853 9.175 Q8.853 11.644 8.041 13.941 Q7.244 16.253 5.525 18.050 L3.978 18.050 Z" style="fill:#333"></path></g></g></g><rect x="87.53" y="278.52" width="117.81" height="54.05" rx="2.00" ry="2.00" style="fill:#ECECFF;stroke:#9370DB;stroke-width:1.50"></rect><text x="146.44" y="305.54" text-anchor="middle" dominant-baseline="central" font-size="16.00" style="fill:#333;font-size:16.00px">Process</text><polygon points="146.44,382.57 193.57,429.71 146.44,476.84 99.30,429.71" style="fill:#ECECFF;stroke:#9370DB;stroke-width:1.50"></polygon><g style="fill:#333" transform="translate(129.30,420.16) scale(1.000)"><g transform="translate(0,-0.169)"><path d="M5.219 14.887 Q3.359 14.887 2.203 13.575 Q1.047 12.247 1.047 9.653 Q1.047 7.059 2.188 5.700 Q3.328 4.325 5.375 4.325 Q6.500 4.325 7.234 4.731 Q8.000 5.106 8.500 5.887 L8.609 5.887 Q8.703 5.559 8.859 5.184 Q9.000 4.794 9.219 4.512 L10.531 4.512 Q10.391 4.934 10.281 5.622 Q10.172 6.309 10.109 7.059 Q10.047 7.825 10.047 8.512 L10.047 12.466 Q10.047 13.044 10.281 13.294 Q10.500 13.528 10.828 13.528 Q10.984 13.528 11.156 13.481 Q11.328 13.450 11.406 13.434 L11.406 14.637 Q11.266 14.716 10.969 14.794 Q10.656 14.887 10.344 14.887 Q9.641 14.887 9.172 14.544 Q8.734 14.200 8.531 13.325 L8.391 13.325 Q7.969 13.981 7.234 14.434 Q6.516 14.887 5.219 14.887 Z M5.516 13.497 Q7.094 13.497 7.734 12.606 Q8.391 11.700 8.391 9.747 L8.391 9.622 Q8.391 7.731 7.766 6.731 Q7.156 5.731 5.484 5.731 Q4.109 5.731 3.438 6.731 Q2.781 7.747 2.781 9.669 Q2.781 11.559 3.422 12.528 Q4.078 13.497 5.516 13.497 Z" style="fill:#333"></path><path d="M12.269 14.012 L12.269 10.106 L8.488 10.106 L8.488 8.747 L12.269 8.747 L12.269 4.825 L13.644 4.825 L13.644 8.747 L17.425 8.747 L17.425 10.106 L13.644 10.106 L13.644 14.012 L12.269 14.012 Z" style="fill:#333"></path><path d="M16.244 19.262 L16.244 4.528 Q16.244 2.997 16.837 2.044 Q17.431 1.075 18.447 0.622 Q19.478 0.169 20.791 0.169 Q22.056 0.169 23.056 0.591 Q24.041 0.981 24.587 1.778 Q25.166 2.575 25.166 3.794 Q25.166 5.169 24.416 5.966 Q23.681 6.762 22.275 6.981 L22.275 7.059 Q23.994 7.247 24.869 8.184 Q25.775 9.106 25.775 10.841 Q25.775 12.794 24.541 13.841 Q23.322 14.887 21.134 14.887 Q20.025 14.887 19.275 14.716 Q18.525 14.544 17.916 14.247 L17.916 19.262 L16.244 19.262 Z M20.978 13.528 Q22.619 13.528 23.353 12.794 Q24.103 12.059 24.103 10.731 Q24.103 9.231 23.181 8.544 Q22.275 7.841 20.791 7.841 L19.791 7.841 L19.791 6.434 L20.603 6.434 Q22.087 6.434 22.759 5.731 Q23.447 5.028 23.447 3.872 Q23.447 2.684 22.712 2.122 Q21.994 1.559 20.759 1.559 Q19.994 1.559 19.353 1.825 Q18.697 2.091 18.306 2.747 Q17.916 3.419 17.916 4.606 L17.916 12.747 Q18.587 13.091 19.291 13.309 Q20.009 13.528 20.978 13.528 Z" style="fill:#333"></path><path d="M23.272 8.200 L23.272 6.856 L32.209 6.856 L32.209 8.200 L23.272 8.200 Z M23.272 11.981 L23.272 10.637 L32.209 10.637 L32.209 11.981 L23.272 11.981 Z" style="fill:#333"></path><path d="M32.669 19.262 Q32.669 18.731 32.778 17.934 Q32.919 17.137 33.122 16.231 Q33.356 15.372 33.638 14.591 L29.513 4.512 L31.247 4.512 L33.388 9.856 Q33.606 10.356 33.809 10.950 Q34.013 11.559 34.184 12.122 Q34.356 12.669 34.419 13.012 L34.497 13.012 Q34.544 12.700 34.700 12.137 Q34.872 11.559 35.059 10.950 Q35.278 10.356 35.419 9.934 L37.434 4.512 L39.169 4.512 L35.403 14.450 Q35.122 15.216 34.903 16.091 Q34.700 16.966 34.591 17.778 Q34.466 18.606 34.466 19.262 L32.669 19.262 Z" style="fill:#333"></path></g></g><rect x="20.00" y="526.84" width="88.48" height="54.05" rx="2.00" ry="2.00" style="fill:#ECECFF;stroke:#9370DB;stroke-width:1.50"></rect><text x="64.24" y="553.87" text-anchor="middle" dominant-baseline="central" font-size="16.00" style="fill:#333;font-size:16.00px">End</text><rect x="158.48" y="526.84" width="140.30" height="54.05" rx="2.00" ry="2.00" style="fill:#ECECFF;stroke:#9370DB;stroke-width:1.50"></rect><text x="228.63" y="553.87" text-anchor="middle" dominant-baseline="central" font-size="16.00" style="fill:#333;font-size:16.00px">Circle Area</text></svg>