<?xml version="1.0" encoding="UTF-8"?>
<svg xmlns="http://www.w3.org/2000/svg" viewBox="0 0 318.78 617.05"><defs><marker id="arrow-arrow-solid" viewBox="0 0 10 10" refX="9.00" refY="5.00" markerWidth="8.00" markerHeight="8.00" orient="auto"><polygon points="0,0 10,5 0,10" style="fill:#333"></polygon></marker></defs><rect x="0.00" y="0.00" width="318.78" height="617.05" style="fill:#fff;stroke:none"></rect><path d="M146.44,74.05 L146.44,124.05" style="stroke:#333;stroke-width:1.5;fill:none" marker-end="url(#arrow-arrow-solid)"></path><path d="M146.44,236.11 L146.44,286.11" style="stroke:#333;stroke-width:1.5;fill:none" marker-end="url(#arrow-arrow-solid)"></path><rect x="133.14" y="222.41" width="26.59" height="48.39" rx="3.00" ry="3.00" style="fill:#fff;stroke:none"></rect><g style="fill:#333" transform="translate(137.14,226.41) scale(1.000)"><g transform="translate(0,-1.500)"><path d="M5.203 21.815 L2.641 29.034 L0.969 29.034 L0.969 30.362 L3.688 30.362 L5.828 24.112 L12.141 41.893 L13.484 41.893 L6.438 21.815 L5.203 21.815 Z" style="fill:#333"></path><rect x="6.39" y="1.50" width="12.20" height="1.50" style="fill:#333"></rect><path d="M9.827 21.375 L14.483 27.953 L10.030 34.234 L12.436 34.234 L15.749 29.391 L19.030 34.234 L21.420 34.234 L16.967 27.953 L21.655 21.375 L19.249 21.375 L15.749 26.516 L12.202 21.375 L9.827 21.375 Z" style="fill:#333"></path></g></g><path d="M146.44,340.16 L146.44,390.16" style="stroke:#333;stroke-width:1.5;fill:none" marker-end="url(#arrow-arrow-solid)"></path><path d="M126.37,472.93 L81.54,543.00" style="stroke:#333;stroke-width:1.5;fill:none" marker-end="url(#arrow-arrow-solid)"></path><rect x="97.49" y="486.18" width="15.69" height="39.24" rx="3.00" ry="3.00" style="fill:#fff;stroke:none"></rect><g style="fill:#333" transform="translate(101.49,490.18) scale(1.000)"><g transform="translate(0,-11.987)"><path d="M4.297 11.987 L4.297 19.972 Q4.297 20.659 4.312 21.081 Q4.344 21.487 4.375 21.941 Q4.109 21.706 3.906 21.503 Q3.703 21.331 3.375 21.066 L2.156 20.066 L1.422 21.019 L4.516 23.409 L5.688 23.409 L5.688 11.987 L4.297 11.987 Z" style="fill:#333"></path><rect x="0.00" y="16.49" width="4.69" height="1.50" style="fill:#333"></rect><path d="M0.766 31.650 L0.766 32.822 L3.766 35.837 Q4.625 36.712 5.219 37.384 Q5.812 38.056 6.109 38.697 Q6.422 39.353 6.422 40.119 Q6.422 41.056 5.859 41.541 Q5.297 42.041 4.406 42.041 Q3.562 42.041 2.922 41.744 Q2.297 41.462 1.641 40.947 L0.891 41.884 Q1.562 42.447 2.438 42.837 Q3.312 43.228 4.406 43.228 Q6.000 43.228 6.922 42.416 Q7.859 41.619 7.859 40.197 Q7.859 39.291 7.484 38.509 Q7.125 37.744 6.469 36.978 Q5.812 36.212 4.922 35.353 L2.547 32.994 L2.547 32.931 L8.312 32.931 L8.312 31.650 L0.766 31.650 Z" style="fill:#333"></path></g></g><path d="M166.50,472.93 L211.34,543.00" style="stroke:#333;stroke-width:1.5;fill:none" marker-end="url(#arrow-arrow-solid)"></path><rect x="174.91" y="491.21" width="25.25" height="29.18" rx="3.00" ry="3.00" style="fill:#fff;stroke:none"></rect><g style="fill:#333" transform="translate(178.91,495.21) scale(1.000)"><g transform="translate(0.000,0)"><g transform="translate(0,-12.859)"><path d="M13.109 12.859 Q10.438 12.859 10.438 15.922 L10.438 24.203 L4.984 24.203 L4.984 13.094 L2.906 13.094 L2.906 24.203 L0.281 24.203 L0.281 25.125 L2.016 25.953 L15.047 25.953 L15.047 24.203 L12.531 24.203 L12.531 16.062 Q12.531 15.234 12.844 14.891 Q13.156 14.578 13.625 14.578 Q13.969 14.578 14.234 14.656 Q14.516 14.719 14.688 14.828 L14.688 13.172 Q14.500 13.062 14.062 12.969 Q13.656 12.859 13.109 12.859 Z" style="fill:#333"></path><path d="M9.770 13.094 L9.770 25.953 L11.488 25.953 L11.738 23.609 L11.832 23.609 Q12.457 24.656 13.441 25.438 Q14.426 26.203 15.770 26.203 Q16.129 26.203 16.535 26.156 Q16.957 26.125 17.270 26.047 L17.004 24.109 Q16.691 24.188 16.316 24.234 Q15.957 24.281 15.613 24.281 Q14.629 24.281 13.770 23.719 Q12.910 23.203 12.379 22.219 Q11.879 21.250 11.879 19.953 L11.879 13.094 L9.770 13.094 Z" style="fill:#333"></path></g></g><g transform="translate(12.562,-9.600)"><g transform="translate(0,-12.162)"><path d="M0.766 12.162 L0.766 13.334 L3.766 16.350 Q4.625 17.225 5.219 17.897 Q5.812 18.569 6.109 19.209 Q6.422 19.866 6.422 20.631 Q6.422 21.569 5.859 22.053 Q5.297 22.553 4.406 22.553 Q3.562 22.553 2.922 22.256 Q2.297 21.975 1.641 21.459 L0.891 22.397 Q1.562 22.959 2.438 23.350 Q3.312 23.741 4.406 23.741 Q6.000 23.741 6.922 22.928 Q7.859 22.131 7.859 20.709 Q7.859 19.803 7.484 19.022 Q7.125 18.256 6.469 17.491 Q5.812 16.725 4.922 15.866 L2.547 13.506 L2.547 13.444 L8.312 13.444 L8.312 12.162 L0.766 12.162 Z" style="fill:#333"></path></g></g></g><rect x="99.45" y="20.00" width="93.97" height="54.05" rx="2.00" ry="2.00" style="fill:#ECECFF;stroke:#9370DB;stroke-width:1.50"></rect><text x="146.44" y="47.03" text-anchor="middle" dominant-baseline="central" font-size="16.00" style="fill:#333;font-size:16.00px">Start</text><polygon points="146.44,124.05 202.47,180.08 146.44,236.11 90.41,180.08" style="fill:#ECECFF;stroke:#9370DB;stroke-width:1.50"></polygon><g style="fill:#333" transform="translate(120.41,163.70) scale(1.000)"><g transform="translate(0.000,0)"><g transform="translate(0,-12.619)"><path d="M4.406 12.619 Q2.797 12.619 1.844 13.712 Q0.875 14.837 0.875 17.041 Q0.875 19.259 1.844 20.369 Q2.812 21.509 4.422 21.509 Q5.406 21.509 6.031 21.150 Q6.672 20.775 7.078 20.244 L7.172 20.244 Q7.156 20.462 7.109 20.853 Q7.078 21.275 7.078 21.509 L7.078 24.931 L8.484 24.931 L8.484 12.775 L7.344 12.775 L7.141 13.931 L7.078 13.931 Q6.688 13.384 6.047 12.994 Q5.406 12.619 4.406 12.619 Z M4.625 13.791 Q5.984 13.791 6.531 14.525 Q7.094 15.275 7.094 16.775 L7.094 17.025 Q7.094 18.634 6.562 19.478 Q6.031 20.337 4.609 20.337 Q3.469 20.337 2.891 19.431 Q2.344 18.541 2.344 17.009 Q2.344 15.478 2.891 14.634 Q3.469 13.791 4.625 13.791 Z" style="fill:#333"></path><path d="M5.326 12.775 L8.436 17.166 L5.482 21.353 L7.076 21.353 L9.279 18.119 L11.482 21.353 L13.061 21.353 L10.107 17.166 L13.217 12.775 L11.623 12.775 L9.279 16.197 L6.920 12.775 L5.326 12.775 Z" style="fill:#333"></path><rect x="0.00" y="17.45" width="9.38" height="1.50" style="fill:#333"></rect><path d="M5.406 33.069 Q3.797 33.069 2.844 34.162 Q1.875 35.287 1.875 37.491 Q1.875 39.709 2.844 40.819 Q3.812 41.959 5.422 41.959 Q6.406 41.959 7.031 41.600 Q7.672 41.225 8.078 40.694 L8.172 40.694 Q8.156 40.912 8.109 41.303 Q8.078 41.725 8.078 41.959 L8.078 45.381 L9.484 45.381 L9.484 33.225 L8.344 33.225 L8.141 34.381 L8.078 34.381 Q7.688 33.834 7.047 33.444 Q6.406 33.069 5.406 33.069 Z M5.625 34.241 Q6.984 34.241 7.531 34.975 Q8.094 35.725 8.094 37.225 L8.094 37.475 Q8.094 39.084 7.562 39.928 Q7.031 40.787 5.609 40.787 Q4.469 40.787 3.891 39.881 Q3.344 38.991 3.344 37.459 Q3.344 35.928 3.891 35.084 Q4.469 34.241 5.625 34.241 Z" style="fill:#333"></path><path d="M10.029 33.069 Q9.357 33.069 8.779 33.287 Q8.217 33.522 7.873 34.100 Q7.514 34.678 7.514 35.725 L7.514 40.709 L6.295 40.709 L6.295 41.381 L7.529 41.944 L8.092 43.772 L8.920 43.772 L8.920 41.803 L11.404 41.803 L11.404 40.709 L8.920 40.709 L8.920 35.756 Q8.920 34.975 9.295 34.584 Q9.670 34.209 10.264 34.209 Q10.592 34.209 10.920 34.272 Q11.264 34.334 11.467 34.397 L11.467 33.319 Q11.248 33.209 10.826 33.147 Q10.420 33.069 10.029 33.069 Z" style="fill:#333"></path><path d="M15.795 30.825 L15.795 32.528 L27.076 32.528 L27.076 30.825 L15.795 30.825 Z M15.795 26.059 L15.795 27.762 L27.076 27.762 L27.076 26.059 L15.795 26.059 Z" style="fill:#333"></path><path d="M26.080 22.622 L26.080 33.856 L23.830 33.856 L23.830 34.841 L26.080 35.559 L26.080 36.309 Q26.080 38.794 27.189 39.872 Q28.298 40.981 30.267 40.981 Q31.033 40.981 31.658 40.841 Q32.298 40.716 32.752 40.544 L32.205 38.887 Q31.830 39.012 31.314 39.137 Q30.814 39.247 30.283 39.247 Q29.236 39.247 28.705 38.528 Q28.205 37.841 28.205 36.325 L28.205 35.481 L31.439 35.481 L31.439 33.856 L28.205 33.856 L28.205 22.622 L26.080 22.622 Z" style="fill:#333"></path><path d="M32.658 18.825 Q30.502 21.106 29.470 24.012 Q28.455 26.919 28.455 30.044 Q28.455 33.200 29.470 36.153 Q30.502 39.106 32.658 41.434 L34.658 41.434 Q32.642 39.012 31.611 36.059 Q30.595 33.137 30.595 30.059 Q30.595 27.044 31.627 24.137 Q32.658 21.247 34.627 18.825 L32.658 18.825 Z" style="fill:#333"></path><path d="M31.783 22.622 L36.439 29.200 L31.986 35.481 L34.392 35.481 L37.705 30.637 L40.986 35.481 L43.377 35.481 L38.923 29.200 L43.611 22.622 L41.205 22.622 L37.705 27.762 L34.158 22.622 L31.783 22.622 Z" style="fill:#333"></path></g></g><g transform="translate(37.545,20.400)"><path d="M0.984 -3.094 Q1.312 -1.734 1.656 -0.094 Q2.016 1.531 2.188 2.781 L4.438 2.781 L4.609 2.516 Q4.297 1.250 3.703 -0.266 Q3.125 -1.797 2.547 -3.094 L0.984 -3.094 Z" style="fill:#333"></path></g><g transform="translate(43.982,0)"><g transform="translate(0,-15.016)"><path d="M5.969 18.578 Q4.969 18.578 4.109 18.906 Q3.266 19.266 2.734 20.125 Q2.203 21.000 2.203 22.562 L2.203 30.047 L0.391 30.047 L0.391 31.047 L2.234 31.891 L3.078 34.625 L4.312 34.625 L4.312 31.672 L8.047 31.672 L8.047 30.047 L4.312 30.047 L4.312 22.609 Q4.312 21.422 4.875 20.859 Q5.453 20.297 6.344 20.297 Q6.812 20.297 7.312 20.375 Q7.828 20.469 8.141 20.562 L8.141 18.953 Q7.797 18.781 7.172 18.688 Q6.547 18.578 5.969 18.578 Z" style="fill:#333"></path><path d="M4.980 15.016 Q6.965 17.438 7.980 20.328 Q9.012 23.234 9.012 26.250 Q9.012 29.328 7.980 32.250 Q6.965 35.203 4.949 37.625 L6.949 37.625 Q9.105 35.297 10.105 32.344 Q11.137 29.391 11.137 26.234 Q11.137 23.109 10.105 20.203 Q9.105 17.297 6.949 15.016 L4.980 15.016 Z" style="fill:#333"></path></g></g></g><rect x="87.53" y="286.11" width="117.81" height="54.05" rx="2.00" ry="2.00" style="fill:#ECECFF;stroke:#9370DB;stroke-width:1.50"></rect><text x="146.44" y="313.13" text-anchor="middle" dominant-baseline="central" font-size="16.00" style="fill:#333;font-size:16.00px">Process</text><polygon points="146.44,390.16 197.86,441.58 146.44,493.00 95.02,441.58" style="fill:#ECECFF;stroke:#9370DB;stroke-width:1.50"></polygon><g style="fill:#333" transform="translate(125.02,429.52) scale(1.000)"><g transform="translate(0,-12.609)"><path d="M6.594 18.141 Q4.250 18.141 2.781 19.797 Q1.312 21.469 1.312 24.766 Q1.312 28.016 2.766 29.750 Q4.203 31.484 6.797 31.484 Q8.203 31.484 9.141 30.969 Q10.109 30.500 10.734 29.516 L10.875 29.516 Q10.984 29.922 11.188 30.406 Q11.375 30.875 11.641 31.234 L13.297 31.234 Q13.125 30.719 12.984 29.844 Q12.844 28.984 12.766 28.016 Q12.703 27.062 12.703 26.203 L12.703 21.203 Q12.703 20.469 12.984 20.156 Q13.266 19.859 13.688 19.859 Q13.875 19.859 14.094 19.906 Q14.297 19.953 14.406 19.984 L14.406 18.453 Q14.234 18.344 13.844 18.250 Q13.469 18.141 13.062 18.141 Q12.172 18.141 11.594 18.562 Q11.047 19.000 10.781 20.109 L10.609 20.109 Q10.062 19.281 9.141 18.719 Q8.234 18.141 6.594 18.141 Z M6.953 19.891 Q8.953 19.891 9.766 21.016 Q10.609 22.172 10.609 24.641 L10.609 24.781 Q10.609 27.188 9.812 28.438 Q9.047 29.703 6.938 29.703 Q5.188 29.703 4.344 28.438 Q3.500 27.156 3.500 24.734 Q3.500 22.328 4.312 21.109 Q5.156 19.891 6.953 19.891 Z" style="fill:#333"></path><path d="M15.398 19.234 L15.398 24.188 L10.617 24.188 L10.617 25.891 L15.398 25.891 L15.398 30.859 L17.133 30.859 L17.133 25.891 L21.898 25.891 L21.898 24.188 L17.133 24.188 L17.133 19.234 L15.398 19.234 Z" style="fill:#333"></path><path d="M20.340 12.609 L20.340 31.219 Q20.340 33.156 21.074 34.359 Q21.824 35.578 23.121 36.156 Q24.418 36.734 26.074 36.734 Q27.684 36.734 28.918 36.203 Q30.168 35.703 30.871 34.688 Q31.590 33.688 31.590 32.156 Q31.590 30.422 30.652 29.422 Q29.715 28.406 27.934 28.125 L27.934 28.016 Q30.121 27.781 31.230 26.609 Q32.355 25.438 32.355 23.250 Q32.355 20.781 30.793 19.453 Q29.262 18.141 26.496 18.141 Q25.105 18.141 24.152 18.344 Q23.215 18.562 22.449 18.953 L22.449 12.609 L20.340 12.609 Z M26.309 19.859 Q28.371 19.859 29.309 20.781 Q30.246 21.719 30.246 23.391 Q30.246 25.281 29.090 26.156 Q27.934 27.031 26.074 27.031 L24.793 27.031 L24.793 28.812 L25.824 28.812 Q27.699 28.812 28.559 29.703 Q29.434 30.594 29.434 32.062 Q29.434 33.547 28.496 34.266 Q27.574 34.984 26.027 34.984 Q25.059 34.984 24.246 34.641 Q23.434 34.312 22.918 33.469 Q22.449 32.625 22.449 31.125 L22.449 20.844 Q23.277 20.422 24.168 20.125 Q25.090 19.859 26.309 19.859 Z" style="fill:#333"></path><path d="M29.098 26.578 L29.098 28.281 L40.379 28.281 L40.379 26.578 L29.098 26.578 Z M29.098 21.812 L29.098 23.516 L40.379 23.516 L40.379 21.812 L29.098 21.812 Z" style="fill:#333"></path><path d="M40.883 12.609 Q40.883 13.281 41.023 14.297 Q41.195 15.297 41.461 16.438 Q41.742 17.531 42.102 18.516 L36.898 31.234 L39.070 31.234 L41.789 24.500 Q42.055 23.875 42.320 23.109 Q42.586 22.328 42.805 21.641 Q43.008 20.938 43.086 20.516 L43.180 20.516 Q43.258 20.891 43.445 21.609 Q43.664 22.328 43.898 23.109 Q44.164 23.875 44.352 24.406 L46.898 31.234 L49.086 31.234 L44.336 18.688 Q43.977 17.734 43.711 16.625 Q43.445 15.516 43.305 14.484 Q43.164 13.438 43.164 12.609 L40.883 12.609 Z" style="fill:#333"></path></g></g><rect x="20.00" y="543.00" width="88.48" height="54.05" rx="2.00" ry="2.00" style="fill:#ECECFF;stroke:#9370DB;stroke-width:1.50"></rect><text x="64.24" y="570.03" text-anchor="middle" dominant-baseline="central" font-size="16.00" style="fill:#333;font-size:16.00px">End</text><rect x="158.48" y="543.00" width="140.30" height="54.05" rx="2.00" ry="2.00" style="fill:#ECECFF;stroke:#9370DB;stroke-width:1.50"></rect><text x="228.63" y="570.03" text-anchor="middle" dominant-baseline="central" font-size="16.00" style="fill:#333;font-size:16.00px">Circle Area</text></svg>