<?xml version="1.0" encoding="UTF-8"?>
<svg xmlns="http://www.w3.org/2000/svg" viewBox="0 0 318.78 734.71"><defs><marker id="arrow-arrow-solid" viewBox="0 0 10 10" refX="9.00" refY="5.00" markerWidth="8.00" markerHeight="8.00" orient="auto"><polygon points="0,0 10,5 0,10" style="fill:#333"></polygon></marker></defs><rect x="0.00" y="0.00" width="318.78" height="734.71" style="fill:#fff;stroke:none"></rect><path d="M146.44,74.05 L146.44,124.05" style="stroke:#333;stroke-width:1.5;fill:none" marker-end="url(#arrow-arrow-solid)"></path><path d="M146.44,368.05 L146.44,418.05" style="stroke:#333;stroke-width:1.5;fill:none" marker-end="url(#arrow-arrow-solid)"></path><rect x="136.24" y="331.96" width="20.39" height="27.20" rx="3.00" ry="3.00" style="fill:#fff;stroke:none"></rect><g style="fill:#333" transform="translate(140.24,338.06) scale(1.000)"><path d="M3.281 14.543 L1.672 19.106 L0.609 19.106 L0.609 19.950 L2.328 19.950 L3.688 15.996 L7.672 27.231 L8.516 27.231 L4.062 14.543 L3.281 14.543 Z" style="fill:#333"></path><rect x="4.26" y="1.00" width="8.13" height="1.00" style="fill:#333"></rect><path d="M6.541 14.583 L9.650 18.974 L6.697 23.161 L8.291 23.161 L10.494 19.927 L12.697 23.161 L14.275 23.161 L11.322 18.974 L14.431 14.583 L12.838 14.583 L10.494 18.005 L8.134 14.583 L6.541 14.583 Z" style="fill:#333"></path></g><path d="M146.44,472.10 L146.44,522.10" style="stroke:#333;stroke-width:1.5;fill:none" marker-end="url(#arrow-arrow-solid)"></path><path d="M128.55,592.78 L82.55,660.66" style="stroke:#333;stroke-width:1.5;fill:none" marker-end="url(#arrow-arrow-solid)"></path><rect x="98.78" y="613.43" width="13.13" height="27.20" rx="3.00" ry="3.00" style="fill:#fff;stroke:none"></rect><g style="fill:#333" transform="translate(103.10,617.43) scale(0.873)"><path d="M2.953 7.992 L2.953 13.476 Q2.953 13.960 2.969 14.242 Q2.984 14.523 3.000 14.835 Q2.828 14.664 2.688 14.539 Q2.547 14.414 2.328 14.226 L1.484 13.554 L0.984 14.195 L3.109 15.851 L3.906 15.851 L3.906 7.992 L2.953 7.992 Z" style="fill:#333"></path><rect x="0.00" y="10.99" width="3.13" height="1.00" style="fill:#333"></rect><path d="M0.531 21.100 L0.531 21.897 L2.578 23.975 Q3.172 24.569 3.594 25.037 Q4.000 25.506 4.203 25.944 Q4.406 26.397 4.406 26.912 Q4.406 27.569 4.031 27.897 Q3.641 28.241 3.031 28.241 Q2.453 28.241 2.016 28.037 Q1.578 27.850 1.141 27.491 L0.609 28.147 Q1.078 28.522 1.672 28.787 Q2.281 29.069 3.031 29.069 Q4.125 29.069 4.766 28.506 Q5.406 27.959 5.406 26.975 Q5.406 26.366 5.141 25.819 Q4.891 25.287 4.438 24.756 Q4.000 24.241 3.391 23.647 L1.750 22.022 L1.750 21.975 L5.719 21.975 L5.719 21.100 L0.531 21.100 Z" style="fill:#333"></path></g><path d="M164.32,592.78 L210.32,660.66" style="stroke:#333;stroke-width:1.5;fill:none" marker-end="url(#arrow-arrow-solid)"></path><rect x="155.54" y="613.43" width="64.00" height="27.20" rx="3.00" ry="3.00" style="fill:#fff;stroke:none"></rect><text x="187.54" y="627.03" text-anchor="middle" dominant-baseline="central" style="fill:#333;font-size:16.00px">pi r^2</text><rect x="99.45" y="20.00" width="93.97" height="54.05" rx="2.00" ry="2.00" style="fill:#ECECFF;stroke:#9370DB;stroke-width:1.50"></rect><text x="146.44" y="47.03" text-anchor="middle" dominant-baseline="central" font-size="16.00" style="fill:#333;font-size:16.00px">Start</text><polygon points="146.44,124.05 268.44,246.05 146.44,368.05 24.44,246.05" style="fill:#ECECFF;stroke:#9370DB;stroke-width:1.50"></polygon><text x="146.44" y="246.05" text-anchor="middle" dominant-baseline="central" style="fill:#333;font-size:16.00px">frac{dx}{dt} = f(x, t)</text><rect x="87.53" y="418.05" width="117.81" height="54.05" rx="2.00" ry="2.00" style="fill:#ECECFF;stroke:#9370DB;stroke-width:1.50"></rect><text x="146.44" y="445.08" text-anchor="middle" dominant-baseline="central" font-size="16.00" style="fill:#333;font-size:16.00px">Process</text><polygon points="146.44,522.10 190.72,566.38 146.44,610.66 102.16,566.38" style="fill:#ECECFF;stroke:#9370DB;stroke-width:1.50"></polygon><g style="fill:#333" transform="translate(132.16,557.88) scale(1.000)"><path d="M4.406 12.094 Q2.828 12.094 1.859 13.188 Q0.875 14.312 0.875 16.500 Q0.875 18.688 1.844 19.828 Q2.797 20.984 4.531 20.984 Q5.469 20.984 6.094 20.656 Q6.734 20.328 7.156 19.672 L7.250 19.672 Q7.328 19.953 7.453 20.266 Q7.578 20.594 7.766 20.828 L8.859 20.828 Q8.750 20.469 8.656 19.891 Q8.562 19.328 8.516 18.688 Q8.469 18.047 8.469 17.469 L8.469 14.141 Q8.469 13.641 8.656 13.438 Q8.844 13.234 9.125 13.234 Q9.250 13.234 9.391 13.281 Q9.531 13.312 9.594 13.328 L9.594 12.297 Q9.484 12.234 9.234 12.172 Q8.969 12.094 8.703 12.094 Q8.109 12.094 7.734 12.375 Q7.359 12.672 7.188 13.406 L7.078 13.406 Q6.703 12.859 6.094 12.469 Q5.484 12.094 4.406 12.094 Z M4.641 13.266 Q5.969 13.266 6.516 14.016 Q7.078 14.781 7.078 16.422 L7.078 16.516 Q7.078 18.125 6.547 18.953 Q6.031 19.797 4.625 19.797 Q3.453 19.797 2.891 18.953 Q2.344 18.109 2.344 16.484 Q2.344 14.891 2.875 14.078 Q3.438 13.266 4.641 13.266 Z" style="fill:#333"></path><path d="M10.266 12.828 L10.266 16.125 L7.078 16.125 L7.078 17.266 L10.266 17.266 L10.266 20.562 L11.422 20.562 L11.422 17.266 L14.609 17.266 L14.609 16.125 L11.422 16.125 L11.422 12.828 L10.266 12.828 Z" style="fill:#333"></path><path d="M13.555 8.406 L13.555 20.812 Q13.555 22.109 14.055 22.906 Q14.555 23.719 15.414 24.109 Q16.273 24.484 17.383 24.484 Q18.445 24.484 19.289 24.141 Q20.117 23.797 20.586 23.125 Q21.055 22.453 21.055 21.438 Q21.055 20.281 20.430 19.609 Q19.805 18.938 18.633 18.750 L18.633 18.688 Q20.086 18.516 20.820 17.734 Q21.570 16.953 21.570 15.500 Q21.570 13.844 20.539 12.969 Q19.508 12.094 17.664 12.094 Q16.742 12.094 16.102 12.234 Q15.477 12.375 14.961 12.641 L14.961 8.406 L13.555 8.406 Z M17.539 13.234 Q18.914 13.234 19.539 13.844 Q20.164 14.469 20.164 15.594 Q20.164 16.859 19.398 17.438 Q18.633 18.031 17.383 18.031 L16.539 18.031 L16.539 19.203 L17.227 19.203 Q18.461 19.203 19.039 19.797 Q19.617 20.391 19.617 21.375 Q19.617 22.359 18.992 22.844 Q18.383 23.328 17.352 23.328 Q16.711 23.328 16.164 23.094 Q15.617 22.875 15.289 22.312 Q14.961 21.750 14.961 20.750 L14.961 13.891 Q15.523 13.609 16.117 13.422 Q16.727 13.234 17.539 13.234 Z" style="fill:#333"></path><path d="M19.398 17.719 L19.398 18.859 L26.930 18.859 L26.930 17.719 L19.398 17.719 Z M19.398 14.531 L19.398 15.672 L26.930 15.672 L26.930 14.531 L19.398 14.531 Z" style="fill:#333"></path><path d="M27.250 8.406 Q27.250 8.859 27.344 9.531 Q27.453 10.203 27.641 10.953 Q27.828 11.688 28.062 12.344 L24.594 20.828 L26.047 20.828 L27.859 16.328 Q28.031 15.906 28.219 15.406 Q28.391 14.891 28.531 14.422 Q28.672 13.969 28.719 13.672 L28.781 13.672 Q28.828 13.938 28.969 14.406 Q29.109 14.891 29.266 15.406 Q29.438 15.906 29.578 16.266 L31.266 20.828 L32.719 20.828 L29.562 12.453 Q29.312 11.812 29.141 11.078 Q28.969 10.344 28.875 9.656 Q28.766 8.953 28.766 8.406 L27.250 8.406 Z" style="fill:#333"></path></g><rect x="20.00" y="660.66" width="88.48" height="54.05" rx="2.00" ry="2.00" style="fill:#ECECFF;stroke:#9370DB;stroke-width:1.50"></rect><text x="64.24" y="687.69" text-anchor="middle" dominant-baseline="central" font-size="16.00" style="fill:#333;font-size:16.00px">End</text><rect x="158.48" y="660.66" width="140.30" height="54.05" rx="2.00" ry="2.00" style="fill:#ECECFF;stroke:#9370DB;stroke-width:1.50"></rect><text x="228.63" y="687.69" text-anchor="middle" dominant-baseline="central" font-size="16.00" style="fill:#333;font-size:16.00px">Circle Area</text></svg>