<?xml version="1.0" encoding="UTF-8"?>
<svg xmlns="http://www.w3.org/2000/svg" viewBox="0 0 318.78 617.05"><defs><marker id="arrow-arrow-solid" viewBox="0 0 10 10" refX="9.00" refY="5.00" markerWidth="8.00" markerHeight="8.00" orient="auto"><polygon points="0,0 10,5 0,10" style="fill:#333"></polygon></marker></defs><rect x="0.00" y="0.00" width="318.78" height="617.05" style="fill:#fff;stroke:none"></rect><path d="M146.44,74.05 L146.44,124.05" style="stroke:#333;stroke-width:1.5;fill:none" marker-end="url(#arrow-arrow-solid)"></path><path d="M146.44,236.11 L146.44,286.11" style="stroke:#333;stroke-width:1.5;fill:none" marker-end="url(#arrow-arrow-solid)"></path><rect x="133.14" y="232.45" width="26.59" height="28.32" rx="3.00" ry="3.00" style="fill:#fff;stroke:none"></rect><g style="fill:#333" transform="translate(137.14,236.45) scale(1.000)"><g transform="translate(0,-1.500)"><path d="M5.203 21.815 L2.641 14.596 L0.969 14.596 L0.969 13.268 L3.688 13.268 L5.828 19.518 L12.141 1.737 L13.484 1.737 L6.438 21.815 L5.203 21.815 Z" style="fill:#333"></path><rect x="6.39" y="1.50" width="12.20" height="1.50" style="fill:#333"></rect><path d="M9.827 21.375 L14.483 14.797 L10.030 8.516 L12.436 8.516 L15.749 13.359 L19.030 8.516 L21.420 8.516 L16.967 14.797 L21.655 21.375 L19.249 21.375 L15.749 16.234 L12.202 21.375 L9.827 21.375 Z" style="fill:#333"></path></g></g><path d="M146.44,340.16 L146.44,390.16" style="stroke:#333;stroke-width:1.5;fill:none" marker-end="url(#arrow-arrow-solid)"></path><path d="M126.37,472.93 L81.54,543.00" style="stroke:#333;stroke-width:1.5;fill:none" marker-end="url(#arrow-arrow-solid)"></path><rect x="97.49" y="486.26" width="15.69" height="39.08" rx="3.00" ry="3.00" style="fill:#fff;stroke:none"></rect><g style="fill:#333" transform="translate(101.49,490.26) scale(1.000)"><g transform="translate(0,-0.566)"><path d="M4.297 11.987 L4.297 4.003 Q4.297 3.316 4.312 2.894 Q4.344 2.487 4.375 2.034 Q4.109 2.269 3.906 2.472 Q3.703 2.644 3.375 2.909 L2.156 3.909 L1.422 2.956 L4.516 0.566 L5.688 0.566 L5.688 11.987 L4.297 11.987 Z" style="fill:#333"></path><rect x="0.00" y="16.49" width="4.69" height="1.50" style="fill:#333"></rect><path d="M0.766 31.650 L0.766 30.478 L3.766 27.462 Q4.625 26.587 5.219 25.916 Q5.812 25.244 6.109 24.603 Q6.422 23.947 6.422 23.181 Q6.422 22.244 5.859 21.759 Q5.297 21.259 4.406 21.259 Q3.562 21.259 2.922 21.556 Q2.297 21.837 1.641 22.353 L0.891 21.416 Q1.562 20.853 2.438 20.462 Q3.312 20.072 4.406 20.072 Q6.000 20.072 6.922 20.884 Q7.859 21.681 7.859 23.103 Q7.859 24.009 7.484 24.791 Q7.125 25.556 6.469 26.322 Q5.812 27.087 4.922 27.947 L2.547 30.306 L2.547 30.369 L8.312 30.369 L8.312 31.650 L0.766 31.650 Z" style="fill:#333"></path></g></g><path d="M166.50,472.93 L211.34,543.00" style="stroke:#333;stroke-width:1.5;fill:none" marker-end="url(#arrow-arrow-solid)"></path><rect x="174.91" y="491.21" width="25.25" height="29.18" rx="3.00" ry="3.00" style="fill:#fff;stroke:none"></rect><g style="fill:#333" transform="translate(178.91,495.21) scale(1.000)"><g transform="translate(0.000,0)"><g transform="translate(0,0.016)"><path d="M13.109 13.328 Q10.438 13.328 10.438 10.266 L10.438 1.984 L4.984 1.984 L4.984 13.094 L2.906 13.094 L2.906 1.984 L0.281 1.984 L0.281 1.062 L2.016 0.234 L15.047 0.234 L15.047 1.984 L12.531 1.984 L12.531 10.125 Q12.531 10.953 12.844 11.297 Q13.156 11.609 13.625 11.609 Q13.969 11.609 14.234 11.531 Q14.516 11.469 14.688 11.359 L14.688 13.016 Q14.500 13.125 14.062 13.219 Q13.656 13.328 13.109 13.328 Z" style="fill:#333"></path><path d="M9.770 13.094 L9.770 0.234 L11.488 0.234 L11.738 2.578 L11.832 2.578 Q12.457 1.531 13.441 0.750 Q14.426 -0.016 15.770 -0.016 Q16.129 -0.016 16.535 0.031 Q16.957 0.062 17.270 0.141 L17.004 2.078 Q16.691 2.000 16.316 1.953 Q15.957 1.906 15.613 1.906 Q14.629 1.906 13.770 2.469 Q12.910 2.984 12.379 3.969 Q11.879 4.938 11.879 6.234 L11.879 13.094 L9.770 13.094 Z" style="fill:#333"></path></g></g><g transform="translate(12.562,-9.600)"><g transform="translate(0,-0.584)"><path d="M0.766 12.162 L0.766 10.991 L3.766 7.975 Q4.625 7.100 5.219 6.428 Q5.812 5.756 6.109 5.116 Q6.422 4.459 6.422 3.694 Q6.422 2.756 5.859 2.272 Q5.297 1.772 4.406 1.772 Q3.562 1.772 2.922 2.069 Q2.297 2.350 1.641 2.866 L0.891 1.928 Q1.562 1.366 2.438 0.975 Q3.312 0.584 4.406 0.584 Q6.000 0.584 6.922 1.397 Q7.859 2.194 7.859 3.616 Q7.859 4.522 7.484 5.303 Q7.125 6.069 6.469 6.834 Q5.812 7.600 4.922 8.459 L2.547 10.819 L2.547 10.881 L8.312 10.881 L8.312 12.162 L0.766 12.162 Z" style="fill:#333"></path></g></g></g><rect x="99.45" y="20.00" width="93.97" height="54.05" rx="2.00" ry="2.00" style="fill:#ECECFF;stroke:#9370DB;stroke-width:1.50"></rect><text x="146.44" y="47.03" text-anchor="middle" dominant-baseline="central" font-size="16.00" style="fill:#333;font-size:16.00px">Start</text><polygon points="146.44,124.05 202.47,180.08 146.44,236.11 90.41,180.08" style="fill:#ECECFF;stroke:#9370DB;stroke-width:1.50"></polygon><g style="fill:#333" transform="translate(120.41,163.70) scale(1.000)"><g transform="translate(0.000,0)"><g transform="translate(0,-0.619)"><path d="M4.406 12.931 Q2.797 12.931 1.844 11.837 Q0.875 10.712 0.875 8.509 Q0.875 6.291 1.844 5.181 Q2.812 4.041 4.422 4.041 Q5.406 4.041 6.031 4.400 Q6.672 4.775 7.078 5.306 L7.172 5.306 Q7.156 5.087 7.109 4.697 Q7.078 4.275 7.078 4.041 L7.078 0.619 L8.484 0.619 L8.484 12.775 L7.344 12.775 L7.141 11.619 L7.078 11.619 Q6.688 12.166 6.047 12.556 Q5.406 12.931 4.406 12.931 Z M4.625 11.759 Q5.984 11.759 6.531 11.025 Q7.094 10.275 7.094 8.775 L7.094 8.525 Q7.094 6.916 6.562 6.072 Q6.031 5.212 4.609 5.212 Q3.469 5.212 2.891 6.119 Q2.344 7.009 2.344 8.541 Q2.344 10.072 2.891 10.916 Q3.469 11.759 4.625 11.759 Z" style="fill:#333"></path><path d="M5.326 12.775 L8.436 8.384 L5.482 4.197 L7.076 4.197 L9.279 7.431 L11.482 4.197 L13.061 4.197 L10.107 8.384 L13.217 12.775 L11.623 12.775 L9.279 9.353 L6.920 12.775 L5.326 12.775 Z" style="fill:#333"></path><rect x="0.00" y="17.45" width="9.38" height="1.50" style="fill:#333"></rect><path d="M5.406 33.381 Q3.797 33.381 2.844 32.287 Q1.875 31.162 1.875 28.959 Q1.875 26.741 2.844 25.631 Q3.812 24.491 5.422 24.491 Q6.406 24.491 7.031 24.850 Q7.672 25.225 8.078 25.756 L8.172 25.756 Q8.156 25.537 8.109 25.147 Q8.078 24.725 8.078 24.491 L8.078 21.069 L9.484 21.069 L9.484 33.225 L8.344 33.225 L8.141 32.069 L8.078 32.069 Q7.688 32.616 7.047 33.006 Q6.406 33.381 5.406 33.381 Z M5.625 32.209 Q6.984 32.209 7.531 31.475 Q8.094 30.725 8.094 29.225 L8.094 28.975 Q8.094 27.366 7.562 26.522 Q7.031 25.662 5.609 25.662 Q4.469 25.662 3.891 26.569 Q3.344 27.459 3.344 28.991 Q3.344 30.522 3.891 31.366 Q4.469 32.209 5.625 32.209 Z" style="fill:#333"></path><path d="M10.029 33.381 Q9.357 33.381 8.779 33.162 Q8.217 32.928 7.873 32.350 Q7.514 31.772 7.514 30.725 L7.514 25.741 L6.295 25.741 L6.295 25.069 L7.529 24.506 L8.092 22.678 L8.920 22.678 L8.920 24.647 L11.404 24.647 L11.404 25.741 L8.920 25.741 L8.920 30.694 Q8.920 31.475 9.295 31.866 Q9.670 32.241 10.264 32.241 Q10.592 32.241 10.920 32.178 Q11.264 32.116 11.467 32.053 L11.467 33.131 Q11.248 33.241 10.826 33.303 Q10.420 33.381 10.029 33.381 Z" style="fill:#333"></path><path d="M15.795 14.419 L15.795 12.716 L27.076 12.716 L27.076 14.419 L15.795 14.419 Z M15.795 19.184 L15.795 17.481 L27.076 17.481 L27.076 19.184 L15.795 19.184 Z" style="fill:#333"></path><path d="M26.080 22.622 L26.080 11.387 L23.830 11.387 L23.830 10.403 L26.080 9.684 L26.080 8.934 Q26.080 6.450 27.189 5.372 Q28.298 4.262 30.267 4.262 Q31.033 4.262 31.658 4.403 Q32.298 4.528 32.752 4.700 L32.205 6.356 Q31.830 6.231 31.314 6.106 Q30.814 5.997 30.283 5.997 Q29.236 5.997 28.705 6.716 Q28.205 7.403 28.205 8.919 L28.205 9.762 L31.439 9.762 L31.439 11.387 L28.205 11.387 L28.205 22.622 L26.080 22.622 Z" style="fill:#333"></path><path d="M32.658 26.419 Q30.502 24.137 29.470 21.231 Q28.455 18.325 28.455 15.200 Q28.455 12.044 29.470 9.091 Q30.502 6.137 32.658 3.809 L34.658 3.809 Q32.642 6.231 31.611 9.184 Q30.595 12.106 30.595 15.184 Q30.595 18.200 31.627 21.106 Q32.658 23.997 34.627 26.419 L32.658 26.419 Z" style="fill:#333"></path><path d="M31.783 22.622 L36.439 16.044 L31.986 9.762 L34.392 9.762 L37.705 14.606 L40.986 9.762 L43.377 9.762 L38.923 16.044 L43.611 22.622 L41.205 22.622 L37.705 17.481 L34.158 22.622 L31.783 22.622 Z" style="fill:#333"></path></g></g><g transform="translate(37.545,20.400)"><path d="M0.984 3.094 Q1.312 1.734 1.656 0.094 Q2.016 -1.531 2.188 -2.781 L4.438 -2.781 L4.609 -2.516 Q4.297 -1.250 3.703 0.266 Q3.125 1.797 2.547 3.094 L0.984 3.094 Z" style="fill:#333"></path></g><g transform="translate(43.982,0)"><g transform="translate(0,-0.000)"><path d="M5.969 19.047 Q4.969 19.047 4.109 18.719 Q3.266 18.359 2.734 17.500 Q2.203 16.625 2.203 15.062 L2.203 7.578 L0.391 7.578 L0.391 6.578 L2.234 5.734 L3.078 3.000 L4.312 3.000 L4.312 5.953 L8.047 5.953 L8.047 7.578 L4.312 7.578 L4.312 15.016 Q4.312 16.203 4.875 16.766 Q5.453 17.328 6.344 17.328 Q6.812 17.328 7.312 17.250 Q7.828 17.156 8.141 17.062 L8.141 18.672 Q7.797 18.844 7.172 18.938 Q6.547 19.047 5.969 19.047 Z" style="fill:#333"></path><path d="M4.980 22.609 Q6.965 20.188 7.980 17.297 Q9.012 14.391 9.012 11.375 Q9.012 8.297 7.980 5.375 Q6.965 2.422 4.949 0.000 L6.949 0.000 Q9.105 2.328 10.105 5.281 Q11.137 8.234 11.137 11.391 Q11.137 14.516 10.105 17.422 Q9.105 20.328 6.949 22.609 L4.980 22.609 Z" style="fill:#333"></path></g></g></g><rect x="87.53" y="286.11" width="117.81" height="54.05" rx="2.00" ry="2.00" style="fill:#ECECFF;stroke:#9370DB;stroke-width:1.50"></rect><text x="146.44" y="313.13" text-anchor="middle" dominant-baseline="central" font-size="16.00" style="fill:#333;font-size:16.00px">Process</text><polygon points="146.44,390.16 197.86,441.58 146.44,493.00 95.02,441.58" style="fill:#ECECFF;stroke:#9370DB;stroke-width:1.50"></polygon><g style="fill:#333" transform="translate(125.02,429.52) scale(1.000)"><g transform="translate(0,-0.016)"><path d="M6.594 18.609 Q4.250 18.609 2.781 16.953 Q1.312 15.281 1.312 11.984 Q1.312 8.734 2.766 7.000 Q4.203 5.266 6.797 5.266 Q8.203 5.266 9.141 5.781 Q10.109 6.250 10.734 7.234 L10.875 7.234 Q10.984 6.828 11.188 6.344 Q11.375 5.875 11.641 5.516 L13.297 5.516 Q13.125 6.031 12.984 6.906 Q12.844 7.766 12.766 8.734 Q12.703 9.688 12.703 10.547 L12.703 15.547 Q12.703 16.281 12.984 16.594 Q13.266 16.891 13.688 16.891 Q13.875 16.891 14.094 16.844 Q14.297 16.797 14.406 16.766 L14.406 18.297 Q14.234 18.406 13.844 18.500 Q13.469 18.609 13.062 18.609 Q12.172 18.609 11.594 18.188 Q11.047 17.750 10.781 16.641 L10.609 16.641 Q10.062 17.469 9.141 18.031 Q8.234 18.609 6.594 18.609 Z M6.953 16.859 Q8.953 16.859 9.766 15.734 Q10.609 14.578 10.609 12.109 L10.609 11.969 Q10.609 9.562 9.812 8.312 Q9.047 7.047 6.938 7.047 Q5.188 7.047 4.344 8.312 Q3.500 9.594 3.500 12.016 Q3.500 14.422 4.312 15.641 Q5.156 16.859 6.953 16.859 Z" style="fill:#333"></path><path d="M15.398 17.516 L15.398 12.562 L10.617 12.562 L10.617 10.859 L15.398 10.859 L15.398 5.891 L17.133 5.891 L17.133 10.859 L21.898 10.859 L21.898 12.562 L17.133 12.562 L17.133 17.516 L15.398 17.516 Z" style="fill:#333"></path><path d="M20.340 24.141 L20.340 5.531 Q20.340 3.594 21.074 2.391 Q21.824 1.172 23.121 0.594 Q24.418 0.016 26.074 0.016 Q27.684 0.016 28.918 0.547 Q30.168 1.047 30.871 2.062 Q31.590 3.062 31.590 4.594 Q31.590 6.328 30.652 7.328 Q29.715 8.344 27.934 8.625 L27.934 8.734 Q30.121 8.969 31.230 10.141 Q32.355 11.312 32.355 13.500 Q32.355 15.969 30.793 17.297 Q29.262 18.609 26.496 18.609 Q25.105 18.609 24.152 18.406 Q23.215 18.188 22.449 17.797 L22.449 24.141 L20.340 24.141 Z M26.309 16.891 Q28.371 16.891 29.309 15.969 Q30.246 15.031 30.246 13.359 Q30.246 11.469 29.090 10.594 Q27.934 9.719 26.074 9.719 L24.793 9.719 L24.793 7.938 L25.824 7.938 Q27.699 7.938 28.559 7.047 Q29.434 6.156 29.434 4.688 Q29.434 3.203 28.496 2.484 Q27.574 1.766 26.027 1.766 Q25.059 1.766 24.246 2.109 Q23.434 2.438 22.918 3.281 Q22.449 4.125 22.449 5.625 L22.449 15.906 Q23.277 16.328 24.168 16.625 Q25.090 16.891 26.309 16.891 Z" style="fill:#333"></path><path d="M29.098 10.172 L29.098 8.469 L40.379 8.469 L40.379 10.172 L29.098 10.172 Z M29.098 14.938 L29.098 13.234 L40.379 13.234 L40.379 14.938 L29.098 14.938 Z" style="fill:#333"></path><path d="M40.883 24.141 Q40.883 23.469 41.023 22.453 Q41.195 21.453 41.461 20.312 Q41.742 19.219 42.102 18.234 L36.898 5.516 L39.070 5.516 L41.789 12.250 Q42.055 12.875 42.320 13.641 Q42.586 14.422 42.805 15.109 Q43.008 15.812 43.086 16.234 L43.180 16.234 Q43.258 15.859 43.445 15.141 Q43.664 14.422 43.898 13.641 Q44.164 12.875 44.352 12.344 L46.898 5.516 L49.086 5.516 L44.336 18.062 Q43.977 19.016 43.711 20.125 Q43.445 21.234 43.305 22.266 Q43.164 23.312 43.164 24.141 L40.883 24.141 Z" style="fill:#333"></path></g></g><rect x="20.00" y="543.00" width="88.48" height="54.05" rx="2.00" ry="2.00" style="fill:#ECECFF;stroke:#9370DB;stroke-width:1.50"></rect><text x="64.24" y="570.03" text-anchor="middle" dominant-baseline="central" font-size="16.00" style="fill:#333;font-size:16.00px">End</text><rect x="158.48" y="543.00" width="140.30" height="54.05" rx="2.00" ry="2.00" style="fill:#ECECFF;stroke:#9370DB;stroke-width:1.50"></rect><text x="228.63" y="570.03" text-anchor="middle" dominant-baseline="central" font-size="16.00" style="fill:#333;font-size:16.00px">Circle Area</text></svg>