<?xml version="1.0" encoding="UTF-8"?>
<svg xmlns="http://www.w3.org/2000/svg" viewBox="0 0 318.78 523.05"><defs><marker id="arrow-arrow-solid" viewBox="0 0 10 10" refX="9.00" refY="5.00" markerWidth="8.00" markerHeight="8.00" orient="auto"><polygon points="0,0 10,5 0,10" style="fill:#333"></polygon></marker></defs><rect x="0.00" y="0.00" width="318.78" height="523.05" style="fill:#fff;stroke:none"></rect><path d="M146.44,74.05 L146.44,124.05" style="stroke:#333;stroke-width:1.5;fill:none" marker-end="url(#arrow-arrow-solid)"></path><path d="M146.44,184.53 L146.44,234.53" style="stroke:#333;stroke-width:1.5;fill:none" marker-end="url(#arrow-arrow-solid)"></path><rect x="142.37" y="194.32" width="8.14" height="27.20" rx="3.00" ry="3.00" style="fill:#fff;stroke:none"></rect><g transform="translate(146.37,207.92) scale(1.000)"><path d="M0.075 -9.686 C0.075 -9.684 0.073 -9.683 0.071 -9.683 L0.058 -9.683 C0.053 -9.683 0.053 -9.687 0.052 -9.691 L0.029 -9.778 C0.029 -9.780 0.028 -9.782 0.028 -9.784 L0.020 -9.744 L0.004 -9.768 L0.003 -9.770 L0.005 -9.772 L0.014 -9.758 C0.015 -9.762 0.016 -9.766 0.017 -9.770 L0.021 -9.793 L0.023 -9.802 C0.023 -9.802 0.023 -9.804 0.024 -9.804 L0.025 -9.804 C0.029 -9.804 0.029 -9.802 0.030 -9.800 L0.035 -9.778 L0.057 -9.694 C0.058 -9.692 0.058 -9.691 0.059 -9.689 L0.073 -9.689 C0.074 -9.689 0.075 -9.688 0.075 -9.686 "></path><rect x="2.86" y="-1.58" width="7.11" height="0.88"></rect><path d="M4.712 -10.742 L4.712 -10.736 C4.701 -10.736 4.698 -10.736 4.693 -10.730 L4.667 -10.696 C4.673 -10.689 4.680 -10.679 4.685 -10.674 C4.691 -10.667 4.699 -10.664 4.708 -10.664 L4.708 -10.658 C4.703 -10.658 4.697 -10.658 4.692 -10.658 C4.687 -10.658 4.676 -10.658 4.674 -10.658 L4.674 -10.664 C4.678 -10.664 4.679 -10.667 4.679 -10.670 C4.679 -10.673 4.677 -10.675 4.676 -10.677 L4.664 -10.692 L4.649 -10.672 C4.647 -10.670 4.647 -10.670 4.647 -10.669 C4.647 -10.666 4.650 -10.664 4.654 -10.664 L4.654 -10.658 L4.633 -10.658 C4.629 -10.658 4.619 -10.658 4.614 -10.658 L4.614 -10.664 C4.628 -10.664 4.628 -10.664 4.637 -10.676 L4.657 -10.701 C4.648 -10.713 4.648 -10.713 4.638 -10.724 C4.629 -10.736 4.617 -10.736 4.613 -10.736 L4.613 -10.742 C4.618 -10.742 4.624 -10.742 4.629 -10.742 L4.648 -10.742 L4.648 -10.736 C4.644 -10.736 4.642 -10.733 4.642 -10.730 C4.642 -10.726 4.648 -10.719 4.660 -10.705 L4.675 -10.725 C4.676 -10.727 4.679 -10.730 4.679 -10.731 C4.679 -10.733 4.677 -10.736 4.672 -10.736 L4.672 -10.742 L4.693 -10.742 C4.699 -10.742 4.706 -10.742 4.712 -10.742 "></path></g><path d="M146.44,288.58 L146.44,338.58" style="stroke:#333;stroke-width:1.5;fill:none" marker-end="url(#arrow-arrow-solid)"></path><path d="M133.33,385.89 L84.96,449.00" style="stroke:#333;stroke-width:1.5;fill:none" marker-end="url(#arrow-arrow-solid)"></path><rect x="101.31" y="408.81" width="8.06" height="27.20" rx="3.00" ry="3.00" style="fill:#fff;stroke:none"></rect><g transform="translate(105.31,422.41) scale(1.000)"><path d="M0.034 -6.271 L0.034 -6.268 L0.031 -6.268 C0.024 -6.268 0.024 -6.267 0.024 -6.264 L0.024 -6.219 C0.024 -6.217 0.024 -6.217 0.022 -6.217 C0.017 -6.222 0.010 -6.222 0.007 -6.222 L0.007 -6.224 C0.009 -6.224 0.014 -6.224 0.018 -6.222 L0.018 -6.264 C0.018 -6.267 0.018 -6.268 0.010 -6.268 L0.008 -6.268 L0.008 -6.271 C0.011 -6.270 0.018 -6.270 0.021 -6.270 C0.024 -6.270 0.031 -6.270 0.034 -6.271 "></path><rect x="0.00" y="-9.77" width="2.39" height="0.88"></rect><path d="M0.036 -17.152 L0.034 -17.152 C0.034 -17.154 0.033 -17.158 0.033 -17.159 C0.032 -17.160 0.027 -17.160 0.025 -17.160 L0.010 -17.160 L0.019 -17.152 C0.032 -17.140 0.036 -17.136 0.036 -17.128 C0.036 -17.119 0.029 -17.112 0.019 -17.112 C0.010 -17.112 0.004 -17.120 0.004 -17.127 C0.004 -17.131 0.008 -17.131 0.008 -17.131 C0.010 -17.131 0.013 -17.130 0.013 -17.127 C0.013 -17.125 0.011 -17.123 0.008 -17.123 C0.008 -17.123 0.007 -17.123 0.007 -17.123 C0.009 -17.118 0.013 -17.115 0.018 -17.115 C0.025 -17.115 0.029 -17.121 0.029 -17.128 C0.029 -17.134 0.025 -17.141 0.021 -17.146 L0.005 -17.163 C0.004 -17.164 0.004 -17.164 0.004 -17.166 L0.034 -17.166 L0.036 -17.152 "></path></g><path d="M159.55,385.89 L207.92,449.00" style="stroke:#333;stroke-width:1.5;fill:none" marker-end="url(#arrow-arrow-solid)"></path><rect x="155.54" y="408.81" width="64.00" height="27.20" rx="3.00" ry="3.00" style="fill:#fff;stroke:none"></rect><text x="187.54" y="422.41" text-anchor="middle" dominant-baseline="central" style="fill:#333;font-size:16.00px">\\pi r^2</text><rect x="99.45" y="20.00" width="93.97" height="54.05" rx="2.00" ry="2.00" style="fill:#ECECFF;stroke:#9370DB;stroke-width:1.50"></rect><text x="146.44" y="47.03" text-anchor="middle" dominant-baseline="central" font-size="16.00" style="fill:#333;font-size:16.00px">Start</text><polygon points="146.44,124.05 176.68,154.29 146.44,184.53 116.20,154.29" style="fill:#ECECFF;stroke:#9370DB;stroke-width:1.50"></polygon><g transform="translate(146.20,154.29) scale(1.000)"><path d="M0.043 -6.537 L0.043 -6.535 C0.037 -6.535 0.036 -6.534 0.036 -6.530 L0.036 -6.481 L0.025 -6.482 L0.025 -6.485 C0.030 -6.485 0.031 -6.485 0.031 -6.489 L0.031 -6.507 C0.029 -6.504 0.025 -6.502 0.021 -6.502 C0.011 -6.502 0.003 -6.510 0.003 -6.520 C0.003 -6.530 0.011 -6.538 0.020 -6.538 C0.025 -6.538 0.029 -6.536 0.031 -6.533 L0.031 -6.538 L0.043 -6.537 M0.031 -6.528 C0.031 -6.529 0.031 -6.530 0.030 -6.531 C0.027 -6.535 0.024 -6.537 0.020 -6.537 C0.017 -6.537 0.014 -6.534 0.012 -6.531 C0.010 -6.528 0.009 -6.523 0.009 -6.520 C0.009 -6.517 0.010 -6.512 0.012 -6.509 C0.014 -6.506 0.017 -6.503 0.021 -6.503 C0.024 -6.503 0.027 -6.505 0.030 -6.508 C0.031 -6.510 0.031 -6.510 0.031 -6.511 L0.031 -6.528 "></path><path d="M2.702 -6.537 L2.702 -6.535 C2.698 -6.535 2.697 -6.535 2.695 -6.532 L2.684 -6.518 C2.686 -6.515 2.689 -6.511 2.691 -6.509 C2.694 -6.506 2.697 -6.505 2.701 -6.505 L2.701 -6.503 C2.699 -6.503 2.696 -6.503 2.694 -6.503 C2.692 -6.503 2.688 -6.503 2.686 -6.503 L2.686 -6.505 C2.688 -6.505 2.689 -6.506 2.689 -6.507 C2.689 -6.509 2.688 -6.510 2.688 -6.510 L2.683 -6.517 L2.676 -6.508 C2.676 -6.508 2.676 -6.507 2.676 -6.507 C2.676 -6.506 2.677 -6.505 2.678 -6.505 L2.678 -6.503 L2.670 -6.503 C2.668 -6.503 2.664 -6.503 2.662 -6.503 L2.662 -6.505 C2.668 -6.505 2.668 -6.505 2.672 -6.510 L2.680 -6.520 C2.676 -6.525 2.676 -6.525 2.672 -6.530 C2.668 -6.535 2.663 -6.535 2.662 -6.535 L2.662 -6.537 C2.664 -6.537 2.666 -6.537 2.668 -6.537 L2.676 -6.537 L2.676 -6.535 C2.674 -6.535 2.674 -6.534 2.674 -6.532 C2.674 -6.531 2.676 -6.528 2.681 -6.522 L2.687 -6.530 C2.688 -6.531 2.689 -6.532 2.689 -6.533 C2.689 -6.534 2.688 -6.535 2.686 -6.535 L2.686 -6.537 L2.695 -6.537 C2.697 -6.537 2.700 -6.537 2.702 -6.537 "></path><rect x="0.00" y="-10.14" width="5.19" height="0.88"></rect><path d="M0.043 -17.816 L0.043 -17.813 C0.037 -17.813 0.036 -17.813 0.036 -17.809 L0.036 -17.760 L0.025 -17.761 L0.025 -17.763 C0.030 -17.763 0.031 -17.763 0.031 -17.768 L0.031 -17.785 C0.029 -17.782 0.025 -17.780 0.021 -17.780 C0.011 -17.780 0.003 -17.788 0.003 -17.798 C0.003 -17.809 0.011 -17.817 0.020 -17.817 C0.025 -17.817 0.029 -17.814 0.031 -17.811 L0.031 -17.817 L0.043 -17.816 M0.031 -17.806 C0.031 -17.808 0.031 -17.808 0.030 -17.809 C0.027 -17.813 0.024 -17.815 0.020 -17.815 C0.017 -17.815 0.014 -17.813 0.012 -17.810 C0.010 -17.806 0.009 -17.802 0.009 -17.799 C0.009 -17.795 0.010 -17.791 0.012 -17.787 C0.014 -17.784 0.017 -17.782 0.021 -17.782 C0.024 -17.782 0.027 -17.783 0.030 -17.787 C0.031 -17.788 0.031 -17.788 0.031 -17.790 L0.031 -17.806 "></path><path d="M2.687 -17.806 L2.687 -17.801 L2.685 -17.801 L2.685 -17.806 C2.685 -17.812 2.683 -17.815 2.680 -17.815 C2.675 -17.815 2.675 -17.807 2.675 -17.806 L2.675 -17.783 L2.686 -17.783 L2.686 -17.781 L2.675 -17.781 L2.675 -17.766 L2.672 -17.766 C2.672 -17.773 2.670 -17.781 2.662 -17.782 L2.662 -17.783 L2.669 -17.783 L2.669 -17.806 C2.669 -17.816 2.676 -17.817 2.679 -17.817 C2.685 -17.817 2.687 -17.811 2.687 -17.806 "></path><path d="M9.355 -11.821 C9.355 -11.818 9.351 -11.818 9.348 -11.818 L9.231 -11.818 C9.228 -11.818 9.224 -11.818 9.224 -11.821 C9.224 -11.825 9.228 -11.825 9.231 -11.825 L9.348 -11.825 C9.351 -11.825 9.355 -11.825 9.355 -11.821 M9.355 -11.860 C9.355 -11.856 9.351 -11.856 9.348 -11.856 L9.231 -11.856 C9.228 -11.856 9.224 -11.856 9.224 -11.860 C9.224 -11.863 9.228 -11.863 9.231 -11.863 L9.348 -11.863 C9.351 -11.863 9.355 -11.863 9.355 -11.860 "></path><path d="M16.878 -11.765 C16.878 -11.758 16.871 -11.751 16.860 -11.751 C16.847 -11.751 16.830 -11.762 16.830 -11.783 L16.830 -11.805 L16.815 -11.805 L16.815 -11.811 L16.830 -11.811 L16.830 -11.875 C16.830 -11.883 16.828 -11.883 16.815 -11.883 L16.815 -11.889 L16.837 -11.889 C16.845 -11.889 16.854 -11.889 16.862 -11.889 L16.862 -11.883 L16.858 -11.883 C16.843 -11.883 16.843 -11.881 16.843 -11.874 L16.843 -11.811 L16.866 -11.811 L16.866 -11.805 L16.843 -11.805 L16.843 -11.782 C16.843 -11.765 16.852 -11.756 16.860 -11.756 C16.861 -11.756 16.864 -11.756 16.867 -11.757 C16.865 -11.758 16.861 -11.760 16.861 -11.765 C16.861 -11.770 16.864 -11.774 16.869 -11.774 C16.875 -11.774 16.878 -11.770 16.878 -11.765 "></path><path d="M18.965 -11.937 C18.965 -11.936 18.965 -11.936 18.961 -11.932 C18.937 -11.907 18.931 -11.870 18.931 -11.840 C18.931 -11.806 18.938 -11.772 18.962 -11.748 C18.965 -11.745 18.965 -11.745 18.965 -11.744 C18.965 -11.743 18.964 -11.742 18.963 -11.742 C18.961 -11.742 18.943 -11.756 18.932 -11.781 C18.922 -11.802 18.919 -11.824 18.919 -11.840 C18.919 -11.856 18.922 -11.879 18.932 -11.902 C18.944 -11.926 18.961 -11.938 18.963 -11.938 C18.964 -11.938 18.965 -11.938 18.965 -11.937 "></path><path d="M21.660 -11.889 L21.660 -11.883 C21.650 -11.883 21.646 -11.883 21.642 -11.877 L21.615 -11.843 C21.621 -11.836 21.629 -11.826 21.634 -11.821 C21.639 -11.814 21.648 -11.811 21.657 -11.811 L21.657 -11.805 C21.652 -11.805 21.646 -11.806 21.641 -11.806 C21.635 -11.806 21.624 -11.805 21.622 -11.805 L21.622 -11.811 C21.626 -11.811 21.628 -11.814 21.628 -11.817 C21.628 -11.820 21.626 -11.823 21.625 -11.824 L21.613 -11.839 L21.597 -11.819 C21.595 -11.818 21.595 -11.817 21.595 -11.816 C21.595 -11.813 21.598 -11.811 21.602 -11.811 L21.602 -11.805 L21.581 -11.806 C21.577 -11.806 21.568 -11.805 21.562 -11.805 L21.562 -11.811 C21.576 -11.811 21.576 -11.811 21.586 -11.823 L21.605 -11.848 C21.596 -11.860 21.596 -11.860 21.587 -11.872 C21.577 -11.883 21.566 -11.883 21.562 -11.883 L21.562 -11.889 C21.567 -11.889 21.573 -11.889 21.578 -11.889 L21.596 -11.889 L21.596 -11.883 C21.592 -11.883 21.591 -11.880 21.591 -11.877 C21.591 -11.873 21.596 -11.867 21.608 -11.853 L21.623 -11.872 C21.625 -11.874 21.627 -11.877 21.627 -11.879 C21.627 -11.880 21.626 -11.883 21.620 -11.883 L21.620 -11.889 L21.641 -11.889 C21.647 -11.889 21.654 -11.889 21.660 -11.889 "></path><path d="M25.208 -11.889 C25.208 -11.877 25.204 -11.869 25.196 -11.869 C25.189 -11.869 25.185 -11.874 25.185 -11.879 C25.185 -11.884 25.189 -11.889 25.196 -11.889 C25.199 -11.889 25.202 -11.888 25.204 -11.886 C25.204 -11.902 25.199 -11.914 25.190 -11.923 C25.189 -11.924 25.188 -11.924 25.188 -11.925 C25.188 -11.926 25.190 -11.927 25.190 -11.927 C25.193 -11.927 25.208 -11.912 25.208 -11.889 "></path><path d="M29.410 -11.865 L29.410 -11.854 L29.405 -11.854 L29.405 -11.865 C29.405 -11.879 29.400 -11.887 29.392 -11.887 C29.379 -11.887 29.379 -11.869 29.379 -11.866 L29.379 -11.811 L29.407 -11.811 L29.407 -11.805 L29.379 -11.805 L29.379 -11.769 L29.374 -11.769 C29.374 -11.785 29.368 -11.806 29.349 -11.807 L29.349 -11.811 L29.366 -11.811 L29.366 -11.865 C29.366 -11.889 29.384 -11.892 29.391 -11.892 C29.405 -11.892 29.410 -11.878 29.410 -11.865 "></path><path d="M32.061 -11.840 C32.061 -11.825 32.059 -11.802 32.048 -11.779 C32.036 -11.755 32.020 -11.742 32.018 -11.742 C32.017 -11.742 32.016 -11.743 32.016 -11.744 C32.016 -11.745 32.016 -11.745 32.019 -11.749 C32.039 -11.768 32.050 -11.800 32.050 -11.840 C32.050 -11.874 32.043 -11.909 32.018 -11.933 C32.016 -11.936 32.016 -11.936 32.016 -11.937 C32.016 -11.938 32.017 -11.938 32.018 -11.938 C32.020 -11.938 32.037 -11.925 32.049 -11.900 C32.059 -11.879 32.061 -11.857 32.061 -11.840 "></path></g><rect x="87.53" y="234.53" width="117.81" height="54.05" rx="2.00" ry="2.00" style="fill:#ECECFF;stroke:#9370DB;stroke-width:1.50"></rect><text x="146.44" y="261.56" text-anchor="middle" dominant-baseline="central" font-size="16.00" style="fill:#333;font-size:16.00px">Process</text><polygon points="146.44,338.58 176.65,368.79 146.44,399.00 116.23,368.79" style="fill:#ECECFF;stroke:#9370DB;stroke-width:1.50"></polygon><g transform="translate(146.23,368.79) scale(1.000)"><path d="M0.087 -10.351 C0.087 -10.351 0.087 -10.350 0.086 -10.347 L0.019 -10.163 C0.018 -10.161 0.018 -10.159 0.015 -10.159 C0.013 -10.159 0.011 -10.160 0.011 -10.162 C0.011 -10.162 0.011 -10.163 0.012 -10.166 L0.079 -10.350 C0.079 -10.352 0.080 -10.355 0.083 -10.355 C0.085 -10.355 0.087 -10.353 0.087 -10.351 "></path><path d="M5.836 -10.257 C5.836 -10.253 5.832 -10.253 5.829 -10.253 L5.774 -10.253 L5.774 -10.198 C5.774 -10.195 5.774 -10.191 5.771 -10.191 C5.767 -10.191 5.767 -10.195 5.767 -10.198 L5.767 -10.253 L5.712 -10.253 C5.709 -10.253 5.705 -10.253 5.705 -10.257 C5.705 -10.260 5.709 -10.260 5.712 -10.260 L5.767 -10.260 L5.767 -10.315 C5.767 -10.318 5.767 -10.322 5.771 -10.322 C5.774 -10.322 5.774 -10.318 5.774 -10.315 L5.774 -10.260 L5.829 -10.260 C5.832 -10.260 5.836 -10.260 5.836 -10.257 "></path><path d="M13.376 -10.351 C13.376 -10.351 13.376 -10.350 13.375 -10.347 L13.308 -10.163 C13.307 -10.161 13.307 -10.159 13.304 -10.159 C13.302 -10.159 13.300 -10.160 13.300 -10.162 C13.300 -10.162 13.300 -10.163 13.301 -10.166 L13.368 -10.350 C13.368 -10.352 13.369 -10.355 13.372 -10.355 C13.374 -10.355 13.376 -10.353 13.376 -10.351 "></path><path d="M19.125 -10.238 C19.125 -10.234 19.121 -10.234 19.118 -10.234 L19.001 -10.234 C18.998 -10.234 18.994 -10.234 18.994 -10.238 C18.994 -10.241 18.998 -10.241 19.001 -10.241 L19.118 -10.241 C19.121 -10.241 19.125 -10.241 19.125 -10.238 M19.125 -10.276 C19.125 -10.272 19.121 -10.272 19.118 -10.272 L19.001 -10.272 C18.998 -10.272 18.994 -10.272 18.994 -10.276 C18.994 -10.280 18.998 -10.280 19.001 -10.280 L19.118 -10.280 C19.121 -10.280 19.125 -10.280 19.125 -10.276 "></path><path d="M26.665 -10.351 C26.665 -10.351 26.665 -10.350 26.664 -10.347 L26.597 -10.163 C26.596 -10.161 26.596 -10.159 26.593 -10.159 C26.591 -10.159 26.589 -10.160 26.589 -10.162 C26.589 -10.162 26.589 -10.163 26.590 -10.166 L26.657 -10.350 C26.658 -10.352 26.658 -10.355 26.661 -10.355 C26.663 -10.355 26.665 -10.353 26.665 -10.351 "></path></g><rect x="20.00" y="449.00" width="88.48" height="54.05" rx="2.00" ry="2.00" style="fill:#ECECFF;stroke:#9370DB;stroke-width:1.50"></rect><text x="64.24" y="476.02" text-anchor="middle" dominant-baseline="central" font-size="16.00" style="fill:#333;font-size:16.00px">End</text><rect x="158.48" y="449.00" width="140.30" height="54.05" rx="2.00" ry="2.00" style="fill:#ECECFF;stroke:#9370DB;stroke-width:1.50"></rect><text x="228.63" y="476.02" text-anchor="middle" dominant-baseline="central" font-size="16.00" style="fill:#333;font-size:16.00px">Circle Area</text></svg>