<?xml version="1.0" encoding="UTF-8"?>
<svg xmlns="http://www.w3.org/2000/svg" viewBox="0 0 168.00 544.05"><defs><marker id="arrow-arrow-solid" viewBox="0 0 10 10" refX="9.00" refY="5.00" markerWidth="8.00" markerHeight="8.00" orient="auto"><polygon points="0,0 10,5 0,10" style="fill:#333"></polygon></marker></defs><rect x="0.00" y="0.00" width="168.00" height="544.05" style="fill:#fff;stroke:none"></rect><g transform="translate(9.88,0.00) translate(0,90.00)"><g id="one"><rect x="-9.88" y="-70.00" width="168.00" height="454.00" rx="5.00" ry="5.00" style="fill:#eee;stroke:#999;stroke-width:1.50"></rect><text x="74.12" y="-52.00" text-anchor="middle" dominant-baseline="central" font-size="16.00" style="fill:#333;font-size:16.00px">Layer 1</text><g id="two"><rect x="8.12" y="50.00" width="132.00" height="316.00" rx="5.00" ry="5.00" style="fill:#eee;stroke:#999;stroke-width:1.50"></rect><text x="74.12" y="68.00" text-anchor="middle" dominant-baseline="central" font-size="16.00" style="fill:#333;font-size:16.00px">Layer 2</text><g id="three"><rect x="26.12" y="170.00" width="96.00" height="178.00" rx="5.00" ry="5.00" style="fill:#eee;stroke:#999;stroke-width:1.50"></rect><text x="74.12" y="188.00" text-anchor="middle" dominant-baseline="central" font-size="16.00" style="fill:#333;font-size:16.00px">Layer 3</text></g></g></g><path d="M74.12,60.00 L74.12,110.00" style="stroke:#333;stroke-width:1.5;fill:none" marker-end="url(#arrow-arrow-solid)"></path><path d="M74.12,150.00 L74.12,200.00" style="stroke:#333;stroke-width:1.5;fill:none" marker-end="url(#arrow-arrow-solid)"></path><path d="M74.12,240.00 L74.12,290.00" style="stroke:#333;stroke-width:1.5;fill:none" marker-end="url(#arrow-arrow-solid)"></path><path d="M74.12,330.00 L74.12,380.00" style="stroke:#333;stroke-width:1.5;fill:none" marker-end="url(#arrow-arrow-solid)"></path><rect x="20.00" y="380.00" width="108.23" height="54.05" rx="2.00" ry="2.00" style="fill:#ECECFF;stroke:#9370DB;stroke-width:1.50"></rect><text x="74.12" y="407.03" text-anchor="middle" dominant-baseline="central" font-size="16.00" style="fill:#333;font-size:16.00px">Output</text><rect x="44.12" y="20.00" width="60.00" height="40.00" style="fill:#ECECFF;stroke:#9370DB;stroke-width:1.50"></rect><text x="74.12" y="40.00" text-anchor="middle" dominant-baseline="central" font-size="16.00" style="fill:#333;font-size:16.00px">A</text><rect x="44.12" y="110.00" width="60.00" height="40.00" style="fill:#ECECFF;stroke:#9370DB;stroke-width:1.50"></rect><text x="74.12" y="130.00" text-anchor="middle" dominant-baseline="central" font-size="16.00" style="fill:#333;font-size:16.00px">B</text><rect x="44.12" y="200.00" width="60.00" height="40.00" style="fill:#ECECFF;stroke:#9370DB;stroke-width:1.50"></rect><text x="74.12" y="220.00" text-anchor="middle" dominant-baseline="central" font-size="16.00" style="fill:#333;font-size:16.00px">C</text><rect x="44.12" y="290.00" width="60.00" height="40.00" style="fill:#ECECFF;stroke:#9370DB;stroke-width:1.50"></rect><text x="74.12" y="310.00" text-anchor="middle" dominant-baseline="central" font-size="16.00" style="fill:#333;font-size:16.00px">D</text></g></svg>