<?xml version="1.0" encoding="UTF-8"?>
<svg xmlns="http://www.w3.org/2000/svg" viewBox="0 0 232.71 543.20"><defs><marker id="arrow-arrow-solid" viewBox="0 0 10 10" refX="9.00" refY="5.00" markerWidth="8.00" markerHeight="8.00" orient="auto"><polygon points="0,0 10,5 0,10" style="fill:#333"></polygon></marker></defs><rect x="0.00" y="0.00" width="232.71" height="543.20" style="fill:#fff;stroke:none"></rect><line x1="179.93" y1="409.90" x2="121.92" y2="502.10" style="stroke:#333;stroke-width:1.50;fill:none;" marker-end="url(#arrow-arrow-solid)"></line><line x1="121.92" y1="133.30" x2="121.92" y2="225.50" style="stroke:#333;stroke-width:1.50;fill:none;" marker-end="url(#arrow-arrow-solid)"></line><line x1="63.91" y1="317.70" x2="63.91" y2="409.90" style="stroke:#333;stroke-width:1.50;fill:none;" marker-end="url(#arrow-arrow-solid)"></line><line x1="121.92" y1="41.10" x2="121.92" y2="133.30" style="stroke:#333;stroke-width:1.50;fill:none;" marker-end="url(#arrow-arrow-solid)"></line><line x1="63.91" y1="409.90" x2="121.92" y2="502.10" style="stroke:#333;stroke-width:1.50;fill:none;" marker-end="url(#arrow-arrow-solid)"></line><path d="M121.92,225.50 C131.59,240.87 170.26,286.97 179.93,317.70 C189.60,348.43 179.93,394.53 179.93,409.90" style="stroke:#333;stroke-width:1.50;fill:none;" marker-end="url(#arrow-arrow-solid)"></path><rect x="136.69" y="258.35" width="28.47" height="26.50" style="fill:white;stroke:none"></rect><text x="150.92" y="271.60" text-anchor="middle" dominant-baseline="central" font-size="16.00" style="fill:#333;font-size:16.00px">No</text><line x1="121.92" y1="225.50" x2="63.91" y2="317.70" style="stroke:#333;stroke-width:1.50;fill:none;" marker-end="url(#arrow-arrow-solid)"></line><rect x="75.12" y="258.35" width="35.58" height="26.50" style="fill:white;stroke:none"></rect><text x="92.91" y="271.60" text-anchor="middle" dominant-baseline="central" font-size="16.00" style="fill:#333;font-size:16.00px">Yes</text><rect x="89.93" y="20.00" width="63.97" height="42.20" rx="21.10" ry="21.10" style="fill:#fff;stroke:#333;stroke-width:1.50"></rect><text x="121.92" y="41.10" text-anchor="middle" dominant-baseline="central" font-size="16.00" style="fill:#333;font-size:16.00px">Start</text><polygon points="85.75,112.20 158.09,112.20 189.09,154.40 54.74,154.40" style="fill:#fff;stroke:#333;stroke-width:1.50"></polygon><text x="121.92" y="133.30" text-anchor="middle" dominant-baseline="central" font-size="16.00" style="fill:#333;font-size:16.00px">Input data</text><polygon points="121.92,204.40 159.73,225.50 121.92,246.60 84.11,225.50" style="fill:#fff;stroke:#333;stroke-width:1.50"></polygon><text x="121.92" y="225.50" text-anchor="middle" dominant-baseline="central" font-size="16.00" style="fill:#333;font-size:16.00px">Valid?</text><rect x="20.00" y="296.60" width="87.81" height="42.20" style="fill:#fff;stroke:#333;stroke-width:1.50"></rect><text x="63.91" y="317.70" text-anchor="middle" dominant-baseline="central" font-size="16.00" style="fill:#333;font-size:16.00px">Process</text><rect x="147.15" y="388.80" width="65.56" height="42.20" style="fill:#fff;stroke:#333;stroke-width:1.50"></rect><text x="179.93" y="409.90" text-anchor="middle" dominant-baseline="central" font-size="16.00" style="fill:#333;font-size:16.00px">Error</text><path d="M30.66,393.02 L30.66,426.78 A33.24,4.22 0 0,0 97.15,426.78 L97.15,393.02 A33.24,4.22 0 0,0 30.66,393.02 M30.66,393.02 A33.24,4.22 0 0,0 97.15,393.02" style="fill:#fff;stroke:#333;stroke-width:1.50"></path><text x="63.91" y="409.90" text-anchor="middle" dominant-baseline="central" font-size="16.00" style="fill:#333;font-size:16.00px">Save</text><rect x="87.78" y="481.00" width="68.28" height="42.20" rx="21.10" ry="21.10" style="fill:#fff;stroke:#333;stroke-width:1.50"></rect><text x="121.92" y="502.10" text-anchor="middle" dominant-baseline="central" font-size="16.00" style="fill:#333;font-size:16.00px">Done</text></svg>