<?xml version="1.0" encoding="UTF-8"?>
<svg xmlns="http://www.w3.org/2000/svg" viewBox="0 0 708.58 174.40"><defs><marker id="arrow-arrow-solid" viewBox="0 0 10 10" refX="9.00" refY="5.00" markerWidth="8.00" markerHeight="8.00" orient="auto"><polygon points="0,0 10,5 0,10" style="fill:#333"></polygon></marker></defs><rect x="0.00" y="0.00" width="708.58" height="174.40" style="fill:#fff;stroke:none"></rect><line x1="171.81" y1="87.20" x2="221.81" y2="87.20" style="stroke:#333;stroke-width:1.5;fill:none" marker-end="url(#arrow-arrow-solid)"></line><line x1="611.55" y1="56.83" x2="675.16" y2="84.42" style="stroke:#333;stroke-width:1.5;fill:none" marker-end="url(#arrow-arrow-solid)"></line><path d="M311.15,98.96 C322.48,102.39 402.95,129.87 424.43,133.30 C445.91,136.73 515.80,133.30 525.95,133.30" style="stroke:#333;stroke-width:1.5;fill:none" marker-end="url(#arrow-arrow-solid)"></path><rect x="331.94" y="97.00" width="32.91" height="26.50" rx="3.00" ry="3.00" style="fill:#fff;stroke:none"></rect><text x="348.39" y="110.25" text-anchor="middle" dominant-baseline="central" font-size="16.00" style="fill:#333;font-size:16.00px">yes</text><line x1="311.15" y1="75.44" x2="372.91" y2="56.72" style="stroke:#333;stroke-width:1.5;fill:none" marker-end="url(#arrow-arrow-solid)"></line><rect x="335.49" y="50.90" width="25.81" height="26.50" rx="3.00" ry="3.00" style="fill:#fff;stroke:none"></rect><text x="348.39" y="64.15" text-anchor="middle" dominant-baseline="central" font-size="16.00" style="fill:#333;font-size:16.00px">no</text><line x1="623.92" y1="112.20" x2="675.16" y2="89.98" style="stroke:#333;stroke-width:1.5;fill:none" marker-end="url(#arrow-arrow-solid)"></line><line x1="475.95" y1="41.10" x2="538.98" y2="41.10" style="stroke:#333;stroke-width:1.5;fill:none" marker-end="url(#arrow-arrow-solid)"></line><line x1="34.00" y1="87.20" x2="84.00" y2="87.20" style="stroke:#333;stroke-width:1.5;fill:none" marker-end="url(#arrow-arrow-solid)"></line><circle cx="27.00" cy="87.20" r="7.00" style="fill:#ECECFF;stroke:#9370DB;stroke-width:1.50"></circle><rect x="84.00" y="66.10" width="87.81" height="42.20" rx="2.00" ry="2.00" style="fill:#ECECFF;stroke:#9370DB;stroke-width:1.50"></rect><text x="127.91" y="87.20" text-anchor="middle" dominant-baseline="central" font-size="16.00" style="fill:#333;font-size:16.00px">Process</text><polygon points="272.36,36.65 322.91,87.20 272.36,137.75 221.81,87.20" style="fill:#ECECFF;stroke:#9370DB;stroke-width:1.50"></polygon><text x="272.36" y="87.20" text-anchor="middle" dominant-baseline="central" font-size="16.00" style="fill:#333;font-size:16.00px">Decision?</text><path d="M525.95,116.42 L525.95,150.18 A49.31,4.22 0 0,0 624.58,150.18 L624.58,116.42 A49.31,4.22 0 0,0 525.95,116.42 M525.95,116.42 A49.31,4.22 0 0,0 624.58,116.42" style="fill:#ECECFF;stroke:#9370DB;stroke-width:1.50"></path><text x="575.27" y="133.30" text-anchor="middle" dominant-baseline="central" font-size="16.00" style="fill:#333;font-size:16.00px">Database</text><path d="M372.91,20.00 L475.95,20.00 L475.95,62.20 Q450.19,55.45 424.43,62.20 T372.91,62.20 Z" style="fill:#ECECFF;stroke:#9370DB;stroke-width:1.50"></path><text x="424.43" y="41.10" text-anchor="middle" dominant-baseline="central" font-size="16.00" style="fill:#333;font-size:16.00px">Document</text><path d="M538.98,20.00 A7.26,7.26 0 0,1 553.50,20.00 A7.26,7.26 0 0,1 568.01,20.00 A7.26,7.26 0 0,1 582.52,20.00 A7.26,7.26 0 0,1 597.03,20.00 A7.26,7.26 0 0,1 611.55,20.00 A10.55,10.55 0 0,1 611.55,41.10 A10.55,10.55 0 0,1 611.55,62.20 A12.09,12.09 0 0,1 587.36,62.20 A12.09,12.09 0 0,1 563.17,62.20 A12.09,12.09 0 0,1 538.98,62.20 A10.55,10.55 0 0,1 538.98,41.10 A10.55,10.55 0 0,1 538.98,20.00 Z" style="fill:#ECECFF;stroke:#9370DB;stroke-width:1.50"></path><text x="575.27" y="41.10" text-anchor="middle" dominant-baseline="central" font-size="16.00" style="fill:#333;font-size:16.00px">Cloud</text><circle cx="681.58" cy="87.20" r="7.00" style="fill:#ECECFF;stroke:#9370DB;stroke-width:1.50"></circle><circle cx="681.58" cy="87.20" r="2.80" style="fill:#9370DB;stroke:none"></circle></svg>