<?xml version="1.0" encoding="UTF-8"?>
<svg xmlns="http://www.w3.org/2000/svg" viewBox="0 0 232.71 543.20"><defs><marker id="arrow-arrow-solid" viewBox="0 0 10 10" refX="9.00" refY="5.00" markerWidth="8.00" markerHeight="8.00" orient="auto"><polygon points="0,0 10,5 0,10" style="fill:#333"></polygon></marker></defs><rect x="0.00" y="0.00" width="232.71" height="543.20" style="fill:#fff;stroke:none"></rect><line x1="52.78" y1="409.90" x2="110.79" y2="502.10" style="stroke:#333;stroke-width:1.50;fill:none;" marker-end="url(#arrow-arrow-solid)"></line><line x1="110.79" y1="133.30" x2="110.79" y2="225.50" style="stroke:#333;stroke-width:1.50;fill:none;" marker-end="url(#arrow-arrow-solid)"></line><line x1="168.80" y1="317.70" x2="168.80" y2="409.90" style="stroke:#333;stroke-width:1.50;fill:none;" marker-end="url(#arrow-arrow-solid)"></line><line x1="110.79" y1="41.10" x2="110.79" y2="133.30" style="stroke:#333;stroke-width:1.50;fill:none;" marker-end="url(#arrow-arrow-solid)"></line><line x1="168.80" y1="409.90" x2="110.79" y2="502.10" style="stroke:#333;stroke-width:1.50;fill:none;" marker-end="url(#arrow-arrow-solid)"></line><line x1="110.79" y1="225.50" x2="52.78" y2="409.90" style="stroke:#333;stroke-width:1.50;fill:none;" marker-end="url(#arrow-arrow-solid)"></line><rect x="67.55" y="304.45" width="28.47" height="26.50" style="fill:white;stroke:none"></rect><text x="81.79" y="317.70" text-anchor="middle" dominant-baseline="central" font-size="16.00" style="fill:#333;font-size:16.00px">No</text><line x1="110.79" y1="225.50" x2="168.80" y2="317.70" style="stroke:#333;stroke-width:1.50;fill:none;" marker-end="url(#arrow-arrow-solid)"></line><rect x="122.01" y="258.35" width="35.58" height="26.50" style="fill:white;stroke:none"></rect><text x="139.80" y="271.60" text-anchor="middle" dominant-baseline="central" font-size="16.00" style="fill:#333;font-size:16.00px">Yes</text><rect x="78.81" y="20.00" width="63.97" height="42.20" rx="21.10" ry="21.10" style="fill:#fff;stroke:#333;stroke-width:1.50"></rect><text x="110.79" y="41.10" text-anchor="middle" dominant-baseline="central" font-size="16.00" style="fill:#333;font-size:16.00px">Start</text><polygon points="74.62,112.20 146.96,112.20 177.97,154.40 43.62,154.40" style="fill:#fff;stroke:#333;stroke-width:1.50"></polygon><text x="110.79" y="133.30" text-anchor="middle" dominant-baseline="central" font-size="16.00" style="fill:#333;font-size:16.00px">Input data</text><polygon points="110.79,204.40 148.61,225.50 110.79,246.60 72.98,225.50" style="fill:#fff;stroke:#333;stroke-width:1.50"></polygon><text x="110.79" y="225.50" text-anchor="middle" dominant-baseline="central" font-size="16.00" style="fill:#333;font-size:16.00px">Valid?</text><rect x="124.90" y="296.60" width="87.81" height="42.20" style="fill:#fff;stroke:#333;stroke-width:1.50"></rect><text x="168.80" y="317.70" text-anchor="middle" dominant-baseline="central" font-size="16.00" style="fill:#333;font-size:16.00px">Process</text><rect x="20.00" y="388.80" width="65.56" height="42.20" style="fill:#fff;stroke:#333;stroke-width:1.50"></rect><text x="52.78" y="409.90" text-anchor="middle" dominant-baseline="central" font-size="16.00" style="fill:#333;font-size:16.00px">Error</text><path d="M135.56,393.02 L135.56,426.78 A33.24,4.22 0 0,0 202.05,426.78 L202.05,393.02 A33.24,4.22 0 0,0 135.56,393.02 M135.56,393.02 A33.24,4.22 0 0,0 202.05,393.02" style="fill:#fff;stroke:#333;stroke-width:1.50"></path><text x="168.80" y="409.90" text-anchor="middle" dominant-baseline="central" font-size="16.00" style="fill:#333;font-size:16.00px">Save</text><rect x="76.65" y="481.00" width="68.28" height="42.20" rx="21.10" ry="21.10" style="fill:#fff;stroke:#333;stroke-width:1.50"></rect><text x="110.79" y="502.10" text-anchor="middle" dominant-baseline="central" font-size="16.00" style="fill:#333;font-size:16.00px">Done</text></svg>