<?xml version="1.0" encoding="UTF-8"?>
<svg xmlns="http://www.w3.org/2000/svg" viewBox="0 0 736.58 174.40"><defs><marker id="arrow-arrow-solid" viewBox="0 0 10 10" refX="9.00" refY="5.00" markerWidth="8.00" markerHeight="8.00" orient="auto"><polygon points="0,0 10,5 0,10" style="fill:#333"></polygon></marker></defs><rect x="0.00" y="0.00" width="736.58" height="174.40" style="fill:#fff;stroke:none"></rect><line x1="185.81" y1="87.20" x2="235.81" y2="87.20" style="stroke:#333;stroke-width:1.5;fill:none" marker-end="url(#arrow-arrow-solid)"></line><line x1="625.55" y1="55.86" x2="689.61" y2="81.92" style="stroke:#333;stroke-width:1.5;fill:none" marker-end="url(#arrow-arrow-solid)"></line><path d="M315.64,96.08 C327.92,99.80 416.00,129.58 438.43,133.30 C460.86,137.02 529.80,133.30 539.95,133.30" style="stroke:#333;stroke-width:1.5;fill:none" marker-end="url(#arrow-arrow-solid)"></path><rect x="345.94" y="97.00" width="32.91" height="26.50" rx="3.00" ry="3.00" style="fill:#fff;stroke:none"></rect><text x="362.39" y="110.25" text-anchor="middle" dominant-baseline="central" font-size="16.00" style="fill:#333;font-size:16.00px">yes</text><line x1="315.64" y1="78.32" x2="386.91" y2="56.72" style="stroke:#333;stroke-width:1.5;fill:none" marker-end="url(#arrow-arrow-solid)"></line><rect x="349.49" y="50.90" width="25.81" height="26.50" rx="3.00" ry="3.00" style="fill:#fff;stroke:none"></rect><text x="362.39" y="64.15" text-anchor="middle" dominant-baseline="central" font-size="16.00" style="fill:#333;font-size:16.00px">no</text><line x1="638.58" y1="113.24" x2="689.61" y2="92.48" style="stroke:#333;stroke-width:1.5;fill:none" marker-end="url(#arrow-arrow-solid)"></line><line x1="489.95" y1="41.10" x2="552.98" y2="41.10" style="stroke:#333;stroke-width:1.5;fill:none" marker-end="url(#arrow-arrow-solid)"></line><line x1="48.00" y1="87.20" x2="98.00" y2="87.20" style="stroke:#333;stroke-width:1.5;fill:none" marker-end="url(#arrow-arrow-solid)"></line><circle cx="34.00" cy="87.20" r="14.00" style="fill:#ECECFF;stroke:#9370DB;stroke-width:1.50"></circle><text x="34.00" y="87.20" text-anchor="middle" dominant-baseline="central" font-size="16.00" style="fill:#333;font-size:16.00px">start</text><rect x="98.00" y="66.10" width="87.81" height="42.20" rx="2.00" ry="2.00" style="fill:#ECECFF;stroke:#9370DB;stroke-width:1.50"></rect><text x="141.91" y="87.20" text-anchor="middle" dominant-baseline="central" font-size="16.00" style="fill:#333;font-size:16.00px">Process</text><polygon points="286.36,66.10 336.91,87.20 286.36,108.30 235.81,87.20" style="fill:#ECECFF;stroke:#9370DB;stroke-width:1.50"></polygon><text x="286.36" y="87.20" text-anchor="middle" dominant-baseline="central" font-size="16.00" style="fill:#333;font-size:16.00px">Decision?</text><path d="M539.95,116.42 L539.95,150.18 A49.31,4.22 0 0,0 638.58,150.18 L638.58,116.42 A49.31,4.22 0 0,0 539.95,116.42 M539.95,116.42 A49.31,4.22 0 0,0 638.58,116.42" style="fill:#ECECFF;stroke:#9370DB;stroke-width:1.50"></path><text x="589.27" y="133.30" text-anchor="middle" dominant-baseline="central" font-size="16.00" style="fill:#333;font-size:16.00px">Database</text><path d="M386.91,20.00 L489.95,20.00 L489.95,62.20 Q464.19,55.45 438.43,62.20 T386.91,62.20 Z" style="fill:#ECECFF;stroke:#9370DB;stroke-width:1.50"></path><text x="438.43" y="41.10" text-anchor="middle" dominant-baseline="central" font-size="16.00" style="fill:#333;font-size:16.00px">Document</text><path d="M552.98,20.00 A7.26,7.26 0 0,1 567.50,20.00 A7.26,7.26 0 0,1 582.01,20.00 A7.26,7.26 0 0,1 596.52,20.00 A7.26,7.26 0 0,1 611.03,20.00 A7.26,7.26 0 0,1 625.55,20.00 A10.55,10.55 0 0,1 625.55,41.10 A10.55,10.55 0 0,1 625.55,62.20 A12.09,12.09 0 0,1 601.36,62.20 A12.09,12.09 0 0,1 577.17,62.20 A12.09,12.09 0 0,1 552.98,62.20 A10.55,10.55 0 0,1 552.98,41.10 A10.55,10.55 0 0,1 552.98,20.00 Z" style="fill:#ECECFF;stroke:#9370DB;stroke-width:1.50"></path><text x="589.27" y="41.10" text-anchor="middle" dominant-baseline="central" font-size="16.00" style="fill:#333;font-size:16.00px">Cloud</text><circle cx="702.58" cy="87.20" r="14.00" style="fill:#ECECFF;stroke:#9370DB;stroke-width:1.50"></circle><circle cx="702.58" cy="87.20" r="5.60" style="fill:#9370DB;stroke:none"></circle><text x="702.58" y="87.20" text-anchor="middle" dominant-baseline="central" font-size="16.00" style="fill:#333;font-size:16.00px">stop</text></svg>