<?xml version="1.0" encoding="UTF-8"?>
<svg xmlns="http://www.w3.org/2000/svg" viewBox="0 0 828.58 198.10"><defs><marker id="arrow-arrow-solid" viewBox="0 0 10 10" refX="9.00" refY="5.00" markerWidth="8.00" markerHeight="8.00" orient="auto"><polygon points="0,0 10,5 0,10" style="fill:#333"></polygon></marker></defs><rect x="0.00" y="0.00" width="828.58" height="198.10" style="fill:#fff;stroke:none"></rect><path d="M201.81,99.05 L251.81,99.05" style="stroke:#333;stroke-width:1.5;fill:none" marker-end="url(#arrow-arrow-solid)"></path><path d="M731.55,69.02 L795.14,96.29" style="stroke:#333;stroke-width:1.5;fill:none" marker-end="url(#arrow-arrow-solid)"></path><path d="M368.34,113.62 C381.45,117.36 474.67,147.33 499.43,151.08 C524.19,154.82 604.30,151.08 615.95,151.08" style="stroke:#333;stroke-width:1.5;fill:none" marker-end="url(#arrow-arrow-solid)"></path><rect x="417.43" y="119.10" width="32.91" height="26.50" rx="3.00" ry="3.00" style="fill:#fff;stroke:none"></rect><text x="433.88" y="132.35" text-anchor="middle" dominant-baseline="central" font-size="16.00" style="fill:#333;font-size:16.00px">yes</text><path d="M368.34,84.48 L432.91,66.03" style="stroke:#333;stroke-width:1.5;fill:none" marker-end="url(#arrow-arrow-solid)"></path><rect x="387.72" y="62.01" width="25.81" height="26.50" rx="3.00" ry="3.00" style="fill:#fff;stroke:none"></rect><text x="400.62" y="75.26" text-anchor="middle" dominant-baseline="central" font-size="16.00" style="fill:#333;font-size:16.00px">no</text><path d="M743.28,124.05 L795.14,101.81" style="stroke:#333;stroke-width:1.5;fill:none" marker-end="url(#arrow-arrow-solid)"></path><path d="M565.95,47.03 L628.98,47.03" style="stroke:#333;stroke-width:1.5;fill:none" marker-end="url(#arrow-arrow-solid)"></path><path d="M34.00,99.05 L84.00,99.05" style="stroke:#333;stroke-width:1.5;fill:none" marker-end="url(#arrow-arrow-solid)"></path><circle cx="27.00" cy="99.05" r="7.00" style="fill:#ECECFF;stroke:#9370DB;stroke-width:1.50"></circle><rect x="84.00" y="72.03" width="117.81" height="54.05" rx="2.00" ry="2.00" style="fill:#ECECFF;stroke:#9370DB;stroke-width:1.50"></rect><text x="142.91" y="99.05" text-anchor="middle" dominant-baseline="central" font-size="16.00" style="fill:#333;font-size:16.00px">Process</text><polygon points="317.36,33.50 382.91,99.05 317.36,164.60 251.81,99.05" style="fill:#ECECFF;stroke:#9370DB;stroke-width:1.50"></polygon><text x="317.36" y="99.05" text-anchor="middle" dominant-baseline="central" font-size="16.00" style="fill:#333;font-size:16.00px">Decision?</text><path d="M615.95,129.46 L615.95,172.70 A64.31,5.41 0 0,0 744.58,172.70 L744.58,129.46 A64.31,5.41 0 0,0 615.95,129.46 M615.95,129.46 A64.31,5.41 0 0,0 744.58,129.46" style="fill:#ECECFF;stroke:#9370DB;stroke-width:1.50"></path><text x="680.27" y="151.08" text-anchor="middle" dominant-baseline="central" font-size="16.00" style="fill:#333;font-size:16.00px">Database</text><path d="M432.91,20.00 L565.95,20.00 L565.95,74.05 Q532.69,65.40 499.43,74.05 T432.91,74.05 Z" style="fill:#ECECFF;stroke:#9370DB;stroke-width:1.50"></path><text x="499.43" y="47.03" text-anchor="middle" dominant-baseline="central" font-size="16.00" style="fill:#333;font-size:16.00px">Document</text><path d="M628.98,20.00 A10.26,10.26 0 0,1 649.50,20.00 A10.26,10.26 0 0,1 670.01,20.00 A10.26,10.26 0 0,1 690.52,20.00 A10.26,10.26 0 0,1 711.03,20.00 A10.26,10.26 0 0,1 731.55,20.00 A13.51,13.51 0 0,1 731.55,47.03 A13.51,13.51 0 0,1 731.55,74.05 A17.09,17.09 0 0,1 697.36,74.05 A17.09,17.09 0 0,1 663.17,74.05 A17.09,17.09 0 0,1 628.98,74.05 A13.51,13.51 0 0,1 628.98,47.03 A13.51,13.51 0 0,1 628.98,20.00 Z" style="fill:#ECECFF;stroke:#9370DB;stroke-width:1.50"></path><text x="680.27" y="47.03" text-anchor="middle" dominant-baseline="central" font-size="16.00" style="fill:#333;font-size:16.00px">Cloud</text><circle cx="801.58" cy="99.05" r="7.00" style="fill:#ECECFF;stroke:#9370DB;stroke-width:1.50"></circle><circle cx="801.58" cy="99.05" r="2.80" style="fill:#9370DB;stroke:none"></circle></svg>