<?xml version="1.0" encoding="UTF-8"?>
<svg xmlns="http://www.w3.org/2000/svg" viewBox="0 0 264.83 451.00"><defs><marker id="arrow-arrow-solid" viewBox="0 0 10 10" refX="9.00" refY="5.00" markerWidth="8.00" markerHeight="8.00" orient="auto"><polygon points="0,0 10,5 0,10" style="fill:#333"></polygon></marker></defs><rect x="0.00" y="0.00" width="264.83" height="451.00" style="fill:#fff;stroke:none"></rect><line x1="124.72" y1="62.20" x2="124.72" y2="112.20" style="stroke:#333;stroke-width:1.5;fill:none" marker-end="url(#arrow-arrow-solid)"></line><line x1="112.93" y1="149.13" x2="71.74" y2="204.40" style="stroke:#333;stroke-width:1.5;fill:none" marker-end="url(#arrow-arrow-solid)"></line><rect x="73.92" y="166.15" width="32.91" height="26.50" rx="3.00" ry="3.00" style="fill:#fff;stroke:none"></rect><text x="90.37" y="179.40" text-anchor="middle" dominant-baseline="central" font-size="16.00" style="fill:#333;font-size:16.00px">yes</text><line x1="136.52" y1="149.13" x2="177.71" y2="204.40" style="stroke:#333;stroke-width:1.5;fill:none" marker-end="url(#arrow-arrow-solid)"></line><rect x="146.17" y="166.15" width="25.81" height="26.50" rx="3.00" ry="3.00" style="fill:#fff;stroke:none"></rect><text x="159.08" y="179.40" text-anchor="middle" dominant-baseline="central" font-size="16.00" style="fill:#333;font-size:16.00px">no</text><line x1="56.02" y1="246.60" x2="56.02" y2="296.60" style="stroke:#333;stroke-width:1.5;fill:none" marker-end="url(#arrow-arrow-solid)"></line><line x1="193.43" y1="246.60" x2="193.43" y2="296.60" style="stroke:#333;stroke-width:1.5;fill:none" marker-end="url(#arrow-arrow-solid)"></line><line x1="68.62" y1="334.62" x2="109.00" y2="388.80" style="stroke:#333;stroke-width:1.5;fill:none" marker-end="url(#arrow-arrow-solid)"></line><line x1="177.71" y1="338.80" x2="140.45" y2="388.80" style="stroke:#333;stroke-width:1.5;fill:none" marker-end="url(#arrow-arrow-solid)"></line><rect x="73.27" y="20.00" width="102.91" height="42.20" rx="2.00" ry="2.00" style="fill:#ECECFF;stroke:#9370DB;stroke-width:1.50"></rect><text x="124.72" y="41.10" text-anchor="middle" dominant-baseline="central" font-size="16.00" style="fill:#333;font-size:16.00px">Rectangle</text><polygon points="124.72,112.20 171.96,133.30 124.72,154.40 77.49,133.30" style="fill:#ECECFF;stroke:#9370DB;stroke-width:1.50"></polygon><text x="124.72" y="133.30" text-anchor="middle" dominant-baseline="central" font-size="16.00" style="fill:#333;font-size:16.00px">Diamond</text><polygon points="23.66,204.40 77.82,204.40 88.37,214.95 88.37,246.60 23.66,246.60" style="fill:#ECECFF;stroke:#9370DB;stroke-width:1.50"></polygon><text x="56.02" y="225.50" text-anchor="middle" dominant-baseline="central" font-size="16.00" style="fill:#333;font-size:16.00px">Card</text><path d="M157.15,204.40 A7.26,7.26 0 0,1 171.66,204.40 A7.26,7.26 0 0,1 186.17,204.40 A7.26,7.26 0 0,1 200.69,204.40 A7.26,7.26 0 0,1 215.20,204.40 A7.26,7.26 0 0,1 229.71,204.40 A10.55,10.55 0 0,1 229.71,225.50 A10.55,10.55 0 0,1 229.71,246.60 A12.09,12.09 0 0,1 205.52,246.60 A12.09,12.09 0 0,1 181.34,246.60 A12.09,12.09 0 0,1 157.15,246.60 A10.55,10.55 0 0,1 157.15,225.50 A10.55,10.55 0 0,1 157.15,204.40 Z" style="fill:#ECECFF;stroke:#9370DB;stroke-width:1.50"></path><text x="193.43" y="225.50" text-anchor="middle" dominant-baseline="central" font-size="16.00" style="fill:#333;font-size:16.00px">Cloud</text><circle cx="56.02" cy="317.70" r="21.10" style="fill:#ECECFF;stroke:#9370DB;stroke-width:1.50"></circle><text x="56.02" y="317.70" text-anchor="middle" dominant-baseline="central" font-size="16.00" style="fill:#333;font-size:16.00px">Circle</text><polygon points="142.03,296.60 244.83,296.60 142.03,338.80 244.83,338.80" style="fill:#ECECFF;stroke:#9370DB;stroke-width:1.50"></polygon><text x="193.43" y="317.70" text-anchor="middle" dominant-baseline="central" font-size="16.00" style="fill:#333;font-size:16.00px">Hourglass</text><path d="M41.18,393.02 L41.18,426.78 A83.55,4.22 0 0,0 208.27,426.78 L208.27,393.02 A83.55,4.22 0 0,0 41.18,393.02 M41.18,393.02 A83.55,4.22 0 0,0 208.27,393.02" style="fill:#ECECFF;stroke:#9370DB;stroke-width:1.50"></path><text x="124.72" y="409.90" text-anchor="middle" dominant-baseline="central" font-size="16.00" style="fill:#333;font-size:16.00px">Traditional cylinder</text></svg>