<?xml version="1.0" encoding="UTF-8"?>
<svg xmlns="http://www.w3.org/2000/svg" viewBox="0 0 264.83 503.27"><defs><marker id="arrow-arrow-solid" viewBox="0 0 10 10" refX="9.00" refY="5.00" markerWidth="8.00" markerHeight="8.00" orient="auto"><polygon points="0,0 10,5 0,10" style="fill:#333"></polygon></marker></defs><rect x="0.00" y="0.00" width="264.83" height="503.27" style="fill:#fff;stroke:none"></rect><line x1="124.72" y1="62.20" x2="124.72" y2="112.20" style="stroke:#333;stroke-width:1.5;fill:none" marker-end="url(#arrow-arrow-solid)"></line><line x1="107.37" y1="189.32" x2="68.27" y2="256.67" style="stroke:#333;stroke-width:1.5;fill:none" marker-end="url(#arrow-arrow-solid)"></line><rect x="73.92" y="205.35" width="32.91" height="26.50" rx="3.00" ry="3.00" style="fill:#fff;stroke:none"></rect><text x="90.37" y="218.60" text-anchor="middle" dominant-baseline="central" font-size="16.00" style="fill:#333;font-size:16.00px">yes</text><line x1="142.07" y1="189.32" x2="181.18" y2="256.67" style="stroke:#333;stroke-width:1.5;fill:none" marker-end="url(#arrow-arrow-solid)"></line><rect x="146.17" y="205.35" width="25.81" height="26.50" rx="3.00" ry="3.00" style="fill:#fff;stroke:none"></rect><text x="159.08" y="218.60" text-anchor="middle" dominant-baseline="central" font-size="16.00" style="fill:#333;font-size:16.00px">no</text><line x1="56.02" y1="298.87" x2="56.02" y2="348.87" style="stroke:#333;stroke-width:1.5;fill:none" marker-end="url(#arrow-arrow-solid)"></line><line x1="193.43" y1="298.87" x2="193.43" y2="348.87" style="stroke:#333;stroke-width:1.5;fill:none" marker-end="url(#arrow-arrow-solid)"></line><line x1="68.62" y1="386.89" x2="109.00" y2="441.07" style="stroke:#333;stroke-width:1.5;fill:none" marker-end="url(#arrow-arrow-solid)"></line><line x1="177.71" y1="391.07" x2="140.45" y2="441.07" style="stroke:#333;stroke-width:1.5;fill:none" marker-end="url(#arrow-arrow-solid)"></line><rect x="73.27" y="20.00" width="102.91" height="42.20" rx="2.00" ry="2.00" style="fill:#ECECFF;stroke:#9370DB;stroke-width:1.50"></rect><text x="124.72" y="41.10" text-anchor="middle" dominant-baseline="central" font-size="16.00" style="fill:#333;font-size:16.00px">Rectangle</text><polygon points="124.72,112.20 171.96,159.43 124.72,206.67 77.49,159.43" style="fill:#ECECFF;stroke:#9370DB;stroke-width:1.50"></polygon><text x="124.72" y="159.43" text-anchor="middle" dominant-baseline="central" font-size="16.00" style="fill:#333;font-size:16.00px">Diamond</text><polygon points="23.66,256.67 77.82,256.67 88.37,267.22 88.37,298.87 23.66,298.87" style="fill:#ECECFF;stroke:#9370DB;stroke-width:1.50"></polygon><text x="56.02" y="277.77" text-anchor="middle" dominant-baseline="central" font-size="16.00" style="fill:#333;font-size:16.00px">Card</text><path d="M157.15,256.67 A7.26,7.26 0 0,1 171.66,256.67 A7.26,7.26 0 0,1 186.17,256.67 A7.26,7.26 0 0,1 200.69,256.67 A7.26,7.26 0 0,1 215.20,256.67 A7.26,7.26 0 0,1 229.71,256.67 A10.55,10.55 0 0,1 229.71,277.77 A10.55,10.55 0 0,1 229.71,298.87 A12.09,12.09 0 0,1 205.52,298.87 A12.09,12.09 0 0,1 181.34,298.87 A12.09,12.09 0 0,1 157.15,298.87 A10.55,10.55 0 0,1 157.15,277.77 A10.55,10.55 0 0,1 157.15,256.67 Z" style="fill:#ECECFF;stroke:#9370DB;stroke-width:1.50"></path><text x="193.43" y="277.77" text-anchor="middle" dominant-baseline="central" font-size="16.00" style="fill:#333;font-size:16.00px">Cloud</text><circle cx="56.02" cy="369.97" r="21.10" style="fill:#ECECFF;stroke:#9370DB;stroke-width:1.50"></circle><text x="56.02" y="369.97" text-anchor="middle" dominant-baseline="central" font-size="16.00" style="fill:#333;font-size:16.00px">Circle</text><polygon points="142.03,348.87 244.83,348.87 142.03,391.07 244.83,391.07" style="fill:#ECECFF;stroke:#9370DB;stroke-width:1.50"></polygon><text x="193.43" y="369.97" text-anchor="middle" dominant-baseline="central" font-size="16.00" style="fill:#333;font-size:16.00px">Hourglass</text><path d="M41.18,445.29 L41.18,479.05 A83.55,4.22 0 0,0 208.27,479.05 L208.27,445.29 A83.55,4.22 0 0,0 41.18,445.29 M41.18,445.29 A83.55,4.22 0 0,0 208.27,445.29" style="fill:#ECECFF;stroke:#9370DB;stroke-width:1.50"></path><text x="124.72" y="462.17" text-anchor="middle" dominant-baseline="central" font-size="16.00" style="fill:#333;font-size:16.00px">Traditional cylinder</text></svg>