<?xml version="1.0" encoding="UTF-8"?>
<svg xmlns="http://www.w3.org/2000/svg" viewBox="0 0 170.94 1148.67"><defs><marker id="arrow-arrow-solid" viewBox="0 0 10 10" refX="9.00" refY="5.00" markerWidth="8.00" markerHeight="8.00" orient="auto"><polygon points="0,0 10,5 0,10" style="fill:#333"></polygon></marker></defs><rect x="0.00" y="0.00" width="170.94" height="1148.67" style="fill:#fff;stroke:none"></rect><line x1="85.47" y1="62.20" x2="85.47" y2="112.20" style="stroke:#333;stroke-width:1.5;fill:none" marker-end="url(#arrow-arrow-solid)"></line><line x1="85.47" y1="154.40" x2="85.47" y2="204.40" style="stroke:#333;stroke-width:1.5;fill:none" marker-end="url(#arrow-arrow-solid)"></line><line x1="85.47" y1="246.60" x2="85.47" y2="296.60" style="stroke:#333;stroke-width:1.5;fill:none" marker-end="url(#arrow-arrow-solid)"></line><line x1="85.47" y1="338.80" x2="85.47" y2="388.80" style="stroke:#333;stroke-width:1.5;fill:none" marker-end="url(#arrow-arrow-solid)"></line><line x1="85.47" y1="431.00" x2="85.47" y2="481.00" style="stroke:#333;stroke-width:1.5;fill:none" marker-end="url(#arrow-arrow-solid)"></line><line x1="85.47" y1="523.20" x2="85.47" y2="573.20" style="stroke:#333;stroke-width:1.5;fill:none" marker-end="url(#arrow-arrow-solid)"></line><line x1="85.47" y1="615.40" x2="85.47" y2="665.40" style="stroke:#333;stroke-width:1.5;fill:none" marker-end="url(#arrow-arrow-solid)"></line><line x1="85.47" y1="759.87" x2="85.47" y2="809.87" style="stroke:#333;stroke-width:1.5;fill:none" marker-end="url(#arrow-arrow-solid)"></line><line x1="85.47" y1="852.07" x2="85.47" y2="902.07" style="stroke:#333;stroke-width:1.5;fill:none" marker-end="url(#arrow-arrow-solid)"></line><line x1="85.47" y1="944.27" x2="85.47" y2="994.27" style="stroke:#333;stroke-width:1.5;fill:none" marker-end="url(#arrow-arrow-solid)"></line><line x1="85.47" y1="1036.47" x2="85.47" y2="1086.47" style="stroke:#333;stroke-width:1.5;fill:none" marker-end="url(#arrow-arrow-solid)"></line><rect x="34.02" y="20.00" width="102.91" height="42.20" rx="2.00" ry="2.00" style="fill:#ECECFF;stroke:#9370DB;stroke-width:1.50"></rect><text x="85.47" y="41.10" text-anchor="middle" dominant-baseline="central" font-size="16.00" style="fill:#333;font-size:16.00px">Rectangle</text><rect x="37.97" y="112.20" width="95.00" height="42.20" rx="5.00" ry="5.00" style="fill:#ECECFF;stroke:#9370DB;stroke-width:1.50"></rect><text x="85.47" y="133.30" text-anchor="middle" dominant-baseline="central" font-size="16.00" style="fill:#333;font-size:16.00px">Rounded</text><rect x="40.87" y="204.40" width="89.20" height="42.20" rx="21.10" ry="21.10" style="fill:#ECECFF;stroke:#9370DB;stroke-width:1.50"></rect><text x="85.47" y="225.50" text-anchor="middle" dominant-baseline="central" font-size="16.00" style="fill:#333;font-size:16.00px">Stadium</text><rect x="31.51" y="296.60" width="107.92" height="42.20" style="fill:#ECECFF;stroke:#9370DB;stroke-width:1.50"></rect><line x1="42.30" y1="296.60" x2="42.30" y2="338.80" style="stroke:#9370DB;stroke-width:1.50"></line><line x1="128.64" y1="296.60" x2="128.64" y2="338.80" style="stroke:#9370DB;stroke-width:1.50"></line><text x="85.47" y="317.70" text-anchor="middle" dominant-baseline="central" font-size="16.00" style="fill:#333;font-size:16.00px">Subroutine</text><path d="M36.16,393.02 L36.16,426.78 A49.31,4.22 0 0,0 134.78,426.78 L134.78,393.02 A49.31,4.22 0 0,0 36.16,393.02 M36.16,393.02 A49.31,4.22 0 0,0 134.78,393.02" style="fill:#ECECFF;stroke:#9370DB;stroke-width:1.50"></path><text x="85.47" y="409.90" text-anchor="middle" dominant-baseline="central" font-size="16.00" style="fill:#333;font-size:16.00px">Database</text><circle cx="85.47" cy="502.10" r="21.10" style="fill:#ECECFF;stroke:#9370DB;stroke-width:1.50"></circle><text x="85.47" y="502.10" text-anchor="middle" dominant-baseline="central" font-size="16.00" style="fill:#333;font-size:16.00px">Circle</text><polygon points="28.45,573.20 125.39,573.20 142.49,615.40 28.45,615.40" style="fill:#ECECFF;stroke:#9370DB;stroke-width:1.50"></polygon><text x="85.47" y="594.30" text-anchor="middle" dominant-baseline="central" font-size="16.00" style="fill:#333;font-size:16.00px">Asymmetric</text><polygon points="85.47,665.40 132.70,712.63 85.47,759.87 38.23,712.63" style="fill:#ECECFF;stroke:#9370DB;stroke-width:1.50"></polygon><text x="85.47" y="712.63" text-anchor="middle" dominant-baseline="central" font-size="16.00" style="fill:#333;font-size:16.00px">Diamond</text><polygon points="52.54,809.87 118.40,809.87 132.52,830.97 118.40,852.07 52.54,852.07 38.42,830.97" style="fill:#ECECFF;stroke:#9370DB;stroke-width:1.50"></polygon><text x="85.47" y="830.97" text-anchor="middle" dominant-baseline="central" font-size="16.00" style="fill:#333;font-size:16.00px">Hexagon</text><polygon points="39.64,902.07 131.30,902.07 170.58,944.27 0.36,944.27" style="fill:#ECECFF;stroke:#9370DB;stroke-width:1.50"></polygon><text x="85.47" y="923.17" text-anchor="middle" dominant-baseline="central" font-size="16.00" style="fill:#333;font-size:16.00px">Parallelogram</text><polygon points="49.91,994.27 121.03,994.27 136.27,1036.47 34.67,1036.47" style="fill:#ECECFF;stroke:#9370DB;stroke-width:1.50"></polygon><text x="85.47" y="1015.37" text-anchor="middle" dominant-baseline="central" font-size="16.00" style="fill:#333;font-size:16.00px">Trapezoid</text><circle cx="85.47" cy="1107.57" r="21.10" style="fill:#ECECFF;stroke:#9370DB;stroke-width:1.50"></circle><circle cx="85.47" cy="1107.57" r="24.10" style="fill:none;stroke:#9370DB;stroke-width:1.50"></circle><text x="85.47" y="1107.57" text-anchor="middle" dominant-baseline="central" font-size="16.00" style="fill:#333;font-size:16.00px">Double Circle</text></svg>