<?xml version="1.0" encoding="UTF-8"?>
<svg xmlns="http://www.w3.org/2000/svg" viewBox="0 0 200.94 1309.02"><defs><marker id="arrow-arrow-solid" viewBox="0 0 10 10" refX="9.00" refY="5.00" markerWidth="8.00" markerHeight="8.00" orient="auto"><polygon points="0,0 10,5 0,10" style="fill:#333"></polygon></marker></defs><rect x="0.00" y="0.00" width="200.94" height="1309.02" style="fill:#fff;stroke:none"></rect><path d="M100.47,74.05 L100.47,79.05 C100.47,79.05 100.47,119.05 100.47,119.05 L100.47,124.05" style="stroke:#333;stroke-width:1.5;fill:none" marker-end="url(#arrow-arrow-solid)"></path><path d="M100.47,178.10 L100.47,183.10 C100.47,183.10 100.47,223.10 100.47,223.10 L100.47,228.10" style="stroke:#333;stroke-width:1.5;fill:none" marker-end="url(#arrow-arrow-solid)"></path><path d="M100.47,282.15 L100.47,287.15 C100.47,287.15 100.47,327.15 100.47,327.15 L100.47,332.15" style="stroke:#333;stroke-width:1.5;fill:none" marker-end="url(#arrow-arrow-solid)"></path><path d="M100.47,386.20 L100.47,391.20 C100.47,391.20 100.47,431.20 100.47,431.20 L100.47,436.20" style="stroke:#333;stroke-width:1.5;fill:none" marker-end="url(#arrow-arrow-solid)"></path><path d="M100.47,490.25 L100.47,495.25 C100.47,495.25 100.47,535.25 100.47,535.25 L100.47,540.25" style="stroke:#333;stroke-width:1.5;fill:none" marker-end="url(#arrow-arrow-solid)"></path><path d="M100.47,594.30 L100.47,599.30 C100.47,599.30 100.47,639.30 100.47,639.30 L100.47,644.30" style="stroke:#333;stroke-width:1.5;fill:none" marker-end="url(#arrow-arrow-solid)"></path><path d="M100.47,698.35 L100.47,703.35 C100.47,703.35 100.47,743.35 100.47,743.35 L100.47,748.35" style="stroke:#333;stroke-width:1.5;fill:none" marker-end="url(#arrow-arrow-solid)"></path><path d="M100.47,872.82 L100.47,877.82 C100.47,877.82 100.47,917.82 100.47,917.82 L100.47,922.82" style="stroke:#333;stroke-width:1.5;fill:none" marker-end="url(#arrow-arrow-solid)"></path><path d="M100.47,976.87 L100.47,981.87 C100.47,981.87 100.47,1021.87 100.47,1021.87 L100.47,1026.87" style="stroke:#333;stroke-width:1.5;fill:none" marker-end="url(#arrow-arrow-solid)"></path><path d="M100.47,1080.92 L100.47,1085.92 C100.47,1085.92 100.47,1125.92 100.47,1125.92 L100.47,1130.92" style="stroke:#333;stroke-width:1.5;fill:none" marker-end="url(#arrow-arrow-solid)"></path><path d="M100.47,1184.97 L100.47,1189.97 C100.47,1189.97 100.47,1229.97 100.47,1229.97 L100.47,1234.97" style="stroke:#333;stroke-width:1.5;fill:none" marker-end="url(#arrow-arrow-solid)"></path><rect x="34.02" y="20.00" width="132.91" height="54.05" rx="2.00" ry="2.00" style="fill:#ECECFF;stroke:#9370DB;stroke-width:1.50"></rect><text x="100.47" y="47.03" text-anchor="middle" dominant-baseline="central" font-size="16.00" style="fill:#333;font-size:16.00px">Rectangle</text><rect x="37.97" y="124.05" width="125.00" height="54.05" rx="5.00" ry="5.00" style="fill:#ECECFF;stroke:#9370DB;stroke-width:1.50"></rect><text x="100.47" y="151.08" text-anchor="middle" dominant-baseline="central" font-size="16.00" style="fill:#333;font-size:16.00px">Rounded</text><rect x="40.87" y="228.10" width="119.20" height="54.05" rx="27.03" ry="27.03" style="fill:#ECECFF;stroke:#9370DB;stroke-width:1.50"></rect><text x="100.47" y="255.13" text-anchor="middle" dominant-baseline="central" font-size="16.00" style="fill:#333;font-size:16.00px">Stadium</text><rect x="31.51" y="332.15" width="137.92" height="54.05" style="fill:#ECECFF;stroke:#9370DB;stroke-width:1.50"></rect><line x1="45.30" y1="332.15" x2="45.30" y2="386.20" style="stroke:#9370DB;stroke-width:1.50"></line><line x1="155.64" y1="332.15" x2="155.64" y2="386.20" style="stroke:#9370DB;stroke-width:1.50"></line><text x="100.47" y="359.18" text-anchor="middle" dominant-baseline="central" font-size="16.00" style="fill:#333;font-size:16.00px">Subroutine</text><path d="M36.16,441.61 L36.16,484.85 A64.31,5.41 0 0,0 164.78,484.85 L164.78,441.61 A64.31,5.41 0 0,0 36.16,441.61 M36.16,441.61 A64.31,5.41 0 0,0 164.78,441.61" style="fill:#ECECFF;stroke:#9370DB;stroke-width:1.50"></path><text x="100.47" y="463.23" text-anchor="middle" dominant-baseline="central" font-size="16.00" style="fill:#333;font-size:16.00px">Database</text><circle cx="100.47" cy="567.28" r="27.03" style="fill:#ECECFF;stroke:#9370DB;stroke-width:1.50"></circle><text x="100.47" y="567.28" text-anchor="middle" dominant-baseline="central" font-size="16.00" style="fill:#333;font-size:16.00px">Circle</text><polygon points="28.45,644.30 150.89,644.30 172.49,698.35 28.45,698.35" style="fill:#ECECFF;stroke:#9370DB;stroke-width:1.50"></polygon><text x="100.47" y="671.33" text-anchor="middle" dominant-baseline="central" font-size="16.00" style="fill:#333;font-size:16.00px">Asymmetric</text><polygon points="100.47,748.35 162.70,810.58 100.47,872.82 38.23,810.58" style="fill:#ECECFF;stroke:#9370DB;stroke-width:1.50"></polygon><text x="100.47" y="810.58" text-anchor="middle" dominant-baseline="central" font-size="16.00" style="fill:#333;font-size:16.00px">Diamond</text><polygon points="57.04,922.82 143.90,922.82 162.52,949.84 143.90,976.87 57.04,976.87 38.42,949.84" style="fill:#ECECFF;stroke:#9370DB;stroke-width:1.50"></polygon><text x="100.47" y="949.84" text-anchor="middle" dominant-baseline="central" font-size="16.00" style="fill:#333;font-size:16.00px">Hexagon</text><polygon points="44.14,1026.87 156.80,1026.87 205.08,1080.92 -4.14,1080.92" style="fill:#ECECFF;stroke:#9370DB;stroke-width:1.50"></polygon><text x="100.47" y="1053.89" text-anchor="middle" dominant-baseline="central" font-size="16.00" style="fill:#333;font-size:16.00px">Parallelogram</text><polygon points="54.41,1130.92 146.53,1130.92 166.27,1184.97 34.67,1184.97" style="fill:#ECECFF;stroke:#9370DB;stroke-width:1.50"></polygon><text x="100.47" y="1157.94" text-anchor="middle" dominant-baseline="central" font-size="16.00" style="fill:#333;font-size:16.00px">Trapezoid</text><circle cx="100.47" cy="1261.99" r="27.03" style="fill:#ECECFF;stroke:#9370DB;stroke-width:1.50"></circle><circle cx="100.47" cy="1261.99" r="30.03" style="fill:none;stroke:#9370DB;stroke-width:1.50"></circle><text x="100.47" y="1261.99" text-anchor="middle" dominant-baseline="central" font-size="16.00" style="fill:#333;font-size:16.00px">Double Circle</text></svg>