<?xml version="1.0" encoding="UTF-8"?>
<svg xmlns="http://www.w3.org/2000/svg" viewBox="0 0 324.83 580.67"><defs><marker id="arrow-arrow-solid" viewBox="0 0 10 10" refX="9.00" refY="5.00" markerWidth="8.00" markerHeight="8.00" orient="auto"><polygon points="0,0 10,5 0,10" style="fill:#333"></polygon></marker></defs><rect x="0.00" y="0.00" width="324.83" height="580.67" style="fill:#fff;stroke:none"></rect><path d="M154.72,74.05 L154.72,124.05" style="stroke:#333;stroke-width:1.5;fill:none" marker-end="url(#arrow-arrow-solid)"></path><path d="M131.36,225.15 L87.26,298.52" style="stroke:#333;stroke-width:1.5;fill:none" marker-end="url(#arrow-arrow-solid)"></path><rect x="92.86" y="248.59" width="32.91" height="26.50" rx="3.00" ry="3.00" style="fill:#fff;stroke:none"></rect><text x="109.31" y="261.84" text-anchor="middle" dominant-baseline="central" font-size="16.00" style="fill:#333;font-size:16.00px">yes</text><path d="M178.09,225.15 L222.19,298.52" style="stroke:#333;stroke-width:1.5;fill:none" marker-end="url(#arrow-arrow-solid)"></path><rect x="187.23" y="248.59" width="25.81" height="26.50" rx="3.00" ry="3.00" style="fill:#fff;stroke:none"></rect><text x="200.14" y="261.84" text-anchor="middle" dominant-baseline="central" font-size="16.00" style="fill:#333;font-size:16.00px">no</text><path d="M71.02,352.57 L71.02,402.57" style="stroke:#333;stroke-width:1.5;fill:none" marker-end="url(#arrow-arrow-solid)"></path><path d="M238.43,352.57 L238.43,402.57" style="stroke:#333;stroke-width:1.5;fill:none" marker-end="url(#arrow-arrow-solid)"></path><path d="M87.96,450.65 L132.98,506.62" style="stroke:#333;stroke-width:1.5;fill:none" marker-end="url(#arrow-arrow-solid)"></path><path d="M216.69,456.62 L176.46,506.62" style="stroke:#333;stroke-width:1.5;fill:none" marker-end="url(#arrow-arrow-solid)"></path><rect x="88.27" y="20.00" width="132.91" height="54.05" rx="2.00" ry="2.00" style="fill:#ECECFF;stroke:#9370DB;stroke-width:1.50"></rect><text x="154.72" y="47.03" text-anchor="middle" dominant-baseline="central" font-size="16.00" style="fill:#333;font-size:16.00px">Rectangle</text><polygon points="154.72,124.05 216.96,186.28 154.72,248.52 92.49,186.28" style="fill:#ECECFF;stroke:#9370DB;stroke-width:1.50"></polygon><text x="154.72" y="186.28" text-anchor="middle" dominant-baseline="central" font-size="16.00" style="fill:#333;font-size:16.00px">Diamond</text><polygon points="23.66,298.52 104.85,298.52 118.37,312.03 118.37,352.57 23.66,352.57" style="fill:#ECECFF;stroke:#9370DB;stroke-width:1.50"></polygon><text x="71.02" y="325.54" text-anchor="middle" dominant-baseline="central" font-size="16.00" style="fill:#333;font-size:16.00px">Card</text><path d="M187.15,298.52 A10.26,10.26 0 0,1 207.66,298.52 A10.26,10.26 0 0,1 228.17,298.52 A10.26,10.26 0 0,1 248.69,298.52 A10.26,10.26 0 0,1 269.20,298.52 A10.26,10.26 0 0,1 289.71,298.52 A13.51,13.51 0 0,1 289.71,325.54 A13.51,13.51 0 0,1 289.71,352.57 A17.09,17.09 0 0,1 255.52,352.57 A17.09,17.09 0 0,1 221.34,352.57 A17.09,17.09 0 0,1 187.15,352.57 A13.51,13.51 0 0,1 187.15,325.54 A13.51,13.51 0 0,1 187.15,298.52 Z" style="fill:#ECECFF;stroke:#9370DB;stroke-width:1.50"></path><text x="238.43" y="325.54" text-anchor="middle" dominant-baseline="central" font-size="16.00" style="fill:#333;font-size:16.00px">Cloud</text><circle cx="71.02" cy="429.59" r="27.03" style="fill:#ECECFF;stroke:#9370DB;stroke-width:1.50"></circle><text x="71.02" y="429.59" text-anchor="middle" dominant-baseline="central" font-size="16.00" style="fill:#333;font-size:16.00px">Circle</text><polygon points="172.03,402.57 304.83,402.57 172.03,456.62 304.83,456.62" style="fill:#ECECFF;stroke:#9370DB;stroke-width:1.50"></polygon><text x="238.43" y="429.59" text-anchor="middle" dominant-baseline="central" font-size="16.00" style="fill:#333;font-size:16.00px">Hourglass</text><path d="M56.18,512.02 L56.18,555.26 A98.55,5.41 0 0,0 253.27,555.26 L253.27,512.02 A98.55,5.41 0 0,0 56.18,512.02 M56.18,512.02 A98.55,5.41 0 0,0 253.27,512.02" style="fill:#ECECFF;stroke:#9370DB;stroke-width:1.50"></path><text x="154.72" y="533.64" text-anchor="middle" dominant-baseline="central" font-size="16.00" style="fill:#333;font-size:16.00px">Traditional cylinder</text></svg>