<?xml version="1.0" encoding="UTF-8"?>
<svg xmlns="http://www.w3.org/2000/svg" viewBox="0 0 232.71 332.20"><defs><marker id="arrow-arrow-solid" viewBox="0 0 10 10" refX="9.00" refY="5.00" markerWidth="8.00" markerHeight="8.00" orient="auto"><polygon points="0,0 10,5 0,10" style="fill:#333"></polygon></marker></defs><rect x="0.00" y="0.00" width="232.71" height="332.20" style="fill:#fff;stroke:none"></rect><line x1="52.78" y1="241.10" x2="110.79" y2="291.10" style="stroke:#333;stroke-width:1.50;fill:none;" marker-end="url(#arrow-arrow-solid)"></line><line x1="110.79" y1="91.10" x2="110.79" y2="141.10" style="stroke:#333;stroke-width:1.50;fill:none;" marker-end="url(#arrow-arrow-solid)"></line><line x1="168.80" y1="191.10" x2="168.80" y2="241.10" style="stroke:#333;stroke-width:1.50;fill:none;" marker-end="url(#arrow-arrow-solid)"></line><line x1="110.79" y1="41.10" x2="110.79" y2="91.10" style="stroke:#333;stroke-width:1.50;fill:none;" marker-end="url(#arrow-arrow-solid)"></line><line x1="168.80" y1="241.10" x2="110.79" y2="291.10" style="stroke:#333;stroke-width:1.50;fill:none;" marker-end="url(#arrow-arrow-solid)"></line><line x1="110.79" y1="141.10" x2="52.78" y2="241.10" style="stroke:#333;stroke-width:1.50;fill:none;" marker-end="url(#arrow-arrow-solid)"></line><rect x="67.55" y="177.85" width="28.47" height="26.50" style="fill:white;stroke:none"></rect><text x="81.79" y="191.10" text-anchor="middle" dominant-baseline="central" font-size="16.00" style="fill:#333;font-size:16.00px">No</text><line x1="110.79" y1="141.10" x2="168.80" y2="191.10" style="stroke:#333;stroke-width:1.50;fill:none;" marker-end="url(#arrow-arrow-solid)"></line><rect x="122.01" y="152.85" width="35.58" height="26.50" style="fill:white;stroke:none"></rect><text x="139.80" y="166.10" text-anchor="middle" dominant-baseline="central" font-size="16.00" style="fill:#333;font-size:16.00px">Yes</text><rect x="78.81" y="20.00" width="63.97" height="42.20" rx="21.10" ry="21.10" style="fill:#fff;stroke:#333;stroke-width:1.50"></rect><text x="110.79" y="41.10" text-anchor="middle" dominant-baseline="central" font-size="16.00" style="fill:#333;font-size:16.00px">Start</text><polygon points="74.62,70.00 146.96,70.00 177.97,112.20 43.62,112.20" style="fill:#fff;stroke:#333;stroke-width:1.50"></polygon><text x="110.79" y="91.10" text-anchor="middle" dominant-baseline="central" font-size="16.00" style="fill:#333;font-size:16.00px">Input data</text><polygon points="110.79,120.00 148.61,141.10 110.79,162.20 72.98,141.10" style="fill:#fff;stroke:#333;stroke-width:1.50"></polygon><text x="110.79" y="141.10" text-anchor="middle" dominant-baseline="central" font-size="16.00" style="fill:#333;font-size:16.00px">Valid?</text><rect x="124.90" y="170.00" width="87.81" height="42.20" style="fill:#fff;stroke:#333;stroke-width:1.50"></rect><text x="168.80" y="191.10" text-anchor="middle" dominant-baseline="central" font-size="16.00" style="fill:#333;font-size:16.00px">Process</text><rect x="20.00" y="220.00" width="65.56" height="42.20" style="fill:#fff;stroke:#333;stroke-width:1.50"></rect><text x="52.78" y="241.10" text-anchor="middle" dominant-baseline="central" font-size="16.00" style="fill:#333;font-size:16.00px">Error</text><path d="M135.56,224.22 L135.56,257.98 A33.24,4.22 0 0,0 202.05,257.98 L202.05,224.22 A33.24,4.22 0 0,0 135.56,224.22 M135.56,224.22 A33.24,4.22 0 0,0 202.05,224.22" style="fill:#fff;stroke:#333;stroke-width:1.50"></path><text x="168.80" y="241.10" text-anchor="middle" dominant-baseline="central" font-size="16.00" style="fill:#333;font-size:16.00px">Save</text><rect x="76.65" y="270.00" width="68.28" height="42.20" rx="21.10" ry="21.10" style="fill:#fff;stroke:#333;stroke-width:1.50"></rect><text x="110.79" y="291.10" text-anchor="middle" dominant-baseline="central" font-size="16.00" style="fill:#333;font-size:16.00px">Done</text></svg>