<?xml version="1.0" encoding="UTF-8"?>
<svg xmlns="http://www.w3.org/2000/svg" viewBox="0 0 612.45 166.88"><defs><marker id="arrow-arrow-solid" viewBox="0 0 10 10" refX="9.00" refY="5.00" markerWidth="8.00" markerHeight="8.00" orient="auto"><polygon points="0,0 10,5 0,10" style="fill:#333"></polygon></marker></defs><rect x="0.00" y="0.00" width="612.45" height="166.88" style="fill:#fff;stroke:none"></rect><path d="M113.97,85.79 L163.97,85.79" style="stroke:#333;stroke-width:1.5;fill:none" marker-end="url(#arrow-arrow-solid)"></path><path d="M274.81,74.44 L336.16,60.46" style="stroke:#333;stroke-width:1.5;fill:none" marker-end="url(#arrow-arrow-solid)"></path><rect x="287.70" y="54.20" width="35.58" height="26.50" rx="3.00" ry="3.00" style="fill:#fff;stroke:none"></rect><text x="305.48" y="67.45" text-anchor="middle" dominant-baseline="central" font-size="16.00" style="fill:#333;font-size:16.00px">Yes</text><path d="M274.81,97.13 C286.84,99.87 372.15,124.56 395.06,124.55 C417.98,124.54 493.08,99.74 503.97,96.99" style="stroke:#333;stroke-width:1.5;fill:none" marker-end="url(#arrow-arrow-solid)"></path><rect x="320.70" y="97.59" width="28.47" height="26.50" rx="3.00" ry="3.00" style="fill:#fff;stroke:none"></rect><text x="334.94" y="110.84" text-anchor="middle" dominant-baseline="central" font-size="16.00" style="fill:#333;font-size:16.00px">No</text><path d="M453.97,61.93 L503.97,74.59" style="stroke:#333;stroke-width:1.5;fill:none" marker-end="url(#arrow-arrow-solid)"></path><rect x="20.00" y="58.76" width="93.97" height="54.05" rx="2.00" ry="2.00" style="fill:#ECECFF;stroke:#9370DB;stroke-width:1.50"></rect><text x="66.98" y="85.79" text-anchor="middle" dominant-baseline="central" font-size="16.00" style="fill:#333;font-size:16.00px">Start</text><polygon points="225.06,24.69 286.16,85.79 225.06,146.88 163.97,85.79" style="fill:#ECECFF;stroke:#9370DB;stroke-width:1.50"></polygon><text x="225.06" y="85.79" text-anchor="middle" dominant-baseline="central" font-size="16.00" style="fill:#333;font-size:16.00px">Decision</text><rect x="336.16" y="20.00" width="117.81" height="54.05" rx="2.00" ry="2.00" style="fill:#ECECFF;stroke:#9370DB;stroke-width:1.50"></rect><text x="395.06" y="47.03" text-anchor="middle" dominant-baseline="central" font-size="16.00" style="fill:#333;font-size:16.00px">Process</text><rect x="503.97" y="58.76" width="88.48" height="54.05" rx="2.00" ry="2.00" style="fill:#ECECFF;stroke:#9370DB;stroke-width:1.50"></rect><text x="548.21" y="85.79" text-anchor="middle" dominant-baseline="central" font-size="16.00" style="fill:#333;font-size:16.00px">End</text></svg>