<?xml version="1.0" encoding="UTF-8"?>
<svg xmlns="http://www.w3.org/2000/svg" viewBox="0 0 493.97 118.00"><defs><marker id="arrow-arrow-solid" viewBox="0 0 10 10" refX="9.00" refY="5.00" markerWidth="8.00" markerHeight="8.00" orient="auto"><polygon points="0,0 10,5 0,10" style="fill:#333"></polygon></marker></defs><rect x="0.00" y="0.00" width="493.97" height="118.00" style="fill:#fff;stroke:none"></rect><line x1="83.97" y1="76.90" x2="133.97" y2="76.90" style="stroke:#333;stroke-width:1.5;fill:none" marker-end="url(#arrow-arrow-solid)"></line><line x1="226.16" y1="65.11" x2="276.16" y2="52.33" style="stroke:#333;stroke-width:1.5;fill:none" marker-end="url(#arrow-arrow-solid)"></line><rect x="232.27" y="45.75" width="35.58" height="26.50" rx="3.00" ry="3.00" style="fill:#fff;stroke:none"></rect><text x="250.06" y="59.00" text-anchor="middle" dominant-baseline="central" font-size="16.00" style="fill:#333;font-size:16.00px">Yes</text><path d="M226.16,88.69 C235.55,91.09 301.28,113.01 320.06,112.70 C338.84,112.39 404.58,88.28 413.97,85.57" style="stroke:#333;stroke-width:1.5;fill:none" marker-end="url(#arrow-arrow-solid)"></path><rect x="235.83" y="81.55" width="28.47" height="26.50" rx="3.00" ry="3.00" style="fill:#fff;stroke:none"></rect><text x="250.06" y="94.80" text-anchor="middle" dominant-baseline="central" font-size="16.00" style="fill:#333;font-size:16.00px">No</text><line x1="363.97" y1="53.79" x2="413.97" y2="68.23" style="stroke:#333;stroke-width:1.5;fill:none" marker-end="url(#arrow-arrow-solid)"></line><rect x="20.00" y="55.80" width="63.97" height="42.20" rx="2.00" ry="2.00" style="fill:#ECECFF;stroke:#9370DB;stroke-width:1.50"></rect><text x="51.98" y="76.90" text-anchor="middle" dominant-baseline="central" font-size="16.00" style="fill:#333;font-size:16.00px">Start</text><polygon points="180.06,55.80 226.16,76.90 180.06,98.00 133.97,76.90" style="fill:#ECECFF;stroke:#9370DB;stroke-width:1.50"></polygon><text x="180.06" y="76.90" text-anchor="middle" dominant-baseline="central" font-size="16.00" style="fill:#333;font-size:16.00px">Decision</text><rect x="276.16" y="20.00" width="87.81" height="42.20" rx="2.00" ry="2.00" style="fill:#ECECFF;stroke:#9370DB;stroke-width:1.50"></rect><text x="320.06" y="41.10" text-anchor="middle" dominant-baseline="central" font-size="16.00" style="fill:#333;font-size:16.00px">Process</text><rect x="413.97" y="55.80" width="60.00" height="42.20" rx="2.00" ry="2.00" style="fill:#ECECFF;stroke:#9370DB;stroke-width:1.50"></rect><text x="443.97" y="76.90" text-anchor="middle" dominant-baseline="central" font-size="16.00" style="fill:#333;font-size:16.00px">End</text></svg>