<?xml version="1.0" encoding="UTF-8"?>
<svg xmlns="http://www.w3.org/2000/svg" viewBox="0 0 251.98 82.20"><defs><marker id="arrow-arrow-solid" viewBox="0 0 10 10" refX="9.00" refY="5.00" markerWidth="8.00" markerHeight="8.00" orient="auto"><polygon points="0,0 10,5 0,10" style="fill:#333"></polygon></marker></defs><rect x="0.00" y="0.00" width="251.98" height="82.20" style="fill:#fff;stroke:none"></rect><line x1="51.98" y1="41.10" x2="101.98" y2="41.10" style="stroke:#333;stroke-width:1.50;fill:none;" marker-end="url(#arrow-arrow-solid)"></line><line x1="101.98" y1="41.10" x2="151.98" y2="41.10" style="stroke:#333;stroke-width:1.50;fill:none;" marker-end="url(#arrow-arrow-solid)"></line><rect x="109.20" y="27.85" width="35.58" height="26.50" style="fill:white;stroke:none"></rect><text x="126.98" y="41.10" text-anchor="middle" dominant-baseline="central" font-size="16.00" style="fill:#333;font-size:16.00px">Yes</text><line x1="101.98" y1="41.10" x2="201.98" y2="41.10" style="stroke:#333;stroke-width:1.50;fill:none;" marker-end="url(#arrow-arrow-solid)"></line><rect x="137.75" y="27.85" width="28.47" height="26.50" style="fill:white;stroke:none"></rect><text x="151.98" y="41.10" text-anchor="middle" dominant-baseline="central" font-size="16.00" style="fill:#333;font-size:16.00px">No</text><line x1="151.98" y1="41.10" x2="201.98" y2="41.10" style="stroke:#333;stroke-width:1.50;fill:none;" marker-end="url(#arrow-arrow-solid)"></line><rect x="20.00" y="20.00" width="63.97" height="42.20" style="fill:#fff;stroke:#333;stroke-width:1.50"></rect><text x="51.98" y="41.10" text-anchor="middle" dominant-baseline="central" font-size="16.00" style="fill:#333;font-size:16.00px">Start</text><polygon points="101.98,20.00 148.08,41.10 101.98,62.20 55.89,41.10" style="fill:#fff;stroke:#333;stroke-width:1.50"></polygon><text x="101.98" y="41.10" text-anchor="middle" dominant-baseline="central" font-size="16.00" style="fill:#333;font-size:16.00px">Decision</text><rect x="108.08" y="20.00" width="87.81" height="42.20" style="fill:#fff;stroke:#333;stroke-width:1.50"></rect><text x="151.98" y="41.10" text-anchor="middle" dominant-baseline="central" font-size="16.00" style="fill:#333;font-size:16.00px">Process</text><rect x="171.98" y="20.00" width="60.00" height="42.20" style="fill:#fff;stroke:#333;stroke-width:1.50"></rect><text x="201.98" y="41.10" text-anchor="middle" dominant-baseline="central" font-size="16.00" style="fill:#333;font-size:16.00px">End</text></svg>