<?xml version="1.0" encoding="UTF-8"?>
<svg xmlns="http://www.w3.org/2000/svg" viewBox="0 0 344.91 174.40"><defs><marker id="arrow-arrow-solid" viewBox="0 0 10 10" refX="9.00" refY="5.00" markerWidth="8.00" markerHeight="8.00" orient="auto"><polygon points="0,0 10,5 0,10" style="fill:#333"></polygon></marker></defs><rect x="0.00" y="0.00" width="344.91" height="174.40" style="fill:#fff;stroke:none"></rect><line x1="83.97" y1="87.20" x2="133.97" y2="87.20" style="stroke:#333;stroke-width:1.5;fill:none" marker-end="url(#arrow-arrow-solid)"></line><line x1="198.91" y1="76.77" x2="262.13" y2="52.58" style="stroke:#333;stroke-width:1.5;fill:none" marker-end="url(#arrow-arrow-solid)"></line><rect x="210.98" y="50.90" width="41.81" height="26.50" rx="3.00" ry="3.00" style="fill:#fff;stroke:none"></rect><text x="231.89" y="64.15" text-anchor="middle" dominant-baseline="central" font-size="16.00" style="fill:#333;font-size:16.00px">pass</text><line x1="198.91" y1="97.63" x2="259.34" y2="120.76" style="stroke:#333;stroke-width:1.5;fill:none" marker-end="url(#arrow-arrow-solid)"></line><rect x="217.09" y="97.00" width="29.59" height="26.50" rx="3.00" ry="3.00" style="fill:#fff;stroke:none"></rect><text x="231.89" y="110.25" text-anchor="middle" dominant-baseline="central" font-size="16.00" style="fill:#333;font-size:16.00px">fail</text><rect x="20.00" y="66.10" width="63.97" height="42.20" rx="2.00" ry="2.00" style="fill:#ECECFF;stroke:#9370DB;stroke-width:1.50;fill:#e1f5fe;stroke:#01579b"></rect><text x="51.98" y="87.20" text-anchor="middle" dominant-baseline="central" font-size="16.00" style="fill:#333;font-size:16.00px">Start</text><polygon points="171.66,49.51 209.34,87.20 171.66,124.89 133.97,87.20" style="fill:#ECECFF;stroke:#9370DB;stroke-width:1.50;fill:#fff9c4;stroke:#f9a825"></polygon><text x="171.66" y="87.20" text-anchor="middle" dominant-baseline="central" font-size="16.00" style="fill:#333;font-size:16.00px">Check</text><rect x="262.13" y="20.00" width="60.00" height="42.20" rx="2.00" ry="2.00" style="fill:#ECECFF;stroke:#9370DB;stroke-width:1.50;fill:#c8e6c9;stroke:#2e7d32"></rect><text x="292.13" y="41.10" text-anchor="middle" dominant-baseline="central" font-size="16.00" style="fill:#333;font-size:16.00px">OK</text><rect x="259.34" y="112.20" width="65.56" height="42.20" rx="2.00" ry="2.00" style="fill:#ECECFF;stroke:#9370DB;stroke-width:1.50;fill:#ffcdd2;stroke:#c62828"></rect><text x="292.13" y="133.30" text-anchor="middle" dominant-baseline="central" font-size="16.00" style="fill:#333;font-size:16.00px">Error</text></svg>