<?xml version="1.0" encoding="UTF-8"?>
<svg xmlns="http://www.w3.org/2000/svg" viewBox="0 0 434.91 198.10"><defs><marker id="arrow-arrow-solid" viewBox="0 0 10 10" refX="9.00" refY="5.00" markerWidth="8.00" markerHeight="8.00" orient="auto"><polygon points="0,0 10,5 0,10" style="fill:#333"></polygon></marker></defs><rect x="0.00" y="0.00" width="434.91" height="198.10" style="fill:#fff;stroke:none"></rect><line x1="113.97" y1="99.05" x2="163.97" y2="99.05" style="stroke:#333;stroke-width:1.5;fill:none" marker-end="url(#arrow-arrow-solid)"></line><line x1="255.81" y1="85.51" x2="325.56" y2="61.40" style="stroke:#333;stroke-width:1.5;fill:none" marker-end="url(#arrow-arrow-solid)"></line><rect x="270.98" y="59.79" width="41.81" height="26.50" rx="3.00" ry="3.00" style="fill:#fff;stroke:none"></rect><text x="291.89" y="73.04" text-anchor="middle" dominant-baseline="central" font-size="16.00" style="fill:#333;font-size:16.00px">pass</text><line x1="255.81" y1="112.59" x2="319.34" y2="134.55" style="stroke:#333;stroke-width:1.5;fill:none" marker-end="url(#arrow-arrow-solid)"></line><rect x="277.09" y="111.81" width="29.59" height="26.50" rx="3.00" ry="3.00" style="fill:#fff;stroke:none"></rect><text x="291.89" y="125.06" text-anchor="middle" dominant-baseline="central" font-size="16.00" style="fill:#333;font-size:16.00px">fail</text><rect x="20.00" y="72.03" width="93.97" height="54.05" rx="2.00" ry="2.00" style="fill:#ECECFF;stroke:#9370DB;stroke-width:1.50;fill:#e1f5fe;stroke:#01579b"></rect><text x="66.98" y="99.05" text-anchor="middle" dominant-baseline="central" font-size="16.00" style="fill:#333;font-size:16.00px">Start</text><polygon points="216.66,46.36 269.34,99.05 216.66,151.74 163.97,99.05" style="fill:#ECECFF;stroke:#9370DB;stroke-width:1.50;fill:#fff9c4;stroke:#f9a825"></polygon><text x="216.66" y="99.05" text-anchor="middle" dominant-baseline="central" font-size="16.00" style="fill:#333;font-size:16.00px">Check</text><rect x="325.56" y="20.00" width="83.13" height="54.05" rx="2.00" ry="2.00" style="fill:#ECECFF;stroke:#9370DB;stroke-width:1.50;fill:#c8e6c9;stroke:#2e7d32"></rect><text x="367.13" y="47.03" text-anchor="middle" dominant-baseline="central" font-size="16.00" style="fill:#333;font-size:16.00px">OK</text><rect x="319.34" y="124.05" width="95.56" height="54.05" rx="2.00" ry="2.00" style="fill:#ECECFF;stroke:#9370DB;stroke-width:1.50;fill:#ffcdd2;stroke:#c62828"></rect><text x="367.13" y="151.08" text-anchor="middle" dominant-baseline="central" font-size="16.00" style="fill:#333;font-size:16.00px">Error</text></svg>