<?xml version="1.0" encoding="UTF-8"?>
<svg xmlns="http://www.w3.org/2000/svg" viewBox="0 0 508.17 266.60"><defs><marker id="arrow-arrow-solid" viewBox="0 0 10 10" refX="9.00" refY="5.00" markerWidth="8.00" markerHeight="8.00" orient="auto"><polygon points="0,0 10,5 0,10" style="fill:#333"></polygon></marker></defs><rect x="0.00" y="0.00" width="508.17" height="266.60" style="fill:#fff;stroke:none"></rect><line x1="204.68" y1="154.40" x2="117.73" y2="204.40" style="stroke:#333;stroke-width:1.50;fill:none;" marker-end="url(#arrow-arrow-solid)"></line><line x1="241.38" y1="154.40" x2="241.38" y2="204.40" style="stroke:#333;stroke-width:1.50;fill:none;" marker-end="url(#arrow-arrow-solid)"></line><line x1="280.98" y1="154.40" x2="374.83" y2="204.40" style="stroke:#333;stroke-width:1.50;fill:none;" marker-end="url(#arrow-arrow-solid)"></line><line x1="184.20" y1="62.20" x2="224.41" y2="112.20" style="stroke:#333;stroke-width:1.50;fill:none;" marker-end="url(#arrow-arrow-solid)"></line><line x1="298.55" y1="62.20" x2="258.34" y2="112.20" style="stroke:#333;stroke-width:1.50;fill:none;" marker-end="url(#arrow-arrow-solid)"></line><rect x="272.85" y="20.00" width="85.33" height="42.20" style="fill:#fff;stroke:#333;stroke-width:1.50"></rect><text x="315.51" y="41.10" text-anchor="middle" dominant-baseline="central" font-size="16.00" style="fill:#333;font-size:16.00px">Web UI</text><rect x="188.94" y="112.20" width="104.88" height="42.20" style="fill:#fff;stroke:#333;stroke-width:1.50"></rect><text x="241.38" y="133.30" text-anchor="middle" dominant-baseline="central" font-size="16.00" style="fill:#333;font-size:16.00px">REST API</text><rect x="111.63" y="20.00" width="111.22" height="42.20" style="fill:#fff;stroke:#333;stroke-width:1.50"></rect><text x="167.24" y="41.10" text-anchor="middle" dominant-baseline="central" font-size="16.00" style="fill:#333;font-size:16.00px">Mobile App</text><path d="M192.06,208.62 L192.06,242.38 A49.31,4.22 0 0,0 290.69,242.38 L290.69,208.62 A49.31,4.22 0 0,0 192.06,208.62 M192.06,208.62 A49.31,4.22 0 0,0 290.69,208.62" style="fill:#fff;stroke:#333;stroke-width:1.50"></path><text x="241.38" y="225.50" text-anchor="middle" dominant-baseline="central" font-size="16.00" style="fill:#333;font-size:16.00px">Database</text><path d="M20.00,208.62 L20.00,242.38 A61.03,4.22 0 0,0 142.06,242.38 L142.06,208.62 A61.03,4.22 0 0,0 20.00,208.62 M20.00,208.62 A61.03,4.22 0 0,0 142.06,208.62" style="fill:#fff;stroke:#333;stroke-width:1.50"></path><text x="81.03" y="225.50" text-anchor="middle" dominant-baseline="central" font-size="16.00" style="fill:#333;font-size:16.00px">Redis Cache</text><rect x="340.69" y="204.40" width="147.48" height="42.20" style="fill:#fff;stroke:#333;stroke-width:1.50"></rect><line x1="355.44" y1="204.40" x2="355.44" y2="246.60" style="stroke:#333;stroke-width:1.50"></line><line x1="473.42" y1="204.40" x2="473.42" y2="246.60" style="stroke:#333;stroke-width:1.50"></line><text x="414.43" y="225.50" text-anchor="middle" dominant-baseline="central" font-size="16.00" style="fill:#333;font-size:16.00px">Message Queue</text></svg>