<?xml version="1.0" encoding="UTF-8"?>
<svg xmlns="http://www.w3.org/2000/svg" viewBox="0 0 508.17 182.20"><defs><marker id="arrow-arrow-solid" viewBox="0 0 10 10" refX="9.00" refY="5.00" markerWidth="8.00" markerHeight="8.00" orient="auto"><polygon points="0,0 10,5 0,10" style="fill:#333"></polygon></marker></defs><rect x="0.00" y="0.00" width="508.17" height="182.20" style="fill:#fff;stroke:none"></rect><line x1="241.38" y1="91.10" x2="81.03" y2="141.10" style="stroke:#333;stroke-width:1.50;fill:none;" marker-end="url(#arrow-arrow-solid)"></line><line x1="241.38" y1="91.10" x2="241.38" y2="141.10" style="stroke:#333;stroke-width:1.50;fill:none;" marker-end="url(#arrow-arrow-solid)"></line><line x1="241.38" y1="91.10" x2="414.43" y2="141.10" style="stroke:#333;stroke-width:1.50;fill:none;" marker-end="url(#arrow-arrow-solid)"></line><line x1="167.24" y1="41.10" x2="241.38" y2="91.10" style="stroke:#333;stroke-width:1.50;fill:none;" marker-end="url(#arrow-arrow-solid)"></line><line x1="315.51" y1="41.10" x2="241.38" y2="91.10" style="stroke:#333;stroke-width:1.50;fill:none;" marker-end="url(#arrow-arrow-solid)"></line><rect x="272.85" y="20.00" width="85.33" height="42.20" style="fill:#fff;stroke:#333;stroke-width:1.50"></rect><text x="315.51" y="41.10" text-anchor="middle" dominant-baseline="central" font-size="16.00" style="fill:#333;font-size:16.00px">Web UI</text><rect x="188.94" y="70.00" width="104.88" height="42.20" style="fill:#fff;stroke:#333;stroke-width:1.50"></rect><text x="241.38" y="91.10" text-anchor="middle" dominant-baseline="central" font-size="16.00" style="fill:#333;font-size:16.00px">REST API</text><rect x="111.63" y="20.00" width="111.22" height="42.20" style="fill:#fff;stroke:#333;stroke-width:1.50"></rect><text x="167.24" y="41.10" text-anchor="middle" dominant-baseline="central" font-size="16.00" style="fill:#333;font-size:16.00px">Mobile App</text><path d="M192.06,124.22 L192.06,157.98 A49.31,4.22 0 0,0 290.69,157.98 L290.69,124.22 A49.31,4.22 0 0,0 192.06,124.22 M192.06,124.22 A49.31,4.22 0 0,0 290.69,124.22" style="fill:#fff;stroke:#333;stroke-width:1.50"></path><text x="241.38" y="141.10" text-anchor="middle" dominant-baseline="central" font-size="16.00" style="fill:#333;font-size:16.00px">Database</text><path d="M20.00,124.22 L20.00,157.98 A61.03,4.22 0 0,0 142.06,157.98 L142.06,124.22 A61.03,4.22 0 0,0 20.00,124.22 M20.00,124.22 A61.03,4.22 0 0,0 142.06,124.22" style="fill:#fff;stroke:#333;stroke-width:1.50"></path><text x="81.03" y="141.10" text-anchor="middle" dominant-baseline="central" font-size="16.00" style="fill:#333;font-size:16.00px">Redis Cache</text><rect x="340.69" y="120.00" width="147.48" height="42.20" style="fill:#fff;stroke:#333;stroke-width:1.50"></rect><line x1="355.44" y1="120.00" x2="355.44" y2="162.20" style="stroke:#333;stroke-width:1.50"></line><line x1="473.42" y1="120.00" x2="473.42" y2="162.20" style="stroke:#333;stroke-width:1.50"></line><text x="414.43" y="141.10" text-anchor="middle" dominant-baseline="central" font-size="16.00" style="fill:#333;font-size:16.00px">Message Queue</text></svg>