<?xml version="1.0" encoding="UTF-8"?>
<svg xmlns="http://www.w3.org/2000/svg" viewBox="0 0 559.91 644.30"><defs><marker id="arrow-arrow-solid" viewBox="0 0 10 10" refX="9.00" refY="5.00" markerWidth="8.00" markerHeight="8.00" orient="auto"><polygon points="0,0 10,5 0,10" style="fill:#333"></polygon></marker></defs><rect x="0.00" y="0.00" width="559.91" height="644.30" style="fill:#fff;stroke:none"></rect><g transform="translate(0,30.00)"><rect x="0.00" y="312.15" width="217.48" height="198.10" rx="6.00" ry="6.00" style="fill:#E8F5E9;fill-opacity:0.35;stroke:#81C784;stroke-dasharray:4,3;stroke-width:1"></rect><g id="frontend"><rect x="158.85" y="-10.00" width="342.55" height="102.05" rx="5.00" ry="5.00" style="fill:#eee;stroke:#999;stroke-width:1.50"></rect><text x="330.12" y="8.00" text-anchor="middle" dominant-baseline="central" font-size="16.00" style="fill:#333;font-size:16.00px">Frontend</text></g><g id="backend"><rect x="145.75" y="94.05" width="412.16" height="518.25" rx="5.00" ry="5.00" style="fill:#eee;stroke:#999;stroke-width:1.50"></rect><text x="351.83" y="112.05" text-anchor="middle" dominant-baseline="central" font-size="16.00" style="fill:#333;font-size:16.00px">Backend Services</text></g><g id="infra"><rect x="2.00" y="302.15" width="353.85" height="310.15" rx="5.00" ry="5.00" style="fill:#eee;stroke:#999;stroke-width:1.50"></rect><text x="178.92" y="320.15" text-anchor="middle" dominant-baseline="central" font-size="16.00" style="fill:#333;font-size:16.00px">Infrastructure</text></g><path d="M359.61,178.10 C366.17,185.80 418.64,237.02 425.20,255.13 C431.76,273.23 423.98,341.07 425.20,359.18 C426.42,377.28 436.18,428.50 437.40,436.20" style="stroke:#333;stroke-width:1.5;fill:none" marker-end="url(#arrow-arrow-solid)"></path><line x1="313.58" y1="178.10" x2="271.00" y2="228.10" style="stroke:#333;stroke-width:1.5;fill:none" marker-end="url(#arrow-arrow-solid)"></line><line x1="398.01" y1="490.25" x2="317.21" y2="540.25" style="stroke:#333;stroke-width:1.5;fill:none" marker-end="url(#arrow-arrow-solid)"></line><path d="M269.86,282.15 C271.89,284.65 287.18,299.45 290.10,307.15 C293.02,314.85 296.54,343.57 299.09,359.18 C301.63,374.78 302.94,445.12 315.56,463.23 C328.19,481.33 414.38,532.55 425.36,540.25" style="stroke:#333;stroke-width:1.5;fill:none" marker-end="url(#arrow-arrow-solid)"></path><path d="M247.98,282.15 C247.98,284.65 247.98,299.45 247.98,307.15 C247.98,314.85 249.63,343.57 247.98,359.18 C246.34,374.78 230.04,445.12 231.51,463.23 C232.97,481.33 259.51,532.55 262.62,540.25" style="stroke:#333;stroke-width:1.5;fill:none" marker-end="url(#arrow-arrow-solid)"></path><path d="M226.11,282.15 C224.08,284.65 207.89,304.65 205.87,307.15 C203.84,309.65 210.53,304.65 205.87,307.15 C201.20,309.65 163.86,329.65 159.19,332.15" style="stroke:#333;stroke-width:1.5;fill:none" marker-end="url(#arrow-arrow-solid)"></path><line x1="270.61" y1="74.05" x2="313.44" y2="124.05" style="stroke:#333;stroke-width:1.5;fill:none" marker-end="url(#arrow-arrow-solid)"></line><line x1="113.02" y1="386.20" x2="120.94" y2="436.20" style="stroke:#333;stroke-width:1.5;fill:none" marker-end="url(#arrow-arrow-solid)"></line><line x1="402.58" y1="74.05" x2="359.75" y2="124.05" style="stroke:#333;stroke-width:1.5;fill:none" marker-end="url(#arrow-arrow-solid)"></line><line x1="163.74" y1="490.25" x2="235.01" y2="540.25" style="stroke:#333;stroke-width:1.5;fill:none" marker-end="url(#arrow-arrow-solid)"></line><rect x="368.07" y="20.00" width="115.33" height="54.05" rx="2.00" ry="2.00" style="fill:#ECECFF;stroke:#9370DB;stroke-width:1.50"></rect><text x="425.73" y="47.03" text-anchor="middle" dominant-baseline="central" font-size="16.00" style="fill:#333;font-size:16.00px">Web UI</text><rect x="176.85" y="20.00" width="141.22" height="54.05" rx="2.00" ry="2.00" style="fill:#ECECFF;stroke:#9370DB;stroke-width:1.50"></rect><text x="247.46" y="47.03" text-anchor="middle" dominant-baseline="central" font-size="16.00" style="fill:#333;font-size:16.00px">Mobile App</text><rect x="269.16" y="124.05" width="134.88" height="54.05" rx="2.00" ry="2.00" style="fill:#ECECFF;stroke:#9370DB;stroke-width:1.50"></rect><text x="336.59" y="151.08" text-anchor="middle" dominant-baseline="central" font-size="16.00" style="fill:#333;font-size:16.00px">REST API</text><rect x="366.06" y="436.20" width="151.23" height="54.05" rx="2.00" ry="2.00" style="fill:#ECECFF;stroke:#9370DB;stroke-width:1.50"></rect><text x="441.68" y="463.23" text-anchor="middle" dominant-baseline="central" font-size="16.00" style="fill:#333;font-size:16.00px">Auth Service</text><rect x="163.75" y="228.10" width="168.47" height="54.05" rx="2.00" ry="2.00" style="fill:#ECECFF;stroke:#9370DB;stroke-width:1.50"></rect><text x="247.98" y="255.13" text-anchor="middle" dominant-baseline="central" font-size="16.00" style="fill:#333;font-size:16.00px">Business Logic</text><path d="M387.85,545.66 L387.85,588.90 A76.03,5.41 0 0,0 539.91,588.90 L539.91,545.66 A76.03,5.41 0 0,0 387.85,545.66 M387.85,545.66 A76.03,5.41 0 0,0 539.91,545.66" style="fill:#ECECFF;stroke:#9370DB;stroke-width:1.50"></path><text x="463.88" y="567.28" text-anchor="middle" dominant-baseline="central" font-size="16.00" style="fill:#333;font-size:16.00px">Redis Cache</text><rect x="20.00" y="332.15" width="177.48" height="54.05" style="fill:#ECECFF;stroke:#9370DB;stroke-width:1.50"></rect><line x1="37.75" y1="332.15" x2="37.75" y2="386.20" style="stroke:#9370DB;stroke-width:1.50"></line><line x1="179.74" y1="332.15" x2="179.74" y2="386.20" style="stroke:#9370DB;stroke-width:1.50"></line><text x="108.74" y="359.18" text-anchor="middle" dominant-baseline="central" font-size="16.00" style="fill:#333;font-size:16.00px">Message Queue</text><rect x="69.43" y="436.20" width="111.58" height="54.05" rx="2.00" ry="2.00" style="fill:#ECECFF;stroke:#9370DB;stroke-width:1.50"></rect><text x="125.22" y="463.23" text-anchor="middle" dominant-baseline="central" font-size="16.00" style="fill:#333;font-size:16.00px">Worker</text><path d="M209.22,545.66 L209.22,588.90 A64.31,5.41 0 0,0 337.85,588.90 L337.85,545.66 A64.31,5.41 0 0,0 209.22,545.66 M209.22,545.66 A64.31,5.41 0 0,0 337.85,545.66" style="fill:#ECECFF;stroke:#9370DB;stroke-width:1.50"></path><text x="273.54" y="567.28" text-anchor="middle" dominant-baseline="central" font-size="16.00" style="fill:#333;font-size:16.00px">Database</text></g></svg>