<?xml version="1.0" encoding="UTF-8"?>
<svg xmlns="http://www.w3.org/2000/svg" viewBox="0 0 484.86 573.20"><defs><marker id="arrow-arrow-solid" viewBox="0 0 10 10" refX="9.00" refY="5.00" markerWidth="8.00" markerHeight="8.00" orient="auto"><polygon points="0,0 10,5 0,10" style="fill:#333"></polygon></marker></defs><rect x="0.00" y="0.00" width="484.86" height="573.20" style="fill:#fff;stroke:none"></rect><g transform="translate(0,30.00)"><rect x="0.00" y="276.60" width="187.48" height="174.40" rx="6.00" ry="6.00" style="fill:#FFF9C4;fill-opacity:0.35;stroke:#FFF176;stroke-dasharray:4,3;stroke-width:1"></rect><g id="frontend"><rect x="153.85" y="-10.00" width="262.55" height="172.40" rx="5.00" ry="5.00" style="fill:#eee;stroke:#999;stroke-width:1.50"></rect><text x="285.12" y="5.00" text-anchor="middle" dominant-baseline="central" font-size="16.00" style="fill:#333;font-size:16.00px">Frontend</text></g><g id="backend"><rect x="12.00" y="174.40" width="460.86" height="356.80" rx="5.00" ry="5.00" style="fill:#eee;stroke:#999;stroke-width:1.50"></rect><text x="242.43" y="189.40" text-anchor="middle" dominant-baseline="central" font-size="16.00" style="fill:#333;font-size:16.00px">Backend Services</text></g><g id="infra"><rect x="38.47" y="358.80" width="158.40" height="80.20" rx="5.00" ry="5.00" style="fill:#eee;stroke:#999;stroke-width:1.50"></rect><text x="117.67" y="373.80" text-anchor="middle" dominant-baseline="central" font-size="16.00" style="fill:#333;font-size:16.00px">Infrastructure</text></g><path d="M308.44,154.40 C314.12,161.51 359.53,209.17 365.20,225.50 C370.88,241.83 363.36,301.37 365.20,317.70 C367.05,334.03 381.81,381.69 383.65,388.80" style="stroke:#333;stroke-width:1.5;fill:none" marker-end="url(#arrow-arrow-solid)"></path><line x1="274.75" y1="154.40" x2="234.83" y2="204.40" style="stroke:#333;stroke-width:1.5;fill:none" marker-end="url(#arrow-arrow-solid)"></line><line x1="355.80" y1="431.00" x2="276.82" y2="481.00" style="stroke:#333;stroke-width:1.5;fill:none" marker-end="url(#arrow-arrow-solid)"></line><path d="M233.83,246.60 C235.71,249.10 249.09,264.49 252.60,271.60 C256.12,278.71 266.44,303.87 268.98,317.70 C271.53,331.53 267.41,393.57 278.01,409.90 C288.62,426.23 365.33,473.89 375.03,481.00" style="stroke:#333;stroke-width:1.5;fill:none" marker-end="url(#arrow-arrow-solid)"></path><path d="M217.98,246.60 C217.98,249.10 217.98,264.49 217.98,271.60 C217.98,278.71 218.89,303.87 217.98,317.70 C217.08,331.53 207.20,393.57 208.96,409.90 C210.72,426.23 232.92,473.89 235.58,481.00" style="stroke:#333;stroke-width:1.5;fill:none" marker-end="url(#arrow-arrow-solid)"></path><path d="M202.14,246.60 C200.26,249.10 185.24,269.10 183.37,271.60 C181.49,274.10 188.23,269.10 183.37,271.60 C178.51,274.10 139.62,294.10 134.76,296.60" style="stroke:#333;stroke-width:1.5;fill:none" marker-end="url(#arrow-arrow-solid)"></path><line x1="234.42" y1="62.20" x2="274.63" y2="112.20" style="stroke:#333;stroke-width:1.5;fill:none" marker-end="url(#arrow-arrow-solid)"></line><line x1="99.22" y1="338.80" x2="112.19" y2="388.80" style="stroke:#333;stroke-width:1.5;fill:none" marker-end="url(#arrow-arrow-solid)"></line><line x1="348.76" y1="62.20" x2="308.56" y2="112.20" style="stroke:#333;stroke-width:1.5;fill:none" marker-end="url(#arrow-arrow-solid)"></line><line x1="146.46" y1="431.00" x2="214.69" y2="481.00" style="stroke:#333;stroke-width:1.5;fill:none" marker-end="url(#arrow-arrow-solid)"></line><rect x="323.07" y="20.00" width="85.33" height="42.20" rx="2.00" ry="2.00" style="fill:#ECECFF;stroke:#9370DB;stroke-width:1.50"></rect><text x="365.73" y="41.10" text-anchor="middle" dominant-baseline="central" font-size="16.00" style="fill:#333;font-size:16.00px">Web UI</text><rect x="239.16" y="112.20" width="104.88" height="42.20" rx="2.00" ry="2.00" style="fill:#ECECFF;stroke:#9370DB;stroke-width:1.50"></rect><text x="291.59" y="133.30" text-anchor="middle" dominant-baseline="central" font-size="16.00" style="fill:#333;font-size:16.00px">REST API</text><rect x="161.85" y="20.00" width="111.22" height="42.20" rx="2.00" ry="2.00" style="fill:#ECECFF;stroke:#9370DB;stroke-width:1.50"></rect><text x="217.46" y="41.10" text-anchor="middle" dominant-baseline="central" font-size="16.00" style="fill:#333;font-size:16.00px">Mobile App</text><rect x="328.51" y="388.80" width="121.23" height="42.20" rx="2.00" ry="2.00" style="fill:#ECECFF;stroke:#9370DB;stroke-width:1.50"></rect><text x="389.13" y="409.90" text-anchor="middle" dominant-baseline="central" font-size="16.00" style="fill:#333;font-size:16.00px">Auth Service</text><rect x="148.75" y="204.40" width="138.47" height="42.20" rx="2.00" ry="2.00" style="fill:#ECECFF;stroke:#9370DB;stroke-width:1.50"></rect><text x="217.98" y="225.50" text-anchor="middle" dominant-baseline="central" font-size="16.00" style="fill:#333;font-size:16.00px">Business Logic</text><path d="M194.17,485.22 L194.17,518.98 A49.31,4.22 0 0,0 292.80,518.98 L292.80,485.22 A49.31,4.22 0 0,0 194.17,485.22 M194.17,485.22 A49.31,4.22 0 0,0 292.80,485.22" style="fill:#ECECFF;stroke:#9370DB;stroke-width:1.50"></path><text x="243.48" y="502.10" text-anchor="middle" dominant-baseline="central" font-size="16.00" style="fill:#333;font-size:16.00px">Database</text><path d="M342.80,485.22 L342.80,518.98 A61.03,4.22 0 0,0 464.86,518.98 L464.86,485.22 A61.03,4.22 0 0,0 342.80,485.22 M342.80,485.22 A61.03,4.22 0 0,0 464.86,485.22" style="fill:#ECECFF;stroke:#9370DB;stroke-width:1.50"></path><text x="403.83" y="502.10" text-anchor="middle" dominant-baseline="central" font-size="16.00" style="fill:#333;font-size:16.00px">Redis Cache</text><rect x="20.00" y="296.60" width="147.48" height="42.20" style="fill:#ECECFF;stroke:#9370DB;stroke-width:1.50"></rect><line x1="34.75" y1="296.60" x2="34.75" y2="338.80" style="stroke:#9370DB;stroke-width:1.50"></line><line x1="152.74" y1="296.60" x2="152.74" y2="338.80" style="stroke:#9370DB;stroke-width:1.50"></line><text x="93.74" y="317.70" text-anchor="middle" dominant-baseline="central" font-size="16.00" style="fill:#333;font-size:16.00px">Message Queue</text><rect x="76.88" y="388.80" width="81.58" height="42.20" rx="2.00" ry="2.00" style="fill:#ECECFF;stroke:#9370DB;stroke-width:1.50"></rect><text x="117.67" y="409.90" text-anchor="middle" dominant-baseline="central" font-size="16.00" style="fill:#333;font-size:16.00px">Worker</text></g></svg>