<?xml version="1.0" encoding="UTF-8"?>
<svg xmlns="http://www.w3.org/2000/svg" viewBox="0 0 688.26 644.30"><defs><marker id="arrow-arrow-solid" viewBox="0 0 10 10" refX="9.00" refY="5.00" markerWidth="8.00" markerHeight="8.00" orient="auto"><polygon points="0,0 10,5 0,10" style="fill:#333"></polygon></marker></defs><rect x="0.00" y="0.00" width="688.26" height="644.30" style="fill:#fff;stroke:none"></rect><g transform="translate(0,30.00)"><rect x="235.02" y="312.15" width="217.48" height="198.10" rx="6.00" ry="6.00" style="fill:#E8F5E9;fill-opacity:0.35;stroke:#81C784;stroke-dasharray:4,3;stroke-width:1"></rect><g id="frontend"><rect x="282.21" y="-10.00" width="342.55" height="102.05" rx="5.00" ry="5.00" style="fill:#eee;stroke:#999;stroke-width:1.50"></rect><text x="453.49" y="8.00" text-anchor="middle" dominant-baseline="central" font-size="16.00" style="fill:#333;font-size:16.00px">Frontend</text></g><g id="backend"><rect x="2.00" y="94.05" width="684.26" height="414.20" rx="5.00" ry="5.00" style="fill:#eee;stroke:#999;stroke-width:1.50"></rect><text x="344.13" y="112.05" text-anchor="middle" dominant-baseline="central" font-size="16.00" style="fill:#333;font-size:16.00px">Backend Services</text></g><g id="infra"><rect x="237.02" y="302.15" width="311.82" height="310.15" rx="5.00" ry="5.00" style="fill:#eee;stroke:#999;stroke-width:1.50"></rect><text x="392.93" y="320.15" text-anchor="middle" dominant-baseline="central" font-size="16.00" style="fill:#333;font-size:16.00px">Infrastructure</text></g><path d="M490.14,178.10 C498.74,185.80 567.56,237.02 576.16,255.13 C584.77,273.23 574.94,341.07 576.16,359.18 C577.38,377.28 587.14,428.50 588.36,436.20" style="stroke:#333;stroke-width:1.5;fill:none" marker-end="url(#arrow-arrow-solid)"></path><path d="M429.78,178.10 L426.05,181.44 L377.66,224.76 L373.94,228.10" style="stroke:#333;stroke-width:1.5;fill:none" marker-end="url(#arrow-arrow-solid)"></path><path d="M559.88,490.25 L556.03,493.43 L503.14,537.07 L499.28,540.25" style="stroke:#333;stroke-width:1.5;fill:none" marker-end="url(#arrow-arrow-solid)"></path><path d="M321.88,282.15 C319.86,284.65 303.66,304.65 301.64,307.15 C299.62,309.65 314.60,303.87 301.64,307.15 C288.68,310.43 185.02,336.66 172.06,339.94" style="stroke:#333;stroke-width:1.5;fill:none" marker-end="url(#arrow-arrow-solid)"></path><path d="M365.64,282.15 C367.66,284.65 374.14,299.45 385.88,307.15 C397.61,314.85 474.94,343.57 483.00,359.18 C491.06,374.78 468.17,445.12 466.52,463.23 C464.88,481.33 466.52,532.55 466.52,540.25" style="stroke:#333;stroke-width:1.5;fill:none" marker-end="url(#arrow-arrow-solid)"></path><path d="M343.76,282.15 C343.76,284.65 343.76,304.65 343.76,307.15 C343.76,309.65 343.76,304.65 343.76,307.15 C343.76,309.65 343.76,329.65 343.76,332.15" style="stroke:#333;stroke-width:1.5;fill:none" marker-end="url(#arrow-arrow-solid)"></path><path d="M393.98,74.05 L397.23,77.85 L433.56,120.25 L436.81,124.05" style="stroke:#333;stroke-width:1.5;fill:none" marker-end="url(#arrow-arrow-solid)"></path><path d="M348.04,386.20 L348.82,391.14 L355.17,431.26 L355.95,436.20" style="stroke:#333;stroke-width:1.5;fill:none" marker-end="url(#arrow-arrow-solid)"></path><path d="M525.95,74.05 L522.69,77.85 L486.37,120.25 L483.11,124.05" style="stroke:#333;stroke-width:1.5;fill:none" marker-end="url(#arrow-arrow-solid)"></path><path d="M387.84,490.25 L391.41,493.75 L435.34,536.75 L438.92,540.25" style="stroke:#333;stroke-width:1.5;fill:none" marker-end="url(#arrow-arrow-solid)"></path><rect x="491.43" y="20.00" width="115.33" height="54.05" rx="2.00" ry="2.00" style="fill:#ECECFF;stroke:#9370DB;stroke-width:1.50"></rect><text x="549.10" y="47.03" text-anchor="middle" dominant-baseline="central" font-size="16.00" style="fill:#333;font-size:16.00px">Web UI</text><rect x="300.21" y="20.00" width="141.22" height="54.05" rx="2.00" ry="2.00" style="fill:#ECECFF;stroke:#9370DB;stroke-width:1.50"></rect><text x="370.82" y="47.03" text-anchor="middle" dominant-baseline="central" font-size="16.00" style="fill:#333;font-size:16.00px">Mobile App</text><rect x="392.52" y="124.05" width="134.88" height="54.05" rx="2.00" ry="2.00" style="fill:#ECECFF;stroke:#9370DB;stroke-width:1.50"></rect><text x="459.96" y="151.08" text-anchor="middle" dominant-baseline="central" font-size="16.00" style="fill:#333;font-size:16.00px">REST API</text><rect x="517.02" y="436.20" width="151.23" height="54.05" rx="2.00" ry="2.00" style="fill:#ECECFF;stroke:#9370DB;stroke-width:1.50"></rect><text x="592.64" y="463.23" text-anchor="middle" dominant-baseline="central" font-size="16.00" style="fill:#333;font-size:16.00px">Auth Service</text><rect x="259.52" y="228.10" width="168.47" height="54.05" rx="2.00" ry="2.00" style="fill:#ECECFF;stroke:#9370DB;stroke-width:1.50"></rect><text x="343.76" y="255.13" text-anchor="middle" dominant-baseline="central" font-size="16.00" style="fill:#333;font-size:16.00px">Business Logic</text><path d="M20.00,337.56 L20.00,380.80 A76.03,5.41 0 0,0 172.06,380.80 L172.06,337.56 A76.03,5.41 0 0,0 20.00,337.56 M20.00,337.56 A76.03,5.41 0 0,0 172.06,337.56" style="fill:#ECECFF;stroke:#9370DB;stroke-width:1.50"></path><text x="96.03" y="359.18" text-anchor="middle" dominant-baseline="central" font-size="16.00" style="fill:#333;font-size:16.00px">Redis Cache</text><rect x="255.02" y="332.15" width="177.48" height="54.05" style="fill:#ECECFF;stroke:#9370DB;stroke-width:1.50"></rect><line x1="272.76" y1="332.15" x2="272.76" y2="386.20" style="stroke:#9370DB;stroke-width:1.50"></line><line x1="414.75" y1="332.15" x2="414.75" y2="386.20" style="stroke:#9370DB;stroke-width:1.50"></line><text x="343.76" y="359.18" text-anchor="middle" dominant-baseline="central" font-size="16.00" style="fill:#333;font-size:16.00px">Message Queue</text><rect x="304.45" y="436.20" width="111.58" height="54.05" rx="2.00" ry="2.00" style="fill:#ECECFF;stroke:#9370DB;stroke-width:1.50"></rect><text x="360.23" y="463.23" text-anchor="middle" dominant-baseline="central" font-size="16.00" style="fill:#333;font-size:16.00px">Worker</text><path d="M402.21,545.66 L402.21,588.90 A64.31,5.41 0 0,0 530.84,588.90 L530.84,545.66 A64.31,5.41 0 0,0 402.21,545.66 M402.21,545.66 A64.31,5.41 0 0,0 530.84,545.66" style="fill:#ECECFF;stroke:#9370DB;stroke-width:1.50"></path><text x="466.52" y="567.28" text-anchor="middle" dominant-baseline="central" font-size="16.00" style="fill:#333;font-size:16.00px">Database</text></g></svg>