<?xml version="1.0" encoding="UTF-8"?>
<svg xmlns="http://www.w3.org/2000/svg" viewBox="0 0 544.86 603.20"><defs><marker id="arrow-arrow-solid" viewBox="0 0 10 10" refX="9.00" refY="5.00" markerWidth="8.00" markerHeight="8.00" orient="auto"><polygon points="0,0 10,5 0,10" style="fill:#333"></polygon></marker></defs><rect x="0.00" y="0.00" width="544.86" height="603.20" style="fill:#fff;stroke:none"></rect><g id="frontend"><rect x="183.85" y="20.00" width="262.55" height="172.40" rx="5.00" ry="5.00" style="fill:#eee;stroke:#999;stroke-width:1.50"></rect><text x="315.12" y="35.00" text-anchor="middle" dominant-baseline="central" font-size="16.00" style="fill:#333;font-size:16.00px">Frontend</text></g><g id="backend"><rect x="42.00" y="204.40" width="460.86" height="356.80" rx="5.00" ry="5.00" style="fill:#eee;stroke:#999;stroke-width:1.50"></rect><text x="272.43" y="219.40" text-anchor="middle" dominant-baseline="central" font-size="16.00" style="fill:#333;font-size:16.00px">Backend Services</text></g><g id="infra"><rect x="98.88" y="388.80" width="97.58" height="80.20" rx="5.00" ry="5.00" style="fill:#eee;stroke:#999;stroke-width:1.50"></rect><text x="147.67" y="403.80" text-anchor="middle" dominant-baseline="central" font-size="16.00" style="fill:#333;font-size:16.00px">Infrastructure</text></g><path d="M338.44,184.40 C344.12,191.51 389.53,239.17 395.20,255.50 C400.88,271.83 393.36,331.37 395.20,347.70 C397.05,364.03 411.81,411.69 413.65,418.80" style="stroke:#333;stroke-width:1.5;fill:none" marker-end="url(#arrow-arrow-solid)"></path><line x1="304.75" y1="184.40" x2="264.83" y2="234.40" style="stroke:#333;stroke-width:1.5;fill:none" marker-end="url(#arrow-arrow-solid)"></line><line x1="385.80" y1="461.00" x2="306.82" y2="511.00" style="stroke:#333;stroke-width:1.5;fill:none" marker-end="url(#arrow-arrow-solid)"></line><path d="M259.66,276.60 C263.59,283.71 294.15,331.37 298.98,347.70 C303.82,364.03 297.41,423.57 308.01,439.90 C318.62,456.23 395.33,503.89 405.03,511.00" style="stroke:#333;stroke-width:1.5;fill:none" marker-end="url(#arrow-arrow-solid)"></path><path d="M247.98,276.60 C247.98,283.71 248.89,331.37 247.98,347.70 C247.08,364.03 237.20,423.57 238.96,439.90 C240.72,456.23 262.92,503.89 265.58,511.00" style="stroke:#333;stroke-width:1.5;fill:none" marker-end="url(#arrow-arrow-solid)"></path><line x1="219.55" y1="276.60" x2="152.18" y2="326.60" style="stroke:#333;stroke-width:1.5;fill:none" marker-end="url(#arrow-arrow-solid)"></line><line x1="264.42" y1="92.20" x2="304.63" y2="142.20" style="stroke:#333;stroke-width:1.5;fill:none" marker-end="url(#arrow-arrow-solid)"></line><line x1="129.22" y1="368.80" x2="142.19" y2="418.80" style="stroke:#333;stroke-width:1.5;fill:none" marker-end="url(#arrow-arrow-solid)"></line><line x1="378.76" y1="92.20" x2="338.56" y2="142.20" style="stroke:#333;stroke-width:1.5;fill:none" marker-end="url(#arrow-arrow-solid)"></line><line x1="176.46" y1="461.00" x2="244.69" y2="511.00" style="stroke:#333;stroke-width:1.5;fill:none" marker-end="url(#arrow-arrow-solid)"></line><rect x="353.07" y="50.00" width="85.33" height="42.20" rx="2.00" ry="2.00" style="fill:#ECECFF;stroke:#9370DB;stroke-width:1.50"></rect><text x="395.73" y="71.10" text-anchor="middle" dominant-baseline="central" font-size="16.00" style="fill:#333;font-size:16.00px">Web UI</text><rect x="269.16" y="142.20" width="104.88" height="42.20" rx="2.00" ry="2.00" style="fill:#ECECFF;stroke:#9370DB;stroke-width:1.50"></rect><text x="321.59" y="163.30" text-anchor="middle" dominant-baseline="central" font-size="16.00" style="fill:#333;font-size:16.00px">REST API</text><rect x="191.85" y="50.00" width="111.22" height="42.20" rx="2.00" ry="2.00" style="fill:#ECECFF;stroke:#9370DB;stroke-width:1.50"></rect><text x="247.46" y="71.10" text-anchor="middle" dominant-baseline="central" font-size="16.00" style="fill:#333;font-size:16.00px">Mobile App</text><rect x="358.51" y="418.80" width="121.23" height="42.20" rx="2.00" ry="2.00" style="fill:#ECECFF;stroke:#9370DB;stroke-width:1.50"></rect><text x="419.13" y="439.90" text-anchor="middle" dominant-baseline="central" font-size="16.00" style="fill:#333;font-size:16.00px">Auth Service</text><rect x="178.75" y="234.40" width="138.47" height="42.20" rx="2.00" ry="2.00" style="fill:#ECECFF;stroke:#9370DB;stroke-width:1.50"></rect><text x="247.98" y="255.50" text-anchor="middle" dominant-baseline="central" font-size="16.00" style="fill:#333;font-size:16.00px">Business Logic</text><path d="M224.17,515.22 L224.17,548.98 A49.31,4.22 0 0,0 322.80,548.98 L322.80,515.22 A49.31,4.22 0 0,0 224.17,515.22 M224.17,515.22 A49.31,4.22 0 0,0 322.80,515.22" style="fill:#ECECFF;stroke:#9370DB;stroke-width:1.50"></path><text x="273.48" y="532.10" text-anchor="middle" dominant-baseline="central" font-size="16.00" style="fill:#333;font-size:16.00px">Database</text><path d="M372.80,515.22 L372.80,548.98 A61.03,4.22 0 0,0 494.86,548.98 L494.86,515.22 A61.03,4.22 0 0,0 372.80,515.22 M372.80,515.22 A61.03,4.22 0 0,0 494.86,515.22" style="fill:#ECECFF;stroke:#9370DB;stroke-width:1.50"></path><text x="433.83" y="532.10" text-anchor="middle" dominant-baseline="central" font-size="16.00" style="fill:#333;font-size:16.00px">Redis Cache</text><rect x="50.00" y="326.60" width="147.48" height="42.20" style="fill:#ECECFF;stroke:#9370DB;stroke-width:1.50"></rect><line x1="64.75" y1="326.60" x2="64.75" y2="368.80" style="stroke:#9370DB;stroke-width:1.50"></line><line x1="182.74" y1="326.60" x2="182.74" y2="368.80" style="stroke:#9370DB;stroke-width:1.50"></line><text x="123.74" y="347.70" text-anchor="middle" dominant-baseline="central" font-size="16.00" style="fill:#333;font-size:16.00px">Message Queue</text><rect x="106.88" y="418.80" width="81.58" height="42.20" rx="2.00" ry="2.00" style="fill:#ECECFF;stroke:#9370DB;stroke-width:1.50"></rect><text x="147.67" y="439.90" text-anchor="middle" dominant-baseline="central" font-size="16.00" style="fill:#333;font-size:16.00px">Worker</text></svg>