<?xml version="1.0" encoding="UTF-8"?>
<svg xmlns="http://www.w3.org/2000/svg" viewBox="0 0 1004.00 232.00"><rect x="0.00" y="0.00" width="1004.00" height="232.00" style="fill:#fff;stroke:none"></rect><text x="502.00" y="35.00" text-anchor="middle" dominant-baseline="central" style="fill:#333;font-size:16px;font-weight:bold">Career Milestones</text><rect x="20.00" y="50.00" width="376.00" height="28.00" rx="4.00" ry="4.00" style="fill:#4e79a7;fill-opacity:0.18;stroke:#4e79a7;stroke-width:1;stroke-opacity:0.5"></rect><text x="208.00" y="64.00" text-anchor="middle" dominant-baseline="central" style="fill:#4e79a7;font-size:14px;font-weight:bold">Education</text><rect x="412.00" y="50.00" width="376.00" height="28.00" rx="4.00" ry="4.00" style="fill:#f28e2b;fill-opacity:0.18;stroke:#f28e2b;stroke-width:1;stroke-opacity:0.5"></rect><text x="600.00" y="64.00" text-anchor="middle" dominant-baseline="central" style="fill:#f28e2b;font-size:14px;font-weight:bold">Early career</text><rect x="804.00" y="50.00" width="180.00" height="28.00" rx="4.00" ry="4.00" style="fill:#59a14f;fill-opacity:0.18;stroke:#59a14f;stroke-width:1;stroke-opacity:0.5"></rect><text x="894.00" y="64.00" text-anchor="middle" dominant-baseline="central" style="fill:#59a14f;font-size:14px;font-weight:bold">Now</text><line x1="20.00" y1="108.00" x2="984.00" y2="108.00" style="stroke:#999;stroke-width:2"></line><text x="110.00" y="95.00" text-anchor="middle" dominant-baseline="central" style="fill:#333;font-size:14px;font-weight:bold">2015</text><circle cx="110.00" cy="108.00" r="6.00" style="fill:#4e79a7;stroke:#fff;stroke-width:2"></circle><rect x="20.00" y="116.00" width="180.00" height="40.00" rx="5.00" ry="5.00" style="fill:#4e79a7;stroke:none"></rect><text x="110.00" y="136.00" text-anchor="middle" dominant-baseline="central" style="fill:#fff;font-size:13px">Started CS degree</text><text x="306.00" y="95.00" text-anchor="middle" dominant-baseline="central" style="fill:#333;font-size:14px;font-weight:bold">2019</text><circle cx="306.00" cy="108.00" r="6.00" style="fill:#4e79a7;stroke:#fff;stroke-width:2"></circle><rect x="216.00" y="116.00" width="180.00" height="40.00" rx="5.00" ry="5.00" style="fill:#4e79a7;stroke:none"></rect><text x="306.00" y="136.00" text-anchor="middle" dominant-baseline="central" style="fill:#fff;font-size:13px">Graduated</text><text x="502.00" y="95.00" text-anchor="middle" dominant-baseline="central" style="fill:#333;font-size:14px;font-weight:bold">2019</text><circle cx="502.00" cy="108.00" r="6.00" style="fill:#f28e2b;stroke:#fff;stroke-width:2"></circle><rect x="412.00" y="116.00" width="180.00" height="40.00" rx="5.00" ry="5.00" style="fill:#f28e2b;stroke:none"></rect><text x="502.00" y="136.00" text-anchor="middle" dominant-baseline="central" style="fill:#fff;font-size:13px">First job</text><rect x="412.00" y="164.00" width="180.00" height="40.00" rx="5.00" ry="5.00" style="fill:#f28e2b;stroke:none"></rect><text x="502.00" y="184.00" text-anchor="middle" dominant-baseline="central" style="fill:#fff;font-size:13px">Junior engineer</text><text x="698.00" y="95.00" text-anchor="middle" dominant-baseline="central" style="fill:#333;font-size:14px;font-weight:bold">2021</text><circle cx="698.00" cy="108.00" r="6.00" style="fill:#f28e2b;stroke:#fff;stroke-width:2"></circle><rect x="608.00" y="116.00" width="180.00" height="40.00" rx="5.00" ry="5.00" style="fill:#f28e2b;stroke:none"></rect><text x="698.00" y="136.00" text-anchor="middle" dominant-baseline="central" style="fill:#fff;font-size:13px">Senior engineer</text><text x="894.00" y="95.00" text-anchor="middle" dominant-baseline="central" style="fill:#333;font-size:14px;font-weight:bold">2024</text><circle cx="894.00" cy="108.00" r="6.00" style="fill:#59a14f;stroke:#fff;stroke-width:2"></circle><rect x="804.00" y="116.00" width="180.00" height="40.00" rx="5.00" ry="5.00" style="fill:#59a14f;stroke:none"></rect><text x="894.00" y="136.00" text-anchor="middle" dominant-baseline="central" style="fill:#fff;font-size:13px">Staff engineer</text></svg>