<?xml version="1.0" encoding="UTF-8"?>
<svg xmlns="http://www.w3.org/2000/svg" viewBox="0 0 1200.00 280.00"><rect x="0.00" y="0.00" width="1200.00" height="280.00" style="fill:#fff;stroke:none"></rect><text x="600.00" y="35.00" text-anchor="middle" dominant-baseline="central" style="fill:#333;font-size:16px;font-weight:bold">History of Computing</text><rect x="20.00" y="50.00" width="376.00" height="28.00" rx="4.00" ry="4.00" style="fill:#4e79a7;fill-opacity:0.18;stroke:#4e79a7;stroke-width:1;stroke-opacity:0.5"></rect><text x="208.00" y="64.00" text-anchor="middle" dominant-baseline="central" style="fill:#4e79a7;font-size:14px;font-weight:bold">Mainframes</text><rect x="412.00" y="50.00" width="376.00" height="28.00" rx="4.00" ry="4.00" style="fill:#f28e2b;fill-opacity:0.18;stroke:#f28e2b;stroke-width:1;stroke-opacity:0.5"></rect><text x="600.00" y="64.00" text-anchor="middle" dominant-baseline="central" style="fill:#f28e2b;font-size:14px;font-weight:bold">Personal Computing</text><rect x="804.00" y="50.00" width="376.00" height="28.00" rx="4.00" ry="4.00" style="fill:#59a14f;fill-opacity:0.18;stroke:#59a14f;stroke-width:1;stroke-opacity:0.5"></rect><text x="992.00" y="64.00" text-anchor="middle" dominant-baseline="central" style="fill:#59a14f;font-size:14px;font-weight:bold">Web Era</text><line x1="20.00" y1="108.00" x2="1180.00" y2="108.00" style="stroke:#999;stroke-width:2"></line><text x="110.00" y="95.00" text-anchor="middle" dominant-baseline="central" style="fill:#333;font-size:14px;font-weight:bold">1940s</text><circle cx="110.00" cy="108.00" r="6.00" style="fill:#4e79a7;stroke:#fff;stroke-width:2"></circle><rect x="20.00" y="116.00" width="180.00" height="40.00" rx="5.00" ry="5.00" style="fill:#4e79a7;stroke:none"></rect><text x="110.00" y="136.00" text-anchor="middle" dominant-baseline="central" style="fill:#fff;font-size:13px">ENIAC</text><rect x="20.00" y="164.00" width="180.00" height="40.00" rx="5.00" ry="5.00" style="fill:#4e79a7;stroke:none"></rect><text x="110.00" y="184.00" text-anchor="middle" dominant-baseline="central" style="fill:#fff;font-size:13px">EDVAC</text><text x="306.00" y="95.00" text-anchor="middle" dominant-baseline="central" style="fill:#333;font-size:14px;font-weight:bold">1950s</text><circle cx="306.00" cy="108.00" r="6.00" style="fill:#4e79a7;stroke:#fff;stroke-width:2"></circle><rect x="216.00" y="116.00" width="180.00" height="40.00" rx="5.00" ry="5.00" style="fill:#4e79a7;stroke:none"></rect><text x="306.00" y="136.00" text-anchor="middle" dominant-baseline="central" style="fill:#fff;font-size:13px">UNIVAC I</text><rect x="216.00" y="164.00" width="180.00" height="40.00" rx="5.00" ry="5.00" style="fill:#4e79a7;stroke:none"></rect><text x="306.00" y="184.00" text-anchor="middle" dominant-baseline="central" style="fill:#fff;font-size:13px">IBM 701</text><text x="502.00" y="95.00" text-anchor="middle" dominant-baseline="central" style="fill:#333;font-size:14px;font-weight:bold">1970s</text><circle cx="502.00" cy="108.00" r="6.00" style="fill:#f28e2b;stroke:#fff;stroke-width:2"></circle><rect x="412.00" y="116.00" width="180.00" height="40.00" rx="5.00" ry="5.00" style="fill:#f28e2b;stroke:none"></rect><text x="502.00" y="136.00" text-anchor="middle" dominant-baseline="central" style="fill:#fff;font-size:13px">Altair 8800</text><rect x="412.00" y="164.00" width="180.00" height="40.00" rx="5.00" ry="5.00" style="fill:#f28e2b;stroke:none"></rect><text x="502.00" y="184.00" text-anchor="middle" dominant-baseline="central" style="fill:#fff;font-size:13px">Apple I</text><rect x="412.00" y="212.00" width="180.00" height="40.00" rx="5.00" ry="5.00" style="fill:#f28e2b;stroke:none"></rect><text x="502.00" y="232.00" text-anchor="middle" dominant-baseline="central" style="fill:#fff;font-size:13px">Apple II</text><text x="698.00" y="95.00" text-anchor="middle" dominant-baseline="central" style="fill:#333;font-size:14px;font-weight:bold">1980s</text><circle cx="698.00" cy="108.00" r="6.00" style="fill:#f28e2b;stroke:#fff;stroke-width:2"></circle><rect x="608.00" y="116.00" width="180.00" height="40.00" rx="5.00" ry="5.00" style="fill:#f28e2b;stroke:none"></rect><text x="698.00" y="136.00" text-anchor="middle" dominant-baseline="central" style="fill:#fff;font-size:13px">IBM PC</text><rect x="608.00" y="164.00" width="180.00" height="40.00" rx="5.00" ry="5.00" style="fill:#f28e2b;stroke:none"></rect><text x="698.00" y="184.00" text-anchor="middle" dominant-baseline="central" style="fill:#fff;font-size:13px">Macintosh</text><rect x="608.00" y="212.00" width="180.00" height="40.00" rx="5.00" ry="5.00" style="fill:#f28e2b;stroke:none"></rect><text x="698.00" y="232.00" text-anchor="middle" dominant-baseline="central" style="fill:#fff;font-size:13px">Amiga</text><text x="894.00" y="95.00" text-anchor="middle" dominant-baseline="central" style="fill:#333;font-size:14px;font-weight:bold">1990s</text><circle cx="894.00" cy="108.00" r="6.00" style="fill:#59a14f;stroke:#fff;stroke-width:2"></circle><rect x="804.00" y="116.00" width="180.00" height="40.00" rx="5.00" ry="5.00" style="fill:#59a14f;stroke:none"></rect><text x="894.00" y="136.00" text-anchor="middle" dominant-baseline="central" style="fill:#fff;font-size:13px">WWW</text><rect x="804.00" y="164.00" width="180.00" height="40.00" rx="5.00" ry="5.00" style="fill:#59a14f;stroke:none"></rect><text x="894.00" y="184.00" text-anchor="middle" dominant-baseline="central" style="fill:#fff;font-size:13px">Netscape</text><rect x="804.00" y="212.00" width="180.00" height="40.00" rx="5.00" ry="5.00" style="fill:#59a14f;stroke:none"></rect><text x="894.00" y="232.00" text-anchor="middle" dominant-baseline="central" style="fill:#fff;font-size:13px">Linux 1.0</text><text x="1090.00" y="95.00" text-anchor="middle" dominant-baseline="central" style="fill:#333;font-size:14px;font-weight:bold">2000s</text><circle cx="1090.00" cy="108.00" r="6.00" style="fill:#59a14f;stroke:#fff;stroke-width:2"></circle><rect x="1000.00" y="116.00" width="180.00" height="40.00" rx="5.00" ry="5.00" style="fill:#59a14f;stroke:none"></rect><text x="1090.00" y="136.00" text-anchor="middle" dominant-baseline="central" style="fill:#fff;font-size:13px">Wikipedia</text><rect x="1000.00" y="164.00" width="180.00" height="40.00" rx="5.00" ry="5.00" style="fill:#59a14f;stroke:none"></rect><text x="1090.00" y="184.00" text-anchor="middle" dominant-baseline="central" style="fill:#fff;font-size:13px">Firefox</text><rect x="1000.00" y="212.00" width="180.00" height="40.00" rx="5.00" ry="5.00" style="fill:#59a14f;stroke:none"></rect><text x="1090.00" y="232.00" text-anchor="middle" dominant-baseline="central" style="fill:#fff;font-size:13px">iPhone</text></svg>