<?xml version="1.0" encoding="UTF-8"?>
<svg xmlns="http://www.w3.org/2000/svg" viewBox="0 0 808.00 200.00"><rect x="0.00" y="0.00" width="808.00" height="200.00" style="fill:#fff;stroke:none"></rect><text x="404.00" y="35.00" text-anchor="middle" dominant-baseline="central" style="fill:#333;font-size:16px;font-weight:bold">History of the Web</text><line x1="20.00" y1="76.00" x2="788.00" y2="76.00" style="stroke:#999;stroke-width:2"></line><text x="110.00" y="63.00" text-anchor="middle" dominant-baseline="central" style="fill:#333;font-size:14px;font-weight:bold">2000</text><circle cx="110.00" cy="76.00" r="6.00" style="fill:#4e79a7;stroke:#fff;stroke-width:2"></circle><rect x="20.00" y="84.00" width="180.00" height="40.00" rx="5.00" ry="5.00" style="fill:#4e79a7;stroke:none"></rect><text x="110.00" y="104.00" text-anchor="middle" dominant-baseline="central" style="fill:#fff;font-size:13px">Web 1.0</text><text x="306.00" y="63.00" text-anchor="middle" dominant-baseline="central" style="fill:#333;font-size:14px;font-weight:bold">2005</text><circle cx="306.00" cy="76.00" r="6.00" style="fill:#4e79a7;stroke:#fff;stroke-width:2"></circle><rect x="216.00" y="84.00" width="180.00" height="40.00" rx="5.00" ry="5.00" style="fill:#4e79a7;stroke:none"></rect><text x="306.00" y="104.00" text-anchor="middle" dominant-baseline="central" style="fill:#fff;font-size:13px">Web 2.0 rise</text><rect x="216.00" y="132.00" width="180.00" height="40.00" rx="5.00" ry="5.00" style="fill:#4e79a7;stroke:none"></rect><text x="306.00" y="152.00" text-anchor="middle" dominant-baseline="central" style="fill:#fff;font-size:13px">Social networks</text><text x="502.00" y="63.00" text-anchor="middle" dominant-baseline="central" style="fill:#333;font-size:14px;font-weight:bold">2010</text><circle cx="502.00" cy="76.00" r="6.00" style="fill:#4e79a7;stroke:#fff;stroke-width:2"></circle><rect x="412.00" y="84.00" width="180.00" height="40.00" rx="5.00" ry="5.00" style="fill:#4e79a7;stroke:none"></rect><text x="502.00" y="104.00" text-anchor="middle" dominant-baseline="central" style="fill:#fff;font-size:13px">Mobile web</text><text x="698.00" y="63.00" text-anchor="middle" dominant-baseline="central" style="fill:#333;font-size:14px;font-weight:bold">2020</text><circle cx="698.00" cy="76.00" r="6.00" style="fill:#4e79a7;stroke:#fff;stroke-width:2"></circle><rect x="608.00" y="84.00" width="180.00" height="40.00" rx="5.00" ry="5.00" style="fill:#4e79a7;stroke:none"></rect><text x="698.00" y="104.00" text-anchor="middle" dominant-baseline="central" style="fill:#fff;font-size:13px">Web 3.0 experiments</text></svg>