<?xml version="1.0" encoding="UTF-8"?>
<svg xmlns="http://www.w3.org/2000/svg" viewBox="0 0 403.00 284.00"><rect x="0.00" y="0.00" width="403.00" height="284.00" style="fill:#fff;stroke:none"></rect><text x="201.50" y="35.00" text-anchor="middle" dominant-baseline="central" style="fill:#333;font-size:16px;font-weight:bold">History of the Web</text><line x1="170.00" y1="50.00" x2="170.00" y2="264.00" style="stroke:#999;stroke-width:2"></line><text x="150.00" y="82.00" text-anchor="end" dominant-baseline="central" style="fill:#333;font-size:14px;font-weight:bold">2000</text><circle cx="170.00" cy="82.00" r="7.00" style="fill:#4e79a7;stroke:#fff;stroke-width:2"></circle><rect x="190.00" y="64.00" width="180.00" height="36.00" rx="5.00" ry="5.00" style="fill:#4e79a7;stroke:none"></rect><text x="280.00" y="82.00" text-anchor="middle" dominant-baseline="central" style="fill:#fff;font-size:13px">Web 1.0</text><text x="150.00" y="132.00" text-anchor="end" dominant-baseline="central" style="fill:#333;font-size:14px;font-weight:bold">2005</text><circle cx="170.00" cy="132.00" r="7.00" style="fill:#4e79a7;stroke:#fff;stroke-width:2"></circle><rect x="190.00" y="114.00" width="180.00" height="36.00" rx="5.00" ry="5.00" style="fill:#4e79a7;stroke:none"></rect><text x="280.00" y="132.00" text-anchor="middle" dominant-baseline="central" style="fill:#fff;font-size:13px">Web 2.0 rise, Social networks</text><text x="150.00" y="182.00" text-anchor="end" dominant-baseline="central" style="fill:#333;font-size:14px;font-weight:bold">2010</text><circle cx="170.00" cy="182.00" r="7.00" style="fill:#4e79a7;stroke:#fff;stroke-width:2"></circle><rect x="190.00" y="164.00" width="180.00" height="36.00" rx="5.00" ry="5.00" style="fill:#4e79a7;stroke:none"></rect><text x="280.00" y="182.00" text-anchor="middle" dominant-baseline="central" style="fill:#fff;font-size:13px">Mobile web</text><text x="150.00" y="232.00" text-anchor="end" dominant-baseline="central" style="fill:#333;font-size:14px;font-weight:bold">2020</text><circle cx="170.00" cy="232.00" r="7.00" style="fill:#4e79a7;stroke:#fff;stroke-width:2"></circle><rect x="190.00" y="214.00" width="180.00" height="36.00" rx="5.00" ry="5.00" style="fill:#4e79a7;stroke:none"></rect><text x="280.00" y="232.00" text-anchor="middle" dominant-baseline="central" style="fill:#fff;font-size:13px">Web 3.0 experiments</text></svg>