<?xml version="1.0" encoding="UTF-8"?>
<svg xmlns="http://www.w3.org/2000/svg" viewBox="0 0 403.00 520.00"><rect x="0.00" y="0.00" width="403.00" height="520.00" style="fill:#fff;stroke:none"></rect><text x="201.50" y="35.00" text-anchor="middle" dominant-baseline="central" style="fill:#333;font-size:16px;font-weight:bold">Release Cadence</text><line x1="170.00" y1="50.00" x2="170.00" y2="500.00" style="stroke:#999;stroke-width:2"></line><text x="130.00" y="69.00" text-anchor="end" dominant-baseline="auto" style="fill:#4e79a7;font-size:14px;font-weight:bold">2024</text><text x="150.00" y="100.00" text-anchor="end" dominant-baseline="central" style="fill:#333;font-size:14px;font-weight:bold">Q1</text><circle cx="170.00" cy="100.00" r="7.00" style="fill:#4e79a7;stroke:#fff;stroke-width:2"></circle><rect x="190.00" y="82.00" width="180.00" height="36.00" rx="5.00" ry="5.00" style="fill:#4e79a7;stroke:none"></rect><text x="280.00" y="100.00" text-anchor="middle" dominant-baseline="central" style="fill:#fff;font-size:13px">Planning</text><text x="150.00" y="150.00" text-anchor="end" dominant-baseline="central" style="fill:#333;font-size:14px;font-weight:bold">Q2</text><circle cx="170.00" cy="150.00" r="7.00" style="fill:#4e79a7;stroke:#fff;stroke-width:2"></circle><rect x="190.00" y="132.00" width="180.00" height="36.00" rx="5.00" ry="5.00" style="fill:#4e79a7;stroke:none"></rect><text x="280.00" y="150.00" text-anchor="middle" dominant-baseline="central" style="fill:#fff;font-size:13px">Beta</text><text x="150.00" y="200.00" text-anchor="end" dominant-baseline="central" style="fill:#333;font-size:14px;font-weight:bold">Q3</text><circle cx="170.00" cy="200.00" r="7.00" style="fill:#4e79a7;stroke:#fff;stroke-width:2"></circle><rect x="190.00" y="182.00" width="180.00" height="36.00" rx="5.00" ry="5.00" style="fill:#4e79a7;stroke:none"></rect><text x="280.00" y="200.00" text-anchor="middle" dominant-baseline="central" style="fill:#fff;font-size:13px">RC</text><rect x="190.00" y="232.00" width="180.00" height="36.00" rx="5.00" ry="5.00" style="fill:#4e79a7;stroke:none"></rect><text x="280.00" y="250.00" text-anchor="middle" dominant-baseline="central" style="fill:#fff;font-size:13px">GA</text><text x="150.00" y="300.00" text-anchor="end" dominant-baseline="central" style="fill:#333;font-size:14px;font-weight:bold">Q4</text><circle cx="170.00" cy="300.00" r="7.00" style="fill:#4e79a7;stroke:#fff;stroke-width:2"></circle><rect x="190.00" y="282.00" width="180.00" height="36.00" rx="5.00" ry="5.00" style="fill:#4e79a7;stroke:none"></rect><text x="280.00" y="300.00" text-anchor="middle" dominant-baseline="central" style="fill:#fff;font-size:13px">v2 kickoff</text><text x="130.00" y="337.00" text-anchor="end" dominant-baseline="auto" style="fill:#f28e2b;font-size:14px;font-weight:bold">2025</text><text x="150.00" y="368.00" text-anchor="end" dominant-baseline="central" style="fill:#333;font-size:14px;font-weight:bold">Q1</text><circle cx="170.00" cy="368.00" r="7.00" style="fill:#f28e2b;stroke:#fff;stroke-width:2"></circle><rect x="190.00" y="350.00" width="180.00" height="36.00" rx="5.00" ry="5.00" style="fill:#f28e2b;stroke:none"></rect><text x="280.00" y="368.00" text-anchor="middle" dominant-baseline="central" style="fill:#fff;font-size:13px">v2 alpha</text><text x="150.00" y="418.00" text-anchor="end" dominant-baseline="central" style="fill:#333;font-size:14px;font-weight:bold">Q2</text><circle cx="170.00" cy="418.00" r="7.00" style="fill:#f28e2b;stroke:#fff;stroke-width:2"></circle><rect x="190.00" y="400.00" width="180.00" height="36.00" rx="5.00" ry="5.00" style="fill:#f28e2b;stroke:none"></rect><text x="280.00" y="418.00" text-anchor="middle" dominant-baseline="central" style="fill:#fff;font-size:13px">v2 beta</text><rect x="190.00" y="450.00" width="180.00" height="36.00" rx="5.00" ry="5.00" style="fill:#f28e2b;stroke:none"></rect><text x="280.00" y="468.00" text-anchor="middle" dominant-baseline="central" style="fill:#fff;font-size:13px">v2 GA</text></svg>