<?xml version="1.0" encoding="UTF-8"?>
<svg xmlns="http://www.w3.org/2000/svg" viewBox="0 0 700.00 500.00"><rect x="0.00" y="0.00" width="700.00" height="500.00" style="fill:#fff;stroke:none"></rect><text x="372.50" y="60.00" text-anchor="middle" dominant-baseline="central" style="fill:#333;font-size:20px;font-weight:bold">Team output by quarter</text><line x1="95.00" y1="436.00" x2="650.00" y2="436.00" style="stroke:#e5e5e5;stroke-width:1"></line><line x1="90.00" y1="436.00" x2="95.00" y2="436.00" style="stroke:#999;stroke-width:1"></line><text x="85.00" y="436.00" text-anchor="end" dominant-baseline="central" style="fill:#333;font-size:14px">0</text><line x1="95.00" y1="364.80" x2="650.00" y2="364.80" style="stroke:#e5e5e5;stroke-width:1"></line><line x1="90.00" y1="364.80" x2="95.00" y2="364.80" style="stroke:#999;stroke-width:1"></line><text x="85.00" y="364.80" text-anchor="end" dominant-baseline="central" style="fill:#333;font-size:14px">20</text><line x1="95.00" y1="293.60" x2="650.00" y2="293.60" style="stroke:#e5e5e5;stroke-width:1"></line><line x1="90.00" y1="293.60" x2="95.00" y2="293.60" style="stroke:#999;stroke-width:1"></line><text x="85.00" y="293.60" text-anchor="end" dominant-baseline="central" style="fill:#333;font-size:14px">40</text><line x1="95.00" y1="222.40" x2="650.00" y2="222.40" style="stroke:#e5e5e5;stroke-width:1"></line><line x1="90.00" y1="222.40" x2="95.00" y2="222.40" style="stroke:#999;stroke-width:1"></line><text x="85.00" y="222.40" text-anchor="end" dominant-baseline="central" style="fill:#333;font-size:14px">60</text><line x1="95.00" y1="151.20" x2="650.00" y2="151.20" style="stroke:#e5e5e5;stroke-width:1"></line><line x1="90.00" y1="151.20" x2="95.00" y2="151.20" style="stroke:#999;stroke-width:1"></line><text x="85.00" y="151.20" text-anchor="end" dominant-baseline="central" style="fill:#333;font-size:14px">80</text><line x1="95.00" y1="80.00" x2="650.00" y2="80.00" style="stroke:#e5e5e5;stroke-width:1"></line><line x1="90.00" y1="80.00" x2="95.00" y2="80.00" style="stroke:#999;stroke-width:1"></line><text x="85.00" y="80.00" text-anchor="end" dominant-baseline="central" style="fill:#333;font-size:14px">100</text><line x1="164.38" y1="436.00" x2="164.38" y2="441.00" style="stroke:#999;stroke-width:1"></line><text x="164.38" y="446.00" text-anchor="middle" dominant-baseline="hanging" style="fill:#333;font-size:14px">Q1</text><line x1="303.13" y1="436.00" x2="303.13" y2="441.00" style="stroke:#999;stroke-width:1"></line><text x="303.13" y="446.00" text-anchor="middle" dominant-baseline="hanging" style="fill:#333;font-size:14px">Q2</text><line x1="441.88" y1="436.00" x2="441.88" y2="441.00" style="stroke:#999;stroke-width:1"></line><text x="441.88" y="446.00" text-anchor="middle" dominant-baseline="hanging" style="fill:#333;font-size:14px">Q3</text><line x1="580.63" y1="436.00" x2="580.63" y2="441.00" style="stroke:#999;stroke-width:1"></line><text x="580.63" y="446.00" text-anchor="middle" dominant-baseline="hanging" style="fill:#333;font-size:14px">Q4</text><line x1="95.00" y1="436.00" x2="650.00" y2="436.00" style="stroke:#999;stroke-width:2"></line><line x1="95.00" y1="80.00" x2="95.00" y2="436.00" style="stroke:#999;stroke-width:2"></line><text x="58.00" y="258.00" text-anchor="middle" dominant-baseline="central" style="fill:#333;font-size:16px" transform="rotate(-90 58.00 258.00)">Story points</text><rect x="115.81" y="293.60" width="48.56" height="142.40" style="fill:#5470c6;stroke:none"></rect><rect x="254.56" y="240.20" width="48.56" height="195.80" style="fill:#5470c6;stroke:none"></rect><rect x="393.31" y="204.60" width="48.56" height="231.40" style="fill:#5470c6;stroke:none"></rect><rect x="532.06" y="186.80" width="48.56" height="249.20" style="fill:#5470c6;stroke:none"></rect><rect x="164.38" y="311.40" width="48.56" height="124.60" style="fill:#91cc75;stroke:none"></rect><rect x="303.13" y="258.00" width="48.56" height="178.00" style="fill:#91cc75;stroke:none"></rect><rect x="441.88" y="222.40" width="48.56" height="213.60" style="fill:#91cc75;stroke:none"></rect><rect x="580.63" y="151.20" width="48.56" height="284.80" style="fill:#91cc75;stroke:none"></rect></svg>