<?xml version="1.0" encoding="UTF-8"?>
<svg xmlns="http://www.w3.org/2000/svg" viewBox="0 0 676.00 456.00"><rect x="0.00" y="0.00" width="676.00" height="456.00" style="fill:#fff;stroke:none"></rect><text x="366.00" y="52.00" text-anchor="middle" dominant-baseline="central" style="fill:#333;font-size:15px;font-weight:bold">Team output by quarter</text><line x1="106.00" y1="384.00" x2="626.00" y2="384.00" style="stroke:#e5e5e5;stroke-width:1"></line><text x="99.00" y="384.00" text-anchor="end" dominant-baseline="central" style="fill:#333;font-size:11px">0</text><line x1="106.00" y1="320.00" x2="626.00" y2="320.00" style="stroke:#e5e5e5;stroke-width:1"></line><text x="99.00" y="320.00" text-anchor="end" dominant-baseline="central" style="fill:#333;font-size:11px">20</text><line x1="106.00" y1="256.00" x2="626.00" y2="256.00" style="stroke:#e5e5e5;stroke-width:1"></line><text x="99.00" y="256.00" text-anchor="end" dominant-baseline="central" style="fill:#333;font-size:11px">40</text><line x1="106.00" y1="192.00" x2="626.00" y2="192.00" style="stroke:#e5e5e5;stroke-width:1"></line><text x="99.00" y="192.00" text-anchor="end" dominant-baseline="central" style="fill:#333;font-size:11px">60</text><line x1="106.00" y1="128.00" x2="626.00" y2="128.00" style="stroke:#e5e5e5;stroke-width:1"></line><text x="99.00" y="128.00" text-anchor="end" dominant-baseline="central" style="fill:#333;font-size:11px">80</text><line x1="106.00" y1="64.00" x2="626.00" y2="64.00" style="stroke:#e5e5e5;stroke-width:1"></line><text x="99.00" y="64.00" text-anchor="end" dominant-baseline="central" style="fill:#333;font-size:11px">100</text><line x1="171.00" y1="384.00" x2="171.00" y2="389.00" style="stroke:#999;stroke-width:1"></line><text x="171.00" y="402.00" text-anchor="middle" dominant-baseline="hanging" style="fill:#333;font-size:11px">Q1</text><line x1="301.00" y1="384.00" x2="301.00" y2="389.00" style="stroke:#999;stroke-width:1"></line><text x="301.00" y="402.00" text-anchor="middle" dominant-baseline="hanging" style="fill:#333;font-size:11px">Q2</text><line x1="431.00" y1="384.00" x2="431.00" y2="389.00" style="stroke:#999;stroke-width:1"></line><text x="431.00" y="402.00" text-anchor="middle" dominant-baseline="hanging" style="fill:#333;font-size:11px">Q3</text><line x1="561.00" y1="384.00" x2="561.00" y2="389.00" style="stroke:#999;stroke-width:1"></line><text x="561.00" y="402.00" text-anchor="middle" dominant-baseline="hanging" style="fill:#333;font-size:11px">Q4</text><line x1="106.00" y1="384.00" x2="626.00" y2="384.00" style="stroke:#999;stroke-width:1.5"></line><line x1="106.00" y1="64.00" x2="106.00" y2="384.00" style="stroke:#999;stroke-width:1.5"></line><text x="62.00" y="224.00" text-anchor="middle" dominant-baseline="central" style="fill:#333;font-size:13px" transform="rotate(-90 62.00 224.00)">Story points</text><rect x="125.50" y="256.00" width="45.50" height="128.00" style="fill:#5470c6;stroke:none"></rect><rect x="255.50" y="208.00" width="45.50" height="176.00" style="fill:#5470c6;stroke:none"></rect><rect x="385.50" y="176.00" width="45.50" height="208.00" style="fill:#5470c6;stroke:none"></rect><rect x="515.50" y="160.00" width="45.50" height="224.00" style="fill:#5470c6;stroke:none"></rect><rect x="171.00" y="272.00" width="45.50" height="112.00" style="fill:#91cc75;stroke:none"></rect><rect x="301.00" y="224.00" width="45.50" height="160.00" style="fill:#91cc75;stroke:none"></rect><rect x="431.00" y="192.00" width="45.50" height="192.00" style="fill:#91cc75;stroke:none"></rect><rect x="561.00" y="128.00" width="45.50" height="256.00" style="fill:#91cc75;stroke:none"></rect></svg>