<?xml version="1.0" encoding="UTF-8"?>
<svg xmlns="http://www.w3.org/2000/svg" viewBox="0 0 700.00 500.00"><rect x="0.00" y="0.00" width="700.00" height="500.00" style="fill:#fff;stroke:none"></rect><text x="372.50" y="60.00" text-anchor="middle" dominant-baseline="central" style="fill:#333;font-size:20px;font-weight:bold">Latency vs Concurrency</text><line x1="95.00" y1="415.00" x2="650.00" y2="415.00" style="stroke:#e5e5e5;stroke-width:1"></line><line x1="90.00" y1="415.00" x2="95.00" y2="415.00" style="stroke:#999;stroke-width:1"></line><text x="85.00" y="415.00" text-anchor="end" dominant-baseline="central" style="fill:#333;font-size:14px">0</text><line x1="95.00" y1="348.00" x2="650.00" y2="348.00" style="stroke:#e5e5e5;stroke-width:1"></line><line x1="90.00" y1="348.00" x2="95.00" y2="348.00" style="stroke:#999;stroke-width:1"></line><text x="85.00" y="348.00" text-anchor="end" dominant-baseline="central" style="fill:#333;font-size:14px">100</text><line x1="95.00" y1="281.00" x2="650.00" y2="281.00" style="stroke:#e5e5e5;stroke-width:1"></line><line x1="90.00" y1="281.00" x2="95.00" y2="281.00" style="stroke:#999;stroke-width:1"></line><text x="85.00" y="281.00" text-anchor="end" dominant-baseline="central" style="fill:#333;font-size:14px">200</text><line x1="95.00" y1="214.00" x2="650.00" y2="214.00" style="stroke:#e5e5e5;stroke-width:1"></line><line x1="90.00" y1="214.00" x2="95.00" y2="214.00" style="stroke:#999;stroke-width:1"></line><text x="85.00" y="214.00" text-anchor="end" dominant-baseline="central" style="fill:#333;font-size:14px">300</text><line x1="95.00" y1="147.00" x2="650.00" y2="147.00" style="stroke:#e5e5e5;stroke-width:1"></line><line x1="90.00" y1="147.00" x2="95.00" y2="147.00" style="stroke:#999;stroke-width:1"></line><text x="85.00" y="147.00" text-anchor="end" dominant-baseline="central" style="fill:#333;font-size:14px">400</text><line x1="95.00" y1="80.00" x2="650.00" y2="80.00" style="stroke:#e5e5e5;stroke-width:1"></line><line x1="90.00" y1="80.00" x2="95.00" y2="80.00" style="stroke:#999;stroke-width:1"></line><text x="85.00" y="80.00" text-anchor="end" dominant-baseline="central" style="fill:#333;font-size:14px">500</text><line x1="95.00" y1="415.00" x2="95.00" y2="420.00" style="stroke:#999;stroke-width:1"></line><text x="95.00" y="425.00" text-anchor="middle" dominant-baseline="hanging" style="fill:#333;font-size:14px">0</text><line x1="206.00" y1="415.00" x2="206.00" y2="420.00" style="stroke:#999;stroke-width:1"></line><text x="206.00" y="425.00" text-anchor="middle" dominant-baseline="hanging" style="fill:#333;font-size:14px">20</text><line x1="317.00" y1="415.00" x2="317.00" y2="420.00" style="stroke:#999;stroke-width:1"></line><text x="317.00" y="425.00" text-anchor="middle" dominant-baseline="hanging" style="fill:#333;font-size:14px">40</text><line x1="428.00" y1="415.00" x2="428.00" y2="420.00" style="stroke:#999;stroke-width:1"></line><text x="428.00" y="425.00" text-anchor="middle" dominant-baseline="hanging" style="fill:#333;font-size:14px">60</text><line x1="539.00" y1="415.00" x2="539.00" y2="420.00" style="stroke:#999;stroke-width:1"></line><text x="539.00" y="425.00" text-anchor="middle" dominant-baseline="hanging" style="fill:#333;font-size:14px">80</text><line x1="650.00" y1="415.00" x2="650.00" y2="420.00" style="stroke:#999;stroke-width:1"></line><text x="650.00" y="425.00" text-anchor="middle" dominant-baseline="hanging" style="fill:#333;font-size:14px">100</text><line x1="95.00" y1="415.00" x2="650.00" y2="415.00" style="stroke:#999;stroke-width:2"></line><line x1="95.00" y1="80.00" x2="95.00" y2="415.00" style="stroke:#999;stroke-width:2"></line><text x="372.50" y="452.00" text-anchor="middle" dominant-baseline="central" style="fill:#333;font-size:16px">Concurrent connections</text><text x="58.00" y="247.50" text-anchor="middle" dominant-baseline="central" style="fill:#333;font-size:16px" transform="rotate(-90 58.00 247.50)">p99 latency (ms)</text><polyline points="122.75,398.25 178.25,388.20 233.75,371.45 289.25,351.35 344.75,321.20 400.25,284.35 455.75,234.10 511.25,187.20 566.75,133.60 622.25,93.40" style="fill:none;stroke:#5470c6;stroke-width:2"></polyline><circle cx="122.75" cy="398.25" r="3.00" style="fill:#5470c6;stroke:#fff;stroke-width:1"></circle><circle cx="178.25" cy="388.20" r="3.00" style="fill:#5470c6;stroke:#fff;stroke-width:1"></circle><circle cx="233.75" cy="371.45" r="3.00" style="fill:#5470c6;stroke:#fff;stroke-width:1"></circle><circle cx="289.25" cy="351.35" r="3.00" style="fill:#5470c6;stroke:#fff;stroke-width:1"></circle><circle cx="344.75" cy="321.20" r="3.00" style="fill:#5470c6;stroke:#fff;stroke-width:1"></circle><circle cx="400.25" cy="284.35" r="3.00" style="fill:#5470c6;stroke:#fff;stroke-width:1"></circle><circle cx="455.75" cy="234.10" r="3.00" style="fill:#5470c6;stroke:#fff;stroke-width:1"></circle><circle cx="511.25" cy="187.20" r="3.00" style="fill:#5470c6;stroke:#fff;stroke-width:1"></circle><circle cx="566.75" cy="133.60" r="3.00" style="fill:#5470c6;stroke:#fff;stroke-width:1"></circle><circle cx="622.25" cy="93.40" r="3.00" style="fill:#5470c6;stroke:#fff;stroke-width:1"></circle></svg>