<?xml version="1.0" encoding="UTF-8"?>
<svg xmlns="http://www.w3.org/2000/svg" viewBox="0 0 700.00 500.00"><rect x="0.00" y="0.00" width="700.00" height="500.00" style="fill:#fff;stroke:none"></rect><text x="362.00" y="60.00" text-anchor="middle" dominant-baseline="central" style="fill:#333;font-size:20px;font-weight:bold">Quarterly Headcount by Team</text><line x1="74.00" y1="80.00" x2="74.00" y2="415.00" style="stroke:#e5e5e5;stroke-width:1"></line><line x1="74.00" y1="415.00" x2="74.00" y2="420.00" style="stroke:#999;stroke-width:1"></line><text x="74.00" y="425.00" text-anchor="middle" dominant-baseline="hanging" style="fill:#333;font-size:14px">0</text><line x1="170.00" y1="80.00" x2="170.00" y2="415.00" style="stroke:#e5e5e5;stroke-width:1"></line><line x1="170.00" y1="415.00" x2="170.00" y2="420.00" style="stroke:#999;stroke-width:1"></line><text x="170.00" y="425.00" text-anchor="middle" dominant-baseline="hanging" style="fill:#333;font-size:14px">10</text><line x1="266.00" y1="80.00" x2="266.00" y2="415.00" style="stroke:#e5e5e5;stroke-width:1"></line><line x1="266.00" y1="415.00" x2="266.00" y2="420.00" style="stroke:#999;stroke-width:1"></line><text x="266.00" y="425.00" text-anchor="middle" dominant-baseline="hanging" style="fill:#333;font-size:14px">20</text><line x1="362.00" y1="80.00" x2="362.00" y2="415.00" style="stroke:#e5e5e5;stroke-width:1"></line><line x1="362.00" y1="415.00" x2="362.00" y2="420.00" style="stroke:#999;stroke-width:1"></line><text x="362.00" y="425.00" text-anchor="middle" dominant-baseline="hanging" style="fill:#333;font-size:14px">30</text><line x1="458.00" y1="80.00" x2="458.00" y2="415.00" style="stroke:#e5e5e5;stroke-width:1"></line><line x1="458.00" y1="415.00" x2="458.00" y2="420.00" style="stroke:#999;stroke-width:1"></line><text x="458.00" y="425.00" text-anchor="middle" dominant-baseline="hanging" style="fill:#333;font-size:14px">40</text><line x1="554.00" y1="80.00" x2="554.00" y2="415.00" style="stroke:#e5e5e5;stroke-width:1"></line><line x1="554.00" y1="415.00" x2="554.00" y2="420.00" style="stroke:#999;stroke-width:1"></line><text x="554.00" y="425.00" text-anchor="middle" dominant-baseline="hanging" style="fill:#333;font-size:14px">50</text><line x1="650.00" y1="80.00" x2="650.00" y2="415.00" style="stroke:#e5e5e5;stroke-width:1"></line><line x1="650.00" y1="415.00" x2="650.00" y2="420.00" style="stroke:#999;stroke-width:1"></line><text x="650.00" y="425.00" text-anchor="middle" dominant-baseline="hanging" style="fill:#333;font-size:14px">60</text><line x1="69.00" y1="113.50" x2="74.00" y2="113.50" style="stroke:#999;stroke-width:1"></line><text x="64.00" y="113.50" text-anchor="end" dominant-baseline="central" style="fill:#333;font-size:14px">Engineering</text><line x1="69.00" y1="180.50" x2="74.00" y2="180.50" style="stroke:#999;stroke-width:1"></line><text x="64.00" y="180.50" text-anchor="end" dominant-baseline="central" style="fill:#333;font-size:14px">Product</text><line x1="69.00" y1="247.50" x2="74.00" y2="247.50" style="stroke:#999;stroke-width:1"></line><text x="64.00" y="247.50" text-anchor="end" dominant-baseline="central" style="fill:#333;font-size:14px">Design</text><line x1="69.00" y1="314.50" x2="74.00" y2="314.50" style="stroke:#999;stroke-width:1"></line><text x="64.00" y="314.50" text-anchor="end" dominant-baseline="central" style="fill:#333;font-size:14px">Sales</text><line x1="69.00" y1="381.50" x2="74.00" y2="381.50" style="stroke:#999;stroke-width:1"></line><text x="64.00" y="381.50" text-anchor="end" dominant-baseline="central" style="fill:#333;font-size:14px">Support</text><line x1="74.00" y1="415.00" x2="650.00" y2="415.00" style="stroke:#999;stroke-width:2"></line><line x1="74.00" y1="80.00" x2="74.00" y2="415.00" style="stroke:#999;stroke-width:2"></line><text x="362.00" y="452.00" text-anchor="middle" dominant-baseline="central" style="fill:#333;font-size:16px">People</text><rect x="74.00" y="90.05" width="403.20" height="46.90" style="fill:#5470c6;stroke:none"></rect><rect x="74.00" y="157.05" width="172.80" height="46.90" style="fill:#5470c6;stroke:none"></rect><rect x="74.00" y="224.05" width="86.40" height="46.90" style="fill:#5470c6;stroke:none"></rect><rect x="74.00" y="291.05" width="259.20" height="46.90" style="fill:#5470c6;stroke:none"></rect><rect x="74.00" y="358.05" width="134.40" height="46.90" style="fill:#5470c6;stroke:none"></rect></svg>