<?xml version="1.0" encoding="UTF-8"?>
<svg xmlns="http://www.w3.org/2000/svg" viewBox="0 0 700.00 500.00"><rect x="0.00" y="0.00" width="700.00" height="500.00" style="fill:#fff;stroke:none"></rect><text x="372.50" y="60.00" text-anchor="middle" dominant-baseline="central" style="fill:#333;font-size:20px;font-weight:bold">Monthly Sales</text><line x1="95.00" y1="436.00" x2="650.00" y2="436.00" style="stroke:#e5e5e5;stroke-width:1"></line><text x="85.00" y="436.00" text-anchor="end" dominant-baseline="central" style="fill:#333;font-size:14px">0</text><line x1="95.00" y1="376.67" x2="650.00" y2="376.67" style="stroke:#e5e5e5;stroke-width:1"></line><text x="85.00" y="376.67" text-anchor="end" dominant-baseline="central" style="fill:#333;font-size:14px">2</text><line x1="95.00" y1="317.33" x2="650.00" y2="317.33" style="stroke:#e5e5e5;stroke-width:1"></line><text x="85.00" y="317.33" text-anchor="end" dominant-baseline="central" style="fill:#333;font-size:14px">4</text><line x1="95.00" y1="258.00" x2="650.00" y2="258.00" style="stroke:#e5e5e5;stroke-width:1"></line><text x="85.00" y="258.00" text-anchor="end" dominant-baseline="central" style="fill:#333;font-size:14px">6</text><line x1="95.00" y1="198.67" x2="650.00" y2="198.67" style="stroke:#e5e5e5;stroke-width:1"></line><text x="85.00" y="198.67" text-anchor="end" dominant-baseline="central" style="fill:#333;font-size:14px">8</text><line x1="95.00" y1="139.33" x2="650.00" y2="139.33" style="stroke:#e5e5e5;stroke-width:1"></line><text x="85.00" y="139.33" text-anchor="end" dominant-baseline="central" style="fill:#333;font-size:14px">10</text><line x1="95.00" y1="80.00" x2="650.00" y2="80.00" style="stroke:#e5e5e5;stroke-width:1"></line><text x="85.00" y="80.00" text-anchor="end" dominant-baseline="central" style="fill:#333;font-size:14px">12</text><line x1="141.25" y1="436.00" x2="141.25" y2="441.00" style="stroke:#999;stroke-width:1"></line><text x="141.25" y="446.00" text-anchor="middle" dominant-baseline="hanging" style="fill:#333;font-size:14px">jan</text><line x1="233.75" y1="436.00" x2="233.75" y2="441.00" style="stroke:#999;stroke-width:1"></line><text x="233.75" y="446.00" text-anchor="middle" dominant-baseline="hanging" style="fill:#333;font-size:14px">feb</text><line x1="326.25" y1="436.00" x2="326.25" y2="441.00" style="stroke:#999;stroke-width:1"></line><text x="326.25" y="446.00" text-anchor="middle" dominant-baseline="hanging" style="fill:#333;font-size:14px">mar</text><line x1="418.75" y1="436.00" x2="418.75" y2="441.00" style="stroke:#999;stroke-width:1"></line><text x="418.75" y="446.00" text-anchor="middle" dominant-baseline="hanging" style="fill:#333;font-size:14px">apr</text><line x1="511.25" y1="436.00" x2="511.25" y2="441.00" style="stroke:#999;stroke-width:1"></line><text x="511.25" y="446.00" text-anchor="middle" dominant-baseline="hanging" style="fill:#333;font-size:14px">may</text><line x1="603.75" y1="436.00" x2="603.75" y2="441.00" style="stroke:#999;stroke-width:1"></line><text x="603.75" y="446.00" text-anchor="middle" dominant-baseline="hanging" style="fill:#333;font-size:14px">jun</text><line x1="95.00" y1="436.00" x2="650.00" y2="436.00" style="stroke:#999;stroke-width:2"></line><line x1="95.00" y1="80.00" x2="95.00" y2="436.00" style="stroke:#999;stroke-width:2"></line><text x="58.00" y="258.00" text-anchor="middle" dominant-baseline="central" style="fill:#333;font-size:16px" transform="rotate(-90 58.00 258.00)">Revenue (k$)</text><rect x="108.88" y="287.67" width="64.75" height="148.33" style="fill:#5470c6;stroke:none"></rect><rect x="201.38" y="228.33" width="64.75" height="207.67" style="fill:#5470c6;stroke:none"></rect><rect x="293.88" y="169.00" width="64.75" height="267.00" style="fill:#5470c6;stroke:none"></rect><rect x="386.38" y="198.67" width="64.75" height="237.33" style="fill:#5470c6;stroke:none"></rect><rect x="478.88" y="139.33" width="64.75" height="296.67" style="fill:#5470c6;stroke:none"></rect><rect x="571.38" y="109.67" width="64.75" height="326.33" style="fill:#5470c6;stroke:none"></rect><polyline points="141.25,287.67 233.75,228.33 326.25,169.00 418.75,198.67 511.25,139.33 603.75,109.67" style="fill:none;stroke:#91cc75;stroke-width:2"></polyline><circle cx="141.25" cy="287.67" r="3.00" style="fill:#91cc75;stroke:#fff;stroke-width:1"></circle><circle cx="233.75" cy="228.33" r="3.00" style="fill:#91cc75;stroke:#fff;stroke-width:1"></circle><circle cx="326.25" cy="169.00" r="3.00" style="fill:#91cc75;stroke:#fff;stroke-width:1"></circle><circle cx="418.75" cy="198.67" r="3.00" style="fill:#91cc75;stroke:#fff;stroke-width:1"></circle><circle cx="511.25" cy="139.33" r="3.00" style="fill:#91cc75;stroke:#fff;stroke-width:1"></circle><circle cx="603.75" cy="109.67" r="3.00" style="fill:#91cc75;stroke:#fff;stroke-width:1"></circle></svg>