<?xml version="1.0" encoding="UTF-8"?>
<svg xmlns="http://www.w3.org/2000/svg" viewBox="0 0 676.00 456.00"><rect x="0.00" y="0.00" width="676.00" height="456.00" style="fill:#fff;stroke:none"></rect><text x="366.00" y="52.00" text-anchor="middle" dominant-baseline="central" style="fill:#333;font-size:15px;font-weight:bold">Monthly Sales</text><line x1="106.00" y1="384.00" x2="626.00" y2="384.00" style="stroke:#e5e5e5;stroke-width:1"></line><text x="99.00" y="384.00" text-anchor="end" dominant-baseline="central" style="fill:#333;font-size:11px">0</text><line x1="106.00" y1="320.00" x2="626.00" y2="320.00" style="stroke:#e5e5e5;stroke-width:1"></line><text x="99.00" y="320.00" text-anchor="end" dominant-baseline="central" style="fill:#333;font-size:11px">2.4</text><line x1="106.00" y1="256.00" x2="626.00" y2="256.00" style="stroke:#e5e5e5;stroke-width:1"></line><text x="99.00" y="256.00" text-anchor="end" dominant-baseline="central" style="fill:#333;font-size:11px">4.8</text><line x1="106.00" y1="192.00" x2="626.00" y2="192.00" style="stroke:#e5e5e5;stroke-width:1"></line><text x="99.00" y="192.00" text-anchor="end" dominant-baseline="central" style="fill:#333;font-size:11px">7.2</text><line x1="106.00" y1="128.00" x2="626.00" y2="128.00" style="stroke:#e5e5e5;stroke-width:1"></line><text x="99.00" y="128.00" text-anchor="end" dominant-baseline="central" style="fill:#333;font-size:11px">9.6</text><line x1="106.00" y1="64.00" x2="626.00" y2="64.00" style="stroke:#e5e5e5;stroke-width:1"></line><text x="99.00" y="64.00" text-anchor="end" dominant-baseline="central" style="fill:#333;font-size:11px">12</text><line x1="149.33" y1="384.00" x2="149.33" y2="389.00" style="stroke:#999;stroke-width:1"></line><text x="149.33" y="402.00" text-anchor="middle" dominant-baseline="hanging" style="fill:#333;font-size:11px">jan</text><line x1="236.00" y1="384.00" x2="236.00" y2="389.00" style="stroke:#999;stroke-width:1"></line><text x="236.00" y="402.00" text-anchor="middle" dominant-baseline="hanging" style="fill:#333;font-size:11px">feb</text><line x1="322.67" y1="384.00" x2="322.67" y2="389.00" style="stroke:#999;stroke-width:1"></line><text x="322.67" y="402.00" text-anchor="middle" dominant-baseline="hanging" style="fill:#333;font-size:11px">mar</text><line x1="409.33" y1="384.00" x2="409.33" y2="389.00" style="stroke:#999;stroke-width:1"></line><text x="409.33" y="402.00" text-anchor="middle" dominant-baseline="hanging" style="fill:#333;font-size:11px">apr</text><line x1="496.00" y1="384.00" x2="496.00" y2="389.00" style="stroke:#999;stroke-width:1"></line><text x="496.00" y="402.00" text-anchor="middle" dominant-baseline="hanging" style="fill:#333;font-size:11px">may</text><line x1="582.67" y1="384.00" x2="582.67" y2="389.00" style="stroke:#999;stroke-width:1"></line><text x="582.67" y="402.00" text-anchor="middle" dominant-baseline="hanging" style="fill:#333;font-size:11px">jun</text><line x1="106.00" y1="384.00" x2="626.00" y2="384.00" style="stroke:#999;stroke-width:1.5"></line><line x1="106.00" y1="64.00" x2="106.00" y2="384.00" style="stroke:#999;stroke-width:1.5"></line><text x="62.00" y="224.00" text-anchor="middle" dominant-baseline="central" style="fill:#333;font-size:13px" transform="rotate(-90 62.00 224.00)">Revenue (k$)</text><rect x="119.00" y="250.67" width="60.67" height="133.33" style="fill:#5470c6;stroke:none"></rect><rect x="205.67" y="197.33" width="60.67" height="186.67" style="fill:#5470c6;stroke:none"></rect><rect x="292.33" y="144.00" width="60.67" height="240.00" style="fill:#5470c6;stroke:none"></rect><rect x="379.00" y="170.67" width="60.67" height="213.33" style="fill:#5470c6;stroke:none"></rect><rect x="465.67" y="117.33" width="60.67" height="266.67" style="fill:#5470c6;stroke:none"></rect><rect x="552.33" y="90.67" width="60.67" height="293.33" style="fill:#5470c6;stroke:none"></rect><polyline points="149.33,250.67 236.00,197.33 322.67,144.00 409.33,170.67 496.00,117.33 582.67,90.67" style="fill:none;stroke:#91cc75;stroke-width:2"></polyline><circle cx="149.33" cy="250.67" r="3.00" style="fill:#91cc75;stroke:#fff;stroke-width:1"></circle><circle cx="236.00" cy="197.33" r="3.00" style="fill:#91cc75;stroke:#fff;stroke-width:1"></circle><circle cx="322.67" cy="144.00" r="3.00" style="fill:#91cc75;stroke:#fff;stroke-width:1"></circle><circle cx="409.33" cy="170.67" r="3.00" style="fill:#91cc75;stroke:#fff;stroke-width:1"></circle><circle cx="496.00" cy="117.33" r="3.00" style="fill:#91cc75;stroke:#fff;stroke-width:1"></circle><circle cx="582.67" cy="90.67" r="3.00" style="fill:#91cc75;stroke:#fff;stroke-width:1"></circle></svg>