<?xml version="1.0" encoding="UTF-8"?>
<svg xmlns="http://www.w3.org/2000/svg" viewBox="0 0 760.00 206.00"><rect x="0.00" y="0.00" width="760.00" height="206.00" style="fill:#fff;stroke:none"></rect><rect x="30.00" y="30.00" width="220.00" height="146.00" rx="6.00" ry="6.00" style="fill:#f3f4f6;stroke:#d1d5db;stroke-width:1"></rect><text x="140.00" y="50.00" text-anchor="middle" dominant-baseline="central" style="fill:#1f2937;font-size:14px;font-weight:bold">Todo</text><rect x="35.00" y="80.00" width="210.00" height="38.00" rx="6.00" ry="6.00" style="fill:#ffffff;stroke:#d1d5db;stroke-width:1"></rect><text x="45.00" y="99.00" dominant-baseline="central" style="fill:#111827;font-size:13px">Write docs</text><rect x="35.00" y="128.00" width="210.00" height="38.00" rx="6.00" ry="6.00" style="fill:#ffffff;stroke:#d1d5db;stroke-width:1"></rect><text x="45.00" y="147.00" dominant-baseline="central" style="fill:#111827;font-size:13px">Write tests</text><rect x="270.00" y="30.00" width="220.00" height="146.00" rx="6.00" ry="6.00" style="fill:#f3f4f6;stroke:#d1d5db;stroke-width:1"></rect><text x="380.00" y="50.00" text-anchor="middle" dominant-baseline="central" style="fill:#1f2937;font-size:14px;font-weight:bold">In Progress</text><rect x="275.00" y="80.00" width="210.00" height="38.00" rx="6.00" ry="6.00" style="fill:#ffffff;stroke:#d1d5db;stroke-width:1"></rect><text x="285.00" y="99.00" dominant-baseline="central" style="fill:#111827;font-size:13px">Implement renderer</text><rect x="510.00" y="30.00" width="220.00" height="146.00" rx="6.00" ry="6.00" style="fill:#f3f4f6;stroke:#d1d5db;stroke-width:1"></rect><text x="620.00" y="50.00" text-anchor="middle" dominant-baseline="central" style="fill:#1f2937;font-size:14px;font-weight:bold">Done</text><rect x="515.00" y="80.00" width="210.00" height="38.00" rx="6.00" ry="6.00" style="fill:#ffffff;stroke:#d1d5db;stroke-width:1"></rect><text x="525.00" y="99.00" dominant-baseline="central" style="fill:#111827;font-size:13px">Parse AST</text><rect x="515.00" y="128.00" width="210.00" height="38.00" rx="6.00" ry="6.00" style="fill:#ffffff;stroke:#d1d5db;stroke-width:1"></rect><text x="525.00" y="147.00" dominant-baseline="central" style="fill:#111827;font-size:13px">Design data model</text></svg>