<?xml version="1.0" encoding="UTF-8"?>
<svg xmlns="http://www.w3.org/2000/svg" viewBox="0 0 1240.00 266.00"><rect x="0.00" y="0.00" width="1240.00" height="266.00" style="fill:#fff;stroke:none"></rect><rect x="30.00" y="30.00" width="220.00" height="206.00" rx="6.00" ry="6.00" style="fill:#f3f4f6;stroke:#d1d5db;stroke-width:1"></rect><text x="140.00" y="50.00" text-anchor="middle" dominant-baseline="central" style="fill:#1f2937;font-size:14px;font-weight:bold">Backlog</text><rect x="35.00" y="80.00" width="210.00" height="38.00" rx="6.00" ry="6.00" style="fill:#ffffff;stroke:#d1d5db;stroke-width:1"></rect><text x="45.00" y="99.00" dominant-baseline="central" style="fill:#111827;font-size:13px">Research competitors</text><rect x="35.00" y="128.00" width="210.00" height="53.00" rx="6.00" ry="6.00" style="fill:#ffffff;stroke:#d1d5db;stroke-width:1"></rect><text x="45.00" y="147.00" dominant-baseline="central" style="fill:#111827;font-size:13px">New landing page</text><text x="45.00" y="163.50" dominant-baseline="central" style="fill:#6b7280;font-size:11px">priority: Low</text><rect x="270.00" y="30.00" width="220.00" height="206.00" rx="6.00" ry="6.00" style="fill:#f3f4f6;stroke:#d1d5db;stroke-width:1"></rect><text x="380.00" y="50.00" text-anchor="middle" dominant-baseline="central" style="fill:#1f2937;font-size:14px;font-weight:bold">Ready</text><rect x="275.00" y="80.00" width="210.00" height="68.00" rx="6.00" ry="6.00" style="fill:#ffffff;stroke:#d1d5db;stroke-width:1"></rect><text x="285.00" y="99.00" dominant-baseline="central" style="fill:#111827;font-size:13px">API refactor</text><text x="285.00" y="115.50" dominant-baseline="central" style="fill:#6b7280;font-size:11px">priority: High</text><text x="285.00" y="130.50" dominant-baseline="central" style="fill:#6b7280;font-size:11px">assigned: alice</text><rect x="275.00" y="158.00" width="210.00" height="68.00" rx="6.00" ry="6.00" style="fill:#ffffff;stroke:#d1d5db;stroke-width:1"></rect><text x="285.00" y="177.00" dominant-baseline="central" style="fill:#111827;font-size:13px">DB migration</text><text x="285.00" y="193.50" dominant-baseline="central" style="fill:#6b7280;font-size:11px">priority: High</text><text x="285.00" y="208.50" dominant-baseline="central" style="fill:#6b7280;font-size:11px">ticket: DB-42</text><rect x="510.00" y="30.00" width="220.00" height="206.00" rx="6.00" ry="6.00" style="fill:#f3f4f6;stroke:#d1d5db;stroke-width:1"></rect><text x="620.00" y="50.00" text-anchor="middle" dominant-baseline="central" style="fill:#1f2937;font-size:14px;font-weight:bold">In Progress</text><rect x="515.00" y="80.00" width="210.00" height="53.00" rx="6.00" ry="6.00" style="fill:#ffffff;stroke:#d1d5db;stroke-width:1"></rect><text x="525.00" y="99.00" dominant-baseline="central" style="fill:#111827;font-size:13px">Auth flow</text><text x="525.00" y="115.50" dominant-baseline="central" style="fill:#6b7280;font-size:11px">assigned: bob</text><rect x="750.00" y="30.00" width="220.00" height="206.00" rx="6.00" ry="6.00" style="fill:#f3f4f6;stroke:#d1d5db;stroke-width:1"></rect><text x="860.00" y="50.00" text-anchor="middle" dominant-baseline="central" style="fill:#1f2937;font-size:14px;font-weight:bold">Review</text><rect x="755.00" y="80.00" width="210.00" height="38.00" rx="6.00" ry="6.00" style="fill:#ffffff;stroke:#d1d5db;stroke-width:1"></rect><text x="765.00" y="99.00" dominant-baseline="central" style="fill:#111827;font-size:13px">Onboarding copy</text><rect x="990.00" y="30.00" width="220.00" height="206.00" rx="6.00" ry="6.00" style="fill:#f3f4f6;stroke:#d1d5db;stroke-width:1"></rect><text x="1100.00" y="50.00" text-anchor="middle" dominant-baseline="central" style="fill:#1f2937;font-size:14px;font-weight:bold">Done</text><rect x="995.00" y="80.00" width="210.00" height="53.00" rx="6.00" ry="6.00" style="fill:#ffffff;stroke:#d1d5db;stroke-width:1"></rect><text x="1005.00" y="99.00" dominant-baseline="central" style="fill:#111827;font-size:13px">Deploy v2</text><text x="1005.00" y="115.50" dominant-baseline="central" style="fill:#6b7280;font-size:11px">priority: High</text></svg>